<svg width="1200" height="105" viewBox="0 0 1200 105" fill="none" xmlns="http://www.w3.org/2000/svg">
<path d="M24.5 22H36.5C38.6217 22 40.6566 22.8429 42.1569 24.3431C43.6571 25.8434 44.5 27.8783 44.5 30V58C44.5 56.4087 43.8679 54.8826 42.7426 53.7574C41.6174 52.6321 40.0913 52 38.5 52H24.5V22Z" stroke="white" stroke-width="4" stroke-linecap="round" stroke-linejoin="round"/>
<path d="M64.5 22H52.5C50.3783 22 48.3434 22.8429 46.8431 24.3431C45.3429 25.8434 44.5 27.8783 44.5 30V58C44.5 56.4087 45.1321 54.8826 46.2574 53.7574C47.3826 52.6321 48.9087 52 50.5 52H64.5V22Z" stroke="white" stroke-width="4" stroke-linecap="round" stroke-linejoin="round"/>
<path d="M10.6037 77.2727V86H8.75852V77.2727H10.6037ZM13.9031 82.2159V86H12.0877V79.4545H13.8178V80.6094H13.8945C14.0394 80.2287 14.2823 79.9276 14.6232 79.706C14.9641 79.4815 15.3775 79.3693 15.8633 79.3693C16.3178 79.3693 16.7141 79.4688 17.0522 79.6676C17.3903 79.8665 17.6531 80.1506 17.8406 80.5199C18.0281 80.8864 18.1218 81.3239 18.1218 81.8324V86H16.3065V82.1562C16.3093 81.7557 16.207 81.4432 15.9996 81.2188C15.7923 80.9915 15.5067 80.8778 15.1431 80.8778C14.8988 80.8778 14.6829 80.9304 14.4954 81.0355C14.3107 81.1406 14.1658 81.294 14.0607 81.4957C13.9585 81.6946 13.9059 81.9347 13.9031 82.2159ZM23.0341 79.4545V80.8182H19.0923V79.4545H23.0341ZM19.9872 77.8864H21.8026V83.9886C21.8026 84.1562 21.8281 84.2869 21.8793 84.3807C21.9304 84.4716 22.0014 84.5355 22.0923 84.5724C22.1861 84.6094 22.294 84.6278 22.4162 84.6278C22.5014 84.6278 22.5866 84.6207 22.6719 84.6065C22.7571 84.5895 22.8224 84.5767 22.8679 84.5682L23.1534 85.919C23.0625 85.9474 22.9347 85.9801 22.7699 86.017C22.6051 86.0568 22.4048 86.081 22.169 86.0895C21.7315 86.1065 21.348 86.0483 21.0185 85.9148C20.6918 85.7812 20.4375 85.5739 20.2557 85.2926C20.0739 85.0114 19.9844 84.6562 19.9872 84.2273V77.8864ZM24.2166 86V79.4545H25.9766V80.5966H26.0447C26.1641 80.1903 26.3643 79.8835 26.6456 79.6761C26.9268 79.4659 27.2507 79.3608 27.6172 79.3608C27.7081 79.3608 27.8061 79.3665 27.9112 79.3778C28.0163 79.3892 28.1087 79.4048 28.1882 79.4247V81.0355C28.103 81.0099 27.9851 80.9872 27.8345 80.9673C27.6839 80.9474 27.5462 80.9375 27.4212 80.9375C27.1541 80.9375 26.9155 80.9957 26.7053 81.1122C26.4979 81.2259 26.3331 81.3849 26.2109 81.5895C26.0916 81.794 26.032 82.0298 26.032 82.2969V86H24.2166ZM31.7795 86.1278C31.1175 86.1278 30.5451 85.9872 30.0621 85.706C29.582 85.4219 29.2113 85.027 28.9499 84.5213C28.6886 84.0128 28.5579 83.4233 28.5579 82.7528C28.5579 82.0767 28.6886 81.4858 28.9499 80.9801C29.2113 80.4716 29.582 80.0767 30.0621 79.7955C30.5451 79.5114 31.1175 79.3693 31.7795 79.3693C32.4414 79.3693 33.0124 79.5114 33.4925 79.7955C33.9755 80.0767 34.3477 80.4716 34.609 80.9801C34.8704 81.4858 35.0011 82.0767 35.0011 82.7528C35.0011 83.4233 34.8704 84.0128 34.609 84.5213C34.3477 85.027 33.9755 85.4219 33.4925 85.706C33.0124 85.9872 32.4414 86.1278 31.7795 86.1278ZM31.788 84.7216C32.0891 84.7216 32.3406 84.6364 32.5423 84.4659C32.744 84.2926 32.896 84.0568 32.9982 83.7585C33.1033 83.4602 33.1559 83.1207 33.1559 82.7401C33.1559 82.3594 33.1033 82.0199 32.9982 81.7216C32.896 81.4233 32.744 81.1875 32.5423 81.0142C32.3406 80.8409 32.0891 80.7543 31.788 80.7543C31.484 80.7543 31.2283 80.8409 31.021 81.0142C30.8164 81.1875 30.6616 81.4233 30.5565 81.7216C30.4542 82.0199 30.4031 82.3594 30.4031 82.7401C30.4031 83.1207 30.4542 83.4602 30.5565 83.7585C30.6616 84.0568 30.8164 84.2926 31.021 84.4659C31.2283 84.6364 31.484 84.7216 31.788 84.7216ZM38.5934 86.1065C38.0962 86.1065 37.646 85.9787 37.2425 85.723C36.842 85.4645 36.5238 85.0852 36.288 84.5852C36.055 84.0824 35.9386 83.4659 35.9386 82.7358C35.9386 81.9858 36.0593 81.3622 36.3008 80.8651C36.5423 80.3651 36.8633 79.9915 37.2638 79.7443C37.6673 79.4943 38.109 79.3693 38.5891 79.3693C38.9556 79.3693 39.261 79.4318 39.5053 79.5568C39.7525 79.679 39.9513 79.8324 40.1019 80.017C40.2553 80.1989 40.3718 80.3778 40.4513 80.554H40.5067V77.2727H42.3178V86H40.5281V84.9517H40.4513C40.3661 85.1335 40.2454 85.3139 40.0891 85.4929C39.9357 85.669 39.7354 85.8153 39.4883 85.9318C39.244 86.0483 38.9457 86.1065 38.5934 86.1065ZM39.1687 84.6619C39.4613 84.6619 39.7085 84.5824 39.9102 84.4233C40.1147 84.2614 40.271 84.0355 40.3789 83.7457C40.4897 83.456 40.5451 83.1165 40.5451 82.7273C40.5451 82.3381 40.4911 82 40.3832 81.7131C40.2752 81.4261 40.119 81.2045 39.9144 81.0483C39.7099 80.892 39.4613 80.8139 39.1687 80.8139C38.8704 80.8139 38.619 80.8949 38.4144 81.0568C38.2099 81.2187 38.055 81.4432 37.9499 81.7301C37.8448 82.017 37.7923 82.3494 37.7923 82.7273C37.7923 83.108 37.8448 83.4446 37.9499 83.7372C38.0579 84.027 38.2127 84.2543 38.4144 84.419C38.619 84.581 38.8704 84.6619 39.1687 84.6619ZM48.0078 83.2131V79.4545H49.8232V86H48.0803V84.8111H48.0121C47.8643 85.1946 47.6186 85.5028 47.2749 85.7358C46.9339 85.9687 46.5178 86.0852 46.0263 86.0852C45.5888 86.0852 45.2038 85.9858 44.8714 85.7869C44.5391 85.5881 44.2791 85.3054 44.0916 84.9389C43.907 84.5724 43.8132 84.1335 43.8104 83.6222V79.4545H45.6257V83.2983C45.6286 83.6847 45.7322 83.9901 45.9368 84.2145C46.1413 84.4389 46.4155 84.5511 46.7592 84.5511C46.978 84.5511 47.1825 84.5014 47.3729 84.402C47.5632 84.2997 47.7166 84.1491 47.8331 83.9503C47.9524 83.7514 48.0107 83.5057 48.0078 83.2131ZM54.2326 86.1278C53.5621 86.1278 52.9854 85.9858 52.5025 85.7017C52.0224 85.4148 51.6531 85.017 51.3945 84.5085C51.1388 84 51.011 83.4148 51.011 82.7528C51.011 82.0824 51.1403 81.4943 51.3988 80.9886C51.6602 80.4801 52.0309 80.0838 52.511 79.7997C52.9911 79.5128 53.5621 79.3693 54.2241 79.3693C54.7951 79.3693 55.2951 79.473 55.7241 79.6804C56.1531 79.8878 56.4925 80.179 56.7425 80.554C56.9925 80.929 57.1303 81.3693 57.1559 81.875H55.4428C55.3945 81.5483 55.2667 81.2855 55.0593 81.0866C54.8548 80.8849 54.5863 80.7841 54.2539 80.7841C53.9727 80.7841 53.7269 80.8608 53.5167 81.0142C53.3093 81.1648 53.1474 81.3849 53.0309 81.6747C52.9144 81.9645 52.8562 82.3153 52.8562 82.7273C52.8562 83.1449 52.913 83.5 53.0266 83.7926C53.1431 84.0852 53.3065 84.3082 53.5167 84.4616C53.7269 84.6151 53.9727 84.6918 54.2539 84.6918C54.4613 84.6918 54.6474 84.6491 54.8121 84.5639C54.9798 84.4787 55.1175 84.3551 55.2255 84.1932C55.3363 84.0284 55.4087 83.831 55.4428 83.6009H57.1559C57.1275 84.1009 56.9911 84.5412 56.7468 84.9219C56.5053 85.2997 56.1715 85.5952 55.7454 85.8082C55.3192 86.0213 54.815 86.1278 54.2326 86.1278ZM61.7997 79.4545V80.8182H57.858V79.4545H61.7997ZM58.7528 77.8864H60.5682V83.9886C60.5682 84.1562 60.5938 84.2869 60.6449 84.3807C60.696 84.4716 60.767 84.5355 60.858 84.5724C60.9517 84.6094 61.0597 84.6278 61.1818 84.6278C61.267 84.6278 61.3523 84.6207 61.4375 84.6065C61.5227 84.5895 61.5881 84.5767 61.6335 84.5682L61.919 85.919C61.8281 85.9474 61.7003 85.9801 61.5355 86.017C61.3707 86.0568 61.1705 86.081 60.9347 86.0895C60.4972 86.1065 60.1136 86.0483 59.7841 85.9148C59.4574 85.7812 59.2031 85.5739 59.0213 85.2926C58.8395 85.0114 58.75 84.6562 58.7528 84.2273V77.8864ZM62.9822 86V79.4545H64.7976V86H62.9822ZM63.8942 78.6108C63.6243 78.6108 63.3928 78.5213 63.1996 78.3423C63.0092 78.1605 62.9141 77.9432 62.9141 77.6903C62.9141 77.4403 63.0092 77.2259 63.1996 77.0469C63.3928 76.8651 63.6243 76.7741 63.8942 76.7741C64.1641 76.7741 64.3942 76.8651 64.5845 77.0469C64.7777 77.2259 64.8743 77.4403 64.8743 77.6903C64.8743 77.9432 64.7777 78.1605 64.5845 78.3423C64.3942 78.5213 64.1641 78.6108 63.8942 78.6108ZM69.2092 86.1278C68.5472 86.1278 67.9748 85.9872 67.4918 85.706C67.0117 85.4219 66.641 85.027 66.3796 84.5213C66.1183 84.0128 65.9876 83.4233 65.9876 82.7528C65.9876 82.0767 66.1183 81.4858 66.3796 80.9801C66.641 80.4716 67.0117 80.0767 67.4918 79.7955C67.9748 79.5114 68.5472 79.3693 69.2092 79.3693C69.8711 79.3693 70.4421 79.5114 70.9222 79.7955C71.4052 80.0767 71.7773 80.4716 72.0387 80.9801C72.3001 81.4858 72.4308 82.0767 72.4308 82.7528C72.4308 83.4233 72.3001 84.0128 72.0387 84.5213C71.7773 85.027 71.4052 85.4219 70.9222 85.706C70.4421 85.9872 69.8711 86.1278 69.2092 86.1278ZM69.2177 84.7216C69.5188 84.7216 69.7702 84.6364 69.9719 84.4659C70.1737 84.2926 70.3256 84.0568 70.4279 83.7585C70.533 83.4602 70.5856 83.1207 70.5856 82.7401C70.5856 82.3594 70.533 82.0199 70.4279 81.7216C70.3256 81.4233 70.1737 81.1875 69.9719 81.0142C69.7702 80.8409 69.5188 80.7543 69.2177 80.7543C68.9137 80.7543 68.658 80.8409 68.4506 81.0142C68.2461 81.1875 68.0913 81.4233 67.9862 81.7216C67.8839 82.0199 67.8327 82.3594 67.8327 82.7401C67.8327 83.1207 67.8839 83.4602 67.9862 83.7585C68.0913 84.0568 68.2461 84.2926 68.4506 84.4659C68.658 84.6364 68.9137 84.7216 69.2177 84.7216ZM75.4265 82.2159V86H73.6112V79.4545H75.3413V80.6094H75.418C75.5629 80.2287 75.8058 79.9276 76.1467 79.706C76.4876 79.4815 76.9009 79.3693 77.3867 79.3693C77.8413 79.3693 78.2376 79.4688 78.5756 79.6676C78.9137 79.8665 79.1765 80.1506 79.364 80.5199C79.5515 80.8864 79.6452 81.3239 79.6452 81.8324V86H77.8299V82.1562C77.8327 81.7557 77.7305 81.4432 77.5231 81.2188C77.3157 80.9915 77.0302 80.8778 76.6665 80.8778C76.4222 80.8778 76.2063 80.9304 76.0188 81.0355C75.8342 81.1406 75.6893 81.294 75.5842 81.4957C75.4819 81.6946 75.4293 81.9347 75.4265 82.2159Z" fill="white"/>
<rect x="81" y="50.5" width="4" height="4" rx="2" fill="#D9D9D9"/>
<rect x="89" y="50.5" width="4" height="4" rx="2" fill="#D9D9D9"/>
<path d="M106.333 45.834H101C100.646 45.834 100.307 45.9745 100.057 46.2245C99.8071 46.4746 99.6666 46.8137 99.6666 47.1673V57.834C99.6666 58.1876 99.8071 58.5267 100.057 58.7768C100.307 59.0268 100.646 59.1673 101 59.1673H109C109.354 59.1673 109.693 59.0268 109.943 58.7768C110.193 58.5267 110.333 58.1876 110.333 57.834V49.834L106.333 45.834Z" stroke="white" stroke-width="1.33333" stroke-linecap="round" stroke-linejoin="round"/>
<path d="M106.333 45.834V49.834H110.333" stroke="white" stroke-width="1.33333" stroke-linecap="round" stroke-linejoin="round"/>
<path d="M107.667 53.166H102.333" stroke="white" stroke-width="1.33333" stroke-linecap="round" stroke-linejoin="round"/>
<path d="M107.667 55.834H102.333" stroke="white" stroke-width="1.33333" stroke-linecap="round" stroke-linejoin="round"/>
<path d="M103.667 50.5H103H102.333" stroke="white" stroke-width="1.33333" stroke-linecap="round" stroke-linejoin="round"/>
<rect x="117" y="50.5" width="36" height="4" rx="2" fill="#D9D9D9"/>
<path d="M166.333 45.834H161C160.646 45.834 160.307 45.9745 160.057 46.2245C159.807 46.4746 159.667 46.8137 159.667 47.1673V57.834C159.667 58.1876 159.807 58.5267 160.057 58.7768C160.307 59.0268 160.646 59.1673 161 59.1673H169C169.354 59.1673 169.693 59.0268 169.943 58.7768C170.193 58.5267 170.333 58.1876 170.333 57.834V49.834L166.333 45.834Z" stroke="white" stroke-width="1.33333" stroke-linecap="round" stroke-linejoin="round"/>
<path d="M166.333 45.834V49.834H170.333" stroke="white" stroke-width="1.33333" stroke-linecap="round" stroke-linejoin="round"/>
<path d="M167.667 53.166H162.333" stroke="white" stroke-width="1.33333" stroke-linecap="round" stroke-linejoin="round"/>
<path d="M167.667 55.834H162.333" stroke="white" stroke-width="1.33333" stroke-linecap="round" stroke-linejoin="round"/>
<path d="M163.667 50.5H163H162.333" stroke="white" stroke-width="1.33333" stroke-linecap="round" stroke-linejoin="round"/>
<rect x="177" y="50.5" width="36" height="4" rx="2" fill="#D9D9D9"/>
<path d="M232.333 49.166L227.667 52.4993L232.333 55.8327V49.166Z" stroke="white" stroke-width="1.33333" stroke-linecap="round" stroke-linejoin="round"/>
<path d="M226.333 47.834H219C218.264 47.834 217.667 48.4309 217.667 49.1673V55.834C217.667 56.5704 218.264 57.1673 219 57.1673H226.333C227.07 57.1673 227.667 56.5704 227.667 55.834V49.1673C227.667 48.4309 227.07 47.834 226.333 47.834Z" stroke="white" stroke-width="1.33333" stroke-linecap="round" stroke-linejoin="round"/>
<rect x="237" y="50.5" width="36" height="4" rx="2" fill="#D9D9D9"/>
<path d="M289.667 46.5H280.333C279.597 46.5 279 47.097 279 47.8333V57.1667C279 57.903 279.597 58.5 280.333 58.5H289.667C290.403 58.5 291 57.903 291 57.1667V47.8333C291 47.097 290.403 46.5 289.667 46.5Z" stroke="white" stroke-width="1.33333" stroke-linecap="round" stroke-linejoin="round"/>
<path d="M282.667 51.166C283.219 51.166 283.667 50.7183 283.667 50.166C283.667 49.6137 283.219 49.166 282.667 49.166C282.114 49.166 281.667 49.6137 281.667 50.166C281.667 50.7183 282.114 51.166 282.667 51.166Z" stroke="white" stroke-width="1.33333" stroke-linecap="round" stroke-linejoin="round"/>
<path d="M291 54.4993L287.667 51.166L280.333 58.4993" stroke="white" stroke-width="1.33333" stroke-linecap="round" stroke-linejoin="round"/>
<rect x="297" y="50.5" width="4" height="4" rx="2" fill="#D9D9D9"/>
<rect x="305" y="50.5" width="4" height="4" rx="2" fill="#D9D9D9"/>
<rect x="313" y="50.5" width="4" height="4" rx="2" fill="#D9D9D9"/>
<rect x="321" y="50.5" width="4" height="4" rx="2" fill="#D9D9D9"/>
<rect x="329" y="50.5" width="4" height="4" rx="2" fill="#D9D9D9"/>
<rect x="337" y="50.5" width="4" height="4" rx="2" fill="#D9D9D9"/>
<rect x="345" y="50.5" width="4" height="4" rx="2" fill="#D9D9D9"/>
<path d="M386.167 38L392.167 44L412.167 24" stroke="white" stroke-width="4" stroke-linecap="round" stroke-linejoin="round"/>
<path d="M410.167 40V54C410.167 55.0609 409.745 56.0783 408.995 56.8284C408.245 57.5786 407.228 58 406.167 58H378.167C377.106 58 376.088 57.5786 375.338 56.8284C374.588 56.0783 374.167 55.0609 374.167 54V26C374.167 24.9391 374.588 23.9217 375.338 23.1716C376.088 22.4214 377.106 22 378.167 22H400.167" stroke="white" stroke-width="4" stroke-linecap="round" stroke-linejoin="round"/>
<path d="M358.425 86V77.2727H361.868C362.53 77.2727 363.094 77.3991 363.56 77.652C364.026 77.902 364.381 78.25 364.626 78.696C364.873 79.1392 364.996 79.6506 364.996 80.2301C364.996 80.8097 364.871 81.321 364.621 81.7642C364.371 82.2074 364.009 82.5526 363.535 82.7997C363.063 83.0469 362.492 83.1705 361.822 83.1705H359.627V81.6918H361.523C361.878 81.6918 362.171 81.6307 362.401 81.5085C362.634 81.3835 362.807 81.2116 362.921 80.9929C363.037 80.7713 363.096 80.517 363.096 80.2301C363.096 79.9403 363.037 79.6875 362.921 79.4716C362.807 79.2528 362.634 79.0838 362.401 78.9645C362.168 78.8423 361.873 78.7812 361.515 78.7812H360.27V86H358.425ZM366.161 86V79.4545H367.921V80.5966H367.989C368.108 80.1903 368.308 79.8835 368.59 79.6761C368.871 79.4659 369.195 79.3608 369.561 79.3608C369.652 79.3608 369.75 79.3665 369.855 79.3778C369.96 79.3892 370.053 79.4048 370.132 79.4247V81.0355C370.047 81.0099 369.929 80.9872 369.779 80.9673C369.628 80.9474 369.49 80.9375 369.365 80.9375C369.098 80.9375 368.86 80.9957 368.649 81.1122C368.442 81.2259 368.277 81.3849 368.155 81.5895C368.036 81.794 367.976 82.0298 367.976 82.2969V86H366.161ZM373.749 86.1278C373.076 86.1278 372.496 85.9915 372.01 85.7188C371.528 85.4432 371.155 85.054 370.894 84.5511C370.633 84.0455 370.502 83.4474 370.502 82.7571C370.502 82.0838 370.633 81.4929 370.894 80.9844C371.155 80.4759 371.523 80.0795 371.998 79.7955C372.475 79.5114 373.035 79.3693 373.677 79.3693C374.109 79.3693 374.51 79.4389 374.883 79.5781C375.258 79.7145 375.584 79.9205 375.863 80.196C376.144 80.4716 376.363 80.8182 376.519 81.2358C376.675 81.6506 376.753 82.1364 376.753 82.6932V83.1918H371.226V82.0668H375.045C375.045 81.8054 374.988 81.5739 374.874 81.3722C374.76 81.1705 374.603 81.0128 374.401 80.8991C374.202 80.7827 373.971 80.7244 373.707 80.7244C373.431 80.7244 373.187 80.7884 372.974 80.9162C372.763 81.0412 372.599 81.2102 372.479 81.4233C372.36 81.6335 372.299 81.8679 372.296 82.1264V83.196C372.296 83.5199 372.356 83.7997 372.475 84.0355C372.597 84.2713 372.769 84.4531 372.991 84.581C373.212 84.7088 373.475 84.7727 373.779 84.7727C373.981 84.7727 374.165 84.7443 374.333 84.6875C374.501 84.6307 374.644 84.5455 374.763 84.4318C374.883 84.3182 374.974 84.179 375.036 84.0142L376.715 84.125C376.63 84.5284 376.455 84.8807 376.191 85.1818C375.93 85.4801 375.591 85.7131 375.177 85.8807C374.765 86.0455 374.289 86.1278 373.749 86.1278ZM377.938 88.4545V79.4545H379.728V80.554H379.809C379.888 80.3778 380.003 80.1989 380.154 80.017C380.307 79.8324 380.506 79.679 380.751 79.5568C380.998 79.4318 381.305 79.3693 381.671 79.3693C382.148 79.3693 382.589 79.4943 382.992 79.7443C383.395 79.9915 383.718 80.3651 383.959 80.8651C384.201 81.3622 384.322 81.9858 384.322 82.7358C384.322 83.4659 384.204 84.0824 383.968 84.5852C383.735 85.0852 383.417 85.4645 383.013 85.723C382.613 85.9787 382.164 86.1065 381.667 86.1065C381.314 86.1065 381.015 86.0483 380.768 85.9318C380.523 85.8153 380.323 85.669 380.167 85.4929C380.01 85.3139 379.891 85.1335 379.809 84.9517H379.753V88.4545H377.938ZM379.715 82.7273C379.715 83.1165 379.769 83.456 379.877 83.7457C379.985 84.0355 380.141 84.2614 380.346 84.4233C380.55 84.5824 380.799 84.6619 381.091 84.6619C381.387 84.6619 381.637 84.581 381.841 84.419C382.046 84.2543 382.201 84.027 382.306 83.7372C382.414 83.4446 382.468 83.108 382.468 82.7273C382.468 82.3494 382.415 82.017 382.31 81.7301C382.205 81.4432 382.05 81.2187 381.846 81.0568C381.641 80.8949 381.39 80.8139 381.091 80.8139C380.796 80.8139 380.546 80.892 380.341 81.0483C380.14 81.2045 379.985 81.4261 379.877 81.7131C379.769 82 379.715 82.3381 379.715 82.7273ZM387.398 86.1236C386.981 86.1236 386.609 86.0511 386.282 85.9062C385.955 85.7585 385.697 85.5412 385.506 85.2543C385.319 84.9645 385.225 84.6037 385.225 84.1719C385.225 83.8082 385.292 83.5028 385.425 83.2557C385.559 83.0085 385.741 82.8097 385.971 82.6591C386.201 82.5085 386.462 82.3949 386.755 82.3182C387.05 82.2415 387.36 82.1875 387.684 82.1562C388.064 82.1165 388.371 82.0795 388.604 82.0455C388.837 82.0085 389.006 81.9545 389.111 81.8835C389.216 81.8125 389.269 81.7074 389.269 81.5682V81.5426C389.269 81.2727 389.184 81.0639 389.013 80.9162C388.846 80.7685 388.607 80.6946 388.297 80.6946C387.971 80.6946 387.711 80.767 387.518 80.9119C387.324 81.054 387.197 81.233 387.134 81.4489L385.455 81.3125C385.54 80.9148 385.708 80.571 385.958 80.2812C386.208 79.9886 386.53 79.7642 386.925 79.608C387.323 79.4489 387.783 79.3693 388.306 79.3693C388.67 79.3693 389.018 79.4119 389.35 79.4972C389.685 79.5824 389.982 79.7145 390.241 79.8935C390.502 80.0724 390.708 80.3026 390.859 80.5838C391.009 80.8622 391.084 81.196 391.084 81.5852V86H389.363V85.0923H389.312C389.207 85.2969 389.066 85.4773 388.89 85.6335C388.714 85.7869 388.502 85.9077 388.255 85.9957C388.008 86.081 387.722 86.1236 387.398 86.1236ZM387.918 84.8707C388.185 84.8707 388.421 84.8182 388.626 84.7131C388.83 84.6051 388.991 84.4602 389.107 84.2784C389.224 84.0966 389.282 83.8906 389.282 83.6605V82.9659C389.225 83.0028 389.147 83.0369 389.047 83.0682C388.951 83.0966 388.841 83.1236 388.719 83.1491C388.597 83.1719 388.475 83.1932 388.353 83.2131C388.231 83.2301 388.12 83.2457 388.02 83.2599C387.807 83.2912 387.621 83.3409 387.462 83.4091C387.303 83.4773 387.18 83.5696 387.091 83.6861C387.003 83.7997 386.959 83.9418 386.959 84.1122C386.959 84.3594 387.049 84.5483 387.228 84.679C387.41 84.8068 387.64 84.8707 387.918 84.8707ZM392.493 86V79.4545H394.253V80.5966H394.321C394.44 80.1903 394.64 79.8835 394.922 79.6761C395.203 79.4659 395.527 79.3608 395.893 79.3608C395.984 79.3608 396.082 79.3665 396.187 79.3778C396.292 79.3892 396.385 79.4048 396.464 79.4247V81.0355C396.379 81.0099 396.261 80.9872 396.111 80.9673C395.96 80.9474 395.822 80.9375 395.697 80.9375C395.43 80.9375 395.192 80.9957 394.981 81.1122C394.774 81.2259 394.609 81.3849 394.487 81.5895C394.368 81.794 394.308 82.0298 394.308 82.2969V86H392.493ZM399.082 86.1236C398.664 86.1236 398.292 86.0511 397.965 85.9062C397.639 85.7585 397.38 85.5412 397.19 85.2543C397.002 84.9645 396.909 84.6037 396.909 84.1719C396.909 83.8082 396.975 83.5028 397.109 83.2557C397.242 83.0085 397.424 82.8097 397.654 82.6591C397.884 82.5085 398.146 82.3949 398.438 82.3182C398.734 82.2415 399.044 82.1875 399.367 82.1562C399.748 82.1165 400.055 82.0795 400.288 82.0455C400.521 82.0085 400.69 81.9545 400.795 81.8835C400.9 81.8125 400.953 81.7074 400.953 81.5682V81.5426C400.953 81.2727 400.867 81.0639 400.697 80.9162C400.529 80.7685 400.291 80.6946 399.981 80.6946C399.654 80.6946 399.394 80.767 399.201 80.9119C399.008 81.054 398.88 81.233 398.818 81.4489L397.139 81.3125C397.224 80.9148 397.392 80.571 397.642 80.2812C397.892 79.9886 398.214 79.7642 398.609 79.608C399.007 79.4489 399.467 79.3693 399.99 79.3693C400.353 79.3693 400.701 79.4119 401.034 79.4972C401.369 79.5824 401.666 79.7145 401.924 79.8935C402.186 80.0724 402.392 80.3026 402.542 80.5838C402.693 80.8622 402.768 81.196 402.768 81.5852V86H401.046V85.0923H400.995C400.89 85.2969 400.749 85.4773 400.573 85.6335C400.397 85.7869 400.186 85.9077 399.938 85.9957C399.691 86.081 399.406 86.1236 399.082 86.1236ZM399.602 84.8707C399.869 84.8707 400.105 84.8182 400.309 84.7131C400.514 84.6051 400.674 84.4602 400.791 84.2784C400.907 84.0966 400.965 83.8906 400.965 83.6605V82.9659C400.909 83.0028 400.83 83.0369 400.731 83.0682C400.634 83.0966 400.525 83.1236 400.403 83.1491C400.281 83.1719 400.159 83.1932 400.036 83.2131C399.914 83.2301 399.803 83.2457 399.704 83.2599C399.491 83.2912 399.305 83.3409 399.146 83.4091C398.987 83.4773 398.863 83.5696 398.775 83.6861C398.687 83.7997 398.643 83.9418 398.643 84.1122C398.643 84.3594 398.732 84.5483 398.911 84.679C399.093 84.8068 399.323 84.8707 399.602 84.8707ZM407.658 79.4545V80.8182H403.716V79.4545H407.658ZM404.611 77.8864H406.426V83.9886C406.426 84.1562 406.452 84.2869 406.503 84.3807C406.554 84.4716 406.625 84.5355 406.716 84.5724C406.81 84.6094 406.918 84.6278 407.04 84.6278C407.125 84.6278 407.21 84.6207 407.296 84.6065C407.381 84.5895 407.446 84.5767 407.492 84.5682L407.777 85.919C407.686 85.9474 407.558 85.9801 407.394 86.017C407.229 86.0568 407.029 86.081 406.793 86.0895C406.355 86.1065 405.972 86.0483 405.642 85.9148C405.316 85.7812 405.061 85.5739 404.879 85.2926C404.698 85.0114 404.608 84.6562 404.611 84.2273V77.8864ZM408.84 86V79.4545H410.656V86H408.84ZM409.752 78.6108C409.482 78.6108 409.251 78.5213 409.058 78.3423C408.867 78.1605 408.772 77.9432 408.772 77.6903C408.772 77.4403 408.867 77.2259 409.058 77.0469C409.251 76.8651 409.482 76.7741 409.752 76.7741C410.022 76.7741 410.252 76.8651 410.443 77.0469C410.636 77.2259 410.732 77.4403 410.732 77.6903C410.732 77.9432 410.636 78.1605 410.443 78.3423C410.252 78.5213 410.022 78.6108 409.752 78.6108ZM415.067 86.1278C414.405 86.1278 413.833 85.9872 413.35 85.706C412.87 85.4219 412.499 85.027 412.238 84.5213C411.976 84.0128 411.846 83.4233 411.846 82.7528C411.846 82.0767 411.976 81.4858 412.238 80.9801C412.499 80.4716 412.87 80.0767 413.35 79.7955C413.833 79.5114 414.405 79.3693 415.067 79.3693C415.729 79.3693 416.3 79.5114 416.78 79.7955C417.263 80.0767 417.635 80.4716 417.897 80.9801C418.158 81.4858 418.289 82.0767 418.289 82.7528C418.289 83.4233 418.158 84.0128 417.897 84.5213C417.635 85.027 417.263 85.4219 416.78 85.706C416.3 85.9872 415.729 86.1278 415.067 86.1278ZM415.076 84.7216C415.377 84.7216 415.628 84.6364 415.83 84.4659C416.032 84.2926 416.184 84.0568 416.286 83.7585C416.391 83.4602 416.444 83.1207 416.444 82.7401C416.444 82.3594 416.391 82.0199 416.286 81.7216C416.184 81.4233 416.032 81.1875 415.83 81.0142C415.628 80.8409 415.377 80.7543 415.076 80.7543C414.772 80.7543 414.516 80.8409 414.309 81.0142C414.104 81.1875 413.949 81.4233 413.844 81.7216C413.742 82.0199 413.691 82.3594 413.691 82.7401C413.691 83.1207 413.742 83.4602 413.844 83.7585C413.949 84.0568 414.104 84.2926 414.309 84.4659C414.516 84.6364 414.772 84.7216 415.076 84.7216ZM421.285 82.2159V86H419.469V79.4545H421.199V80.6094H421.276C421.421 80.2287 421.664 79.9276 422.005 79.706C422.346 79.4815 422.759 79.3693 423.245 79.3693C423.699 79.3693 424.096 79.4688 424.434 79.6676C424.772 79.8665 425.035 80.1506 425.222 80.5199C425.41 80.8864 425.503 81.3239 425.503 81.8324V86H423.688V82.1562C423.691 81.7557 423.589 81.4432 423.381 81.2188C423.174 80.9915 422.888 80.8778 422.525 80.8778C422.28 80.8778 422.064 80.9304 421.877 81.0355C421.692 81.1406 421.547 81.294 421.442 81.4957C421.34 81.6946 421.287 81.9347 421.285 82.2159Z" fill="white"/>
<rect x="426.667" y="50.5" width="4" height="4" rx="2" fill="#D9D9D9"/>
<rect x="434.667" y="50.5" width="4" height="4" rx="2" fill="#D9D9D9"/>
<path d="M452 45.834H446.667C446.313 45.834 445.974 45.9745 445.724 46.2245C445.474 46.4746 445.333 46.8137 445.333 47.1673V57.834C445.333 58.1876 445.474 58.5267 445.724 58.7768C445.974 59.0268 446.313 59.1673 446.667 59.1673H454.667C455.02 59.1673 455.36 59.0268 455.61 58.7768C455.86 58.5267 456 58.1876 456 57.834V49.834L452 45.834Z" stroke="white" stroke-width="1.33333" stroke-linecap="round" stroke-linejoin="round"/>
<path d="M452 45.834V49.834H456" stroke="white" stroke-width="1.33333" stroke-linecap="round" stroke-linejoin="round"/>
<path d="M453.333 53.166H448" stroke="white" stroke-width="1.33333" stroke-linecap="round" stroke-linejoin="round"/>
<path d="M453.333 55.834H448" stroke="white" stroke-width="1.33333" stroke-linecap="round" stroke-linejoin="round"/>
<path d="M449.333 50.5H448.667H448" stroke="white" stroke-width="1.33333" stroke-linecap="round" stroke-linejoin="round"/>
<rect x="462.667" y="50.5" width="14.6667" height="4" rx="2" fill="#D9D9D9"/>
<path d="M490.667 45.834H485.334C484.98 45.834 484.641 45.9745 484.391 46.2245C484.141 46.4746 484 46.8137 484 47.1673V57.834C484 58.1876 484.141 58.5267 484.391 58.7768C484.641 59.0268 484.98 59.1673 485.334 59.1673H493.334C493.687 59.1673 494.026 59.0268 494.276 58.7768C494.526 58.5267 494.667 58.1876 494.667 57.834V49.834L490.667 45.834Z" stroke="white" stroke-width="1.33333" stroke-linecap="round" stroke-linejoin="round"/>
<path d="M490.667 45.834V49.834H494.667" stroke="white" stroke-width="1.33333" stroke-linecap="round" stroke-linejoin="round"/>
<path d="M492 53.166H486.667" stroke="white" stroke-width="1.33333" stroke-linecap="round" stroke-linejoin="round"/>
<path d="M492 55.834H486.667" stroke="white" stroke-width="1.33333" stroke-linecap="round" stroke-linejoin="round"/>
<path d="M488 50.5H487.333H486.667" stroke="white" stroke-width="1.33333" stroke-linecap="round" stroke-linejoin="round"/>
<rect x="501.333" y="50.5" width="14.6667" height="4" rx="2" fill="#D9D9D9"/>
<path d="M535.333 49.166L530.667 52.4993L535.333 55.8327V49.166Z" stroke="white" stroke-width="1.33333" stroke-linecap="round" stroke-linejoin="round"/>
<path d="M529.333 47.834H522C521.264 47.834 520.667 48.4309 520.667 49.1673V55.834C520.667 56.5704 521.264 57.1673 522 57.1673H529.333C530.07 57.1673 530.667 56.5704 530.667 55.834V49.1673C530.667 48.4309 530.07 47.834 529.333 47.834Z" stroke="white" stroke-width="1.33333" stroke-linecap="round" stroke-linejoin="round"/>
<rect x="540" y="50.5" width="14.6667" height="4" rx="2" fill="#D9D9D9"/>
<path d="M571.333 46.5H562C561.264 46.5 560.667 47.097 560.667 47.8333V57.1667C560.667 57.903 561.264 58.5 562 58.5H571.333C572.07 58.5 572.667 57.903 572.667 57.1667V47.8333C572.667 47.097 572.07 46.5 571.333 46.5Z" stroke="white" stroke-width="1.33333" stroke-linecap="round" stroke-linejoin="round"/>
<path d="M564.333 51.166C564.886 51.166 565.333 50.7183 565.333 50.166C565.333 49.6137 564.886 49.166 564.333 49.166C563.781 49.166 563.333 49.6137 563.333 50.166C563.333 50.7183 563.781 51.166 564.333 51.166Z" stroke="white" stroke-width="1.33333" stroke-linecap="round" stroke-linejoin="round"/>
<path d="M572.667 54.4993L569.333 51.166L562 58.4993" stroke="white" stroke-width="1.33333" stroke-linecap="round" stroke-linejoin="round"/>
<rect x="578.667" y="50.5" width="4" height="4" rx="2" fill="#D9D9D9"/>
<rect x="586.667" y="50.5" width="4" height="4" rx="2" fill="#D9D9D9"/>
<path d="M604 45.834H598.667C598.313 45.834 597.974 45.9745 597.724 46.2245C597.474 46.4746 597.333 46.8137 597.333 47.1673V57.834C597.333 58.1876 597.474 58.5267 597.724 58.7768C597.974 59.0268 598.313 59.1673 598.667 59.1673H606.667C607.02 59.1673 607.36 59.0268 607.61 58.7768C607.86 58.5267 608 58.1876 608 57.834V49.834L604 45.834Z" stroke="white" stroke-width="1.33333" stroke-linecap="round" stroke-linejoin="round"/>
<path d="M604 45.834V49.834H608" stroke="white" stroke-width="1.33333" stroke-linecap="round" stroke-linejoin="round"/>
<path d="M605.333 53.166H600" stroke="white" stroke-width="1.33333" stroke-linecap="round" stroke-linejoin="round"/>
<path d="M605.333 55.834H600" stroke="white" stroke-width="1.33333" stroke-linecap="round" stroke-linejoin="round"/>
<path d="M601.333 50.5H600.667H600" stroke="white" stroke-width="1.33333" stroke-linecap="round" stroke-linejoin="round"/>
<rect x="614.667" y="50.5" width="4" height="4" rx="2" fill="#D9D9D9"/>
<rect x="622.667" y="50.5" width="4" height="4" rx="2" fill="#D9D9D9"/>
<rect x="630.667" y="50.5" width="4" height="4" rx="2" fill="#D9D9D9"/>
<rect x="638.667" y="50.5" width="4" height="4" rx="2" fill="#D9D9D9"/>
<rect x="646.667" y="50.5" width="4" height="4" rx="2" fill="#D9D9D9"/>
<rect x="654.667" y="50.5" width="4" height="4" rx="2" fill="#D9D9D9"/>
<rect x="662.667" y="50.5" width="4" height="4" rx="2" fill="#D9D9D9"/>
<rect x="670.667" y="50.5" width="4" height="4" rx="2" fill="#D9D9D9"/>
<rect x="678.667" y="50.5" width="4" height="4" rx="2" fill="#D9D9D9"/>
<rect x="686.667" y="50.5" width="4" height="4" rx="2" fill="#D9D9D9"/>
<rect x="694.667" y="50.5" width="4" height="4" rx="2" fill="#D9D9D9"/>
<rect x="702.667" y="50.5" width="4" height="4" rx="2" fill="#D9D9D9"/>
<rect x="710.667" y="50.5" width="4" height="4" rx="2" fill="#D9D9D9"/>
<path d="M715.833 22L729.973 55.94L734.993 41.16L749.773 36.14L715.833 22Z" stroke="white" stroke-width="4" stroke-linecap="round" stroke-linejoin="round"/>
<path d="M735.833 42L747.833 54" stroke="white" stroke-width="4" stroke-linecap="round" stroke-linejoin="round"/>
<path d="M704.092 86V77.2727H707.535C708.197 77.2727 708.761 77.3991 709.227 77.652C709.693 77.902 710.048 78.25 710.292 78.696C710.539 79.1392 710.663 79.6506 710.663 80.2301C710.663 80.8097 710.538 81.321 710.288 81.7642C710.038 82.2074 709.676 82.5526 709.201 82.7997C708.73 83.0469 708.159 83.1705 707.488 83.1705H705.294V81.6918H707.19C707.545 81.6918 707.838 81.6307 708.068 81.5085C708.301 81.3835 708.474 81.2116 708.588 80.9929C708.704 80.7713 708.762 80.517 708.762 80.2301C708.762 79.9403 708.704 79.6875 708.588 79.4716C708.474 79.2528 708.301 79.0838 708.068 78.9645C707.835 78.8423 707.539 78.7812 707.182 78.7812H705.937V86H704.092ZM711.827 86V79.4545H713.587V80.5966H713.656C713.775 80.1903 713.975 79.8835 714.256 79.6761C714.538 79.4659 714.862 79.3608 715.228 79.3608C715.319 79.3608 715.417 79.3665 715.522 79.3778C715.627 79.3892 715.72 79.4048 715.799 79.4247V81.0355C715.714 81.0099 715.596 80.9872 715.445 80.9673C715.295 80.9474 715.157 80.9375 715.032 80.9375C714.765 80.9375 714.526 80.9957 714.316 81.1122C714.109 81.2259 713.944 81.3849 713.822 81.5895C713.702 81.794 713.643 82.0298 713.643 82.2969V86H711.827ZM719.39 86.1278C718.728 86.1278 718.156 85.9872 717.673 85.706C717.193 85.4219 716.822 85.027 716.561 84.5213C716.299 84.0128 716.169 83.4233 716.169 82.7528C716.169 82.0767 716.299 81.4858 716.561 80.9801C716.822 80.4716 717.193 80.0767 717.673 79.7955C718.156 79.5114 718.728 79.3693 719.39 79.3693C720.052 79.3693 720.623 79.5114 721.103 79.7955C721.586 80.0767 721.958 80.4716 722.22 80.9801C722.481 81.4858 722.612 82.0767 722.612 82.7528C722.612 83.4233 722.481 84.0128 722.22 84.5213C721.958 85.027 721.586 85.4219 721.103 85.706C720.623 85.9872 720.052 86.1278 719.39 86.1278ZM719.399 84.7216C719.7 84.7216 719.951 84.6364 720.153 84.4659C720.355 84.2926 720.507 84.0568 720.609 83.7585C720.714 83.4602 720.767 83.1207 720.767 82.7401C720.767 82.3594 720.714 82.0199 720.609 81.7216C720.507 81.4233 720.355 81.1875 720.153 81.0142C719.951 80.8409 719.7 80.7543 719.399 80.7543C719.095 80.7543 718.839 80.8409 718.632 81.0142C718.427 81.1875 718.272 81.4233 718.167 81.7216C718.065 82.0199 718.014 82.3594 718.014 82.7401C718.014 83.1207 718.065 83.4602 718.167 83.7585C718.272 84.0568 718.427 84.2926 718.632 84.4659C718.839 84.6364 719.095 84.7216 719.399 84.7216ZM726.75 86.1278C726.079 86.1278 725.503 85.9858 725.02 85.7017C724.539 85.4148 724.17 85.017 723.912 84.5085C723.656 84 723.528 83.4148 723.528 82.7528C723.528 82.0824 723.657 81.4943 723.916 80.9886C724.177 80.4801 724.548 80.0838 725.028 79.7997C725.508 79.5128 726.079 79.3693 726.741 79.3693C727.312 79.3693 727.812 79.473 728.241 79.6804C728.67 79.8878 729.01 80.179 729.26 80.554C729.51 80.929 729.647 81.3693 729.673 81.875H727.96C727.912 81.5483 727.784 81.2855 727.576 81.0866C727.372 80.8849 727.103 80.7841 726.771 80.7841C726.49 80.7841 726.244 80.8608 726.034 81.0142C725.826 81.1648 725.664 81.3849 725.548 81.6747C725.432 81.9645 725.373 82.3153 725.373 82.7273C725.373 83.1449 725.43 83.5 725.544 83.7926C725.66 84.0852 725.824 84.3082 726.034 84.4616C726.244 84.6151 726.49 84.6918 726.771 84.6918C726.978 84.6918 727.164 84.6491 727.329 84.5639C727.497 84.4787 727.635 84.3551 727.743 84.1932C727.853 84.0284 727.926 83.831 727.96 83.6009H729.673C729.645 84.1009 729.508 84.5412 729.264 84.9219C729.022 85.2997 728.689 85.5952 728.262 85.8082C727.836 86.0213 727.332 86.1278 726.75 86.1278ZM733.818 86.1278C733.145 86.1278 732.565 85.9915 732.08 85.7188C731.597 85.4432 731.224 85.054 730.963 84.5511C730.702 84.0455 730.571 83.4474 730.571 82.7571C730.571 82.0838 730.702 81.4929 730.963 80.9844C731.224 80.4759 731.592 80.0795 732.067 79.7955C732.544 79.5114 733.104 79.3693 733.746 79.3693C734.178 79.3693 734.58 79.4389 734.952 79.5781C735.327 79.7145 735.653 79.9205 735.932 80.196C736.213 80.4716 736.432 80.8182 736.588 81.2358C736.744 81.6506 736.822 82.1364 736.822 82.6932V83.1918H731.295V82.0668H735.114C735.114 81.8054 735.057 81.5739 734.943 81.3722C734.83 81.1705 734.672 81.0128 734.47 80.8991C734.271 80.7827 734.04 80.7244 733.776 80.7244C733.5 80.7244 733.256 80.7884 733.043 80.9162C732.832 81.0412 732.668 81.2102 732.548 81.4233C732.429 81.6335 732.368 81.8679 732.365 82.1264V83.196C732.365 83.5199 732.425 83.7997 732.544 84.0355C732.666 84.2713 732.838 84.4531 733.06 84.581C733.281 84.7088 733.544 84.7727 733.848 84.7727C734.05 84.7727 734.234 84.7443 734.402 84.6875C734.57 84.6307 734.713 84.5455 734.832 84.4318C734.952 84.3182 735.043 84.179 735.105 84.0142L736.784 84.125C736.699 84.5284 736.524 84.8807 736.26 85.1818C735.999 85.4801 735.661 85.7131 735.246 85.8807C734.834 86.0455 734.358 86.1278 733.818 86.1278ZM740.419 86.1065C739.922 86.1065 739.472 85.9787 739.068 85.723C738.668 85.4645 738.349 85.0852 738.114 84.5852C737.881 84.0824 737.764 83.4659 737.764 82.7358C737.764 81.9858 737.885 81.3622 738.126 80.8651C738.368 80.3651 738.689 79.9915 739.09 79.7443C739.493 79.4943 739.935 79.3693 740.415 79.3693C740.781 79.3693 741.087 79.4318 741.331 79.5568C741.578 79.679 741.777 79.8324 741.928 80.017C742.081 80.1989 742.197 80.3778 742.277 80.554H742.332V77.2727H744.144V86H742.354V84.9517H742.277C742.192 85.1335 742.071 85.3139 741.915 85.4929C741.761 85.669 741.561 85.8153 741.314 85.9318C741.07 86.0483 740.771 86.1065 740.419 86.1065ZM740.994 84.6619C741.287 84.6619 741.534 84.5824 741.736 84.4233C741.94 84.2614 742.097 84.0355 742.205 83.7457C742.315 83.456 742.371 83.1165 742.371 82.7273C742.371 82.3381 742.317 82 742.209 81.7131C742.101 81.4261 741.945 81.2045 741.74 81.0483C741.536 80.892 741.287 80.8139 740.994 80.8139C740.696 80.8139 740.445 80.8949 740.24 81.0568C740.036 81.2187 739.881 81.4432 739.776 81.7301C739.67 82.017 739.618 82.3494 739.618 82.7273C739.618 83.108 739.67 83.4446 739.776 83.7372C739.884 84.027 740.038 84.2543 740.24 84.419C740.445 84.581 740.696 84.6619 740.994 84.6619ZM749.833 83.2131V79.4545H751.649V86H749.906V84.8111H749.838C749.69 85.1946 749.444 85.5028 749.101 85.7358C748.76 85.9687 748.343 86.0852 747.852 86.0852C747.414 86.0852 747.03 85.9858 746.697 85.7869C746.365 85.5881 746.105 85.3054 745.917 84.9389C745.733 84.5724 745.639 84.1335 745.636 83.6222V79.4545H747.451V83.2983C747.454 83.6847 747.558 83.9901 747.762 84.2145C747.967 84.4389 748.241 84.5511 748.585 84.5511C748.804 84.5511 749.008 84.5014 749.199 84.402C749.389 84.2997 749.542 84.1491 749.659 83.9503C749.778 83.7514 749.836 83.5057 749.833 83.2131ZM753.101 86V79.4545H754.861V80.5966H754.929C755.048 80.1903 755.249 79.8835 755.53 79.6761C755.811 79.4659 756.135 79.3608 756.501 79.3608C756.592 79.3608 756.69 79.3665 756.795 79.3778C756.901 79.3892 756.993 79.4048 757.072 79.4247V81.0355C756.987 81.0099 756.869 80.9872 756.719 80.9673C756.568 80.9474 756.43 80.9375 756.305 80.9375C756.038 80.9375 755.8 80.9957 755.59 81.1122C755.382 81.2259 755.217 81.3849 755.095 81.5895C754.976 81.794 754.916 82.0298 754.916 82.2969V86H753.101ZM760.689 86.1278C760.016 86.1278 759.436 85.9915 758.951 85.7188C758.468 85.4432 758.096 85.054 757.834 84.5511C757.573 84.0455 757.442 83.4474 757.442 82.7571C757.442 82.0838 757.573 81.4929 757.834 80.9844C758.096 80.4759 758.463 80.0795 758.938 79.7955C759.415 79.5114 759.975 79.3693 760.617 79.3693C761.049 79.3693 761.451 79.4389 761.823 79.5781C762.198 79.7145 762.525 79.9205 762.803 80.196C763.084 80.4716 763.303 80.8182 763.459 81.2358C763.615 81.6506 763.694 82.1364 763.694 82.6932V83.1918H758.167V82.0668H761.985C761.985 81.8054 761.928 81.5739 761.814 81.3722C761.701 81.1705 761.543 81.0128 761.341 80.8991C761.142 80.7827 760.911 80.7244 760.647 80.7244C760.371 80.7244 760.127 80.7884 759.914 80.9162C759.704 81.0412 759.539 81.2102 759.419 81.4233C759.3 81.6335 759.239 81.8679 759.236 82.1264V83.196C759.236 83.5199 759.296 83.7997 759.415 84.0355C759.537 84.2713 759.709 84.4531 759.931 84.581C760.152 84.7088 760.415 84.7727 760.719 84.7727C760.921 84.7727 761.106 84.7443 761.273 84.6875C761.441 84.6307 761.584 84.5455 761.704 84.4318C761.823 84.3182 761.914 84.179 761.976 84.0142L763.655 84.125C763.57 84.5284 763.395 84.8807 763.131 85.1818C762.87 85.4801 762.532 85.7131 762.117 85.8807C761.705 86.0455 761.229 86.1278 760.689 86.1278Z" fill="white"/>
<rect x="764.333" y="50.5" width="4" height="4" rx="2" fill="#D9D9D9"/>
<rect x="772.333" y="50.5" width="33.3333" height="4" rx="2" fill="#D9D9D9"/>
<g clip-path="url(#clip0_764_3238)">
<path d="M821 45.166L823.667 47.8327L821 50.4993" stroke="white" stroke-width="1.33333" stroke-linecap="round" stroke-linejoin="round"/>
<path d="M811.667 51.834V50.5007C811.667 49.7934 811.948 49.1151 812.448 48.615C812.948 48.1149 813.626 47.834 814.333 47.834H823.667" stroke="white" stroke-width="1.33333" stroke-linecap="round" stroke-linejoin="round"/>
<path d="M814.333 59.8333L811.667 57.1667L814.333 54.5" stroke="white" stroke-width="1.33333" stroke-linecap="round" stroke-linejoin="round"/>
<path d="M823.667 53.166V54.4993C823.667 55.2066 823.386 55.8849 822.886 56.385C822.386 56.8851 821.707 57.166 821 57.166H811.667" stroke="white" stroke-width="1.33333" stroke-linecap="round" stroke-linejoin="round"/>
</g>
<path d="M839 45.834H833.667C833.313 45.834 832.974 45.9745 832.724 46.2245C832.474 46.4746 832.333 46.8137 832.333 47.1673V57.834C832.333 58.1876 832.474 58.5267 832.724 58.7768C832.974 59.0268 833.313 59.1673 833.667 59.1673H841.667C842.02 59.1673 842.36 59.0268 842.61 58.7768C842.86 58.5267 843 58.1876 843 57.834V49.834L839 45.834Z" stroke="white" stroke-width="1.33333" stroke-linecap="round" stroke-linejoin="round"/>
<path d="M839 45.834V49.834H843" stroke="white" stroke-width="1.33333" stroke-linecap="round" stroke-linejoin="round"/>
<path d="M840.333 53.166H835" stroke="white" stroke-width="1.33333" stroke-linecap="round" stroke-linejoin="round"/>
<path d="M840.333 55.834H835" stroke="white" stroke-width="1.33333" stroke-linecap="round" stroke-linejoin="round"/>
<path d="M836.333 50.5H835.667H835" stroke="white" stroke-width="1.33333" stroke-linecap="round" stroke-linejoin="round"/>
<rect x="849.667" y="50.5" width="33.3333" height="4" rx="2" fill="#D9D9D9"/>
<g clip-path="url(#clip1_764_3238)">
<path d="M902.334 49.166L897.667 52.4993L902.334 55.8327V49.166Z" stroke="white" stroke-width="1.33333" stroke-linecap="round" stroke-linejoin="round"/>
<path d="M896.334 47.834H889C888.264 47.834 887.667 48.4309 887.667 49.1673V55.834C887.667 56.5704 888.264 57.1673 889 57.1673H896.334C897.07 57.1673 897.667 56.5704 897.667 55.834V49.1673C897.667 48.4309 897.07 47.834 896.334 47.834Z" stroke="white" stroke-width="1.33333" stroke-linecap="round" stroke-linejoin="round"/>
</g>
<rect x="907" y="50.5" width="33.3333" height="4" rx="2" fill="#D9D9D9"/>
<path d="M957 46.5H947.667C946.93 46.5 946.333 47.097 946.333 47.8333V57.1667C946.333 57.903 946.93 58.5 947.667 58.5H957C957.737 58.5 958.333 57.903 958.333 57.1667V47.8333C958.333 47.097 957.737 46.5 957 46.5Z" stroke="white" stroke-width="1.33333" stroke-linecap="round" stroke-linejoin="round"/>
<path d="M950 51.166C950.553 51.166 951 50.7183 951 50.166C951 49.6137 950.553 49.166 950 49.166C949.448 49.166 949 49.6137 949 50.166C949 50.7183 949.448 51.166 950 51.166Z" stroke="white" stroke-width="1.33333" stroke-linecap="round" stroke-linejoin="round"/>
<path d="M958.333 54.4993L955 51.166L947.667 58.4993" stroke="white" stroke-width="1.33333" stroke-linecap="round" stroke-linejoin="round"/>
<rect x="964.333" y="50.5" width="4" height="4" rx="2" fill="#D9D9D9"/>
<rect x="972.333" y="50.5" width="4" height="4" rx="2" fill="#D9D9D9"/>
<rect x="980.333" y="50.5" width="4" height="4" rx="2" fill="#D9D9D9"/>
<rect x="988.333" y="50.5" width="4" height="4" rx="2" fill="#D9D9D9"/>
<rect x="996.333" y="50.5" width="4" height="4" rx="2" fill="#D9D9D9"/>
<rect x="1004.33" y="50.5" width="4" height="4" rx="2" fill="#D9D9D9"/>
<rect x="1012.33" y="50.5" width="4" height="4" rx="2" fill="#D9D9D9"/>
<rect x="1020.33" y="50.5" width="4" height="4" rx="2" fill="#D9D9D9"/>
<rect x="1028.33" y="50.5" width="4" height="4" rx="2" fill="#D9D9D9"/>
<rect x="1036.33" y="50.5" width="4" height="4" rx="2" fill="#D9D9D9"/>
<rect x="1044.33" y="50.5" width="4" height="4" rx="2" fill="#D9D9D9"/>
<rect x="1052.33" y="50.5" width="4" height="4" rx="2" fill="#D9D9D9"/>
<rect x="1060.33" y="50.5" width="4" height="4" rx="2" fill="#D9D9D9"/>
<rect x="1068.33" y="50.5" width="4" height="4" rx="2" fill="#D9D9D9"/>
<path d="M1114.5 24H1100.5C1099.44 24 1098.42 24.4214 1097.67 25.1716C1096.92 25.9217 1096.5 26.9391 1096.5 28V56C1096.5 57.0609 1096.92 58.0783 1097.67 58.8284C1098.42 59.5786 1099.44 60 1100.5 60H1128.5C1129.56 60 1130.58 59.5786 1131.33 58.8284C1132.08 58.0783 1132.5 57.0609 1132.5 56V42" stroke="white" stroke-width="4" stroke-linecap="round" stroke-linejoin="round"/>
<path d="M1129.5 21.0005C1130.3 20.2048 1131.37 19.7578 1132.5 19.7578C1133.63 19.7578 1134.7 20.2048 1135.5 21.0005C1136.3 21.7961 1136.74 22.8752 1136.74 24.0005C1136.74 25.1257 1136.3 26.2048 1135.5 27.0005L1116.5 46.0005L1108.5 48.0005L1110.5 40.0005L1129.5 21.0005Z" stroke="white" stroke-width="4" stroke-linecap="round" stroke-linejoin="round"/>
<path d="M1041.76 86V77.2727H1045.2C1045.86 77.2727 1046.42 77.3906 1046.89 77.6264C1047.36 77.8594 1047.71 78.1903 1047.96 78.6193C1048.21 79.0455 1048.33 79.5469 1048.33 80.1236C1048.33 80.7031 1048.2 81.2017 1047.95 81.6193C1047.7 82.0341 1047.34 82.3523 1046.87 82.5739C1046.4 82.7955 1045.83 82.9062 1045.15 82.9062H1042.85V81.4233H1044.86C1045.21 81.4233 1045.5 81.375 1045.73 81.2784C1045.97 81.1818 1046.14 81.0369 1046.25 80.8438C1046.37 80.6506 1046.43 80.4105 1046.43 80.1236C1046.43 79.8338 1046.37 79.5895 1046.25 79.3906C1046.14 79.1918 1045.97 79.0412 1045.73 78.9389C1045.5 78.8338 1045.2 78.7812 1044.85 78.7812H1043.6V86H1041.76ZM1046.47 82.0284L1048.64 86H1046.6L1044.48 82.0284H1046.47ZM1052.48 86.1278C1051.8 86.1278 1051.22 85.9915 1050.74 85.7188C1050.26 85.4432 1049.88 85.054 1049.62 84.5511C1049.36 84.0455 1049.23 83.4474 1049.23 82.7571C1049.23 82.0838 1049.36 81.4929 1049.62 80.9844C1049.88 80.4759 1050.25 80.0795 1050.73 79.7955C1051.2 79.5114 1051.76 79.3693 1052.4 79.3693C1052.84 79.3693 1053.24 79.4389 1053.61 79.5781C1053.99 79.7145 1054.31 79.9205 1054.59 80.196C1054.87 80.4716 1055.09 80.8182 1055.25 81.2358C1055.4 81.6506 1055.48 82.1364 1055.48 82.6932V83.1918H1049.95V82.0668H1053.77C1053.77 81.8054 1053.72 81.5739 1053.6 81.3722C1053.49 81.1705 1053.33 81.0128 1053.13 80.8991C1052.93 80.7827 1052.7 80.7244 1052.43 80.7244C1052.16 80.7244 1051.91 80.7884 1051.7 80.9162C1051.49 81.0412 1051.33 81.2102 1051.21 81.4233C1051.09 81.6335 1051.03 81.8679 1051.02 82.1264V83.196C1051.02 83.5199 1051.08 83.7997 1051.2 84.0355C1051.32 84.2713 1051.5 84.4531 1051.72 84.581C1051.94 84.7088 1052.2 84.7727 1052.51 84.7727C1052.71 84.7727 1052.89 84.7443 1053.06 84.6875C1053.23 84.6307 1053.37 84.5455 1053.49 84.4318C1053.61 84.3182 1053.7 84.179 1053.76 84.0142L1055.44 84.125C1055.36 84.5284 1055.18 84.8807 1054.92 85.1818C1054.66 85.4801 1054.32 85.7131 1053.9 85.8807C1053.49 86.0455 1053.02 86.1278 1052.48 86.1278ZM1062.11 81.321L1060.45 81.4233C1060.42 81.2812 1060.36 81.1534 1060.27 81.0398C1060.17 80.9233 1060.05 80.831 1059.9 80.7628C1059.75 80.6918 1059.56 80.6562 1059.35 80.6562C1059.07 80.6562 1058.84 80.7159 1058.64 80.8352C1058.45 80.9517 1058.35 81.108 1058.35 81.304C1058.35 81.4602 1058.42 81.5923 1058.54 81.7003C1058.67 81.8082 1058.88 81.8949 1059.18 81.9602L1060.37 82.1989C1061.01 82.3295 1061.48 82.5398 1061.79 82.8295C1062.1 83.1193 1062.26 83.5 1062.26 83.9716C1062.26 84.4006 1062.13 84.777 1061.88 85.1009C1061.63 85.4247 1061.29 85.6776 1060.85 85.8594C1060.42 86.0384 1059.91 86.1278 1059.35 86.1278C1058.48 86.1278 1057.79 85.9474 1057.28 85.5866C1056.76 85.223 1056.46 84.7287 1056.38 84.1037L1058.16 84.0099C1058.22 84.2741 1058.35 84.4759 1058.55 84.6151C1058.76 84.7514 1059.03 84.8196 1059.35 84.8196C1059.67 84.8196 1059.92 84.7585 1060.12 84.6364C1060.31 84.5114 1060.41 84.3509 1060.42 84.1548C1060.41 83.9901 1060.34 83.8551 1060.21 83.75C1060.07 83.642 1059.86 83.5597 1059.58 83.5028L1058.44 83.277C1057.8 83.1491 1057.33 82.9276 1057.02 82.6122C1056.71 82.2969 1056.55 81.8949 1056.55 81.4062C1056.55 80.9858 1056.66 80.6236 1056.89 80.3196C1057.12 80.0156 1057.44 79.7812 1057.86 79.6165C1058.28 79.4517 1058.77 79.3693 1059.32 79.3693C1060.15 79.3693 1060.8 79.544 1061.28 79.8935C1061.75 80.2429 1062.03 80.7187 1062.11 81.321ZM1067.6 83.2131V79.4545H1069.42V86H1067.67V84.8111H1067.61C1067.46 85.1946 1067.21 85.5028 1066.87 85.7358C1066.53 85.9687 1066.11 86.0852 1065.62 86.0852C1065.18 86.0852 1064.8 85.9858 1064.47 85.7869C1064.13 85.5881 1063.87 85.3054 1063.69 84.9389C1063.5 84.5724 1063.41 84.1335 1063.4 83.6222V79.4545H1065.22V83.2983C1065.22 83.6847 1065.33 83.9901 1065.53 84.2145C1065.74 84.4389 1066.01 84.5511 1066.35 84.5511C1066.57 84.5511 1066.78 84.5014 1066.97 84.402C1067.16 84.2997 1067.31 84.1491 1067.43 83.9503C1067.55 83.7514 1067.6 83.5057 1067.6 83.2131ZM1072.68 77.2727V86H1070.87V77.2727H1072.68ZM1077.62 79.4545V80.8182H1073.68V79.4545H1077.62ZM1074.57 77.8864H1076.39V83.9886C1076.39 84.1562 1076.41 84.2869 1076.47 84.3807C1076.52 84.4716 1076.59 84.5355 1076.68 84.5724C1076.77 84.6094 1076.88 84.6278 1077 84.6278C1077.09 84.6278 1077.17 84.6207 1077.26 84.6065C1077.34 84.5895 1077.41 84.5767 1077.45 84.5682L1077.74 85.919C1077.65 85.9474 1077.52 85.9801 1077.36 86.017C1077.19 86.0568 1076.99 86.081 1076.75 86.0895C1076.32 86.1065 1075.93 86.0483 1075.6 85.9148C1075.28 85.7812 1075.02 85.5739 1074.84 85.2926C1074.66 85.0114 1074.57 84.6562 1074.57 84.2273V77.8864ZM1084.17 81.321L1082.5 81.4233C1082.48 81.2812 1082.42 81.1534 1082.32 81.0398C1082.23 80.9233 1082.1 80.831 1081.95 80.7628C1081.8 80.6918 1081.62 80.6562 1081.41 80.6562C1081.13 80.6562 1080.89 80.7159 1080.7 80.8352C1080.5 80.9517 1080.41 81.108 1080.41 81.304C1080.41 81.4602 1080.47 81.5923 1080.6 81.7003C1080.72 81.8082 1080.94 81.8949 1081.24 81.9602L1082.42 82.1989C1083.06 82.3295 1083.53 82.5398 1083.85 82.8295C1084.16 83.1193 1084.32 83.5 1084.32 83.9716C1084.32 84.4006 1084.19 84.777 1083.94 85.1009C1083.69 85.4247 1083.34 85.6776 1082.91 85.8594C1082.47 86.0384 1081.97 86.1278 1081.4 86.1278C1080.53 86.1278 1079.84 85.9474 1079.33 85.5866C1078.82 85.223 1078.52 84.7287 1078.43 84.1037L1080.22 84.0099C1080.27 84.2741 1080.4 84.4759 1080.61 84.6151C1080.82 84.7514 1081.08 84.8196 1081.41 84.8196C1081.72 84.8196 1081.98 84.7585 1082.17 84.6364C1082.37 84.5114 1082.47 84.3509 1082.47 84.1548C1082.47 83.9901 1082.4 83.8551 1082.26 83.75C1082.13 83.642 1081.92 83.5597 1081.63 83.5028L1080.5 83.277C1079.86 83.1491 1079.38 82.9276 1079.07 82.6122C1078.76 82.2969 1078.61 81.8949 1078.61 81.4062C1078.61 80.9858 1078.72 80.6236 1078.95 80.3196C1079.18 80.0156 1079.5 79.7812 1079.91 79.6165C1080.33 79.4517 1080.82 79.3693 1081.38 79.3693C1082.21 79.3693 1082.86 79.544 1083.33 79.8935C1083.81 80.2429 1084.09 80.7187 1084.17 81.321ZM1090.1 86.1236C1089.69 86.1236 1089.31 86.0511 1088.99 85.9062C1088.66 85.7585 1088.4 85.5412 1088.21 85.2543C1088.02 84.9645 1087.93 84.6037 1087.93 84.1719C1087.93 83.8082 1088 83.5028 1088.13 83.2557C1088.26 83.0085 1088.44 82.8097 1088.68 82.6591C1088.91 82.5085 1089.17 82.3949 1089.46 82.3182C1089.75 82.2415 1090.06 82.1875 1090.39 82.1562C1090.77 82.1165 1091.08 82.0795 1091.31 82.0455C1091.54 82.0085 1091.71 81.9545 1091.82 81.8835C1091.92 81.8125 1091.97 81.7074 1091.97 81.5682V81.5426C1091.97 81.2727 1091.89 81.0639 1091.72 80.9162C1091.55 80.7685 1091.31 80.6946 1091 80.6946C1090.68 80.6946 1090.42 80.767 1090.22 80.9119C1090.03 81.054 1089.9 81.233 1089.84 81.4489L1088.16 81.3125C1088.24 80.9148 1088.41 80.571 1088.66 80.2812C1088.91 79.9886 1089.23 79.7642 1089.63 79.608C1090.03 79.4489 1090.49 79.3693 1091.01 79.3693C1091.37 79.3693 1091.72 79.4119 1092.05 79.4972C1092.39 79.5824 1092.69 79.7145 1092.94 79.8935C1093.21 80.0724 1093.41 80.3026 1093.56 80.5838C1093.71 80.8622 1093.79 81.196 1093.79 81.5852V86H1092.07V85.0923H1092.02C1091.91 85.2969 1091.77 85.4773 1091.59 85.6335C1091.42 85.7869 1091.21 85.9077 1090.96 85.9957C1090.71 86.081 1090.43 86.1236 1090.1 86.1236ZM1090.62 84.8707C1090.89 84.8707 1091.13 84.8182 1091.33 84.7131C1091.53 84.6051 1091.69 84.4602 1091.81 84.2784C1091.93 84.0966 1091.99 83.8906 1091.99 83.6605V82.9659C1091.93 83.0028 1091.85 83.0369 1091.75 83.0682C1091.66 83.0966 1091.55 83.1236 1091.42 83.1491C1091.3 83.1719 1091.18 83.1932 1091.06 83.2131C1090.94 83.2301 1090.82 83.2457 1090.72 83.2599C1090.51 83.2912 1090.33 83.3409 1090.17 83.4091C1090.01 83.4773 1089.88 83.5696 1089.8 83.6861C1089.71 83.7997 1089.66 83.9418 1089.66 84.1122C1089.66 84.3594 1089.75 84.5483 1089.93 84.679C1090.11 84.8068 1090.34 84.8707 1090.62 84.8707ZM1097.01 82.2159V86H1095.2V79.4545H1096.93V80.6094H1097C1097.15 80.2287 1097.39 79.9276 1097.73 79.706C1098.07 79.4815 1098.49 79.3693 1098.97 79.3693C1099.43 79.3693 1099.82 79.4688 1100.16 79.6676C1100.5 79.8665 1100.76 80.1506 1100.95 80.5199C1101.14 80.8864 1101.23 81.3239 1101.23 81.8324V86H1099.42V82.1562C1099.42 81.7557 1099.32 81.4432 1099.11 81.2188C1098.9 80.9915 1098.62 80.8778 1098.25 80.8778C1098.01 80.8778 1097.79 80.9304 1097.6 81.0355C1097.42 81.1406 1097.28 81.294 1097.17 81.4957C1097.07 81.6946 1097.02 81.9347 1097.01 82.2159ZM1105.07 86.1065C1104.58 86.1065 1104.13 85.9787 1103.72 85.723C1103.32 85.4645 1103 85.0852 1102.77 84.5852C1102.54 84.0824 1102.42 83.4659 1102.42 82.7358C1102.42 81.9858 1102.54 81.3622 1102.78 80.8651C1103.02 80.3651 1103.34 79.9915 1103.74 79.7443C1104.15 79.4943 1104.59 79.3693 1105.07 79.3693C1105.44 79.3693 1105.74 79.4318 1105.99 79.5568C1106.23 79.679 1106.43 79.8324 1106.58 80.017C1106.74 80.1989 1106.85 80.3778 1106.93 80.554H1106.99V77.2727H1108.8V86H1107.01V84.9517H1106.93C1106.85 85.1335 1106.73 85.3139 1106.57 85.4929C1106.42 85.669 1106.22 85.8153 1105.97 85.9318C1105.72 86.0483 1105.43 86.1065 1105.07 86.1065ZM1105.65 84.6619C1105.94 84.6619 1106.19 84.5824 1106.39 84.4233C1106.6 84.2614 1106.75 84.0355 1106.86 83.7457C1106.97 83.456 1107.03 83.1165 1107.03 82.7273C1107.03 82.3381 1106.97 82 1106.86 81.7131C1106.76 81.4261 1106.6 81.2045 1106.39 81.0483C1106.19 80.892 1105.94 80.8139 1105.65 80.8139C1105.35 80.8139 1105.1 80.8949 1104.89 81.0568C1104.69 81.2187 1104.54 81.4432 1104.43 81.7301C1104.33 82.017 1104.27 82.3494 1104.27 82.7273C1104.27 83.108 1104.33 83.4446 1104.43 83.7372C1104.54 84.027 1104.69 84.2543 1104.89 84.419C1105.1 84.581 1105.35 84.6619 1105.65 84.6619ZM1121.12 81.6364C1121.12 82.5881 1120.94 83.3977 1120.58 84.0653C1120.22 84.733 1119.73 85.2429 1119.12 85.5952C1118.5 85.9446 1117.81 86.1193 1117.04 86.1193C1116.26 86.1193 1115.56 85.9432 1114.95 85.5909C1114.33 85.2386 1113.84 84.7287 1113.49 84.0611C1113.13 83.3935 1112.95 82.5852 1112.95 81.6364C1112.95 80.6847 1113.13 79.875 1113.49 79.2074C1113.84 78.5398 1114.33 78.0312 1114.95 77.6818C1115.56 77.3295 1116.26 77.1534 1117.04 77.1534C1117.81 77.1534 1118.5 77.3295 1119.12 77.6818C1119.73 78.0312 1120.22 78.5398 1120.58 79.2074C1120.94 79.875 1121.12 80.6847 1121.12 81.6364ZM1119.25 81.6364C1119.25 81.0199 1119.16 80.5 1118.97 80.0767C1118.79 79.6534 1118.54 79.3324 1118.2 79.1136C1117.87 78.8949 1117.48 78.7855 1117.04 78.7855C1116.59 78.7855 1116.2 78.8949 1115.87 79.1136C1115.54 79.3324 1115.28 79.6534 1115.09 80.0767C1114.91 80.5 1114.82 81.0199 1114.82 81.6364C1114.82 82.2528 1114.91 82.7727 1115.09 83.196C1115.28 83.6193 1115.54 83.9403 1115.87 84.1591C1116.2 84.3778 1116.59 84.4872 1117.04 84.4872C1117.48 84.4872 1117.87 84.3778 1118.2 84.1591C1118.54 83.9403 1118.79 83.6193 1118.97 83.196C1119.16 82.7727 1119.25 82.2528 1119.25 81.6364ZM1122.49 86V77.2727H1124.3V80.554H1124.36C1124.44 80.3778 1124.55 80.1989 1124.7 80.017C1124.86 79.8324 1125.06 79.679 1125.3 79.5568C1125.55 79.4318 1125.86 79.3693 1126.22 79.3693C1126.7 79.3693 1127.14 79.4943 1127.54 79.7443C1127.95 79.9915 1128.27 80.3651 1128.51 80.8651C1128.75 81.3622 1128.87 81.9858 1128.87 82.7358C1128.87 83.4659 1128.75 84.0824 1128.52 84.5852C1128.29 85.0852 1127.97 85.4645 1127.56 85.723C1127.16 85.9787 1126.71 86.1065 1126.22 86.1065C1125.87 86.1065 1125.57 86.0483 1125.32 85.9318C1125.07 85.8153 1124.87 85.669 1124.72 85.4929C1124.56 85.3139 1124.44 85.1335 1124.36 84.9517H1124.28V86H1122.49ZM1124.27 82.7273C1124.27 83.1165 1124.32 83.456 1124.43 83.7457C1124.54 84.0355 1124.69 84.2614 1124.9 84.4233C1125.1 84.5824 1125.35 84.6619 1125.64 84.6619C1125.94 84.6619 1126.19 84.581 1126.39 84.419C1126.6 84.2543 1126.75 84.027 1126.86 83.7372C1126.96 83.4446 1127.02 83.108 1127.02 82.7273C1127.02 82.3494 1126.97 82.017 1126.86 81.7301C1126.76 81.4432 1126.6 81.2187 1126.4 81.0568C1126.19 80.8949 1125.94 80.8139 1125.64 80.8139C1125.35 80.8139 1125.1 80.892 1124.89 81.0483C1124.69 81.2045 1124.54 81.4261 1124.43 81.7131C1124.32 82 1124.27 82.3381 1124.27 82.7273ZM1135.53 81.321L1133.87 81.4233C1133.84 81.2812 1133.78 81.1534 1133.68 81.0398C1133.59 80.9233 1133.47 80.831 1133.31 80.7628C1133.16 80.6918 1132.98 80.6562 1132.77 80.6562C1132.49 80.6562 1132.25 80.7159 1132.06 80.8352C1131.87 80.9517 1131.77 81.108 1131.77 81.304C1131.77 81.4602 1131.83 81.5923 1131.96 81.7003C1132.08 81.8082 1132.3 81.8949 1132.6 81.9602L1133.79 82.1989C1134.42 82.3295 1134.9 82.5398 1135.21 82.8295C1135.52 83.1193 1135.68 83.5 1135.68 83.9716C1135.68 84.4006 1135.55 84.777 1135.3 85.1009C1135.05 85.4247 1134.71 85.6776 1134.27 85.8594C1133.83 86.0384 1133.33 86.1278 1132.76 86.1278C1131.9 86.1278 1131.21 85.9474 1130.69 85.5866C1130.18 85.223 1129.88 84.7287 1129.79 84.1037L1131.58 84.0099C1131.63 84.2741 1131.76 84.4759 1131.97 84.6151C1132.18 84.7514 1132.44 84.8196 1132.77 84.8196C1133.09 84.8196 1133.34 84.7585 1133.54 84.6364C1133.73 84.5114 1133.83 84.3509 1133.83 84.1548C1133.83 83.9901 1133.76 83.8551 1133.62 83.75C1133.49 83.642 1133.28 83.5597 1132.99 83.5028L1131.86 83.277C1131.22 83.1491 1130.75 82.9276 1130.43 82.6122C1130.12 82.2969 1129.97 81.8949 1129.97 81.4062C1129.97 80.9858 1130.08 80.6236 1130.31 80.3196C1130.54 80.0156 1130.86 79.7812 1131.28 79.6165C1131.69 79.4517 1132.18 79.3693 1132.74 79.3693C1133.57 79.3693 1134.22 79.544 1134.69 79.8935C1135.17 80.2429 1135.45 80.7187 1135.53 81.321ZM1139.81 86.1278C1139.13 86.1278 1138.55 85.9915 1138.07 85.7188C1137.58 85.4432 1137.21 85.054 1136.95 84.5511C1136.69 84.0455 1136.56 83.4474 1136.56 82.7571C1136.56 82.0838 1136.69 81.4929 1136.95 80.9844C1137.21 80.4759 1137.58 80.0795 1138.05 79.7955C1138.53 79.5114 1139.09 79.3693 1139.73 79.3693C1140.16 79.3693 1140.57 79.4389 1140.94 79.5781C1141.31 79.7145 1141.64 79.9205 1141.92 80.196C1142.2 80.4716 1142.42 80.8182 1142.57 81.2358C1142.73 81.6506 1142.81 82.1364 1142.81 82.6932V83.1918H1137.28V82.0668H1141.1C1141.1 81.8054 1141.04 81.5739 1140.93 81.3722C1140.82 81.1705 1140.66 81.0128 1140.46 80.8991C1140.26 80.7827 1140.03 80.7244 1139.76 80.7244C1139.49 80.7244 1139.24 80.7884 1139.03 80.9162C1138.82 81.0412 1138.65 81.2102 1138.54 81.4233C1138.42 81.6335 1138.35 81.8679 1138.35 82.1264V83.196C1138.35 83.5199 1138.41 83.7997 1138.53 84.0355C1138.65 84.2713 1138.82 84.4531 1139.05 84.581C1139.27 84.7088 1139.53 84.7727 1139.83 84.7727C1140.04 84.7727 1140.22 84.7443 1140.39 84.6875C1140.56 84.6307 1140.7 84.5455 1140.82 84.4318C1140.94 84.3182 1141.03 84.179 1141.09 84.0142L1142.77 84.125C1142.69 84.5284 1142.51 84.8807 1142.25 85.1818C1141.99 85.4801 1141.65 85.7131 1141.23 85.8807C1140.82 86.0455 1140.34 86.1278 1139.81 86.1278ZM1143.99 86V79.4545H1145.75V80.5966H1145.82C1145.94 80.1903 1146.14 79.8835 1146.42 79.6761C1146.7 79.4659 1147.03 79.3608 1147.39 79.3608C1147.49 79.3608 1147.58 79.3665 1147.69 79.3778C1147.79 79.3892 1147.89 79.4048 1147.97 79.4247V81.0355C1147.88 81.0099 1147.76 80.9872 1147.61 80.9673C1147.46 80.9474 1147.32 80.9375 1147.2 80.9375C1146.93 80.9375 1146.69 80.9957 1146.48 81.1122C1146.28 81.2259 1146.11 81.3849 1145.99 81.5895C1145.87 81.794 1145.81 82.0298 1145.81 82.2969V86H1143.99ZM1155.21 79.4545L1152.92 86H1150.87L1148.58 79.4545H1150.5L1151.86 84.1378H1151.93L1153.28 79.4545H1155.21ZM1157.83 86.1236C1157.41 86.1236 1157.04 86.0511 1156.71 85.9062C1156.38 85.7585 1156.12 85.5412 1155.93 85.2543C1155.75 84.9645 1155.65 84.6037 1155.65 84.1719C1155.65 83.8082 1155.72 83.5028 1155.85 83.2557C1155.99 83.0085 1156.17 82.8097 1156.4 82.6591C1156.63 82.5085 1156.89 82.3949 1157.18 82.3182C1157.48 82.2415 1157.79 82.1875 1158.11 82.1562C1158.49 82.1165 1158.8 82.0795 1159.03 82.0455C1159.26 82.0085 1159.43 81.9545 1159.54 81.8835C1159.64 81.8125 1159.7 81.7074 1159.7 81.5682V81.5426C1159.7 81.2727 1159.61 81.0639 1159.44 80.9162C1159.27 80.7685 1159.03 80.6946 1158.72 80.6946C1158.4 80.6946 1158.14 80.767 1157.94 80.9119C1157.75 81.054 1157.62 81.233 1157.56 81.4489L1155.88 81.3125C1155.97 80.9148 1156.13 80.571 1156.38 80.2812C1156.63 79.9886 1156.96 79.7642 1157.35 79.608C1157.75 79.4489 1158.21 79.3693 1158.73 79.3693C1159.1 79.3693 1159.44 79.4119 1159.78 79.4972C1160.11 79.5824 1160.41 79.7145 1160.67 79.8935C1160.93 80.0724 1161.13 80.3026 1161.29 80.5838C1161.44 80.8622 1161.51 81.196 1161.51 81.5852V86H1159.79V85.0923H1159.74C1159.63 85.2969 1159.49 85.4773 1159.32 85.6335C1159.14 85.7869 1158.93 85.9077 1158.68 85.9957C1158.43 86.081 1158.15 86.1236 1157.83 86.1236ZM1158.35 84.8707C1158.61 84.8707 1158.85 84.8182 1159.05 84.7131C1159.26 84.6051 1159.42 84.4602 1159.53 84.2784C1159.65 84.0966 1159.71 83.8906 1159.71 83.6605V82.9659C1159.65 83.0028 1159.57 83.0369 1159.47 83.0682C1159.38 83.0966 1159.27 83.1236 1159.15 83.1491C1159.02 83.1719 1158.9 83.1932 1158.78 83.2131C1158.66 83.2301 1158.55 83.2457 1158.45 83.2599C1158.23 83.2912 1158.05 83.3409 1157.89 83.4091C1157.73 83.4773 1157.61 83.5696 1157.52 83.6861C1157.43 83.7997 1157.39 83.9418 1157.39 84.1122C1157.39 84.3594 1157.48 84.5483 1157.65 84.679C1157.84 84.8068 1158.07 84.8707 1158.35 84.8707ZM1166.4 79.4545V80.8182H1162.46V79.4545H1166.4ZM1163.35 77.8864H1165.17V83.9886C1165.17 84.1562 1165.2 84.2869 1165.25 84.3807C1165.3 84.4716 1165.37 84.5355 1165.46 84.5724C1165.55 84.6094 1165.66 84.6278 1165.78 84.6278C1165.87 84.6278 1165.95 84.6207 1166.04 84.6065C1166.12 84.5895 1166.19 84.5767 1166.24 84.5682L1166.52 85.919C1166.43 85.9474 1166.3 85.9801 1166.14 86.017C1165.97 86.0568 1165.77 86.081 1165.54 86.0895C1165.1 86.1065 1164.72 86.0483 1164.39 85.9148C1164.06 85.7812 1163.8 85.5739 1163.62 85.2926C1163.44 85.0114 1163.35 84.6562 1163.35 84.2273V77.8864ZM1167.58 86V79.4545H1169.4V86H1167.58ZM1168.5 78.6108C1168.23 78.6108 1167.99 78.5213 1167.8 78.3423C1167.61 78.1605 1167.52 77.9432 1167.52 77.6903C1167.52 77.4403 1167.61 77.2259 1167.8 77.0469C1167.99 76.8651 1168.23 76.7741 1168.5 76.7741C1168.77 76.7741 1169 76.8651 1169.19 77.0469C1169.38 77.2259 1169.48 77.4403 1169.48 77.6903C1169.48 77.9432 1169.38 78.1605 1169.19 78.3423C1169 78.5213 1168.77 78.6108 1168.5 78.6108ZM1173.81 86.1278C1173.15 86.1278 1172.58 85.9872 1172.09 85.706C1171.61 85.4219 1171.24 85.027 1170.98 84.5213C1170.72 84.0128 1170.59 83.4233 1170.59 82.7528C1170.59 82.0767 1170.72 81.4858 1170.98 80.9801C1171.24 80.4716 1171.61 80.0767 1172.09 79.7955C1172.58 79.5114 1173.15 79.3693 1173.81 79.3693C1174.47 79.3693 1175.04 79.5114 1175.52 79.7955C1176.01 80.0767 1176.38 80.4716 1176.64 80.9801C1176.9 81.4858 1177.03 82.0767 1177.03 82.7528C1177.03 83.4233 1176.9 84.0128 1176.64 84.5213C1176.38 85.027 1176.01 85.4219 1175.52 85.706C1175.04 85.9872 1174.47 86.1278 1173.81 86.1278ZM1173.82 84.7216C1174.12 84.7216 1174.37 84.6364 1174.57 84.4659C1174.78 84.2926 1174.93 84.0568 1175.03 83.7585C1175.13 83.4602 1175.19 83.1207 1175.19 82.7401C1175.19 82.3594 1175.13 82.0199 1175.03 81.7216C1174.93 81.4233 1174.78 81.1875 1174.57 81.0142C1174.37 80.8409 1174.12 80.7543 1173.82 80.7543C1173.52 80.7543 1173.26 80.8409 1173.05 81.0142C1172.85 81.1875 1172.69 81.4233 1172.59 81.7216C1172.49 82.0199 1172.43 82.3594 1172.43 82.7401C1172.43 83.1207 1172.49 83.4602 1172.59 83.7585C1172.69 84.0568 1172.85 84.2926 1173.05 84.4659C1173.26 84.6364 1173.52 84.7216 1173.82 84.7216ZM1180.03 82.2159V86H1178.21V79.4545H1179.94V80.6094H1180.02C1180.16 80.2287 1180.41 79.9276 1180.75 79.706C1181.09 79.4815 1181.5 79.3693 1181.99 79.3693C1182.44 79.3693 1182.84 79.4688 1183.18 79.6676C1183.52 79.8665 1183.78 80.1506 1183.97 80.5199C1184.15 80.8864 1184.25 81.3239 1184.25 81.8324V86H1182.43V82.1562C1182.43 81.7557 1182.33 81.4432 1182.12 81.2188C1181.92 80.9915 1181.63 80.8778 1181.27 80.8778C1181.02 80.8778 1180.81 80.9304 1180.62 81.0355C1180.44 81.1406 1180.29 81.294 1180.19 81.4957C1180.08 81.6946 1180.03 81.9347 1180.03 82.2159ZM1191.12 81.321L1189.46 81.4233C1189.43 81.2812 1189.37 81.1534 1189.28 81.0398C1189.18 80.9233 1189.06 80.831 1188.91 80.7628C1188.76 80.6918 1188.58 80.6562 1188.37 80.6562C1188.09 80.6562 1187.85 80.7159 1187.65 80.8352C1187.46 80.9517 1187.37 81.108 1187.37 81.304C1187.37 81.4602 1187.43 81.5923 1187.55 81.7003C1187.68 81.8082 1187.89 81.8949 1188.2 81.9602L1189.38 82.1989C1190.02 82.3295 1190.49 82.5398 1190.8 82.8295C1191.12 83.1193 1191.27 83.5 1191.27 83.9716C1191.27 84.4006 1191.15 84.777 1190.89 85.1009C1190.64 85.4247 1190.3 85.6776 1189.86 85.8594C1189.43 86.0384 1188.93 86.1278 1188.36 86.1278C1187.49 86.1278 1186.8 85.9474 1186.29 85.5866C1185.78 85.223 1185.48 84.7287 1185.39 84.1037L1187.17 84.0099C1187.23 84.2741 1187.36 84.4759 1187.57 84.6151C1187.77 84.7514 1188.04 84.8196 1188.36 84.8196C1188.68 84.8196 1188.94 84.7585 1189.13 84.6364C1189.33 84.5114 1189.42 84.3509 1189.43 84.1548C1189.42 83.9901 1189.36 83.8551 1189.22 83.75C1189.08 83.642 1188.87 83.5597 1188.59 83.5028L1187.45 83.277C1186.82 83.1491 1186.34 82.9276 1186.03 82.6122C1185.72 82.2969 1185.56 81.8949 1185.56 81.4062C1185.56 80.9858 1185.68 80.6236 1185.9 80.3196C1186.13 80.0156 1186.46 79.7812 1186.87 79.6165C1187.29 79.4517 1187.78 79.3693 1188.34 79.3693C1189.16 79.3693 1189.81 79.544 1190.29 79.8935C1190.77 80.2429 1191.04 80.7187 1191.12 81.321Z" fill="white"/>
<defs>
<clipPath id="clip0_764_3238">
<rect width="16" height="16" fill="white" transform="translate(809.667 44.5)"/>
</clipPath>
<clipPath id="clip1_764_3238">
<rect width="16" height="16" fill="white" transform="translate(887 44.5)"/>
</clipPath>
</defs>
</svg>
