<svg width="162" height="391" viewBox="0 0 162 391" fill="none" xmlns="http://www.w3.org/2000/svg">
<mask id="mask0_770_3632" style="mask-type:luminance" maskUnits="userSpaceOnUse" x="69" y="147" width="22" height="32">
<path d="M69.8999 147.113H90.7483V167.891C90.7483 173.628 86.0812 178.279 80.3241 178.279C74.567 178.279 69.8999 173.628 69.8999 167.891V147.113Z" fill="white"/>
</mask>
<g mask="url(#mask0_770_3632)">
<g filter="url(#filter0_iiii_770_3632)">
<path fill-rule="evenodd" clip-rule="evenodd" d="M81.0825 161.413C87.2585 161.413 92.2652 159.219 92.2652 156.512C92.2652 156.495 92.265 156.479 92.2646 156.462L92.2653 292.144C92.2653 298.3 87.2586 303.289 81.0826 303.289C74.9066 303.289 69.8999 298.3 69.8999 292.144V156.529C69.922 159.228 74.9201 161.413 81.0825 161.413ZM69.8999 156.493C69.9 156.483 69.9002 156.473 69.9004 156.462L69.8999 156.493Z" fill="white" fill-opacity="0.1"/>
</g>
<path opacity="0.3" d="M81.0825 161.438C87.2585 161.438 92.2652 159.243 92.2652 156.536C92.2652 153.828 87.2585 151.634 81.0825 151.634C74.9065 151.634 69.8999 153.828 69.8999 156.536C69.8999 159.243 74.9065 161.438 81.0825 161.438Z" fill="#C4C4C4"/>
</g>
<g filter="url(#filter1_iiii_770_3632)">
<path fill-rule="evenodd" clip-rule="evenodd" d="M69.3321 25.5278L69.3318 45.4003V45.4916V167.134C69.3318 173.29 74.3385 178.279 80.5145 178.279C86.6905 178.279 91.6972 173.29 91.6972 167.134V45.4916V45.4003V25.5613C91.6561 28.2531 86.6653 30.4298 80.5147 30.4298C74.3388 30.4298 69.3321 28.2351 69.3321 25.5278Z" fill="white" fill-opacity="0.1"/>
</g>
<g filter="url(#filter2_ii_770_3632)">
<path d="M80.5144 30.4298C86.6904 30.4298 91.697 28.2352 91.697 25.5279C91.697 22.8206 86.6904 20.626 80.5144 20.626C74.3384 20.626 69.3318 22.8206 69.3318 25.5279C69.3318 28.2352 74.3384 30.4298 80.5144 30.4298Z" fill="white" fill-opacity="0.1"/>
</g>
<path d="M80.5144 30.949C83.6572 30.949 86.5275 30.3916 88.6316 29.4693C89.6829 29.0085 90.5662 28.4463 91.1939 27.7956C91.8241 27.1425 92.2182 26.3753 92.2182 25.5276C92.2182 24.6798 91.8241 23.9126 91.1939 23.2595C90.5662 22.6089 89.6829 22.0468 88.6316 21.5859C86.5275 20.6635 83.6572 20.1062 80.5144 20.1062C77.3716 20.1062 74.5012 20.6635 72.3972 21.5859C71.3459 22.0468 70.4625 22.6089 69.8349 23.2595C69.2046 23.9126 68.8105 24.6798 68.8105 25.5276C68.8105 26.3753 69.2046 27.1425 69.8349 27.7956C70.4625 28.4463 71.3459 29.0085 72.3972 29.4693C74.5012 30.3916 77.3716 30.949 80.5144 30.949Z" stroke="url(#paint0_linear_770_3632)" stroke-width="1.00659"/>
<g filter="url(#filter3_ii_770_3632)">
<path d="M80.5144 31.988C83.6572 31.988 86.5275 31.4306 88.6316 30.5083C89.6829 30.0474 90.5662 29.4852 91.1939 28.8347C91.8241 28.1816 92.2182 27.4143 92.2182 26.5666C92.2182 25.7189 91.8241 24.9516 91.1939 24.2985C90.5662 23.6479 89.6829 23.0857 88.6316 22.6249C86.5275 21.7026 83.6572 21.1453 80.5144 21.1453C77.3716 21.1453 74.5012 21.7026 72.3972 22.6249C71.3459 23.0857 70.4625 23.6479 69.8349 24.2985C69.2046 24.9516 68.8105 25.7189 68.8105 26.5666C68.8105 27.4143 69.2046 28.1816 69.8349 28.8347C70.4625 29.4852 71.3459 30.0474 72.3972 30.5083C74.5012 31.4306 77.3716 31.988 80.5144 31.988Z" stroke="url(#paint1_linear_770_3632)" stroke-width="1.00659"/>
</g>
<g filter="url(#filter4_ii_770_3632)">
<path d="M80.5144 30.949C83.6572 30.949 86.5275 30.3916 88.6316 29.4693C89.6829 29.0085 90.5662 28.4463 91.1939 27.7956C91.8241 27.1425 92.2182 26.3753 92.2182 25.5276C92.2182 24.6798 91.8241 23.9126 91.1939 23.2595C90.5662 22.6089 89.6829 22.0468 88.6316 21.5859C86.5275 20.6635 83.6572 20.1062 80.5144 20.1062C77.3716 20.1062 74.5012 20.6635 72.3972 21.5859C71.3459 22.0468 70.4625 22.6089 69.8349 23.2595C69.2046 23.9126 68.8105 24.6798 68.8105 25.5276C68.8105 26.3753 69.2046 27.1425 69.8349 27.7956C70.4625 28.4463 71.3459 29.0085 72.3972 29.4693C74.5012 30.3916 77.3716 30.949 80.5144 30.949Z" stroke="url(#paint2_linear_770_3632)" stroke-width="1.00659"/>
</g>
<path opacity="0.5" d="M85.122 173.503L84.5542 174.425C84.9615 174.411 85.3736 174.348 85.783 174.231C87.6281 173.709 88.95 172.245 89.3742 170.512L88.7364 169.894C88.4428 171.521 87.2508 172.922 85.5474 173.405C85.4059 173.445 85.2639 173.477 85.122 173.503Z" fill="#C4C4C4"/>
<path opacity="0.4" d="M90.087 54.4155H88.9485V169.397H90.087V54.4155Z" fill="url(#paint3_linear_770_3632)"/>
<path opacity="0.1" d="M72.2843 54.4155H71.1458V131.098H72.2843V54.4155Z" fill="url(#paint4_linear_770_3632)"/>
<g opacity="0.1" filter="url(#filter5_f_770_3632)">
<path d="M80.2166 54.4155H76.634V110.643H80.2166V54.4155Z" fill="url(#paint5_linear_770_3632)"/>
</g>
<g opacity="0.1" filter="url(#filter6_f_770_3632)">
<path d="M86.3738 104.989H82.7913V161.216H86.3738V104.989Z" fill="url(#paint6_linear_770_3632)"/>
</g>
<g opacity="0.05" filter="url(#filter7_f_770_3632)">
<path d="M88.1651 40.5085H81.5066V96.736H88.1651V40.5085Z" fill="url(#paint7_linear_770_3632)"/>
</g>
<g opacity="0.1" filter="url(#filter8_f_770_3632)">
<path d="M82.7915 111.841H74.8428V168.068H82.7915V111.841Z" fill="url(#paint8_linear_770_3632)"/>
</g>
<g filter="url(#filter9_d_770_3632)">
<path d="M73.217 82.2888H75.758V89.1184H77.4925V82.2888H80.0333V80.8469H73.217V82.2888ZM81.014 87.6644H84.9976V89.1184H86.6753V87.6644H87.7047V86.263H86.6753V80.8469H84.4789L81.014 86.2872V87.6644ZM85.03 86.263H82.7809V86.1984L84.9652 82.7532H85.03V86.263Z" fill="white"/>
</g>
<g opacity="0.6">
<path opacity="0.6" d="M15.4303 232.967H12.9933V237.15H11.6179V226.809H15.0527C16.2212 226.809 17.1192 227.074 17.7462 227.605C18.3781 228.135 18.694 228.906 18.694 229.92C18.694 230.564 18.5182 231.125 18.1667 231.603C17.8199 232.081 17.3353 232.439 16.7129 232.676L19.15 237.064V237.15H17.682L15.4303 232.967ZM12.9933 231.852H15.0953C15.7747 231.852 16.3139 231.676 16.7129 231.327C17.1168 230.976 17.3186 230.507 17.3186 229.92C17.3186 229.281 17.1262 228.791 16.7415 228.45C16.3614 228.11 15.8103 227.936 15.0883 227.932H12.9933V231.852ZM23.6108 237.292C22.5657 237.292 21.7154 236.951 21.0597 236.269C20.4042 235.583 20.0764 234.666 20.0764 233.521V233.279C20.0764 232.517 20.2213 231.838 20.5111 231.241C20.8056 230.639 21.2141 230.171 21.7367 229.835C22.264 229.494 22.8341 229.323 23.447 229.323C24.4493 229.323 25.2284 229.653 25.7842 230.311C26.3401 230.968 26.618 231.911 26.618 233.137V233.684H21.3946C21.4137 234.441 21.6346 235.055 22.0574 235.523C22.4849 235.988 23.0265 236.22 23.682 236.22C24.1477 236.22 24.542 236.125 24.865 235.935C25.188 235.746 25.4707 235.495 25.7129 235.183L26.5182 235.808C25.8721 236.797 24.903 237.292 23.6108 237.292ZM23.447 230.403C22.9149 230.403 22.4683 230.597 22.1072 230.985C21.7462 231.369 21.5229 231.909 21.4374 232.604H25.2996V232.505C25.2616 231.837 25.0811 231.321 24.7581 230.957C24.435 230.588 23.998 230.403 23.447 230.403ZM27.8294 233.243C27.8294 232.037 28.1072 231.082 28.6631 230.381C29.2189 229.676 29.9648 229.323 30.9006 229.323C31.8128 229.323 32.5324 229.629 33.0597 230.24L33.1168 229.466H34.3281V240.105H33.0099V236.44C32.4778 237.007 31.77 237.292 30.8864 237.292C29.9553 237.292 29.2118 236.932 28.656 236.213C28.1049 235.488 27.8294 234.529 27.8294 233.336V233.243ZM29.1477 233.393C29.1477 234.273 29.333 234.965 29.7035 235.466C30.0788 235.969 30.5823 236.22 31.2142 236.22C31.9981 236.22 32.5966 235.874 33.0099 235.183V231.418C32.5919 230.741 31.9981 230.403 31.2284 230.403C30.5918 230.403 30.0859 230.657 29.7106 231.163C29.3353 231.665 29.1477 232.408 29.1477 233.393ZM41.2047 236.39C40.6916 236.991 39.9387 237.292 38.9457 237.292C38.1239 237.292 37.4968 237.055 37.0645 236.582C36.637 236.103 36.4209 235.398 36.4161 234.465V229.466H37.7344V234.43C37.7344 235.594 38.2094 236.176 39.1596 236.176C40.1667 236.176 40.8365 235.803 41.1691 235.055V229.466H42.4874V237.15H41.2332L41.2047 236.39ZM45.9292 237.15H44.6108V229.466H45.9292V237.15ZM44.504 227.427C44.504 227.215 44.5681 227.034 44.6964 226.888C44.8294 226.741 45.0241 226.668 45.2807 226.668C45.5373 226.668 45.732 226.741 45.865 226.888C45.998 227.034 46.0645 227.215 46.0645 227.427C46.0645 227.64 45.998 227.817 45.865 227.96C45.732 228.102 45.5373 228.173 45.2807 228.173C45.0241 228.173 44.8294 228.102 44.6964 227.96C44.5681 227.817 44.504 227.64 44.504 227.427ZM51.7724 230.644C51.5729 230.611 51.3567 230.595 51.124 230.595C50.2594 230.595 49.6726 230.961 49.3638 231.695V237.15H48.0456V229.466H49.3282L49.3496 230.353C49.7819 229.667 50.3947 229.323 51.1881 229.323C51.4446 229.323 51.6394 229.356 51.7724 229.423V230.644ZM56.0479 237.292C55.0028 237.292 54.1525 236.951 53.4968 236.269C52.8413 235.583 52.5134 234.666 52.5134 233.521V233.279C52.5134 232.517 52.6584 231.838 52.9482 231.241C53.2427 230.639 53.6513 230.171 54.1738 229.835C54.7011 229.494 55.2712 229.323 55.8841 229.323C56.8864 229.323 57.6655 229.653 58.2213 230.311C58.7771 230.968 59.0551 231.911 59.0551 233.137V233.684H53.8318C53.8508 234.441 54.0717 235.055 54.4945 235.523C54.922 235.988 55.4636 236.22 56.1192 236.22C56.5848 236.22 56.979 236.125 57.3021 235.935C57.6251 235.746 57.9078 235.495 58.1501 235.183L58.9553 235.808C58.3092 236.797 57.3401 237.292 56.0479 237.292ZM55.8841 230.403C55.352 230.403 54.9055 230.597 54.5443 230.985C54.1833 231.369 53.9601 231.909 53.8745 232.604H57.7368V232.505C57.6988 231.837 57.5183 231.321 57.1953 230.957C56.8721 230.588 56.4351 230.403 55.8841 230.403ZM60.2665 233.243C60.2665 232.065 60.5467 231.118 61.1073 230.403C61.6679 229.684 62.4019 229.323 63.3092 229.323C64.2118 229.323 64.9268 229.631 65.4541 230.247V226.241H66.7724V237.15H65.561L65.4969 236.326C64.9695 236.97 64.2356 237.292 63.295 237.292C62.4019 237.292 61.6726 236.927 61.1073 236.198C60.5467 235.469 60.2665 234.517 60.2665 233.343V233.243ZM61.5847 233.393C61.5847 234.264 61.7653 234.946 62.1263 235.438C62.4873 235.931 62.9862 236.176 63.6228 236.176C64.4589 236.176 65.0694 235.803 65.4541 235.055V231.525C65.0599 230.8 64.4541 230.439 63.6371 230.439C62.9909 230.439 62.4873 230.687 62.1263 231.184C61.7653 231.682 61.5847 232.418 61.5847 233.393Z" fill="white"/>
<path d="M27.7939 266.664H28.7843C29.4067 266.653 29.896 266.49 30.2523 266.173C30.6086 265.855 30.7867 265.427 30.7867 264.887C30.7867 263.676 30.181 263.07 28.9697 263.07C28.3996 263.07 27.9435 263.233 27.6015 263.56C27.2642 263.881 27.0956 264.31 27.0956 264.845H25.7773C25.7773 264.026 26.0765 263.346 26.6751 262.807C27.2784 262.263 28.0432 261.99 28.9697 261.99C29.9482 261.99 30.7155 262.248 31.2713 262.764C31.8271 263.28 32.105 263.998 32.105 264.916C32.105 265.366 31.9578 265.802 31.6632 266.223C31.3734 266.644 30.9768 266.959 30.4731 267.167C31.0432 267.347 31.4827 267.645 31.7915 268.062C32.105 268.479 32.2618 268.988 32.2618 269.589C32.2618 270.517 31.9578 271.253 31.3497 271.797C30.7416 272.342 29.9506 272.615 28.9767 272.615C28.0028 272.615 27.2095 272.351 26.5967 271.826C25.9886 271.301 25.6846 270.607 25.6846 269.745H27.01C27.01 270.289 27.1881 270.725 27.5445 271.052C27.9007 271.378 28.3781 271.542 28.9767 271.542C29.6133 271.542 30.1002 271.376 30.4375 271.045C30.7748 270.714 30.9435 270.238 30.9435 269.617C30.9435 269.016 30.7582 268.554 30.3877 268.232C30.0172 267.91 29.4827 267.745 28.7843 267.736H27.7939V266.664ZM39.067 264.788L39.1026 265.641C39.668 264.977 40.4305 264.646 41.39 264.646C42.4684 264.646 43.2024 265.058 43.592 265.882C43.8485 265.513 44.1811 265.214 44.5896 264.987C45.0029 264.759 45.4899 264.646 46.0504 264.646C47.7416 264.646 48.6015 265.539 48.63 267.323V272.472H47.3117V267.402C47.3117 266.852 47.1858 266.443 46.934 266.173C46.6822 265.899 46.2594 265.761 45.6656 265.761C45.1763 265.761 44.7701 265.908 44.4471 266.201C44.124 266.49 43.9364 266.881 43.8842 267.374V272.472H42.5587V267.438C42.5587 266.32 42.0101 265.761 40.9126 265.761C40.048 265.761 39.4566 266.128 39.1383 266.862V272.472H37.8199V264.788H39.067ZM52.0576 272.472H50.7393V261.564H52.0576V272.472Z" fill="white"/>
<path d="M30.2094 307.795H28.884V299.039L26.2261 300.012V298.819L30.0028 297.405H30.2094V307.795ZM39.0669 300.111L39.1025 300.963C39.6679 300.301 40.4304 299.969 41.3899 299.969C42.4683 299.969 43.2023 300.381 43.5919 301.205C43.8484 300.836 44.181 300.537 44.5895 300.31C45.0028 300.083 45.4897 299.969 46.0503 299.969C47.7415 299.969 48.6014 300.861 48.6299 302.647V307.795H47.3116V302.724C47.3116 302.175 47.1857 301.765 46.9339 301.496C46.6821 301.222 46.2593 301.084 45.6655 301.084C45.1762 301.084 44.77 301.231 44.447 301.524C44.1239 301.813 43.9363 302.204 43.8841 302.696V307.795H42.5586V302.76C42.5586 301.643 42.0099 301.084 40.9125 301.084C40.0479 301.084 39.4565 301.451 39.1381 302.184V307.795H37.8198V300.111H39.0669ZM52.0575 307.795H50.7392V296.887H52.0575V307.795Z" fill="white"/>
<path d="M41.265 339.262H37.7876V338.189H41.265V339.262Z" fill="white"/>
<path d="M41.265 374.584H37.7876V373.511H41.265V374.584Z" fill="white"/>
</g>
<path d="M90.2913 231.993L92.9814 226.836H94.5247L90.9709 233.278V237.109H89.6117V233.278L86.0579 226.836H87.6153L90.2913 231.993ZM94.8362 233.222C94.8362 232.473 94.9825 231.801 95.275 231.204C95.5724 230.606 95.983 230.145 96.5069 229.821C97.0354 229.497 97.6371 229.334 98.312 229.334C99.3551 229.334 100.198 229.694 100.839 230.413C101.486 231.133 101.809 232.09 101.809 233.285V233.376C101.809 234.12 101.665 234.787 101.377 235.381C101.094 235.968 100.686 236.427 100.153 236.757C99.6241 237.086 99.0153 237.25 98.3262 237.25C97.2879 237.25 96.4455 236.891 95.799 236.17C95.1571 235.451 94.8362 234.498 94.8362 233.313V233.222ZM96.1529 233.376C96.1529 234.224 96.3487 234.903 96.7404 235.416C97.1369 235.929 97.6655 236.185 98.3262 236.185C98.9917 236.185 99.5202 235.926 99.9119 235.409C100.304 234.886 100.5 234.158 100.5 233.222C100.5 232.385 100.299 231.707 99.8978 231.189C99.5014 230.667 98.9727 230.406 98.312 230.406C97.6655 230.406 97.144 230.663 96.7475 231.175C96.3511 231.688 96.1529 232.422 96.1529 233.376ZM108.181 236.354C107.671 236.952 106.922 237.25 105.937 237.25C105.119 237.25 104.497 237.015 104.067 236.545C103.643 236.069 103.428 235.368 103.423 234.443V229.475H104.733V234.406C104.733 235.563 105.204 236.142 106.149 236.142C107.149 236.142 107.815 235.771 108.145 235.028V229.475H109.454V237.109H108.209L108.181 236.354ZM119.776 237.109C119.701 236.959 119.64 236.691 119.592 236.305C118.983 236.935 118.257 237.25 117.412 237.25C116.657 237.25 116.036 237.038 115.55 236.615C115.068 236.187 114.828 235.646 114.828 234.993C114.828 234.198 115.13 233.582 115.734 233.144C116.343 232.701 117.198 232.481 118.296 232.481H119.571V231.881C119.571 231.425 119.434 231.062 119.16 230.794C118.887 230.522 118.483 230.385 117.949 230.385C117.482 230.385 117.091 230.503 116.775 230.738C116.458 230.974 116.301 231.258 116.301 231.592H114.984C114.984 231.211 115.118 230.844 115.387 230.491C115.661 230.134 116.029 229.852 116.491 229.644C116.958 229.438 117.471 229.334 118.028 229.334C118.91 229.334 119.601 229.555 120.102 229.997C120.603 230.435 120.862 231.039 120.88 231.811V235.324C120.88 236.025 120.97 236.582 121.149 236.996V237.109H119.776ZM117.603 236.115C118.014 236.115 118.403 236.008 118.771 235.797C119.139 235.585 119.405 235.31 119.571 234.971V233.405H118.545C116.94 233.405 116.137 233.873 116.137 234.809C116.137 235.218 116.275 235.538 116.548 235.769C116.822 235.999 117.174 236.115 117.603 236.115ZM122.615 233.229C122.615 232.057 122.893 231.116 123.451 230.406C124.008 229.692 124.737 229.334 125.638 229.334C126.534 229.334 127.245 229.64 127.769 230.251V226.271H129.079V237.109H127.875L127.811 236.291C127.287 236.93 126.558 237.25 125.624 237.25C124.737 237.25 124.012 236.888 123.451 236.163C122.893 235.44 122.615 234.494 122.615 233.327V233.229ZM123.925 233.376C123.925 234.242 124.104 234.919 124.462 235.409C124.822 235.898 125.317 236.142 125.949 236.142C126.78 236.142 127.387 235.771 127.769 235.028V231.521C127.377 230.801 126.776 230.442 125.964 230.442C125.322 230.442 124.822 230.689 124.462 231.182C124.104 231.677 123.925 232.407 123.925 233.376ZM130.799 233.229C130.799 232.057 131.078 231.116 131.634 230.406C132.191 229.692 132.92 229.334 133.822 229.334C134.718 229.334 135.428 229.64 135.952 230.251V226.271H137.262V237.109H136.059L135.995 236.291C135.471 236.93 134.742 237.25 133.807 237.25C132.92 237.25 132.196 236.888 131.634 236.163C131.078 235.44 130.799 234.494 130.799 233.327V233.229ZM132.108 233.376C132.108 234.242 132.287 234.919 132.647 235.409C133.005 235.898 133.501 236.142 134.133 236.142C134.963 236.142 135.57 235.771 135.952 235.028V231.521C135.561 230.801 134.959 230.442 134.147 230.442C133.505 230.442 133.005 230.689 132.647 231.182C132.287 231.677 132.108 232.407 132.108 233.376ZM142.48 237.25C141.441 237.25 140.597 236.911 139.945 236.234C139.294 235.552 138.968 234.642 138.968 233.503V233.264C138.968 232.506 139.112 231.831 139.4 231.239C139.693 230.641 140.099 230.176 140.618 229.842C141.142 229.503 141.708 229.334 142.317 229.334C143.312 229.334 144.087 229.661 144.639 230.314C145.191 230.969 145.467 231.905 145.467 233.123V233.666H140.278C140.296 234.419 140.516 235.028 140.936 235.493C141.361 235.955 141.899 236.185 142.55 236.185C143.013 236.185 143.404 236.091 143.725 235.903C144.046 235.714 144.327 235.465 144.568 235.155L145.368 235.775C144.726 236.759 143.764 237.25 142.48 237.25ZM142.317 230.406C141.788 230.406 141.344 230.599 140.986 230.985C140.627 231.366 140.405 231.903 140.32 232.593H144.157V232.495C144.12 231.831 143.94 231.318 143.62 230.957C143.299 230.59 142.864 230.406 142.317 230.406ZM146.671 233.229C146.671 232.057 146.949 231.116 147.505 230.406C148.062 229.692 148.791 229.334 149.693 229.334C150.59 229.334 151.301 229.64 151.824 230.251V226.271H153.134V237.109H151.93L151.866 236.291C151.343 236.93 150.613 237.25 149.679 237.25C148.791 237.25 148.068 236.888 147.505 236.163C146.949 235.44 146.671 234.494 146.671 233.327V233.229ZM147.98 233.376C147.98 234.242 148.16 234.919 148.518 235.409C148.876 235.898 149.372 236.142 150.005 236.142C150.836 236.142 151.442 235.771 151.824 235.028V231.521C151.432 230.801 150.831 230.442 150.019 230.442C149.377 230.442 148.876 230.689 148.518 231.182C148.16 231.677 147.98 232.407 147.98 233.376Z" fill="white"/>
<path d="M108.389 266.429H109.373C109.991 266.42 110.478 266.257 110.831 265.942C111.185 265.627 111.362 265.201 111.362 264.665C111.362 263.461 110.76 262.859 109.557 262.859C108.991 262.859 108.538 263.021 108.197 263.345C107.863 263.665 107.695 264.091 107.695 264.623H106.385C106.385 263.809 106.683 263.134 107.278 262.598C107.877 262.057 108.636 261.787 109.557 261.787C110.53 261.787 111.292 262.043 111.844 262.556C112.396 263.069 112.672 263.781 112.672 264.693C112.672 265.14 112.525 265.572 112.233 265.991C111.945 266.409 111.551 266.723 111.05 266.93C111.617 267.108 112.054 267.404 112.36 267.818C112.672 268.232 112.828 268.738 112.828 269.336C112.828 270.257 112.525 270.989 111.921 271.53C111.318 272.071 110.532 272.341 109.564 272.341C108.597 272.341 107.808 272.08 107.2 271.558C106.595 271.036 106.294 270.347 106.294 269.49H107.61C107.61 270.032 107.787 270.465 108.141 270.789C108.496 271.114 108.97 271.276 109.564 271.276C110.196 271.276 110.681 271.111 111.015 270.781C111.351 270.452 111.517 269.98 111.517 269.363C111.517 268.767 111.334 268.308 110.966 267.988C110.598 267.669 110.067 267.504 109.373 267.494H108.389V266.429ZM119.588 264.566L119.624 265.413C120.185 264.754 120.942 264.425 121.896 264.425C122.967 264.425 123.697 264.835 124.083 265.653C124.338 265.286 124.668 264.989 125.074 264.763C125.486 264.538 125.969 264.425 126.526 264.425C128.206 264.425 129.06 265.311 129.088 267.085V272.2H127.779V267.163C127.779 266.617 127.654 266.21 127.403 265.942C127.154 265.67 126.733 265.533 126.144 265.533C125.657 265.533 125.254 265.679 124.934 265.97C124.613 266.257 124.426 266.645 124.374 267.134V272.2H123.057V267.198C123.057 266.087 122.512 265.533 121.422 265.533C120.563 265.533 119.975 265.898 119.659 266.626V272.2H118.349V264.566H119.588ZM132.493 272.2H131.184V261.363H132.493V272.2Z" fill="white"/>
<path d="M99.0322 302.91C99.0322 304.438 98.7703 305.575 98.2464 306.318C97.7226 307.061 96.9037 307.432 95.7899 307.432C94.6902 307.432 93.8762 307.07 93.3476 306.346C92.819 305.617 92.5452 304.53 92.5264 303.086V301.344C92.5264 299.834 92.7883 298.712 93.3122 297.978C93.8361 297.244 94.6572 296.878 95.7757 296.878C96.8849 296.878 97.7013 297.233 98.2251 297.943C98.749 298.648 99.0181 299.74 99.0322 301.217V302.91ZM97.7226 301.125C97.7226 300.02 97.5668 299.216 97.2553 298.712C96.9438 298.204 96.4506 297.95 95.7757 297.95C95.1056 297.95 94.6171 298.202 94.3104 298.705C94.0035 299.209 93.8455 299.982 93.8361 301.026V303.115C93.8361 304.225 93.9965 305.045 94.3174 305.577C94.6431 306.104 95.1339 306.367 95.7899 306.367C96.4364 306.367 96.9155 306.117 97.227 305.619C97.5432 305.12 97.7084 304.335 97.7226 303.263V301.125ZM105.673 299.657L105.708 300.504C106.269 299.845 107.027 299.516 107.98 299.516C109.052 299.516 109.781 299.926 110.168 300.744C110.423 300.377 110.753 300.081 111.159 299.855C111.569 299.63 112.053 299.516 112.61 299.516C114.291 299.516 115.144 300.403 115.173 302.176V307.291H113.863V302.254C113.863 301.708 113.738 301.302 113.488 301.033C113.238 300.761 112.818 300.625 112.228 300.625C111.742 300.625 111.338 300.77 111.017 301.061C110.696 301.348 110.51 301.736 110.458 302.225V307.291H109.142V302.289C109.142 301.179 108.596 300.625 107.506 300.625C106.647 300.625 106.06 300.989 105.743 301.718V307.291H104.434V299.657H105.673ZM118.578 307.291H117.268V296.454H118.578V307.291Z" fill="#FF9A1F"/>
<path d="M137.149 296.445L144.297 308.754H130.001L137.149 296.445ZM137.149 292.67L126.706 310.646H147.591L137.149 292.67ZM138.098 305.915H136.2V307.808H138.098V305.915ZM138.098 300.239H136.2V304.023H138.098V300.239Z" fill="#FF9A1F"/>
<path d="M121.772 338.552H118.317V337.486H121.772V338.552Z" fill="white"/>
<path d="M121.772 373.644H118.317V372.578H121.772V373.644Z" fill="white"/>
<mask id="mask1_770_3632" style="mask-type:luminance" maskUnits="userSpaceOnUse" x="48" y="15" width="14" height="14">
<path d="M61.4077 15.4224H48.084V28.7011H61.4077V15.4224Z" fill="white"/>
</mask>
<g mask="url(#mask1_770_3632)">
<path d="M54.7462 18.7369L58.9265 25.9351H50.5658L54.7462 18.7369ZM54.7462 16.5293L48.6394 27.0416H60.8529L54.7462 16.5293ZM55.3013 24.2752H54.191V25.3817H55.3013V24.2752ZM55.3013 20.9555H54.191V23.1686H55.3013V20.9555Z" fill="#FF9A1F"/>
</g>
<path d="M113.655 10.821H47.3751C45.3733 10.821 43.7505 12.4383 43.7505 14.4334V196.16C43.7505 198.155 45.3733 199.772 47.3751 199.772H113.655C115.657 199.772 117.279 198.155 117.279 196.16V14.4334C117.279 12.4383 115.657 10.821 113.655 10.821Z" stroke="#FF9A1F"/>
<path d="M145.498 0.5H15.5305C7.23733 0.5 0.514404 7.20025 0.514404 15.4654V375.535C0.514404 383.8 7.23733 390.5 15.5305 390.5H145.498C153.791 390.5 160.514 383.8 160.514 375.535V15.4654C160.514 7.20025 153.791 0.5 145.498 0.5Z" fill="url(#paint9_linear_770_3632)" fill-opacity="0.05" stroke="url(#paint10_linear_770_3632)" stroke-opacity="0.05"/>
<defs>
<filter id="filter0_iiii_770_3632" x="68.8933" y="156.462" width="26.3918" height="146.826" filterUnits="userSpaceOnUse" color-interpolation-filters="sRGB">
<feFlood flood-opacity="0" result="BackgroundImageFix"/>
<feBlend mode="normal" in="SourceGraphic" in2="BackgroundImageFix" result="shape"/>
<feColorMatrix in="SourceAlpha" type="matrix" values="0 0 0 0 0 0 0 0 0 0 0 0 0 0 0 0 0 0 127 0" result="hardAlpha"/>
<feOffset dx="3.01977"/>
<feGaussianBlur stdDeviation="2.51648"/>
<feComposite in2="hardAlpha" operator="arithmetic" k2="-1" k3="1"/>
<feColorMatrix type="matrix" values="0 0 0 0 1 0 0 0 0 1 0 0 0 0 1 0 0 0 0.1 0"/>
<feBlend mode="normal" in2="shape" result="effect1_innerShadow_770_3632"/>
<feColorMatrix in="SourceAlpha" type="matrix" values="0 0 0 0 0 0 0 0 0 0 0 0 0 0 0 0 0 0 127 0" result="hardAlpha"/>
<feOffset dx="1.00659"/>
<feGaussianBlur stdDeviation="0.503296"/>
<feComposite in2="hardAlpha" operator="arithmetic" k2="-1" k3="1"/>
<feColorMatrix type="matrix" values="0 0 0 0 1 0 0 0 0 1 0 0 0 0 1 0 0 0 0.2 0"/>
<feBlend mode="normal" in2="effect1_innerShadow_770_3632" result="effect2_innerShadow_770_3632"/>
<feColorMatrix in="SourceAlpha" type="matrix" values="0 0 0 0 0 0 0 0 0 0 0 0 0 0 0 0 0 0 127 0" result="hardAlpha"/>
<feOffset dx="-1.00659"/>
<feGaussianBlur stdDeviation="0.503296"/>
<feComposite in2="hardAlpha" operator="arithmetic" k2="-1" k3="1"/>
<feColorMatrix type="matrix" values="0 0 0 0 1 0 0 0 0 1 0 0 0 0 1 0 0 0 0.2 0"/>
<feBlend mode="normal" in2="effect2_innerShadow_770_3632" result="effect3_innerShadow_770_3632"/>
<feColorMatrix in="SourceAlpha" type="matrix" values="0 0 0 0 0 0 0 0 0 0 0 0 0 0 0 0 0 0 127 0" result="hardAlpha"/>
<feOffset dx="-1.00659"/>
<feGaussianBlur stdDeviation="4.52966"/>
<feComposite in2="hardAlpha" operator="arithmetic" k2="-1" k3="1"/>
<feColorMatrix type="matrix" values="0 0 0 0 1 0 0 0 0 1 0 0 0 0 1 0 0 0 0.2 0"/>
<feBlend mode="normal" in2="effect3_innerShadow_770_3632" result="effect4_innerShadow_770_3632"/>
</filter>
<filter id="filter1_iiii_770_3632" x="68.3252" y="25.5278" width="26.3918" height="152.751" filterUnits="userSpaceOnUse" color-interpolation-filters="sRGB">
<feFlood flood-opacity="0" result="BackgroundImageFix"/>
<feBlend mode="normal" in="SourceGraphic" in2="BackgroundImageFix" result="shape"/>
<feColorMatrix in="SourceAlpha" type="matrix" values="0 0 0 0 0 0 0 0 0 0 0 0 0 0 0 0 0 0 127 0" result="hardAlpha"/>
<feOffset dx="3.01977"/>
<feGaussianBlur stdDeviation="2.51648"/>
<feComposite in2="hardAlpha" operator="arithmetic" k2="-1" k3="1"/>
<feColorMatrix type="matrix" values="0 0 0 0 1 0 0 0 0 1 0 0 0 0 1 0 0 0 0.1 0"/>
<feBlend mode="normal" in2="shape" result="effect1_innerShadow_770_3632"/>
<feColorMatrix in="SourceAlpha" type="matrix" values="0 0 0 0 0 0 0 0 0 0 0 0 0 0 0 0 0 0 127 0" result="hardAlpha"/>
<feOffset dx="1.00659"/>
<feGaussianBlur stdDeviation="0.503296"/>
<feComposite in2="hardAlpha" operator="arithmetic" k2="-1" k3="1"/>
<feColorMatrix type="matrix" values="0 0 0 0 1 0 0 0 0 1 0 0 0 0 1 0 0 0 0.2 0"/>
<feBlend mode="normal" in2="effect1_innerShadow_770_3632" result="effect2_innerShadow_770_3632"/>
<feColorMatrix in="SourceAlpha" type="matrix" values="0 0 0 0 0 0 0 0 0 0 0 0 0 0 0 0 0 0 127 0" result="hardAlpha"/>
<feOffset dx="-1.00659"/>
<feGaussianBlur stdDeviation="0.503296"/>
<feComposite in2="hardAlpha" operator="arithmetic" k2="-1" k3="1"/>
<feColorMatrix type="matrix" values="0 0 0 0 1 0 0 0 0 1 0 0 0 0 1 0 0 0 0.2 0"/>
<feBlend mode="normal" in2="effect2_innerShadow_770_3632" result="effect3_innerShadow_770_3632"/>
<feColorMatrix in="SourceAlpha" type="matrix" values="0 0 0 0 0 0 0 0 0 0 0 0 0 0 0 0 0 0 127 0" result="hardAlpha"/>
<feOffset dx="-1.00659"/>
<feGaussianBlur stdDeviation="4.52966"/>
<feComposite in2="hardAlpha" operator="arithmetic" k2="-1" k3="1"/>
<feColorMatrix type="matrix" values="0 0 0 0 1 0 0 0 0 1 0 0 0 0 1 0 0 0 0.2 0"/>
<feBlend mode="normal" in2="effect3_innerShadow_770_3632" result="effect4_innerShadow_770_3632"/>
</filter>
<filter id="filter2_ii_770_3632" x="69.3318" y="20.626" width="25.385" height="9.80396" filterUnits="userSpaceOnUse" color-interpolation-filters="sRGB">
<feFlood flood-opacity="0" result="BackgroundImageFix"/>
<feBlend mode="normal" in="SourceGraphic" in2="BackgroundImageFix" result="shape"/>
<feColorMatrix in="SourceAlpha" type="matrix" values="0 0 0 0 0 0 0 0 0 0 0 0 0 0 0 0 0 0 127 0" result="hardAlpha"/>
<feOffset dx="3.01977"/>
<feGaussianBlur stdDeviation="2.51648"/>
<feComposite in2="hardAlpha" operator="arithmetic" k2="-1" k3="1"/>
<feColorMatrix type="matrix" values="0 0 0 0 1 0 0 0 0 1 0 0 0 0 1 0 0 0 0.1 0"/>
<feBlend mode="normal" in2="shape" result="effect1_innerShadow_770_3632"/>
<feColorMatrix in="SourceAlpha" type="matrix" values="0 0 0 0 0 0 0 0 0 0 0 0 0 0 0 0 0 0 127 0" result="hardAlpha"/>
<feOffset dx="1.00659"/>
<feGaussianBlur stdDeviation="0.503296"/>
<feComposite in2="hardAlpha" operator="arithmetic" k2="-1" k3="1"/>
<feColorMatrix type="matrix" values="0 0 0 0 1 0 0 0 0 1 0 0 0 0 1 0 0 0 0.2 0"/>
<feBlend mode="normal" in2="effect1_innerShadow_770_3632" result="effect2_innerShadow_770_3632"/>
</filter>
<filter id="filter3_ii_770_3632" x="68.3074" y="20.6421" width="27.4338" height="11.8491" filterUnits="userSpaceOnUse" color-interpolation-filters="sRGB">
<feFlood flood-opacity="0" result="BackgroundImageFix"/>
<feBlend mode="normal" in="SourceGraphic" in2="BackgroundImageFix" result="shape"/>
<feColorMatrix in="SourceAlpha" type="matrix" values="0 0 0 0 0 0 0 0 0 0 0 0 0 0 0 0 0 0 127 0" result="hardAlpha"/>
<feOffset dx="3.01977"/>
<feGaussianBlur stdDeviation="2.51648"/>
<feComposite in2="hardAlpha" operator="arithmetic" k2="-1" k3="1"/>
<feColorMatrix type="matrix" values="0 0 0 0 1 0 0 0 0 1 0 0 0 0 1 0 0 0 0.1 0"/>
<feBlend mode="normal" in2="shape" result="effect1_innerShadow_770_3632"/>
<feColorMatrix in="SourceAlpha" type="matrix" values="0 0 0 0 0 0 0 0 0 0 0 0 0 0 0 0 0 0 127 0" result="hardAlpha"/>
<feOffset dx="1.00659"/>
<feGaussianBlur stdDeviation="0.503296"/>
<feComposite in2="hardAlpha" operator="arithmetic" k2="-1" k3="1"/>
<feColorMatrix type="matrix" values="0 0 0 0 1 0 0 0 0 1 0 0 0 0 1 0 0 0 0.2 0"/>
<feBlend mode="normal" in2="effect1_innerShadow_770_3632" result="effect2_innerShadow_770_3632"/>
</filter>
<filter id="filter4_ii_770_3632" x="68.3074" y="19.603" width="27.4338" height="11.8494" filterUnits="userSpaceOnUse" color-interpolation-filters="sRGB">
<feFlood flood-opacity="0" result="BackgroundImageFix"/>
<feBlend mode="normal" in="SourceGraphic" in2="BackgroundImageFix" result="shape"/>
<feColorMatrix in="SourceAlpha" type="matrix" values="0 0 0 0 0 0 0 0 0 0 0 0 0 0 0 0 0 0 127 0" result="hardAlpha"/>
<feOffset dx="3.01977"/>
<feGaussianBlur stdDeviation="2.51648"/>
<feComposite in2="hardAlpha" operator="arithmetic" k2="-1" k3="1"/>
<feColorMatrix type="matrix" values="0 0 0 0 1 0 0 0 0 1 0 0 0 0 1 0 0 0 0.1 0"/>
<feBlend mode="normal" in2="shape" result="effect1_innerShadow_770_3632"/>
<feColorMatrix in="SourceAlpha" type="matrix" values="0 0 0 0 0 0 0 0 0 0 0 0 0 0 0 0 0 0 127 0" result="hardAlpha"/>
<feOffset dx="1.00659"/>
<feGaussianBlur stdDeviation="0.503296"/>
<feComposite in2="hardAlpha" operator="arithmetic" k2="-1" k3="1"/>
<feColorMatrix type="matrix" values="0 0 0 0 1 0 0 0 0 1 0 0 0 0 1 0 0 0 0.2 0"/>
<feBlend mode="normal" in2="effect1_innerShadow_770_3632" result="effect2_innerShadow_770_3632"/>
</filter>
<filter id="filter5_f_770_3632" x="72.6077" y="50.3892" width="11.6352" height="64.2803" filterUnits="userSpaceOnUse" color-interpolation-filters="sRGB">
<feFlood flood-opacity="0" result="BackgroundImageFix"/>
<feBlend mode="normal" in="SourceGraphic" in2="BackgroundImageFix" result="shape"/>
<feGaussianBlur stdDeviation="2.01318" result="effect1_foregroundBlur_770_3632"/>
</filter>
<filter id="filter6_f_770_3632" x="78.7649" y="100.962" width="11.6352" height="64.2803" filterUnits="userSpaceOnUse" color-interpolation-filters="sRGB">
<feFlood flood-opacity="0" result="BackgroundImageFix"/>
<feBlend mode="normal" in="SourceGraphic" in2="BackgroundImageFix" result="shape"/>
<feGaussianBlur stdDeviation="2.01318" result="effect1_foregroundBlur_770_3632"/>
</filter>
<filter id="filter7_f_770_3632" x="77.4802" y="36.4822" width="14.7112" height="64.2803" filterUnits="userSpaceOnUse" color-interpolation-filters="sRGB">
<feFlood flood-opacity="0" result="BackgroundImageFix"/>
<feBlend mode="normal" in="SourceGraphic" in2="BackgroundImageFix" result="shape"/>
<feGaussianBlur stdDeviation="2.01318" result="effect1_foregroundBlur_770_3632"/>
</filter>
<filter id="filter8_f_770_3632" x="70.8164" y="107.814" width="16.0015" height="64.2803" filterUnits="userSpaceOnUse" color-interpolation-filters="sRGB">
<feFlood flood-opacity="0" result="BackgroundImageFix"/>
<feBlend mode="normal" in="SourceGraphic" in2="BackgroundImageFix" result="shape"/>
<feGaussianBlur stdDeviation="2.01318" result="effect1_foregroundBlur_770_3632"/>
</filter>
<filter id="filter9_d_770_3632" x="69.1907" y="79.8403" width="22.5403" height="16.3242" filterUnits="userSpaceOnUse" color-interpolation-filters="sRGB">
<feFlood flood-opacity="0" result="BackgroundImageFix"/>
<feColorMatrix in="SourceAlpha" type="matrix" values="0 0 0 0 0 0 0 0 0 0 0 0 0 0 0 0 0 0 127 0" result="hardAlpha"/>
<feOffset dy="3.01977"/>
<feGaussianBlur stdDeviation="2.01318"/>
<feColorMatrix type="matrix" values="0 0 0 0 0 0 0 0 0 0 0 0 0 0 0 0 0 0 0.25 0"/>
<feBlend mode="normal" in2="BackgroundImageFix" result="effect1_dropShadow_770_3632"/>
<feBlend mode="normal" in="SourceGraphic" in2="effect1_dropShadow_770_3632" result="shape"/>
</filter>
<linearGradient id="paint0_linear_770_3632" x1="81.5567" y1="15.8695" x2="81.5567" y2="32.9109" gradientUnits="userSpaceOnUse">
<stop stop-color="white" stop-opacity="0"/>
<stop offset="0.203125" stop-opacity="0.24"/>
<stop offset="0.479167" stop-color="white" stop-opacity="0.0738462"/>
<stop offset="1" stop-color="white" stop-opacity="0"/>
</linearGradient>
<linearGradient id="paint1_linear_770_3632" x1="81.5567" y1="16.9085" x2="81.5567" y2="33.4126" gradientUnits="userSpaceOnUse">
<stop offset="0.575463" stop-opacity="0.24"/>
<stop offset="1" stop-color="white" stop-opacity="0"/>
</linearGradient>
<linearGradient id="paint2_linear_770_3632" x1="81.5567" y1="15.8695" x2="81.5567" y2="32.9109" gradientUnits="userSpaceOnUse">
<stop stop-color="white" stop-opacity="0"/>
<stop offset="0.203125" stop-opacity="0.24"/>
<stop offset="0.479167" stop-color="white" stop-opacity="0.0738462"/>
<stop offset="1" stop-color="white" stop-opacity="0"/>
</linearGradient>
<linearGradient id="paint3_linear_770_3632" x1="89.5178" y1="54.4155" x2="89.5178" y2="169.398" gradientUnits="userSpaceOnUse">
<stop stop-color="white"/>
<stop offset="1" stop-color="white" stop-opacity="0"/>
</linearGradient>
<linearGradient id="paint4_linear_770_3632" x1="71.715" y1="54.4155" x2="71.715" y2="131.098" gradientUnits="userSpaceOnUse">
<stop stop-color="white" stop-opacity="0"/>
<stop offset="0.494792" stop-color="white"/>
<stop offset="1" stop-color="white" stop-opacity="0"/>
</linearGradient>
<linearGradient id="paint5_linear_770_3632" x1="78.4253" y1="54.4155" x2="78.4253" y2="110.643" gradientUnits="userSpaceOnUse">
<stop stop-color="white" stop-opacity="0"/>
<stop offset="0.494792" stop-color="white"/>
<stop offset="1" stop-color="white" stop-opacity="0"/>
</linearGradient>
<linearGradient id="paint6_linear_770_3632" x1="84.5825" y1="104.989" x2="84.5825" y2="161.216" gradientUnits="userSpaceOnUse">
<stop stop-color="white" stop-opacity="0"/>
<stop offset="0.494792" stop-color="white"/>
<stop offset="1" stop-color="white" stop-opacity="0"/>
</linearGradient>
<linearGradient id="paint7_linear_770_3632" x1="84.8359" y1="40.5085" x2="84.8359" y2="96.736" gradientUnits="userSpaceOnUse">
<stop stop-color="white" stop-opacity="0"/>
<stop offset="0.494792" stop-color="white"/>
<stop offset="1" stop-color="white" stop-opacity="0"/>
</linearGradient>
<linearGradient id="paint8_linear_770_3632" x1="78.8171" y1="111.841" x2="78.8171" y2="168.068" gradientUnits="userSpaceOnUse">
<stop stop-color="white" stop-opacity="0"/>
<stop offset="0.494792" stop-color="white"/>
<stop offset="1" stop-color="white" stop-opacity="0"/>
</linearGradient>
<linearGradient id="paint9_linear_770_3632" x1="80.5139" y1="0.5" x2="80.5139" y2="390.5" gradientUnits="userSpaceOnUse">
<stop stop-color="white" stop-opacity="0"/>
<stop offset="1" stop-color="white"/>
</linearGradient>
<linearGradient id="paint10_linear_770_3632" x1="80.5139" y1="-0.0160491" x2="80.5139" y2="391.016" gradientUnits="userSpaceOnUse">
<stop stop-color="white"/>
<stop offset="1" stop-color="white" stop-opacity="0"/>
</linearGradient>
</defs>
</svg>
