<svg width="1080" height="219" viewBox="0 0 1080 219" fill="none" xmlns="http://www.w3.org/2000/svg">
<path d="M116.3 39.3V55.6H119.1V39.3H116.3ZM116.3 25.8V28.6H119.1V25.8H116.3ZM116.3 39.3V55.6H119.1V39.3H116.3ZM116.3 25.8V28.6H119.1V25.8H116.3ZM116.3 39.3V55.6H119.1V39.3H116.3ZM116.3 25.8V28.6H119.1V25.8H116.3ZM116.3 25.8V28.6H119.1V25.8H116.3ZM116.3 39.3V55.6H119.1V39.3H116.3ZM116.3 55.6H119.1V39.3H116.3V55.6ZM116.3 25.8V28.6H119.1V25.8H116.3ZM117.7 9C100.2 9 86 23.2 86 40.7C86 58.2 100.2 72.4 117.7 72.4C135.2 72.4 149.4 58.2 149.4 40.7C149.4 23.2 135.2 9 117.7 9ZM117.7 69.6C101.8 69.6 88.8 56.6 88.8 40.7C88.8 24.8 101.8 11.8 117.7 11.8C133.7 11.8 146.6 24.8 146.6 40.7C146.6 56.7 133.7 69.6 117.7 69.6ZM116.3 55.6H119.1V39.3H116.3V55.6ZM116.3 28.7H119.1V25.9H116.3V28.7ZM116.3 25.8V28.6H119.1V25.8H116.3ZM116.3 39.3V55.6H119.1V39.3H116.3ZM116.3 39.3V55.6H119.1V39.3H116.3ZM116.3 25.8V28.6H119.1V25.8H116.3ZM116.3 39.3V55.6H119.1V39.3H116.3ZM116.3 25.8V28.6H119.1V25.8H116.3ZM116.3 39.3V55.6H119.1V39.3H116.3ZM116.3 25.8V28.6H119.1V25.8H116.3ZM116.3 39.3V55.6H119.1V39.3H116.3ZM116.3 25.8V28.6H119.1V25.8H116.3Z" fill="white"/>
<path d="M13.9175 131.287H15.7186C15.3266 129.02 13.3891 127.452 10.8777 127.452C7.86636 127.452 5.66749 129.719 5.66749 133.435C5.66749 137.117 7.80386 139.407 10.9573 139.407C13.7811 139.407 15.7982 137.554 15.7982 134.617V133.293H11.2243V134.742H14.0993C14.0595 136.617 12.8209 137.804 10.9573 137.804C8.90613 137.804 7.41181 136.253 7.41181 133.424C7.41181 130.606 8.91749 129.054 10.8891 129.054C12.4345 129.054 13.48 129.907 13.9175 131.287ZM21.6519 139.424C23.5553 139.424 24.9019 138.486 25.2882 137.066L23.6803 136.776C23.3735 137.6 22.6348 138.02 21.6689 138.02C20.2144 138.02 19.2371 137.077 19.1916 135.395H25.3962V134.793C25.3962 131.64 23.5098 130.407 21.5325 130.407C19.1007 130.407 17.4985 132.259 17.4985 134.941C17.4985 137.651 19.078 139.424 21.6519 139.424ZM19.1973 134.123C19.2655 132.884 20.1632 131.81 21.5439 131.81C22.8621 131.81 23.7257 132.787 23.7314 134.123H19.1973ZM31.355 130.52H29.5652V128.429H27.8664V130.52H26.5879V131.884H27.8664V137.037C27.8607 138.623 29.0709 139.39 30.4118 139.361C30.9516 139.356 31.3152 139.253 31.5141 139.179L31.2073 137.776C31.0936 137.799 30.8834 137.85 30.6107 137.85C30.0595 137.85 29.5652 137.668 29.5652 136.685V131.884H31.355V130.52ZM41.622 130.52H39.7414V129.736C39.7414 128.963 40.0595 128.543 40.8891 128.543C41.2414 128.543 41.4914 128.623 41.6504 128.674L42.0482 127.299C41.8095 127.208 41.3152 127.066 40.6277 127.066C39.247 127.066 38.0368 127.873 38.0368 129.509V130.52H36.6902V131.884H38.0368V139.248H39.7414V131.884H41.622V130.52ZM45.649 139.441C47.0922 139.441 47.9047 138.708 48.2286 138.054H48.2968V139.248H49.9558V133.452C49.9558 130.912 47.9558 130.407 46.5695 130.407C44.9899 130.407 43.5354 131.043 42.9672 132.634L44.5638 132.998C44.8138 132.378 45.4502 131.782 46.5922 131.782C47.6888 131.782 48.2513 132.356 48.2513 133.344V133.384C48.2513 134.003 47.6149 133.992 46.0468 134.174C44.3933 134.367 42.7002 134.799 42.7002 136.782C42.7002 138.498 43.9899 139.441 45.649 139.441ZM46.0183 138.077C45.0581 138.077 44.3649 137.645 44.3649 136.804C44.3649 135.895 45.1718 135.571 46.1547 135.441C46.7058 135.367 48.0127 135.219 48.257 134.975V136.1C48.257 137.134 47.4331 138.077 46.0183 138.077ZM52.2186 139.248H53.9175V133.867C53.9175 132.691 54.7414 131.873 55.7073 131.873C56.6504 131.873 57.3039 132.498 57.3039 133.446V139.248H58.997V133.685C58.997 132.634 59.6391 131.873 60.747 131.873C61.6448 131.873 62.3834 132.373 62.3834 133.554V139.248H64.0823V133.395C64.0823 131.401 62.9686 130.407 61.3891 130.407C60.1334 130.407 59.1902 131.009 58.7698 131.941H58.6789C58.2982 130.986 57.497 130.407 56.3323 130.407C55.1789 130.407 54.3209 130.981 53.9573 131.941H53.8493V130.52H52.2186V139.248ZM66.3593 139.248H68.0581V130.52H66.3593V139.248ZM67.2172 129.174C67.8024 129.174 68.2911 128.719 68.2911 128.162C68.2911 127.606 67.8024 127.145 67.2172 127.145C66.6263 127.145 66.1433 127.606 66.1433 128.162C66.1433 128.719 66.6263 129.174 67.2172 129.174ZM72.0425 127.611H70.3436V139.248H72.0425V127.611ZM78.0894 139.424C79.9928 139.424 81.3394 138.486 81.7257 137.066L80.1178 136.776C79.811 137.6 79.0723 138.02 78.1064 138.02C76.6519 138.02 75.6746 137.077 75.6291 135.395H81.8337V134.793C81.8337 131.64 79.9473 130.407 77.97 130.407C75.5382 130.407 73.936 132.259 73.936 134.941C73.936 137.651 75.5155 139.424 78.0894 139.424ZM75.6348 134.123C75.703 132.884 76.6007 131.81 77.9814 131.81C79.2996 131.81 80.1632 132.787 80.1689 134.123H75.6348ZM86.2584 139.441C87.7016 139.441 88.5141 138.708 88.8379 138.054H88.9061V139.248H90.5652V133.452C90.5652 130.912 88.5652 130.407 87.1789 130.407C85.5993 130.407 84.1448 131.043 83.5766 132.634L85.1732 132.998C85.4232 132.378 86.0595 131.782 87.2016 131.782C88.2982 131.782 88.8607 132.356 88.8607 133.344V133.384C88.8607 134.003 88.2243 133.992 86.6561 134.174C85.0027 134.367 83.3095 134.799 83.3095 136.782C83.3095 138.498 84.5993 139.441 86.2584 139.441ZM86.6277 138.077C85.6675 138.077 84.9743 137.645 84.9743 136.804C84.9743 135.895 85.7811 135.571 86.7641 135.441C87.3152 135.367 88.622 135.219 88.8664 134.975V136.1C88.8664 137.134 88.0425 138.077 86.6277 138.077ZM92.828 139.248H94.5269V133.918C94.5269 132.776 95.4075 131.952 96.6121 131.952C96.9644 131.952 97.3621 132.015 97.4985 132.054V130.429C97.328 130.407 96.9928 130.39 96.7769 130.39C95.7541 130.39 94.8791 130.969 94.561 131.907H94.47V130.52H92.828V139.248ZM105.095 139.248H106.822L108.595 132.946H108.726L110.498 139.248H112.231L114.794 130.52H113.038L111.339 136.901H111.254L109.55 130.52H107.794L106.078 136.929H105.993L104.283 130.52H102.527L105.095 139.248ZM116.406 139.248H118.105V130.52H116.406V139.248ZM117.264 129.174C117.849 129.174 118.338 128.719 118.338 128.162C118.338 127.606 117.849 127.145 117.264 127.145C116.673 127.145 116.19 127.606 116.19 128.162C116.19 128.719 116.673 129.174 117.264 129.174ZM124.464 130.52H122.675V128.429H120.976V130.52H119.697V131.884H120.976V137.037C120.97 138.623 122.18 139.39 123.521 139.361C124.061 139.356 124.425 139.253 124.623 139.179L124.317 137.776C124.203 137.799 123.993 137.85 123.72 137.85C123.169 137.85 122.675 137.668 122.675 136.685V131.884H124.464V130.52ZM128.23 134.066C128.23 132.674 129.111 131.878 130.321 131.878C131.491 131.878 132.19 132.623 132.19 133.901V139.248H133.889V133.696C133.889 131.52 132.696 130.407 130.9 130.407C129.542 130.407 128.724 130.998 128.315 131.941H128.207V127.611H126.531V139.248H128.23V134.066ZM144.464 130.52H142.675V128.429H140.976V130.52H139.697V131.884H140.976V137.037C140.97 138.623 142.18 139.39 143.521 139.361C144.061 139.356 144.425 139.253 144.623 139.179L144.317 137.776C144.203 137.799 143.993 137.85 143.72 137.85C143.169 137.85 142.675 137.668 142.675 136.685V131.884H144.464V130.52ZM148.23 134.066C148.23 132.674 149.111 131.878 150.321 131.878C151.491 131.878 152.19 132.623 152.19 133.901V139.248H153.889V133.696C153.889 131.52 152.696 130.407 150.9 130.407C149.542 130.407 148.724 130.998 148.315 131.941H148.207V127.611H146.531V139.248H148.23V134.066ZM159.917 139.424C161.821 139.424 163.167 138.486 163.554 137.066L161.946 136.776C161.639 137.6 160.9 138.02 159.935 138.02C158.48 138.02 157.503 137.077 157.457 135.395H163.662V134.793C163.662 131.64 161.775 130.407 159.798 130.407C157.366 130.407 155.764 132.259 155.764 134.941C155.764 137.651 157.344 139.424 159.917 139.424ZM157.463 134.123C157.531 132.884 158.429 131.81 159.81 131.81C161.128 131.81 161.991 132.787 161.997 134.123H157.463ZM173.457 139.424C175.52 139.424 176.855 138.185 177.042 136.486H175.389C175.173 137.429 174.44 137.986 173.469 137.986C172.031 137.986 171.105 136.787 171.105 134.884C171.105 133.015 172.048 131.838 173.469 131.838C174.548 131.838 175.207 132.52 175.389 133.338H177.042C176.861 131.577 175.423 130.407 173.44 130.407C170.98 130.407 169.389 132.259 169.389 134.924C169.389 137.554 170.923 139.424 173.457 139.424ZM182.535 139.424C184.996 139.424 186.604 137.623 186.604 134.924C186.604 132.208 184.996 130.407 182.535 130.407C180.075 130.407 178.467 132.208 178.467 134.924C178.467 137.623 180.075 139.424 182.535 139.424ZM182.541 137.998C180.933 137.998 180.183 136.594 180.183 134.918C180.183 133.248 180.933 131.827 182.541 131.827C184.138 131.827 184.888 133.248 184.888 134.918C184.888 136.594 184.138 137.998 182.541 137.998ZM190.199 134.066C190.199 132.674 191.051 131.878 192.233 131.878C193.386 131.878 194.085 132.634 194.085 133.901V139.248H195.784V133.696C195.784 131.537 194.596 130.407 192.812 130.407C191.5 130.407 190.642 131.015 190.239 131.941H190.131V130.52H188.5V139.248H190.199V134.066ZM201.739 139.424C203.801 139.424 205.136 138.185 205.324 136.486H203.67C203.454 137.429 202.721 137.986 201.75 137.986C200.312 137.986 199.386 136.787 199.386 134.884C199.386 133.015 200.329 131.838 201.75 131.838C202.829 131.838 203.489 132.52 203.67 133.338H205.324C205.142 131.577 203.704 130.407 201.721 130.407C199.261 130.407 197.67 132.259 197.67 134.924C197.67 137.554 199.204 139.424 201.739 139.424ZM210.902 139.424C212.805 139.424 214.152 138.486 214.538 137.066L212.93 136.776C212.623 137.6 211.885 138.02 210.919 138.02C209.464 138.02 208.487 137.077 208.442 135.395H214.646V134.793C214.646 131.64 212.76 130.407 210.783 130.407C208.351 130.407 206.748 132.259 206.748 134.941C206.748 137.651 208.328 139.424 210.902 139.424ZM208.447 134.123C208.516 132.884 209.413 131.81 210.794 131.81C212.112 131.81 212.976 132.787 212.981 134.123H208.447ZM216.531 142.52H218.23V137.89H218.332C218.639 138.446 219.264 139.418 220.855 139.418C222.969 139.418 224.503 137.725 224.503 134.901C224.503 132.071 222.946 130.407 220.838 130.407C219.219 130.407 218.633 131.395 218.332 131.935H218.19V130.52H216.531V142.52ZM218.196 134.884C218.196 133.06 218.991 131.85 220.474 131.85C222.014 131.85 222.787 133.151 222.787 134.884C222.787 136.634 221.991 137.969 220.474 137.969C219.014 137.969 218.196 136.719 218.196 134.884ZM230.48 130.52H228.69V128.429H226.991V130.52H225.713V131.884H226.991V137.037C226.986 138.623 228.196 139.39 229.537 139.361C230.077 139.356 230.44 139.253 230.639 139.179L230.332 137.776C230.219 137.799 230.008 137.85 229.736 137.85C229.185 137.85 228.69 137.668 228.69 136.685V131.884H230.48V130.52Z" fill="#A1A1A6"/>
<path d="M263.245 49.8691L271.103 42.0105L263.245 34.1519L262.21 35.1693L268.314 41.2738H243.51V42.7473H268.314L262.21 48.8342L263.245 49.8691Z" fill="white"/>
<path d="M446 61.5C445.8 60.9 445.5 60.2999 444.5 58.2999C439.4 48.1999 426.8 24.6 426.8 24.6V6.99995L429.1 4.69995H410.2L412.5 6.99995V24.6C412.5 24.6 399.9 48.0999 394.9 58.2999C393.9 60.2999 393.6 60.9 393.4 61.5C392.5 64.2 392.6 67 393.7 69.5C394.4 71.1 395.8 72.9 396.9 73.7C398.1 74.5 399.5 75 401.3 75.2H401.4C401.5 75.2 401.6 75.2 401.8 75.2C402.1 75.2 402.5 75.2 403 75.2C404 75.2 405.5 75.2 407.2 75.2C410.6 75.2 415.2 75.2 419.7 75.2C424.2 75.2 428.8 75.2 432.2 75.2C433.9 75.2 435.4 75.2 436.4 75.2C436.9 75.2 437.3 75.2 437.6 75.2C437.8 75.2 437.9 75.2 438 75.2H438.1C439.9 75 441.3 74.5 442.5 73.7C443.6 72.9 445 71.2 445.7 69.5C446.8 67 446.9 64.3 446 61.5ZM443.4 68.5C442.9 69.8 441.8 71.1 441.1 71.6C440.2 72.2 439.2 72.5 437.9 72.7H437.6C437.3 72.7 436.9 72.7 436.4 72.7C435.4 72.7 433.9 72.7 432.2 72.7C428.8 72.7 424.2 72.7 419.7 72.7C415.2 72.7 410.6 72.7 407.2 72.7C405.5 72.7 404 72.7 403 72.7C402.5 72.7 402.1 72.7 401.8 72.7H401.5C400.2 72.5 399.2 72.2 398.3 71.6C397.6 71.2 396.5 69.7999 396 68.5999C395.2 66.5999 395.1 64.5 395.8 62.4C396 62 396.3 61.3 397.1 59.5C402.1 49.5 414.6 26.1 414.7 25.9L415 25.2999V7.19995H424.3V25.2999L424.6 25.9C424.7 26.1 437.2 49.5 442.2 59.5C443.1 61.3 443.4 61.9 443.5 62.4C444.3 64.5 444.2 66.6 443.4 68.5Z" fill="white"/>
<path d="M284.243 139.248H285.998V135.157H288.385C291.083 135.157 292.419 133.526 292.419 131.378C292.419 129.236 291.095 127.611 288.39 127.611H284.243V139.248ZM285.998 133.668V129.117H288.203C289.941 129.117 290.652 130.06 290.652 131.378C290.652 132.696 289.941 133.668 288.225 133.668H285.998ZM294.341 139.248H296.039V133.918C296.039 132.776 296.92 131.952 298.125 131.952C298.477 131.952 298.875 132.015 299.011 132.054V130.429C298.841 130.407 298.505 130.39 298.289 130.39C297.267 130.39 296.392 130.969 296.074 131.907H295.983V130.52H294.341V139.248ZM303.93 139.424C305.833 139.424 307.18 138.486 307.566 137.066L305.958 136.776C305.652 137.6 304.913 138.02 303.947 138.02C302.493 138.02 301.515 137.077 301.47 135.395H307.674V134.793C307.674 131.64 305.788 130.407 303.811 130.407C301.379 130.407 299.777 132.259 299.777 134.941C299.777 137.651 301.356 139.424 303.93 139.424ZM301.475 134.123C301.544 132.884 302.441 131.81 303.822 131.81C305.14 131.81 306.004 132.787 306.01 134.123H301.475ZM309.559 142.52H311.258V137.89H311.36C311.667 138.446 312.292 139.418 313.883 139.418C315.997 139.418 317.531 137.725 317.531 134.901C317.531 132.071 315.974 130.407 313.866 130.407C312.247 130.407 311.662 131.395 311.36 131.935H311.218V130.52H309.559V142.52ZM311.224 134.884C311.224 133.06 312.02 131.85 313.502 131.85C315.042 131.85 315.815 133.151 315.815 134.884C315.815 136.634 315.02 137.969 313.502 137.969C312.042 137.969 311.224 136.719 311.224 134.884ZM321.974 139.441C323.417 139.441 324.23 138.708 324.554 138.054H324.622V139.248H326.281V133.452C326.281 130.912 324.281 130.407 322.895 130.407C321.315 130.407 319.86 131.043 319.292 132.634L320.889 132.998C321.139 132.378 321.775 131.782 322.917 131.782C324.014 131.782 324.576 132.356 324.576 133.344V133.384C324.576 134.003 323.94 133.992 322.372 134.174C320.718 134.367 319.025 134.799 319.025 136.782C319.025 138.498 320.315 139.441 321.974 139.441ZM322.343 138.077C321.383 138.077 320.69 137.645 320.69 136.804C320.69 135.895 321.497 135.571 322.48 135.441C323.031 135.367 324.338 135.219 324.582 134.975V136.1C324.582 137.134 323.758 138.077 322.343 138.077ZM328.544 139.248H330.243V133.918C330.243 132.776 331.123 131.952 332.328 131.952C332.68 131.952 333.078 132.015 333.214 132.054V130.429C333.044 130.407 332.708 130.39 332.493 130.39C331.47 130.39 330.595 130.969 330.277 131.907H330.186V130.52H328.544V139.248ZM338.133 139.424C340.037 139.424 341.383 138.486 341.77 137.066L340.162 136.776C339.855 137.6 339.116 138.02 338.15 138.02C336.696 138.02 335.718 137.077 335.673 135.395H341.877V134.793C341.877 131.64 339.991 130.407 338.014 130.407C335.582 130.407 333.98 132.259 333.98 134.941C333.98 137.651 335.559 139.424 338.133 139.424ZM335.679 134.123C335.747 132.884 336.645 131.81 338.025 131.81C339.343 131.81 340.207 132.787 340.213 134.123H335.679ZM347.997 139.248H349.696V133.918C349.696 132.776 350.576 131.952 351.781 131.952C352.133 131.952 352.531 132.015 352.667 132.054V130.429C352.497 130.407 352.162 130.39 351.946 130.39C350.923 130.39 350.048 130.969 349.73 131.907H349.639V130.52H347.997V139.248ZM357.586 139.424C359.49 139.424 360.836 138.486 361.223 137.066L359.615 136.776C359.308 137.6 358.569 138.02 357.603 138.02C356.149 138.02 355.172 137.077 355.126 135.395H361.331V134.793C361.331 131.64 359.444 130.407 357.467 130.407C355.035 130.407 353.433 132.259 353.433 134.941C353.433 137.651 355.012 139.424 357.586 139.424ZM355.132 134.123C355.2 132.884 356.098 131.81 357.478 131.81C358.797 131.81 359.66 132.787 359.666 134.123H355.132ZM370.806 142.52V130.52H369.147V131.935H369.005C368.704 131.395 368.119 130.407 366.5 130.407C364.392 130.407 362.835 132.071 362.835 134.901C362.835 137.725 364.369 139.418 366.483 139.418C368.074 139.418 368.699 138.446 369.005 137.89H369.108V142.52H370.806ZM369.142 134.884C369.142 136.719 368.324 137.969 366.863 137.969C365.346 137.969 364.551 136.634 364.551 134.884C364.551 133.151 365.324 131.85 366.863 131.85C368.346 131.85 369.142 133.06 369.142 134.884ZM378.619 135.628C378.625 137.111 377.522 137.816 376.568 137.816C375.517 137.816 374.789 137.054 374.789 135.867V130.52H373.091V136.071C373.091 138.236 374.278 139.361 375.954 139.361C377.267 139.361 378.159 138.668 378.562 137.736H378.653V139.248H380.324V130.52H378.619V135.628ZM382.606 139.248H384.305V130.52H382.606V139.248ZM383.464 129.174C384.049 129.174 384.538 128.719 384.538 128.162C384.538 127.606 384.049 127.145 383.464 127.145C382.873 127.145 382.39 127.606 382.39 128.162C382.39 128.719 382.873 129.174 383.464 129.174ZM386.591 139.248H388.289V133.918C388.289 132.776 389.17 131.952 390.375 131.952C390.727 131.952 391.125 132.015 391.261 132.054V130.429C391.091 130.407 390.755 130.39 390.539 130.39C389.517 130.39 388.642 130.969 388.324 131.907H388.233V130.52H386.591V139.248ZM396.18 139.424C398.083 139.424 399.43 138.486 399.816 137.066L398.208 136.776C397.902 137.6 397.163 138.02 396.197 138.02C394.743 138.02 393.765 137.077 393.72 135.395H399.924V134.793C399.924 131.64 398.038 130.407 396.061 130.407C393.629 130.407 392.027 132.259 392.027 134.941C392.027 137.651 393.606 139.424 396.18 139.424ZM393.725 134.123C393.794 132.884 394.691 131.81 396.072 131.81C397.39 131.81 398.254 132.787 398.26 134.123H393.725ZM405.076 139.418C406.667 139.418 407.292 138.446 407.599 137.89H407.741V139.248H409.4V127.611H407.701V131.935H407.599C407.292 131.395 406.713 130.407 405.088 130.407C402.98 130.407 401.429 132.071 401.429 134.901C401.429 137.725 402.957 139.418 405.076 139.418ZM405.451 137.969C403.934 137.969 403.145 136.634 403.145 134.884C403.145 133.151 403.917 131.85 405.451 131.85C406.934 131.85 407.73 133.06 407.73 134.884C407.73 136.719 406.917 137.969 405.451 137.969ZM419.735 139.424C421.798 139.424 423.133 138.185 423.321 136.486H421.667C421.451 137.429 420.718 137.986 419.747 137.986C418.309 137.986 417.383 136.787 417.383 134.884C417.383 133.015 418.326 131.838 419.747 131.838C420.826 131.838 421.485 132.52 421.667 133.338H423.321C423.139 131.577 421.701 130.407 419.718 130.407C417.258 130.407 415.667 132.259 415.667 134.924C415.667 137.554 417.201 139.424 419.735 139.424ZM426.836 134.066C426.836 132.674 427.717 131.878 428.927 131.878C430.098 131.878 430.797 132.623 430.797 133.901V139.248H432.495V133.696C432.495 131.52 431.302 130.407 429.507 130.407C428.149 130.407 427.331 130.998 426.922 131.941H426.814V127.611H425.137V139.248H426.836V134.066ZM438.524 139.424C440.427 139.424 441.774 138.486 442.16 137.066L440.552 136.776C440.245 137.6 439.507 138.02 438.541 138.02C437.086 138.02 436.109 137.077 436.064 135.395H442.268V134.793C442.268 131.64 440.382 130.407 438.404 130.407C435.973 130.407 434.37 132.259 434.37 134.941C434.37 137.651 435.95 139.424 438.524 139.424ZM436.069 134.123C436.137 132.884 437.035 131.81 438.416 131.81C439.734 131.81 440.598 132.787 440.603 134.123H436.069ZM444.153 139.248H445.852V133.867C445.852 132.691 446.676 131.873 447.642 131.873C448.585 131.873 449.238 132.498 449.238 133.446V139.248H450.931V133.685C450.931 132.634 451.574 131.873 452.681 131.873C453.579 131.873 454.318 132.373 454.318 133.554V139.248H456.017V133.395C456.017 131.401 454.903 130.407 453.324 130.407C452.068 130.407 451.125 131.009 450.704 131.941H450.613C450.233 130.986 449.431 130.407 448.267 130.407C447.113 130.407 446.255 130.981 445.892 131.941H445.784V130.52H444.153V139.248ZM458.294 139.248H459.993V130.52H458.294V139.248ZM459.152 129.174C459.737 129.174 460.225 128.719 460.225 128.162C460.225 127.606 459.737 127.145 459.152 127.145C458.561 127.145 458.078 127.606 458.078 128.162C458.078 128.719 458.561 129.174 459.152 129.174ZM465.954 139.424C468.017 139.424 469.352 138.185 469.539 136.486H467.886C467.67 137.429 466.937 137.986 465.966 137.986C464.528 137.986 463.602 136.787 463.602 134.884C463.602 133.015 464.545 131.838 465.966 131.838C467.045 131.838 467.704 132.52 467.886 133.338H469.539C469.358 131.577 467.92 130.407 465.937 130.407C463.477 130.407 461.886 132.259 461.886 134.924C461.886 137.554 463.42 139.424 465.954 139.424ZM473.896 139.441C475.339 139.441 476.152 138.708 476.475 138.054H476.544V139.248H478.203V133.452C478.203 130.912 476.203 130.407 474.816 130.407C473.237 130.407 471.782 131.043 471.214 132.634L472.811 132.998C473.061 132.378 473.697 131.782 474.839 131.782C475.936 131.782 476.498 132.356 476.498 133.344V133.384C476.498 134.003 475.862 133.992 474.294 134.174C472.64 134.367 470.947 134.799 470.947 136.782C470.947 138.498 472.237 139.441 473.896 139.441ZM474.265 138.077C473.305 138.077 472.612 137.645 472.612 136.804C472.612 135.895 473.419 135.571 474.402 135.441C474.953 135.367 476.26 135.219 476.504 134.975V136.1C476.504 137.134 475.68 138.077 474.265 138.077ZM482.164 127.611H480.466V139.248H482.164V127.611ZM495.224 132.651C494.872 131.293 493.809 130.407 491.923 130.407C489.951 130.407 488.554 131.446 488.554 132.992C488.554 134.231 489.304 135.054 490.94 135.418L492.417 135.742C493.258 135.929 493.65 136.304 493.65 136.85C493.65 137.526 492.929 138.054 491.815 138.054C490.798 138.054 490.145 137.617 489.94 136.759L488.298 137.009C488.582 138.554 489.866 139.424 491.826 139.424C493.934 139.424 495.395 138.304 495.395 136.725C495.395 135.492 494.61 134.731 493.008 134.361L491.622 134.043C490.662 133.816 490.247 133.492 490.252 132.901C490.247 132.231 490.974 131.753 491.94 131.753C492.997 131.753 493.485 132.338 493.684 132.924L495.224 132.651ZM500.939 139.424C503.399 139.424 505.007 137.623 505.007 134.924C505.007 132.208 503.399 130.407 500.939 130.407C498.478 130.407 496.87 132.208 496.87 134.924C496.87 137.623 498.478 139.424 500.939 139.424ZM500.944 137.998C499.336 137.998 498.586 136.594 498.586 134.918C498.586 133.248 499.336 131.827 500.944 131.827C502.541 131.827 503.291 133.248 503.291 134.918C503.291 136.594 502.541 137.998 500.944 137.998ZM508.602 127.611H506.903V139.248H508.602V127.611ZM516.416 135.628C516.422 137.111 515.319 137.816 514.365 137.816C513.314 137.816 512.586 137.054 512.586 135.867V130.52H510.887V136.071C510.887 138.236 512.075 139.361 513.751 139.361C515.064 139.361 515.956 138.668 516.359 137.736H516.45V139.248H518.12V130.52H516.416V135.628ZM524.477 130.52H522.687V128.429H520.988V130.52H519.71V131.884H520.988V137.037C520.983 138.623 522.193 139.39 523.534 139.361C524.074 139.356 524.437 139.253 524.636 139.179L524.329 137.776C524.216 137.799 524.005 137.85 523.733 137.85C523.181 137.85 522.687 137.668 522.687 136.685V131.884H524.477V130.52ZM526.356 139.248H528.055V130.52H526.356V139.248ZM527.214 129.174C527.799 129.174 528.288 128.719 528.288 128.162C528.288 127.606 527.799 127.145 527.214 127.145C526.623 127.145 526.14 127.606 526.14 128.162C526.14 128.719 526.623 129.174 527.214 129.174ZM534.017 139.424C536.477 139.424 538.085 137.623 538.085 134.924C538.085 132.208 536.477 130.407 534.017 130.407C531.556 130.407 529.949 132.208 529.949 134.924C529.949 137.623 531.556 139.424 534.017 139.424ZM534.022 137.998C532.414 137.998 531.664 136.594 531.664 134.918C531.664 133.248 532.414 131.827 534.022 131.827C535.619 131.827 536.369 133.248 536.369 134.918C536.369 136.594 535.619 137.998 534.022 137.998ZM541.68 134.066C541.68 132.674 542.532 131.878 543.714 131.878C544.868 131.878 545.566 132.634 545.566 133.901V139.248H547.265V133.696C547.265 131.537 546.078 130.407 544.294 130.407C542.981 130.407 542.123 131.015 541.72 131.941H541.612V130.52H539.981V139.248H541.68V134.066ZM556.083 132.651C555.731 131.293 554.669 130.407 552.782 130.407C550.811 130.407 549.413 131.446 549.413 132.992C549.413 134.231 550.163 135.054 551.799 135.418L553.277 135.742C554.118 135.929 554.51 136.304 554.51 136.85C554.51 137.526 553.788 138.054 552.674 138.054C551.657 138.054 551.004 137.617 550.799 136.759L549.157 137.009C549.441 138.554 550.725 139.424 552.686 139.424C554.794 139.424 556.254 138.304 556.254 136.725C556.254 135.492 555.47 134.731 553.868 134.361L552.481 134.043C551.521 133.816 551.106 133.492 551.112 132.901C551.106 132.231 551.833 131.753 552.799 131.753C553.856 131.753 554.345 132.338 554.544 132.924L556.083 132.651Z" fill="#A1A1A6"/>
<path d="M589.226 49.8691L597.085 42.0105L589.226 34.1519L588.191 35.1693L594.296 41.2738H569.492V42.7473H594.296L588.191 48.8342L589.226 49.8691Z" fill="white"/>
<path d="M689.8 35.5C687.4 35.5 685.5 37.4 685.5 39.8C685.5 42.2 687.4 44.1 689.8 44.1C692.2 44.1 694.1 42.2 694.1 39.8C694.1 37.5 692.2 35.5 689.8 35.5ZM700.7 61.4V65.4H704.8V61.4H700.7ZM667 61.4V65.4H691.3V61.4H667ZM701.2 37.8V41.9H724.4V37.8H701.2ZM667.6 37.8V41.9H678.4V37.8H667.6ZM693.9 14.2V18.3H724.9V14.2H693.9V14.2ZM714.1 58V68.8H724.9V58H714.1ZM667.6 14.2V18.3H678.4V14.2H667.6V14.2ZM681 12V20.5L687.4 16.3L681 12Z" fill="white"/>
<path d="M609.81 139.248H611.565V135.157H613.952C616.651 135.157 617.986 133.526 617.986 131.378C617.986 129.236 616.662 127.611 613.958 127.611H609.81V139.248ZM611.565 133.668V129.117H613.77C615.509 129.117 616.219 130.06 616.219 131.378C616.219 132.696 615.509 133.668 613.793 133.668H611.565ZM623.56 139.424C625.463 139.424 626.81 138.486 627.196 137.066L625.588 136.776C625.281 137.6 624.543 138.02 623.577 138.02C622.122 138.02 621.145 137.077 621.1 135.395H627.304V134.793C627.304 131.64 625.418 130.407 623.44 130.407C621.009 130.407 619.406 132.259 619.406 134.941C619.406 137.651 620.986 139.424 623.56 139.424ZM621.105 134.123C621.173 132.884 622.071 131.81 623.452 131.81C624.77 131.81 625.634 132.787 625.639 134.123H621.105ZM629.189 139.248H630.888V133.918C630.888 132.776 631.769 131.952 632.973 131.952C633.325 131.952 633.723 132.015 633.859 132.054V130.429C633.689 130.407 633.354 130.39 633.138 130.39C632.115 130.39 631.24 130.969 630.922 131.907H630.831V130.52H629.189V139.248ZM639.999 130.52H638.118V129.736C638.118 128.963 638.436 128.543 639.266 128.543C639.618 128.543 639.868 128.623 640.027 128.674L640.425 127.299C640.186 127.208 639.692 127.066 639.004 127.066C637.624 127.066 636.413 127.873 636.413 129.509V130.52H635.067V131.884H636.413V139.248H638.118V131.884H639.999V130.52ZM645.084 139.424C647.544 139.424 649.152 137.623 649.152 134.924C649.152 132.208 647.544 130.407 645.084 130.407C642.624 130.407 641.016 132.208 641.016 134.924C641.016 137.623 642.624 139.424 645.084 139.424ZM645.09 137.998C643.482 137.998 642.732 136.594 642.732 134.918C642.732 133.248 643.482 131.827 645.09 131.827C646.686 131.827 647.436 133.248 647.436 134.918C647.436 136.594 646.686 137.998 645.09 137.998ZM651.048 139.248H652.747V133.918C652.747 132.776 653.628 131.952 654.833 131.952C655.185 131.952 655.583 132.015 655.719 132.054V130.429C655.548 130.407 655.213 130.39 654.997 130.39C653.975 130.39 653.1 130.969 652.781 131.907H652.69V130.52H651.048V139.248ZM657.189 139.248H658.888V133.867C658.888 132.691 659.712 131.873 660.678 131.873C661.621 131.873 662.274 132.498 662.274 133.446V139.248H663.967V133.685C663.967 132.634 664.609 131.873 665.717 131.873C666.615 131.873 667.354 132.373 667.354 133.554V139.248H669.053V133.395C669.053 131.401 667.939 130.407 666.359 130.407C665.104 130.407 664.161 131.009 663.74 131.941H663.649C663.269 130.986 662.467 130.407 661.303 130.407C660.149 130.407 659.291 130.981 658.928 131.941H658.82V130.52H657.189V139.248ZM679.638 130.52H677.848V128.429H676.149V130.52H674.871V131.884H676.149V137.037C676.144 138.623 677.354 139.39 678.695 139.361C679.234 139.356 679.598 139.253 679.797 139.179L679.49 137.776C679.377 137.799 679.166 137.85 678.894 137.85C678.342 137.85 677.848 137.668 677.848 136.685V131.884H679.638V130.52ZM683.404 134.066C683.404 132.674 684.284 131.878 685.494 131.878C686.665 131.878 687.364 132.623 687.364 133.901V139.248H689.063V133.696C689.063 131.52 687.869 130.407 686.074 130.407C684.716 130.407 683.898 130.998 683.489 131.941H683.381V127.611H681.705V139.248H683.404V134.066ZM695.091 139.424C696.994 139.424 698.341 138.486 698.727 137.066L697.119 136.776C696.813 137.6 696.074 138.02 695.108 138.02C693.654 138.02 692.676 137.077 692.631 135.395H698.835V134.793C698.835 131.64 696.949 130.407 694.972 130.407C692.54 130.407 690.938 132.259 690.938 134.941C690.938 137.651 692.517 139.424 695.091 139.424ZM692.636 134.123C692.705 132.884 693.602 131.81 694.983 131.81C696.301 131.81 697.165 132.787 697.171 134.123H692.636ZM704.955 142.52H706.654V137.89H706.756C707.063 138.446 707.688 139.418 709.279 139.418C711.392 139.418 712.926 137.725 712.926 134.901C712.926 132.071 711.369 130.407 709.261 130.407C707.642 130.407 707.057 131.395 706.756 131.935H706.614V130.52H704.955V142.52ZM706.619 134.884C706.619 133.06 707.415 131.85 708.898 131.85C710.438 131.85 711.21 133.151 711.21 134.884C711.21 136.634 710.415 137.969 708.898 137.969C707.438 137.969 706.619 136.719 706.619 134.884ZM714.83 139.248H716.529V133.918C716.529 132.776 717.409 131.952 718.614 131.952C718.966 131.952 719.364 132.015 719.5 132.054V130.429C719.33 130.407 718.994 130.39 718.779 130.39C717.756 130.39 716.881 130.969 716.563 131.907H716.472V130.52H714.83V139.248ZM724.334 139.424C726.794 139.424 728.402 137.623 728.402 134.924C728.402 132.208 726.794 130.407 724.334 130.407C721.874 130.407 720.266 132.208 720.266 134.924C720.266 137.623 721.874 139.424 724.334 139.424ZM724.34 137.998C722.732 137.998 721.982 136.594 721.982 134.918C721.982 133.248 722.732 131.827 724.34 131.827C725.936 131.827 726.686 133.248 726.686 134.918C726.686 136.594 725.936 137.998 724.34 137.998ZM733.975 139.424C736.037 139.424 737.372 138.185 737.56 136.486H735.906C735.69 137.429 734.958 137.986 733.986 137.986C732.548 137.986 731.622 136.787 731.622 134.884C731.622 133.015 732.565 131.838 733.986 131.838C735.065 131.838 735.725 132.52 735.906 133.338H737.56C737.378 131.577 735.94 130.407 733.958 130.407C731.497 130.407 729.906 132.259 729.906 134.924C729.906 137.554 731.44 139.424 733.975 139.424ZM743.138 139.424C745.041 139.424 746.388 138.486 746.774 137.066L745.166 136.776C744.859 137.6 744.121 138.02 743.155 138.02C741.7 138.02 740.723 137.077 740.678 135.395H746.882V134.793C746.882 131.64 744.996 130.407 743.019 130.407C740.587 130.407 738.984 132.259 738.984 134.941C738.984 137.651 740.564 139.424 743.138 139.424ZM740.683 134.123C740.752 132.884 741.649 131.81 743.03 131.81C744.348 131.81 745.212 132.787 745.217 134.123H740.683ZM752.034 139.418C753.625 139.418 754.25 138.446 754.557 137.89H754.699V139.248H756.358V127.611H754.659V131.935H754.557C754.25 131.395 753.671 130.407 752.046 130.407C749.938 130.407 748.386 132.071 748.386 134.901C748.386 137.725 749.915 139.418 752.034 139.418ZM752.409 137.969C750.892 137.969 750.102 136.634 750.102 134.884C750.102 133.151 750.875 131.85 752.409 131.85C753.892 131.85 754.688 133.06 754.688 134.884C754.688 136.719 753.875 137.969 752.409 137.969ZM764.311 135.628C764.317 137.111 763.215 137.816 762.26 137.816C761.209 137.816 760.482 137.054 760.482 135.867V130.52H758.783V136.071C758.783 138.236 759.97 139.361 761.646 139.361C762.959 139.361 763.851 138.668 764.254 137.736H764.345V139.248H766.016V130.52H764.311V135.628ZM768.298 139.248H769.997V133.918C769.997 132.776 770.878 131.952 772.083 131.952C772.435 131.952 772.833 132.015 772.969 132.054V130.429C772.798 130.407 772.463 130.39 772.247 130.39C771.225 130.39 770.35 130.969 770.031 131.907H769.94V130.52H768.298V139.248ZM777.888 139.424C779.791 139.424 781.138 138.486 781.524 137.066L779.916 136.776C779.609 137.6 778.871 138.02 777.905 138.02C776.45 138.02 775.473 137.077 775.428 135.395H781.632V134.793C781.632 131.64 779.746 130.407 777.769 130.407C775.337 130.407 773.734 132.259 773.734 134.941C773.734 137.651 775.314 139.424 777.888 139.424ZM775.433 134.123C775.502 132.884 776.399 131.81 777.78 131.81C779.098 131.81 779.962 132.787 779.967 134.123H775.433Z" fill="#A1A1A6"/>
<path d="M814.207 49.8691L822.066 42.0105L814.207 34.1519L813.172 35.1693L819.277 41.2738H794.473V42.7473H819.277L813.172 48.8342L814.207 49.8691Z" fill="white"/>
<path d="M927.9 13C916.9 13 908 21.9 908 32.9C908 43.9 916.9 52.8 927.9 52.8C932.7 52.8 937.2 51.1 940.9 48L942.1 47L943.1 45.8C946.2 42.2 947.9 37.6 947.9 32.8C947.9 21.9 938.9 13 927.9 13ZM927.9 50C918.5 50 910.8 42.3 910.8 32.9C910.8 23.5 918.5 15.8 927.9 15.8C937.3 15.8 945 23.5 945 32.9C945.1 42.3 937.4 50 927.9 50ZM947.3 50H945V52.2L959.9 67L962.1 64.8L947.3 50Z" fill="white"/>
<path d="M845.141 133.429C845.141 129.708 842.914 127.452 839.903 127.452C836.88 127.452 834.658 129.708 834.658 133.429C834.658 137.145 836.88 139.407 839.903 139.407C842.914 139.407 845.141 137.151 845.141 133.429ZM843.403 133.429C843.403 136.265 841.903 137.804 839.903 137.804C837.897 137.804 836.403 136.265 836.403 133.429C836.403 130.594 837.897 129.054 839.903 129.054C841.903 129.054 843.403 130.594 843.403 133.429ZM847.33 139.248H848.989V137.89H849.131C849.438 138.446 850.063 139.418 851.654 139.418C853.768 139.418 855.302 137.725 855.302 134.901C855.302 132.071 853.745 130.407 851.637 130.407C850.018 130.407 849.432 131.395 849.131 131.935H849.029V127.611H847.33V139.248ZM848.995 134.884C848.995 133.06 849.79 131.85 851.273 131.85C852.813 131.85 853.586 133.151 853.586 134.884C853.586 136.634 852.79 137.969 851.273 137.969C849.813 137.969 848.995 136.719 848.995 134.884ZM863.749 132.651C863.397 131.293 862.334 130.407 860.448 130.407C858.476 130.407 857.079 131.446 857.079 132.992C857.079 134.231 857.829 135.054 859.465 135.418L860.942 135.742C861.783 135.929 862.175 136.304 862.175 136.85C862.175 137.526 861.454 138.054 860.34 138.054C859.323 138.054 858.67 137.617 858.465 136.759L856.823 137.009C857.107 138.554 858.391 139.424 860.351 139.424C862.459 139.424 863.92 138.304 863.92 136.725C863.92 135.492 863.136 134.731 861.533 134.361L860.147 134.043C859.187 133.816 858.772 133.492 858.778 132.901C858.772 132.231 859.499 131.753 860.465 131.753C861.522 131.753 862.011 132.338 862.209 132.924L863.749 132.651ZM869.549 139.424C871.452 139.424 872.799 138.486 873.185 137.066L871.577 136.776C871.27 137.6 870.532 138.02 869.566 138.02C868.111 138.02 867.134 137.077 867.089 135.395H873.293V134.793C873.293 131.64 871.407 130.407 869.43 130.407C866.998 130.407 865.395 132.259 865.395 134.941C865.395 137.651 866.975 139.424 869.549 139.424ZM867.094 134.123C867.162 132.884 868.06 131.81 869.441 131.81C870.759 131.81 871.623 132.787 871.628 134.123H867.094ZM875.178 139.248H876.877V133.918C876.877 132.776 877.758 131.952 878.962 131.952C879.314 131.952 879.712 132.015 879.849 132.054V130.429C879.678 130.407 879.343 130.39 879.127 130.39C878.104 130.39 877.229 130.969 876.911 131.907H876.82V130.52H875.178V139.248ZM889.05 130.52H887.226L885.022 137.236H884.931L882.721 130.52H880.897L884.067 139.248H885.886L889.05 130.52ZM894.096 139.424C895.999 139.424 897.346 138.486 897.732 137.066L896.124 136.776C895.817 137.6 895.079 138.02 894.113 138.02C892.658 138.02 891.681 137.077 891.636 135.395H897.84V134.793C897.84 131.64 895.954 130.407 893.976 130.407C891.545 130.407 889.942 132.259 889.942 134.941C889.942 137.651 891.522 139.424 894.096 139.424ZM891.641 134.123C891.709 132.884 892.607 131.81 893.988 131.81C895.306 131.81 896.17 132.787 896.175 134.123H891.641ZM899.725 139.248H901.424V133.918C901.424 132.776 902.305 131.952 903.509 131.952C903.861 131.952 904.259 132.015 904.395 132.054V130.429C904.225 130.407 903.89 130.39 903.674 130.39C902.651 130.39 901.776 130.969 901.458 131.907H901.367V130.52H899.725V139.248ZM908.327 139.441C909.77 139.441 910.583 138.708 910.907 138.054H910.975V139.248H912.634V133.452C912.634 130.912 910.634 130.407 909.248 130.407C907.668 130.407 906.214 131.043 905.645 132.634L907.242 132.998C907.492 132.378 908.128 131.782 909.27 131.782C910.367 131.782 910.93 132.356 910.93 133.344V133.384C910.93 134.003 910.293 133.992 908.725 134.174C907.072 134.367 905.378 134.799 905.378 136.782C905.378 138.498 906.668 139.441 908.327 139.441ZM908.697 138.077C907.736 138.077 907.043 137.645 907.043 136.804C907.043 135.895 907.85 135.571 908.833 135.441C909.384 135.367 910.691 135.219 910.935 134.975V136.1C910.935 137.134 910.111 138.077 908.697 138.077ZM918.971 130.52H917.181V128.429H915.482V130.52H914.204V131.884H915.482V137.037C915.476 138.623 916.687 139.39 918.028 139.361C918.567 139.356 918.931 139.253 919.13 139.179L918.823 137.776C918.709 137.799 918.499 137.85 918.226 137.85C917.675 137.85 917.181 137.668 917.181 136.685V131.884H918.971V130.52ZM920.85 139.248H922.549V130.52H920.85V139.248ZM921.708 129.174C922.293 129.174 922.782 128.719 922.782 128.162C922.782 127.606 922.293 127.145 921.708 127.145C921.117 127.145 920.634 127.606 920.634 128.162C920.634 128.719 921.117 129.174 921.708 129.174ZM928.511 139.424C930.971 139.424 932.579 137.623 932.579 134.924C932.579 132.208 930.971 130.407 928.511 130.407C926.05 130.407 924.442 132.208 924.442 134.924C924.442 137.623 926.05 139.424 928.511 139.424ZM928.516 137.998C926.908 137.998 926.158 136.594 926.158 134.918C926.158 133.248 926.908 131.827 928.516 131.827C930.113 131.827 930.863 133.248 930.863 134.918C930.863 136.594 930.113 137.998 928.516 137.998ZM936.174 134.066C936.174 132.674 937.026 131.878 938.208 131.878C939.361 131.878 940.06 132.634 940.06 133.901V139.248H941.759V133.696C941.759 131.537 940.572 130.407 938.787 130.407C937.475 130.407 936.617 131.015 936.214 131.941H936.106V130.52H934.475V139.248H936.174V134.066ZM950.812 139.441C952.255 139.441 953.067 138.708 953.391 138.054H953.459V139.248H955.118V133.452C955.118 130.912 953.118 130.407 951.732 130.407C950.153 130.407 948.698 131.043 948.13 132.634L949.726 132.998C949.976 132.378 950.613 131.782 951.755 131.782C952.851 131.782 953.414 132.356 953.414 133.344V133.384C953.414 134.003 952.778 133.992 951.209 134.174C949.556 134.367 947.863 134.799 947.863 136.782C947.863 138.498 949.153 139.441 950.812 139.441ZM951.181 138.077C950.221 138.077 949.528 137.645 949.528 136.804C949.528 135.895 950.334 135.571 951.317 135.441C951.868 135.367 953.175 135.219 953.42 134.975V136.1C953.42 137.134 952.596 138.077 951.181 138.077ZM959.08 134.066C959.08 132.674 959.932 131.878 961.114 131.878C962.268 131.878 962.966 132.634 962.966 133.901V139.248H964.665V133.696C964.665 131.537 963.478 130.407 961.694 130.407C960.381 130.407 959.523 131.015 959.12 131.941H959.012V130.52H957.381V139.248H959.08V134.066ZM970.211 139.418C971.802 139.418 972.427 138.446 972.734 137.89H972.876V139.248H974.535V127.611H972.836V131.935H972.734C972.427 131.395 971.847 130.407 970.222 130.407C968.114 130.407 966.563 132.071 966.563 134.901C966.563 137.725 968.091 139.418 970.211 139.418ZM970.586 137.969C969.069 137.969 968.279 136.634 968.279 134.884C968.279 133.151 969.052 131.85 970.586 131.85C972.069 131.85 972.864 133.06 972.864 134.884C972.864 136.719 972.052 137.969 970.586 137.969ZM981.33 139.248H983.086V134.844H985.472C985.512 134.844 985.546 134.844 985.586 134.844L987.949 139.248H989.949L987.37 134.537C988.796 134.009 989.506 132.821 989.506 131.259C989.506 129.117 988.177 127.611 985.478 127.611H981.33V139.248ZM983.086 133.333V129.117H985.29C987.023 129.117 987.739 129.941 987.739 131.259C987.739 132.571 987.023 133.333 985.313 133.333H983.086ZM995.158 139.424C997.062 139.424 998.408 138.486 998.795 137.066L997.187 136.776C996.88 137.6 996.141 138.02 995.175 138.02C993.721 138.02 992.743 137.077 992.698 135.395H998.903V134.793C998.903 131.64 997.016 130.407 995.039 130.407C992.607 130.407 991.005 132.259 991.005 134.941C991.005 137.651 992.584 139.424 995.158 139.424ZM992.704 134.123C992.772 132.884 993.67 131.81 995.05 131.81C996.368 131.81 997.232 132.787 997.238 134.123H992.704ZM1007.33 132.651C1006.97 131.293 1005.91 130.407 1004.03 130.407C1002.05 130.407 1000.66 131.446 1000.66 132.992C1000.66 134.231 1001.41 135.054 1003.04 135.418L1004.52 135.742C1005.36 135.929 1005.75 136.304 1005.75 136.85C1005.75 137.526 1005.03 138.054 1003.92 138.054C1002.9 138.054 1002.25 137.617 1002.04 136.759L1000.4 137.009C1000.69 138.554 1001.97 139.424 1003.93 139.424C1006.04 139.424 1007.5 138.304 1007.5 136.725C1007.5 135.492 1006.71 134.731 1005.11 134.361L1003.72 134.043C1002.76 133.816 1002.35 133.492 1002.36 132.901C1002.35 132.231 1003.08 131.753 1004.04 131.753C1005.1 131.753 1005.59 132.338 1005.79 132.924L1007.33 132.651ZM1014.89 135.628C1014.9 137.111 1013.8 137.816 1012.84 137.816C1011.79 137.816 1011.06 137.054 1011.06 135.867V130.52H1009.37V136.071C1009.37 138.236 1010.55 139.361 1012.23 139.361C1013.54 139.361 1014.43 138.668 1014.84 137.736H1014.93V139.248H1016.6V130.52H1014.89V135.628ZM1020.58 127.611H1018.88V139.248H1020.58V127.611ZM1026.94 130.52H1025.15V128.429H1023.45V130.52H1022.17V131.884H1023.45V137.037C1023.45 138.623 1024.66 139.39 1026 139.361C1026.54 139.356 1026.9 139.253 1027.1 139.179L1026.79 137.776C1026.68 137.799 1026.47 137.85 1026.2 137.85C1025.64 137.85 1025.15 137.668 1025.15 136.685V131.884H1026.94V130.52ZM1035.22 132.651C1034.87 131.293 1033.8 130.407 1031.92 130.407C1029.95 130.407 1028.55 131.446 1028.55 132.992C1028.55 134.231 1029.3 135.054 1030.93 135.418L1032.41 135.742C1033.25 135.929 1033.64 136.304 1033.64 136.85C1033.64 137.526 1032.92 138.054 1031.81 138.054C1030.79 138.054 1030.14 137.617 1029.93 136.759L1028.29 137.009C1028.58 138.554 1029.86 139.424 1031.82 139.424C1033.93 139.424 1035.39 138.304 1035.39 136.725C1035.39 135.492 1034.6 134.731 1033 134.361L1031.62 134.043C1030.66 133.816 1030.24 133.492 1030.25 132.901C1030.24 132.231 1030.97 131.753 1031.93 131.753C1032.99 131.753 1033.48 132.338 1033.68 132.924L1035.22 132.651Z" fill="#A1A1A6"/>
<g filter="url(#filter0_ii)">
<path d="M50 191.5C50 191.884 49.9762 192.262 49.9301 192.631C49.1535 198.858 43 204.571 43 210.861C43 211.49 43.5099 212 44.1389 212L53 212L53 171L44.1389 171C43.5099 171 43 171.51 43 172.139C43 178.429 49.1535 184.142 49.9301 190.369C49.9762 190.738 50 191.116 50 191.5Z" fill="#00FFA3"/>
</g>
<g filter="url(#filter1_i)">
<rect x="53" y="171" width="36.5" height="10" fill="#00FFA3"/>
</g>
<g filter="url(#filter2_i)">
<path d="M115.5 178C115.837 178 116.169 177.976 116.493 177.93C121.961 177.154 126.977 171 132.5 171H141.5V181H89.5L89.5 171H98.5C104.023 171 109.039 177.154 114.507 177.93C114.831 177.976 115.163 178 115.5 178Z" fill="#00FFA3"/>
</g>
<g filter="url(#filter3_i)">
<rect x="141.5" y="171" width="36.5" height="10" fill="#00FFA3"/>
</g>
<rect width="125" height="24" transform="translate(53 181)" fill="#00FFA3"/>
<path d="M72.4716 187.364H70.0114V199H72.4716V187.364ZM76.5507 193.955C76.5564 192.83 77.2269 192.17 78.2041 192.17C79.1757 192.17 79.761 192.807 79.7553 193.875V199H82.1757V193.443C82.1757 191.409 80.9826 190.159 79.1644 190.159C77.8689 190.159 76.9314 190.795 76.5394 191.812H76.4371V190.273H74.1303V199H76.5507V193.955ZM88.4055 190.273H86.7634V188.182H84.343V190.273H83.1498V192.091H84.343V196.636C84.3316 198.347 85.4964 199.193 87.252 199.119C87.877 199.097 88.3202 198.972 88.5645 198.892L88.1839 197.091C88.0645 197.114 87.8089 197.17 87.5816 197.17C87.0986 197.17 86.7634 196.989 86.7634 196.318V192.091H88.4055V190.273ZM89.6622 199H92.0826V194.062C92.0826 192.989 92.8667 192.25 93.9349 192.25C94.2701 192.25 94.7303 192.307 94.9576 192.381V190.233C94.7417 190.182 94.4406 190.148 94.1963 190.148C93.219 190.148 92.4178 190.716 92.0997 191.795H92.0088V190.273H89.6622V199ZM99.426 199.17C102.074 199.17 103.721 197.358 103.721 194.67C103.721 191.966 102.074 190.159 99.426 190.159C96.7782 190.159 95.1305 191.966 95.1305 194.67C95.1305 197.358 96.7782 199.17 99.426 199.17ZM99.4373 197.295C98.2157 197.295 97.5907 196.176 97.5907 194.653C97.5907 193.131 98.2157 192.006 99.4373 192.006C100.636 192.006 101.261 193.131 101.261 194.653C101.261 196.176 100.636 197.295 99.4373 197.295ZM108.191 199.142C109.6 199.142 110.333 198.33 110.668 197.602H110.771V199H113.157V187.364H110.742V191.739H110.668C110.345 191.028 109.646 190.159 108.186 190.159C106.271 190.159 104.651 191.648 104.651 194.648C104.651 197.568 106.203 199.142 108.191 199.142ZM108.958 197.216C107.771 197.216 107.123 196.159 107.123 194.636C107.123 193.125 107.759 192.085 108.958 192.085C110.134 192.085 110.793 193.08 110.793 194.636C110.793 196.193 110.123 197.216 108.958 197.216ZM120.424 195.284C120.429 196.455 119.628 197.068 118.759 197.068C117.844 197.068 117.253 196.426 117.248 195.398V190.273H114.827V195.83C114.833 197.869 116.026 199.114 117.782 199.114C119.094 199.114 120.037 198.438 120.429 197.415H120.52V199H122.844V190.273H120.424V195.284ZM128.403 199.17C130.727 199.17 132.188 197.807 132.301 195.801H130.017C129.875 196.733 129.261 197.256 128.432 197.256C127.301 197.256 126.568 196.307 126.568 194.636C126.568 192.989 127.307 192.045 128.432 192.045C129.318 192.045 129.886 192.631 130.017 193.5H132.301C132.199 191.483 130.671 190.159 128.392 190.159C125.744 190.159 124.108 191.994 124.108 194.67C124.108 197.324 125.716 199.17 128.403 199.17ZM138.173 190.273H136.531V188.182H134.11V190.273H132.917V192.091H134.11V196.636C134.099 198.347 135.264 199.193 137.02 199.119C137.645 199.097 138.088 198.972 138.332 198.892L137.951 197.091C137.832 197.114 137.576 197.17 137.349 197.17C136.866 197.17 136.531 196.989 136.531 196.318V192.091H138.173V190.273ZM139.43 199H141.85V190.273H139.43V199ZM140.646 189.148C141.367 189.148 141.958 188.597 141.958 187.92C141.958 187.25 141.367 186.699 140.646 186.699C139.93 186.699 139.339 187.25 139.339 187.92C139.339 188.597 139.93 189.148 140.646 189.148ZM147.412 199.17C150.06 199.17 151.708 197.358 151.708 194.67C151.708 191.966 150.06 190.159 147.412 190.159C144.764 190.159 143.117 191.966 143.117 194.67C143.117 197.358 144.764 199.17 147.412 199.17ZM147.424 197.295C146.202 197.295 145.577 196.176 145.577 194.653C145.577 193.131 146.202 192.006 147.424 192.006C148.622 192.006 149.247 193.131 149.247 194.653C149.247 196.176 148.622 197.295 147.424 197.295ZM155.382 193.955C155.388 192.83 156.058 192.17 157.035 192.17C158.007 192.17 158.592 192.807 158.587 193.875V199H161.007V193.443C161.007 191.409 159.814 190.159 157.996 190.159C156.7 190.159 155.763 190.795 155.371 191.812H155.268V190.273H152.962V199H155.382V193.955Z" fill="#111111"/>
<g filter="url(#filter4_i)">
<rect x="53" y="205" width="35" height="7" fill="#00FFA3"/>
<path d="M132.5 212C126.977 212 121.961 218.154 116.493 218.93C116.169 218.976 115.837 219 115.5 219C115.163 219 114.831 218.976 114.507 218.93C109.039 218.154 104.023 212 98.5 212H88L88 205H143V212H132.5Z" fill="#00FFA3"/>
<rect x="143" y="205" width="35" height="7" fill="#00FFA3"/>
</g>
<g filter="url(#filter5_ii)">
<rect x="178" y="174.5" width="3.5" height="7" transform="rotate(-90 178 174.5)" fill="#00FFA3"/>
<path d="M185 174.5C185 180.023 191.154 185.039 191.93 190.507C191.976 190.831 192 191.163 192 191.5C192 191.837 191.976 192.169 191.93 192.493C191.154 197.961 185 202.977 185 208.5L178 208.5L178 174.5L185 174.5Z" fill="#00FFA3"/>
<rect x="178" y="212" width="3.5" height="7" transform="rotate(-90 178 212)" fill="#00FFA3"/>
</g>
<g filter="url(#filter6_ii)">
<path d="M645 191.5C645 191.884 644.976 192.262 644.93 192.631C644.154 198.858 638 204.571 638 210.861C638 211.49 638.51 212 639.139 212L648 212L648 171L639.139 171C638.51 171 638 171.51 638 172.139C638 178.429 644.154 184.142 644.93 190.369C644.976 190.738 645 191.116 645 191.5Z" fill="#00FFA3"/>
</g>
<g filter="url(#filter7_i)">
<rect x="648" y="171" width="29.5" height="10" fill="#00FFA3"/>
</g>
<g filter="url(#filter8_i)">
<path d="M703.5 178C703.837 178 704.169 177.976 704.493 177.93C709.961 177.154 714.977 171 720.5 171H729.5V181H677.5L677.5 171H686.5C692.023 171 697.039 177.154 702.507 177.93C702.831 177.976 703.163 178 703.5 178Z" fill="#00FFA3"/>
</g>
<g filter="url(#filter9_i)">
<rect x="729.5" y="171" width="29.5" height="10" fill="#00FFA3"/>
</g>
<rect width="111" height="24" transform="translate(648 181)" fill="#00FFA3"/>
<path d="M665.011 199H667.472V195.227H669.54C672.216 195.227 673.773 193.631 673.773 191.307C673.773 188.994 672.244 187.364 669.602 187.364H665.011V199ZM667.472 193.256V189.375H669.131C670.551 189.375 671.239 190.148 671.239 191.307C671.239 192.46 670.551 193.256 669.142 193.256H667.472ZM675.005 199H677.426V194.062C677.426 192.989 678.21 192.25 679.278 192.25C679.613 192.25 680.073 192.307 680.301 192.381V190.233C680.085 190.182 679.784 190.148 679.539 190.148C678.562 190.148 677.761 190.716 677.443 191.795H677.352V190.273H675.005V199ZM684.769 199.17C687.417 199.17 689.065 197.358 689.065 194.67C689.065 191.966 687.417 190.159 684.769 190.159C682.121 190.159 680.474 191.966 680.474 194.67C680.474 197.358 682.121 199.17 684.769 199.17ZM684.78 197.295C683.559 197.295 682.934 196.176 682.934 194.653C682.934 193.131 683.559 192.006 684.78 192.006C685.979 192.006 686.604 193.131 686.604 194.653C686.604 196.176 685.979 197.295 684.78 197.295ZM694.262 199.17C696.585 199.17 698.046 197.807 698.159 195.801H695.875C695.733 196.733 695.12 197.256 694.29 197.256C693.159 197.256 692.426 196.307 692.426 194.636C692.426 192.989 693.165 192.045 694.29 192.045C695.176 192.045 695.745 192.631 695.875 193.5H698.159C698.057 191.483 696.529 190.159 694.25 190.159C691.603 190.159 689.966 191.994 689.966 194.67C689.966 197.324 691.574 199.17 694.262 199.17ZM703.366 199.17C705.525 199.17 706.98 198.119 707.321 196.5L705.082 196.352C704.838 197.017 704.213 197.364 703.406 197.364C702.196 197.364 701.429 196.562 701.429 195.261V195.256H707.372V194.591C707.372 191.625 705.577 190.159 703.27 190.159C700.702 190.159 699.037 191.983 699.037 194.676C699.037 197.443 700.679 199.17 703.366 199.17ZM701.429 193.756C701.48 192.761 702.236 191.966 703.309 191.966C704.361 191.966 705.088 192.716 705.094 193.756H701.429ZM711.847 199.142C713.257 199.142 713.989 198.33 714.325 197.602H714.427V199H716.813V187.364H714.399V191.739H714.325C714.001 191.028 713.302 190.159 711.842 190.159C709.927 190.159 708.308 191.648 708.308 194.648C708.308 197.568 709.859 199.142 711.847 199.142ZM712.614 197.216C711.427 197.216 710.779 196.159 710.779 194.636C710.779 193.125 711.416 192.085 712.614 192.085C713.791 192.085 714.45 193.08 714.45 194.636C714.45 196.193 713.779 197.216 712.614 197.216ZM724.08 195.284C724.086 196.455 723.285 197.068 722.415 197.068C721.5 197.068 720.91 196.426 720.904 195.398V190.273H718.483V195.83C718.489 197.869 719.682 199.114 721.438 199.114C722.75 199.114 723.694 198.438 724.086 197.415H724.177V199H726.5V190.273H724.08V195.284ZM728.117 199H730.537V194.062C730.537 192.989 731.321 192.25 732.389 192.25C732.724 192.25 733.185 192.307 733.412 192.381V190.233C733.196 190.182 732.895 190.148 732.651 190.148C731.673 190.148 730.872 190.716 730.554 191.795H730.463V190.273H728.117V199ZM737.914 199.17C740.074 199.17 741.528 198.119 741.869 196.5L739.63 196.352C739.386 197.017 738.761 197.364 737.954 197.364C736.744 197.364 735.977 196.562 735.977 195.261V195.256H741.92V194.591C741.92 191.625 740.125 190.159 737.818 190.159C735.25 190.159 733.585 191.983 733.585 194.676C733.585 197.443 735.227 199.17 737.914 199.17ZM735.977 193.756C736.028 192.761 736.784 191.966 737.858 191.966C738.909 191.966 739.636 192.716 739.642 193.756H735.977Z" fill="#111111"/>
<g filter="url(#filter10_i)">
<rect x="648" y="205" width="28" height="7" fill="#00FFA3"/>
<path d="M720.5 212C714.977 212 709.961 218.154 704.493 218.93C704.169 218.976 703.837 219 703.5 219C703.163 219 702.831 218.976 702.507 218.93C697.039 218.154 692.023 212 686.5 212H676L676 205H731V212H720.5Z" fill="#00FFA3"/>
<rect x="731" y="205" width="28" height="7" fill="#00FFA3"/>
</g>
<g filter="url(#filter11_ii)">
<rect x="759" y="174.5" width="3.5" height="7" transform="rotate(-90 759 174.5)" fill="#00FFA3"/>
<path d="M766 174.5C766 180.023 772.154 185.039 772.93 190.507C772.976 190.831 773 191.163 773 191.5C773 191.837 772.976 192.169 772.93 192.493C772.154 197.961 766 202.977 766 208.5L759 208.5L759 174.5L766 174.5Z" fill="#00FFA3"/>
<rect x="759" y="212" width="3.5" height="7" transform="rotate(-90 759 212)" fill="#00FFA3"/>
</g>
<g filter="url(#filter12_ii)">
<path d="M309 191.5C309 191.884 308.976 192.262 308.93 192.631C308.154 198.858 302 204.571 302 210.861C302 211.49 302.51 212 303.139 212L312 212L312 171L303.139 171C302.51 171 302 171.51 302 172.139C302 178.429 308.154 184.142 308.93 190.369C308.976 190.738 309 191.116 309 191.5Z" fill="#00FFA3"/>
</g>
<g filter="url(#filter13_i)">
<rect x="312" y="171" width="80" height="10" fill="#00FFA3"/>
</g>
<g filter="url(#filter14_i)">
<path d="M418 178C418.337 178 418.669 177.976 418.993 177.93C424.461 177.154 429.477 171 435 171H444V181H392L392 171H401C406.523 171 411.539 177.154 417.007 177.93C417.331 177.976 417.663 178 418 178Z" fill="#00FFA3"/>
</g>
<g filter="url(#filter15_i)">
<rect x="444" y="171" width="80" height="10" fill="#00FFA3"/>
</g>
<rect width="212" height="24" transform="translate(312 181)" fill="#00FFA3"/>
<path d="M328.966 202.273H331.386V197.602H331.46C331.795 198.33 332.528 199.142 333.938 199.142C335.926 199.142 337.477 197.568 337.477 194.648C337.477 191.648 335.858 190.159 333.943 190.159C332.483 190.159 331.784 191.028 331.46 191.739H331.352V190.273H328.966V202.273ZM331.335 194.636C331.335 193.08 331.994 192.085 333.17 192.085C334.369 192.085 335.006 193.125 335.006 194.636C335.006 196.159 334.358 197.216 333.17 197.216C332.006 197.216 331.335 196.193 331.335 194.636ZM338.771 199H341.191V194.062C341.191 192.989 341.975 192.25 343.044 192.25C343.379 192.25 343.839 192.307 344.066 192.381V190.233C343.85 190.182 343.549 190.148 343.305 190.148C342.328 190.148 341.527 190.716 341.208 191.795H341.118V190.273H338.771V199ZM348.569 199.17C350.728 199.17 352.182 198.119 352.523 196.5L350.285 196.352C350.04 197.017 349.415 197.364 348.609 197.364C347.398 197.364 346.631 196.562 346.631 195.261V195.256H352.574V194.591C352.574 191.625 350.779 190.159 348.472 190.159C345.904 190.159 344.239 191.983 344.239 194.676C344.239 197.443 345.881 199.17 348.569 199.17ZM346.631 193.756C346.682 192.761 347.438 191.966 348.512 191.966C349.563 191.966 350.29 192.716 350.296 193.756H346.631ZM353.834 202.273H356.254V197.602H356.328C356.664 198.33 357.397 199.142 358.806 199.142C360.794 199.142 362.345 197.568 362.345 194.648C362.345 191.648 360.726 190.159 358.811 190.159C357.351 190.159 356.652 191.028 356.328 191.739H356.22V190.273H353.834V202.273ZM356.203 194.636C356.203 193.08 356.862 192.085 358.039 192.085C359.237 192.085 359.874 193.125 359.874 194.636C359.874 196.159 359.226 197.216 358.039 197.216C356.874 197.216 356.203 196.193 356.203 194.636ZM366.128 199.165C367.417 199.165 368.253 198.602 368.679 197.79H368.747V199H371.042V193.114C371.042 191.034 369.281 190.159 367.338 190.159C365.247 190.159 363.872 191.159 363.537 192.75L365.775 192.932C365.94 192.352 366.457 191.926 367.327 191.926C368.15 191.926 368.622 192.341 368.622 193.057V193.091C368.622 193.653 368.025 193.727 366.508 193.875C364.781 194.034 363.23 194.614 363.23 196.562C363.23 198.29 364.463 199.165 366.128 199.165ZM366.821 197.494C366.077 197.494 365.542 197.148 365.542 196.483C365.542 195.801 366.105 195.466 366.957 195.347C367.486 195.273 368.349 195.148 368.639 194.955V195.881C368.639 196.795 367.883 197.494 366.821 197.494ZM372.6 199H375.021V194.062C375.021 192.989 375.805 192.25 376.873 192.25C377.208 192.25 377.668 192.307 377.896 192.381V190.233C377.68 190.182 377.379 190.148 377.134 190.148C376.157 190.148 375.356 190.716 375.038 191.795H374.947V190.273H372.6V199ZM381.066 199.165C382.356 199.165 383.191 198.602 383.617 197.79H383.685V199H385.981V193.114C385.981 191.034 384.219 190.159 382.276 190.159C380.185 190.159 378.81 191.159 378.475 192.75L380.714 192.932C380.878 192.352 381.395 191.926 382.265 191.926C383.089 191.926 383.56 192.341 383.56 193.057V193.091C383.56 193.653 382.964 193.727 381.446 193.875C379.719 194.034 378.168 194.614 378.168 196.562C378.168 198.29 379.401 199.165 381.066 199.165ZM381.759 197.494C381.015 197.494 380.481 197.148 380.481 196.483C380.481 195.801 381.043 195.466 381.895 195.347C382.424 195.273 383.287 195.148 383.577 194.955V195.881C383.577 196.795 382.821 197.494 381.759 197.494ZM392.18 190.273H390.538V188.182H388.118V190.273H386.925V192.091H388.118V196.636C388.107 198.347 389.271 199.193 391.027 199.119C391.652 199.097 392.095 198.972 392.34 198.892L391.959 197.091C391.84 197.114 391.584 197.17 391.357 197.17C390.874 197.17 390.538 196.989 390.538 196.318V192.091H392.18V190.273ZM393.437 199H395.858V190.273H393.437V199ZM394.653 189.148C395.375 189.148 395.966 188.597 395.966 187.92C395.966 187.25 395.375 186.699 394.653 186.699C393.937 186.699 393.346 187.25 393.346 187.92C393.346 188.597 393.937 189.148 394.653 189.148ZM401.42 199.17C404.067 199.17 405.715 197.358 405.715 194.67C405.715 191.966 404.067 190.159 401.42 190.159C398.772 190.159 397.124 191.966 397.124 194.67C397.124 197.358 398.772 199.17 401.42 199.17ZM401.431 197.295C400.209 197.295 399.584 196.176 399.584 194.653C399.584 193.131 400.209 192.006 401.431 192.006C402.63 192.006 403.255 193.131 403.255 194.653C403.255 196.176 402.63 197.295 401.431 197.295ZM409.389 193.955C409.395 192.83 410.066 192.17 411.043 192.17C412.014 192.17 412.6 192.807 412.594 193.875V199H415.014V193.443C415.014 191.409 413.821 190.159 412.003 190.159C410.708 190.159 409.77 190.795 409.378 191.812H409.276V190.273H406.969V199H409.389V193.955ZM423.928 199.17C426.576 199.17 428.224 197.358 428.224 194.67C428.224 191.966 426.576 190.159 423.928 190.159C421.281 190.159 419.633 191.966 419.633 194.67C419.633 197.358 421.281 199.17 423.928 199.17ZM423.94 197.295C422.718 197.295 422.093 196.176 422.093 194.653C422.093 193.131 422.718 192.006 423.94 192.006C425.139 192.006 425.764 193.131 425.764 194.653C425.764 196.176 425.139 197.295 423.94 197.295ZM434.171 190.273H432.438V189.688C432.438 189.097 432.677 188.75 433.387 188.75C433.677 188.75 433.972 188.812 434.165 188.875L434.591 187.057C434.29 186.966 433.626 186.818 432.881 186.818C431.239 186.818 430.018 187.744 430.018 189.642V190.273H428.785V192.091H430.018V199H432.438V192.091H434.171V190.273ZM445.974 192.761C445.758 191.153 444.463 190.159 442.258 190.159C440.025 190.159 438.554 191.193 438.559 192.875C438.554 194.182 439.378 195.028 441.082 195.369L442.593 195.67C443.355 195.824 443.701 196.102 443.713 196.54C443.701 197.057 443.139 197.426 442.292 197.426C441.429 197.426 440.855 197.057 440.707 196.347L438.326 196.472C438.554 198.142 439.974 199.17 442.287 199.17C444.548 199.17 446.167 198.017 446.173 196.295C446.167 195.034 445.343 194.278 443.65 193.932L442.071 193.614C441.258 193.438 440.957 193.159 440.963 192.739C440.957 192.216 441.548 191.875 442.298 191.875C443.139 191.875 443.639 192.335 443.758 192.898L445.974 192.761ZM451.32 199.17C453.968 199.17 455.616 197.358 455.616 194.67C455.616 191.966 453.968 190.159 451.32 190.159C448.673 190.159 447.025 191.966 447.025 194.67C447.025 197.358 448.673 199.17 451.32 199.17ZM451.332 197.295C450.11 197.295 449.485 196.176 449.485 194.653C449.485 193.131 450.11 192.006 451.332 192.006C452.531 192.006 453.156 193.131 453.156 194.653C453.156 196.176 452.531 197.295 451.332 197.295ZM459.29 187.364H456.87V199H459.29V187.364ZM466.506 195.284C466.511 196.455 465.71 197.068 464.841 197.068C463.926 197.068 463.335 196.426 463.329 195.398V190.273H460.909V195.83C460.915 197.869 462.108 199.114 463.864 199.114C465.176 199.114 466.119 198.438 466.511 197.415H466.602V199H468.926V190.273H466.506V195.284ZM475.184 190.273H473.542V188.182H471.122V190.273H469.929V192.091H471.122V196.636C471.11 198.347 472.275 199.193 474.031 199.119C474.656 199.097 475.099 198.972 475.343 198.892L474.963 197.091C474.843 197.114 474.588 197.17 474.36 197.17C473.877 197.17 473.542 196.989 473.542 196.318V192.091H475.184V190.273ZM476.441 199H478.861V190.273H476.441V199ZM477.657 189.148C478.378 189.148 478.969 188.597 478.969 187.92C478.969 187.25 478.378 186.699 477.657 186.699C476.941 186.699 476.35 187.25 476.35 187.92C476.35 188.597 476.941 189.148 477.657 189.148ZM484.423 199.17C487.071 199.17 488.719 197.358 488.719 194.67C488.719 191.966 487.071 190.159 484.423 190.159C481.776 190.159 480.128 191.966 480.128 194.67C480.128 197.358 481.776 199.17 484.423 199.17ZM484.435 197.295C483.213 197.295 482.588 196.176 482.588 194.653C482.588 193.131 483.213 192.006 484.435 192.006C485.634 192.006 486.259 193.131 486.259 194.653C486.259 196.176 485.634 197.295 484.435 197.295ZM492.393 193.955C492.399 192.83 493.069 192.17 494.047 192.17C495.018 192.17 495.603 192.807 495.598 193.875V199H498.018V193.443C498.018 191.409 496.825 190.159 495.007 190.159C493.711 190.159 492.774 190.795 492.382 191.812H492.28V190.273H489.973V199H492.393V193.955ZM506.867 192.761C506.651 191.153 505.356 190.159 503.151 190.159C500.918 190.159 499.447 191.193 499.452 192.875C499.447 194.182 500.271 195.028 501.975 195.369L503.487 195.67C504.248 195.824 504.595 196.102 504.606 196.54C504.595 197.057 504.032 197.426 503.185 197.426C502.322 197.426 501.748 197.057 501.6 196.347L499.22 196.472C499.447 198.142 500.867 199.17 503.18 199.17C505.441 199.17 507.06 198.017 507.066 196.295C507.06 195.034 506.237 194.278 504.543 193.932L502.964 193.614C502.151 193.438 501.85 193.159 501.856 192.739C501.85 192.216 502.441 191.875 503.191 191.875C504.032 191.875 504.532 192.335 504.651 192.898L506.867 192.761Z" fill="#111111"/>
<g filter="url(#filter16_i)">
<rect x="312" y="205" width="78.5" height="7" fill="#00FFA3"/>
<path d="M435 212C429.477 212 424.461 218.154 418.993 218.93C418.669 218.976 418.337 219 418 219C417.663 219 417.331 218.976 417.007 218.93C411.539 218.154 406.523 212 401 212H390.5L390.5 205H445.5V212H435Z" fill="#00FFA3"/>
<rect x="445.5" y="205" width="78.5" height="7" fill="#00FFA3"/>
</g>
<g filter="url(#filter17_ii)">
<rect x="524" y="174.5" width="3.5" height="7" transform="rotate(-90 524 174.5)" fill="#00FFA3"/>
<path d="M531 174.5C531 180.023 537.154 185.039 537.93 190.507C537.976 190.831 538 191.163 538 191.5C538 191.837 537.976 192.169 537.93 192.493C537.154 197.961 531 202.977 531 208.5L524 208.5L524 174.5L531 174.5Z" fill="#00FFA3"/>
<rect x="524" y="212" width="3.5" height="7" transform="rotate(-90 524 212)" fill="#00FFA3"/>
</g>
<g filter="url(#filter18_ii)">
<path d="M826 191.5C826 191.884 825.976 192.262 825.93 192.631C825.154 198.858 819 204.571 819 210.861C819 211.49 819.51 212 820.139 212L829 212L829 171L820.139 171C819.51 171 819 171.51 819 172.139C819 178.429 825.154 184.142 825.93 190.369C825.976 190.738 826 191.116 826 191.5Z" fill="#00FFA3"/>
</g>
<g filter="url(#filter19_i)">
<rect x="829" y="171" width="82.5" height="10" fill="#00FFA3"/>
</g>
<g filter="url(#filter20_i)">
<path d="M937.5 178C937.837 178 938.169 177.976 938.493 177.93C943.961 177.154 948.977 171 954.5 171H963.5V181H911.5L911.5 171H920.5C926.023 171 931.039 177.154 936.507 177.93C936.831 177.976 937.163 178 937.5 178Z" fill="#00FFA3"/>
</g>
<g filter="url(#filter21_i)">
<rect x="963.5" y="171" width="82.5" height="10" fill="#00FFA3"/>
</g>
<rect width="217" height="24" transform="translate(829 181)" fill="#00FFA3"/>
<path d="M846.011 199H848.472V194.875H850.267L852.472 199H855.188L852.716 194.477C854.04 193.909 854.773 192.756 854.773 191.165C854.773 188.852 853.244 187.364 850.602 187.364H846.011V199ZM848.472 192.898V189.375H850.131C851.551 189.375 852.239 190.006 852.239 191.165C852.239 192.318 851.551 192.898 850.142 192.898H848.472ZM859.983 199.17C862.142 199.17 863.596 198.119 863.937 196.5L861.698 196.352C861.454 197.017 860.829 197.364 860.022 197.364C858.812 197.364 858.045 196.562 858.045 195.261V195.256H863.988V194.591C863.988 191.625 862.193 190.159 859.886 190.159C857.318 190.159 855.653 191.983 855.653 194.676C855.653 197.443 857.295 199.17 859.983 199.17ZM858.045 193.756C858.096 192.761 858.852 191.966 859.926 191.966C860.977 191.966 861.704 192.716 861.71 193.756H858.045ZM872.509 192.761C872.293 191.153 870.998 190.159 868.793 190.159C866.56 190.159 865.089 191.193 865.094 192.875C865.089 194.182 865.913 195.028 867.617 195.369L869.128 195.67C869.89 195.824 870.236 196.102 870.248 196.54C870.236 197.057 869.674 197.426 868.827 197.426C867.964 197.426 867.39 197.057 867.242 196.347L864.861 196.472C865.089 198.142 866.509 199.17 868.822 199.17C871.083 199.17 872.702 198.017 872.708 196.295C872.702 195.034 871.878 194.278 870.185 193.932L868.606 193.614C867.793 193.438 867.492 193.159 867.498 192.739C867.492 192.216 868.083 191.875 868.833 191.875C869.674 191.875 870.174 192.335 870.293 192.898L872.509 192.761ZM879.509 195.284C879.514 196.455 878.713 197.068 877.844 197.068C876.929 197.068 876.338 196.426 876.333 195.398V190.273H873.912V195.83C873.918 197.869 875.111 199.114 876.867 199.114C878.179 199.114 879.122 198.438 879.514 197.415H879.605V199H881.929V190.273H879.509V195.284ZM885.966 187.364H883.545V199H885.966V187.364ZM892.227 190.273H890.585V188.182H888.164V190.273H886.971V192.091H888.164V196.636C888.153 198.347 889.318 199.193 891.073 199.119C891.698 199.097 892.141 198.972 892.386 198.892L892.005 197.091C891.886 197.114 891.63 197.17 891.403 197.17C890.92 197.17 890.585 196.989 890.585 196.318V192.091H892.227V190.273ZM900.62 192.761C900.404 191.153 899.108 190.159 896.904 190.159C894.671 190.159 893.199 191.193 893.205 192.875C893.199 194.182 894.023 195.028 895.728 195.369L897.239 195.67C898 195.824 898.347 196.102 898.358 196.54C898.347 197.057 897.785 197.426 896.938 197.426C896.074 197.426 895.5 197.057 895.353 196.347L892.972 196.472C893.199 198.142 894.62 199.17 896.932 199.17C899.194 199.17 900.813 198.017 900.819 196.295C900.813 195.034 899.989 194.278 898.296 193.932L896.716 193.614C895.904 193.438 895.603 193.159 895.608 192.739C895.603 192.216 896.194 191.875 896.944 191.875C897.785 191.875 898.285 192.335 898.404 192.898L900.62 192.761ZM907.895 199.165C909.184 199.165 910.02 198.602 910.446 197.79H910.514V199H912.809V193.114C912.809 191.034 911.048 190.159 909.105 190.159C907.014 190.159 905.639 191.159 905.304 192.75L907.542 192.932C907.707 192.352 908.224 191.926 909.093 191.926C909.917 191.926 910.389 192.341 910.389 193.057V193.091C910.389 193.653 909.792 193.727 908.275 193.875C906.548 194.034 904.997 194.614 904.997 196.562C904.997 198.29 906.23 199.165 907.895 199.165ZM908.588 197.494C907.843 197.494 907.309 197.148 907.309 196.483C907.309 195.801 907.872 195.466 908.724 195.347C909.252 195.273 910.116 195.148 910.406 194.955V195.881C910.406 196.795 909.65 197.494 908.588 197.494ZM916.788 193.955C916.793 192.83 917.464 192.17 918.441 192.17C919.413 192.17 919.998 192.807 919.992 193.875V199H922.413V193.443C922.413 191.409 921.219 190.159 919.401 190.159C918.106 190.159 917.168 190.795 916.776 191.812H916.674V190.273H914.367V199H916.788V193.955ZM927.216 199.142C928.625 199.142 929.358 198.33 929.693 197.602H929.796V199H932.182V187.364H929.767V191.739H929.693C929.37 191.028 928.671 190.159 927.211 190.159C925.296 190.159 923.676 191.648 923.676 194.648C923.676 197.568 925.228 199.142 927.216 199.142ZM927.983 197.216C926.796 197.216 926.148 196.159 926.148 194.636C926.148 193.125 926.784 192.085 927.983 192.085C929.159 192.085 929.818 193.08 929.818 194.636C929.818 196.193 929.148 197.216 927.983 197.216ZM947.974 193.182C947.974 189.375 945.61 187.205 942.525 187.205C939.423 187.205 937.076 189.375 937.076 193.182C937.076 196.972 939.423 199.159 942.525 199.159C945.61 199.159 947.974 196.989 947.974 193.182ZM945.48 193.182C945.48 195.648 944.309 196.983 942.525 196.983C940.735 196.983 939.571 195.648 939.571 193.182C939.571 190.716 940.735 189.381 942.525 189.381C944.309 189.381 945.48 190.716 945.48 193.182ZM949.476 199H951.863V197.602H951.971C952.306 198.33 953.039 199.142 954.448 199.142C956.437 199.142 957.988 197.568 957.988 194.648C957.988 191.648 956.368 190.159 954.454 190.159C952.993 190.159 952.295 191.028 951.971 191.739H951.897V187.364H949.476V199ZM951.846 194.636C951.846 193.08 952.505 192.085 953.681 192.085C954.88 192.085 955.516 193.125 955.516 194.636C955.516 196.159 954.868 197.216 953.681 197.216C952.516 197.216 951.846 196.193 951.846 194.636ZM966.544 192.761C966.328 191.153 965.033 190.159 962.828 190.159C960.595 190.159 959.124 191.193 959.129 192.875C959.124 194.182 959.948 195.028 961.652 195.369L963.163 195.67C963.925 195.824 964.271 196.102 964.283 196.54C964.271 197.057 963.709 197.426 962.862 197.426C961.999 197.426 961.425 197.057 961.277 196.347L958.896 196.472C959.124 198.142 960.544 199.17 962.857 199.17C965.118 199.17 966.737 198.017 966.743 196.295C966.737 195.034 965.913 194.278 964.22 193.932L962.641 193.614C961.828 193.438 961.527 193.159 961.533 192.739C961.527 192.216 962.118 191.875 962.868 191.875C963.709 191.875 964.209 192.335 964.328 192.898L966.544 192.761ZM971.924 199.17C974.084 199.17 975.538 198.119 975.879 196.5L973.64 196.352C973.396 197.017 972.771 197.364 971.964 197.364C970.754 197.364 969.987 196.562 969.987 195.261V195.256H975.93V194.591C975.93 191.625 974.135 190.159 971.828 190.159C969.26 190.159 967.595 191.983 967.595 194.676C967.595 197.443 969.237 199.17 971.924 199.17ZM969.987 193.756C970.038 192.761 970.794 191.966 971.868 191.966C972.919 191.966 973.646 192.716 973.652 193.756H969.987ZM977.19 199H979.61V194.062C979.61 192.989 980.394 192.25 981.462 192.25C981.798 192.25 982.258 192.307 982.485 192.381V190.233C982.269 190.182 981.968 190.148 981.724 190.148C980.746 190.148 979.945 190.716 979.627 191.795H979.536V190.273H977.19V199ZM991.819 190.273H989.256L987.449 196.517H987.358L985.546 190.273H982.989L986.04 199H988.767L991.819 190.273ZM994.976 199.165C996.266 199.165 997.101 198.602 997.527 197.79H997.595V199H999.891V193.114C999.891 191.034 998.129 190.159 996.186 190.159C994.095 190.159 992.72 191.159 992.385 192.75L994.624 192.932C994.788 192.352 995.305 191.926 996.175 191.926C996.999 191.926 997.47 192.341 997.47 193.057V193.091C997.47 193.653 996.874 193.727 995.356 193.875C993.629 194.034 992.078 194.614 992.078 196.562C992.078 198.29 993.311 199.165 994.976 199.165ZM995.669 197.494C994.925 197.494 994.391 197.148 994.391 196.483C994.391 195.801 994.953 195.466 995.805 195.347C996.334 195.273 997.197 195.148 997.487 194.955V195.881C997.487 196.795 996.731 197.494 995.669 197.494ZM1006.09 190.273H1004.45V188.182H1002.03V190.273H1000.83V192.091H1002.03V196.636C1002.02 198.347 1003.18 199.193 1004.94 199.119C1005.56 199.097 1006.01 198.972 1006.25 198.892L1005.87 197.091C1005.75 197.114 1005.49 197.17 1005.27 197.17C1004.78 197.17 1004.45 196.989 1004.45 196.318V192.091H1006.09V190.273ZM1007.35 199H1009.77V190.273H1007.35V199ZM1008.56 189.148C1009.28 189.148 1009.88 188.597 1009.88 187.92C1009.88 187.25 1009.28 186.699 1008.56 186.699C1007.85 186.699 1007.26 187.25 1007.26 187.92C1007.26 188.597 1007.85 189.148 1008.56 189.148ZM1015.33 199.17C1017.98 199.17 1019.63 197.358 1019.63 194.67C1019.63 191.966 1017.98 190.159 1015.33 190.159C1012.68 190.159 1011.03 191.966 1011.03 194.67C1011.03 197.358 1012.68 199.17 1015.33 199.17ZM1015.34 197.295C1014.12 197.295 1013.49 196.176 1013.49 194.653C1013.49 193.131 1014.12 192.006 1015.34 192.006C1016.54 192.006 1017.16 193.131 1017.16 194.653C1017.16 196.176 1016.54 197.295 1015.34 197.295ZM1023.3 193.955C1023.31 192.83 1023.98 192.17 1024.95 192.17C1025.92 192.17 1026.51 192.807 1026.5 193.875V199H1028.92V193.443C1028.92 191.409 1027.73 190.159 1025.91 190.159C1024.62 190.159 1023.68 190.795 1023.29 191.812H1023.19V190.273H1020.88V199H1023.3V193.955Z" fill="#111111"/>
<g filter="url(#filter22_i)">
<rect x="829" y="205" width="81" height="7" fill="#00FFA3"/>
<path d="M954.5 212C948.977 212 943.961 218.154 938.493 218.93C938.169 218.976 937.837 219 937.5 219C937.163 219 936.831 218.976 936.507 218.93C931.039 218.154 926.023 212 920.5 212H910L910 205H965V212H954.5Z" fill="#00FFA3"/>
<rect x="965" y="205" width="81" height="7" fill="#00FFA3"/>
</g>
<g filter="url(#filter23_ii)">
<rect x="1046" y="174.5" width="3.5" height="7" transform="rotate(-90 1046 174.5)" fill="#00FFA3"/>
<path d="M1053 174.5C1053 180.023 1059.15 185.039 1059.93 190.507C1059.98 190.831 1060 191.163 1060 191.5C1060 191.837 1059.98 192.169 1059.93 192.493C1059.15 197.961 1053 202.977 1053 208.5L1046 208.5L1046 174.5L1053 174.5Z" fill="#00FFA3"/>
<rect x="1046" y="212" width="3.5" height="7" transform="rotate(-90 1046 212)" fill="#00FFA3"/>
</g>
<defs>
<filter id="filter0_ii" x="43" y="171" width="10" height="41" filterUnits="userSpaceOnUse" color-interpolation-filters="sRGB">
<feFlood flood-opacity="0" result="BackgroundImageFix"/>
<feBlend mode="normal" in="SourceGraphic" in2="BackgroundImageFix" result="shape"/>
<feColorMatrix in="SourceAlpha" type="matrix" values="0 0 0 0 0 0 0 0 0 0 0 0 0 0 0 0 0 0 127 0" result="hardAlpha"/>
<feOffset dy="1"/>
<feComposite in2="hardAlpha" operator="arithmetic" k2="-1" k3="1"/>
<feColorMatrix type="matrix" values="0 0 0 0 1 0 0 0 0 1 0 0 0 0 1 0 0 0 0.5 0"/>
<feBlend mode="normal" in2="shape" result="effect1_innerShadow"/>
<feColorMatrix in="SourceAlpha" type="matrix" values="0 0 0 0 0 0 0 0 0 0 0 0 0 0 0 0 0 0 127 0" result="hardAlpha"/>
<feOffset dy="-1"/>
<feComposite in2="hardAlpha" operator="arithmetic" k2="-1" k3="1"/>
<feColorMatrix type="matrix" values="0 0 0 0 0 0 0 0 0 0 0 0 0 0 0 0 0 0 0.25 0"/>
<feBlend mode="normal" in2="effect1_innerShadow" result="effect2_innerShadow"/>
</filter>
<filter id="filter1_i" x="53" y="171" width="36.5" height="10" filterUnits="userSpaceOnUse" color-interpolation-filters="sRGB">
<feFlood flood-opacity="0" result="BackgroundImageFix"/>
<feBlend mode="normal" in="SourceGraphic" in2="BackgroundImageFix" result="shape"/>
<feColorMatrix in="SourceAlpha" type="matrix" values="0 0 0 0 0 0 0 0 0 0 0 0 0 0 0 0 0 0 127 0" result="hardAlpha"/>
<feOffset dy="1"/>
<feComposite in2="hardAlpha" operator="arithmetic" k2="-1" k3="1"/>
<feColorMatrix type="matrix" values="0 0 0 0 1 0 0 0 0 1 0 0 0 0 1 0 0 0 0.5 0"/>
<feBlend mode="normal" in2="shape" result="effect1_innerShadow"/>
</filter>
<filter id="filter2_i" x="89.5" y="171" width="52" height="10" filterUnits="userSpaceOnUse" color-interpolation-filters="sRGB">
<feFlood flood-opacity="0" result="BackgroundImageFix"/>
<feBlend mode="normal" in="SourceGraphic" in2="BackgroundImageFix" result="shape"/>
<feColorMatrix in="SourceAlpha" type="matrix" values="0 0 0 0 0 0 0 0 0 0 0 0 0 0 0 0 0 0 127 0" result="hardAlpha"/>
<feOffset dy="1"/>
<feComposite in2="hardAlpha" operator="arithmetic" k2="-1" k3="1"/>
<feColorMatrix type="matrix" values="0 0 0 0 1 0 0 0 0 1 0 0 0 0 1 0 0 0 0.5 0"/>
<feBlend mode="normal" in2="shape" result="effect1_innerShadow"/>
</filter>
<filter id="filter3_i" x="141.5" y="171" width="36.5" height="10" filterUnits="userSpaceOnUse" color-interpolation-filters="sRGB">
<feFlood flood-opacity="0" result="BackgroundImageFix"/>
<feBlend mode="normal" in="SourceGraphic" in2="BackgroundImageFix" result="shape"/>
<feColorMatrix in="SourceAlpha" type="matrix" values="0 0 0 0 0 0 0 0 0 0 0 0 0 0 0 0 0 0 127 0" result="hardAlpha"/>
<feOffset dy="1"/>
<feComposite in2="hardAlpha" operator="arithmetic" k2="-1" k3="1"/>
<feColorMatrix type="matrix" values="0 0 0 0 1 0 0 0 0 1 0 0 0 0 1 0 0 0 0.5 0"/>
<feBlend mode="normal" in2="shape" result="effect1_innerShadow"/>
</filter>
<filter id="filter4_i" x="53" y="205" width="125" height="14" filterUnits="userSpaceOnUse" color-interpolation-filters="sRGB">
<feFlood flood-opacity="0" result="BackgroundImageFix"/>
<feBlend mode="normal" in="SourceGraphic" in2="BackgroundImageFix" result="shape"/>
<feColorMatrix in="SourceAlpha" type="matrix" values="0 0 0 0 0 0 0 0 0 0 0 0 0 0 0 0 0 0 127 0" result="hardAlpha"/>
<feOffset dy="-1"/>
<feComposite in2="hardAlpha" operator="arithmetic" k2="-1" k3="1"/>
<feColorMatrix type="matrix" values="0 0 0 0 0 0 0 0 0 0 0 0 0 0 0 0 0 0 0.25 0"/>
<feBlend mode="normal" in2="shape" result="effect1_innerShadow"/>
</filter>
<filter id="filter5_ii" x="178" y="171" width="14" height="41" filterUnits="userSpaceOnUse" color-interpolation-filters="sRGB">
<feFlood flood-opacity="0" result="BackgroundImageFix"/>
<feBlend mode="normal" in="SourceGraphic" in2="BackgroundImageFix" result="shape"/>
<feColorMatrix in="SourceAlpha" type="matrix" values="0 0 0 0 0 0 0 0 0 0 0 0 0 0 0 0 0 0 127 0" result="hardAlpha"/>
<feOffset dy="1"/>
<feComposite in2="hardAlpha" operator="arithmetic" k2="-1" k3="1"/>
<feColorMatrix type="matrix" values="0 0 0 0 1 0 0 0 0 1 0 0 0 0 1 0 0 0 0.5 0"/>
<feBlend mode="normal" in2="shape" result="effect1_innerShadow"/>
<feColorMatrix in="SourceAlpha" type="matrix" values="0 0 0 0 0 0 0 0 0 0 0 0 0 0 0 0 0 0 127 0" result="hardAlpha"/>
<feOffset dy="-1"/>
<feComposite in2="hardAlpha" operator="arithmetic" k2="-1" k3="1"/>
<feColorMatrix type="matrix" values="0 0 0 0 0 0 0 0 0 0 0 0 0 0 0 0 0 0 0.25 0"/>
<feBlend mode="normal" in2="effect1_innerShadow" result="effect2_innerShadow"/>
</filter>
<filter id="filter6_ii" x="638" y="171" width="10" height="41" filterUnits="userSpaceOnUse" color-interpolation-filters="sRGB">
<feFlood flood-opacity="0" result="BackgroundImageFix"/>
<feBlend mode="normal" in="SourceGraphic" in2="BackgroundImageFix" result="shape"/>
<feColorMatrix in="SourceAlpha" type="matrix" values="0 0 0 0 0 0 0 0 0 0 0 0 0 0 0 0 0 0 127 0" result="hardAlpha"/>
<feOffset dy="1"/>
<feComposite in2="hardAlpha" operator="arithmetic" k2="-1" k3="1"/>
<feColorMatrix type="matrix" values="0 0 0 0 1 0 0 0 0 1 0 0 0 0 1 0 0 0 0.5 0"/>
<feBlend mode="normal" in2="shape" result="effect1_innerShadow"/>
<feColorMatrix in="SourceAlpha" type="matrix" values="0 0 0 0 0 0 0 0 0 0 0 0 0 0 0 0 0 0 127 0" result="hardAlpha"/>
<feOffset dy="-1"/>
<feComposite in2="hardAlpha" operator="arithmetic" k2="-1" k3="1"/>
<feColorMatrix type="matrix" values="0 0 0 0 0 0 0 0 0 0 0 0 0 0 0 0 0 0 0.25 0"/>
<feBlend mode="normal" in2="effect1_innerShadow" result="effect2_innerShadow"/>
</filter>
<filter id="filter7_i" x="648" y="171" width="29.5" height="10" filterUnits="userSpaceOnUse" color-interpolation-filters="sRGB">
<feFlood flood-opacity="0" result="BackgroundImageFix"/>
<feBlend mode="normal" in="SourceGraphic" in2="BackgroundImageFix" result="shape"/>
<feColorMatrix in="SourceAlpha" type="matrix" values="0 0 0 0 0 0 0 0 0 0 0 0 0 0 0 0 0 0 127 0" result="hardAlpha"/>
<feOffset dy="1"/>
<feComposite in2="hardAlpha" operator="arithmetic" k2="-1" k3="1"/>
<feColorMatrix type="matrix" values="0 0 0 0 1 0 0 0 0 1 0 0 0 0 1 0 0 0 0.5 0"/>
<feBlend mode="normal" in2="shape" result="effect1_innerShadow"/>
</filter>
<filter id="filter8_i" x="677.5" y="171" width="52" height="10" filterUnits="userSpaceOnUse" color-interpolation-filters="sRGB">
<feFlood flood-opacity="0" result="BackgroundImageFix"/>
<feBlend mode="normal" in="SourceGraphic" in2="BackgroundImageFix" result="shape"/>
<feColorMatrix in="SourceAlpha" type="matrix" values="0 0 0 0 0 0 0 0 0 0 0 0 0 0 0 0 0 0 127 0" result="hardAlpha"/>
<feOffset dy="1"/>
<feComposite in2="hardAlpha" operator="arithmetic" k2="-1" k3="1"/>
<feColorMatrix type="matrix" values="0 0 0 0 1 0 0 0 0 1 0 0 0 0 1 0 0 0 0.5 0"/>
<feBlend mode="normal" in2="shape" result="effect1_innerShadow"/>
</filter>
<filter id="filter9_i" x="729.5" y="171" width="29.5" height="10" filterUnits="userSpaceOnUse" color-interpolation-filters="sRGB">
<feFlood flood-opacity="0" result="BackgroundImageFix"/>
<feBlend mode="normal" in="SourceGraphic" in2="BackgroundImageFix" result="shape"/>
<feColorMatrix in="SourceAlpha" type="matrix" values="0 0 0 0 0 0 0 0 0 0 0 0 0 0 0 0 0 0 127 0" result="hardAlpha"/>
<feOffset dy="1"/>
<feComposite in2="hardAlpha" operator="arithmetic" k2="-1" k3="1"/>
<feColorMatrix type="matrix" values="0 0 0 0 1 0 0 0 0 1 0 0 0 0 1 0 0 0 0.5 0"/>
<feBlend mode="normal" in2="shape" result="effect1_innerShadow"/>
</filter>
<filter id="filter10_i" x="648" y="205" width="111" height="14" filterUnits="userSpaceOnUse" color-interpolation-filters="sRGB">
<feFlood flood-opacity="0" result="BackgroundImageFix"/>
<feBlend mode="normal" in="SourceGraphic" in2="BackgroundImageFix" result="shape"/>
<feColorMatrix in="SourceAlpha" type="matrix" values="0 0 0 0 0 0 0 0 0 0 0 0 0 0 0 0 0 0 127 0" result="hardAlpha"/>
<feOffset dy="-1"/>
<feComposite in2="hardAlpha" operator="arithmetic" k2="-1" k3="1"/>
<feColorMatrix type="matrix" values="0 0 0 0 0 0 0 0 0 0 0 0 0 0 0 0 0 0 0.25 0"/>
<feBlend mode="normal" in2="shape" result="effect1_innerShadow"/>
</filter>
<filter id="filter11_ii" x="759" y="171" width="14" height="41" filterUnits="userSpaceOnUse" color-interpolation-filters="sRGB">
<feFlood flood-opacity="0" result="BackgroundImageFix"/>
<feBlend mode="normal" in="SourceGraphic" in2="BackgroundImageFix" result="shape"/>
<feColorMatrix in="SourceAlpha" type="matrix" values="0 0 0 0 0 0 0 0 0 0 0 0 0 0 0 0 0 0 127 0" result="hardAlpha"/>
<feOffset dy="1"/>
<feComposite in2="hardAlpha" operator="arithmetic" k2="-1" k3="1"/>
<feColorMatrix type="matrix" values="0 0 0 0 1 0 0 0 0 1 0 0 0 0 1 0 0 0 0.5 0"/>
<feBlend mode="normal" in2="shape" result="effect1_innerShadow"/>
<feColorMatrix in="SourceAlpha" type="matrix" values="0 0 0 0 0 0 0 0 0 0 0 0 0 0 0 0 0 0 127 0" result="hardAlpha"/>
<feOffset dy="-1"/>
<feComposite in2="hardAlpha" operator="arithmetic" k2="-1" k3="1"/>
<feColorMatrix type="matrix" values="0 0 0 0 0 0 0 0 0 0 0 0 0 0 0 0 0 0 0.25 0"/>
<feBlend mode="normal" in2="effect1_innerShadow" result="effect2_innerShadow"/>
</filter>
<filter id="filter12_ii" x="302" y="171" width="10" height="41" filterUnits="userSpaceOnUse" color-interpolation-filters="sRGB">
<feFlood flood-opacity="0" result="BackgroundImageFix"/>
<feBlend mode="normal" in="SourceGraphic" in2="BackgroundImageFix" result="shape"/>
<feColorMatrix in="SourceAlpha" type="matrix" values="0 0 0 0 0 0 0 0 0 0 0 0 0 0 0 0 0 0 127 0" result="hardAlpha"/>
<feOffset dy="1"/>
<feComposite in2="hardAlpha" operator="arithmetic" k2="-1" k3="1"/>
<feColorMatrix type="matrix" values="0 0 0 0 1 0 0 0 0 1 0 0 0 0 1 0 0 0 0.5 0"/>
<feBlend mode="normal" in2="shape" result="effect1_innerShadow"/>
<feColorMatrix in="SourceAlpha" type="matrix" values="0 0 0 0 0 0 0 0 0 0 0 0 0 0 0 0 0 0 127 0" result="hardAlpha"/>
<feOffset dy="-1"/>
<feComposite in2="hardAlpha" operator="arithmetic" k2="-1" k3="1"/>
<feColorMatrix type="matrix" values="0 0 0 0 0 0 0 0 0 0 0 0 0 0 0 0 0 0 0.25 0"/>
<feBlend mode="normal" in2="effect1_innerShadow" result="effect2_innerShadow"/>
</filter>
<filter id="filter13_i" x="312" y="171" width="80" height="10" filterUnits="userSpaceOnUse" color-interpolation-filters="sRGB">
<feFlood flood-opacity="0" result="BackgroundImageFix"/>
<feBlend mode="normal" in="SourceGraphic" in2="BackgroundImageFix" result="shape"/>
<feColorMatrix in="SourceAlpha" type="matrix" values="0 0 0 0 0 0 0 0 0 0 0 0 0 0 0 0 0 0 127 0" result="hardAlpha"/>
<feOffset dy="1"/>
<feComposite in2="hardAlpha" operator="arithmetic" k2="-1" k3="1"/>
<feColorMatrix type="matrix" values="0 0 0 0 1 0 0 0 0 1 0 0 0 0 1 0 0 0 0.5 0"/>
<feBlend mode="normal" in2="shape" result="effect1_innerShadow"/>
</filter>
<filter id="filter14_i" x="392" y="171" width="52" height="10" filterUnits="userSpaceOnUse" color-interpolation-filters="sRGB">
<feFlood flood-opacity="0" result="BackgroundImageFix"/>
<feBlend mode="normal" in="SourceGraphic" in2="BackgroundImageFix" result="shape"/>
<feColorMatrix in="SourceAlpha" type="matrix" values="0 0 0 0 0 0 0 0 0 0 0 0 0 0 0 0 0 0 127 0" result="hardAlpha"/>
<feOffset dy="1"/>
<feComposite in2="hardAlpha" operator="arithmetic" k2="-1" k3="1"/>
<feColorMatrix type="matrix" values="0 0 0 0 1 0 0 0 0 1 0 0 0 0 1 0 0 0 0.5 0"/>
<feBlend mode="normal" in2="shape" result="effect1_innerShadow"/>
</filter>
<filter id="filter15_i" x="444" y="171" width="80" height="10" filterUnits="userSpaceOnUse" color-interpolation-filters="sRGB">
<feFlood flood-opacity="0" result="BackgroundImageFix"/>
<feBlend mode="normal" in="SourceGraphic" in2="BackgroundImageFix" result="shape"/>
<feColorMatrix in="SourceAlpha" type="matrix" values="0 0 0 0 0 0 0 0 0 0 0 0 0 0 0 0 0 0 127 0" result="hardAlpha"/>
<feOffset dy="1"/>
<feComposite in2="hardAlpha" operator="arithmetic" k2="-1" k3="1"/>
<feColorMatrix type="matrix" values="0 0 0 0 1 0 0 0 0 1 0 0 0 0 1 0 0 0 0.5 0"/>
<feBlend mode="normal" in2="shape" result="effect1_innerShadow"/>
</filter>
<filter id="filter16_i" x="312" y="205" width="212" height="14" filterUnits="userSpaceOnUse" color-interpolation-filters="sRGB">
<feFlood flood-opacity="0" result="BackgroundImageFix"/>
<feBlend mode="normal" in="SourceGraphic" in2="BackgroundImageFix" result="shape"/>
<feColorMatrix in="SourceAlpha" type="matrix" values="0 0 0 0 0 0 0 0 0 0 0 0 0 0 0 0 0 0 127 0" result="hardAlpha"/>
<feOffset dy="-1"/>
<feComposite in2="hardAlpha" operator="arithmetic" k2="-1" k3="1"/>
<feColorMatrix type="matrix" values="0 0 0 0 0 0 0 0 0 0 0 0 0 0 0 0 0 0 0.25 0"/>
<feBlend mode="normal" in2="shape" result="effect1_innerShadow"/>
</filter>
<filter id="filter17_ii" x="524" y="171" width="14" height="41" filterUnits="userSpaceOnUse" color-interpolation-filters="sRGB">
<feFlood flood-opacity="0" result="BackgroundImageFix"/>
<feBlend mode="normal" in="SourceGraphic" in2="BackgroundImageFix" result="shape"/>
<feColorMatrix in="SourceAlpha" type="matrix" values="0 0 0 0 0 0 0 0 0 0 0 0 0 0 0 0 0 0 127 0" result="hardAlpha"/>
<feOffset dy="1"/>
<feComposite in2="hardAlpha" operator="arithmetic" k2="-1" k3="1"/>
<feColorMatrix type="matrix" values="0 0 0 0 1 0 0 0 0 1 0 0 0 0 1 0 0 0 0.5 0"/>
<feBlend mode="normal" in2="shape" result="effect1_innerShadow"/>
<feColorMatrix in="SourceAlpha" type="matrix" values="0 0 0 0 0 0 0 0 0 0 0 0 0 0 0 0 0 0 127 0" result="hardAlpha"/>
<feOffset dy="-1"/>
<feComposite in2="hardAlpha" operator="arithmetic" k2="-1" k3="1"/>
<feColorMatrix type="matrix" values="0 0 0 0 0 0 0 0 0 0 0 0 0 0 0 0 0 0 0.25 0"/>
<feBlend mode="normal" in2="effect1_innerShadow" result="effect2_innerShadow"/>
</filter>
<filter id="filter18_ii" x="819" y="171" width="10" height="41" filterUnits="userSpaceOnUse" color-interpolation-filters="sRGB">
<feFlood flood-opacity="0" result="BackgroundImageFix"/>
<feBlend mode="normal" in="SourceGraphic" in2="BackgroundImageFix" result="shape"/>
<feColorMatrix in="SourceAlpha" type="matrix" values="0 0 0 0 0 0 0 0 0 0 0 0 0 0 0 0 0 0 127 0" result="hardAlpha"/>
<feOffset dy="1"/>
<feComposite in2="hardAlpha" operator="arithmetic" k2="-1" k3="1"/>
<feColorMatrix type="matrix" values="0 0 0 0 1 0 0 0 0 1 0 0 0 0 1 0 0 0 0.5 0"/>
<feBlend mode="normal" in2="shape" result="effect1_innerShadow"/>
<feColorMatrix in="SourceAlpha" type="matrix" values="0 0 0 0 0 0 0 0 0 0 0 0 0 0 0 0 0 0 127 0" result="hardAlpha"/>
<feOffset dy="-1"/>
<feComposite in2="hardAlpha" operator="arithmetic" k2="-1" k3="1"/>
<feColorMatrix type="matrix" values="0 0 0 0 0 0 0 0 0 0 0 0 0 0 0 0 0 0 0.25 0"/>
<feBlend mode="normal" in2="effect1_innerShadow" result="effect2_innerShadow"/>
</filter>
<filter id="filter19_i" x="829" y="171" width="82.5" height="10" filterUnits="userSpaceOnUse" color-interpolation-filters="sRGB">
<feFlood flood-opacity="0" result="BackgroundImageFix"/>
<feBlend mode="normal" in="SourceGraphic" in2="BackgroundImageFix" result="shape"/>
<feColorMatrix in="SourceAlpha" type="matrix" values="0 0 0 0 0 0 0 0 0 0 0 0 0 0 0 0 0 0 127 0" result="hardAlpha"/>
<feOffset dy="1"/>
<feComposite in2="hardAlpha" operator="arithmetic" k2="-1" k3="1"/>
<feColorMatrix type="matrix" values="0 0 0 0 1 0 0 0 0 1 0 0 0 0 1 0 0 0 0.5 0"/>
<feBlend mode="normal" in2="shape" result="effect1_innerShadow"/>
</filter>
<filter id="filter20_i" x="911.5" y="171" width="52" height="10" filterUnits="userSpaceOnUse" color-interpolation-filters="sRGB">
<feFlood flood-opacity="0" result="BackgroundImageFix"/>
<feBlend mode="normal" in="SourceGraphic" in2="BackgroundImageFix" result="shape"/>
<feColorMatrix in="SourceAlpha" type="matrix" values="0 0 0 0 0 0 0 0 0 0 0 0 0 0 0 0 0 0 127 0" result="hardAlpha"/>
<feOffset dy="1"/>
<feComposite in2="hardAlpha" operator="arithmetic" k2="-1" k3="1"/>
<feColorMatrix type="matrix" values="0 0 0 0 1 0 0 0 0 1 0 0 0 0 1 0 0 0 0.5 0"/>
<feBlend mode="normal" in2="shape" result="effect1_innerShadow"/>
</filter>
<filter id="filter21_i" x="963.5" y="171" width="82.5" height="10" filterUnits="userSpaceOnUse" color-interpolation-filters="sRGB">
<feFlood flood-opacity="0" result="BackgroundImageFix"/>
<feBlend mode="normal" in="SourceGraphic" in2="BackgroundImageFix" result="shape"/>
<feColorMatrix in="SourceAlpha" type="matrix" values="0 0 0 0 0 0 0 0 0 0 0 0 0 0 0 0 0 0 127 0" result="hardAlpha"/>
<feOffset dy="1"/>
<feComposite in2="hardAlpha" operator="arithmetic" k2="-1" k3="1"/>
<feColorMatrix type="matrix" values="0 0 0 0 1 0 0 0 0 1 0 0 0 0 1 0 0 0 0.5 0"/>
<feBlend mode="normal" in2="shape" result="effect1_innerShadow"/>
</filter>
<filter id="filter22_i" x="829" y="205" width="217" height="14" filterUnits="userSpaceOnUse" color-interpolation-filters="sRGB">
<feFlood flood-opacity="0" result="BackgroundImageFix"/>
<feBlend mode="normal" in="SourceGraphic" in2="BackgroundImageFix" result="shape"/>
<feColorMatrix in="SourceAlpha" type="matrix" values="0 0 0 0 0 0 0 0 0 0 0 0 0 0 0 0 0 0 127 0" result="hardAlpha"/>
<feOffset dy="-1"/>
<feComposite in2="hardAlpha" operator="arithmetic" k2="-1" k3="1"/>
<feColorMatrix type="matrix" values="0 0 0 0 0 0 0 0 0 0 0 0 0 0 0 0 0 0 0.25 0"/>
<feBlend mode="normal" in2="shape" result="effect1_innerShadow"/>
</filter>
<filter id="filter23_ii" x="1046" y="171" width="14" height="41" filterUnits="userSpaceOnUse" color-interpolation-filters="sRGB">
<feFlood flood-opacity="0" result="BackgroundImageFix"/>
<feBlend mode="normal" in="SourceGraphic" in2="BackgroundImageFix" result="shape"/>
<feColorMatrix in="SourceAlpha" type="matrix" values="0 0 0 0 0 0 0 0 0 0 0 0 0 0 0 0 0 0 127 0" result="hardAlpha"/>
<feOffset dy="1"/>
<feComposite in2="hardAlpha" operator="arithmetic" k2="-1" k3="1"/>
<feColorMatrix type="matrix" values="0 0 0 0 1 0 0 0 0 1 0 0 0 0 1 0 0 0 0.5 0"/>
<feBlend mode="normal" in2="shape" result="effect1_innerShadow"/>
<feColorMatrix in="SourceAlpha" type="matrix" values="0 0 0 0 0 0 0 0 0 0 0 0 0 0 0 0 0 0 127 0" result="hardAlpha"/>
<feOffset dy="-1"/>
<feComposite in2="hardAlpha" operator="arithmetic" k2="-1" k3="1"/>
<feColorMatrix type="matrix" values="0 0 0 0 0 0 0 0 0 0 0 0 0 0 0 0 0 0 0.25 0"/>
<feBlend mode="normal" in2="effect1_innerShadow" result="effect2_innerShadow"/>
</filter>
</defs>
</svg>
