<svg width="346" height="180" viewBox="0 0 346 180" fill="none" xmlns="http://www.w3.org/2000/svg">
<rect width="346" height="180" fill="#111111"/>
<path d="M63.4118 56.4067C64.0093 56.4067 64.2706 58.2083 64.196 61.8117C64.1399 65.3963 64.1119 67.9355 64.1119 69.4291H64.168L65.8483 69.177C66.3897 69.2517 66.6604 69.5224 66.6604 69.9892C66.6604 70.6239 66.0723 70.9413 64.8961 70.9413L64.168 71.1934L64.42 80.5751C64.3453 81.2099 64.0559 81.5273 63.5518 81.5273C62.9544 81.5273 62.6557 81.0885 62.6557 80.211V77.9986L62.5997 71.7535L62.4876 71.4734L61.2554 71.5574C60.7327 71.4454 60.4713 71.156 60.4713 70.6893C60.4713 70.1105 61.1154 69.8211 62.4036 69.8211V69.7091C62.4036 67.3193 62.441 63.1466 62.5157 57.1908C62.5157 56.7241 62.8144 56.4627 63.4118 56.4067ZM69.0969 53.7182C69.5076 53.7182 69.7503 54.0449 69.825 54.6984V56.2666C69.825 60.0567 69.797 65.0976 69.741 71.3894C70.4318 70.6986 71.0759 70.3532 71.6733 70.3532C73.1856 70.3532 74.1658 71.9962 74.6139 75.2821C74.6699 77.7279 74.8099 79.847 75.0339 81.6393C75.0339 81.9567 74.7352 82.2461 74.1378 82.5075C73.503 82.1901 73.1856 81.8447 73.1856 81.4713L73.2976 81.3873V81.2752C73.0176 75.6369 72.7189 72.8177 72.4015 72.8177C72.1774 72.3696 71.972 72.1082 71.7853 72.0335H71.5053C70.5718 72.855 70.105 73.8539 70.105 75.0301L70.1611 81.0512C69.937 81.5926 69.6476 81.8633 69.2929 81.8633C68.6768 81.8633 68.2847 81.0045 68.1167 79.2869C68.2474 78.148 68.3127 77.1678 68.3127 76.3463V76.2623L68.2567 76.1783L68.3127 76.0943V75.3942L68.4807 62.5958C68.2567 60.5048 68.1447 58.451 68.1447 56.4347V54.7544C68.182 54.0636 68.4994 53.7182 69.0969 53.7182ZM79.0387 70.8293C80.0842 70.8293 80.7937 71.7722 81.1671 73.6578C80.6816 75.7676 79.6828 76.8224 78.1705 76.8224H78.0585V76.9064C78.3572 78.6054 79.1507 79.4549 80.4389 79.4549C81.4284 79.4549 82.2313 78.6054 82.8474 76.9064L83.4635 76.6544C83.8742 76.6544 84.1356 76.9718 84.2476 77.6066C84.2476 78.7641 83.3421 79.8563 81.5311 80.8832L80.1869 81.1352C78.5813 81.1352 77.377 79.987 76.5742 77.6906C76.3502 76.7757 76.2382 76.0196 76.2382 75.4222V75.0581C76.2382 73.1537 77.0316 71.7722 78.6186 70.9133L79.0387 70.8293ZM78.0025 74.358V74.414L78.6186 75.0581C78.8987 75.0581 79.16 74.6754 79.4027 73.9099V73.4618C79.3094 72.883 79.188 72.5936 79.0387 72.5936H78.8706C78.5906 72.5936 78.3012 73.1817 78.0025 74.358ZM88.6724 71.1654C90.2781 71.7442 91.1276 73.5178 91.2209 76.4864V76.6544C91.1462 79.1375 90.5021 80.6591 89.2886 81.2192L88.5044 81.3312C86.5067 80.8458 85.5079 79.3429 85.5079 76.8224V76.7384C85.5079 74.0126 86.3854 72.1922 88.1403 71.2774L88.6724 71.1654ZM87.1602 76.4864V77.1025C87.3655 78.8575 87.907 79.7349 88.7845 79.7349C89.2886 79.1748 89.5406 78.092 89.5406 76.4864V76.3183C89.4473 74.3206 89.1299 73.2284 88.5884 73.0417C87.6363 73.4711 87.1602 74.6193 87.1602 76.4864ZM93.0412 69.5691C93.5453 69.5691 93.9281 70.1759 94.1895 71.3894H94.2735C94.9829 70.5493 95.7484 70.1292 96.5699 70.1292C97.9141 70.3719 98.5863 70.792 98.5863 71.3894C98.4182 71.9122 98.1288 72.1736 97.7181 72.1736L96.6539 71.8375H96.3739C95.2723 72.0429 94.7216 74.3113 94.7216 78.6427V79.959C94.6095 80.5378 94.3482 80.8271 93.9374 80.8271C93.34 80.8271 93.0412 80.4724 93.0412 79.763V76.5144C93.0412 74.1246 92.7425 72.0335 92.1451 70.2412C92.2944 69.7931 92.5932 69.5691 93.0412 69.5691ZM100.183 71.0254C100.761 71.0254 101.051 71.9028 101.051 73.6578V75.3661C101.051 77.5879 101.527 78.6988 102.479 78.6988H102.563C103.216 78.0453 103.543 77.1678 103.543 76.0663V72.7897C103.543 72.1176 103.954 71.6508 104.775 71.3894H105.111C105.522 71.7068 105.728 71.9682 105.728 72.1736L105.223 76.2343L105.307 83.2636V84.6078C105.307 91.5531 104.103 95.5485 101.695 96.594L100.995 96.7901C99.6131 96.7901 98.4369 95.7912 97.4661 93.7935L96.4859 90.797C96.6539 90.3116 96.9153 90.0688 97.27 90.0688H97.5221C97.8768 90.0688 98.3809 91.189 99.0343 93.4295C99.6878 94.531 100.304 95.0818 100.883 95.0818C102.47 95.0818 103.412 91.6465 103.711 84.7759V83.0115L103.599 80.099L102.367 80.3791C100.631 80.3791 99.6318 78.6708 99.3704 75.2541L99.2864 71.6415C99.4544 71.2307 99.7531 71.0254 100.183 71.0254Z" fill="#00FFA3"/>
<path d="M210.323 147.28C210.797 147.128 211.465 148.489 212.327 151.363C213.2 154.218 213.827 156.237 214.209 157.421L214.253 157.406L215.52 156.777C215.969 156.698 216.252 156.843 216.372 157.213C216.534 157.716 216.149 158.118 215.217 158.419L214.705 158.805L217.304 166.174C217.407 166.697 217.259 167.022 216.86 167.151C216.386 167.304 216.037 167.033 215.813 166.337L215.247 164.584L213.605 159.65L213.445 159.456L212.49 159.838C212.047 159.883 211.766 159.721 211.646 159.351C211.498 158.892 211.935 158.498 212.956 158.168L212.927 158.08C212.316 156.186 211.278 152.87 209.814 148.131C209.694 147.761 209.864 147.478 210.323 147.28ZM214.141 143.696C214.466 143.591 214.742 143.788 214.968 144.286L215.369 145.529C216.339 148.532 217.606 152.534 219.171 157.534C219.542 156.81 219.964 156.372 220.437 156.219C221.636 155.832 222.833 156.883 224.028 159.373C224.698 161.296 225.351 162.94 225.987 164.303C226.068 164.554 225.906 164.86 225.499 165.22C224.915 165.131 224.575 164.938 224.479 164.643L224.547 164.547L224.518 164.459C222.854 160.062 221.896 157.905 221.645 157.986C221.353 157.688 221.123 157.533 220.956 157.522L220.734 157.594C220.204 158.483 220.09 159.394 220.391 160.326L221.975 165.083C221.936 165.57 221.776 165.858 221.495 165.949C221.007 166.106 220.476 165.526 219.904 164.208C219.716 163.272 219.517 162.479 219.307 161.828L219.286 161.761L219.22 161.709L219.243 161.628L219.064 161.073L215.923 150.888C215.211 149.289 214.597 147.69 214.081 146.092L213.651 144.761C213.504 144.204 213.667 143.849 214.141 143.696ZM226.396 154.712C227.224 154.445 228.027 155.011 228.806 156.409C228.961 158.205 228.439 159.297 227.241 159.684L227.152 159.712L227.173 159.779C227.845 161.049 228.691 161.519 229.712 161.189C230.496 160.936 230.915 160.058 230.968 158.554L231.392 158.197C231.717 158.091 232.006 158.276 232.257 158.75C232.553 159.668 232.115 160.765 230.942 162.042L229.942 162.585C228.669 162.996 227.421 162.394 226.198 160.78C225.786 160.112 225.504 159.542 225.351 159.068L225.258 158.78C224.771 157.271 225.046 155.973 226.084 154.886L226.396 154.712ZM226.477 157.774L226.491 157.818L227.144 158.171C227.366 158.099 227.476 157.729 227.472 157.06L227.357 156.705C227.135 156.271 226.965 156.072 226.847 156.11L226.714 156.153C226.492 156.225 226.413 156.765 226.477 157.774ZM234.116 152.515C235.536 152.562 236.663 153.751 237.496 156.079L237.539 156.212C238.115 158.199 237.994 159.57 237.176 160.324L236.583 160.613C234.876 160.74 233.7 159.804 233.055 157.807L233.033 157.74C232.336 155.58 232.566 153.913 233.723 152.739L234.116 152.515ZM234.278 157.118L234.436 157.606C235.048 158.944 235.701 159.501 236.396 159.277C236.653 158.704 236.575 157.781 236.165 156.509L236.122 156.376C235.537 154.817 235.006 154.032 234.529 154.023C233.884 154.607 233.801 155.638 234.278 157.118ZM237.169 150.132C237.569 150.003 238.027 150.386 238.545 151.281L238.611 151.259C238.959 150.412 239.458 149.883 240.109 149.673C241.236 149.522 241.876 149.683 242.029 150.156C242.03 150.613 241.867 150.895 241.542 151L240.612 151.006L240.39 151.077C239.57 151.522 239.714 153.46 240.822 156.893L241.158 157.936C241.218 158.423 241.085 158.719 240.759 158.824C240.286 158.977 239.958 158.772 239.777 158.21L238.946 155.636C238.335 153.742 237.563 152.161 236.631 150.894C236.635 150.501 236.814 150.247 237.169 150.132ZM243.201 149.459C243.659 149.311 244.113 149.933 244.562 151.323L244.999 152.677C245.567 154.438 246.229 155.196 246.983 154.953L247.05 154.931C247.401 154.246 247.435 153.467 247.153 152.594L246.315 149.998C246.143 149.465 246.349 148.99 246.933 148.573L247.2 148.487C247.606 148.634 247.836 148.788 247.889 148.951L248.528 152.298L250.392 157.847L250.736 158.912C252.513 164.415 252.58 167.89 250.939 169.334L250.435 169.669C249.34 170.022 248.152 169.531 246.872 168.197L245.329 166.073C245.338 165.645 245.483 165.386 245.764 165.295L245.964 165.231C246.245 165.14 246.931 165.899 248.022 167.507C248.821 168.213 249.45 168.491 249.909 168.343C251.166 167.938 251.035 164.974 249.514 159.453L249.063 158.055L248.229 155.776L247.324 156.313C245.948 156.757 244.72 155.659 243.639 153.018L242.648 150.177C242.676 149.808 242.861 149.569 243.201 149.459Z" fill="#00FFA3"/>
<path d="M258.176 138.916C258.594 138.896 258.86 139.063 258.975 139.418L260.006 142.614L262.056 141.903L262.256 141.839C263.025 141.59 263.484 141.695 263.632 142.154L263.653 142.221C263.749 142.517 263.626 142.793 263.284 143.05L263.196 143.005L262.353 143.278L260.488 143.953L261.293 146.144L261.909 148.052C262.061 148.624 261.893 148.989 261.404 149.146C261.064 149.256 260.796 149.057 260.599 148.548L259.961 146.573L259.199 144.516L256.118 145.903C255.735 145.83 255.503 145.668 255.422 145.417C255.26 144.914 256 144.348 257.643 143.719C258.364 143.421 258.71 143.228 258.681 143.139L257.87 140.853C257.512 139.743 257.592 139.105 258.109 138.938L258.176 138.916Z" fill="white"/>
<path d="M275.303 138.607C276.797 138.125 278.454 138.905 280.273 140.948L281.057 142.313C281.634 144.103 280.805 145.53 278.567 146.596L278.412 146.646C277.879 146.818 277.353 146.832 276.833 146.69L276.612 146.761C278.811 152.815 280.249 156.892 280.927 158.993C280.961 159.554 280.808 159.889 280.468 159.999C279.994 160.152 279.636 159.851 279.392 159.096L279.299 158.808C278.564 156.529 277.2 152.583 275.208 146.969C274.204 144.516 273.485 142.617 273.05 141.27L272.9 140.804C272.656 140.05 272.764 139.598 273.222 139.45L273.533 139.35C273.852 139.427 274.052 139.591 274.133 139.843C274.459 139.231 274.732 138.89 274.954 138.818L275.303 138.607ZM275.663 142.608C276.07 144.78 276.799 145.696 277.849 145.357L278.204 145.243C279.403 144.856 279.924 144.067 279.768 142.876L279.704 142.676C279.384 141.685 278.536 140.831 277.162 140.115C276.608 139.869 276.154 139.803 275.799 139.917C275.301 140.045 275.256 140.942 275.663 142.608ZM280.577 136.121C280.977 135.992 281.435 136.375 281.953 137.27L282.019 137.248C282.367 136.401 282.866 135.872 283.517 135.662C284.644 135.511 285.284 135.671 285.437 136.145C285.437 136.602 285.275 136.883 284.95 136.988L284.02 136.994L283.798 137.066C282.978 137.51 283.122 139.449 284.23 142.881L284.566 143.924C284.626 144.412 284.492 144.708 284.167 144.813C283.694 144.966 283.366 144.761 283.185 144.199L282.354 141.624C281.742 139.731 280.971 138.15 280.039 136.883C280.043 136.489 280.222 136.235 280.577 136.121ZM289.956 134.735L291.359 134.527L291.338 134.461C291.663 134.356 291.998 134.533 292.343 134.994L292.728 136.413L293.043 137.39C293.506 138.825 294.06 139.831 294.703 140.407C294.704 140.815 294.534 141.074 294.194 141.184C293.706 141.342 293.169 140.894 292.585 139.841L292.426 139.501L292.226 139.565C292.099 140.995 291.614 142.074 290.772 142.803L290.467 143C289.081 143.055 288.143 142.329 287.656 140.819L287.613 140.686C287.007 138.807 287.434 137.019 288.896 135.322L289.956 134.735ZM289.081 140.678C289.423 141.384 289.779 141.678 290.149 141.559L290.216 141.537C290.734 141.37 291.044 139.546 291.146 136.067L291.124 136L290.438 136.075L290.393 136.089C289.21 136.471 288.696 137.764 288.852 139.968L289.081 140.678ZM296.591 131.148C296.961 131.029 297.286 131.405 297.568 132.278L298.377 134.1C298.482 134.425 298.3 134.721 297.83 134.987C297.519 135.087 296.903 134.543 295.98 133.354L295.884 133.287L295.729 133.337C295.152 133.524 295.092 134.45 295.548 136.116L295.655 136.449C296.195 138.121 297.052 138.93 298.228 138.877L298.65 138.741C299.108 138.593 299.672 137.962 300.342 136.847L300.497 136.797L300.483 136.753C300.984 136.738 301.297 136.923 301.421 137.307C301.287 138.004 300.764 138.761 299.851 139.579L298.872 140.189C297.481 140.638 296.139 139.895 294.844 137.96L294.324 136.805L294.281 136.672C293.551 134.408 293.809 132.879 295.055 132.085L295.255 132.02L295.964 131.865C296.071 131.487 296.28 131.248 296.591 131.148ZM298.781 118.728C299.255 118.575 299.923 119.936 300.785 122.81C301.658 125.665 302.285 127.684 302.667 128.868L302.711 128.854L303.978 128.224C304.427 128.145 304.71 128.29 304.83 128.66C304.992 129.163 304.607 129.565 303.675 129.866L303.163 130.252L305.762 137.622C305.865 138.144 305.717 138.469 305.318 138.598C304.844 138.751 304.495 138.48 304.271 137.784L303.705 136.031L302.063 131.097L301.903 130.904L300.948 131.285C300.505 131.33 300.224 131.168 300.104 130.798C299.956 130.339 300.393 129.945 301.414 129.616L301.385 129.527C300.774 127.633 299.736 124.317 298.272 119.578C298.152 119.208 298.322 118.925 298.781 118.728ZM306.315 125.215C306.7 125.091 307.018 125.266 307.269 125.741C307.345 125.977 307.257 126.259 307.003 126.586L306.781 126.658C306.367 126.792 306.078 126.607 305.916 126.104C305.886 125.607 306.019 125.311 306.315 125.215ZM307.438 128.161C307.965 128.073 308.346 128.775 308.583 130.267C308.783 131.493 309.386 133.462 310.392 136.176C310.309 136.677 310.08 136.955 309.706 137.01C309.273 137.085 308.866 136.407 308.486 134.978C307.664 132.532 307.126 130.435 306.872 128.687C306.83 128.455 307.019 128.28 307.438 128.161ZM312.902 125.883C313.272 125.764 313.598 126.14 313.879 127.013L314.688 128.835C314.793 129.16 314.611 129.456 314.141 129.722C313.831 129.822 313.214 129.278 312.291 128.089L312.196 128.022L312.04 128.072C311.463 128.259 311.403 129.185 311.859 130.851L311.966 131.184C312.506 132.856 313.364 133.665 314.539 133.612L314.961 133.476C315.42 133.328 315.984 132.697 316.653 131.582L316.808 131.532L316.794 131.488C317.296 131.473 317.609 131.658 317.733 132.042C317.598 132.739 317.075 133.496 316.162 134.314L315.183 134.924C313.792 135.373 312.45 134.63 311.156 132.695L310.636 131.54L310.593 131.407C309.862 129.143 310.12 127.614 311.366 126.82L311.566 126.755L312.276 126.6C312.382 126.222 312.591 125.983 312.902 125.883ZM314.127 113.431C314.353 113.375 314.62 113.493 314.927 113.786C314.876 113.982 314.905 114.299 315.014 114.738L315.085 115.033L318.04 123.734C319.246 127.723 320.229 130.616 320.989 132.413L321.09 132.576C321.048 132.9 320.876 133.102 320.576 133.183C319.896 133.354 319.333 132.522 318.889 130.689C318.485 129.741 316.991 125.265 314.407 117.262C314.161 116.802 313.931 116.166 313.718 115.352L313.689 115.264C313.424 114.189 313.57 113.579 314.127 113.431ZM322.599 123.66C323.427 123.392 324.231 123.958 325.009 125.357C325.164 127.153 324.642 128.244 323.444 128.631L323.355 128.659L323.376 128.726C324.048 129.996 324.894 130.466 325.915 130.137C326.699 129.884 327.118 129.005 327.171 127.501L327.595 127.144C327.92 127.039 328.209 127.223 328.46 127.698C328.756 128.615 328.318 129.712 327.145 130.989L326.145 131.533C324.872 131.943 323.624 131.341 322.401 129.727C321.989 129.059 321.707 128.489 321.554 128.015L321.461 127.727C320.974 126.218 321.249 124.92 322.287 123.834L322.599 123.66ZM322.68 126.721L322.694 126.765L323.347 127.118C323.569 127.046 323.679 126.676 323.675 126.008L323.561 125.653C323.338 125.218 323.168 125.02 323.05 125.058L322.917 125.101C322.695 125.172 322.616 125.712 322.68 126.721Z" fill="#FFE500"/>
<path d="M109.269 136.831C110.524 136.831 111.592 137.831 112.474 139.831L112.735 141.061C112.735 142.564 111.754 143.446 109.791 143.706H109.661C109.214 143.706 108.81 143.588 108.45 143.352H108.263C108.45 148.495 108.543 151.948 108.543 153.712C108.431 154.146 108.232 154.364 107.947 154.364C107.549 154.364 107.35 154.047 107.35 153.413V153.171C107.35 151.258 107.282 147.923 107.145 143.166C106.984 141.055 106.903 139.434 106.903 138.303V137.912C106.903 137.279 107.096 136.962 107.481 136.962H107.742C107.965 137.098 108.077 137.272 108.077 137.484C108.474 137.098 108.766 136.906 108.953 136.906L109.269 136.831ZM108.561 139.962C108.338 141.713 108.667 142.589 109.549 142.589H109.847C110.853 142.589 111.443 142.117 111.617 141.173V141.005C111.617 140.173 111.182 139.316 110.313 138.434C109.953 138.111 109.623 137.949 109.325 137.949C108.915 137.924 108.661 138.595 108.561 139.962ZM113.89 136.235C114.225 136.235 114.48 136.639 114.654 137.446H114.71C115.182 136.887 115.691 136.608 116.238 136.608C117.132 136.769 117.579 137.049 117.579 137.446C117.467 137.794 117.275 137.968 117.002 137.968L116.294 137.744H116.107C115.374 137.881 115.008 139.39 115.008 142.272V143.148C114.933 143.533 114.76 143.725 114.486 143.725C114.089 143.725 113.89 143.489 113.89 143.017V140.856C113.89 139.266 113.691 137.875 113.294 136.682C113.393 136.384 113.592 136.235 113.89 136.235ZM121.361 137.484L122.479 137.67V137.614C122.752 137.614 122.964 137.831 123.113 138.266L123.057 139.44V140.26C123.057 141.464 123.231 142.365 123.578 142.961C123.479 143.272 123.287 143.427 123.001 143.427C122.591 143.427 122.293 142.955 122.107 142.011L122.069 141.713H121.902C121.454 142.769 120.821 143.47 120.001 143.818L119.722 143.893C118.654 143.595 118.119 142.812 118.119 141.545V141.433C118.119 139.856 118.883 138.601 120.411 137.67L121.361 137.484ZM119.237 141.787C119.324 142.408 119.523 142.719 119.834 142.719H119.889C120.324 142.719 121.007 141.409 121.939 138.788V138.732L121.399 138.62H121.361C120.368 138.62 119.66 139.477 119.237 141.191V141.787ZM127.286 136.384C127.597 136.384 127.752 136.751 127.752 137.484L127.92 139.067C127.92 139.34 127.708 139.521 127.286 139.608C127.025 139.608 126.69 139.042 126.28 137.912L126.224 137.838H126.094C125.609 137.838 125.336 138.527 125.274 139.906V140.185C125.274 141.589 125.727 142.415 126.634 142.663H126.988C127.373 142.663 127.957 142.322 128.739 141.638H128.87V141.601C129.255 141.713 129.447 141.93 129.447 142.253C129.174 142.75 128.59 143.197 127.696 143.595L126.802 143.818C125.634 143.818 124.796 142.924 124.286 141.135L124.175 140.129V140.017C124.175 138.117 124.746 137.018 125.889 136.72H126.056L126.634 136.776C126.808 136.515 127.025 136.384 127.286 136.384ZM132 127.478C132.397 127.478 132.571 128.677 132.522 131.074C132.484 133.459 132.466 135.148 132.466 136.142H132.503L133.621 135.974C133.981 136.024 134.161 136.204 134.161 136.515C134.161 136.937 133.77 137.148 132.987 137.148L132.503 137.316L132.671 143.557C132.621 143.98 132.428 144.191 132.093 144.191C131.696 144.191 131.497 143.899 131.497 143.315V141.843L131.46 137.688L131.385 137.502L130.565 137.558C130.217 137.484 130.044 137.291 130.044 136.98C130.044 136.595 130.472 136.403 131.329 136.403V136.328C131.329 134.738 131.354 131.962 131.404 128C131.404 127.69 131.602 127.516 132 127.478ZM136.136 134.26C136.459 134.26 136.658 134.471 136.732 134.894C136.732 135.092 136.596 135.285 136.322 135.471H136.136C135.788 135.471 135.614 135.26 135.614 134.838C135.714 134.453 135.888 134.26 136.136 134.26ZM136.267 136.776C136.689 136.838 136.807 137.465 136.621 138.657C136.471 139.639 136.447 141.284 136.546 143.595C136.36 143.955 136.117 144.11 135.819 144.06C135.472 144.011 135.329 143.396 135.391 142.216C135.366 140.154 135.472 138.428 135.708 137.036C135.732 136.85 135.919 136.763 136.267 136.776ZM140.98 136.384C141.291 136.384 141.446 136.751 141.446 137.484L141.614 139.067C141.614 139.34 141.403 139.521 140.98 139.608C140.719 139.608 140.384 139.042 139.974 137.912L139.918 137.838H139.788C139.303 137.838 139.03 138.527 138.968 139.906V140.185C138.968 141.589 139.421 142.415 140.328 142.663H140.682C141.067 142.663 141.651 142.322 142.434 141.638H142.564V141.601C142.949 141.713 143.142 141.93 143.142 142.253C142.868 142.75 142.285 143.197 141.39 143.595L140.496 143.818C139.328 143.818 138.49 142.924 137.981 141.135L137.869 140.129V140.017C137.869 138.117 138.44 137.018 139.583 136.72H139.751L140.328 136.776C140.502 136.515 140.719 136.384 140.98 136.384ZM146.998 137.484L148.116 137.67V137.614C148.389 137.614 148.601 137.831 148.75 138.266L148.694 139.44V140.26C148.694 141.464 148.868 142.365 149.215 142.961C149.116 143.272 148.924 143.427 148.638 143.427C148.228 143.427 147.93 142.955 147.744 142.011L147.706 141.713H147.539C147.091 142.769 146.458 143.47 145.638 143.818L145.359 143.893C144.291 143.595 143.756 142.812 143.756 141.545V141.433C143.756 139.856 144.52 138.601 146.048 137.67L146.998 137.484ZM144.874 141.787C144.961 142.408 145.16 142.719 145.471 142.719H145.526C145.961 142.719 146.644 141.409 147.576 138.788V138.732L147.036 138.62H146.998C146.005 138.62 145.297 139.477 144.874 141.191V141.787ZM150.967 127.218C151.153 127.23 151.327 127.385 151.488 127.683C151.402 127.82 151.346 128.068 151.321 128.429L151.302 128.671L151.414 136.012C151.352 139.34 151.389 141.781 151.526 143.334L151.563 143.483C151.451 143.719 151.271 143.831 151.023 143.818C150.464 143.781 150.24 143.011 150.352 141.508C150.277 140.688 150.24 136.918 150.24 130.199C150.166 129.789 150.147 129.248 150.184 128.578V128.503C150.246 127.621 150.507 127.193 150.967 127.218Z" fill="#FFE500"/>
<path d="M44.8642 132.127C45.2784 132.127 45.5421 132.485 45.655 133.201H50.6262C51.2853 133.201 51.6148 133.521 51.6148 134.161C51.5018 134.651 51.144 134.895 50.5415 134.895H45.9093L46.8131 143.68H49.3834C50.0425 143.68 50.372 144.009 50.372 144.668C50.259 145.139 49.9012 145.374 49.2987 145.374H46.9826V145.459C47.5098 151.108 47.7734 154.573 47.7734 155.853V157.576C47.7734 158.292 47.5098 158.65 46.9826 158.65H46.6154C46.2764 158.424 46.107 158.16 46.107 157.859V156.503C46.107 153.245 45.3914 145.356 43.9603 132.834C44.0921 132.363 44.3934 132.127 44.8642 132.127ZM53.7332 146.645C54.2416 146.645 54.6276 147.257 54.8912 148.481H54.976C55.6915 147.634 56.4635 147.21 57.2921 147.21C58.6478 147.455 59.3257 147.879 59.3257 148.481C59.1562 149.009 58.8644 149.272 58.4501 149.272L57.3768 148.933H57.0944C55.9834 149.14 55.4279 151.428 55.4279 155.797V157.124C55.3149 157.708 55.0513 158 54.637 158C54.0345 158 53.7332 157.642 53.7332 156.927V153.65C53.7332 151.24 53.4319 149.131 52.8293 147.323C52.98 146.871 53.2812 146.645 53.7332 146.645ZM63.732 148.255C65.3514 148.839 66.2081 150.628 66.3023 153.622V153.791C66.227 156.296 65.5773 157.831 64.3534 158.395L63.5625 158.508C61.5477 158.019 60.5403 156.503 60.5403 153.961V153.876C60.5403 151.127 61.4253 149.291 63.1953 148.368L63.732 148.255ZM62.2067 153.622V154.243C62.4139 156.013 62.9599 156.898 63.8449 156.898C64.3534 156.334 64.6076 155.241 64.6076 153.622V153.453C64.5134 151.438 64.1933 150.336 63.6472 150.148C62.6869 150.581 62.2067 151.739 62.2067 153.622ZM76.0751 147.408C77.4497 148.067 78.1088 150.167 78.0523 153.707C78.1464 155.59 78.4006 156.898 78.8149 157.633V157.746C78.7772 158.141 78.476 158.395 77.9111 158.508C76.8754 158.414 76.3482 155.853 76.3293 150.826L75.9339 149.526L75.5949 149.498C74.9547 150.27 74.5875 151.212 74.4934 152.323C74.3804 153.151 74.3522 154.498 74.4087 156.362C74.1262 156.87 73.7967 157.106 73.4201 157.068C72.7798 156.974 72.488 155.75 72.5445 153.396C72.2055 151.005 71.8383 149.79 71.4429 149.752H71.2734C70.7085 149.922 70.3696 150.515 70.2566 151.532L70.5391 157.011L70.5108 157.379C70.4543 157.793 70.1248 158.075 69.5222 158.226C68.5807 158.132 68.2512 154.846 68.5337 148.368C68.5901 147.973 68.882 147.709 69.4093 147.578C69.9365 147.785 70.1907 148.02 70.1719 148.284H70.2566L71.5276 148.086C72.1679 148.161 72.8081 148.67 73.4483 149.611L73.5048 149.639C74.3898 148.34 75.2466 147.596 76.0751 147.408Z" fill="white"/>
<path d="M218.418 12.3702C219.02 12.3702 219.284 14.1873 219.209 17.8215C219.152 21.4369 219.124 23.9978 219.124 25.5042H219.18L220.875 25.25C221.421 25.3253 221.694 25.5984 221.694 26.0691C221.694 26.7093 221.101 27.0294 219.915 27.0294L219.18 27.2837L219.434 36.7458C219.359 37.386 219.067 37.7061 218.559 37.7061C217.956 37.7061 217.655 37.2636 217.655 36.3786V34.1472L217.599 27.8486L217.486 27.5661L216.243 27.6508C215.716 27.5379 215.452 27.246 215.452 26.7752C215.452 26.1915 216.102 25.8996 217.401 25.8996V25.7867C217.401 23.3764 217.439 19.1679 217.514 13.1611C217.514 12.6903 217.815 12.4267 218.418 12.3702ZM226.298 27.2554C227.917 27.8391 228.774 29.628 228.868 32.622V32.7915C228.793 35.2959 228.143 36.8305 226.919 37.3954L226.129 37.5084C224.114 37.0188 223.106 35.503 223.106 32.9609V32.8762C223.106 30.127 223.991 28.2911 225.761 27.3684L226.298 27.2554ZM224.773 32.622V33.2434C224.98 35.0134 225.526 35.8984 226.411 35.8984C226.919 35.3335 227.174 34.2414 227.174 32.622V32.4525C227.08 30.4377 226.759 29.3361 226.213 29.1478C225.253 29.5809 224.773 30.739 224.773 32.622Z" fill="white"/>
<path fill-rule="evenodd" clip-rule="evenodd" d="M126.561 54.2547C125.271 51.6181 122.862 48.3071 120.024 45.273C117.548 42.6248 108.448 34.5666 108.059 34.6772C107.96 34.7054 108.121 34.9782 108.417 35.2835C108.713 35.5889 108.84 35.8766 108.7 35.9228C108.56 35.9694 108.843 36.1835 109.329 36.3993C109.814 36.6148 111.414 37.8667 112.884 39.1816C115.842 41.8274 114.581 41.1706 111.002 38.2015C109.747 37.1601 108.541 36.2577 108.322 36.1957C108.103 36.1338 107.966 35.9337 108.018 35.7511C108.139 35.3254 97.5713 31.0776 95.608 30.7629C94.7907 30.6318 93.0533 30.4131 91.747 30.2768C81.9263 29.2529 77.7292 29.7051 67.3236 32.9088C59.5005 35.3177 57.4564 36.3278 54.3437 39.3245C52.2887 41.3029 47.8304 48.2862 45.6723 52.9083C43.9517 56.5926 41.9193 63.3759 41.4043 67.1527L41.0703 69.6019L40.7809 70.8176L40.5689 74.9302C40.265 80.8293 40.7932 83.0155 44.3155 90.437C47.4005 96.9363 49.5834 100.635 51.9549 103.381C53.9683 105.712 58.1236 109.249 60.0484 110.271L61.5319 111.059L65.9433 113.231C67.9526 114.218 69.7463 114.914 69.9299 114.776C70.1135 114.639 71.4448 114.832 72.8883 115.205C76.4881 116.135 81.0797 116.997 83.6973 117.234C86.4131 117.48 85.8194 117.739 82.8613 117.599C79.9223 117.46 73.8217 116.274 71.8886 115.466C70.1863 114.754 69.6895 114.685 70.5622 115.283C71.8858 116.189 77.1007 117.523 80.5659 117.843C84.6453 118.219 87.9187 118.111 91.4787 117.481C92.8226 117.243 93.7973 117.231 93.8549 117.451L95.4829 117C96.075 116.716 97.1455 116.363 99.1067 115.718C101.482 114.936 104.512 113.825 105.842 113.249C108.801 111.967 113.847 108.289 116.807 105.257C120.317 101.659 120 101.554 116.201 105.054C110.027 110.743 105.49 113.339 98.2337 115.333L94.7724 116.284L97.6711 114.635C99.2653 113.727 102.2 112.268 104.193 111.391C111.928 107.99 113.245 107.208 116.972 103.806C118.309 102.587 119.52 101.654 119.664 101.734C119.808 101.814 120.172 101.486 120.473 101.004C120.774 100.523 122.032 98.995 123.269 97.6091L126.272 94.0047L127.389 92.0372C130.063 87.3286 130.888 80.5987 130.118 69.7891C129.777 64.9903 127.985 57.1687 126.561 54.2547ZM127.461 61.3758C128.779 65.4496 129.246 66.6147 129.116 65.5077C128.805 62.8497 126.488 55.258 125.388 53.2912C124.256 51.2686 121.935 47.9825 121.804 48.2177C121.758 48.3001 122.599 50.0177 123.673 52.0347C125.143 54.7949 126.08 57.1052 127.461 61.3758ZM129.159 67.9077C129.131 68.1709 129.223 68.4502 129.363 68.5279C129.503 68.6057 129.525 68.3904 129.413 68.0492C129.289 67.6721 129.189 67.6166 129.159 67.9077ZM128.771 79.6016C129.567 76.6811 129.505 73.9811 128.519 68.5609C126.879 59.5382 122.861 50.1205 118.754 45.6699C117.199 43.9845 112.013 39.5929 108.695 37.1518C104.174 33.8259 96.03 31.228 88.2162 30.6198C83.5151 30.2538 80.8398 30.4784 74.5391 31.7686C69.8448 32.7299 69.0006 32.9899 66.9549 34.105C60.1781 37.7988 52.4774 43.8261 49.436 47.8162C47.5383 50.306 44.8395 55.5996 44.2089 58.0695C43.9898 58.9267 44.6958 58.3962 45.4604 57.1288C45.8719 56.4466 46.2486 56.0286 46.2972 56.1996C46.4093 56.5936 45.2909 58.4428 44.3277 59.4548C43.8719 59.934 43.4492 61.1557 43.2182 62.6625C42.7831 65.4992 42.4457 68.8285 42.5543 69.2104L42.4445 70.7829C42.0874 71.423 42.4704 77.4598 43.0461 80.2638C43.5168 82.5573 44.3393 84.8806 46.4987 90.0172C49.7147 97.6678 50.3609 98.9045 52.437 101.38C54.4881 103.826 56.4602 105.427 59.7156 107.29L62.4964 108.881C62.6415 109.014 66.3781 110.824 69.6388 112.246C72.8999 113.667 75.9636 115.091 76.4472 115.408C77.6165 116.177 84.1205 117.096 87.6476 116.991C89.2591 116.943 91.1993 116.653 92.1681 116.316L93.8652 115.725L95.1025 115.36C95.1761 115.394 96.3365 114.804 97.6813 114.047C99.026 113.291 102.48 111.621 105.357 110.337C111.934 107.401 113.114 106.654 117.16 102.871C121.636 98.6868 121.864 98.4176 122.867 96.1357C123.35 95.0351 124.381 92.9602 124.315 92.7302L125.354 90.3937C125.926 89.1088 126.777 87.3107 127.247 86.3981C127.717 85.4855 128.092 84.167 128.082 83.4679C128.072 82.769 128.382 81.0291 128.771 79.6016ZM127.085 90.9571C128.471 88.2305 129.365 84.7382 129.697 80.759C129.976 77.4133 129.798 77.4133 129.22 80.7585C128.95 82.3268 128.636 84.1253 128.522 84.7556C128.409 85.3858 127.508 87.4953 126.52 89.4441C125.097 92.2522 124.833 93.0447 125.247 93.2661C125.659 93.4872 126.046 93.0011 127.085 90.9571ZM123.295 96.3444C123.049 96.9739 123.172 96.9077 123.998 95.9676C125.019 94.8038 125.135 94.4455 124.544 94.2781C124.226 94.1882 123.979 94.5976 123.295 96.3444ZM51.4489 44.4169C52.9801 42.5054 56.6212 39.6869 60.8462 37.1427C63.2046 35.7224 65.4065 34.3948 65.739 34.1928C66.0714 33.9906 65.023 34.2631 63.4092 34.7981C58.2258 36.5171 55.0747 38.7886 52.1732 42.8979C50.515 45.2463 50.1188 46.0767 51.4489 44.4169ZM65.3128 112.165C67.8647 113.421 69.0905 113.838 73.7662 115.04C74.7657 115.297 75.5674 115.451 75.5482 115.384C75.5288 115.316 74.168 114.726 72.5242 114.073C70.8802 113.42 68.0302 112.206 66.1913 111.375C64.4659 110.596 62.6359 109.673 62.1802 109.664C62.0218 109.44 61.5951 109.177 60.879 108.803C58.9761 107.808 54.4146 104.295 52.8952 102.654C50.4164 99.9756 49.2908 97.9673 46.11 90.5449C42.5154 82.1579 42.0102 80.2767 41.7938 74.4803C41.6404 70.3669 41.2412 69.3752 41.2178 73.0492C41.1878 77.8114 41.4529 79.6189 42.9563 84.8921C44.6106 90.6943 45.9721 93.6708 49.184 98.5089C53.1198 104.437 60.1311 110.97 61.8191 110.41C62.0717 110.76 63.8995 111.47 65.3128 112.165ZM41.6003 68.8141C41.6162 69.2964 41.7452 69.0207 41.8871 68.2014C42.0291 67.3821 42.1083 66.5629 42.0633 66.381C41.9377 65.875 41.5676 67.8211 41.6003 68.8141Z" fill="#00FFA3"/>
<path fill-rule="evenodd" clip-rule="evenodd" d="M129.159 67.9077C129.131 68.1709 129.223 68.4502 129.363 68.5279C129.503 68.6057 129.525 68.3904 129.413 68.0492C129.289 67.6721 129.189 67.6166 129.159 67.9077ZM123.295 96.3444C123.049 96.9739 123.172 96.9077 123.998 95.9676C125.019 94.8038 125.135 94.4455 124.544 94.2781C124.226 94.1882 123.979 94.5976 123.295 96.3444ZM41.6003 68.8141C41.6162 69.2964 41.7452 69.0207 41.8871 68.2014C42.0291 67.3821 42.1083 66.5629 42.0633 66.381C41.9377 65.875 41.5676 67.8211 41.6003 68.8141Z" fill="#00FFA3"/>
<path fill-rule="evenodd" clip-rule="evenodd" d="M159.827 134.309C159.482 132.387 158.543 129.829 157.28 127.371C156.178 125.226 151.822 118.412 151.554 118.412C151.485 118.412 151.538 118.616 151.672 118.865C151.806 119.115 151.835 119.322 151.737 119.326C151.639 119.33 151.781 119.519 152.052 119.745C152.324 119.972 153.12 121.064 153.821 122.173C155.232 124.405 154.544 123.755 152.795 121.203C152.181 120.308 151.574 119.511 151.445 119.432C151.316 119.352 151.265 119.199 151.332 119.092C151.487 118.842 145.498 114.199 144.299 113.64C143.8 113.408 142.728 112.951 141.917 112.626C135.819 110.183 133.051 109.708 125.809 109.863C120.365 109.98 118.873 110.254 116.335 111.605C114.66 112.497 110.536 116.153 108.313 118.718C106.541 120.762 104.006 124.733 102.988 127.055L102.329 128.562L101.922 129.287L101.038 131.88C99.7689 135.599 99.7088 137.095 100.611 142.485C101.402 147.205 102.125 149.97 103.143 152.158C104.007 154.017 106.021 157.037 107.067 158.041L107.873 158.815L110.3 161.009C111.406 162.006 112.427 162.778 112.57 162.723C112.712 162.669 113.529 163.035 114.385 163.537C116.519 164.787 119.3 166.175 120.932 166.803C122.625 167.455 122.198 167.513 120.33 166.884C118.475 166.26 114.787 164.39 113.697 163.521C112.738 162.756 112.432 162.621 112.882 163.162C113.564 163.983 116.658 165.787 118.817 166.622C121.359 167.606 123.473 168.133 125.866 168.378C126.769 168.47 127.395 168.64 127.392 168.791L128.516 168.799C128.946 168.726 129.695 168.695 131.068 168.639C132.73 168.571 134.872 168.412 135.827 168.285C137.955 168.004 141.853 166.569 144.299 165.168C147.2 163.505 147.016 163.38 143.948 164.928C138.962 167.444 135.586 168.279 130.579 168.234L128.191 168.212L130.347 167.684C131.532 167.394 133.676 166.994 135.111 166.796C140.679 166.028 141.665 165.768 144.669 164.27C145.746 163.733 146.691 163.357 146.768 163.434C146.846 163.512 147.139 163.368 147.419 163.114C147.699 162.861 148.783 162.113 149.827 161.451L152.404 159.691L153.477 158.636C156.046 156.11 157.799 151.954 159.275 144.897C159.93 141.764 160.208 136.433 159.827 134.309ZM159.107 139.029C159.208 141.876 159.295 142.706 159.413 141.974C159.698 140.217 159.598 134.937 159.252 133.478C158.896 131.978 158.009 129.453 157.883 129.579C157.838 129.624 158.064 130.876 158.384 132.362C158.822 134.396 159 136.045 159.107 139.029ZM159.004 143.518C158.938 143.681 158.946 143.877 159.021 143.952C159.097 144.027 159.15 143.894 159.141 143.655C159.13 143.391 159.076 143.337 159.004 143.518ZM156.626 150.93C157.667 149.206 158.119 147.467 158.476 143.819C159.069 137.747 158.213 130.989 156.395 127.394C155.707 126.032 153.188 122.278 151.51 120.111C149.222 117.16 144.484 114.015 139.595 112.203C136.653 111.112 134.901 110.769 130.634 110.447C127.455 110.208 126.868 110.22 125.356 110.561C120.347 111.691 114.321 114.145 111.649 116.145C109.981 117.392 107.29 120.288 106.437 121.754C106.141 122.263 106.689 122.052 107.409 121.38C107.797 121.018 108.114 120.819 108.114 120.938C108.114 121.21 107.061 122.19 106.261 122.662C105.882 122.886 105.389 123.59 104.967 124.513C104.172 126.248 103.35 128.317 103.35 128.582L102.993 129.568C102.648 129.912 101.794 133.845 101.651 135.744C101.535 137.297 101.638 138.934 102.085 142.614C102.749 148.095 102.938 149.004 103.816 150.966C104.683 152.905 105.653 154.288 107.397 156.073L108.886 157.598C108.955 157.709 111.016 159.548 112.844 161.051C114.672 162.555 116.373 164.023 116.625 164.315C117.233 165.02 121.227 166.792 123.504 167.367C124.544 167.629 125.838 167.797 126.519 167.758L127.713 167.689L128.571 167.681C128.612 167.716 129.462 167.549 130.46 167.31C131.458 167.071 133.973 166.632 136.047 166.334C140.79 165.652 141.682 165.39 144.959 163.706C148.585 161.843 148.78 161.712 149.838 160.435C150.347 159.819 151.385 158.679 151.385 158.52L152.475 157.214C153.074 156.496 153.947 155.5 154.413 155.002C154.88 154.503 155.361 153.728 155.481 153.279C155.602 152.83 156.117 151.773 156.626 150.93ZM153.48 157.889C154.863 156.397 156.071 154.325 157.008 151.839C157.796 149.749 157.682 149.717 156.703 151.752C156.244 152.707 155.716 153.8 155.529 154.183C155.341 154.565 154.381 155.751 153.394 156.818C151.972 158.356 151.658 158.815 151.883 159.032C152.107 159.249 152.443 159.008 153.48 157.889ZM150.074 160.647C149.801 161.004 149.892 160.985 150.592 160.533C151.457 159.975 151.596 159.766 151.249 159.552C151.062 159.436 150.829 159.653 150.074 160.647ZM113.556 114.336C114.884 113.392 117.727 112.251 120.894 111.393C122.661 110.913 124.312 110.465 124.562 110.396C124.811 110.327 124.091 110.311 122.961 110.359C119.331 110.515 116.901 111.395 114.296 113.496C112.807 114.697 112.402 115.156 113.556 114.336ZM110.091 160.212C111.495 161.48 112.203 161.97 114.976 163.59C115.569 163.937 116.054 164.182 116.054 164.135C116.054 164.088 115.291 163.463 114.358 162.746C113.425 162.029 111.822 160.733 110.797 159.866C109.835 159.053 108.831 158.13 108.542 158.041C108.481 157.869 108.256 157.623 107.866 157.253C106.829 156.27 104.55 153.191 103.877 151.864C102.778 149.699 102.424 148.209 101.74 142.881C100.967 136.859 100.986 135.564 101.903 131.815C102.554 129.155 102.479 128.448 101.795 130.795C100.909 133.836 100.749 135.041 100.751 138.689C100.753 142.703 101.082 144.856 102.257 148.536C103.696 153.047 106.993 158.504 108.175 158.453C108.273 158.723 109.313 159.51 110.091 160.212ZM102.811 128.154C102.734 128.466 102.866 128.313 103.106 127.814C103.346 127.316 103.546 126.806 103.551 126.682C103.562 126.335 102.971 127.513 102.811 128.154Z" fill="#FFE500"/>
<path fill-rule="evenodd" clip-rule="evenodd" d="M159.004 143.518C158.938 143.681 158.946 143.877 159.021 143.952C159.097 144.027 159.15 143.894 159.141 143.655C159.13 143.391 159.076 143.337 159.004 143.518ZM150.074 160.647C149.801 161.004 149.892 160.985 150.592 160.533C151.457 159.975 151.596 159.766 151.249 159.552C151.062 159.436 150.829 159.653 150.074 160.647ZM102.811 128.154C102.734 128.466 102.866 128.313 103.106 127.814C103.346 127.316 103.546 126.806 103.551 126.682C103.562 126.335 102.971 127.513 102.811 128.154Z" fill="#FFE500"/>
<path fill-rule="evenodd" clip-rule="evenodd" d="M314.116 67.2705C313.591 64.3434 312.161 60.4486 310.237 56.7048C308.558 53.4373 301.924 43.0607 301.515 43.0607C301.411 43.0607 301.492 43.3713 301.695 43.7508C301.899 44.1304 301.943 44.4461 301.794 44.4523C301.645 44.4589 301.861 44.7459 302.274 45.091C302.688 45.4357 303.9 47.0995 304.968 48.7885C307.117 52.1872 306.07 51.1972 303.405 47.3113C302.471 45.9484 301.546 44.7345 301.35 44.6134C301.154 44.4923 301.076 44.2594 301.177 44.0959C301.413 43.7146 292.292 36.6443 290.466 35.793C289.706 35.4387 288.074 34.7438 286.838 34.2486C277.552 30.5273 273.336 29.8041 262.307 30.0404C254.015 30.2185 251.743 30.636 247.878 32.6932C245.327 34.0513 239.046 39.6203 235.661 43.5262C232.962 46.6395 229.101 52.6864 227.551 56.2242L226.547 58.5184L225.927 59.6229L224.58 63.5719C222.648 69.2365 222.557 71.5135 223.931 79.7228C225.135 86.9122 226.237 91.122 227.786 94.4555C229.102 97.2856 232.171 101.885 233.763 103.415L234.99 104.594L238.687 107.934C240.371 109.453 241.926 110.628 242.143 110.546C242.36 110.463 243.604 111.02 244.907 111.784C248.158 113.689 252.393 115.802 254.879 116.759C257.457 117.751 256.807 117.84 253.963 116.883C251.137 115.932 245.521 113.085 243.861 111.761C242.399 110.595 241.934 110.39 242.619 111.214C243.658 112.464 248.37 115.211 251.658 116.484C255.529 117.982 258.749 118.784 262.393 119.157C263.769 119.298 264.722 119.557 264.717 119.787L266.429 119.799C267.084 119.687 268.226 119.64 270.316 119.554C272.847 119.451 276.109 119.209 277.564 119.017C280.804 118.588 286.742 116.402 290.466 114.268C294.885 111.736 294.605 111.545 289.932 113.903C282.338 117.735 277.196 119.007 269.572 118.938L265.935 118.905L269.217 118.101C271.023 117.658 274.288 117.05 276.473 116.749C284.954 115.579 286.454 115.182 291.03 112.901C292.671 112.083 294.109 111.51 294.227 111.628C294.346 111.746 294.792 111.527 295.218 111.141C295.645 110.755 297.295 109.615 298.885 108.608L302.811 105.928L304.445 104.32C308.356 100.473 311.027 94.1436 313.275 83.3958C314.273 78.6245 314.696 70.5053 314.116 67.2705ZM313.018 74.4598C313.173 78.7953 313.305 80.0602 313.485 78.9454C313.919 76.2689 313.766 68.228 313.24 66.0062C312.698 63.7213 311.347 59.8751 311.154 60.068C311.087 60.1356 311.43 62.0427 311.917 64.3062C312.584 67.4037 312.856 69.9149 313.018 74.4598ZM312.861 81.2962C312.761 81.545 312.774 81.8428 312.889 81.9573C313.003 82.0719 313.085 81.8683 313.07 81.5046C313.053 81.1026 312.971 81.0209 312.861 81.2962ZM309.24 92.5847C310.826 89.9593 311.515 87.311 312.057 81.7555C312.96 72.5076 311.657 62.2156 308.889 56.7393C307.841 54.6656 304.004 48.9475 301.448 45.6486C297.965 41.1537 290.749 36.3634 283.302 33.6037C278.822 31.9434 276.153 31.4203 269.655 30.9303C264.814 30.5653 263.919 30.5846 261.616 31.1039C253.987 32.8243 244.811 36.5625 240.741 39.6075C238.201 41.5077 234.103 45.918 232.803 48.1501C232.352 48.9248 233.187 48.6035 234.284 47.5805C234.874 47.0298 235.357 46.7268 235.357 46.9069C235.357 47.322 233.754 48.814 232.535 49.5331C231.958 49.8736 231.207 50.9471 230.564 52.3514C229.354 54.9951 228.101 58.1461 228.101 58.5484L227.558 60.0504C227.033 60.5752 225.732 66.5645 225.515 69.4567C225.338 71.8223 225.495 74.3146 226.175 79.9191C227.188 88.2668 227.474 89.6511 228.811 92.6392C230.132 95.5918 231.609 97.6993 234.265 100.417L236.534 102.739C236.639 102.909 239.778 105.709 242.561 107.999C245.345 110.289 247.936 112.525 248.319 112.969C249.246 114.043 255.329 116.742 258.796 117.617C260.379 118.017 262.351 118.273 263.388 118.213L265.206 118.108L266.513 118.095C266.575 118.149 267.87 117.895 269.39 117.531C270.91 117.167 274.74 116.498 277.9 116.044C285.123 115.006 286.48 114.606 291.472 112.042C296.995 109.205 297.291 109.006 298.902 107.06C299.678 106.122 301.258 104.386 301.258 104.143L302.918 102.155C303.831 101.061 305.16 99.5446 305.87 98.7855C306.581 98.0264 307.313 96.8457 307.497 96.1614C307.681 95.4776 308.465 93.8679 309.24 92.5847ZM304.448 103.183C306.555 100.911 308.395 97.7552 309.822 93.9694C311.022 90.7863 310.848 90.737 309.358 93.8369C308.659 95.2902 307.854 96.9557 307.569 97.5385C307.284 98.1213 305.821 99.9273 304.318 101.552C302.152 103.894 301.675 104.593 302.017 104.924C302.357 105.254 302.869 104.887 304.448 103.183ZM299.261 107.383C298.847 107.928 298.985 107.897 300.05 107.21C301.368 106.359 301.58 106.042 301.051 105.715C300.766 105.539 300.412 105.87 299.261 107.383ZM243.645 36.853C245.668 35.4149 249.998 33.6779 254.821 32.3702C257.513 31.6401 260.027 30.9569 260.407 30.8523C260.787 30.7474 259.689 30.7223 257.968 30.7961C252.44 31.0338 248.74 32.3736 244.772 35.5736C242.505 37.4023 241.889 38.1017 243.645 36.853ZM238.368 106.721C240.507 108.652 241.586 109.398 245.809 111.866C246.712 112.394 247.45 112.767 247.45 112.696C247.45 112.624 246.287 111.672 244.867 110.579C243.446 109.487 241.005 107.514 239.443 106.194C237.978 104.956 236.45 103.55 236.009 103.415C235.916 103.152 235.574 102.778 234.98 102.214C233.401 100.717 229.93 96.0286 228.904 94.0077C227.231 90.7104 226.691 88.441 225.65 80.3256C224.473 71.1553 224.502 69.182 225.899 63.4732C226.89 59.4221 226.776 58.3448 225.734 61.9188C224.384 66.5514 224.142 68.3863 224.144 73.9423C224.147 80.0554 224.649 83.3337 226.437 88.9393C228.629 95.8081 233.65 104.119 235.45 104.041C235.599 104.453 237.184 105.651 238.368 106.721ZM227.282 57.8977C227.163 58.3721 227.365 58.1392 227.731 57.3801C228.097 56.621 228.401 55.8446 228.408 55.6549C228.426 55.1269 227.525 56.9208 227.282 57.8977Z" fill="#FFE600"/>
<path fill-rule="evenodd" clip-rule="evenodd" d="M312.861 81.2962C312.761 81.545 312.774 81.8428 312.889 81.9573C313.003 82.0719 313.085 81.8683 313.07 81.5046C313.053 81.1026 312.971 81.0209 312.861 81.2962ZM299.261 107.383C298.847 107.928 298.985 107.897 300.05 107.21C301.368 106.359 301.58 106.042 301.051 105.715C300.766 105.539 300.412 105.87 299.261 107.383ZM227.282 57.8977C227.163 58.3721 227.365 58.1392 227.731 57.3801C228.097 56.621 228.401 55.8446 228.408 55.6549C228.426 55.1269 227.525 56.9208 227.282 57.8977Z" fill="#FFE600"/>
<path fill-rule="evenodd" clip-rule="evenodd" d="M269.881 83.6298C269.45 81.2243 268.274 78.0234 266.693 74.9467C265.313 72.2613 259.862 63.7336 259.525 63.7336C259.44 63.7336 259.506 63.9888 259.674 64.3008C259.841 64.6127 259.877 64.8722 259.755 64.8773C259.632 64.8826 259.81 65.1186 260.15 65.4021C260.49 65.6854 261.486 67.0528 262.363 68.4408C264.129 71.234 263.269 70.4204 261.079 67.2269C260.311 66.1068 259.551 65.1092 259.39 65.0097C259.228 64.9101 259.165 64.7187 259.248 64.5843C259.442 64.271 251.946 58.4604 250.445 57.7609C249.821 57.4696 248.479 56.8985 247.464 56.4916C239.832 53.4334 236.367 52.839 227.303 53.0332C220.489 53.1796 218.622 53.5227 215.446 55.2133C213.349 56.3294 208.187 60.9062 205.405 64.1162C203.187 66.6748 200.014 71.6443 198.74 74.5517L197.915 76.4371L197.406 77.3448L196.299 80.5902C194.711 85.2456 194.636 87.1168 195.765 93.8634C196.755 99.7718 197.66 103.232 198.933 105.971C200.015 108.297 202.536 112.077 203.845 113.334L204.854 114.303L207.892 117.048C209.276 118.297 210.554 119.262 210.732 119.194C210.911 119.126 211.933 119.584 213.004 120.212C215.675 121.777 219.156 123.514 221.199 124.3C223.318 125.116 222.783 125.189 220.446 124.402C218.124 123.621 213.508 121.281 212.144 120.193C210.943 119.235 210.561 119.067 211.123 119.744C211.977 120.771 215.849 123.029 218.552 124.074C221.733 125.306 224.38 125.965 227.374 126.271C228.505 126.387 229.288 126.6 229.284 126.789L230.691 126.799C231.23 126.707 232.168 126.668 233.885 126.598C235.966 126.513 238.646 126.314 239.842 126.156C242.505 125.804 247.384 124.008 250.445 122.254C254.077 120.173 253.847 120.016 250.006 121.954C243.765 125.103 239.54 126.148 233.274 126.091L230.285 126.064L232.982 125.403C234.466 125.04 237.149 124.54 238.945 124.292C245.915 123.331 247.148 123.005 250.909 121.13C252.257 120.458 253.439 119.987 253.536 120.084C253.634 120.181 254 120.001 254.351 119.684C254.701 119.367 256.058 118.43 257.364 117.602L260.59 115.399L261.933 114.078C265.148 110.917 267.343 105.715 269.19 96.882C270.01 92.9608 270.358 86.2882 269.881 83.6298ZM268.979 89.5382C269.106 93.1012 269.214 94.1408 269.363 93.2246C269.72 91.0249 269.594 84.4167 269.161 82.5908C268.716 80.713 267.606 77.5521 267.447 77.7106C267.392 77.7662 267.674 79.3335 268.074 81.1937C268.622 83.7393 268.846 85.8031 268.979 89.5382ZM268.85 95.1565C268.768 95.361 268.778 95.6057 268.873 95.6998C268.967 95.794 269.034 95.6267 269.022 95.3278C269.008 94.9974 268.941 94.9302 268.85 95.1565ZM265.874 104.434C267.177 102.276 267.744 100.1 268.189 95.5339C268.932 87.9338 267.86 79.4755 265.586 74.9751C264.724 73.2708 261.571 68.5716 259.47 65.8604C256.608 62.1664 250.677 58.2296 244.558 55.9616C240.876 54.5971 238.682 54.1672 233.342 53.7646C229.363 53.4645 228.628 53.4804 226.736 53.9072C220.466 55.3211 212.925 58.3932 209.58 60.8957C207.493 62.4573 204.125 66.0818 203.057 67.9162C202.686 68.5528 203.372 68.2888 204.273 67.4481C204.758 66.9955 205.155 66.7465 205.155 66.8945C205.155 67.2357 203.838 68.4618 202.836 69.0528C202.362 69.3326 201.745 70.2148 201.216 71.3689C200.221 73.5416 199.192 76.1312 199.192 76.4618L198.746 77.6962C198.314 78.1275 197.245 83.0496 197.067 85.4265C196.921 87.3706 197.051 89.4188 197.609 94.0248C198.441 100.885 198.677 102.023 199.776 104.478C200.861 106.905 202.075 108.637 204.258 110.871L206.122 112.779C206.209 112.918 208.789 115.22 211.076 117.101C213.364 118.983 215.493 120.821 215.808 121.186C216.569 122.068 221.569 124.287 224.418 125.006C225.719 125.335 227.339 125.545 228.192 125.496L229.686 125.409L230.76 125.399C230.811 125.443 231.875 125.235 233.124 124.936C234.374 124.636 237.521 124.086 240.118 123.713C246.054 122.86 247.17 122.531 251.272 120.424C255.811 118.093 256.054 117.929 257.378 116.33C258.016 115.559 259.314 114.132 259.314 113.933L260.679 112.298C261.429 111.399 262.521 110.153 263.105 109.53C263.689 108.906 264.29 107.935 264.442 107.373C264.593 106.811 265.237 105.488 265.874 104.434ZM261.936 113.144C263.667 111.276 265.179 108.683 266.352 105.572C267.338 102.956 267.196 102.915 265.971 105.463C265.397 106.657 264.735 108.026 264.501 108.505C264.267 108.984 263.064 110.468 261.829 111.804C260.049 113.728 259.657 114.303 259.938 114.574C260.218 114.845 260.638 114.544 261.936 113.144ZM257.673 116.595C257.333 117.043 257.446 117.018 258.322 116.453C259.405 115.754 259.579 115.493 259.144 115.225C258.91 115.08 258.619 115.352 257.673 116.595ZM211.967 58.632C213.629 57.4501 217.187 56.0226 221.151 54.9479C223.363 54.3479 225.429 53.7864 225.742 53.7005C226.054 53.6143 225.152 53.5936 223.738 53.6543C219.195 53.8496 216.153 54.9507 212.893 57.5805C211.03 59.0834 210.523 59.6582 211.967 58.632ZM207.63 116.051C209.387 117.638 210.274 118.251 213.745 120.28C214.487 120.713 215.094 121.02 215.094 120.961C215.094 120.902 214.138 120.12 212.971 119.222C211.803 118.325 209.797 116.703 208.513 115.618C207.309 114.601 206.054 113.445 205.691 113.334C205.615 113.119 205.333 112.81 204.845 112.347C203.548 111.117 200.695 107.264 199.852 105.603C198.477 102.893 198.034 101.028 197.178 94.3588C196.21 86.8225 196.235 85.2007 197.382 80.5091C198.197 77.1798 198.103 76.2945 197.247 79.2317C196.138 83.0388 195.938 84.5468 195.94 89.1128C195.943 94.1368 196.355 96.831 197.825 101.438C199.626 107.083 203.752 113.913 205.232 113.849C205.354 114.187 206.656 115.172 207.63 116.051ZM198.519 75.927C198.421 76.3169 198.588 76.1255 198.888 75.5016C199.188 74.8778 199.439 74.2398 199.444 74.0838C199.459 73.65 198.719 75.1242 198.519 75.927Z" fill="#00FFA3"/>
<path fill-rule="evenodd" clip-rule="evenodd" d="M268.85 95.1565C268.768 95.361 268.778 95.6057 268.873 95.6998C268.967 95.794 269.034 95.6267 269.022 95.3278C269.008 94.9974 268.941 94.9302 268.85 95.1565ZM257.673 116.595C257.333 117.043 257.446 117.018 258.322 116.453C259.405 115.754 259.579 115.493 259.144 115.225C258.91 115.08 258.619 115.352 257.673 116.595ZM198.519 75.927C198.421 76.3169 198.588 76.1255 198.888 75.5016C199.188 74.8778 199.439 74.2398 199.444 74.0838C199.459 73.65 198.719 75.1242 198.519 75.927Z" fill="#00FFA3"/>
<path d="M241.748 72.0698C242.308 70.6567 243.297 68.2623 243.947 66.7479C245.807 62.4148 246.155 62.8149 247.454 70.7764C247.719 72.4038 248.477 73.8286 249.317 74.2786C250.482 74.9032 251.09 74.6338 252.767 72.7481C255.4 69.7862 256.232 69.3736 263.04 67.6559C269.607 65.9985 270.072 65.9449 269.474 66.9138C269.231 67.3073 266.388 68.4428 263.157 69.4367C259.06 70.6964 256.406 72.0353 254.39 73.8587C250.558 77.3256 248.338 77.3006 246.482 73.7699C246.018 72.8875 245.623 71.4011 245.605 70.4666C245.582 69.301 244.929 70.1554 243.527 73.187C241.648 77.2493 237.753 81.6124 236.005 81.6124C234.214 81.6124 232.444 79.9572 232.444 78.2835C232.444 76.2862 231.374 75.8487 230.712 77.5752C230.481 78.1808 229.687 78.6763 228.948 78.6763C228.21 78.6763 227.249 79.0337 226.812 79.4705C226.244 80.0401 225.58 79.9902 224.467 79.2943C222.596 78.1243 222.55 77.6508 224.127 75.8061C225.222 74.5259 225.501 74.4922 226.977 75.4611C228.41 76.4007 228.746 76.4014 229.681 75.4655C230.268 74.8783 231.17 73.3779 231.685 72.1322C233.244 68.3636 234.806 69.2092 234.619 73.7214C234.532 75.8406 234.502 77.9884 234.552 78.4927C234.84 81.3974 239.809 76.9622 241.748 72.0698Z" fill="#FFA500"/>
<path d="M249.929 85.3429C256.237 84.1581 263.379 82.5366 265.798 81.7402C271.05 80.01 271.514 79.93 270.942 80.8586C270.251 81.9773 261.587 84.4312 252.67 86.0337C248.199 86.8374 241.735 88.2813 238.308 89.2414C230.799 91.3452 226.735 92.0015 226.235 91.1904C225.793 90.4754 228.325 89.7112 231.184 89.6973C232.306 89.6914 234.401 89.1945 235.841 88.5926C237.28 87.9899 243.619 86.5284 249.929 85.3429Z" fill="#FFA500"/>
<path d="M225.113 100.254C225.113 98.6366 230.064 97.0987 257.001 90.3499C272.725 86.4102 286.085 83.1855 286.69 83.1833C289.384 83.1745 283.693 84.8327 266.898 88.9493C257.02 91.3709 245.639 94.1809 241.607 95.1931C237.575 96.2061 232.796 97.3835 230.987 97.8093C229.178 98.235 227.117 99.11 226.406 99.7545C225.694 100.398 225.113 100.623 225.113 100.254Z" fill="#FFA500"/>
<path d="M233.543 102.081C235.559 101.724 241.992 100.135 247.838 98.5485C257.448 95.9411 261.816 95.0441 260.972 95.8516C260.139 96.6495 234.49 102.888 232.351 102.814C230.269 102.742 230.459 102.625 233.543 102.081Z" fill="#FFA500"/>
<path d="M261.033 99.3721C265.267 97.7601 269.555 96.2876 270.563 96.1004C271.571 95.9125 273.55 95.7591 274.961 95.7591C276.637 95.7591 276.891 95.8582 275.694 96.0446C271.33 96.7244 266.958 98.0126 260.73 100.454C256.697 102.034 250.818 103.588 245.83 104.392C241.299 105.123 236.544 106.244 235.265 106.883C233.985 107.522 232.797 107.902 232.623 107.729C231.757 106.861 237.666 104.946 245.058 103.699C250.01 102.864 256.429 101.125 261.033 99.3721Z" fill="#FFA500"/>
<path d="M240.874 108.463C262.213 103.615 268.316 102.086 273.313 100.337C278.242 98.6109 280.093 98.1991 280.093 98.826C280.093 99.6584 262.913 104.557 249.281 107.612C241.003 109.467 233.108 111.307 231.736 111.701C229.505 112.342 228.02 112.197 228.839 111.419C229.008 111.259 234.423 109.929 240.874 108.463Z" fill="#FFA500"/>
<path d="M158.719 110.283C153.81 111.657 149.265 112.822 148.62 112.871C147.975 112.921 147.56 112.677 147.697 112.328C147.834 111.98 151.731 110.674 156.355 109.426C160.979 108.178 166.418 106.684 168.441 106.106C170.465 105.527 172.26 105.379 172.433 105.778C172.608 106.183 171.625 106.782 170.195 107.143C168.793 107.495 163.628 108.909 158.719 110.283Z" fill="white"/>
<path d="M172.582 111.273C170.853 112.741 169.357 113.98 169.258 114.028C169.16 114.076 168.955 113.83 168.804 113.481C168.653 113.132 170.172 111.439 172.18 109.719C175.984 106.461 177.235 104.81 176.75 103.69C176.593 103.326 174.462 102.136 172.016 101.047C166.65 98.6555 167.192 97.9211 172.748 100.054C179.331 102.582 179.287 105.585 172.582 111.273Z" fill="white"/>
</svg>
