<svg width="360" height="379" viewBox="0 0 360 379" fill="none" xmlns="http://www.w3.org/2000/svg">
<rect width="155.501" height="378.871" rx="15" fill="url(#paint0_linear)" fill-opacity="0.05"/>
<g clip-path="url(#clip0)">
<g filter="url(#filter0_iiii)">
<path fill-rule="evenodd" clip-rule="evenodd" d="M78.299 146.409C84.2627 146.409 89.0973 144.283 89.0973 141.66C89.0973 141.644 89.0971 141.628 89.0968 141.612H89.0974V273.074C89.0974 279.038 84.2628 283.872 78.2991 283.872C72.3353 283.872 67.5007 279.038 67.5007 273.074V141.677C67.522 144.292 72.3484 146.409 78.299 146.409ZM67.5007 141.642C67.5008 141.632 67.501 141.622 67.5012 141.612H67.5007V141.642Z" fill="white" fill-opacity="0.1"/>
</g>
<ellipse opacity="0.3" cx="78.2991" cy="141.683" rx="10.7983" ry="4.74948" fill="#C4C4C4"/>
</g>
<g filter="url(#filter1_iiii)">
<path fill-rule="evenodd" clip-rule="evenodd" d="M66.9524 14.7495H66.9521V34.0039V34.0924V151.952C66.9521 157.916 71.7867 162.75 77.7505 162.75C83.7142 162.75 88.5488 157.916 88.5488 151.952V34.0924V34.0039V14.7819C88.5092 17.39 83.6899 19.499 77.7507 19.499C71.787 19.499 66.9524 17.3726 66.9524 14.7495Z" fill="white" fill-opacity="0.1"/>
</g>
<g filter="url(#filter2_ii)">
<ellipse cx="77.7505" cy="14.7495" rx="10.7983" ry="4.74948" fill="white" fill-opacity="0.1"/>
</g>
<path d="M77.7505 20.0023C80.7853 20.0023 83.5569 19.4622 85.5887 18.5686C86.6039 18.1221 87.4568 17.5774 88.063 16.947C88.6715 16.3142 89.0521 15.5708 89.0521 14.7495C89.0521 13.9281 88.6715 13.1847 88.063 12.5519C87.4568 11.9216 86.6039 11.3769 85.5887 10.9304C83.5569 10.0367 80.7853 9.4967 77.7505 9.4967C74.7157 9.4967 71.944 10.0367 69.9123 10.9304C68.8971 11.3769 68.0441 11.9216 67.438 12.5519C66.8294 13.1847 66.4489 13.9281 66.4489 14.7495C66.4489 15.5708 66.8294 16.3142 67.438 16.947C68.0441 17.5774 68.8971 18.1221 69.9123 18.5686C71.944 19.4622 74.7157 20.0023 77.7505 20.0023Z" stroke="url(#paint1_linear)" stroke-width="1.00659"/>
<g filter="url(#filter3_bii)">
<path d="M77.7505 21.0086C80.7853 21.0086 83.5569 20.4686 85.5887 19.5749C86.6039 19.1284 87.4568 18.5837 88.063 17.9534C88.6715 17.3206 89.0521 16.5772 89.0521 15.7558C89.0521 14.9345 88.6715 14.1911 88.063 13.5583C87.4568 12.9279 86.6039 12.3832 85.5887 11.9367C83.5569 11.0431 80.7853 10.5031 77.7505 10.5031C74.7157 10.5031 71.944 11.0431 69.9123 11.9367C68.8971 12.3832 68.0441 12.9279 67.438 13.5583C66.8294 14.1911 66.4489 14.9345 66.4489 15.7558C66.4489 16.5772 66.8294 17.3206 67.438 17.9534C68.0441 18.5837 68.8971 19.1284 69.9123 19.5749C71.944 20.4686 74.7157 21.0086 77.7505 21.0086Z" stroke="url(#paint2_linear)" stroke-width="1.00659"/>
</g>
<g filter="url(#filter4_ii)">
<path d="M77.7505 20.0023C80.7853 20.0023 83.5569 19.4622 85.5887 18.5686C86.6039 18.1221 87.4568 17.5774 88.063 16.947C88.6715 16.3142 89.0521 15.5708 89.0521 14.7495C89.0521 13.9281 88.6715 13.1847 88.063 12.5519C87.4568 11.9216 86.6039 11.3769 85.5887 10.9304C83.5569 10.0367 80.7853 9.4967 77.7505 9.4967C74.7157 9.4967 71.944 10.0367 69.9123 10.9304C68.8971 11.3769 68.0441 11.9216 67.438 12.5519C66.8294 13.1847 66.4489 13.9281 66.4489 14.7495C66.4489 15.5708 66.8294 16.3142 67.438 16.947C68.0441 17.5774 68.8971 18.1221 69.9123 18.5686C71.944 19.4622 74.7157 20.0023 77.7505 20.0023Z" stroke="url(#paint3_linear)" stroke-width="1.00659"/>
</g>
<path opacity="0.5" d="M82.1996 158.123L81.6513 159.016C82.0446 159.002 82.4425 158.941 82.8379 158.828C84.6196 158.322 85.896 156.904 86.3056 155.225L85.6898 154.626C85.4063 156.202 84.2552 157.56 82.6104 158.028C82.4737 158.067 82.3366 158.098 82.1996 158.123Z" fill="#C4C4C4"/>
<rect opacity="0.4" x="85.8948" y="42.7388" width="1.09942" height="111.406" fill="url(#paint4_linear)"/>
<rect opacity="0.1" x="68.7039" y="42.7388" width="1.09942" height="74.2976" fill="url(#paint5_linear)"/>
<g opacity="0.1" filter="url(#filter5_f)">
<rect x="74.0034" y="42.7388" width="3.45945" height="54.4788" fill="url(#paint6_linear)"/>
</g>
<g opacity="0.1" filter="url(#filter6_f)">
<rect x="79.9492" y="91.7388" width="3.45945" height="54.4788" fill="url(#paint7_linear)"/>
</g>
<g opacity="0.05" filter="url(#filter7_f)">
<rect x="78.7087" y="29.2642" width="6.42971" height="54.4788" fill="url(#paint8_linear)"/>
</g>
<g opacity="0.1" filter="url(#filter8_f)">
<rect x="72.2737" y="98.3779" width="7.6755" height="54.4788" fill="url(#paint9_linear)"/>
</g>
<g filter="url(#filter9_d)">
<path d="M70.7039 69.7451H73.1575V76.3623H74.8324V69.7451H77.2859V68.3481H70.7039V69.7451ZM78.2329 74.9536H82.0796V76.3623H83.6996V74.9536H84.6936V73.5957H83.6996V68.3481H81.5787L78.2329 73.6192V74.9536ZM82.1109 73.5957H79.9391V73.5331L82.0483 70.1951H82.1109V73.5957Z" fill="white"/>
</g>
<g opacity="0.6" clip-path="url(#clip1)">
<g clip-path="url(#clip2)">
<path opacity="0.6" d="M14.9033 225.737H12.55V229.79H11.2219V219.771H14.5386C15.667 219.771 16.5341 220.028 17.1396 220.542C17.7497 221.056 18.0548 221.803 18.0548 222.785C18.0548 223.409 17.885 223.953 17.5456 224.416C17.2107 224.879 16.7428 225.226 16.1418 225.455L18.4951 229.707V229.79H17.0776L14.9033 225.737ZM12.55 224.657H14.5798C15.2358 224.657 15.7565 224.487 16.1418 224.148C16.5318 223.808 16.7267 223.354 16.7267 222.785C16.7267 222.166 16.5409 221.691 16.1694 221.361C15.8024 221.031 15.2702 220.863 14.573 220.859H12.55V224.657ZM22.8026 229.928C21.7934 229.928 20.9723 229.597 20.3392 228.937C19.7062 228.272 19.3897 227.384 19.3897 226.274V226.04C19.3897 225.301 19.5296 224.643 19.8094 224.065C20.0938 223.482 20.4883 223.028 20.9929 222.703C21.5021 222.372 22.0526 222.207 22.6444 222.207C23.6123 222.207 24.3646 222.526 24.9013 223.164C25.4381 223.801 25.7064 224.714 25.7064 225.902V226.432H20.6626C20.681 227.166 20.8943 227.76 21.3026 228.214C21.7154 228.664 22.2384 228.889 22.8714 228.889C23.321 228.889 23.7018 228.797 24.0137 228.613C24.3256 228.43 24.5986 228.187 24.8325 227.884L25.6101 228.49C24.9862 229.448 24.0504 229.928 22.8026 229.928ZM22.6444 223.253C22.1306 223.253 21.6994 223.441 21.3507 223.817C21.0021 224.189 20.7865 224.712 20.7039 225.386H24.4334V225.29C24.3967 224.643 24.2224 224.143 23.9105 223.79C23.5985 223.432 23.1765 223.253 22.6444 223.253ZM26.8762 226.005C26.8762 224.836 27.1445 223.911 27.6813 223.232C28.218 222.549 28.9382 222.207 29.8419 222.207C30.7227 222.207 31.4176 222.503 31.9268 223.095L31.9819 222.345H33.1516V232.653H31.8787V229.102C31.3649 229.652 30.6814 229.928 29.8281 229.928C28.929 229.928 28.2111 229.579 27.6744 228.882C27.1422 228.18 26.8762 227.251 26.8762 226.095V226.005ZM28.1492 226.15C28.1492 227.003 28.3281 227.673 28.6859 228.159C29.0483 228.646 29.5345 228.889 30.1447 228.889C30.9016 228.889 31.4796 228.554 31.8787 227.884V224.237C31.475 223.581 30.9016 223.253 30.1584 223.253C29.5437 223.253 29.0552 223.499 28.6928 223.989C28.3304 224.476 28.1492 225.196 28.1492 226.15ZM39.7918 229.054C39.2964 229.636 38.5693 229.928 37.6105 229.928C36.8169 229.928 36.2114 229.698 35.7939 229.24C35.3811 228.776 35.1724 228.093 35.1678 227.189V222.345H36.4408V227.155C36.4408 228.283 36.8995 228.847 37.817 228.847C38.7895 228.847 39.4363 228.485 39.7574 227.76V222.345H41.0304V229.79H39.8193L39.7918 229.054ZM44.3539 229.79H43.0809V222.345H44.3539V229.79ZM42.9777 220.37C42.9777 220.164 43.0396 219.989 43.1635 219.847C43.2919 219.705 43.48 219.634 43.7277 219.634C43.9755 219.634 44.1635 219.705 44.292 219.847C44.4204 219.989 44.4846 220.164 44.4846 220.37C44.4846 220.576 44.4204 220.748 44.292 220.886C44.1635 221.024 43.9755 221.092 43.7277 221.092C43.48 221.092 43.2919 221.024 43.1635 220.886C43.0396 220.748 42.9777 220.576 42.9777 220.37ZM49.9963 223.487C49.8037 223.455 49.5949 223.439 49.3702 223.439C48.5353 223.439 47.9687 223.794 47.6705 224.505V229.79H46.3976V222.345H47.6361L47.6568 223.205C48.0742 222.54 48.666 222.207 49.4321 222.207C49.6798 222.207 49.8679 222.239 49.9963 222.304V223.487ZM54.1249 229.928C53.1157 229.928 52.2946 229.597 51.6615 228.937C51.0285 228.272 50.7119 227.384 50.7119 226.274V226.04C50.7119 225.301 50.8519 224.643 51.1317 224.065C51.4161 223.482 51.8106 223.028 52.3152 222.703C52.8244 222.372 53.3749 222.207 53.9667 222.207C54.9346 222.207 55.6869 222.526 56.2236 223.164C56.7603 223.801 57.0287 224.714 57.0287 225.902V226.432H51.9849C52.0033 227.166 52.2166 227.76 52.6249 228.214C53.0377 228.664 53.5607 228.889 54.1937 228.889C54.6433 228.889 55.024 228.797 55.336 228.613C55.6479 228.43 55.9209 228.187 56.1548 227.884L56.9324 228.49C56.3085 229.448 55.3727 229.928 54.1249 229.928ZM53.9667 223.253C53.4529 223.253 53.0217 223.441 52.673 223.817C52.3244 224.189 52.1088 224.712 52.0262 225.386H55.7557V225.29C55.719 224.643 55.5447 224.143 55.2328 223.79C54.9208 223.432 54.4988 223.253 53.9667 223.253ZM58.1985 226.005C58.1985 224.863 58.4691 223.946 59.0104 223.253C59.5517 222.556 60.2605 222.207 61.1366 222.207C62.0082 222.207 62.6986 222.505 63.2078 223.102V219.221H64.4808V229.79H63.311L63.2491 228.992C62.7399 229.616 62.0312 229.928 61.1229 229.928C60.2605 229.928 59.5563 229.574 59.0104 228.868C58.4691 228.162 58.1985 227.239 58.1985 226.102V226.005ZM59.4714 226.15C59.4714 226.994 59.6458 227.655 59.9944 228.132C60.343 228.609 60.8247 228.847 61.4394 228.847C62.2468 228.847 62.8363 228.485 63.2078 227.76V224.34C62.8271 223.638 62.2422 223.288 61.4532 223.288C60.8293 223.288 60.343 223.528 59.9944 224.01C59.6458 224.492 59.4714 225.205 59.4714 226.15Z" fill="white"/>
</g>
<g clip-path="url(#clip3)">
<path d="M26.8418 258.386H27.7982C28.3992 258.376 28.8717 258.218 29.2157 257.911C29.5598 257.603 29.7318 257.188 29.7318 256.665C29.7318 255.491 29.1469 254.904 27.9772 254.904C27.4267 254.904 26.9863 255.062 26.656 255.379C26.3303 255.69 26.1675 256.106 26.1675 256.624H24.8945C24.8945 255.83 25.1835 255.172 25.7615 254.649C26.3441 254.122 27.0826 253.858 27.9772 253.858C28.9221 253.858 29.663 254.108 30.1997 254.608C30.7364 255.108 31.0048 255.803 31.0048 256.693C31.0048 257.129 30.8626 257.551 30.5782 257.959C30.2983 258.367 29.9153 258.672 29.429 258.874C29.9795 259.048 30.4039 259.337 30.702 259.741C31.0048 260.145 31.1562 260.638 31.1562 261.22C31.1562 262.12 30.8626 262.833 30.2754 263.36C29.6882 263.888 28.9244 264.152 27.984 264.152C27.0436 264.152 26.2775 263.897 25.6858 263.388C25.0986 262.879 24.805 262.207 24.805 261.372H26.0849C26.0849 261.899 26.2569 262.321 26.601 262.638C26.945 262.954 27.406 263.113 27.984 263.113C28.5987 263.113 29.0689 262.952 29.3946 262.631C29.7203 262.31 29.8832 261.849 29.8832 261.248C29.8832 260.665 29.7043 260.218 29.3465 259.906C28.9887 259.594 28.4726 259.434 27.7982 259.425H26.8418V258.386ZM37.7275 256.569L37.7619 257.395C38.3078 256.752 39.0441 256.431 39.9707 256.431C41.012 256.431 41.7208 256.83 42.097 257.629C42.3447 257.271 42.6658 256.982 43.0603 256.762C43.4594 256.541 43.9296 256.431 44.4709 256.431C46.104 256.431 46.9343 257.296 46.9618 259.025V264.014H45.6888V259.101C45.6888 258.569 45.5673 258.172 45.3241 257.911C45.081 257.645 44.6727 257.512 44.0993 257.512C43.6268 257.512 43.2346 257.654 42.9227 257.938C42.6107 258.218 42.4295 258.597 42.3791 259.074V264.014H41.0992V259.136C41.0992 258.053 40.5694 257.512 39.5097 257.512C38.6748 257.512 38.1037 257.867 37.7963 258.578V264.014H36.5233V256.569H37.7275ZM50.2716 264.014H48.9986V253.445H50.2716V264.014Z" fill="white"/>
</g>
<g clip-path="url(#clip4)">
<path d="M29.1744 298.238H27.8946V289.754L25.328 290.697V289.541L28.9749 288.171H29.1744V298.238ZM37.7275 290.793L37.7619 291.619C38.3078 290.977 39.0441 290.655 39.9707 290.655C41.012 290.655 41.7208 291.055 42.097 291.853C42.3447 291.495 42.6658 291.206 43.0603 290.986C43.4594 290.766 43.9296 290.655 44.4709 290.655C46.104 290.655 46.9343 291.52 46.9618 293.25V298.238H45.6888V293.325C45.6888 292.793 45.5673 292.396 45.3241 292.135C45.081 291.869 44.6727 291.736 44.0993 291.736C43.6268 291.736 43.2346 291.878 42.9227 292.162C42.6107 292.442 42.4295 292.821 42.3791 293.298V298.238H41.0992V293.36C41.0992 292.277 40.5694 291.736 39.5097 291.736C38.6748 291.736 38.1037 292.091 37.7963 292.802V298.238H36.5233V290.793H37.7275ZM50.2716 298.238H48.9986V287.669H50.2716V298.238Z" fill="white"/>
</g>
<g clip-path="url(#clip5)">
<path d="M39.8498 328.726H36.4919V327.687H39.8498V328.726Z" fill="white"/>
</g>
<g clip-path="url(#clip6)">
<path d="M39.8498 362.95H36.4919V361.911H39.8498V362.95Z" fill="white"/>
</g>
</g>
<g clip-path="url(#clip7)">
<g clip-path="url(#clip8)">
<path d="M87.1914 224.794L89.7891 219.797H91.2793L87.8477 226.039V229.75H86.5352V226.039L83.1035 219.797H84.6074L87.1914 224.794ZM91.5801 225.984C91.5801 225.259 91.7214 224.608 92.0039 224.029C92.291 223.45 92.6875 223.003 93.1934 222.689C93.7038 222.375 94.2848 222.217 94.9365 222.217C95.9437 222.217 96.7572 222.566 97.377 223.263C98.0013 223.96 98.3135 224.888 98.3135 226.045V226.134C98.3135 226.854 98.1745 227.501 97.8965 228.076C97.623 228.645 97.2288 229.09 96.7139 229.409C96.2035 229.728 95.6156 229.887 94.9502 229.887C93.9476 229.887 93.1341 229.539 92.5098 228.841C91.89 228.144 91.5801 227.221 91.5801 226.073V225.984ZM92.8516 226.134C92.8516 226.955 93.0407 227.613 93.4189 228.11C93.8018 228.607 94.3122 228.855 94.9502 228.855C95.5928 228.855 96.1032 228.604 96.4814 228.103C96.8597 227.597 97.0488 226.891 97.0488 225.984C97.0488 225.173 96.8551 224.516 96.4678 224.015C96.085 223.509 95.5745 223.256 94.9365 223.256C94.3122 223.256 93.8086 223.505 93.4258 224.001C93.043 224.498 92.8516 225.209 92.8516 226.134ZM104.466 229.019C103.974 229.598 103.251 229.887 102.299 229.887C101.51 229.887 100.909 229.659 100.494 229.204C100.084 228.743 99.8766 228.064 99.8721 227.167V222.354H101.137V227.132C101.137 228.253 101.592 228.814 102.504 228.814C103.47 228.814 104.113 228.454 104.432 227.734V222.354H105.696V229.75H104.493L104.466 229.019ZM115.663 229.75C115.59 229.605 115.531 229.345 115.485 228.971C114.897 229.582 114.196 229.887 113.38 229.887C112.651 229.887 112.051 229.682 111.582 229.272C111.117 228.857 110.885 228.333 110.885 227.7C110.885 226.93 111.176 226.333 111.76 225.909C112.348 225.48 113.173 225.266 114.234 225.266H115.465V224.685C115.465 224.243 115.333 223.892 115.068 223.632C114.804 223.368 114.414 223.236 113.899 223.236C113.448 223.236 113.07 223.35 112.765 223.578C112.459 223.806 112.307 224.081 112.307 224.405H111.035C111.035 224.036 111.165 223.68 111.425 223.338C111.689 222.992 112.045 222.719 112.491 222.518C112.942 222.318 113.437 222.217 113.975 222.217C114.827 222.217 115.494 222.431 115.978 222.86C116.461 223.284 116.711 223.869 116.729 224.617V228.021C116.729 228.7 116.816 229.24 116.989 229.641V229.75H115.663ZM113.564 228.787C113.961 228.787 114.337 228.684 114.692 228.479C115.048 228.274 115.305 228.007 115.465 227.679V226.162H114.474C112.924 226.162 112.149 226.615 112.149 227.522C112.149 227.918 112.282 228.228 112.546 228.452C112.81 228.675 113.15 228.787 113.564 228.787ZM118.404 225.991C118.404 224.856 118.673 223.944 119.211 223.256C119.749 222.564 120.453 222.217 121.323 222.217C122.189 222.217 122.875 222.514 123.381 223.106V219.25H124.646V229.75H123.483L123.422 228.958C122.916 229.577 122.212 229.887 121.31 229.887C120.453 229.887 119.753 229.536 119.211 228.834C118.673 228.133 118.404 227.217 118.404 226.086V225.991ZM119.669 226.134C119.669 226.973 119.842 227.629 120.188 228.103C120.535 228.577 121.013 228.814 121.624 228.814C122.426 228.814 123.012 228.454 123.381 227.734V224.336C123.003 223.639 122.422 223.291 121.638 223.291C121.018 223.291 120.535 223.53 120.188 224.008C119.842 224.487 119.669 225.195 119.669 226.134ZM126.307 225.991C126.307 224.856 126.576 223.944 127.113 223.256C127.651 222.564 128.355 222.217 129.226 222.217C130.091 222.217 130.777 222.514 131.283 223.106V219.25H132.548V229.75H131.386L131.324 228.958C130.818 229.577 130.114 229.887 129.212 229.887C128.355 229.887 127.656 229.536 127.113 228.834C126.576 228.133 126.307 227.217 126.307 226.086V225.991ZM127.571 226.134C127.571 226.973 127.744 227.629 128.091 228.103C128.437 228.577 128.916 228.814 129.526 228.814C130.328 228.814 130.914 228.454 131.283 227.734V224.336C130.905 223.639 130.324 223.291 129.54 223.291C128.92 223.291 128.437 223.53 128.091 224.008C127.744 224.487 127.571 225.195 127.571 226.134ZM137.586 229.887C136.583 229.887 135.768 229.559 135.139 228.903C134.51 228.242 134.195 227.36 134.195 226.257V226.025C134.195 225.291 134.334 224.637 134.612 224.063C134.895 223.484 135.287 223.033 135.788 222.709C136.294 222.381 136.841 222.217 137.429 222.217C138.39 222.217 139.138 222.534 139.671 223.167C140.204 223.801 140.471 224.708 140.471 225.888V226.415H135.46C135.478 227.144 135.69 227.734 136.096 228.185C136.506 228.632 137.025 228.855 137.654 228.855C138.101 228.855 138.479 228.764 138.789 228.582C139.099 228.399 139.37 228.158 139.603 227.857L140.375 228.458C139.755 229.411 138.826 229.887 137.586 229.887ZM137.429 223.256C136.918 223.256 136.49 223.443 136.144 223.817C135.797 224.186 135.583 224.706 135.501 225.375H139.206V225.28C139.17 224.637 138.996 224.14 138.687 223.79C138.377 223.434 137.957 223.256 137.429 223.256ZM141.633 225.991C141.633 224.856 141.902 223.944 142.439 223.256C142.977 222.564 143.681 222.217 144.552 222.217C145.418 222.217 146.104 222.514 146.609 223.106V219.25H147.874V229.75H146.712L146.65 228.958C146.145 229.577 145.44 229.887 144.538 229.887C143.681 229.887 142.982 229.536 142.439 228.834C141.902 228.133 141.633 227.217 141.633 226.086V225.991ZM142.897 226.134C142.897 226.973 143.071 227.629 143.417 228.103C143.763 228.577 144.242 228.814 144.853 228.814C145.655 228.814 146.24 228.454 146.609 227.734V224.336C146.231 223.639 145.65 223.291 144.866 223.291C144.246 223.291 143.763 223.53 143.417 224.008C143.071 224.487 142.897 225.195 142.897 226.134Z" fill="white"/>
</g>
<g clip-path="url(#clip9)">
<path d="M104.667 258.159H105.617C106.214 258.15 106.684 257.992 107.025 257.687C107.367 257.382 107.538 256.969 107.538 256.45C107.538 255.283 106.957 254.7 105.795 254.7C105.248 254.7 104.811 254.857 104.482 255.171C104.159 255.481 103.997 255.894 103.997 256.409H102.732C102.732 255.62 103.02 254.966 103.594 254.447C104.173 253.923 104.906 253.661 105.795 253.661C106.734 253.661 107.47 253.909 108.003 254.406C108.536 254.903 108.803 255.593 108.803 256.477C108.803 256.91 108.661 257.329 108.379 257.735C108.101 258.14 107.72 258.444 107.237 258.644C107.784 258.817 108.206 259.104 108.502 259.505C108.803 259.906 108.953 260.396 108.953 260.975C108.953 261.868 108.661 262.577 108.078 263.101C107.495 263.625 106.736 263.887 105.802 263.887C104.868 263.887 104.106 263.634 103.519 263.128C102.935 262.623 102.644 261.955 102.644 261.125H103.915C103.915 261.65 104.086 262.069 104.428 262.383C104.77 262.698 105.228 262.855 105.802 262.855C106.412 262.855 106.88 262.695 107.203 262.376C107.527 262.057 107.688 261.599 107.688 261.002C107.688 260.424 107.511 259.979 107.155 259.669C106.8 259.36 106.287 259.2 105.617 259.191H104.667V258.159ZM115.481 256.354L115.516 257.174C116.058 256.536 116.789 256.217 117.71 256.217C118.744 256.217 119.449 256.614 119.822 257.407C120.068 257.051 120.387 256.764 120.779 256.545C121.176 256.327 121.643 256.217 122.181 256.217C123.803 256.217 124.628 257.076 124.655 258.794V263.75H123.391V258.87C123.391 258.341 123.27 257.947 123.028 257.687C122.787 257.423 122.381 257.291 121.812 257.291C121.342 257.291 120.952 257.432 120.643 257.714C120.333 257.992 120.153 258.368 120.103 258.842V263.75H118.831V258.904C118.831 257.828 118.305 257.291 117.252 257.291C116.423 257.291 115.855 257.644 115.55 258.35V263.75H114.285V256.354H115.481ZM127.943 263.75H126.679V253.25H127.943V263.75Z" fill="white"/>
</g>
<g clip-path="url(#clip10)">
<path d="M95.6318 293.505C95.6318 294.986 95.3789 296.087 94.873 296.807C94.3672 297.527 93.5765 297.887 92.501 297.887C91.4391 297.887 90.653 297.536 90.1426 296.834C89.6322 296.128 89.3678 295.075 89.3496 293.676V291.988C89.3496 290.525 89.6025 289.438 90.1084 288.727C90.6143 288.016 91.4072 287.661 92.4873 287.661C93.5583 287.661 94.3467 288.005 94.8525 288.693C95.3584 289.376 95.6182 290.434 95.6318 291.865V293.505ZM94.3672 291.776C94.3672 290.705 94.2168 289.926 93.916 289.438C93.6152 288.946 93.139 288.7 92.4873 288.7C91.8402 288.7 91.3685 288.944 91.0723 289.431C90.776 289.919 90.6234 290.668 90.6143 291.68V293.704C90.6143 294.779 90.7692 295.574 91.0791 296.089C91.3936 296.6 91.8675 296.855 92.501 296.855C93.1253 296.855 93.5879 296.613 93.8887 296.13C94.194 295.647 94.3535 294.886 94.3672 293.847V291.776ZM102.044 290.354L102.078 291.174C102.62 290.536 103.352 290.217 104.272 290.217C105.307 290.217 106.011 290.614 106.385 291.407C106.631 291.051 106.95 290.764 107.342 290.545C107.738 290.327 108.205 290.217 108.743 290.217C110.366 290.217 111.19 291.076 111.218 292.794V297.75H109.953V292.87C109.953 292.341 109.832 291.947 109.591 291.687C109.349 291.423 108.944 291.291 108.374 291.291C107.905 291.291 107.515 291.432 107.205 291.714C106.895 291.992 106.715 292.368 106.665 292.842V297.75H105.394V292.904C105.394 291.828 104.867 291.291 103.814 291.291C102.985 291.291 102.418 291.644 102.112 292.35V297.75H100.848V290.354H102.044ZM114.506 297.75H113.241V287.25H114.506V297.75Z" fill="#FF9A1F"/>
<path d="M132.439 287.241L139.341 299.167H125.536L132.439 287.241ZM132.439 283.584L122.355 301.001H142.522L132.439 283.584ZM133.355 296.417H131.522V298.251H133.355V296.417ZM133.355 290.917H131.522V294.584H133.355V290.917Z" fill="#FF9A1F"/>
</g>
<g clip-path="url(#clip11)">
<path d="M117.59 328.039H114.254V327.006H117.59V328.039Z" fill="white"/>
</g>
<g clip-path="url(#clip12)">
<path d="M117.59 362.039H114.254V361.006H117.59V362.039Z" fill="white"/>
</g>
</g>
<g clip-path="url(#clip13)">
<path d="M52.8678 8.16969L56.9044 15.144H48.8311L52.8678 8.16969ZM52.8678 6.03076L46.9709 16.2161H58.7646L52.8678 6.03076ZM53.4038 13.5358H52.3317V14.6079H53.4038V13.5358ZM53.4038 10.3193H52.3317V12.4636H53.4038V10.3193Z" fill="#FF9A1F"/>
</g>
<rect x="42.25" y="0.5" width="71.0018" height="183.075" rx="3.5" stroke="#FF9A1F"/>
<rect x="0.5" y="0.5" width="154.501" height="377.871" rx="14.5" stroke="url(#paint10_linear)" stroke-opacity="0.05"/>
<rect x="203.501" width="155.501" height="378.871" rx="15" fill="url(#paint11_linear)" fill-opacity="0.05"/>
<g clip-path="url(#clip14)">
<g filter="url(#filter10_iiii)">
<path fill-rule="evenodd" clip-rule="evenodd" d="M281.8 116.211C287.764 116.211 292.598 114.085 292.598 111.462C292.598 111.446 292.598 111.43 292.598 111.415H292.598V242.876C292.598 248.84 287.764 253.674 281.8 253.674C275.836 253.674 271.002 248.84 271.002 242.876V111.479C271.023 114.094 275.849 116.211 281.8 116.211ZM271.002 111.445C271.002 111.435 271.002 111.425 271.002 111.415H271.002V111.445Z" fill="white" fill-opacity="0.1"/>
</g>
<ellipse opacity="0.3" cx="281.8" cy="111.485" rx="10.7983" ry="4.74948" fill="#C4C4C4"/>
</g>
<g filter="url(#filter11_iiii)">
<path fill-rule="evenodd" clip-rule="evenodd" d="M270.453 14.7495H270.453V34.0039V34.0924V151.952C270.453 157.916 275.288 162.75 281.251 162.75C287.215 162.75 292.05 157.916 292.05 151.952V34.0924V34.0039V14.7819C292.01 17.39 287.191 19.499 281.252 19.499C275.288 19.499 270.453 17.3726 270.453 14.7495Z" fill="white" fill-opacity="0.1"/>
</g>
<g filter="url(#filter12_ii)">
<ellipse cx="281.251" cy="14.7495" rx="10.7983" ry="4.74948" fill="white" fill-opacity="0.1"/>
</g>
<path d="M281.251 20.0023C284.286 20.0023 287.058 19.4622 289.09 18.5686C290.105 18.1221 290.958 17.5774 291.564 16.947C292.173 16.3142 292.553 15.5708 292.553 14.7495C292.553 13.9281 292.173 13.1847 291.564 12.5519C290.958 11.9216 290.105 11.3769 289.09 10.9304C287.058 10.0367 284.286 9.4967 281.251 9.4967C278.217 9.4967 275.445 10.0367 273.413 10.9304C272.398 11.3769 271.545 11.9216 270.939 12.5519C270.33 13.1847 269.95 13.9281 269.95 14.7495C269.95 15.5708 270.33 16.3142 270.939 16.947C271.545 17.5774 272.398 18.1221 273.413 18.5686C275.445 19.4622 278.217 20.0023 281.251 20.0023Z" stroke="url(#paint12_linear)" stroke-width="1.00659"/>
<g filter="url(#filter13_bii)">
<path d="M281.251 21.0086C284.286 21.0086 287.058 20.4686 289.09 19.5749C290.105 19.1284 290.958 18.5837 291.564 17.9534C292.173 17.3206 292.553 16.5772 292.553 15.7558C292.553 14.9345 292.173 14.1911 291.564 13.5583C290.958 12.9279 290.105 12.3832 289.09 11.9367C287.058 11.0431 284.286 10.5031 281.251 10.5031C278.217 10.5031 275.445 11.0431 273.413 11.9367C272.398 12.3832 271.545 12.9279 270.939 13.5583C270.33 14.1911 269.95 14.9345 269.95 15.7558C269.95 16.5772 270.33 17.3206 270.939 17.9534C271.545 18.5837 272.398 19.1284 273.413 19.5749C275.445 20.4686 278.217 21.0086 281.251 21.0086Z" stroke="url(#paint13_linear)" stroke-width="1.00659"/>
</g>
<g filter="url(#filter14_ii)">
<path d="M281.251 20.0023C284.286 20.0023 287.058 19.4622 289.09 18.5686C290.105 18.1221 290.958 17.5774 291.564 16.947C292.173 16.3142 292.553 15.5708 292.553 14.7495C292.553 13.9281 292.173 13.1847 291.564 12.5519C290.958 11.9216 290.105 11.3769 289.09 10.9304C287.058 10.0367 284.286 9.4967 281.251 9.4967C278.217 9.4967 275.445 10.0367 273.413 10.9304C272.398 11.3769 271.545 11.9216 270.939 12.5519C270.33 13.1847 269.95 13.9281 269.95 14.7495C269.95 15.5708 270.33 16.3142 270.939 16.947C271.545 17.5774 272.398 18.1221 273.413 18.5686C275.445 19.4622 278.217 20.0023 281.251 20.0023Z" stroke="url(#paint14_linear)" stroke-width="1.00659"/>
</g>
<path opacity="0.6" d="M285.701 158.123L285.152 159.016C285.546 159.002 285.943 158.941 286.339 158.828C288.121 158.322 289.397 156.904 289.807 155.225L289.191 154.626C288.907 156.202 287.756 157.56 286.111 158.028C285.975 158.067 285.838 158.098 285.701 158.123Z" fill="#C4C4C4"/>
<rect opacity="0.4" x="289.396" y="42.7388" width="1.09942" height="111.406" fill="url(#paint15_linear)"/>
<rect opacity="0.1" x="272.205" y="42.7388" width="1.09942" height="74.2976" fill="url(#paint16_linear)"/>
<g opacity="0.1" filter="url(#filter15_f)">
<rect x="277.504" y="42.7388" width="3.45945" height="54.4788" fill="url(#paint17_linear)"/>
</g>
<g opacity="0.1" filter="url(#filter16_f)">
<rect x="283.45" y="91.7388" width="3.45945" height="54.4788" fill="url(#paint18_linear)"/>
</g>
<g opacity="0.05" filter="url(#filter17_f)">
<rect x="282.21" y="29.2642" width="6.42971" height="54.4788" fill="url(#paint19_linear)"/>
</g>
<g opacity="0.1" filter="url(#filter18_f)">
<rect x="275.775" y="98.3779" width="7.6755" height="54.4788" fill="url(#paint20_linear)"/>
</g>
<g filter="url(#filter19_d)">
<path d="M274.206 69.7451H276.659V76.3623H278.334V69.7451H280.788V68.3481H274.206V69.7451ZM284.928 76.4719C286.712 76.4719 287.926 75.3097 287.922 73.6896C287.926 72.1556 286.853 71.0521 285.409 71.0521C284.705 71.0521 284.098 71.3456 283.817 71.7408H283.77L283.977 69.7334H287.479V68.3481H282.58L282.201 72.5743L283.707 72.8444C283.954 72.5117 284.431 72.3043 284.905 72.3043C285.711 72.3082 286.29 72.8913 286.29 73.7326C286.29 74.5662 285.722 75.1414 284.928 75.1414C284.255 75.1414 283.711 74.7188 283.672 74.0966H282.028C282.06 75.4818 283.269 76.4719 284.928 76.4719Z" fill="white"/>
</g>
<g opacity="0.6" clip-path="url(#clip15)">
<g clip-path="url(#clip16)">
<path opacity="0.6" d="M218.404 225.737H216.051V229.79H214.723V219.771H218.04C219.168 219.771 220.035 220.028 220.641 220.542C221.251 221.056 221.556 221.803 221.556 222.785C221.556 223.409 221.386 223.953 221.047 224.416C220.712 224.879 220.244 225.226 219.643 225.455L221.996 229.707V229.79H220.579L218.404 225.737ZM216.051 224.657H218.081C218.737 224.657 219.257 224.487 219.643 224.148C220.033 223.808 220.228 223.354 220.228 222.785C220.228 222.166 220.042 221.691 219.67 221.361C219.303 221.031 218.771 220.863 218.074 220.859H216.051V224.657ZM226.304 229.928C225.294 229.928 224.473 229.597 223.84 228.937C223.207 228.272 222.891 227.384 222.891 226.274V226.04C222.891 225.301 223.031 224.643 223.31 224.065C223.595 223.482 223.989 223.028 224.494 222.703C225.003 222.372 225.554 222.207 226.145 222.207C227.113 222.207 227.866 222.526 228.402 223.164C228.939 223.801 229.207 224.714 229.207 225.902V226.432H224.164C224.182 227.166 224.395 227.76 224.804 228.214C225.216 228.664 225.739 228.889 226.372 228.889C226.822 228.889 227.203 228.797 227.515 228.613C227.827 228.43 228.1 228.187 228.334 227.884L229.111 228.49C228.487 229.448 227.551 229.928 226.304 229.928ZM226.145 223.253C225.632 223.253 225.2 223.441 224.852 223.817C224.503 224.189 224.287 224.712 224.205 225.386H227.934V225.29C227.898 224.643 227.723 224.143 227.411 223.79C227.1 223.432 226.677 223.253 226.145 223.253ZM230.377 226.005C230.377 224.836 230.646 223.911 231.182 223.232C231.719 222.549 232.439 222.207 233.343 222.207C234.224 222.207 234.919 222.503 235.428 223.095L235.483 222.345H236.653V232.653H235.38V229.102C234.866 229.652 234.182 229.928 233.329 229.928C232.43 229.928 231.712 229.579 231.175 228.882C230.643 228.18 230.377 227.251 230.377 226.095V226.005ZM231.65 226.15C231.65 227.003 231.829 227.673 232.187 228.159C232.549 228.646 233.036 228.889 233.646 228.889C234.403 228.889 234.981 228.554 235.38 227.884V224.237C234.976 223.581 234.403 223.253 233.659 223.253C233.045 223.253 232.556 223.499 232.194 223.989C231.831 224.476 231.65 225.196 231.65 226.15ZM243.293 229.054C242.797 229.636 242.07 229.928 241.112 229.928C240.318 229.928 239.712 229.698 239.295 229.24C238.882 228.776 238.673 228.093 238.669 227.189V222.345H239.942V227.155C239.942 228.283 240.4 228.847 241.318 228.847C242.29 228.847 242.937 228.485 243.258 227.76V222.345H244.531V229.79H243.32L243.293 229.054ZM247.855 229.79H246.582V222.345H247.855V229.79ZM246.479 220.37C246.479 220.164 246.541 219.989 246.664 219.847C246.793 219.705 246.981 219.634 247.229 219.634C247.476 219.634 247.665 219.705 247.793 219.847C247.921 219.989 247.986 220.164 247.986 220.37C247.986 220.576 247.921 220.748 247.793 220.886C247.665 221.024 247.476 221.092 247.229 221.092C246.981 221.092 246.793 221.024 246.664 220.886C246.541 220.748 246.479 220.576 246.479 220.37ZM253.497 223.487C253.305 223.455 253.096 223.439 252.871 223.439C252.036 223.439 251.47 223.794 251.172 224.505V229.79H249.899V222.345H251.137L251.158 223.205C251.575 222.54 252.167 222.207 252.933 222.207C253.181 222.207 253.369 222.239 253.497 222.304V223.487ZM257.626 229.928C256.617 229.928 255.796 229.597 255.162 228.937C254.529 228.272 254.213 227.384 254.213 226.274V226.04C254.213 225.301 254.353 224.643 254.633 224.065C254.917 223.482 255.312 223.028 255.816 222.703C256.325 222.372 256.876 222.207 257.468 222.207C258.436 222.207 259.188 222.526 259.725 223.164C260.261 223.801 260.53 224.714 260.53 225.902V226.432H255.486C255.504 227.166 255.718 227.76 256.126 228.214C256.539 228.664 257.062 228.889 257.695 228.889C258.144 228.889 258.525 228.797 258.837 228.613C259.149 228.43 259.422 228.187 259.656 227.884L260.433 228.49C259.809 229.448 258.874 229.928 257.626 229.928ZM257.468 223.253C256.954 223.253 256.523 223.441 256.174 223.817C255.825 224.189 255.61 224.712 255.527 225.386H259.257V225.29C259.22 224.643 259.046 224.143 258.734 223.79C258.422 223.432 258 223.253 257.468 223.253ZM261.699 226.005C261.699 224.863 261.97 223.946 262.511 223.253C263.053 222.556 263.761 222.207 264.638 222.207C265.509 222.207 266.2 222.505 266.709 223.102V219.221H267.982V229.79H266.812L266.75 228.992C266.241 229.616 265.532 229.928 264.624 229.928C263.761 229.928 263.057 229.574 262.511 228.868C261.97 228.162 261.699 227.239 261.699 226.102V226.005ZM262.972 226.15C262.972 226.994 263.147 227.655 263.495 228.132C263.844 228.609 264.326 228.847 264.94 228.847C265.748 228.847 266.337 228.485 266.709 227.76V224.34C266.328 223.638 265.743 223.288 264.954 223.288C264.33 223.288 263.844 223.528 263.495 224.01C263.147 224.492 262.972 225.205 262.972 226.15Z" fill="white"/>
</g>
<g clip-path="url(#clip17)">
<path d="M229.077 258.991L229.586 253.995H234.719V255.172H230.666L230.363 257.904C230.854 257.615 231.412 257.47 232.035 257.47C232.948 257.47 233.673 257.773 234.21 258.379C234.747 258.98 235.015 259.794 235.015 260.821C235.015 261.854 234.735 262.668 234.175 263.264C233.62 263.856 232.843 264.152 231.843 264.152C230.957 264.152 230.235 263.906 229.675 263.416C229.116 262.925 228.797 262.246 228.719 261.379H229.923C230.001 261.952 230.205 262.386 230.535 262.679C230.866 262.968 231.302 263.113 231.843 263.113C232.435 263.113 232.898 262.911 233.233 262.507C233.572 262.104 233.742 261.546 233.742 260.835C233.742 260.165 233.558 259.629 233.191 259.225C232.829 258.817 232.345 258.613 231.74 258.613C231.185 258.613 230.749 258.734 230.432 258.977L230.095 259.253L229.077 258.991ZM241.228 256.569L241.263 257.395C241.809 256.752 242.545 256.431 243.472 256.431C244.513 256.431 245.222 256.83 245.598 257.629C245.846 257.271 246.167 256.982 246.561 256.762C246.96 256.541 247.431 256.431 247.972 256.431C249.605 256.431 250.435 257.296 250.463 259.025V264.014H249.19V259.101C249.19 258.569 249.068 258.172 248.825 257.911C248.582 257.645 248.174 257.512 247.6 257.512C247.128 257.512 246.736 257.654 246.424 257.938C246.112 258.218 245.931 258.597 245.88 259.074V264.014H244.6V259.136C244.6 258.053 244.07 257.512 243.011 257.512C242.176 257.512 241.605 257.867 241.297 258.578V264.014H240.024V256.569H241.228ZM253.773 264.014H252.5V253.445H253.773V264.014Z" fill="white"/>
</g>
<g clip-path="url(#clip18)">
<path d="M232.675 298.238H231.396V289.754L228.829 290.697V289.541L232.476 288.171H232.675V298.238ZM241.228 290.793L241.263 291.619C241.809 290.977 242.545 290.655 243.472 290.655C244.513 290.655 245.222 291.055 245.598 291.853C245.846 291.495 246.167 291.206 246.561 290.986C246.96 290.766 247.431 290.655 247.972 290.655C249.605 290.655 250.435 291.52 250.463 293.25V298.238H249.19V293.325C249.19 292.793 249.068 292.396 248.825 292.135C248.582 291.869 248.174 291.736 247.6 291.736C247.128 291.736 246.736 291.878 246.424 292.162C246.112 292.442 245.931 292.821 245.88 293.298V298.238H244.6V293.36C244.6 292.277 244.07 291.736 243.011 291.736C242.176 291.736 241.605 292.091 241.297 292.802V298.238H240.024V290.793H241.228ZM253.773 298.238H252.5V287.669H253.773V298.238Z" fill="white"/>
</g>
<g clip-path="url(#clip19)">
<path d="M243.351 328.726H239.993V327.687H243.351V328.726Z" fill="white"/>
</g>
<g clip-path="url(#clip20)">
<path d="M243.351 362.95H239.993V361.911H243.351V362.95Z" fill="white"/>
</g>
</g>
<g clip-path="url(#clip21)">
<g clip-path="url(#clip22)">
<path d="M290.692 224.794L293.29 219.797H294.78L291.349 226.039V229.75H290.036V226.039L286.604 219.797H288.108L290.692 224.794ZM295.081 225.984C295.081 225.259 295.222 224.608 295.505 224.029C295.792 223.45 296.188 223.003 296.694 222.689C297.205 222.375 297.786 222.217 298.438 222.217C299.445 222.217 300.258 222.566 300.878 223.263C301.502 223.96 301.814 224.888 301.814 226.045V226.134C301.814 226.854 301.675 227.501 301.397 228.076C301.124 228.645 300.73 229.09 300.215 229.409C299.704 229.728 299.117 229.887 298.451 229.887C297.449 229.887 296.635 229.539 296.011 228.841C295.391 228.144 295.081 227.221 295.081 226.073V225.984ZM296.353 226.134C296.353 226.955 296.542 227.613 296.92 228.11C297.303 228.607 297.813 228.855 298.451 228.855C299.094 228.855 299.604 228.604 299.982 228.103C300.361 227.597 300.55 226.891 300.55 225.984C300.55 225.173 300.356 224.516 299.969 224.015C299.586 223.509 299.076 223.256 298.438 223.256C297.813 223.256 297.31 223.505 296.927 224.001C296.544 224.498 296.353 225.209 296.353 226.134ZM307.967 229.019C307.475 229.598 306.752 229.887 305.8 229.887C305.011 229.887 304.41 229.659 303.995 229.204C303.585 228.743 303.378 228.064 303.373 227.167V222.354H304.638V227.132C304.638 228.253 305.093 228.814 306.005 228.814C306.971 228.814 307.614 228.454 307.933 227.734V222.354H309.197V229.75H307.994L307.967 229.019ZM319.164 229.75C319.091 229.605 319.032 229.345 318.986 228.971C318.398 229.582 317.697 229.887 316.881 229.887C316.152 229.887 315.552 229.682 315.083 229.272C314.618 228.857 314.386 228.333 314.386 227.7C314.386 226.93 314.677 226.333 315.261 225.909C315.849 225.48 316.674 225.266 317.735 225.266H318.966V224.685C318.966 224.243 318.834 223.892 318.569 223.632C318.305 223.368 317.915 223.236 317.4 223.236C316.949 223.236 316.571 223.35 316.266 223.578C315.96 223.806 315.808 224.081 315.808 224.405H314.536C314.536 224.036 314.666 223.68 314.926 223.338C315.19 222.992 315.546 222.719 315.992 222.518C316.443 222.318 316.938 222.217 317.476 222.217C318.328 222.217 318.995 222.431 319.479 222.86C319.962 223.284 320.212 223.869 320.23 224.617V228.021C320.23 228.7 320.317 229.24 320.49 229.641V229.75H319.164ZM317.065 228.787C317.462 228.787 317.838 228.684 318.193 228.479C318.549 228.274 318.806 228.007 318.966 227.679V226.162H317.975C316.425 226.162 315.65 226.615 315.65 227.522C315.65 227.918 315.783 228.228 316.047 228.452C316.311 228.675 316.651 228.787 317.065 228.787ZM321.905 225.991C321.905 224.856 322.174 223.944 322.712 223.256C323.25 222.564 323.954 222.217 324.824 222.217C325.69 222.217 326.376 222.514 326.882 223.106V219.25H328.146V229.75H326.984L326.923 228.958C326.417 229.577 325.713 229.887 324.811 229.887C323.954 229.887 323.254 229.536 322.712 228.834C322.174 228.133 321.905 227.217 321.905 226.086V225.991ZM323.17 226.134C323.17 226.973 323.343 227.629 323.689 228.103C324.036 228.577 324.514 228.814 325.125 228.814C325.927 228.814 326.513 228.454 326.882 227.734V224.336C326.504 223.639 325.923 223.291 325.139 223.291C324.519 223.291 324.036 223.53 323.689 224.008C323.343 224.487 323.17 225.195 323.17 226.134ZM329.808 225.991C329.808 224.856 330.076 223.944 330.614 223.256C331.152 222.564 331.856 222.217 332.727 222.217C333.592 222.217 334.278 222.514 334.784 223.106V219.25H336.049V229.75H334.887L334.825 228.958C334.319 229.577 333.615 229.887 332.713 229.887C331.856 229.887 331.157 229.536 330.614 228.834C330.076 228.133 329.808 227.217 329.808 226.086V225.991ZM331.072 226.134C331.072 226.973 331.245 227.629 331.592 228.103C331.938 228.577 332.417 228.814 333.027 228.814C333.829 228.814 334.415 228.454 334.784 227.734V224.336C334.406 223.639 333.825 223.291 333.041 223.291C332.421 223.291 331.938 223.53 331.592 224.008C331.245 224.487 331.072 225.195 331.072 226.134ZM341.087 229.887C340.084 229.887 339.269 229.559 338.64 228.903C338.011 228.242 337.696 227.36 337.696 226.257V226.025C337.696 225.291 337.835 224.637 338.113 224.063C338.396 223.484 338.788 223.033 339.289 222.709C339.795 222.381 340.342 222.217 340.93 222.217C341.891 222.217 342.639 222.534 343.172 223.167C343.705 223.801 343.972 224.708 343.972 225.888V226.415H338.961C338.979 227.144 339.191 227.734 339.597 228.185C340.007 228.632 340.526 228.855 341.155 228.855C341.602 228.855 341.98 228.764 342.29 228.582C342.6 228.399 342.871 228.158 343.104 227.857L343.876 228.458C343.256 229.411 342.326 229.887 341.087 229.887ZM340.93 223.256C340.419 223.256 339.991 223.443 339.645 223.817C339.298 224.186 339.084 224.706 339.002 225.375H342.707V225.28C342.671 224.637 342.497 224.14 342.188 223.79C341.878 223.434 341.458 223.256 340.93 223.256ZM345.134 225.991C345.134 224.856 345.403 223.944 345.94 223.256C346.478 222.564 347.182 222.217 348.053 222.217C348.919 222.217 349.604 222.514 350.11 223.106V219.25H351.375V229.75H350.213L350.151 228.958C349.646 229.577 348.941 229.887 348.039 229.887C347.182 229.887 346.483 229.536 345.94 228.834C345.403 228.133 345.134 227.217 345.134 226.086V225.991ZM346.398 226.134C346.398 226.973 346.572 227.629 346.918 228.103C347.264 228.577 347.743 228.814 348.354 228.814C349.156 228.814 349.741 228.454 350.11 227.734V224.336C349.732 223.639 349.151 223.291 348.367 223.291C347.747 223.291 347.264 223.53 346.918 224.008C346.572 224.487 346.398 225.195 346.398 226.134Z" fill="white"/>
</g>
<g clip-path="url(#clip23)">
<path d="M306.91 258.76L307.416 253.797H312.516V254.966H308.489L308.188 257.68C308.676 257.393 309.23 257.25 309.85 257.25C310.757 257.25 311.477 257.55 312.01 258.152C312.543 258.749 312.81 259.558 312.81 260.579C312.81 261.604 312.532 262.413 311.976 263.005C311.424 263.593 310.652 263.887 309.658 263.887C308.779 263.887 308.061 263.643 307.505 263.156C306.949 262.668 306.632 261.994 306.555 261.132H307.751C307.828 261.702 308.031 262.133 308.359 262.424C308.688 262.711 309.12 262.855 309.658 262.855C310.246 262.855 310.706 262.654 311.039 262.253C311.376 261.852 311.545 261.299 311.545 260.592C311.545 259.927 311.363 259.394 310.998 258.993C310.638 258.587 310.157 258.384 309.556 258.384C309.004 258.384 308.571 258.505 308.257 258.747L307.922 259.02L306.91 258.76ZM318.982 256.354L319.017 257.174C319.559 256.536 320.29 256.217 321.211 256.217C322.245 256.217 322.95 256.614 323.323 257.407C323.569 257.051 323.888 256.764 324.28 256.545C324.677 256.327 325.144 256.217 325.682 256.217C327.304 256.217 328.129 257.076 328.156 258.794V263.75H326.892V258.87C326.892 258.341 326.771 257.947 326.529 257.687C326.288 257.423 325.882 257.291 325.312 257.291C324.843 257.291 324.453 257.432 324.144 257.714C323.834 257.992 323.654 258.368 323.604 258.842V263.75H322.332V258.904C322.332 257.828 321.806 257.291 320.753 257.291C319.924 257.291 319.356 257.644 319.051 258.35V263.75H317.786V256.354H318.982ZM331.444 263.75H330.18V253.25H331.444V263.75Z" fill="white"/>
</g>
<g clip-path="url(#clip24)">
<path d="M293.473 292.76L293.979 287.797H299.078V288.966H295.052L294.751 291.68C295.239 291.393 295.792 291.25 296.412 291.25C297.319 291.25 298.039 291.55 298.572 292.152C299.105 292.749 299.372 293.558 299.372 294.579C299.372 295.604 299.094 296.413 298.538 297.005C297.987 297.593 297.214 297.887 296.221 297.887C295.341 297.887 294.623 297.643 294.067 297.156C293.511 296.668 293.195 295.994 293.117 295.132H294.313C294.391 295.702 294.594 296.133 294.922 296.424C295.25 296.711 295.683 296.855 296.221 296.855C296.809 296.855 297.269 296.654 297.602 296.253C297.939 295.852 298.107 295.299 298.107 294.592C298.107 293.927 297.925 293.394 297.561 292.993C297.201 292.587 296.72 292.384 296.118 292.384C295.567 292.384 295.134 292.505 294.819 292.747L294.484 293.02L293.473 292.76ZM305.545 290.354L305.579 291.174C306.121 290.536 306.853 290.217 307.773 290.217C308.808 290.217 309.512 290.614 309.886 291.407C310.132 291.051 310.451 290.764 310.843 290.545C311.239 290.327 311.706 290.217 312.244 290.217C313.867 290.217 314.691 291.076 314.719 292.794V297.75H313.454V292.87C313.454 292.341 313.333 291.947 313.092 291.687C312.85 291.423 312.445 291.291 311.875 291.291C311.406 291.291 311.016 291.432 310.706 291.714C310.396 291.992 310.216 292.368 310.166 292.842V297.75H308.895V292.904C308.895 291.828 308.368 291.291 307.315 291.291C306.486 291.291 305.919 291.644 305.613 292.35V297.75H304.349V290.354H305.545ZM318.007 297.75H316.742V287.25H318.007V297.75Z" fill="#F5222D"/>
<g clip-path="url(#clip25)">
<path d="M335.94 287.241L342.842 299.167H329.037L335.94 287.241ZM335.94 283.584L325.856 301.001H346.023L335.94 283.584ZM336.856 296.417H335.023V298.251H336.856V296.417ZM336.856 290.917H335.023V294.584H336.856V290.917Z" fill="#F5222D"/>
</g>
</g>
<g clip-path="url(#clip26)">
<path d="M310.485 331.75H309.214V323.322L306.664 324.258V323.11L310.287 321.75H310.485V331.75ZM318.982 324.354L319.017 325.174C319.559 324.536 320.29 324.217 321.211 324.217C322.245 324.217 322.95 324.614 323.323 325.407C323.569 325.051 323.888 324.764 324.28 324.545C324.677 324.327 325.144 324.217 325.682 324.217C327.304 324.217 328.129 325.076 328.156 326.794V331.75H326.892V326.87C326.892 326.341 326.771 325.947 326.529 325.687C326.288 325.423 325.882 325.291 325.312 325.291C324.843 325.291 324.453 325.432 324.144 325.714C323.834 325.992 323.654 326.368 323.604 326.842V331.75H322.332V326.904C322.332 325.828 321.806 325.291 320.753 325.291C319.924 325.291 319.356 325.644 319.051 326.35V331.75H317.786V324.354H318.982ZM331.444 331.75H330.18V321.25H331.444V331.75Z" fill="white"/>
</g>
<g clip-path="url(#clip27)">
<path d="M321.091 362.039H317.755V361.006H321.091V362.039Z" fill="white"/>
</g>
</g>
<rect x="257.862" y="170.075" width="46" height="24" rx="4" fill="#474747"/>
<path d="M265.503 186.075H266.82V182.772H268.609C268.639 182.772 268.665 182.772 268.695 182.772L270.467 186.075H271.967L270.033 182.542C271.102 182.146 271.635 181.255 271.635 180.083C271.635 178.477 270.638 177.347 268.614 177.347H265.503V186.075ZM266.82 181.639V178.477H268.473C269.773 178.477 270.31 179.095 270.31 180.083C270.31 181.068 269.773 181.639 268.49 181.639H266.82ZM275.874 186.207C277.301 186.207 278.311 185.504 278.601 184.438L277.395 184.221C277.165 184.839 276.611 185.154 275.887 185.154C274.796 185.154 274.063 184.447 274.029 183.186H278.682V182.734C278.682 180.369 277.267 179.444 275.784 179.444C273.96 179.444 272.759 180.833 272.759 182.845C272.759 184.877 273.943 186.207 275.874 186.207ZM274.033 182.231C274.084 181.302 274.757 180.497 275.793 180.497C276.782 180.497 277.429 181.23 277.434 182.231H274.033ZM285.001 181.127C284.736 180.109 283.94 179.444 282.525 179.444C281.046 179.444 279.998 180.224 279.998 181.383C279.998 182.312 280.56 182.93 281.788 183.203L282.896 183.445C283.526 183.586 283.82 183.867 283.82 184.276C283.82 184.784 283.279 185.18 282.444 185.18C281.681 185.18 281.191 184.852 281.038 184.208L279.806 184.396C280.019 185.555 280.982 186.207 282.452 186.207C284.033 186.207 285.128 185.367 285.128 184.183C285.128 183.258 284.54 182.687 283.339 182.41L282.299 182.171C281.579 182.001 281.268 181.758 281.272 181.315C281.268 180.812 281.813 180.454 282.538 180.454C283.33 180.454 283.697 180.893 283.846 181.332L285.001 181.127ZM289.35 186.207C290.778 186.207 291.788 185.504 292.078 184.438L290.872 184.221C290.642 184.839 290.088 185.154 289.363 185.154C288.272 185.154 287.539 184.447 287.505 183.186H292.159V182.734C292.159 180.369 290.744 179.444 289.261 179.444C287.437 179.444 286.235 180.833 286.235 182.845C286.235 184.877 287.42 186.207 289.35 186.207ZM287.509 182.231C287.561 181.302 288.234 180.497 289.269 180.497C290.258 180.497 290.906 181.23 290.91 182.231H287.509ZM296.628 179.529H295.285V177.961H294.011V179.529H293.052V180.552H294.011V184.417C294.007 185.606 294.915 186.181 295.92 186.16C296.325 186.156 296.598 186.079 296.747 186.024L296.517 184.971C296.432 184.988 296.274 185.026 296.07 185.026C295.656 185.026 295.285 184.89 295.285 184.153V180.552H296.628V179.529Z" fill="white"/>
<g clip-path="url(#clip28)">
<path d="M256.369 8.16969L260.405 15.144H252.332L256.369 8.16969ZM256.369 6.03076L250.472 16.2161H262.266L256.369 6.03076ZM256.905 13.5358H255.833V14.6079H256.905V13.5358ZM256.905 10.3193H255.833V12.4636H256.905V10.3193Z" fill="#F5222D"/>
</g>
<rect x="245.751" y="0.5" width="71.0018" height="183.075" rx="3.5" stroke="#F5222D"/>
<rect x="204.001" y="0.5" width="154.501" height="377.871" rx="14.5" stroke="url(#paint21_linear)" stroke-opacity="0.05"/>
<path d="M179.501 0L179.501 379" stroke="white"/>
<defs>
<filter id="filter0_iiii" x="66.4941" y="141.612" width="25.623" height="142.26" filterUnits="userSpaceOnUse" color-interpolation-filters="sRGB">
<feFlood flood-opacity="0" result="BackgroundImageFix"/>
<feBlend mode="normal" in="SourceGraphic" in2="BackgroundImageFix" result="shape"/>
<feColorMatrix in="SourceAlpha" type="matrix" values="0 0 0 0 0 0 0 0 0 0 0 0 0 0 0 0 0 0 127 0" result="hardAlpha"/>
<feOffset dx="3.01977"/>
<feGaussianBlur stdDeviation="2.51648"/>
<feComposite in2="hardAlpha" operator="arithmetic" k2="-1" k3="1"/>
<feColorMatrix type="matrix" values="0 0 0 0 1 0 0 0 0 1 0 0 0 0 1 0 0 0 0.1 0"/>
<feBlend mode="normal" in2="shape" result="effect1_innerShadow"/>
<feColorMatrix in="SourceAlpha" type="matrix" values="0 0 0 0 0 0 0 0 0 0 0 0 0 0 0 0 0 0 127 0" result="hardAlpha"/>
<feOffset dx="1.00659"/>
<feGaussianBlur stdDeviation="0.503296"/>
<feComposite in2="hardAlpha" operator="arithmetic" k2="-1" k3="1"/>
<feColorMatrix type="matrix" values="0 0 0 0 1 0 0 0 0 1 0 0 0 0 1 0 0 0 0.2 0"/>
<feBlend mode="normal" in2="effect1_innerShadow" result="effect2_innerShadow"/>
<feColorMatrix in="SourceAlpha" type="matrix" values="0 0 0 0 0 0 0 0 0 0 0 0 0 0 0 0 0 0 127 0" result="hardAlpha"/>
<feOffset dx="-1.00659"/>
<feGaussianBlur stdDeviation="0.503296"/>
<feComposite in2="hardAlpha" operator="arithmetic" k2="-1" k3="1"/>
<feColorMatrix type="matrix" values="0 0 0 0 1 0 0 0 0 1 0 0 0 0 1 0 0 0 0.2 0"/>
<feBlend mode="normal" in2="effect2_innerShadow" result="effect3_innerShadow"/>
<feColorMatrix in="SourceAlpha" type="matrix" values="0 0 0 0 0 0 0 0 0 0 0 0 0 0 0 0 0 0 127 0" result="hardAlpha"/>
<feOffset dx="-1.00659"/>
<feGaussianBlur stdDeviation="4.52966"/>
<feComposite in2="hardAlpha" operator="arithmetic" k2="-1" k3="1"/>
<feColorMatrix type="matrix" values="0 0 0 0 1 0 0 0 0 1 0 0 0 0 1 0 0 0 0.2 0"/>
<feBlend mode="normal" in2="effect3_innerShadow" result="effect4_innerShadow"/>
</filter>
<filter id="filter1_iiii" x="65.9456" y="14.7495" width="25.623" height="148.001" filterUnits="userSpaceOnUse" color-interpolation-filters="sRGB">
<feFlood flood-opacity="0" result="BackgroundImageFix"/>
<feBlend mode="normal" in="SourceGraphic" in2="BackgroundImageFix" result="shape"/>
<feColorMatrix in="SourceAlpha" type="matrix" values="0 0 0 0 0 0 0 0 0 0 0 0 0 0 0 0 0 0 127 0" result="hardAlpha"/>
<feOffset dx="3.01977"/>
<feGaussianBlur stdDeviation="2.51648"/>
<feComposite in2="hardAlpha" operator="arithmetic" k2="-1" k3="1"/>
<feColorMatrix type="matrix" values="0 0 0 0 1 0 0 0 0 1 0 0 0 0 1 0 0 0 0.1 0"/>
<feBlend mode="normal" in2="shape" result="effect1_innerShadow"/>
<feColorMatrix in="SourceAlpha" type="matrix" values="0 0 0 0 0 0 0 0 0 0 0 0 0 0 0 0 0 0 127 0" result="hardAlpha"/>
<feOffset dx="1.00659"/>
<feGaussianBlur stdDeviation="0.503296"/>
<feComposite in2="hardAlpha" operator="arithmetic" k2="-1" k3="1"/>
<feColorMatrix type="matrix" values="0 0 0 0 1 0 0 0 0 1 0 0 0 0 1 0 0 0 0.2 0"/>
<feBlend mode="normal" in2="effect1_innerShadow" result="effect2_innerShadow"/>
<feColorMatrix in="SourceAlpha" type="matrix" values="0 0 0 0 0 0 0 0 0 0 0 0 0 0 0 0 0 0 127 0" result="hardAlpha"/>
<feOffset dx="-1.00659"/>
<feGaussianBlur stdDeviation="0.503296"/>
<feComposite in2="hardAlpha" operator="arithmetic" k2="-1" k3="1"/>
<feColorMatrix type="matrix" values="0 0 0 0 1 0 0 0 0 1 0 0 0 0 1 0 0 0 0.2 0"/>
<feBlend mode="normal" in2="effect2_innerShadow" result="effect3_innerShadow"/>
<feColorMatrix in="SourceAlpha" type="matrix" values="0 0 0 0 0 0 0 0 0 0 0 0 0 0 0 0 0 0 127 0" result="hardAlpha"/>
<feOffset dx="-1.00659"/>
<feGaussianBlur stdDeviation="4.52966"/>
<feComposite in2="hardAlpha" operator="arithmetic" k2="-1" k3="1"/>
<feColorMatrix type="matrix" values="0 0 0 0 1 0 0 0 0 1 0 0 0 0 1 0 0 0 0.2 0"/>
<feBlend mode="normal" in2="effect3_innerShadow" result="effect4_innerShadow"/>
</filter>
<filter id="filter2_ii" x="65.9456" y="8.99365" width="26.6296" height="11.5121" filterUnits="userSpaceOnUse" color-interpolation-filters="sRGB">
<feFlood flood-opacity="0" result="BackgroundImageFix"/>
<feBlend mode="normal" in="SourceGraphic" in2="BackgroundImageFix" result="shape"/>
<feColorMatrix in="SourceAlpha" type="matrix" values="0 0 0 0 0 0 0 0 0 0 0 0 0 0 0 0 0 0 127 0" result="hardAlpha"/>
<feOffset dx="3.01977"/>
<feGaussianBlur stdDeviation="2.51648"/>
<feComposite in2="hardAlpha" operator="arithmetic" k2="-1" k3="1"/>
<feColorMatrix type="matrix" values="0 0 0 0 1 0 0 0 0 1 0 0 0 0 1 0 0 0 0.1 0"/>
<feBlend mode="normal" in2="shape" result="effect1_innerShadow"/>
<feColorMatrix in="SourceAlpha" type="matrix" values="0 0 0 0 0 0 0 0 0 0 0 0 0 0 0 0 0 0 127 0" result="hardAlpha"/>
<feOffset dx="1.00659"/>
<feGaussianBlur stdDeviation="0.503296"/>
<feComposite in2="hardAlpha" operator="arithmetic" k2="-1" k3="1"/>
<feColorMatrix type="matrix" values="0 0 0 0 1 0 0 0 0 1 0 0 0 0 1 0 0 0 0.2 0"/>
<feBlend mode="normal" in2="effect1_innerShadow" result="effect2_innerShadow"/>
</filter>
<filter id="filter3_bii" x="59.906" y="3.96045" width="35.6889" height="23.5912" filterUnits="userSpaceOnUse" color-interpolation-filters="sRGB">
<feFlood flood-opacity="0" result="BackgroundImageFix"/>
<feGaussianBlur in="BackgroundImage" stdDeviation="3.01977"/>
<feComposite in2="SourceAlpha" operator="in" result="effect1_backgroundBlur"/>
<feBlend mode="normal" in="SourceGraphic" in2="effect1_backgroundBlur" result="shape"/>
<feColorMatrix in="SourceAlpha" type="matrix" values="0 0 0 0 0 0 0 0 0 0 0 0 0 0 0 0 0 0 127 0" result="hardAlpha"/>
<feOffset dx="3.01977"/>
<feGaussianBlur stdDeviation="2.51648"/>
<feComposite in2="hardAlpha" operator="arithmetic" k2="-1" k3="1"/>
<feColorMatrix type="matrix" values="0 0 0 0 1 0 0 0 0 1 0 0 0 0 1 0 0 0 0.1 0"/>
<feBlend mode="normal" in2="shape" result="effect2_innerShadow"/>
<feColorMatrix in="SourceAlpha" type="matrix" values="0 0 0 0 0 0 0 0 0 0 0 0 0 0 0 0 0 0 127 0" result="hardAlpha"/>
<feOffset dx="1.00659"/>
<feGaussianBlur stdDeviation="0.503296"/>
<feComposite in2="hardAlpha" operator="arithmetic" k2="-1" k3="1"/>
<feColorMatrix type="matrix" values="0 0 0 0 1 0 0 0 0 1 0 0 0 0 1 0 0 0 0.2 0"/>
<feBlend mode="normal" in2="effect2_innerShadow" result="effect3_innerShadow"/>
</filter>
<filter id="filter4_ii" x="65.9456" y="8.99365" width="26.6296" height="11.5121" filterUnits="userSpaceOnUse" color-interpolation-filters="sRGB">
<feFlood flood-opacity="0" result="BackgroundImageFix"/>
<feBlend mode="normal" in="SourceGraphic" in2="BackgroundImageFix" result="shape"/>
<feColorMatrix in="SourceAlpha" type="matrix" values="0 0 0 0 0 0 0 0 0 0 0 0 0 0 0 0 0 0 127 0" result="hardAlpha"/>
<feOffset dx="3.01977"/>
<feGaussianBlur stdDeviation="2.51648"/>
<feComposite in2="hardAlpha" operator="arithmetic" k2="-1" k3="1"/>
<feColorMatrix type="matrix" values="0 0 0 0 1 0 0 0 0 1 0 0 0 0 1 0 0 0 0.1 0"/>
<feBlend mode="normal" in2="shape" result="effect1_innerShadow"/>
<feColorMatrix in="SourceAlpha" type="matrix" values="0 0 0 0 0 0 0 0 0 0 0 0 0 0 0 0 0 0 127 0" result="hardAlpha"/>
<feOffset dx="1.00659"/>
<feGaussianBlur stdDeviation="0.503296"/>
<feComposite in2="hardAlpha" operator="arithmetic" k2="-1" k3="1"/>
<feColorMatrix type="matrix" values="0 0 0 0 1 0 0 0 0 1 0 0 0 0 1 0 0 0 0.2 0"/>
<feBlend mode="normal" in2="effect1_innerShadow" result="effect2_innerShadow"/>
</filter>
<filter id="filter5_f" x="69.9771" y="38.7124" width="11.5122" height="62.5316" filterUnits="userSpaceOnUse" color-interpolation-filters="sRGB">
<feFlood flood-opacity="0" result="BackgroundImageFix"/>
<feBlend mode="normal" in="SourceGraphic" in2="BackgroundImageFix" result="shape"/>
<feGaussianBlur stdDeviation="2.01318" result="effect1_foregroundBlur"/>
</filter>
<filter id="filter6_f" x="75.9229" y="87.7124" width="11.5122" height="62.5316" filterUnits="userSpaceOnUse" color-interpolation-filters="sRGB">
<feFlood flood-opacity="0" result="BackgroundImageFix"/>
<feBlend mode="normal" in="SourceGraphic" in2="BackgroundImageFix" result="shape"/>
<feGaussianBlur stdDeviation="2.01318" result="effect1_foregroundBlur"/>
</filter>
<filter id="filter7_f" x="74.6824" y="25.2378" width="14.4824" height="62.5316" filterUnits="userSpaceOnUse" color-interpolation-filters="sRGB">
<feFlood flood-opacity="0" result="BackgroundImageFix"/>
<feBlend mode="normal" in="SourceGraphic" in2="BackgroundImageFix" result="shape"/>
<feGaussianBlur stdDeviation="2.01318" result="effect1_foregroundBlur"/>
</filter>
<filter id="filter8_f" x="68.2473" y="94.3516" width="15.7282" height="62.5316" filterUnits="userSpaceOnUse" color-interpolation-filters="sRGB">
<feFlood flood-opacity="0" result="BackgroundImageFix"/>
<feBlend mode="normal" in="SourceGraphic" in2="BackgroundImageFix" result="shape"/>
<feGaussianBlur stdDeviation="2.01318" result="effect1_foregroundBlur"/>
</filter>
<filter id="filter9_d" x="66.6775" y="67.3416" width="22.0424" height="16.0669" filterUnits="userSpaceOnUse" color-interpolation-filters="sRGB">
<feFlood flood-opacity="0" result="BackgroundImageFix"/>
<feColorMatrix in="SourceAlpha" type="matrix" values="0 0 0 0 0 0 0 0 0 0 0 0 0 0 0 0 0 0 127 0" result="hardAlpha"/>
<feOffset dy="3.01977"/>
<feGaussianBlur stdDeviation="2.01318"/>
<feColorMatrix type="matrix" values="0 0 0 0 0 0 0 0 0 0 0 0 0 0 0 0 0 0 0.25 0"/>
<feBlend mode="normal" in2="BackgroundImageFix" result="effect1_dropShadow"/>
<feBlend mode="normal" in="SourceGraphic" in2="effect1_dropShadow" result="shape"/>
</filter>
<filter id="filter10_iiii" x="269.995" y="111.415" width="25.623" height="142.26" filterUnits="userSpaceOnUse" color-interpolation-filters="sRGB">
<feFlood flood-opacity="0" result="BackgroundImageFix"/>
<feBlend mode="normal" in="SourceGraphic" in2="BackgroundImageFix" result="shape"/>
<feColorMatrix in="SourceAlpha" type="matrix" values="0 0 0 0 0 0 0 0 0 0 0 0 0 0 0 0 0 0 127 0" result="hardAlpha"/>
<feOffset dx="3.01977"/>
<feGaussianBlur stdDeviation="2.51648"/>
<feComposite in2="hardAlpha" operator="arithmetic" k2="-1" k3="1"/>
<feColorMatrix type="matrix" values="0 0 0 0 1 0 0 0 0 1 0 0 0 0 1 0 0 0 0.1 0"/>
<feBlend mode="normal" in2="shape" result="effect1_innerShadow"/>
<feColorMatrix in="SourceAlpha" type="matrix" values="0 0 0 0 0 0 0 0 0 0 0 0 0 0 0 0 0 0 127 0" result="hardAlpha"/>
<feOffset dx="1.00659"/>
<feGaussianBlur stdDeviation="0.503296"/>
<feComposite in2="hardAlpha" operator="arithmetic" k2="-1" k3="1"/>
<feColorMatrix type="matrix" values="0 0 0 0 1 0 0 0 0 1 0 0 0 0 1 0 0 0 0.2 0"/>
<feBlend mode="normal" in2="effect1_innerShadow" result="effect2_innerShadow"/>
<feColorMatrix in="SourceAlpha" type="matrix" values="0 0 0 0 0 0 0 0 0 0 0 0 0 0 0 0 0 0 127 0" result="hardAlpha"/>
<feOffset dx="-1.00659"/>
<feGaussianBlur stdDeviation="0.503296"/>
<feComposite in2="hardAlpha" operator="arithmetic" k2="-1" k3="1"/>
<feColorMatrix type="matrix" values="0 0 0 0 1 0 0 0 0 1 0 0 0 0 1 0 0 0 0.2 0"/>
<feBlend mode="normal" in2="effect2_innerShadow" result="effect3_innerShadow"/>
<feColorMatrix in="SourceAlpha" type="matrix" values="0 0 0 0 0 0 0 0 0 0 0 0 0 0 0 0 0 0 127 0" result="hardAlpha"/>
<feOffset dx="-1.00659"/>
<feGaussianBlur stdDeviation="4.52966"/>
<feComposite in2="hardAlpha" operator="arithmetic" k2="-1" k3="1"/>
<feColorMatrix type="matrix" values="0 0 0 0 1 0 0 0 0 1 0 0 0 0 1 0 0 0 0.2 0"/>
<feBlend mode="normal" in2="effect3_innerShadow" result="effect4_innerShadow"/>
</filter>
<filter id="filter11_iiii" x="269.447" y="14.7495" width="25.623" height="148.001" filterUnits="userSpaceOnUse" color-interpolation-filters="sRGB">
<feFlood flood-opacity="0" result="BackgroundImageFix"/>
<feBlend mode="normal" in="SourceGraphic" in2="BackgroundImageFix" result="shape"/>
<feColorMatrix in="SourceAlpha" type="matrix" values="0 0 0 0 0 0 0 0 0 0 0 0 0 0 0 0 0 0 127 0" result="hardAlpha"/>
<feOffset dx="3.01977"/>
<feGaussianBlur stdDeviation="2.51648"/>
<feComposite in2="hardAlpha" operator="arithmetic" k2="-1" k3="1"/>
<feColorMatrix type="matrix" values="0 0 0 0 1 0 0 0 0 1 0 0 0 0 1 0 0 0 0.1 0"/>
<feBlend mode="normal" in2="shape" result="effect1_innerShadow"/>
<feColorMatrix in="SourceAlpha" type="matrix" values="0 0 0 0 0 0 0 0 0 0 0 0 0 0 0 0 0 0 127 0" result="hardAlpha"/>
<feOffset dx="1.00659"/>
<feGaussianBlur stdDeviation="0.503296"/>
<feComposite in2="hardAlpha" operator="arithmetic" k2="-1" k3="1"/>
<feColorMatrix type="matrix" values="0 0 0 0 1 0 0 0 0 1 0 0 0 0 1 0 0 0 0.2 0"/>
<feBlend mode="normal" in2="effect1_innerShadow" result="effect2_innerShadow"/>
<feColorMatrix in="SourceAlpha" type="matrix" values="0 0 0 0 0 0 0 0 0 0 0 0 0 0 0 0 0 0 127 0" result="hardAlpha"/>
<feOffset dx="-1.00659"/>
<feGaussianBlur stdDeviation="0.503296"/>
<feComposite in2="hardAlpha" operator="arithmetic" k2="-1" k3="1"/>
<feColorMatrix type="matrix" values="0 0 0 0 1 0 0 0 0 1 0 0 0 0 1 0 0 0 0.2 0"/>
<feBlend mode="normal" in2="effect2_innerShadow" result="effect3_innerShadow"/>
<feColorMatrix in="SourceAlpha" type="matrix" values="0 0 0 0 0 0 0 0 0 0 0 0 0 0 0 0 0 0 127 0" result="hardAlpha"/>
<feOffset dx="-1.00659"/>
<feGaussianBlur stdDeviation="4.52966"/>
<feComposite in2="hardAlpha" operator="arithmetic" k2="-1" k3="1"/>
<feColorMatrix type="matrix" values="0 0 0 0 1 0 0 0 0 1 0 0 0 0 1 0 0 0 0.2 0"/>
<feBlend mode="normal" in2="effect3_innerShadow" result="effect4_innerShadow"/>
</filter>
<filter id="filter12_ii" x="269.447" y="8.99365" width="26.6296" height="11.5121" filterUnits="userSpaceOnUse" color-interpolation-filters="sRGB">
<feFlood flood-opacity="0" result="BackgroundImageFix"/>
<feBlend mode="normal" in="SourceGraphic" in2="BackgroundImageFix" result="shape"/>
<feColorMatrix in="SourceAlpha" type="matrix" values="0 0 0 0 0 0 0 0 0 0 0 0 0 0 0 0 0 0 127 0" result="hardAlpha"/>
<feOffset dx="3.01977"/>
<feGaussianBlur stdDeviation="2.51648"/>
<feComposite in2="hardAlpha" operator="arithmetic" k2="-1" k3="1"/>
<feColorMatrix type="matrix" values="0 0 0 0 1 0 0 0 0 1 0 0 0 0 1 0 0 0 0.1 0"/>
<feBlend mode="normal" in2="shape" result="effect1_innerShadow"/>
<feColorMatrix in="SourceAlpha" type="matrix" values="0 0 0 0 0 0 0 0 0 0 0 0 0 0 0 0 0 0 127 0" result="hardAlpha"/>
<feOffset dx="1.00659"/>
<feGaussianBlur stdDeviation="0.503296"/>
<feComposite in2="hardAlpha" operator="arithmetic" k2="-1" k3="1"/>
<feColorMatrix type="matrix" values="0 0 0 0 1 0 0 0 0 1 0 0 0 0 1 0 0 0 0.2 0"/>
<feBlend mode="normal" in2="effect1_innerShadow" result="effect2_innerShadow"/>
</filter>
<filter id="filter13_bii" x="263.407" y="3.96045" width="35.6889" height="23.5912" filterUnits="userSpaceOnUse" color-interpolation-filters="sRGB">
<feFlood flood-opacity="0" result="BackgroundImageFix"/>
<feGaussianBlur in="BackgroundImage" stdDeviation="3.01977"/>
<feComposite in2="SourceAlpha" operator="in" result="effect1_backgroundBlur"/>
<feBlend mode="normal" in="SourceGraphic" in2="effect1_backgroundBlur" result="shape"/>
<feColorMatrix in="SourceAlpha" type="matrix" values="0 0 0 0 0 0 0 0 0 0 0 0 0 0 0 0 0 0 127 0" result="hardAlpha"/>
<feOffset dx="3.01977"/>
<feGaussianBlur stdDeviation="2.51648"/>
<feComposite in2="hardAlpha" operator="arithmetic" k2="-1" k3="1"/>
<feColorMatrix type="matrix" values="0 0 0 0 1 0 0 0 0 1 0 0 0 0 1 0 0 0 0.1 0"/>
<feBlend mode="normal" in2="shape" result="effect2_innerShadow"/>
<feColorMatrix in="SourceAlpha" type="matrix" values="0 0 0 0 0 0 0 0 0 0 0 0 0 0 0 0 0 0 127 0" result="hardAlpha"/>
<feOffset dx="1.00659"/>
<feGaussianBlur stdDeviation="0.503296"/>
<feComposite in2="hardAlpha" operator="arithmetic" k2="-1" k3="1"/>
<feColorMatrix type="matrix" values="0 0 0 0 1 0 0 0 0 1 0 0 0 0 1 0 0 0 0.2 0"/>
<feBlend mode="normal" in2="effect2_innerShadow" result="effect3_innerShadow"/>
</filter>
<filter id="filter14_ii" x="269.447" y="8.99365" width="26.6296" height="11.5121" filterUnits="userSpaceOnUse" color-interpolation-filters="sRGB">
<feFlood flood-opacity="0" result="BackgroundImageFix"/>
<feBlend mode="normal" in="SourceGraphic" in2="BackgroundImageFix" result="shape"/>
<feColorMatrix in="SourceAlpha" type="matrix" values="0 0 0 0 0 0 0 0 0 0 0 0 0 0 0 0 0 0 127 0" result="hardAlpha"/>
<feOffset dx="3.01977"/>
<feGaussianBlur stdDeviation="2.51648"/>
<feComposite in2="hardAlpha" operator="arithmetic" k2="-1" k3="1"/>
<feColorMatrix type="matrix" values="0 0 0 0 1 0 0 0 0 1 0 0 0 0 1 0 0 0 0.1 0"/>
<feBlend mode="normal" in2="shape" result="effect1_innerShadow"/>
<feColorMatrix in="SourceAlpha" type="matrix" values="0 0 0 0 0 0 0 0 0 0 0 0 0 0 0 0 0 0 127 0" result="hardAlpha"/>
<feOffset dx="1.00659"/>
<feGaussianBlur stdDeviation="0.503296"/>
<feComposite in2="hardAlpha" operator="arithmetic" k2="-1" k3="1"/>
<feColorMatrix type="matrix" values="0 0 0 0 1 0 0 0 0 1 0 0 0 0 1 0 0 0 0.2 0"/>
<feBlend mode="normal" in2="effect1_innerShadow" result="effect2_innerShadow"/>
</filter>
<filter id="filter15_f" x="273.478" y="38.7124" width="11.5122" height="62.5316" filterUnits="userSpaceOnUse" color-interpolation-filters="sRGB">
<feFlood flood-opacity="0" result="BackgroundImageFix"/>
<feBlend mode="normal" in="SourceGraphic" in2="BackgroundImageFix" result="shape"/>
<feGaussianBlur stdDeviation="2.01318" result="effect1_foregroundBlur"/>
</filter>
<filter id="filter16_f" x="279.424" y="87.7124" width="11.5122" height="62.5316" filterUnits="userSpaceOnUse" color-interpolation-filters="sRGB">
<feFlood flood-opacity="0" result="BackgroundImageFix"/>
<feBlend mode="normal" in="SourceGraphic" in2="BackgroundImageFix" result="shape"/>
<feGaussianBlur stdDeviation="2.01318" result="effect1_foregroundBlur"/>
</filter>
<filter id="filter17_f" x="278.183" y="25.2378" width="14.4824" height="62.5316" filterUnits="userSpaceOnUse" color-interpolation-filters="sRGB">
<feFlood flood-opacity="0" result="BackgroundImageFix"/>
<feBlend mode="normal" in="SourceGraphic" in2="BackgroundImageFix" result="shape"/>
<feGaussianBlur stdDeviation="2.01318" result="effect1_foregroundBlur"/>
</filter>
<filter id="filter18_f" x="271.748" y="94.3516" width="15.7282" height="62.5316" filterUnits="userSpaceOnUse" color-interpolation-filters="sRGB">
<feFlood flood-opacity="0" result="BackgroundImageFix"/>
<feBlend mode="normal" in="SourceGraphic" in2="BackgroundImageFix" result="shape"/>
<feGaussianBlur stdDeviation="2.01318" result="effect1_foregroundBlur"/>
</filter>
<filter id="filter19_d" x="270.179" y="67.3416" width="21.7684" height="16.1765" filterUnits="userSpaceOnUse" color-interpolation-filters="sRGB">
<feFlood flood-opacity="0" result="BackgroundImageFix"/>
<feColorMatrix in="SourceAlpha" type="matrix" values="0 0 0 0 0 0 0 0 0 0 0 0 0 0 0 0 0 0 127 0" result="hardAlpha"/>
<feOffset dy="3.01977"/>
<feGaussianBlur stdDeviation="2.01318"/>
<feColorMatrix type="matrix" values="0 0 0 0 0 0 0 0 0 0 0 0 0 0 0 0 0 0 0.25 0"/>
<feBlend mode="normal" in2="BackgroundImageFix" result="effect1_dropShadow"/>
<feBlend mode="normal" in="SourceGraphic" in2="effect1_dropShadow" result="shape"/>
</filter>
<linearGradient id="paint0_linear" x1="77.7505" y1="0" x2="77.7505" y2="378.871" gradientUnits="userSpaceOnUse">
<stop stop-color="white" stop-opacity="0"/>
<stop offset="1" stop-color="white"/>
</linearGradient>
<linearGradient id="paint1_linear" x1="78.757" y1="5.3918" x2="78.757" y2="21.9032" gradientUnits="userSpaceOnUse">
<stop stop-color="white" stop-opacity="0"/>
<stop offset="0.203125" stop-opacity="0.24"/>
<stop offset="0.479167" stop-color="white" stop-opacity="0.0738462"/>
<stop offset="1" stop-color="white" stop-opacity="0"/>
</linearGradient>
<linearGradient id="paint2_linear" x1="78.757" y1="6.39814" x2="78.757" y2="22.3889" gradientUnits="userSpaceOnUse">
<stop offset="0.575463" stop-opacity="0.24"/>
<stop offset="1" stop-color="white" stop-opacity="0"/>
</linearGradient>
<linearGradient id="paint3_linear" x1="78.757" y1="5.3918" x2="78.757" y2="21.9032" gradientUnits="userSpaceOnUse">
<stop stop-color="white" stop-opacity="0"/>
<stop offset="0.203125" stop-opacity="0.24"/>
<stop offset="0.479167" stop-color="white" stop-opacity="0.0738462"/>
<stop offset="1" stop-color="white" stop-opacity="0"/>
</linearGradient>
<linearGradient id="paint4_linear" x1="86.4445" y1="42.7388" x2="86.4445" y2="154.145" gradientUnits="userSpaceOnUse">
<stop stop-color="white"/>
<stop offset="1" stop-color="white" stop-opacity="0"/>
</linearGradient>
<linearGradient id="paint5_linear" x1="69.2536" y1="42.7388" x2="69.2536" y2="117.036" gradientUnits="userSpaceOnUse">
<stop stop-color="white" stop-opacity="0"/>
<stop offset="0.494792" stop-color="white"/>
<stop offset="1" stop-color="white" stop-opacity="0"/>
</linearGradient>
<linearGradient id="paint6_linear" x1="75.7331" y1="42.7388" x2="75.7331" y2="97.2176" gradientUnits="userSpaceOnUse">
<stop stop-color="white" stop-opacity="0"/>
<stop offset="0.494792" stop-color="white"/>
<stop offset="1" stop-color="white" stop-opacity="0"/>
</linearGradient>
<linearGradient id="paint7_linear" x1="81.6789" y1="91.7388" x2="81.6789" y2="146.218" gradientUnits="userSpaceOnUse">
<stop stop-color="white" stop-opacity="0"/>
<stop offset="0.494792" stop-color="white"/>
<stop offset="1" stop-color="white" stop-opacity="0"/>
</linearGradient>
<linearGradient id="paint8_linear" x1="81.9236" y1="29.2642" x2="81.9236" y2="83.743" gradientUnits="userSpaceOnUse">
<stop stop-color="white" stop-opacity="0"/>
<stop offset="0.494792" stop-color="white"/>
<stop offset="1" stop-color="white" stop-opacity="0"/>
</linearGradient>
<linearGradient id="paint9_linear" x1="76.1114" y1="98.3779" x2="76.1114" y2="152.857" gradientUnits="userSpaceOnUse">
<stop stop-color="white" stop-opacity="0"/>
<stop offset="0.494792" stop-color="white"/>
<stop offset="1" stop-color="white" stop-opacity="0"/>
</linearGradient>
<linearGradient id="paint10_linear" x1="77.7505" y1="0" x2="77.7505" y2="378.871" gradientUnits="userSpaceOnUse">
<stop stop-color="white"/>
<stop offset="1" stop-color="white" stop-opacity="0"/>
</linearGradient>
<linearGradient id="paint11_linear" x1="281.251" y1="0" x2="281.251" y2="378.871" gradientUnits="userSpaceOnUse">
<stop stop-color="white" stop-opacity="0"/>
<stop offset="1" stop-color="white"/>
</linearGradient>
<linearGradient id="paint12_linear" x1="282.258" y1="5.3918" x2="282.258" y2="21.9032" gradientUnits="userSpaceOnUse">
<stop stop-color="white" stop-opacity="0"/>
<stop offset="0.203125" stop-opacity="0.24"/>
<stop offset="0.479167" stop-color="white" stop-opacity="0.0738462"/>
<stop offset="1" stop-color="white" stop-opacity="0"/>
</linearGradient>
<linearGradient id="paint13_linear" x1="282.258" y1="6.39814" x2="282.258" y2="22.3889" gradientUnits="userSpaceOnUse">
<stop offset="0.575463" stop-opacity="0.24"/>
<stop offset="1" stop-color="white" stop-opacity="0"/>
</linearGradient>
<linearGradient id="paint14_linear" x1="282.258" y1="5.3918" x2="282.258" y2="21.9032" gradientUnits="userSpaceOnUse">
<stop stop-color="white" stop-opacity="0"/>
<stop offset="0.203125" stop-opacity="0.24"/>
<stop offset="0.479167" stop-color="white" stop-opacity="0.0738462"/>
<stop offset="1" stop-color="white" stop-opacity="0"/>
</linearGradient>
<linearGradient id="paint15_linear" x1="289.945" y1="42.7388" x2="289.945" y2="154.145" gradientUnits="userSpaceOnUse">
<stop stop-color="white"/>
<stop offset="1" stop-color="white" stop-opacity="0"/>
</linearGradient>
<linearGradient id="paint16_linear" x1="272.755" y1="42.7388" x2="272.755" y2="117.036" gradientUnits="userSpaceOnUse">
<stop stop-color="white" stop-opacity="0"/>
<stop offset="0.494792" stop-color="white"/>
<stop offset="1" stop-color="white" stop-opacity="0"/>
</linearGradient>
<linearGradient id="paint17_linear" x1="279.234" y1="42.7388" x2="279.234" y2="97.2176" gradientUnits="userSpaceOnUse">
<stop stop-color="white" stop-opacity="0"/>
<stop offset="0.494792" stop-color="white"/>
<stop offset="1" stop-color="white" stop-opacity="0"/>
</linearGradient>
<linearGradient id="paint18_linear" x1="285.18" y1="91.7388" x2="285.18" y2="146.218" gradientUnits="userSpaceOnUse">
<stop stop-color="white" stop-opacity="0"/>
<stop offset="0.494792" stop-color="white"/>
<stop offset="1" stop-color="white" stop-opacity="0"/>
</linearGradient>
<linearGradient id="paint19_linear" x1="285.425" y1="29.2642" x2="285.425" y2="83.743" gradientUnits="userSpaceOnUse">
<stop stop-color="white" stop-opacity="0"/>
<stop offset="0.494792" stop-color="white"/>
<stop offset="1" stop-color="white" stop-opacity="0"/>
</linearGradient>
<linearGradient id="paint20_linear" x1="279.612" y1="98.3779" x2="279.612" y2="152.857" gradientUnits="userSpaceOnUse">
<stop stop-color="white" stop-opacity="0"/>
<stop offset="0.494792" stop-color="white"/>
<stop offset="1" stop-color="white" stop-opacity="0"/>
</linearGradient>
<linearGradient id="paint21_linear" x1="281.251" y1="0" x2="281.251" y2="378.871" gradientUnits="userSpaceOnUse">
<stop stop-color="white"/>
<stop offset="1" stop-color="white" stop-opacity="0"/>
</linearGradient>
<clipPath id="clip0">
<path d="M67.5007 132.553H87.6326V152.685C87.6326 158.244 83.1259 162.75 77.5666 162.75C72.0074 162.75 67.5007 158.244 67.5007 152.685V132.553Z" fill="white"/>
</clipPath>
<clipPath id="clip1">
<rect width="76.5009" height="171.121" fill="white" transform="translate(0 207.75)"/>
</clipPath>
<clipPath id="clip2">
<rect width="76.5009" height="34.2241" fill="white" transform="translate(0 207.75)"/>
</clipPath>
<clipPath id="clip3">
<rect width="76.5009" height="34.2241" fill="white" transform="translate(0 241.975)"/>
</clipPath>
<clipPath id="clip4">
<rect width="76.5009" height="34.2241" fill="white" transform="translate(0 276.199)"/>
</clipPath>
<clipPath id="clip5">
<rect width="76.5009" height="34.2241" fill="white" transform="translate(0 310.423)"/>
</clipPath>
<clipPath id="clip6">
<rect width="76.5009" height="34.2241" fill="white" transform="translate(0 344.647)"/>
</clipPath>
<clipPath id="clip7">
<rect width="79" height="170" fill="white" transform="translate(76.501 207.75)"/>
</clipPath>
<clipPath id="clip8">
<rect width="79" height="34" fill="white" transform="translate(76.501 207.75)"/>
</clipPath>
<clipPath id="clip9">
<rect width="79" height="34" fill="white" transform="translate(76.501 241.75)"/>
</clipPath>
<clipPath id="clip10">
<rect width="79" height="34" fill="white" transform="translate(76.501 275.75)"/>
</clipPath>
<clipPath id="clip11">
<rect width="79" height="34" fill="white" transform="translate(76.501 309.75)"/>
</clipPath>
<clipPath id="clip12">
<rect width="79" height="34" fill="white" transform="translate(76.501 343.75)"/>
</clipPath>
<clipPath id="clip13">
<rect width="12.8658" height="12.8658" fill="white" transform="translate(46.4346 4.9585)"/>
</clipPath>
<clipPath id="clip14">
<path d="M271.002 102.355H291.134V152.685C291.134 158.244 286.627 162.751 281.068 162.751C275.508 162.751 271.002 158.244 271.002 152.685V102.355Z" fill="white"/>
</clipPath>
<clipPath id="clip15">
<rect width="76.5009" height="171.121" fill="white" transform="translate(203.501 207.75)"/>
</clipPath>
<clipPath id="clip16">
<rect width="76.5009" height="34.2241" fill="white" transform="translate(203.501 207.75)"/>
</clipPath>
<clipPath id="clip17">
<rect width="76.5009" height="34.2241" fill="white" transform="translate(203.501 241.975)"/>
</clipPath>
<clipPath id="clip18">
<rect width="76.5009" height="34.2241" fill="white" transform="translate(203.501 276.199)"/>
</clipPath>
<clipPath id="clip19">
<rect width="76.5009" height="34.2241" fill="white" transform="translate(203.501 310.423)"/>
</clipPath>
<clipPath id="clip20">
<rect width="76.5009" height="34.2241" fill="white" transform="translate(203.501 344.647)"/>
</clipPath>
<clipPath id="clip21">
<rect width="79" height="170" fill="white" transform="translate(280.002 207.75)"/>
</clipPath>
<clipPath id="clip22">
<rect width="79" height="34" fill="white" transform="translate(280.002 207.75)"/>
</clipPath>
<clipPath id="clip23">
<rect width="79" height="34" fill="white" transform="translate(280.002 241.75)"/>
</clipPath>
<clipPath id="clip24">
<rect width="79" height="34" fill="white" transform="translate(280.002 275.75)"/>
</clipPath>
<clipPath id="clip25">
<rect width="22" height="22" fill="white" transform="translate(324.939 281.75)"/>
</clipPath>
<clipPath id="clip26">
<rect width="79" height="34" fill="white" transform="translate(280.002 309.75)"/>
</clipPath>
<clipPath id="clip27">
<rect width="79" height="34" fill="white" transform="translate(280.002 343.75)"/>
</clipPath>
<clipPath id="clip28">
<rect width="12.8658" height="12.8658" fill="white" transform="translate(249.936 4.9585)"/>
</clipPath>
</defs>
</svg>
