<svg width="161" height="390" viewBox="0 0 161 390" fill="none" xmlns="http://www.w3.org/2000/svg">
<path d="M145.067 0H15.935C7.41101 0 0.500977 6.913 0.500977 15.4406V374.559C0.500977 383.087 7.41101 390 15.935 390H145.067C153.591 390 160.501 383.087 160.501 374.559V15.4406C160.501 6.913 153.591 0 145.067 0Z" fill="url(#paint0_linear_770_3634)" fill-opacity="0.05"/>
<mask id="mask0_770_3634" style="mask-type:luminance" maskUnits="userSpaceOnUse" x="69" y="115" width="22" height="63">
<path d="M69.9548 115.655H90.6693V167.464C90.6693 173.186 86.0319 177.825 80.312 177.825C74.5912 177.825 69.9548 173.186 69.9548 167.464V115.655Z" fill="white"/>
</mask>
<g mask="url(#mask0_770_3634)">
<g filter="url(#filter0_iiii_770_3634)">
<path fill-rule="evenodd" clip-rule="evenodd" d="M81.0652 129.918C87.2018 129.918 92.1756 127.73 92.1756 125.03C92.1756 125.013 92.1756 124.997 92.1756 124.981V260.304C92.1756 266.443 87.2018 271.419 81.0652 271.419C74.9287 271.419 69.9548 266.443 69.9548 260.304V125.047C69.9764 127.739 74.942 129.918 81.0652 129.918ZM69.9548 125.012C69.9548 125.002 69.9548 124.992 69.9548 124.981V125.012Z" fill="white" fill-opacity="0.1"/>
</g>
<path opacity="0.3" d="M81.0653 129.943C87.2016 129.943 92.176 127.754 92.176 125.054C92.176 122.353 87.2016 120.165 81.0653 120.165C74.929 120.165 69.9546 122.353 69.9546 125.054C69.9546 127.754 74.929 129.943 81.0653 129.943Z" fill="#C4C4C4"/>
</g>
<g filter="url(#filter1_iiii_770_3634)">
<path fill-rule="evenodd" clip-rule="evenodd" d="M69.3901 25.4766V45.2965V45.3876V166.709C69.3901 172.848 74.365 177.824 80.5006 177.824C86.6371 177.824 91.612 172.848 91.612 166.709V45.3876V45.2965V25.5099C91.5708 28.1946 86.6124 30.3656 80.5016 30.3656C74.365 30.3656 69.3901 28.1767 69.3901 25.4766Z" fill="white" fill-opacity="0.1"/>
</g>
<g filter="url(#filter2_ii_770_3634)">
<path d="M80.5004 30.3654C86.6367 30.3654 91.6111 28.1765 91.6111 25.4764C91.6111 22.7763 86.6367 20.5874 80.5004 20.5874C74.3641 20.5874 69.3896 22.7763 69.3896 25.4764C69.3896 28.1765 74.3641 30.3654 80.5004 30.3654Z" fill="white" fill-opacity="0.1"/>
</g>
<path d="M80.5005 30.8833C83.6233 30.8833 86.4755 30.3273 88.5663 29.4075C89.6107 28.9479 90.4883 28.3872 91.1119 27.7382C91.7385 27.0869 92.1295 26.3216 92.1295 25.4762C92.1295 24.6307 91.7385 23.8654 91.1119 23.214C90.4883 22.5652 89.6107 22.0045 88.5663 21.5449C86.4755 20.625 83.6233 20.0691 80.5005 20.0691C77.3787 20.0691 74.5265 20.625 72.4357 21.5449C71.3914 22.0045 70.5137 22.5652 69.8902 23.214C69.2635 23.8654 68.8726 24.6307 68.8726 25.4762C68.8726 26.3216 69.2635 27.0869 69.8902 27.7382C70.5137 28.3872 71.3914 28.9479 72.4357 29.4075C74.5265 30.3273 77.3787 30.8833 80.5005 30.8833Z" stroke="url(#paint1_linear_770_3634)" stroke-width="1.00659"/>
<g filter="url(#filter3_ii_770_3634)">
<path d="M80.5005 31.9196C83.6233 31.9196 86.4755 31.3637 88.5663 30.4437C89.6107 29.9841 90.4883 29.4234 91.1119 28.7746C91.7385 28.1232 92.1295 27.358 92.1295 26.5125C92.1295 25.667 91.7385 24.9018 91.1119 24.2504C90.4883 23.6015 89.6107 23.0408 88.5663 22.5812C86.4755 21.6613 83.6233 21.1055 80.5005 21.1055C77.3787 21.1055 74.5265 21.6613 72.4357 22.5812C71.3914 23.0408 70.5137 23.6015 69.8902 24.2504C69.2635 24.9018 68.8726 25.667 68.8726 26.5125C68.8726 27.358 69.2635 28.1232 69.8902 28.7746C70.5137 29.4234 71.3914 29.9841 72.4357 30.4437C74.5265 31.3637 77.3787 31.9196 80.5005 31.9196Z" stroke="url(#paint2_linear_770_3634)" stroke-width="1.00659"/>
</g>
<g filter="url(#filter4_ii_770_3634)">
<path d="M80.5005 30.8833C83.6233 30.8833 86.4755 30.3273 88.5663 29.4075C89.6107 28.9479 90.4883 28.3872 91.1119 27.7382C91.7385 27.0869 92.1295 26.3216 92.1295 25.4762C92.1295 24.6307 91.7385 23.8654 91.1119 23.214C90.4883 22.5652 89.6107 22.0045 88.5663 21.5449C86.4755 20.625 83.6233 20.0691 80.5005 20.0691C77.3787 20.0691 74.5265 20.625 72.4357 21.5449C71.3914 22.0045 70.5137 22.5652 69.8902 23.214C69.2635 23.8654 68.8726 24.6307 68.8726 25.4762C68.8726 26.3216 69.2635 27.0869 69.8902 27.7382C70.5137 28.3872 71.3914 28.9479 72.4357 29.4075C74.5265 30.3273 77.3787 30.8833 80.5005 30.8833Z" stroke="url(#paint3_linear_770_3634)" stroke-width="1.00659"/>
</g>
<path opacity="0.6" d="M85.0793 173.061L84.5144 173.981C84.9198 173.966 85.3283 173.903 85.7357 173.787C87.5693 173.266 88.8822 171.807 89.3041 170.078L88.6703 169.462C88.378 171.084 87.1937 172.482 85.5011 172.964C85.3612 173.004 85.2202 173.036 85.0793 173.061Z" fill="#C4C4C4"/>
<path opacity="0.4" d="M90.0123 54.2878H88.8811V168.966H90.0123V54.2878Z" fill="url(#paint4_linear_770_3634)"/>
<path opacity="0.1" d="M72.3241 54.2878H71.1929V130.768H72.3241V54.2878Z" fill="url(#paint5_linear_770_3634)"/>
<g opacity="0.1" filter="url(#filter5_f_770_3634)">
<path d="M80.2046 54.2878H76.645V110.367H80.2046V54.2878Z" fill="url(#paint6_linear_770_3634)"/>
</g>
<g opacity="0.1" filter="url(#filter6_f_770_3634)">
<path d="M86.3225 104.727H82.7629V160.806H86.3225V104.727Z" fill="url(#paint7_linear_770_3634)"/>
</g>
<g opacity="0.05" filter="url(#filter7_f_770_3634)">
<path d="M88.103 40.4175H81.4873V96.4965H88.103V40.4175Z" fill="url(#paint8_linear_770_3634)"/>
</g>
<g opacity="0.1" filter="url(#filter8_f_770_3634)">
<path d="M82.7635 111.561H74.866V167.64H82.7635V111.561Z" fill="url(#paint9_linear_770_3634)"/>
</g>
<g filter="url(#filter9_d_770_3634)">
<path d="M73.2517 82.0877H75.7757V88.8993H77.4992V82.0877H80.0241V80.6497H73.2517V82.0877ZM84.2839 89.0121C86.1196 89.0121 87.3687 87.8157 87.3645 86.1481C87.3687 84.569 86.2646 83.4331 84.7788 83.4331C84.0545 83.4331 83.4299 83.7352 83.1408 84.142H83.0924L83.3054 82.0756H86.9087V80.6497H81.868L81.478 85L83.0276 85.278C83.2817 84.9356 83.7725 84.7221 84.2603 84.7221C85.0896 84.7261 85.6853 85.3263 85.6853 86.1923C85.6853 87.0504 85.1009 87.6425 84.2839 87.6425C83.5915 87.6425 83.0317 87.2075 82.9916 86.567H81.3C81.333 87.9929 82.5769 89.0121 84.2839 89.0121Z" fill="white"/>
</g>
<g opacity="0.6">
<path opacity="0.6" d="M15.8351 232.368H13.414V236.54H12.0476V226.227H15.4606C16.6212 226.227 17.5133 226.491 18.1368 227.02C18.7645 227.549 19.0783 228.318 19.0783 229.329C19.0783 229.971 18.9034 230.531 18.5546 231.008C18.2099 231.485 17.7283 231.842 17.11 232.078L19.531 236.454V236.54H18.073L15.8351 232.368ZM13.414 231.256H15.5027C16.1777 231.256 16.7128 231.081 17.11 230.732C17.5112 230.382 17.7119 229.915 17.7119 229.329C17.7119 228.692 17.5205 228.203 17.1377 227.863C16.7601 227.524 16.2127 227.351 15.4956 227.347H13.414V231.256ZM23.9637 236.682C22.9244 236.682 22.0797 236.341 21.4284 235.662C20.7771 234.977 20.4519 234.063 20.4519 232.921V232.68C20.4519 231.919 20.596 231.242 20.883 230.647C21.1763 230.047 21.5817 229.579 22.1013 229.245C22.625 228.904 23.192 228.734 23.8001 228.734C24.7961 228.734 25.5708 229.062 26.1224 229.719C26.6749 230.375 26.9507 231.315 26.9507 232.538V233.083H21.7618C21.7803 233.839 21.9994 234.45 22.4203 234.918C22.8442 235.381 23.3823 235.612 24.0336 235.612C24.4966 235.612 24.8887 235.518 25.2097 235.328C25.5307 235.14 25.8116 234.89 26.0524 234.578L26.8519 235.202C26.2098 236.188 25.2467 236.682 23.9637 236.682ZM23.8001 229.811C23.2722 229.811 22.8277 230.004 22.4697 230.391C22.1106 230.774 21.8883 231.313 21.8039 232.007H25.6408V231.908C25.6038 231.242 25.4237 230.727 25.1027 230.364C24.7827 229.995 24.3475 229.811 23.8001 229.811ZM28.1545 232.644C28.1545 231.44 28.4313 230.488 28.9828 229.789C29.5353 229.086 30.2762 228.734 31.2063 228.734C32.1128 228.734 32.8279 229.039 33.3516 229.648L33.4082 228.876H34.6121V239.487H33.3023V235.832C32.7734 236.398 32.0696 236.682 31.1919 236.682C30.2669 236.682 29.5281 236.323 28.9756 235.605C28.4282 234.883 28.1545 233.926 28.1545 232.736V232.644ZM29.4643 232.793C29.4643 233.671 29.6485 234.361 30.0169 234.861C30.3893 235.362 30.8904 235.612 31.5181 235.612C32.297 235.612 32.8917 235.268 33.3023 234.578V230.824C32.8866 230.148 32.297 229.811 31.5315 229.811C30.8997 229.811 30.3965 230.064 30.0241 230.568C29.6506 231.07 29.4643 231.811 29.4643 232.793ZM41.4442 235.782C40.9338 236.381 40.1858 236.682 39.2001 236.682C38.3831 236.682 37.7596 236.445 37.3305 235.974C36.9056 235.496 36.6905 234.793 36.6864 233.862V228.876H37.9962V233.827C37.9962 234.989 38.4675 235.569 39.412 235.569C40.4122 235.569 41.0779 235.197 41.4082 234.45V228.876H42.718V236.54H41.472L41.4442 235.782ZM46.1382 236.54H44.8284V228.876H46.1382V236.54ZM44.7224 226.843C44.7224 226.631 44.7862 226.451 44.9127 226.305C45.0455 226.159 45.2389 226.086 45.4941 226.086C45.7482 226.086 45.9427 226.159 46.0744 226.305C46.2061 226.451 46.273 226.631 46.273 226.843C46.273 227.055 46.2061 227.232 46.0744 227.374C45.9427 227.516 45.7482 227.586 45.4941 227.586C45.2389 227.586 45.0455 227.516 44.9127 227.374C44.7862 227.232 44.7224 227.055 44.7224 226.843ZM51.9434 230.052C51.7459 230.019 51.5308 230.002 51.2993 230.002C50.4401 230.002 49.8578 230.368 49.5511 231.1V236.54H48.2413V228.876H49.5151L49.5368 229.761C49.9658 229.077 50.5749 228.734 51.3631 228.734C51.6183 228.734 51.8117 228.767 51.9434 228.834V230.052ZM56.1919 236.682C55.1537 236.682 54.3089 236.341 53.6566 235.662C53.0053 234.977 52.6801 234.063 52.6801 232.921V232.68C52.6801 231.919 52.8242 231.242 53.1123 230.647C53.4045 230.047 53.8109 229.579 54.3295 229.245C54.8532 228.904 55.4202 228.734 56.0293 228.734C57.0253 228.734 57.7991 229.062 58.3516 229.719C58.9031 230.375 59.1799 231.315 59.1799 232.538V233.083H53.99C54.0085 233.839 54.2287 234.45 54.6485 234.918C55.0734 235.381 55.6116 235.612 56.2629 235.612C56.7249 235.612 57.1169 235.518 57.4379 235.328C57.7589 235.14 58.0398 234.89 58.2806 234.578L59.0801 235.202C58.4381 236.188 57.476 236.682 56.1919 236.682ZM56.0293 229.811C55.5004 229.811 55.057 230.004 54.6979 230.391C54.3388 230.774 54.1175 231.313 54.0321 232.007H57.8701V231.908C57.832 231.242 57.653 230.727 57.3319 230.364C57.0109 229.995 56.5767 229.811 56.0293 229.811ZM60.3827 232.644C60.3827 231.468 60.6615 230.524 61.2182 229.811C61.7759 229.093 62.5044 228.734 63.4068 228.734C64.303 228.734 65.014 229.041 65.5377 229.655V225.66H66.8475V236.54H65.6437L65.5799 235.718C65.0561 236.361 64.3266 236.682 63.3923 236.682C62.5044 236.682 61.78 236.318 61.2182 235.591C60.6615 234.864 60.3827 233.914 60.3827 232.744V232.644ZM61.6925 232.793C61.6925 233.662 61.8726 234.342 62.2307 234.833C62.5898 235.324 63.0857 235.569 63.7175 235.569C64.5489 235.569 65.1549 235.197 65.5377 234.45V230.93C65.1457 230.207 64.5437 229.847 63.7319 229.847C63.0899 229.847 62.5898 230.094 62.2307 230.59C61.8726 231.086 61.6925 231.82 61.6925 232.793Z" fill="white"/>
<path d="M26.8171 266.599L27.3408 261.456H32.6223V262.667H28.4521L28.1403 265.48C28.6455 265.182 29.2197 265.033 29.8607 265.033C30.8001 265.033 31.5461 265.345 32.0986 265.969C32.6511 266.587 32.9269 267.425 32.9269 268.482C32.9269 269.546 32.6388 270.384 32.0626 270.997C31.4915 271.606 30.6921 271.911 29.6631 271.911C28.7515 271.911 28.0086 271.658 27.4324 271.154C26.8572 270.648 26.529 269.949 26.4487 269.057H27.6876C27.7678 269.647 27.9777 270.093 28.3173 270.395C28.6579 270.692 29.1065 270.842 29.6631 270.842C30.2723 270.842 30.7486 270.634 31.0933 270.218C31.4421 269.803 31.6171 269.229 31.6171 268.497C31.6171 267.807 31.4277 267.255 31.0501 266.839C30.6776 266.419 30.1797 266.209 29.5571 266.209C28.9861 266.209 28.5375 266.334 28.2113 266.584L27.8645 266.868L26.8171 266.599ZM39.3196 264.105L39.3557 264.956C39.9175 264.294 40.6748 263.963 41.6286 263.963C42.6997 263.963 43.4292 264.374 43.8161 265.197C44.0713 264.828 44.4016 264.531 44.8069 264.304C45.2175 264.077 45.7021 263.963 46.2588 263.963C47.939 263.963 48.793 264.854 48.8218 266.634V271.769H47.512V266.712C47.512 266.164 47.3865 265.756 47.1364 265.487C46.8864 265.213 46.4666 265.076 45.876 265.076C45.3904 265.076 44.987 265.222 44.666 265.515C44.345 265.803 44.1587 266.193 44.1062 266.684V271.769H42.7892V266.748C42.7892 265.633 42.2439 265.076 41.1542 265.076C40.2951 265.076 39.7076 265.442 39.3906 266.173V271.769H38.0808V264.105H39.3196ZM52.2276 271.769H50.9178V260.89H52.2276V271.769Z" fill="white"/>
<path d="M30.519 306.999H29.203V298.265L26.5618 299.236V298.046L30.3143 296.636H30.519V306.999ZM39.3195 299.335L39.3555 300.185C39.9173 299.524 40.6746 299.193 41.6284 299.193C42.6995 299.193 43.4291 299.605 43.8159 300.426C44.0711 300.058 44.4014 299.76 44.8068 299.534C45.2173 299.307 45.702 299.193 46.2586 299.193C47.9389 299.193 48.7929 300.083 48.8217 301.864V306.999H47.5119V301.941C47.5119 301.394 47.3863 300.985 47.1363 300.716C46.8863 300.443 46.4665 300.306 45.8759 300.306C45.3902 300.306 44.9869 300.452 44.6658 300.744C44.3448 301.032 44.1586 301.422 44.1061 301.913V306.999H42.7891V301.977C42.7891 300.862 42.2437 300.306 41.1541 300.306C40.2949 300.306 39.7074 300.671 39.3905 301.403V306.999H38.0807V299.335H39.3195ZM52.2275 306.999H50.9176V296.119H52.2275V306.999Z" fill="white"/>
<path d="M41.504 338.382H38.0488V337.312H41.504V338.382Z" fill="white"/>
<path d="M41.504 373.611H38.0488V372.542H41.504V373.611Z" fill="white"/>
</g>
<path d="M90.2146 231.397L92.8877 226.253H94.4208L90.8906 232.679V236.499H89.5396V232.679L86.0083 226.253H87.5558L90.2146 231.397ZM94.7305 232.622C94.7305 231.876 94.8756 231.206 95.1668 230.61C95.4621 230.014 95.8696 229.553 96.3902 229.23C96.916 228.907 97.5138 228.744 98.1847 228.744C99.2208 228.744 100.057 229.104 100.695 229.821C101.337 230.539 101.658 231.494 101.658 232.685V232.776C101.658 233.518 101.515 234.184 101.229 234.775C100.948 235.361 100.543 235.819 100.013 236.148C99.4873 236.476 98.8833 236.64 98.198 236.64C97.1671 236.64 96.3295 236.281 95.6874 235.563C95.0495 234.845 94.7305 233.895 94.7305 232.714V232.622ZM96.0394 232.776C96.0394 233.622 96.2338 234.299 96.6228 234.81C97.0169 235.322 97.5416 235.577 98.198 235.577C98.8596 235.577 99.3844 235.319 99.7733 234.803C100.163 234.282 100.358 233.556 100.358 232.622C100.358 231.787 100.158 231.111 99.76 230.595C99.3659 230.074 98.8411 229.814 98.1847 229.814C97.5416 229.814 97.024 230.07 96.63 230.581C96.2359 231.092 96.0394 231.824 96.0394 232.776ZM107.989 235.746C107.483 236.342 106.739 236.64 105.76 236.64C104.948 236.64 104.329 236.405 103.902 235.937C103.481 235.462 103.268 234.763 103.262 233.84V228.885H104.564V233.804C104.564 234.958 105.032 235.535 105.971 235.535C106.965 235.535 107.626 235.165 107.954 234.423V228.885H109.255V236.499H108.017L107.989 235.746ZM119.51 236.499C119.435 236.349 119.375 236.082 119.327 235.697C118.722 236.326 118.001 236.64 117.161 236.64C116.411 236.64 115.794 236.429 115.311 236.007C114.833 235.579 114.594 235.04 114.594 234.388C114.594 233.596 114.893 232.981 115.494 232.545C116.099 232.103 116.948 231.883 118.04 231.883H119.307V231.285C119.307 230.83 119.171 230.469 118.898 230.201C118.626 229.929 118.225 229.793 117.695 229.793C117.231 229.793 116.842 229.911 116.528 230.145C116.214 230.38 116.057 230.663 116.057 230.997H114.748C114.748 230.617 114.882 230.25 115.15 229.898C115.421 229.542 115.788 229.261 116.247 229.054C116.711 228.848 117.22 228.744 117.774 228.744C118.65 228.744 119.336 228.965 119.834 229.406C120.331 229.843 120.589 230.445 120.607 231.215V234.719C120.607 235.418 120.697 235.974 120.875 236.386V236.499H119.51ZM117.351 235.507C117.759 235.507 118.146 235.401 118.511 235.19C118.878 234.979 119.142 234.704 119.307 234.367V232.805H118.287C116.692 232.805 115.895 233.272 115.895 234.205C115.895 234.613 116.032 234.932 116.303 235.162C116.575 235.392 116.925 235.507 117.351 235.507ZM122.331 232.629C122.331 231.461 122.607 230.522 123.161 229.814C123.715 229.102 124.439 228.744 125.334 228.744C126.225 228.744 126.931 229.05 127.452 229.659V225.69H128.752V236.499H127.557L127.494 235.683C126.973 236.321 126.249 236.64 125.321 236.64C124.439 236.64 123.719 236.278 123.161 235.556C122.607 234.834 122.331 233.891 122.331 232.727V232.629ZM123.632 232.776C123.632 233.64 123.81 234.315 124.166 234.803C124.523 235.291 125.015 235.535 125.644 235.535C126.469 235.535 127.072 235.165 127.452 234.423V230.926C127.063 230.208 126.465 229.85 125.658 229.85C125.02 229.85 124.523 230.096 124.166 230.588C123.81 231.081 123.632 231.81 123.632 232.776ZM130.462 232.629C130.462 231.461 130.738 230.522 131.292 229.814C131.845 229.102 132.57 228.744 133.466 228.744C134.356 228.744 135.062 229.05 135.582 229.659V225.69H136.884V236.499H135.688L135.624 235.683C135.104 236.321 134.379 236.64 133.451 236.64C132.57 236.64 131.85 236.278 131.292 235.556C130.738 234.834 130.462 233.891 130.462 232.727V232.629ZM131.763 232.776C131.763 233.64 131.941 234.315 132.298 234.803C132.654 235.291 133.147 235.535 133.774 235.535C134.6 235.535 135.203 235.165 135.582 234.423V230.926C135.193 230.208 134.595 229.85 133.789 229.85C133.151 229.85 132.654 230.096 132.298 230.588C131.941 231.081 131.763 231.81 131.763 232.776ZM142.068 236.64C141.036 236.64 140.197 236.302 139.55 235.627C138.903 234.946 138.579 234.038 138.579 232.903V232.664C138.579 231.909 138.722 231.235 139.008 230.645C139.299 230.049 139.702 229.584 140.218 229.251C140.738 228.913 141.301 228.744 141.906 228.744C142.895 228.744 143.665 229.071 144.213 229.722C144.761 230.375 145.036 231.309 145.036 232.523V233.066H139.88C139.899 233.816 140.117 234.423 140.534 234.888C140.956 235.348 141.49 235.577 142.138 235.577C142.598 235.577 142.986 235.484 143.305 235.296C143.624 235.108 143.903 234.86 144.143 234.55L144.937 235.169C144.299 236.15 143.342 236.64 142.068 236.64ZM141.906 229.814C141.38 229.814 140.94 230.006 140.584 230.391C140.227 230.771 140.007 231.306 139.922 231.995H143.734V231.897C143.697 231.235 143.518 230.724 143.2 230.364C142.881 229.997 142.449 229.814 141.906 229.814ZM146.232 232.629C146.232 231.461 146.508 230.522 147.061 229.814C147.615 229.102 148.339 228.744 149.235 228.744C150.126 228.744 150.831 229.05 151.352 229.659V225.69H152.653V236.499H151.458L151.394 235.683C150.874 236.321 150.149 236.64 149.221 236.64C148.339 236.64 147.62 236.278 147.061 235.556C146.508 234.834 146.232 233.891 146.232 232.727V232.629ZM147.532 232.776C147.532 233.64 147.711 234.315 148.067 234.803C148.423 235.291 148.916 235.535 149.545 235.535C150.37 235.535 150.972 235.165 151.352 234.423V230.926C150.963 230.208 150.365 229.85 149.558 229.85C148.92 229.85 148.423 230.096 148.067 230.588C147.711 231.081 147.532 231.81 147.532 232.776Z" fill="white"/>
<path d="M106.902 266.361L107.422 261.252H112.67V262.455H108.526L108.217 265.249C108.719 264.953 109.289 264.806 109.927 264.806C110.86 264.806 111.601 265.115 112.149 265.735C112.698 266.349 112.972 267.182 112.972 268.233C112.972 269.288 112.686 270.121 112.114 270.73C111.546 271.336 110.752 271.638 109.729 271.638C108.825 271.638 108.086 271.387 107.514 270.886C106.942 270.383 106.616 269.69 106.536 268.802H107.767C107.846 269.389 108.055 269.833 108.393 270.132C108.731 270.428 109.176 270.576 109.729 270.576C110.334 270.576 110.807 270.369 111.15 269.956C111.497 269.543 111.671 268.974 111.671 268.246C111.671 267.562 111.483 267.013 111.108 266.6C110.738 266.183 110.243 265.974 109.624 265.974C109.056 265.974 108.611 266.098 108.288 266.347L107.943 266.628L106.902 266.361ZM119.323 263.884L119.359 264.728C119.917 264.071 120.669 263.743 121.616 263.743C122.68 263.743 123.406 264.152 123.79 264.968C124.043 264.601 124.371 264.306 124.774 264.081C125.183 263.856 125.663 263.743 126.217 263.743C127.886 263.743 128.735 264.627 128.762 266.396V271.497H127.462V266.474C127.462 265.929 127.337 265.524 127.088 265.256C126.84 264.984 126.423 264.848 125.836 264.848C125.354 264.848 124.952 264.994 124.634 265.284C124.315 265.57 124.13 265.957 124.079 266.445V271.497H122.77V266.509C122.77 265.401 122.229 264.848 121.145 264.848C120.292 264.848 119.708 265.212 119.394 265.939V271.497H118.092V263.884H119.323ZM132.145 271.497H130.845V260.689H132.145V271.497Z" fill="white"/>
<path d="M93.076 301.36L93.5967 296.251H98.8432V297.454H94.7007L94.391 300.248C94.8931 299.952 95.4621 299.805 96.1 299.805C97.0333 299.805 97.7741 300.114 98.3225 300.734C98.8709 301.348 99.1457 302.181 99.1457 303.232C99.1457 304.287 98.8596 305.12 98.2875 305.729C97.7206 306.335 96.9253 306.637 95.9035 306.637C94.9981 306.637 94.2593 306.386 93.6872 305.885C93.1151 305.382 92.79 304.689 92.7097 303.801H93.9403C94.0206 304.388 94.2294 304.832 94.5669 305.131C94.9044 305.427 95.35 305.575 95.9035 305.575C96.5085 305.575 96.9818 305.368 97.3245 304.955C97.6712 304.542 97.8441 303.973 97.8441 303.245C97.8441 302.561 97.6568 302.012 97.2823 301.599C96.9119 301.182 96.417 300.973 95.7975 300.973C95.2306 300.973 94.7851 301.097 94.461 301.346L94.1163 301.627L93.076 301.36ZM105.497 298.883L105.532 299.727C106.09 299.07 106.843 298.742 107.79 298.742C108.855 298.742 109.579 299.151 109.964 299.967C110.217 299.6 110.545 299.305 110.949 299.08C111.356 298.855 111.837 298.742 112.39 298.742C114.06 298.742 114.908 299.626 114.937 301.395V306.496H113.635V301.473C113.635 300.928 113.511 300.523 113.263 300.255C113.014 299.983 112.597 299.847 112.01 299.847C111.528 299.847 111.127 299.993 110.808 300.283C110.489 300.569 110.303 300.956 110.252 301.444V306.496H108.944V301.508C108.944 300.4 108.402 299.847 107.318 299.847C106.466 299.847 105.882 300.211 105.567 300.938V306.496H104.267V298.883H105.497ZM118.32 306.496H117.018V295.688H118.32V306.496Z" fill="#F5222D"/>
<mask id="mask1_770_3634" style="mask-type:luminance" maskUnits="userSpaceOnUse" x="125" y="290" width="24" height="23">
<path d="M148.089 290.026H125.452V312.672H148.089V290.026Z" fill="white"/>
</mask>
<g mask="url(#mask1_770_3634)">
<path d="M136.772 295.678L143.873 307.955H129.669L136.772 295.678ZM136.772 291.914L126.396 309.843H147.146L136.772 291.914ZM137.714 305.124H135.828V307.012H137.714V305.124ZM137.714 299.462H135.828V303.237H137.714V299.462Z" fill="#F5222D"/>
</g>
<path d="M110.58 341.495H109.272V332.819L106.649 333.783V332.601L110.376 331.201H110.58V341.495ZM119.323 333.881L119.359 334.726C119.917 334.069 120.669 333.74 121.617 333.74C122.68 333.74 123.406 334.149 123.79 334.965C124.043 334.599 124.371 334.304 124.774 334.078C125.183 333.854 125.663 333.74 126.217 333.74C127.886 333.74 128.735 334.625 128.762 336.393V341.495H127.462V336.471C127.462 335.927 127.337 335.521 127.088 335.254C126.84 334.982 126.423 334.846 125.836 334.846C125.354 334.846 124.952 334.991 124.634 335.281C124.315 335.568 124.13 335.955 124.079 336.443V341.495H122.77V336.506C122.77 335.399 122.229 334.846 121.145 334.846C120.292 334.846 119.708 335.209 119.394 335.936V341.495H118.092V333.881H119.323ZM132.146 341.495H130.845V330.686H132.146V341.495Z" fill="white"/>
<path d="M121.493 372.673H118.06V371.61H121.493V372.673Z" fill="white"/>
<mask id="mask2_770_3634" style="mask-type:luminance" maskUnits="userSpaceOnUse" x="48" y="15" width="14" height="14">
<path d="M61.5176 15.3979H48.2795V28.6417H61.5176V15.3979Z" fill="white"/>
</mask>
<g mask="url(#mask2_770_3634)">
<path d="M54.8984 18.7035L59.0512 25.8826H50.7446L54.8984 18.7035ZM54.8984 16.5017L48.8308 26.9862H60.966L54.8984 16.5017ZM55.4499 24.2272H54.3469V25.3308H55.4499V24.2272ZM55.4499 20.9162H54.3469V23.1235H55.4499V20.9162Z" fill="#F5222D"/>
</g>
<path d="M113.428 10.8083H47.5747C45.5857 10.8083 43.9734 12.4214 43.9734 14.4112V195.658C43.9734 197.648 45.5857 199.261 47.5747 199.261H113.428C115.417 199.261 117.029 197.648 117.029 195.658V14.4112C117.029 12.4214 115.417 10.8083 113.428 10.8083Z" stroke="#F5222D"/>
<path d="M145.067 0.514404H15.9349C7.69508 0.514404 1.01538 7.19697 1.01538 15.4403V374.559C1.01538 382.802 7.69508 389.485 15.9349 389.485H145.067C153.307 389.485 159.986 382.802 159.986 374.559V15.4403C159.986 7.19697 153.307 0.514404 145.067 0.514404Z" stroke="url(#paint10_linear_770_3634)" stroke-opacity="0.05"/>
<path d="M99.65 185.365H60.5505C58.2775 185.365 56.4348 187.208 56.4348 189.482V205.952C56.4348 208.226 58.2775 210.069 60.5505 210.069H99.65C101.923 210.069 103.766 208.226 103.766 205.952V189.482C103.766 187.208 101.923 185.365 99.65 185.365Z" fill="#474747"/>
<path d="M64.2969 201.834H65.652V198.434H67.4928C67.5236 198.434 67.5504 198.434 67.5812 198.434L69.4045 201.834H70.9479L68.9579 198.198C70.0579 197.79 70.6063 196.873 70.6063 195.666C70.6063 194.013 69.5805 192.85 67.4979 192.85H64.2969V201.834ZM65.652 197.268V194.013H67.3528C68.6904 194.013 69.243 194.649 69.243 195.666C69.243 196.68 68.6904 197.268 67.3703 197.268H65.652ZM74.9679 201.97C76.4362 201.97 77.4755 201.247 77.7739 200.149L76.5329 199.926C76.2963 200.562 75.7263 200.886 74.9813 200.886C73.8587 200.886 73.1045 200.159 73.0696 198.861H77.8572V198.395C77.8572 195.961 76.4012 195.009 74.8753 195.009C72.9986 195.009 71.7628 196.438 71.7628 198.51C71.7628 200.601 72.9811 201.97 74.9679 201.97ZM73.0737 197.878C73.1261 196.921 73.8186 196.093 74.8846 196.093C75.9022 196.093 76.5679 196.847 76.5731 197.878H73.0737ZM84.359 196.741C84.0863 195.693 83.2673 195.009 81.8114 195.009C80.2896 195.009 79.2112 195.812 79.2112 197.005C79.2112 197.961 79.7895 198.597 81.053 198.878L82.1931 199.127C82.8413 199.272 83.1438 199.562 83.1438 199.983C83.1438 200.506 82.5872 200.913 81.728 200.913C80.943 200.913 80.4388 200.576 80.2813 199.913L79.0137 200.106C79.2329 201.299 80.2237 201.97 81.7363 201.97C83.363 201.97 84.4897 201.106 84.4897 199.887C84.4897 198.935 83.8847 198.347 82.6489 198.062L81.5788 197.816C80.838 197.641 80.518 197.391 80.5221 196.935C80.518 196.417 81.0788 196.048 81.8247 196.048C82.6397 196.048 83.0173 196.5 83.1706 196.952L84.359 196.741ZM88.8338 201.97C90.3032 201.97 91.3424 201.247 91.6408 200.149L90.3999 199.926C90.1632 200.562 89.5932 200.886 88.8472 200.886C87.7247 200.886 86.9704 200.159 86.9355 198.861H91.7241V198.395C91.7241 195.961 90.2682 195.009 88.7422 195.009C86.8655 195.009 85.6287 196.438 85.6287 198.51C85.6287 200.601 86.848 201.97 88.8338 201.97ZM86.9396 197.878C86.9931 196.921 87.6856 196.093 88.7505 196.093C89.7681 196.093 90.4349 196.847 90.439 197.878H86.9396ZM96.3224 195.096H94.9406V193.482H93.6297V195.096H92.6429V196.149H93.6297V200.128C93.6256 201.352 94.5599 201.944 95.5939 201.922C96.0107 201.918 96.2915 201.839 96.4449 201.782L96.2082 200.698C96.1207 200.716 95.9582 200.755 95.7483 200.755C95.3223 200.755 94.9406 200.615 94.9406 199.856V196.149H96.3224V195.096Z" fill="white"/>
<defs>
<filter id="filter0_iiii_770_3634" x="68.9482" y="124.981" width="26.2471" height="146.438" filterUnits="userSpaceOnUse" color-interpolation-filters="sRGB">
<feFlood flood-opacity="0" result="BackgroundImageFix"/>
<feBlend mode="normal" in="SourceGraphic" in2="BackgroundImageFix" result="shape"/>
<feColorMatrix in="SourceAlpha" type="matrix" values="0 0 0 0 0 0 0 0 0 0 0 0 0 0 0 0 0 0 127 0" result="hardAlpha"/>
<feOffset dx="3.01977"/>
<feGaussianBlur stdDeviation="2.51648"/>
<feComposite in2="hardAlpha" operator="arithmetic" k2="-1" k3="1"/>
<feColorMatrix type="matrix" values="0 0 0 0 1 0 0 0 0 1 0 0 0 0 1 0 0 0 0.1 0"/>
<feBlend mode="normal" in2="shape" result="effect1_innerShadow_770_3634"/>
<feColorMatrix in="SourceAlpha" type="matrix" values="0 0 0 0 0 0 0 0 0 0 0 0 0 0 0 0 0 0 127 0" result="hardAlpha"/>
<feOffset dx="1.00659"/>
<feGaussianBlur stdDeviation="0.503296"/>
<feComposite in2="hardAlpha" operator="arithmetic" k2="-1" k3="1"/>
<feColorMatrix type="matrix" values="0 0 0 0 1 0 0 0 0 1 0 0 0 0 1 0 0 0 0.2 0"/>
<feBlend mode="normal" in2="effect1_innerShadow_770_3634" result="effect2_innerShadow_770_3634"/>
<feColorMatrix in="SourceAlpha" type="matrix" values="0 0 0 0 0 0 0 0 0 0 0 0 0 0 0 0 0 0 127 0" result="hardAlpha"/>
<feOffset dx="-1.00659"/>
<feGaussianBlur stdDeviation="0.503296"/>
<feComposite in2="hardAlpha" operator="arithmetic" k2="-1" k3="1"/>
<feColorMatrix type="matrix" values="0 0 0 0 1 0 0 0 0 1 0 0 0 0 1 0 0 0 0.2 0"/>
<feBlend mode="normal" in2="effect2_innerShadow_770_3634" result="effect3_innerShadow_770_3634"/>
<feColorMatrix in="SourceAlpha" type="matrix" values="0 0 0 0 0 0 0 0 0 0 0 0 0 0 0 0 0 0 127 0" result="hardAlpha"/>
<feOffset dx="-1.00659"/>
<feGaussianBlur stdDeviation="4.52966"/>
<feComposite in2="hardAlpha" operator="arithmetic" k2="-1" k3="1"/>
<feColorMatrix type="matrix" values="0 0 0 0 1 0 0 0 0 1 0 0 0 0 1 0 0 0 0.2 0"/>
<feBlend mode="normal" in2="effect3_innerShadow_770_3634" result="effect4_innerShadow_770_3634"/>
</filter>
<filter id="filter1_iiii_770_3634" x="68.3835" y="25.4766" width="26.2483" height="152.348" filterUnits="userSpaceOnUse" color-interpolation-filters="sRGB">
<feFlood flood-opacity="0" result="BackgroundImageFix"/>
<feBlend mode="normal" in="SourceGraphic" in2="BackgroundImageFix" result="shape"/>
<feColorMatrix in="SourceAlpha" type="matrix" values="0 0 0 0 0 0 0 0 0 0 0 0 0 0 0 0 0 0 127 0" result="hardAlpha"/>
<feOffset dx="3.01977"/>
<feGaussianBlur stdDeviation="2.51648"/>
<feComposite in2="hardAlpha" operator="arithmetic" k2="-1" k3="1"/>
<feColorMatrix type="matrix" values="0 0 0 0 1 0 0 0 0 1 0 0 0 0 1 0 0 0 0.1 0"/>
<feBlend mode="normal" in2="shape" result="effect1_innerShadow_770_3634"/>
<feColorMatrix in="SourceAlpha" type="matrix" values="0 0 0 0 0 0 0 0 0 0 0 0 0 0 0 0 0 0 127 0" result="hardAlpha"/>
<feOffset dx="1.00659"/>
<feGaussianBlur stdDeviation="0.503296"/>
<feComposite in2="hardAlpha" operator="arithmetic" k2="-1" k3="1"/>
<feColorMatrix type="matrix" values="0 0 0 0 1 0 0 0 0 1 0 0 0 0 1 0 0 0 0.2 0"/>
<feBlend mode="normal" in2="effect1_innerShadow_770_3634" result="effect2_innerShadow_770_3634"/>
<feColorMatrix in="SourceAlpha" type="matrix" values="0 0 0 0 0 0 0 0 0 0 0 0 0 0 0 0 0 0 127 0" result="hardAlpha"/>
<feOffset dx="-1.00659"/>
<feGaussianBlur stdDeviation="0.503296"/>
<feComposite in2="hardAlpha" operator="arithmetic" k2="-1" k3="1"/>
<feColorMatrix type="matrix" values="0 0 0 0 1 0 0 0 0 1 0 0 0 0 1 0 0 0 0.2 0"/>
<feBlend mode="normal" in2="effect2_innerShadow_770_3634" result="effect3_innerShadow_770_3634"/>
<feColorMatrix in="SourceAlpha" type="matrix" values="0 0 0 0 0 0 0 0 0 0 0 0 0 0 0 0 0 0 127 0" result="hardAlpha"/>
<feOffset dx="-1.00659"/>
<feGaussianBlur stdDeviation="4.52966"/>
<feComposite in2="hardAlpha" operator="arithmetic" k2="-1" k3="1"/>
<feColorMatrix type="matrix" values="0 0 0 0 1 0 0 0 0 1 0 0 0 0 1 0 0 0 0.2 0"/>
<feBlend mode="normal" in2="effect3_innerShadow_770_3634" result="effect4_innerShadow_770_3634"/>
</filter>
<filter id="filter2_ii_770_3634" x="69.3896" y="20.5874" width="25.2412" height="9.77808" filterUnits="userSpaceOnUse" color-interpolation-filters="sRGB">
<feFlood flood-opacity="0" result="BackgroundImageFix"/>
<feBlend mode="normal" in="SourceGraphic" in2="BackgroundImageFix" result="shape"/>
<feColorMatrix in="SourceAlpha" type="matrix" values="0 0 0 0 0 0 0 0 0 0 0 0 0 0 0 0 0 0 127 0" result="hardAlpha"/>
<feOffset dx="3.01977"/>
<feGaussianBlur stdDeviation="2.51648"/>
<feComposite in2="hardAlpha" operator="arithmetic" k2="-1" k3="1"/>
<feColorMatrix type="matrix" values="0 0 0 0 1 0 0 0 0 1 0 0 0 0 1 0 0 0 0.1 0"/>
<feBlend mode="normal" in2="shape" result="effect1_innerShadow_770_3634"/>
<feColorMatrix in="SourceAlpha" type="matrix" values="0 0 0 0 0 0 0 0 0 0 0 0 0 0 0 0 0 0 127 0" result="hardAlpha"/>
<feOffset dx="1.00659"/>
<feGaussianBlur stdDeviation="0.503296"/>
<feComposite in2="hardAlpha" operator="arithmetic" k2="-1" k3="1"/>
<feColorMatrix type="matrix" values="0 0 0 0 1 0 0 0 0 1 0 0 0 0 1 0 0 0 0.2 0"/>
<feBlend mode="normal" in2="effect1_innerShadow_770_3634" result="effect2_innerShadow_770_3634"/>
</filter>
<filter id="filter3_ii_770_3634" x="68.3694" y="20.6023" width="27.2832" height="11.8206" filterUnits="userSpaceOnUse" color-interpolation-filters="sRGB">
<feFlood flood-opacity="0" result="BackgroundImageFix"/>
<feBlend mode="normal" in="SourceGraphic" in2="BackgroundImageFix" result="shape"/>
<feColorMatrix in="SourceAlpha" type="matrix" values="0 0 0 0 0 0 0 0 0 0 0 0 0 0 0 0 0 0 127 0" result="hardAlpha"/>
<feOffset dx="3.01977"/>
<feGaussianBlur stdDeviation="2.51648"/>
<feComposite in2="hardAlpha" operator="arithmetic" k2="-1" k3="1"/>
<feColorMatrix type="matrix" values="0 0 0 0 1 0 0 0 0 1 0 0 0 0 1 0 0 0 0.1 0"/>
<feBlend mode="normal" in2="shape" result="effect1_innerShadow_770_3634"/>
<feColorMatrix in="SourceAlpha" type="matrix" values="0 0 0 0 0 0 0 0 0 0 0 0 0 0 0 0 0 0 127 0" result="hardAlpha"/>
<feOffset dx="1.00659"/>
<feGaussianBlur stdDeviation="0.503296"/>
<feComposite in2="hardAlpha" operator="arithmetic" k2="-1" k3="1"/>
<feColorMatrix type="matrix" values="0 0 0 0 1 0 0 0 0 1 0 0 0 0 1 0 0 0 0.2 0"/>
<feBlend mode="normal" in2="effect1_innerShadow_770_3634" result="effect2_innerShadow_770_3634"/>
</filter>
<filter id="filter4_ii_770_3634" x="68.3694" y="19.5659" width="27.2832" height="11.8206" filterUnits="userSpaceOnUse" color-interpolation-filters="sRGB">
<feFlood flood-opacity="0" result="BackgroundImageFix"/>
<feBlend mode="normal" in="SourceGraphic" in2="BackgroundImageFix" result="shape"/>
<feColorMatrix in="SourceAlpha" type="matrix" values="0 0 0 0 0 0 0 0 0 0 0 0 0 0 0 0 0 0 127 0" result="hardAlpha"/>
<feOffset dx="3.01977"/>
<feGaussianBlur stdDeviation="2.51648"/>
<feComposite in2="hardAlpha" operator="arithmetic" k2="-1" k3="1"/>
<feColorMatrix type="matrix" values="0 0 0 0 1 0 0 0 0 1 0 0 0 0 1 0 0 0 0.1 0"/>
<feBlend mode="normal" in2="shape" result="effect1_innerShadow_770_3634"/>
<feColorMatrix in="SourceAlpha" type="matrix" values="0 0 0 0 0 0 0 0 0 0 0 0 0 0 0 0 0 0 127 0" result="hardAlpha"/>
<feOffset dx="1.00659"/>
<feGaussianBlur stdDeviation="0.503296"/>
<feComposite in2="hardAlpha" operator="arithmetic" k2="-1" k3="1"/>
<feColorMatrix type="matrix" values="0 0 0 0 1 0 0 0 0 1 0 0 0 0 1 0 0 0 0.2 0"/>
<feBlend mode="normal" in2="effect1_innerShadow_770_3634" result="effect2_innerShadow_770_3634"/>
</filter>
<filter id="filter5_f_770_3634" x="72.6187" y="50.2615" width="11.6123" height="64.1318" filterUnits="userSpaceOnUse" color-interpolation-filters="sRGB">
<feFlood flood-opacity="0" result="BackgroundImageFix"/>
<feBlend mode="normal" in="SourceGraphic" in2="BackgroundImageFix" result="shape"/>
<feGaussianBlur stdDeviation="2.01318" result="effect1_foregroundBlur_770_3634"/>
</filter>
<filter id="filter6_f_770_3634" x="78.7366" y="100.701" width="11.6123" height="64.1318" filterUnits="userSpaceOnUse" color-interpolation-filters="sRGB">
<feFlood flood-opacity="0" result="BackgroundImageFix"/>
<feBlend mode="normal" in="SourceGraphic" in2="BackgroundImageFix" result="shape"/>
<feGaussianBlur stdDeviation="2.01318" result="effect1_foregroundBlur_770_3634"/>
</filter>
<filter id="filter7_f_770_3634" x="77.4609" y="36.3911" width="14.6684" height="64.1318" filterUnits="userSpaceOnUse" color-interpolation-filters="sRGB">
<feFlood flood-opacity="0" result="BackgroundImageFix"/>
<feBlend mode="normal" in="SourceGraphic" in2="BackgroundImageFix" result="shape"/>
<feGaussianBlur stdDeviation="2.01318" result="effect1_foregroundBlur_770_3634"/>
</filter>
<filter id="filter8_f_770_3634" x="70.8396" y="107.535" width="15.9502" height="64.1318" filterUnits="userSpaceOnUse" color-interpolation-filters="sRGB">
<feFlood flood-opacity="0" result="BackgroundImageFix"/>
<feBlend mode="normal" in="SourceGraphic" in2="BackgroundImageFix" result="shape"/>
<feGaussianBlur stdDeviation="2.01318" result="effect1_foregroundBlur_770_3634"/>
</filter>
<filter id="filter9_d_770_3634" x="69.2253" y="79.6431" width="22.1655" height="16.4153" filterUnits="userSpaceOnUse" color-interpolation-filters="sRGB">
<feFlood flood-opacity="0" result="BackgroundImageFix"/>
<feColorMatrix in="SourceAlpha" type="matrix" values="0 0 0 0 0 0 0 0 0 0 0 0 0 0 0 0 0 0 127 0" result="hardAlpha"/>
<feOffset dy="3.01977"/>
<feGaussianBlur stdDeviation="2.01318"/>
<feColorMatrix type="matrix" values="0 0 0 0 0 0 0 0 0 0 0 0 0 0 0 0 0 0 0.25 0"/>
<feBlend mode="normal" in2="BackgroundImageFix" result="effect1_dropShadow_770_3634"/>
<feBlend mode="normal" in="SourceGraphic" in2="effect1_dropShadow_770_3634" result="shape"/>
</filter>
<linearGradient id="paint0_linear_770_3634" x1="80.5005" y1="0" x2="80.5005" y2="390" gradientUnits="userSpaceOnUse">
<stop stop-color="white" stop-opacity="0"/>
<stop offset="1" stop-color="white"/>
</linearGradient>
<linearGradient id="paint1_linear_770_3634" x1="81.5367" y1="15.8436" x2="81.5367" y2="32.84" gradientUnits="userSpaceOnUse">
<stop stop-color="white" stop-opacity="0"/>
<stop offset="0.203125" stop-opacity="0.24"/>
<stop offset="0.479167" stop-color="white" stop-opacity="0.0738462"/>
<stop offset="1" stop-color="white" stop-opacity="0"/>
</linearGradient>
<linearGradient id="paint2_linear_770_3634" x1="81.5367" y1="16.8799" x2="81.5367" y2="33.3404" gradientUnits="userSpaceOnUse">
<stop offset="0.575463" stop-opacity="0.24"/>
<stop offset="1" stop-color="white" stop-opacity="0"/>
</linearGradient>
<linearGradient id="paint3_linear_770_3634" x1="81.5367" y1="15.8436" x2="81.5367" y2="32.84" gradientUnits="userSpaceOnUse">
<stop stop-color="white" stop-opacity="0"/>
<stop offset="0.203125" stop-opacity="0.24"/>
<stop offset="0.479167" stop-color="white" stop-opacity="0.0738462"/>
<stop offset="1" stop-color="white" stop-opacity="0"/>
</linearGradient>
<linearGradient id="paint4_linear_770_3634" x1="89.446" y1="54.2878" x2="89.446" y2="168.967" gradientUnits="userSpaceOnUse">
<stop stop-color="white"/>
<stop offset="1" stop-color="white" stop-opacity="0"/>
</linearGradient>
<linearGradient id="paint5_linear_770_3634" x1="71.7588" y1="54.2878" x2="71.7588" y2="130.767" gradientUnits="userSpaceOnUse">
<stop stop-color="white" stop-opacity="0"/>
<stop offset="0.494792" stop-color="white"/>
<stop offset="1" stop-color="white" stop-opacity="0"/>
</linearGradient>
<linearGradient id="paint6_linear_770_3634" x1="78.4251" y1="54.2878" x2="78.4251" y2="110.367" gradientUnits="userSpaceOnUse">
<stop stop-color="white" stop-opacity="0"/>
<stop offset="0.494792" stop-color="white"/>
<stop offset="1" stop-color="white" stop-opacity="0"/>
</linearGradient>
<linearGradient id="paint7_linear_770_3634" x1="84.543" y1="104.727" x2="84.543" y2="160.807" gradientUnits="userSpaceOnUse">
<stop stop-color="white" stop-opacity="0"/>
<stop offset="0.494792" stop-color="white"/>
<stop offset="1" stop-color="white" stop-opacity="0"/>
</linearGradient>
<linearGradient id="paint8_linear_770_3634" x1="84.7953" y1="40.4175" x2="84.7953" y2="96.4965" gradientUnits="userSpaceOnUse">
<stop stop-color="white" stop-opacity="0"/>
<stop offset="0.494792" stop-color="white"/>
<stop offset="1" stop-color="white" stop-opacity="0"/>
</linearGradient>
<linearGradient id="paint9_linear_770_3634" x1="78.814" y1="111.561" x2="78.814" y2="167.641" gradientUnits="userSpaceOnUse">
<stop stop-color="white" stop-opacity="0"/>
<stop offset="0.494792" stop-color="white"/>
<stop offset="1" stop-color="white" stop-opacity="0"/>
</linearGradient>
<linearGradient id="paint10_linear_770_3634" x1="80.5004" y1="-0.000282776" x2="80.5004" y2="390" gradientUnits="userSpaceOnUse">
<stop stop-color="white"/>
<stop offset="1" stop-color="white" stop-opacity="0"/>
</linearGradient>
</defs>
</svg>
