<svg width="346" height="180" viewBox="0 0 346 180" fill="none" xmlns="http://www.w3.org/2000/svg">
<rect width="346" height="180" fill="#111111"/>
<path fill-rule="evenodd" clip-rule="evenodd" d="M154.541 0.364367C140.115 0.959808 132.279 1.88221 128.904 3.38103C127.685 3.92221 126.614 5.32872 125.681 7.61395C124.323 10.9364 124.304 11.4797 125.019 26.2981C126.042 47.5071 126.594 50.7978 129.635 53.823L132.043 56.2195L149.79 55.7474C159.552 55.4874 170.098 54.9229 173.227 54.4924C176.82 53.9984 181.135 53.9216 184.939 54.2838C198.731 55.5966 206.87 54.4706 210.393 50.7619C213.03 47.9848 213.384 44.7532 213.179 25.2989C212.966 5.05884 212.659 3.35637 209.031 2.32404C207.927 2.00976 200.248 1.4418 191.966 1.06057C183.684 0.680056 175.101 0.234709 172.892 0.0705225C170.684 -0.0936641 162.426 0.0388125 154.541 0.364367ZM199.662 2.50936C201.87 2.85958 205.123 3.14849 206.891 3.15131C211.87 3.15977 212.044 3.97506 212.04 27.2691C212.038 50.2982 212.143 49.9156 205.086 52.3552C200.028 54.1034 195.019 54.2958 186.871 53.0556C182.25 52.3523 179.999 52.4087 172.782 53.41C167.041 54.2063 158.926 54.6312 148.313 54.6911C127.455 54.8095 128.13 55.2591 126.983 40.5041C126.636 36.0471 126.188 27.4467 125.987 21.3922C125.369 2.85535 125.255 2.94485 151.142 1.77722C165.328 1.13738 193.717 1.56582 199.662 2.50936ZM57.6256 11.6594C56.0676 11.9786 53.7065 12.7827 52.3787 13.4464C49.5812 14.8438 49.5812 14.7846 52.3573 24.5393C55.48 35.5109 56.3614 36.4002 62.2815 34.5539C64.2237 33.9486 67.4689 33.0579 69.4933 32.5745C73.0216 31.7325 73.1836 31.5936 73.4004 29.2295C73.5289 27.8237 72.8396 24.2651 71.7969 20.9546C69.9759 15.1708 69.9525 15.1383 66.4416 13.4457C61.6645 11.1429 60.8995 10.9879 57.6256 11.6594ZM60.7403 13.7269C61.0193 13.7269 61.5882 14.5147 62.0051 15.478C62.6884 17.0557 63.0451 17.1882 65.6264 16.8197L68.4895 16.411L70.4075 22.3985C71.4623 25.6921 72.2045 28.7701 72.0559 29.2387C71.8036 30.0356 60.4404 33.4575 58.0472 33.4575C56.955 33.4575 55.648 30.0279 53.1068 20.4959C52.19 17.0578 52.1518 16.1862 52.8826 15.4385C53.9641 14.3322 58.1222 13.0448 59.3422 13.4387C59.8321 13.5972 60.4618 13.7269 60.7403 13.7269ZM64.474 14.4316C64.7015 14.8191 64.5684 15.1362 64.1789 15.1362C63.7893 15.1362 63.4701 14.8191 63.4701 14.4316C63.4701 14.044 63.6026 13.7269 63.7653 13.7269C63.9279 13.7269 64.2464 14.044 64.474 14.4316ZM219.773 15.7542C220.122 16.0939 221.951 16.8986 223.836 17.5427C236.295 21.796 244.297 32.1334 246.715 47.1012C247.97 54.8708 249.255 56.3238 248.525 49.1482C247.314 37.2415 241.564 26.1699 233.909 21.0061C229.235 17.852 217.413 13.4605 219.773 15.7542ZM63.1355 19.0492C61.6632 19.5531 59.3101 20.1654 57.906 20.4099C54.9131 20.9307 54.8536 22.6494 57.8397 22.3203C61.8351 21.8806 66.8164 20.0336 66.8164 18.9921C66.8164 17.8083 66.7561 17.8097 63.1355 19.0492ZM60.9604 23.8515C58.6602 24.6485 56.7776 25.709 56.7776 26.2079C56.7776 27.3748 57.6336 27.3029 62.1316 25.7583C64.3482 24.9973 65.8988 24.0347 66.0287 23.3385C66.2823 21.9863 66.3666 21.9778 60.9604 23.8515ZM110.859 23.9368C102.284 27.0944 96.9379 30.5493 91.2439 36.6137C88.2992 39.7501 85.3458 43.3355 84.6806 44.5813C82.547 48.5789 84.6143 47.0011 88.0984 41.9726C89.9563 39.2921 93.0676 35.7744 95.0124 34.1551C99.3398 30.5536 107.368 26.2305 112.704 24.6288C116.881 23.3745 118.905 22.1441 116.642 22.235C115.924 22.2639 113.322 23.0299 110.859 23.9368ZM60.9604 27.1367C58.2634 28.398 57.1424 29.9525 58.9527 29.9187C60.4371 29.8912 65.4779 27.2078 65.4779 26.4454C65.4779 25.4081 64.2545 25.5956 60.9604 27.1367ZM278.968 27.8307C276.575 28.1218 272.585 28.3973 270.1 28.4424L265.583 28.5248L265.584 31.1673C265.584 34.716 266.867 48.9946 267.326 50.5639C267.597 51.4905 267.158 52.0106 265.634 52.5708C264.308 53.057 263.575 53.8032 263.575 54.6664C263.575 55.8524 264.095 56.0053 268.093 55.9961C270.577 55.9898 273.062 55.6819 273.614 55.3112C275.157 54.2754 273.567 52.1755 271.039 51.9105C268.869 51.6829 268.813 51.5814 268.01 46.4465L267.673 44.2846L276.791 43.4609C281.807 43.0078 286.167 42.3665 286.48 42.0368C286.793 41.707 286.963 38.2936 286.857 34.4525C286.635 26.4221 287.131 26.8379 278.968 27.8307ZM284.991 35.2191C284.991 38.5134 284.915 41.2116 284.824 41.2144C284.732 41.2172 280.816 41.4237 276.124 41.6724L267.591 42.1241V30.178L269.431 30.4338C270.443 30.5747 273.078 30.3999 275.287 30.0455C277.495 29.6911 280.583 29.3627 282.147 29.3155L284.991 29.2295V35.2191ZM283.758 31.3435C283.758 32.3124 283.91 32.7091 284.096 32.2243C284.282 31.7402 284.282 30.9475 284.096 30.4627C283.91 29.9786 283.758 30.3746 283.758 31.3435ZM280.528 39.9355C281.979 40.3519 283.344 40.4055 283.673 40.0595C284.001 39.7128 282.887 39.3936 281.109 39.3231L277.964 39.1998L280.528 39.9355ZM272.275 53.8927C272.275 54.2866 270.578 54.5755 268.427 54.5481C265.659 54.5121 264.954 54.3282 265.917 53.8927C267.794 53.0436 272.275 53.0436 272.275 53.8927ZM38.2636 74.7275C38.0421 75.3349 38.202 76.1911 38.619 76.6301C39.1838 77.2248 39.3772 76.943 39.3772 75.5259C39.3772 73.4056 38.8759 73.0469 38.2636 74.7275ZM50.6186 77.1508C49.9915 78.3114 49.7485 79.2606 50.0785 79.2606C50.729 79.2606 52.7622 76.473 52.7622 75.5802C52.7622 74.3759 51.6961 75.1566 50.6186 77.1508ZM75.8974 75.8127C75.7214 76.3525 75.107 80.4409 74.5321 84.8979C73.9572 89.3549 73.3275 94.0325 73.1327 95.2917C72.9346 96.5763 73.0678 97.5819 73.4372 97.5819C73.8 97.5819 74.2825 96.076 74.51 94.2347C74.7376 92.3934 75.3961 87.4657 75.9737 83.2835C76.5506 79.1014 76.8417 75.4885 76.6202 75.2553C76.3986 75.0221 76.0734 75.2729 75.8974 75.8127ZM28 76.0565C28 76.9557 29.6289 79.9653 30.1155 79.9653C30.8282 79.9653 30.8202 79.7482 30.0245 77.5448C29.4831 76.0452 28 74.9551 28 76.0565ZM36.7002 81.8742C35.1 82.4936 33.2964 84.38 32.233 86.5454C30.8697 89.3211 31.6327 93.3123 34.3103 97.4205C35.5049 99.2533 37.326 102.735 38.3559 105.157C40.0913 109.237 40.3878 109.561 42.3801 109.561C43.5634 109.561 45.5109 109.202 46.7075 108.763L48.8832 107.964L48.4341 103.545C48.1725 100.972 48.309 97.3909 48.7614 94.9697C49.7157 89.8616 48.8096 85.5448 46.2604 83.0581C44.8878 81.7178 43.8391 81.3859 41.1199 81.4303C39.2414 81.4606 37.2523 81.6607 36.7002 81.8742ZM44.9172 84.1961C46.9799 85.9042 47.7361 89.7531 47.0301 94.9528C46.5341 98.6022 46.5234 98.6163 45.9459 96.3487C45.6246 95.0895 45.2954 94.0424 45.2137 94.0226C42.5006 93.3673 39.1343 93.3933 38.3526 94.0769C37.065 95.2022 37.1031 97.572 38.4416 99.5845C39.0312 100.471 39.3913 101.325 39.2414 101.483C38.6812 102.073 33.8874 93.616 33.542 91.428C33.3446 90.1744 33.5735 88.1549 34.052 86.9386C35.5839 83.0446 41.6714 81.5078 44.9172 84.1961ZM255.929 88.336C255.671 88.775 255.821 90.1822 256.26 91.4633C256.906 93.3433 256.855 94.8492 255.997 99.2787C254.805 105.437 253.097 108.304 248.501 111.863C245.386 114.274 244.844 115.198 246.543 115.198C247.114 115.198 249.496 113.217 251.836 110.794C256.413 106.058 257.222 104.165 257.94 96.5249C258.344 92.2229 256.958 86.5821 255.929 88.336ZM68.1622 92.1207C68.1662 92.2173 68.6206 93.8634 69.1721 95.7779C71.3104 103.2 73.5998 104.288 77.7231 99.8424C81.2025 96.0901 80.819 95.3939 77.2044 98.9017C75.5567 100.501 73.9371 101.81 73.6059 101.81C72.5859 101.81 71.7347 100.218 70.4979 95.9964C69.8447 93.7682 69.0503 91.9446 68.7324 91.9446C68.4145 91.9446 68.1582 92.0242 68.1622 92.1207ZM39.8049 95.9964C39.661 97.9004 42.4564 98.0279 42.9256 96.1387C43.4415 94.0628 44.7312 95.0824 44.7312 97.5657C44.7312 102.206 42.4685 103.278 40.092 99.7635C38.6839 97.6805 38.2234 94.7632 39.3029 94.7632C39.6302 94.7632 39.8557 95.3178 39.8049 95.9964ZM45.0116 103.91C44.0111 104.964 40.0465 105.643 40.0465 104.761C40.0465 104.349 41.0249 103.885 42.2215 103.729C43.4181 103.573 44.683 103.394 45.0324 103.332C45.4138 103.264 45.4058 103.495 45.0116 103.91ZM47.4082 105.991C47.4082 106.352 46.8059 106.828 46.0697 107.048C42.3346 108.163 41.8528 108.112 44.0619 106.838C46.8112 105.251 47.4082 105.1 47.4082 105.991ZM272.811 130.354C271.003 134.358 269.594 137.896 269.678 138.218C269.856 138.897 270.885 138.841 272.72 138.054C273.764 137.605 273.475 138.55 271.214 142.962C266.388 152.384 267.591 152.148 277.168 141.799C281.202 137.44 284.413 133.396 284.302 132.815C284.087 131.685 282.91 131.598 279.028 132.425L276.591 132.943L276.937 128.395C277.128 125.894 277.017 123.673 276.69 123.461C276.364 123.249 274.618 126.35 272.811 130.354ZM275.348 131.516L274.903 134.444L282.744 133.473L281.118 135.434C279.377 137.536 276.28 140.745 273.788 143.033L272.253 144.442L273.681 141.475C275.735 137.206 275.593 136.06 273.08 136.589L271.054 137.016L273.248 132.81C274.455 130.497 275.521 128.6 275.618 128.596C275.714 128.591 275.593 129.905 275.348 131.516ZM97.6673 145.81C99.5827 149.227 103.848 153.096 107.881 155.073C111.39 156.793 115.671 157.34 115.671 156.069C115.671 155.681 114.813 155.364 113.763 155.364C109.124 155.364 102.447 151.124 99.3652 146.221C97.1935 142.766 95.7687 142.421 97.6673 145.81ZM211.039 144.09C210.802 144.493 211.429 144.808 212.506 144.827C214.286 144.858 214.139 145.099 209.701 149.416C207.124 151.922 203.894 154.523 202.524 155.197C199.979 156.447 199.258 157.478 200.927 157.478C201.941 157.478 207.775 152.983 212.996 148.179L216.292 145.147L215.857 147.437C215.618 148.696 215.681 149.727 215.997 149.727C216.66 149.727 217.374 147.282 217.388 144.97C217.396 143.563 217.064 143.385 214.425 143.385C212.79 143.385 211.267 143.702 211.039 144.09Z" fill="url(#paint0_linear)"/>
<path d="M161.521 90.5701C159.959 90.8055 158.218 89.0593 158.884 87.9248C159.122 87.5204 160.223 87.1892 161.331 87.1892C163.038 87.1892 163.313 87.4316 163.132 88.7747C163 89.7506 162.381 90.4412 161.521 90.5701Z" fill="url(#paint1_linear)"/>
<path d="M166.558 94.2626C165.199 95.1469 163.922 94.2203 163.922 92.3494C163.922 90.9556 164.216 90.6589 165.421 90.8393C167.093 91.0909 167.865 93.412 166.558 94.2626Z" fill="url(#paint2_linear)"/>
<path fill-rule="evenodd" clip-rule="evenodd" d="M142.759 73.4038C140.574 74.4052 138.49 76.9476 138.49 78.6127C138.49 79.1489 137.737 80.2109 136.817 80.9733C135.005 82.4743 134.592 85.4909 135.858 87.9812C136.466 89.1777 137.147 89.356 140.457 89.1834C143.004 89.0502 144.72 89.3109 145.441 89.9409C147.009 91.3107 152.231 90.4137 155.352 88.2384C156.737 87.2737 158.643 86.4845 159.588 86.4845C161.429 86.4845 164.591 83.6701 164.591 82.031C164.591 80.6055 161.991 77.3239 160.861 77.3239C160.336 77.3239 159.906 76.8482 159.906 76.2669C159.906 74.5531 157.376 72.3912 155.371 72.3912C154.348 72.3912 152.83 72.8944 151.995 73.5095C150.611 74.5306 150.339 74.5306 148.858 73.5095C146.905 72.1615 145.522 72.1375 142.759 73.4038ZM151.717 75.1894C150.048 76.572 150.034 76.572 148.846 75.1894C147.199 73.2728 144.341 73.4518 141.888 75.6249C140.478 76.8736 139.829 78.0807 139.829 79.4512C139.829 80.9916 139.481 81.5061 138.323 81.6787C137.056 81.8682 136.817 82.339 136.817 84.646C136.817 88.2574 138.208 89.244 141.52 87.9826C143.645 87.1737 144.094 87.2082 145.205 88.2673C147.065 90.0395 153.159 89.1481 155.257 86.7967C156.26 85.6734 157.53 85.0752 158.915 85.0752C161.117 85.0752 163.253 83.2959 163.253 81.461C163.253 79.8388 161.824 78.7332 159.728 78.7332C158.098 78.7332 157.874 78.5155 158.243 77.29C159.238 73.9894 154.866 72.5822 151.717 75.1894Z" fill="url(#paint3_linear)"/>
<path d="M145.688 143.534C145.387 145.642 145.037 147.476 144.91 147.611C143.943 148.634 143.934 145.929 144.889 140.673C145.509 137.256 145.933 134.09 145.831 133.639C145.729 133.187 145.845 132.606 146.089 132.348C147.021 131.363 147.277 132.82 146.766 136.195C146.474 138.124 145.989 141.427 145.688 143.534Z" fill="url(#paint4_linear)"/>
<path d="M147.042 128.717C146.78 128.717 145.256 129.843 143.653 131.22C140.741 133.721 138.852 133.997 141.129 131.588C143.091 129.513 147.537 126.961 148.103 127.584C148.96 128.529 150.758 135.751 150.347 136.599C150.138 137.029 149.416 135.432 148.742 133.05C148.067 130.668 147.302 128.718 147.042 128.717Z" fill="url(#paint5_linear)"/>
<path d="M204.267 110.02C201.483 106.62 198.987 103.432 198.72 102.935C198.453 102.439 198.49 102.015 198.802 101.993C199.114 101.971 201.486 104.589 204.074 107.809C206.661 111.03 209.724 114.808 210.88 116.205C212.037 117.602 212.787 118.98 212.548 119.268C212.304 119.561 211.502 119.003 210.721 117.997C209.956 117.011 207.051 113.421 204.267 110.02Z" fill="url(#paint6_linear)"/>
<path d="M208.45 121.464C206.727 120.637 205.258 119.91 205.187 119.85C205.116 119.789 205.228 119.533 205.438 119.281C205.648 119.028 207.468 119.602 209.481 120.555C213.294 122.361 214.987 122.737 215.66 121.927C215.879 121.664 216.02 119.513 215.973 117.148C215.87 111.961 216.618 112.116 216.983 117.358C217.415 123.569 215.131 124.668 208.45 121.464Z" fill="url(#paint7_linear)"/>
<path d="M57.8185 63.3376C58.1093 63.2738 58.3276 63.4356 58.4734 63.823C58.5105 64.0123 58.4235 64.2226 58.2122 64.4539L58.0445 64.4907C57.7314 64.5593 57.5355 64.3926 57.4567 63.9905C57.4743 63.6042 57.5949 63.3866 57.8185 63.3376ZM58.4053 65.7067C58.797 65.6825 59.0203 66.2565 59.0751 67.4286C59.124 68.3923 59.4087 69.9643 59.9292 72.1444C59.8287 72.5241 59.6397 72.7198 59.362 72.7313C59.0397 72.7526 58.7964 72.1954 58.6321 71.0596C58.225 69.1013 57.9979 67.4366 57.9508 66.0654C57.9384 65.8831 58.0899 65.7635 58.4053 65.7067Z" fill="url(#paint8_linear)"/>
<path d="M62.9327 65.0657C64.0806 64.9127 64.8206 66.2491 65.1528 69.075L65.328 70.6833C65.3444 71.1237 65.1881 71.3677 64.8592 71.4151C64.5527 71.4576 64.3768 71.2742 64.3315 70.8647L64.1117 69.1182C63.8719 67.0615 63.5026 66.0694 63.0036 66.1418C62.4688 66.2097 62.295 67.3456 62.482 69.5495L62.9245 71.4507C62.9508 71.704 62.7862 71.8758 62.4307 71.966C62.0101 72.0212 61.7307 71.4288 61.5926 70.1886L60.394 66.2143C60.363 65.9374 60.5409 65.7442 60.9276 65.6348C61.1647 65.5951 61.3567 65.8306 61.5034 66.3412L61.5739 66.3442C61.9473 65.5716 62.4002 65.1454 62.9327 65.0657Z" fill="url(#paint9_linear)"/>
<path d="M65.174 54.9902C65.5318 54.9117 65.912 56.0187 66.3146 58.311C66.726 60.5891 67.0245 62.2012 67.2099 63.1474L67.2434 63.14L68.2184 62.7597C68.552 62.7359 68.7477 62.8719 68.8057 63.1675C68.8845 63.5696 68.5716 63.8479 67.8672 64.0024L67.4624 64.2576L68.778 70.1674C68.8121 70.5793 68.6782 70.8184 68.3763 70.8846C68.0184 70.963 67.7851 70.7243 67.6761 70.1685L67.4015 68.767L66.5927 64.8183L66.4909 64.6556L65.7633 64.8707C65.4363 64.8683 65.2439 64.7193 65.1859 64.4237C65.1141 64.0571 65.4639 63.7892 66.2354 63.62L66.2215 63.5491C65.9249 62.0352 65.4292 59.3871 64.7346 55.6046C64.6767 55.3089 64.8231 55.1041 65.174 54.9902Z" fill="url(#paint10_linear)"/>
<path d="M69.7431 62.6845C70.045 62.6183 70.3495 62.9524 70.6567 63.6868L70.707 63.6758C71.0276 63.0504 71.4339 62.6838 71.9259 62.576C72.7611 62.5532 73.2158 62.7311 73.2899 63.1095C73.2542 63.4627 73.1133 63.6663 72.8673 63.7202L72.1883 63.6471L72.0206 63.6839C71.3863 63.9586 71.3381 65.4678 71.8758 68.2116L72.0392 69.0454C72.0439 69.4268 71.9233 69.6444 71.6773 69.6983C71.3195 69.7768 71.0966 69.5913 71.0085 69.1419L70.6052 67.084C70.3086 65.5702 69.8701 64.2848 69.2898 63.2279C69.3236 62.9245 69.4747 62.7433 69.7431 62.6845Z" fill="url(#paint11_linear)"/>
<path d="M75.8786 62.394C76.912 62.5498 77.641 63.5618 78.0654 65.43L78.0862 65.5364C78.3498 67.1192 78.1529 68.1676 77.4956 68.6818L77.0399 68.8557C75.7832 68.8105 74.9985 67.9896 74.6856 66.393L74.6751 66.3398C74.3368 64.6131 74.6363 63.3447 75.5738 62.5348L75.8786 62.394ZM75.6334 65.9632L75.7099 66.3534C76.0508 67.4382 76.4839 67.9229 77.0095 67.8077C77.2418 67.3867 77.2584 66.6677 77.059 65.6506L77.0382 65.5442C76.7343 64.291 76.4086 63.6408 76.0612 63.5936C75.5442 63.9906 75.4016 64.7805 75.6334 65.9632Z" fill="url(#paint12_linear)"/>
<path d="M79.6208 52.2115C79.7549 52.182 79.9212 52.2566 80.1194 52.4352L80.3801 53.7657C81.1496 57.6921 82.2847 61.8776 83.7854 66.3222L84.3671 67.4158C84.3468 67.7286 84.2024 67.9145 83.9341 67.9733C83.5874 68.0493 83.2545 67.6597 82.9354 66.8046L82.8179 66.8303C82.483 67.3231 82.1143 67.6137 81.7118 67.7019C80.7949 67.9029 79.99 67.4256 79.2971 66.2701C79.0706 65.888 78.9017 65.4131 78.7905 64.8455C78.5263 63.4972 78.7681 62.4698 79.5159 61.7631L79.8779 61.6467L79.9282 61.6357C80.2637 61.5621 80.6987 61.6395 81.2332 61.8676L81.3003 61.8529L81.2898 61.7997C80.4459 58.8024 79.8339 56.3339 79.4538 54.3943L79.2209 53.2057C79.1073 52.6262 79.2406 52.2948 79.6208 52.2115ZM79.7864 64.5716L79.8663 64.9796C80.0378 65.8548 80.4637 66.4213 81.144 66.6793L81.5032 66.6375C82.0399 66.5198 82.1993 65.9052 81.9815 64.7934L81.8841 64.2967C81.6871 63.2915 81.0712 62.7666 80.0362 62.7221C79.6935 63.0563 79.6102 63.6728 79.7864 64.5716Z" fill="url(#paint13_linear)"/>
<path d="M87.201 60.0967C87.5588 60.0183 87.8188 60.393 87.9811 61.2209C88.1665 62.167 88.4528 63.3007 88.84 64.622C89.2303 64.7091 89.4486 64.8709 89.4949 65.1075L89.5088 65.1784C89.5668 65.4741 89.4126 65.6991 89.0463 65.8534C88.8004 65.9073 88.5392 65.7055 88.263 65.248C87.9208 66.0015 87.5261 66.4272 87.0789 66.5252C86.0768 66.7079 85.3363 66.3214 84.8574 65.3656C84.5343 64.2523 84.2476 63.057 83.9973 61.7797L83.9312 61.4426C83.8501 61.0287 83.9885 60.7825 84.3463 60.7041C84.6035 60.6477 84.804 60.8381 84.948 61.2752L85.0036 61.5591C85.3316 64.4229 85.9469 65.688 86.8494 65.3544C87.3787 64.782 87.5849 64.1385 87.4682 63.424L87.3709 62.9273L86.8533 61.3571L86.8185 61.1797C86.6933 60.5411 86.8208 60.1801 87.201 60.0967Z" fill="url(#paint14_linear)"/>
<path d="M91.5412 58.0536C91.8207 57.9923 92.0288 58.3105 92.1656 59.0083L92.612 60.4831C92.663 60.7433 92.5065 60.9565 92.1426 61.1226C91.9078 61.1741 91.5004 60.7021 90.9205 59.7068L90.8563 59.6469L90.7389 59.6726C90.3028 59.7682 90.1855 60.4785 90.3868 61.8036L90.439 62.0697C90.7009 63.4061 91.2631 64.1031 92.1257 64.1607L92.4444 64.0908C92.791 64.0148 93.2528 63.5743 93.8298 62.7694L93.9472 62.7437L93.9402 62.7082C94.3077 62.7387 94.5216 62.9076 94.5818 63.2151C94.4285 63.7421 93.9865 64.2831 93.2556 64.8381L92.4922 65.2274C91.4411 65.4579 90.5195 64.7718 89.7273 63.1693L89.439 62.2334L89.4181 62.1269C89.0635 60.3175 89.3728 59.158 90.3458 58.6487L90.4968 58.6156L91.0271 58.5548C91.135 58.2721 91.3064 58.105 91.5412 58.0536Z" fill="url(#paint15_linear)"/>
<path d="M94.1228 48.6435C94.4806 48.5651 94.8608 49.6721 95.2634 51.9644C95.6748 54.2425 95.9732 55.8546 96.1586 56.8007L96.1922 56.7934L97.1672 56.4131C97.5008 56.3893 97.6965 56.5252 97.7544 56.8209C97.8332 57.223 97.5204 57.5013 96.816 57.6557L96.4112 57.911L97.7268 63.8208C97.7608 64.2327 97.6269 64.4718 97.325 64.5379C96.9672 64.6164 96.7339 64.3777 96.6249 63.8218L96.3503 62.4204L95.5415 58.4717L95.4396 58.309L94.7121 58.524C94.3851 58.5217 94.1926 58.3727 94.1347 58.077C94.0629 57.7104 94.4127 57.4425 95.1842 57.2734L95.1703 57.2024C94.8736 55.6886 94.378 53.0404 93.6834 49.2579C93.6255 48.9623 93.7719 48.7575 94.1228 48.6435Z" fill="url(#paint16_linear)"/>
<path d="M99.1116 54.2846C99.4024 54.2209 99.6207 54.3827 99.7665 54.7701C99.8036 54.9593 99.7166 55.1696 99.5053 55.4009L99.3376 55.4377C99.0245 55.5063 98.8286 55.3396 98.7498 54.9375C98.7674 54.5513 98.888 54.3336 99.1116 54.2846ZM99.6984 56.6538C100.09 56.6295 100.313 57.2035 100.368 58.3756C100.417 59.3394 100.702 60.9113 101.222 63.0914C101.122 63.4712 100.933 63.6668 100.655 63.6783C100.333 63.6997 100.089 63.1425 99.9252 62.0067C99.5181 60.0483 99.291 58.3836 99.2439 57.0124C99.2315 56.8301 99.383 56.7106 99.6984 56.6538Z" fill="url(#paint17_linear)"/>
<path d="M103.318 56.3783C104.351 56.5341 105.08 57.5461 105.505 59.4143L105.526 59.5207C105.789 61.1035 105.592 62.1519 104.935 62.6661L104.479 62.84C103.223 62.7948 102.438 61.9739 102.125 60.3773L102.114 60.3241C101.776 58.5974 102.076 57.329 103.013 56.5191L103.318 56.3783ZM103.073 59.9475L103.149 60.3377C103.49 61.4225 103.923 61.9072 104.449 61.792C104.681 61.371 104.698 60.652 104.498 59.6349L104.477 59.5285C104.174 58.2753 103.848 57.6251 103.5 57.5779C102.984 57.9749 102.841 58.7648 103.073 59.9475Z" fill="url(#paint18_linear)"/>
<path d="M108.587 55.0567C109.734 54.9037 110.474 56.2401 110.807 59.066L110.982 60.6743C110.998 61.1147 110.842 61.3587 110.513 61.4061C110.207 61.4486 110.031 61.2652 109.985 60.8557L109.766 59.1092C109.526 57.0525 109.156 56.0604 108.658 56.1328C108.123 56.2007 107.949 57.3366 108.136 59.5405L108.578 61.4417C108.605 61.695 108.44 61.8668 108.085 61.957C107.664 62.0122 107.385 61.4198 107.246 60.1795L106.048 56.2053C106.017 55.9284 106.195 55.7352 106.581 55.6258C106.819 55.5861 107.011 55.8216 107.157 56.3322L107.228 56.3352C107.601 55.5626 108.054 55.1364 108.587 55.0567Z" fill="url(#paint19_linear)"/>
<path d="M59.9815 124.598C61.1334 124.538 62.1601 125.457 63.0617 127.356L63.3576 128.538C63.4266 129.997 62.5661 130.901 60.7761 131.25L60.6563 131.256C60.2458 131.278 59.8697 131.183 59.5281 130.971L59.357 130.98C59.7641 135.965 60.0082 139.314 60.0891 141.027C60.0064 141.455 59.8339 141.676 59.5716 141.69C59.2067 141.709 59.0096 141.411 58.9806 140.796L58.9694 140.56C58.8816 138.703 58.6658 135.467 58.322 130.854C58.0769 128.811 57.9283 127.241 57.8764 126.143L57.8585 125.763C57.8294 125.148 57.9917 124.831 58.3452 124.812L58.5847 124.799C58.7963 124.921 58.9069 125.085 58.9166 125.29C59.2639 124.896 59.523 124.695 59.6941 124.686L59.9815 124.598ZM59.4751 127.673C59.3502 129.384 59.6926 130.219 60.5024 130.176L60.7761 130.162C61.6999 130.113 62.22 129.626 62.3363 128.701L62.3286 128.538C62.2904 127.729 61.8519 126.918 61.0131 126.104C60.6675 125.808 60.3579 125.667 60.0842 125.681C59.7067 125.677 59.5036 126.341 59.4751 127.673Z" fill="url(#paint20_linear)"/>
<path d="M64.1968 123.795C64.5047 123.779 64.757 124.159 64.9538 124.934L65.0051 124.931C65.4128 124.366 65.8676 124.07 66.3694 124.043C67.198 124.156 67.6214 124.406 67.6396 124.792C67.5529 125.135 67.3841 125.314 67.1332 125.327L66.4729 125.144L66.3018 125.153C65.6352 125.321 65.368 126.805 65.5003 129.603L65.5405 130.454C65.4897 130.831 65.3389 131.027 65.088 131.04C64.723 131.059 64.5297 130.84 64.5081 130.382L64.4089 128.283C64.3359 126.738 64.0895 125.397 63.6699 124.258C63.7474 123.964 63.9231 123.81 64.1968 123.795Z" fill="url(#paint21_linear)"/>
<path d="M69.9149 124.309C70.5536 124.275 71.0157 124.862 71.3014 126.068C71.0693 127.447 70.4914 128.16 69.5676 128.209L69.4991 128.213L69.5017 128.267C69.7361 129.355 70.2467 129.879 71.0336 129.837C71.6381 129.805 72.1026 129.23 72.4271 128.113L72.7957 127.93C73.0466 127.917 73.216 128.113 73.3038 128.52C73.3391 129.268 72.8194 130.003 71.7444 130.724L70.931 130.931C69.9502 130.983 69.1795 130.28 68.619 128.822C68.4542 128.238 68.3626 127.753 68.3444 127.367L68.3333 127.132C68.2751 125.901 68.7177 124.983 69.6608 124.377L69.9149 124.309ZM69.3897 126.622L69.3914 126.659L69.7874 127.055C69.9585 127.046 70.1065 126.79 70.2313 126.288L70.2177 125.998C70.143 125.627 70.06 125.444 69.9688 125.449L69.8661 125.454C69.695 125.463 69.5362 125.853 69.3897 126.622Z" fill="url(#paint22_linear)"/>
<path d="M76.4559 123.727C77.6078 123.667 78.6345 124.586 79.536 126.485L79.832 127.667C79.9009 129.126 79.0404 130.03 77.2504 130.379L77.1307 130.385C76.7201 130.407 76.344 130.312 76.0025 130.1L75.8314 130.109C76.2385 135.094 76.4825 138.443 76.5635 140.156C76.4808 140.584 76.3083 140.805 76.046 140.819C75.681 140.838 75.484 140.54 75.4549 139.925L75.4438 139.689C75.356 137.832 75.1402 134.596 74.7964 129.983C74.5512 127.94 74.4027 126.369 74.3508 125.272L74.3328 124.892C74.3038 124.277 74.466 123.96 74.8196 123.941L75.0591 123.928C75.2706 124.05 75.3812 124.214 75.3909 124.419C75.7382 124.025 75.9974 123.824 76.1685 123.815L76.4559 123.727ZM75.9495 126.802C75.8246 128.513 76.167 129.348 76.9767 129.305L77.2504 129.291C78.1742 129.242 78.6943 128.755 78.8106 127.829L78.803 127.667C78.7648 126.858 78.3262 126.047 77.4874 125.233C77.1419 124.937 76.8322 124.796 76.5585 124.81C76.181 124.806 75.978 125.47 75.9495 126.802Z" fill="url(#paint23_linear)"/>
<path d="M83.3116 124L84.3466 124.126L84.3441 124.072C84.595 124.059 84.7988 124.26 84.9556 124.675L84.9582 125.817L84.9958 126.614C85.0511 127.784 85.2521 128.65 85.5988 129.212C85.5218 129.518 85.3522 129.678 85.0899 129.692C84.7135 129.712 84.4181 129.268 84.2037 128.361L84.1558 128.073L84.0019 128.081C83.6397 129.128 83.0903 129.84 82.3535 130.218L82.1004 130.304C81.1059 130.066 80.5795 129.332 80.5214 128.102L80.5162 127.993C80.4438 126.461 81.0877 125.206 82.4477 124.227L83.3116 124ZM81.5589 128.283C81.6673 128.882 81.864 129.174 82.1491 129.159L82.2004 129.156C82.5996 129.135 83.1667 127.829 83.9018 125.238L83.8992 125.184L83.398 125.102L83.3638 125.104C82.4514 125.152 81.8407 126.019 81.5316 127.704L81.5589 128.283Z" fill="url(#paint24_linear)"/>
<path d="M86.1797 122.633C86.4876 122.617 86.7399 122.996 86.9367 123.772L86.988 123.769C87.3957 123.203 87.8505 122.907 88.3523 122.881C89.1809 122.994 89.6043 123.244 89.6225 123.63C89.5358 123.973 89.367 124.151 89.1161 124.165L88.4558 123.982L88.2847 123.991C87.6181 124.159 87.3509 125.643 87.4832 128.441L87.5234 129.292C87.4726 129.669 87.3218 129.865 87.0709 129.878C86.7059 129.897 86.5126 129.678 86.491 129.219L86.3918 127.12C86.3188 125.576 86.0725 124.235 85.6528 123.096C85.7303 122.802 85.906 122.647 86.1797 122.633Z" fill="url(#paint25_linear)"/>
<path d="M93.097 123.482L94.132 123.609L94.1294 123.555C94.3803 123.542 94.5842 123.742 94.741 124.157L94.7436 125.3L94.7812 126.096C94.8365 127.266 95.0375 128.132 95.3842 128.695C95.3072 129.001 95.1376 129.161 94.8753 129.175C94.4989 129.195 94.2035 128.751 93.9891 127.843L93.9412 127.556L93.7872 127.564C93.4251 128.611 92.8757 129.323 92.1389 129.701L91.8857 129.787C90.8912 129.549 90.3649 128.815 90.3068 127.584L90.3016 127.476C90.2292 125.944 90.8731 124.688 92.2331 123.71L93.097 123.482ZM91.3443 127.765C91.4527 128.364 91.6494 128.656 91.9345 128.641L91.9858 128.638C92.385 128.617 92.9521 127.312 93.6872 124.721L93.6846 124.667L93.1834 124.584L93.1492 124.586C92.2368 124.634 91.626 125.501 91.317 127.186L91.3443 127.765Z" fill="url(#paint26_linear)"/>
<path d="M96.9488 113.538C97.3138 113.518 97.5285 114.674 97.5929 117.005C97.6681 119.323 97.7286 120.964 97.7742 121.929L97.8084 121.927L98.8271 121.71C99.1601 121.741 99.3338 121.907 99.348 122.209C99.3674 122.619 99.0179 122.843 98.2994 122.881L97.8623 123.067L98.3027 129.121C98.2765 129.533 98.1094 129.748 97.8015 129.764C97.4365 129.783 97.2406 129.509 97.2138 128.942L97.1463 127.513L96.9214 123.48L96.8444 123.302L96.0942 123.397C95.7715 123.341 95.603 123.162 95.5887 122.861C95.571 122.487 95.9557 122.279 96.7426 122.238L96.7392 122.165C96.6662 120.621 96.5616 117.924 96.4253 114.073C96.4111 113.772 96.5856 113.593 96.9488 113.538Z" fill="url(#paint27_linear)"/>
<path d="M101.058 119.923C101.354 119.908 101.547 120.103 101.634 120.51C101.644 120.703 101.527 120.896 101.285 121.09L101.114 121.099C100.794 121.116 100.625 120.92 100.605 120.51C100.679 120.131 100.83 119.935 101.058 119.923ZM101.293 122.36C101.684 122.4 101.821 123.003 101.705 124.17C101.613 125.13 101.665 126.73 101.863 128.969C101.708 129.328 101.493 129.49 101.217 129.456C100.895 129.425 100.736 128.835 100.739 127.686C100.621 125.685 100.639 124.003 100.792 122.64C100.806 122.458 100.973 122.365 101.293 122.36Z" fill="url(#paint28_linear)"/>
<path d="M104.91 122.676C105.908 122.999 106.481 124.117 106.629 126.032L106.634 126.141C106.664 127.747 106.317 128.751 105.593 129.152L105.117 129.25C103.882 129.001 103.226 128.062 103.149 126.434L103.147 126.379C103.063 124.618 103.544 123.414 104.588 122.766L104.91 122.676ZM104.148 126.163L104.167 126.561C104.346 127.689 104.704 128.238 105.24 128.21C105.531 127.832 105.651 127.124 105.602 126.086L105.597 125.978C105.479 124.69 105.252 123.995 104.916 123.892C104.347 124.2 104.091 124.957 104.148 126.163Z" fill="url(#paint29_linear)"/>
<path d="M110.308 122.228C111.464 122.263 112.001 123.704 111.918 126.551L111.858 128.168C111.81 128.606 111.62 128.822 111.288 128.815C110.979 128.807 110.832 128.597 110.847 128.185L110.883 126.424C110.946 124.353 110.725 123.312 110.221 123.303C109.683 123.283 109.346 124.377 109.21 126.585L109.371 128.536C109.36 128.79 109.173 128.933 108.808 128.964C108.385 128.95 108.195 128.32 108.239 127.072L107.632 122.95C107.642 122.671 107.846 122.509 108.244 122.464C108.484 122.463 108.639 122.727 108.71 123.256L108.779 123.27C109.261 122.567 109.77 122.22 110.308 122.228Z" fill="url(#paint30_linear)"/>
<path d="M131.69 162.908C132.842 162.847 133.868 163.766 134.77 165.666L135.066 166.847C135.135 168.307 134.274 169.211 132.484 169.56L132.365 169.566C131.954 169.588 131.578 169.493 131.236 169.281L131.065 169.29C131.472 174.275 131.716 177.624 131.797 179.337C131.715 179.765 131.542 179.985 131.28 179.999C130.915 180.018 130.718 179.72 130.689 179.105L130.678 178.87C130.59 177.012 130.374 173.777 130.03 169.163C129.785 167.12 129.637 165.55 129.585 164.452L129.567 164.072C129.538 163.457 129.7 163.14 130.053 163.121L130.293 163.109C130.505 163.231 130.615 163.394 130.625 163.599C130.972 163.206 131.231 163.005 131.402 162.996L131.69 162.908ZM131.183 165.982C131.058 167.694 131.401 168.528 132.211 168.486L132.484 168.471C133.408 168.422 133.928 167.935 134.045 167.01L134.037 166.847C133.999 166.039 133.56 165.228 132.721 164.413C132.376 164.117 132.066 163.976 131.792 163.991C131.415 163.987 131.212 164.65 131.183 165.982Z" fill="url(#paint31_linear)"/>
<path d="M135.905 162.105C136.213 162.088 136.465 162.468 136.662 163.244L136.713 163.241C137.121 162.675 137.576 162.379 138.078 162.353C138.906 162.466 139.33 162.716 139.348 163.102C139.261 163.445 139.092 163.623 138.841 163.636L138.181 163.454L138.01 163.463C137.343 163.631 137.076 165.114 137.209 167.913L137.249 168.763C137.198 169.141 137.047 169.336 136.796 169.35C136.431 169.369 136.238 169.149 136.216 168.691L136.117 166.592C136.044 165.048 135.798 163.707 135.378 162.568C135.456 162.274 135.631 162.119 135.905 162.105Z" fill="url(#paint32_linear)"/>
<path d="M142.01 162.816C143.008 163.138 143.581 164.256 143.729 166.171L143.734 166.28C143.764 167.887 143.417 168.891 142.693 169.292L142.218 169.39C140.982 169.14 140.326 168.202 140.249 166.573L140.247 166.519C140.164 164.758 140.644 163.553 141.688 162.905L142.01 162.816ZM141.248 166.303L141.267 166.701C141.446 167.828 141.804 168.377 142.34 168.349C142.631 167.971 142.752 167.263 142.703 166.226L142.697 166.117C142.579 164.829 142.352 164.134 142.016 164.031C141.447 164.339 141.191 165.096 141.248 166.303Z" fill="url(#paint33_linear)"/>
<path d="M147.151 161.655C147.437 161.64 147.596 161.988 147.63 162.7L147.856 164.23C147.869 164.495 147.683 164.681 147.299 164.785C147.06 164.798 146.726 164.266 146.298 163.188L146.243 163.118L146.123 163.124C145.678 163.148 145.459 163.831 145.465 165.173L145.478 165.444C145.543 166.807 145.997 167.587 146.841 167.785L147.166 167.767C147.519 167.749 148.04 167.389 148.727 166.687L148.847 166.681L148.845 166.645C149.204 166.735 149.39 166.936 149.405 167.25C149.177 167.746 148.662 168.208 147.859 168.638L147.048 168.898C145.976 168.955 145.165 168.127 144.615 166.415L144.466 165.443L144.461 165.335C144.374 163.489 144.848 162.394 145.884 162.049L146.038 162.041L146.571 162.067C146.718 161.805 146.912 161.668 147.151 161.655Z" fill="url(#paint34_linear)"/>
<path d="M151.528 162.095C152.167 162.061 152.629 162.647 152.915 163.854C152.683 165.232 152.105 165.946 151.181 165.995L151.113 165.999L151.115 166.053C151.349 167.141 151.86 167.664 152.647 167.623C153.251 167.591 153.716 167.016 154.04 165.898L154.409 165.716C154.66 165.702 154.829 165.899 154.917 166.306C154.953 167.053 154.433 167.788 153.358 168.51L152.544 168.717C151.564 168.768 150.793 168.065 150.232 166.608C150.068 166.024 149.976 165.539 149.958 165.153L149.947 164.918C149.889 163.687 150.331 162.769 151.274 162.163L151.528 162.095ZM151.003 164.408L151.005 164.444L151.401 164.841C151.572 164.832 151.72 164.576 151.845 164.074L151.831 163.784C151.756 163.413 151.673 163.23 151.582 163.235L151.48 163.24C151.308 163.249 151.15 163.639 151.003 164.408Z" fill="url(#paint35_linear)"/>
<path d="M158.154 152.784C158.291 152.776 158.444 152.877 158.614 153.086L158.678 154.443C158.868 158.448 159.381 162.768 160.217 167.404L160.633 168.579C160.567 168.885 160.397 169.045 160.124 169.06C159.77 169.078 159.498 168.639 159.307 167.742L159.187 167.749C158.785 168.181 158.378 168.408 157.967 168.43C157.032 168.479 156.306 167.877 155.79 166.622C155.621 166.208 155.524 165.711 155.496 165.132C155.431 163.757 155.82 162.781 156.661 162.204L157.036 162.148L157.087 162.146C157.429 162.128 157.848 162.275 158.343 162.587L158.411 162.584L158.409 162.529C158.011 159.43 157.765 156.892 157.672 154.913L157.614 153.701C157.586 153.11 157.766 152.804 158.154 152.784ZM156.52 165.024L156.54 165.44C156.582 166.332 156.92 166.961 157.555 167.327L157.916 167.344C158.464 167.315 158.71 166.734 158.657 165.6L158.633 165.093C158.584 164.068 158.052 163.449 157.036 163.237C156.649 163.511 156.477 164.107 156.52 165.024Z" fill="url(#paint36_linear)"/>
<path d="M164.497 161.808C164.862 161.789 165.065 162.202 165.105 163.046C165.15 164.011 165.268 165.178 165.459 166.546C165.832 166.696 166.024 166.891 166.035 167.133L166.039 167.205C166.053 167.507 165.868 167.704 165.484 167.797C165.233 167.81 165.004 167.568 164.798 167.071C164.35 167.76 163.898 168.116 163.442 168.14C162.425 168.158 161.75 167.655 161.415 166.633C161.258 165.48 161.149 164.253 161.087 162.95L161.071 162.606C161.051 162.184 161.223 161.963 161.588 161.944C161.851 161.93 162.021 162.151 162.1 162.606L162.113 162.896C162.021 165.779 162.445 167.129 163.385 166.946C163.991 166.467 164.289 165.864 164.277 165.139L164.254 164.633L163.97 162.997L163.962 162.816C163.931 162.165 164.11 161.829 164.497 161.808Z" fill="url(#paint37_linear)"/>
<path d="M166.561 160.484C166.869 160.467 167.122 160.847 167.318 161.623L167.37 161.62C167.777 161.054 168.232 160.758 168.734 160.732C169.563 160.845 169.986 161.095 170.004 161.481C169.918 161.824 169.749 162.002 169.498 162.015L168.837 161.833L168.666 161.842C168 162.01 167.733 163.493 167.865 166.292L167.905 167.143C167.854 167.52 167.703 167.716 167.453 167.729C167.088 167.748 166.894 167.529 166.873 167.07L166.773 164.971C166.7 163.427 166.454 162.086 166.034 160.947C166.112 160.653 166.288 160.498 166.561 160.484Z" fill="url(#paint38_linear)"/>
<path d="M172.279 160.998C172.918 160.964 173.38 161.55 173.666 162.757C173.434 164.135 172.856 164.849 171.932 164.898L171.864 164.902L171.866 164.956C172.101 166.044 172.611 166.567 173.398 166.526C174.003 166.494 174.467 165.919 174.792 164.801L175.16 164.618C175.411 164.605 175.581 164.802 175.668 165.208C175.704 165.956 175.184 166.691 174.109 167.413L173.296 167.619C172.315 167.671 171.544 166.968 170.984 165.51C170.819 164.927 170.727 164.442 170.709 164.056L170.698 163.82C170.64 162.59 171.082 161.672 172.025 161.066L172.279 160.998ZM171.754 163.311L171.756 163.347L172.152 163.744C172.323 163.735 172.471 163.479 172.596 162.976L172.582 162.687C172.508 162.316 172.425 162.133 172.333 162.138L172.231 162.143C172.06 162.152 171.901 162.541 171.754 163.311Z" fill="url(#paint39_linear)"/>
<path d="M151.901 108.401C152.753 108.779 153.216 110.103 153.289 112.373C153.403 113.576 153.597 114.406 153.87 114.863L153.873 114.936C153.862 115.19 153.687 115.363 153.349 115.453C152.719 115.426 152.322 113.802 152.158 110.582L151.879 109.762L151.673 109.755C151.309 110.27 151.115 110.885 151.091 111.6C151.048 112.134 151.072 112.998 151.162 114.19C151.007 114.525 150.814 114.686 150.585 114.674C150.194 114.634 149.981 113.86 149.944 112.35C149.666 110.829 149.407 110.062 149.166 110.051L149.063 110.056C148.726 110.183 148.539 110.574 148.501 111.229L148.838 114.73L148.832 114.966C148.811 115.234 148.62 115.425 148.259 115.541C147.686 115.511 147.387 113.416 147.362 109.258C147.384 109.002 147.553 108.824 147.868 108.723C148.194 108.839 148.355 108.981 148.352 109.151L148.403 109.148L149.167 108.981C149.557 109.008 149.96 109.314 150.376 109.896L150.411 109.913C150.908 109.052 151.405 108.548 151.901 108.401Z" fill="url(#paint40_linear)"/>
<path d="M155.26 105.811C155.556 105.795 155.748 105.99 155.836 106.397C155.845 106.59 155.729 106.784 155.486 106.978L155.315 106.987C154.996 107.004 154.827 106.807 154.807 106.397C154.881 106.018 155.032 105.823 155.26 105.811ZM155.495 108.247C155.886 108.287 156.023 108.89 155.906 110.057C155.815 111.018 155.867 112.617 156.065 114.856C155.91 115.215 155.695 115.377 155.419 115.344C155.097 115.312 154.938 114.722 154.941 113.573C154.823 111.572 154.841 109.89 154.994 108.528C155.008 108.345 155.175 108.252 155.495 108.247Z" fill="url(#paint41_linear)"/>
<path d="M159.304 107.919C159.897 107.887 160.269 108.134 160.419 108.658C160.431 108.911 160.279 109.076 159.963 109.154L159.809 109.162C159.655 109.061 159.521 109.014 159.407 109.02L159.253 109.028C158.517 109.405 158.164 109.932 158.196 110.608L158.204 110.77C158.28 111.165 158.466 111.355 158.762 111.339L158.916 111.331L160.086 111.034C160.671 111.075 160.976 111.361 161.001 111.892C161.038 112.676 160.627 113.539 159.768 114.479C159.362 114.839 158.943 115.03 158.509 115.053C157.714 114.914 157.304 114.591 157.28 114.084C157.38 113.777 157.567 113.616 157.84 113.601L158.389 113.971L158.663 113.957C159.48 113.575 159.87 113.004 159.834 112.244L159.762 112.175C159.482 112.299 159.166 112.37 158.812 112.389C157.968 112.434 157.422 111.882 157.173 110.734C157.124 109.685 157.636 108.799 158.711 108.077L159.304 107.919Z" fill="url(#paint42_linear)"/>
<path d="M162.715 98.8136C163.08 98.7943 163.295 99.9499 163.359 102.281C163.434 104.598 163.495 106.24 163.541 107.205L163.575 107.203L164.593 106.986C164.927 107.017 165.1 107.183 165.114 107.484C165.134 107.895 164.784 108.119 164.066 108.157L163.629 108.343L164.069 114.397C164.043 114.809 163.876 115.024 163.568 115.04C163.203 115.059 163.007 114.785 162.98 114.218L162.913 112.789L162.688 108.756L162.611 108.578L161.861 108.672C161.538 108.617 161.369 108.438 161.355 108.137C161.337 107.763 161.722 107.555 162.509 107.513L162.506 107.441C162.433 105.897 162.328 103.2 162.192 99.3492C162.177 99.0476 162.352 98.8691 162.715 98.8136Z" fill="url(#paint43_linear)"/>
<path d="M168.751 108.235L169.786 108.362L169.784 108.308C170.035 108.295 170.239 108.495 170.395 108.91L170.398 110.053L170.436 110.849C170.491 112.019 170.692 112.885 171.039 113.448C170.962 113.754 170.792 113.914 170.53 113.928C170.153 113.948 169.858 113.504 169.644 112.596L169.596 112.309L169.442 112.317C169.08 113.364 168.53 114.076 167.793 114.454L167.54 114.54C166.546 114.302 166.019 113.568 165.961 112.337L165.956 112.229C165.884 110.697 166.527 109.441 167.887 108.463L168.751 108.235ZM166.999 112.518C167.107 113.117 167.304 113.409 167.589 113.394L167.64 113.391C168.039 113.37 168.607 112.065 169.342 109.474L169.339 109.42L168.838 109.337L168.804 109.339C167.891 109.387 167.28 110.254 166.971 111.939L166.999 112.518Z" fill="url(#paint44_linear)"/>
<path d="M171.903 95.4436C172.166 95.4418 172.313 95.6517 172.344 96.0733L172.325 97.4892L172.613 108.666L172.648 108.682C173.701 107.248 174.416 106.533 174.794 106.537L174.879 106.533C175.14 106.725 175.269 106.917 175.267 107.111C175.271 107.207 175 107.524 174.454 108.061C173.633 109.072 173.174 109.773 173.079 110.165C173.081 110.697 173.994 111.502 175.817 112.578C176.358 112.671 176.627 112.904 176.622 113.279C176.611 113.534 176.441 113.688 176.112 113.742C175.38 113.744 174.295 113.046 172.857 111.646L172.754 111.652C172.74 112.801 172.769 113.525 172.84 113.824C172.769 114.735 172.51 115.196 172.065 115.207C171.674 115.155 171.477 114.972 171.473 114.658L171.758 114.153L171.299 97.5435L171.3 96.1104C171.336 95.661 171.537 95.4388 171.903 95.4436Z" fill="url(#paint45_linear)"/>
<path d="M178.929 107.298C179.567 107.265 180.029 107.851 180.315 109.057C180.083 110.436 179.505 111.15 178.581 111.199L178.513 111.202L178.515 111.256C178.75 112.345 179.26 112.868 180.047 112.826C180.652 112.794 181.116 112.219 181.441 111.102L181.809 110.919C182.06 110.906 182.23 111.102 182.317 111.509C182.353 112.257 181.833 112.992 180.758 113.714L179.945 113.92C178.964 113.972 178.193 113.269 177.633 111.811C177.468 111.227 177.376 110.742 177.358 110.356L177.347 110.121C177.289 108.891 177.731 107.972 178.675 107.366L178.929 107.298ZM178.403 109.612L178.405 109.648L178.801 110.044C178.972 110.035 179.12 109.779 179.245 109.277L179.231 108.987C179.157 108.616 179.074 108.433 178.982 108.438L178.88 108.444C178.709 108.453 178.55 108.842 178.403 109.612Z" fill="url(#paint46_linear)"/>
<path d="M185.016 106.559C185.609 106.528 185.981 106.774 186.132 107.298C186.144 107.552 185.991 107.717 185.675 107.794L185.521 107.802C185.367 107.702 185.234 107.654 185.12 107.66L184.966 107.668C184.229 108.046 183.877 108.573 183.908 109.248L183.916 109.411C183.992 109.806 184.178 109.996 184.475 109.98L184.629 109.972L185.798 109.674C186.383 109.716 186.688 110.002 186.713 110.533C186.75 111.317 186.339 112.179 185.481 113.119C185.075 113.479 184.655 113.671 184.221 113.694C183.426 113.555 183.016 113.232 182.992 112.725C183.092 112.417 183.279 112.256 183.553 112.242L184.102 112.612L184.375 112.597C185.192 112.216 185.582 111.645 185.546 110.885L185.475 110.816C185.195 110.94 184.878 111.011 184.524 111.029C183.68 111.074 183.134 110.522 182.885 109.375C182.836 108.325 183.349 107.439 184.423 106.718L185.016 106.559Z" fill="url(#paint47_linear)"/>
<path d="M199.695 132.713C200.568 133.033 201.11 134.324 201.319 136.584C201.505 137.777 201.748 138.592 202.048 139.03L202.056 139.102C202.061 139.357 201.897 139.541 201.564 139.654C200.934 139.669 200.44 138.076 200.083 134.873L199.755 134.074L199.549 134.08C199.216 134.619 199.06 135.246 199.079 135.961C199.068 136.497 199.144 137.357 199.306 138.541C199.171 138.885 198.989 139.059 198.759 139.063C198.367 139.049 198.107 138.29 197.979 136.786C197.61 135.287 197.306 134.54 197.065 134.544L196.963 134.557C196.634 134.706 196.47 135.108 196.472 135.765L197.019 139.236L197.028 139.472C197.022 139.74 196.843 139.944 196.49 140.084C195.916 140.093 195.492 138.023 195.217 133.874C195.224 133.618 195.381 133.429 195.69 133.306C196.022 133.4 196.191 133.531 196.198 133.701L196.249 133.695L197.001 133.476C197.392 133.478 197.813 133.755 198.263 134.309L198.299 134.322C198.743 133.43 199.208 132.894 199.695 132.713Z" fill="url(#paint48_linear)"/>
<path d="M204.178 132.719C205.193 132.974 205.833 134.051 206.095 135.952L206.107 136.06C206.234 137.662 205.948 138.687 205.249 139.136L204.78 139.266C203.533 139.1 202.822 138.208 202.647 136.588L202.641 136.534C202.452 134.782 202.859 133.547 203.862 132.83L204.178 132.719ZM203.628 136.25L203.67 136.646C203.917 137.759 204.307 138.284 204.84 138.219C205.107 137.822 205.185 137.108 205.074 136.076L205.062 135.968C204.867 134.691 204.599 134.012 204.257 133.932C203.708 134.277 203.498 135.05 203.628 136.25Z" fill="url(#paint49_linear)"/>
<path d="M206.722 131.373C207.028 131.336 207.303 131.698 207.546 132.459L207.597 132.453C207.97 131.86 208.406 131.534 208.905 131.474C209.739 131.531 210.176 131.752 210.218 132.136C210.152 132.485 209.994 132.674 209.744 132.704L209.074 132.566L208.904 132.586C208.249 132.799 208.072 134.298 208.372 137.082L208.463 137.928C208.435 138.308 208.297 138.513 208.047 138.543C207.684 138.587 207.478 138.381 207.429 137.925L207.203 135.837C207.038 134.301 206.711 132.979 206.224 131.871C206.283 131.572 206.449 131.406 206.722 131.373Z" fill="url(#paint50_linear)"/>
<path d="M212.459 131.501C213.094 131.424 213.591 131.978 213.949 133.163C213.8 134.554 213.266 135.306 212.347 135.417L212.279 135.425L212.285 135.479C212.584 136.549 213.125 137.037 213.908 136.942C214.51 136.87 214.938 136.265 215.195 135.128L215.552 134.92C215.802 134.89 215.982 135.075 216.095 135.475C216.175 136.219 215.7 136.987 214.671 137.78L213.872 138.041C212.896 138.159 212.084 137.509 211.437 136.092C211.238 135.52 211.117 135.042 211.076 134.658L211.051 134.424C210.919 133.2 211.305 132.254 212.21 131.586L212.459 131.501ZM212.074 133.845L212.078 133.881L212.497 134.25C212.667 134.229 212.8 133.964 212.894 133.454L212.863 133.166C212.766 132.801 212.672 132.624 212.581 132.635L212.479 132.647C212.309 132.668 212.174 133.067 212.074 133.845Z" fill="url(#paint51_linear)"/>
<path d="M223.309 129.954C224.454 129.816 225.534 130.664 226.548 132.499L226.915 133.658C227.071 135.11 226.267 136.071 224.502 136.539L224.383 136.553C223.974 136.603 223.593 136.533 223.239 136.345L223.069 136.365C223.775 141.313 224.221 144.639 224.404 146.343C224.348 146.775 224.189 147.007 223.928 147.038C223.565 147.082 223.35 146.798 223.284 146.186L223.259 145.952C223.059 144.104 222.649 140.89 222.029 136.309C221.661 134.286 221.418 132.729 221.301 131.637L221.26 131.259C221.194 130.647 221.337 130.32 221.688 130.278L221.927 130.249C222.145 130.356 222.265 130.512 222.287 130.716C222.61 130.3 222.857 130.082 223.027 130.061L223.309 129.954ZM222.988 133.056C222.966 134.773 223.358 135.583 224.164 135.486L224.436 135.453C225.355 135.342 225.845 134.821 225.905 133.89L225.888 133.728C225.801 132.924 225.315 132.143 224.429 131.387C224.066 131.115 223.748 130.995 223.476 131.028C223.099 131.049 222.936 131.725 222.988 133.056Z" fill="url(#paint52_linear)"/>
<path d="M227.467 128.869C227.773 128.832 228.048 129.194 228.291 129.955L228.342 129.949C228.715 129.356 229.151 129.03 229.65 128.97C230.484 129.027 230.921 129.248 230.963 129.632C230.897 129.981 230.739 130.17 230.49 130.2L229.82 130.062L229.649 130.082C228.994 130.295 228.817 131.794 229.117 134.578L229.209 135.424C229.181 135.804 229.042 136.009 228.792 136.039C228.429 136.083 228.223 135.877 228.174 135.421L227.949 133.333C227.783 131.797 227.456 130.475 226.969 129.367C227.029 129.068 227.195 128.902 227.467 128.869Z" fill="url(#paint53_linear)"/>
<path d="M233.602 129.168C234.618 129.422 235.257 130.5 235.52 132.401L235.531 132.509C235.658 134.11 235.372 135.136 234.674 135.585L234.205 135.714C232.957 135.549 232.246 134.656 232.071 133.036L232.065 132.982C231.876 131.23 232.283 129.995 233.286 129.279L233.602 129.168ZM233.052 132.699L233.095 133.095C233.341 134.208 233.731 134.732 234.264 134.668C234.532 134.271 234.61 133.556 234.499 132.524L234.487 132.416C234.292 131.139 234.023 130.46 233.681 130.38C233.132 130.726 232.923 131.499 233.052 132.699Z" fill="url(#paint54_linear)"/>
<path d="M238.663 127.663C238.947 127.629 239.127 127.966 239.203 128.674L239.522 130.186C239.55 130.45 239.376 130.647 238.999 130.777C238.761 130.806 238.396 130.297 237.904 129.25L237.845 129.184L237.726 129.199C237.283 129.252 237.106 129.948 237.193 131.287L237.222 131.557C237.368 132.913 237.868 133.661 238.722 133.801L239.046 133.762C239.397 133.72 239.895 133.325 240.539 132.579L240.658 132.565L240.654 132.529C241.017 132.594 241.216 132.783 241.249 133.095C241.051 133.605 240.565 134.102 239.789 134.584L238.996 134.899C237.929 135.028 237.07 134.256 236.419 132.584L236.212 131.624L236.2 131.516C236.002 129.68 236.409 128.555 237.422 128.141L237.575 128.123L238.109 128.113C238.24 127.842 238.425 127.692 238.663 127.663Z" fill="url(#paint55_linear)"/>
<path d="M243.058 127.808C243.693 127.731 244.19 128.285 244.547 129.469C244.399 130.861 243.865 131.612 242.946 131.723L242.878 131.732L242.884 131.786C243.183 132.856 243.724 133.343 244.507 133.249C245.108 133.176 245.537 132.571 245.794 131.434L246.151 131.227C246.4 131.197 246.581 131.382 246.693 131.782C246.774 132.526 246.299 133.294 245.27 134.087L244.47 134.347C243.495 134.465 242.683 133.816 242.036 132.398C241.837 131.827 241.716 131.349 241.675 130.965L241.649 130.731C241.517 129.507 241.904 128.561 242.808 127.892L243.058 127.808ZM242.673 130.152L242.677 130.188L243.096 130.556C243.266 130.536 243.398 130.271 243.493 129.761L243.462 129.473C243.365 129.108 243.271 128.931 243.18 128.942L243.078 128.954C242.908 128.974 242.773 129.374 242.673 130.152Z" fill="url(#paint56_linear)"/>
<path d="M249.11 118.069C249.246 118.053 249.405 118.143 249.587 118.34L249.733 119.69C250.163 123.674 250.935 127.951 252.048 132.521L252.534 133.666C252.487 133.975 252.327 134.147 252.055 134.18C251.703 134.222 251.405 133.802 251.161 132.92L251.041 132.934C250.666 133.393 250.274 133.647 249.865 133.696C248.935 133.809 248.174 133.256 247.583 132.039C247.39 131.637 247.263 131.148 247.201 130.572C247.053 129.204 247.382 128.203 248.187 127.571L248.558 127.49L248.609 127.484C248.949 127.443 249.376 127.562 249.888 127.84L249.956 127.832L249.951 127.778C249.367 124.712 248.969 122.195 248.757 120.227L248.627 119.021C248.563 118.433 248.724 118.116 249.11 118.069ZM248.216 130.394L248.261 130.808C248.356 131.696 248.732 132.301 249.387 132.623L249.749 132.616C250.293 132.551 250.505 131.954 250.383 130.826L250.329 130.322C250.218 129.302 249.65 128.72 248.623 128.576C248.253 128.876 248.117 129.482 248.216 130.394Z" fill="url(#paint57_linear)"/>
<path d="M255.983 126.649C256.346 126.605 256.573 127.003 256.664 127.843C256.768 128.803 256.956 129.959 257.228 131.312C257.609 131.436 257.813 131.619 257.839 131.859L257.846 131.931C257.879 132.231 257.706 132.44 257.328 132.558C257.078 132.589 256.836 132.363 256.6 131.88C256.194 132.598 255.765 132.984 255.311 133.039C254.297 133.125 253.593 132.669 253.198 131.671C252.972 130.531 252.789 129.314 252.649 128.018L252.612 127.676C252.566 127.256 252.725 127.024 253.088 126.98C253.349 126.948 253.533 127.157 253.639 127.606L253.67 127.894C253.751 130.778 254.255 132.097 255.183 131.851C255.759 131.332 256.019 130.711 255.964 129.988L255.91 129.484L255.529 127.87L255.51 127.69C255.44 127.042 255.598 126.695 255.983 126.649Z" fill="url(#paint58_linear)"/>
<path d="M257.964 125.188C258.27 125.151 258.545 125.513 258.788 126.274L258.839 126.267C259.211 125.675 259.648 125.349 260.147 125.289C260.98 125.346 261.418 125.567 261.459 125.951C261.394 126.299 261.236 126.489 260.986 126.519L260.316 126.381L260.146 126.401C259.491 126.614 259.314 128.113 259.614 130.897L259.705 131.743C259.677 132.123 259.538 132.328 259.289 132.358C258.926 132.402 258.72 132.196 258.671 131.74L258.445 129.652C258.279 128.116 257.953 126.794 257.466 125.686C257.525 125.387 257.691 125.221 257.964 125.188Z" fill="url(#paint59_linear)"/>
<path d="M263.701 125.316C264.336 125.239 264.833 125.793 265.191 126.978C265.042 128.369 264.508 129.121 263.589 129.232L263.521 129.24L263.527 129.294C263.826 130.364 264.367 130.852 265.15 130.757C265.751 130.685 266.18 130.08 266.437 128.943L266.794 128.735C267.043 128.705 267.224 128.89 267.336 129.29C267.417 130.034 266.942 130.802 265.913 131.595L265.113 131.856C264.138 131.974 263.326 131.324 262.679 129.907C262.48 129.335 262.359 128.857 262.318 128.473L262.292 128.239C262.16 127.015 262.547 126.069 263.452 125.401L263.701 125.316ZM263.316 127.66L263.32 127.696L263.739 128.065C263.909 128.044 264.041 127.779 264.136 127.269L264.105 126.981C264.008 126.616 263.914 126.439 263.823 126.45L263.721 126.462C263.551 126.483 263.416 126.882 263.316 127.66Z" fill="url(#paint60_linear)"/>
<path d="M212.137 83.1843C212.439 83.1181 212.743 83.4523 213.05 84.1867L213.101 84.1756C213.421 83.5503 213.828 83.1837 214.32 83.0758C215.155 83.0531 215.609 83.2309 215.684 83.6094C215.648 83.9626 215.507 84.1662 215.261 84.2201L214.582 84.1469L214.414 84.1837C213.78 84.4584 213.732 85.9677 214.27 88.7115L214.433 89.5453C214.438 89.9266 214.317 90.1442 214.071 90.1982C213.713 90.2766 213.49 90.0911 213.402 89.6417L212.999 87.5839C212.702 86.07 212.264 84.7847 211.684 83.7278C211.717 83.4243 211.868 83.2432 212.137 83.1843Z" fill="url(#paint61_linear)"/>
<path d="M217.862 82.7618C218.488 82.6246 219.03 83.1287 219.487 84.2741C219.459 85.6743 218.991 86.4736 218.086 86.6722L218.019 86.6869L218.029 86.7401C218.419 87.7771 218.999 88.2111 219.771 88.0419C220.364 87.912 220.739 87.2685 220.897 86.1113L221.235 85.8708C221.481 85.8169 221.677 85.9836 221.823 86.371C221.966 87.1042 221.56 87.915 220.602 88.8033L219.829 89.1394C218.867 89.3502 218.003 88.781 217.237 87.4317C216.99 86.8816 216.829 86.4174 216.755 86.0389L216.709 85.8083C216.473 84.602 216.777 83.6226 217.62 82.8702L217.862 82.7618ZM217.679 85.1331L217.686 85.1686L218.135 85.4957C218.303 85.459 218.412 85.1822 218.462 84.6654L218.406 84.3816C218.279 84.0272 218.17 83.8599 218.081 83.8795L217.98 83.9015C217.812 83.9383 217.712 84.3488 217.679 85.1331Z" fill="url(#paint62_linear)"/>
<path d="M223.769 81.0411C224.351 80.9136 224.754 81.0966 224.979 81.59C225.028 81.8384 224.901 82.0264 224.6 82.1542L224.449 82.1873C224.283 82.1127 224.144 82.0877 224.032 82.1122L223.881 82.1453C223.208 82.6383 222.936 83.2159 223.066 83.8782L223.097 84.0378C223.229 84.4158 223.441 84.573 223.732 84.5093L223.883 84.4762L224.995 83.9918C225.579 83.9378 225.922 84.1709 226.024 84.6913C226.175 85.46 225.894 86.3788 225.182 87.4476C224.833 87.8695 224.447 88.127 224.022 88.2201C223.215 88.2119 222.764 87.9594 222.666 87.4627C222.72 87.1425 222.881 86.953 223.15 86.8942L223.746 87.1704L224.014 87.1116C224.766 86.6015 225.068 85.9739 224.922 85.2288L224.841 85.1726C224.583 85.3403 224.28 85.4622 223.933 85.5382C223.106 85.7196 222.486 85.2634 222.073 84.1697C221.872 83.1408 222.249 82.1822 223.207 81.294L223.769 81.0411Z" fill="url(#paint63_linear)"/>
<path d="M229.561 80.6039C229.919 80.5255 230.179 80.9002 230.341 81.728C230.527 82.6742 230.813 83.8079 231.2 85.1292C231.59 85.2163 231.809 85.3781 231.855 85.6147L231.869 85.6856C231.927 85.9813 231.773 86.2063 231.407 86.3606C231.161 86.4145 230.899 86.2127 230.623 85.7552C230.281 86.5086 229.886 86.9344 229.439 87.0324C228.437 87.2151 227.696 86.8286 227.218 85.8728C226.895 84.7595 226.608 83.5642 226.357 82.2869L226.291 81.9498C226.21 81.5359 226.349 81.2897 226.706 81.2113C226.964 81.1549 227.164 81.3453 227.308 81.7824L227.364 82.0663C227.692 84.93 228.307 86.1952 229.21 85.8616C229.739 85.2892 229.945 84.6457 229.828 83.9312L229.731 83.4345L229.213 81.8643L229.179 81.6869C229.054 81.0482 229.181 80.6873 229.561 80.6039Z" fill="url(#paint64_linear)"/>
<path d="M230.43 70.2188C230.6 70.1938 230.785 70.3073 230.986 70.5593C230.934 70.7066 230.93 70.9541 230.975 71.302L231.003 71.5363L232.473 78.5038C233.038 81.6856 233.527 84.0022 233.94 85.4536L234.002 85.5881C233.945 85.8349 233.804 85.9769 233.578 86.0141C233.068 86.0889 232.723 85.3998 232.543 83.9467C232.323 83.1809 231.586 79.5988 230.332 73.2006C230.188 72.825 230.071 72.3142 229.979 71.6682L229.965 71.5973C229.857 70.7453 230.012 70.2858 230.43 70.2188Z" fill="url(#paint65_linear)"/>
<path d="M234.001 69.6949C234.358 69.6165 234.739 70.7235 235.141 73.0158C235.553 75.2939 235.851 76.906 236.037 77.8521L236.07 77.8448L237.045 77.4645C237.379 77.4407 237.574 77.5766 237.632 77.8723C237.711 78.2744 237.398 78.5527 236.694 78.7071L236.289 78.9624L237.605 84.8722C237.639 85.2841 237.505 85.5232 237.203 85.5893C236.845 85.6678 236.612 85.4291 236.503 84.8732L236.228 83.4718L235.419 79.5231L235.318 79.3604L234.59 79.5754C234.263 79.5731 234.071 79.4241 234.013 79.1284C233.941 78.7618 234.291 78.4939 235.062 78.3248L235.048 78.2538C234.752 76.74 234.256 74.0919 233.561 70.3093C233.503 70.0137 233.65 69.8089 234.001 69.6949Z" fill="url(#paint66_linear)"/>
<path d="M240.609 77.3493C241.19 77.2218 241.593 77.4048 241.818 77.8982C241.867 78.1466 241.74 78.3347 241.439 78.4624L241.288 78.4955C241.122 78.421 240.983 78.3959 240.871 78.4204L240.72 78.4535C240.047 78.9465 239.775 79.5241 239.905 80.1864L239.936 80.346C240.069 80.7241 240.28 80.8812 240.571 80.8175L240.722 80.7844L241.834 80.3C242.418 80.246 242.761 80.4791 242.863 80.9995C243.014 81.7682 242.733 82.687 242.021 83.7559C241.673 84.1777 241.286 84.4352 240.861 84.5284C240.055 84.5201 239.603 84.2676 239.505 83.7709C239.559 83.4507 239.72 83.2612 239.989 83.2024L240.585 83.4787L240.854 83.4198C241.605 82.9097 241.908 82.2821 241.762 81.5371L241.681 81.4808C241.422 81.6485 241.119 81.7704 240.773 81.8464C239.945 82.0278 239.325 81.5716 238.913 80.478C238.711 79.449 239.089 78.4905 240.046 77.6022L240.609 77.3493Z" fill="url(#paint67_linear)"/>
<path d="M249.99 76.1252L251.031 76.082L251.02 76.0288C251.266 75.9749 251.497 76.1402 251.712 76.5247L251.881 77.6533L252.034 78.4339C252.259 79.5811 252.583 80.4042 253.008 80.9032C252.976 81.2185 252.832 81.4043 252.575 81.4607C252.206 81.5416 251.849 81.151 251.505 80.289L251.416 80.0125L251.265 80.0456C251.06 81.1391 250.62 81.9323 249.947 82.4253L249.71 82.5514C248.692 82.4784 248.066 81.8387 247.829 80.6324L247.808 80.5259C247.514 79.0239 247.968 77.6787 249.169 76.4902L249.99 76.1252ZM248.881 80.6424C249.075 81.2165 249.312 81.473 249.591 81.4117L249.642 81.4007C250.033 81.3149 250.403 79.9323 250.753 77.253L250.743 77.1998L250.235 77.2L250.202 77.2074C249.307 77.4035 248.83 78.3593 248.77 80.0747L248.881 80.6424Z" fill="url(#paint68_linear)"/>
<path d="M255.475 74.5711C256.623 74.4181 257.363 75.7545 257.695 78.5804L257.871 80.1886C257.887 80.6291 257.731 80.8731 257.402 80.9205C257.095 80.963 256.919 80.7796 256.874 80.3701L256.654 78.6236C256.414 76.5669 256.045 75.5748 255.546 75.6471C255.011 75.715 254.837 76.851 255.024 79.0549L255.467 80.9561C255.493 81.2094 255.329 81.3811 254.973 81.4714C254.553 81.5266 254.273 80.9341 254.135 79.6939L252.936 75.7197C252.906 75.4428 253.083 75.2496 253.47 75.1402C253.707 75.1005 253.899 75.336 254.046 75.8465L254.116 75.8496C254.49 75.077 254.943 74.6508 255.475 74.5711Z" fill="url(#paint69_linear)"/>
<path d="M259.316 64.5335C259.45 64.5041 259.616 64.5786 259.814 64.7572L260.075 66.0877C260.845 70.0142 261.98 74.1997 263.48 78.6442L264.062 79.7378C264.042 80.0507 263.897 80.2365 263.629 80.2953C263.283 80.3713 262.95 79.9817 262.63 79.1266L262.513 79.1523C262.178 79.6451 261.809 79.9357 261.407 80.0239C260.49 80.225 259.685 79.7477 258.992 78.5921C258.766 78.21 258.597 77.7352 258.486 77.1675C258.221 75.8192 258.463 74.7918 259.211 74.0851L259.573 73.9687L259.623 73.9577C259.959 73.8842 260.394 73.9615 260.928 74.1897L260.995 74.1749L260.985 74.1217C260.141 71.1244 259.529 68.6559 259.149 66.7163L258.916 65.5278C258.802 64.9483 258.936 64.6168 259.316 64.5335ZM259.481 76.8936L259.561 77.3017C259.733 78.1768 260.159 78.7434 260.839 79.0013L261.198 78.9595C261.735 78.8419 261.894 78.2272 261.677 77.1155L261.579 76.6188C261.382 75.6135 260.766 75.0886 259.731 75.0442C259.389 75.3783 259.305 75.9948 259.481 76.8936Z" fill="url(#paint70_linear)"/>
<path d="M269.662 71.6273C270.696 71.7831 271.425 72.7951 271.849 74.6633L271.87 74.7697C272.133 76.3524 271.937 77.4009 271.279 77.915L270.824 78.089C269.567 78.0438 268.782 77.2229 268.469 75.6263L268.459 75.573C268.12 73.8463 268.42 72.578 269.357 71.7681L269.662 71.6273ZM269.417 75.1964L269.494 75.5867C269.834 76.6715 270.268 77.1562 270.793 77.041C271.026 76.62 271.042 75.901 270.843 74.8839L270.822 74.7774C270.518 73.5242 270.192 72.8741 269.845 72.8269C269.328 73.2239 269.185 74.0138 269.417 75.1964Z" fill="url(#paint71_linear)"/>
<path d="M270.502 61.0078C270.872 60.9885 271.083 61.1149 271.137 61.3869L271.221 62.4415L271.273 62.7076C272.309 67.0443 273.13 69.8926 273.735 71.2525L273.782 71.3161L273.849 71.3014C274.071 70.9445 274.385 70.6721 274.791 70.4843C276.106 70.5907 276.915 71.4126 277.216 72.9501L277.303 73.3936C277.602 75.2153 277.284 76.4506 276.35 77.0994L275.958 77.2409L275.79 77.2777L275.712 77.2392L275.572 77.3255L275.628 77.6093C275.667 77.8104 275.59 77.9815 275.396 78.1227L275.195 78.1668C274.837 78.2452 274.578 77.8764 274.418 77.0604C274.254 76.5784 274.004 76.1396 273.67 75.7442L273.639 75.5845L273.734 75.2676L273.418 74.1898L273.363 73.5541C271.698 68.5044 270.655 64.9092 270.235 62.7686C270.022 61.6806 270.111 61.0936 270.502 61.0078ZM274.434 73.3934C274.809 75.3094 275.187 76.2257 275.567 76.1423L275.648 76.1986L275.95 76.1324C276.419 75.5486 276.535 74.6535 276.299 73.4472C276.106 72.4656 275.728 71.8454 275.165 71.5866L274.796 71.6675C274.42 72.1322 274.3 72.7075 274.434 73.3934Z" fill="url(#paint72_linear)"/>
<path d="M279.587 68.8038C280.169 68.6763 280.572 68.8593 280.797 69.3527C280.845 69.6011 280.719 69.7891 280.418 69.9169L280.267 69.95C280.1 69.8754 279.961 69.8504 279.85 69.8749L279.699 69.908C279.025 70.4009 278.754 70.9786 278.884 71.6408L278.915 71.8005C279.047 72.1785 279.259 72.3357 279.55 72.2719L279.701 72.2388L280.813 71.7545C281.397 71.7004 281.74 71.9336 281.842 72.454C281.992 73.2227 281.712 74.1415 281 75.2103C280.651 75.6322 280.264 75.8897 279.839 75.9828C279.033 75.9746 278.581 75.7221 278.484 75.2254C278.538 74.9052 278.699 74.7157 278.967 74.6568L279.564 74.9331L279.832 74.8743C280.583 74.3642 280.886 73.7366 280.74 72.9915L280.659 72.9353C280.4 73.103 280.098 73.2249 279.751 73.3009C278.924 73.4823 278.304 73.0261 277.891 71.9324C277.69 70.9035 278.067 69.9449 279.024 69.0567L279.587 68.8038Z" fill="url(#paint73_linear)"/>
<path d="M283.441 68.3845C284.067 68.2472 284.609 68.7513 285.067 69.8968C285.038 71.2969 284.571 72.0963 283.665 72.2948L283.598 72.3095L283.608 72.3628C283.998 73.3998 284.579 73.8337 285.35 73.6645C285.943 73.5346 286.318 72.8911 286.476 71.734L286.814 71.4934C287.06 71.4395 287.256 71.6062 287.402 71.9936C287.545 72.7269 287.139 73.5376 286.182 74.4259L285.408 74.762C284.446 74.9729 283.582 74.4036 282.817 73.0544C282.569 72.5043 282.408 72.04 282.334 71.6615L282.289 71.4309C282.052 70.2246 282.356 69.2452 283.2 68.4929L283.441 68.3845ZM283.258 70.7558L283.265 70.7912L283.714 71.1184C283.882 71.0816 283.991 70.8048 284.041 70.2881L283.986 70.0042C283.858 69.6499 283.749 69.4825 283.66 69.5021L283.559 69.5242C283.391 69.5609 283.291 69.9715 283.258 70.7558Z" fill="url(#paint74_linear)"/>
<path d="M287.31 66.7037C287.612 66.6375 287.916 66.9716 288.223 67.706L288.274 67.695C288.594 67.0696 289.001 66.703 289.493 66.5952C290.328 66.5724 290.782 66.7503 290.857 67.1287C290.821 67.4819 290.68 67.6855 290.434 67.7394L289.755 67.6663L289.587 67.703C288.953 67.9778 288.905 69.487 289.442 72.2308L289.606 73.0646C289.611 73.4459 289.49 73.6636 289.244 73.7175C288.886 73.7959 288.663 73.6105 288.575 73.161L288.172 71.1032C287.875 69.5894 287.437 68.304 286.856 67.2471C286.89 66.9436 287.041 66.7625 287.31 66.7037Z" fill="url(#paint75_linear)"/>
<path d="M291.599 66.0964C291.912 66.0277 292.248 66.5215 292.606 67.5777C293.446 68.9477 294.013 69.7549 294.305 69.999L294.356 69.988C294.106 67.0455 294.21 65.524 294.668 65.4235L294.735 65.4088C295.063 65.4727 295.251 65.6288 295.299 65.8772C295.133 66.518 295.211 68.5794 295.532 72.0615C295.341 72.3376 295.201 72.4855 295.111 72.5051C294.843 72.564 294.327 71.9555 293.564 70.6796C292.32 69.1515 291.525 67.8332 291.18 66.7248C291.14 66.5238 291.28 66.3143 291.599 66.0964Z" fill="url(#paint76_linear)"/>
<path d="M298.78 65.4286L299.821 65.3854L299.811 65.3322C300.057 65.2782 300.287 65.4435 300.503 65.828L300.671 66.9567L300.824 67.7373C301.049 68.8845 301.374 69.7076 301.798 70.2066C301.766 70.5219 301.622 70.7077 301.365 70.7641C300.996 70.845 300.64 70.4544 300.296 69.5924L300.206 69.3159L300.056 69.349C299.85 70.4425 299.411 71.2357 298.738 71.7286L298.5 71.8548C297.483 71.7817 296.856 71.1421 296.619 69.9357L296.599 69.8293C296.304 68.3273 296.758 66.9821 297.959 65.7935L298.78 65.4286ZM297.671 69.9457C297.865 70.5199 298.102 70.7764 298.382 70.7151L298.432 70.704C298.823 70.6182 299.194 69.2357 299.543 66.5564L299.533 66.5032L299.026 66.5034L298.992 66.5108C298.098 66.7069 297.62 67.6626 297.56 69.3781L297.671 69.9457Z" fill="url(#paint77_linear)"/>
<path d="M301.14 54.9756C301.497 54.8972 301.878 56.0041 302.28 58.2965C302.692 60.5745 302.99 62.1866 303.176 63.1328L303.209 63.1254L304.184 62.7451C304.518 62.7214 304.713 62.8573 304.771 63.153C304.85 63.5551 304.537 63.8333 303.833 63.9878L303.428 64.243L304.744 70.1529C304.778 70.5648 304.644 70.8038 304.342 70.87C303.984 70.9484 303.751 70.7097 303.642 70.1539L303.367 68.7524L302.558 64.8038L302.457 64.6411L301.729 64.8561C301.402 64.8538 301.21 64.7048 301.152 64.4091C301.08 64.0425 301.43 63.7746 302.201 63.6054L302.187 63.5345C301.891 62.0207 301.395 59.3725 300.7 55.59C300.642 55.2943 300.789 55.0895 301.14 54.9756Z" fill="url(#paint78_linear)"/>
<path d="M306.129 60.6167C306.419 60.5529 306.638 60.7148 306.783 61.1021C306.821 61.2914 306.733 61.5017 306.522 61.733L306.355 61.7698C306.041 61.8384 305.846 61.6717 305.767 61.2696C305.784 60.8833 305.905 60.6657 306.129 60.6167ZM306.715 62.9858C307.107 62.9616 307.33 63.5356 307.385 64.7077C307.434 65.6714 307.719 67.2434 308.239 69.4235C308.139 69.8032 307.95 69.9989 307.672 70.0104C307.35 70.0317 307.106 69.4745 306.942 68.3387C306.535 66.3804 306.308 64.7157 306.261 63.3445C306.248 63.1622 306.4 63.0426 306.715 62.9858Z" fill="url(#paint79_linear)"/>
<path d="M310.335 62.7104C311.368 62.8662 312.097 63.8782 312.522 65.7463L312.542 65.8528C312.806 67.4355 312.609 68.484 311.952 68.9981L311.496 69.172C310.239 69.1268 309.455 68.3059 309.142 66.7093L309.131 66.6561C308.793 64.9294 309.093 63.6611 310.03 62.8512L310.335 62.7104ZM310.09 66.2795L310.166 66.6698C310.507 67.7545 310.94 68.2393 311.466 68.1241C311.698 67.7031 311.715 66.9841 311.515 65.967L311.494 65.8605C311.19 64.6073 310.865 63.9571 310.517 63.91C310 64.307 309.858 65.0968 310.09 66.2795Z" fill="url(#paint80_linear)"/>
<path d="M315.604 61.3887C316.751 61.2358 317.491 62.5722 317.824 65.398L317.999 67.0063C318.015 67.4468 317.859 67.6907 317.53 67.7382C317.223 67.7807 317.048 67.5972 317.002 67.1878L316.783 65.4413C316.543 63.3846 316.173 62.3924 315.674 62.4648C315.14 62.5327 314.966 63.6686 315.153 65.8726L315.595 67.7738C315.622 68.027 315.457 68.1988 315.102 68.2891C314.681 68.3443 314.401 67.7518 314.263 66.5116L313.065 62.5374C313.034 62.2605 313.212 62.0673 313.598 61.9578C313.836 61.9182 314.027 62.1536 314.174 62.6642L314.245 62.6672C314.618 61.8946 315.071 61.4685 315.604 61.3887Z" fill="url(#paint81_linear)"/>
<path d="M144.657 9.64708C146.612 9.635 148.106 10.9131 149.137 13.4815L149.324 14.6833C149.337 17.0891 148.067 20.252 145.515 24.1721C144.662 25.0637 143.877 25.6384 143.16 25.8961L143.255 26.7819L143.503 39.158C143.505 39.6434 143.198 39.9407 142.58 40.0501C142.021 40.0535 141.74 39.6543 141.735 38.8523C141.684 29.6301 141.469 25.0201 141.09 25.0225C140.587 24.2869 140.335 23.7292 140.333 23.3494C140.33 22.9273 140.638 22.651 141.256 22.5206L140.903 12.7726C140.894 11.1687 141.219 10.3648 141.877 10.3607L142.416 10.4523C143.172 9.92006 143.918 9.65164 144.657 9.64708ZM142.818 12.6341L143.084 23.0158L143.148 23.7118C144.462 23.155 145.737 21.0473 146.974 17.3886C147.368 16.3942 147.562 15.4011 147.556 14.4093C146.987 12.4923 146.104 11.5375 144.907 11.5449L144.488 11.5475C143.849 11.5515 143.292 11.9137 142.818 12.6341Z" fill="url(#paint82_linear)"/>
<path d="M151.127 26.9232C151.666 26.9198 152.079 27.6032 152.366 28.9732L152.455 28.9726C153.208 28.0183 154.024 27.5384 154.902 27.533C156.34 27.7984 157.061 28.2688 157.064 28.9441C156.888 29.5361 156.58 29.8335 156.141 29.8362L155.002 29.4634L154.703 29.4652C153.527 29.7046 152.952 32.2724 152.979 37.1684L152.988 38.6562C152.872 39.3111 152.594 39.64 152.155 39.6427C151.517 39.6466 151.195 39.2476 151.191 38.4457L151.17 34.7737C151.156 32.0724 150.823 29.7108 150.174 27.6888C150.33 27.1813 150.648 26.9261 151.127 26.9232Z" fill="url(#paint83_linear)"/>
<path d="M161.732 28.662C163.451 29.3057 164.37 31.3049 164.488 34.6597L164.489 34.8497C164.425 37.6569 163.746 39.3811 162.453 40.0222L161.616 40.154C159.478 39.6185 158.401 37.9263 158.385 35.0773L158.385 34.9824C158.368 31.9012 159.294 29.8378 161.164 28.7922L161.732 28.662ZM160.149 34.6865L160.153 35.383C160.383 37.3653 160.967 38.3536 161.905 38.3478C162.44 37.7114 162.703 36.4857 162.693 34.6708L162.692 34.4809C162.579 32.2234 162.233 30.991 161.654 30.7835C160.639 31.2752 160.137 32.5762 160.149 34.6865Z" fill="url(#paint84_linear)"/>
<path d="M170.791 27.0549C171.29 27.0518 171.543 27.6728 171.55 28.9179L171.834 31.607C171.837 32.0713 171.499 32.3794 170.822 32.5313C170.403 32.5339 169.859 31.577 169.19 29.6606L169.099 29.5346L168.89 29.5359C168.111 29.5407 167.679 30.7146 167.592 33.0577L167.595 33.5326C167.608 35.9173 168.344 37.3162 169.803 37.7292L170.371 37.7257C170.99 37.7219 171.925 37.1357 173.175 35.9673L173.385 35.966L173.384 35.9027C174.004 36.0888 174.315 36.4562 174.318 37.0049C173.884 37.8517 172.95 38.6173 171.517 39.3014L170.083 39.6902C168.208 39.7018 166.852 38.1906 166.018 35.1568L165.829 33.4485L165.827 33.2586C165.81 30.0297 166.717 28.1564 168.55 27.6386L168.819 27.6369L169.748 27.7261C170.024 27.2812 170.372 27.0575 170.791 27.0549Z" fill="url(#paint85_linear)"/>
<path d="M178.4 28.1792C179.517 28.1723 180.281 29.2333 180.692 31.3623C180.186 33.7502 179.125 34.9492 177.509 34.9592L177.39 34.9599L177.39 35.0549C177.72 36.9733 178.573 37.9283 179.95 37.9198C181.007 37.9132 181.86 36.9477 182.508 35.0232L183.165 34.7343C183.604 34.7316 183.885 35.0886 184.009 35.8054C184.016 37.1138 183.055 38.3543 181.126 39.527L179.691 39.8208C177.975 39.8314 176.681 38.5415 175.809 35.951C175.564 34.9184 175.439 34.0645 175.436 33.3892L175.433 32.9776C175.421 30.8251 176.261 29.2582 177.951 28.2769L178.4 28.1792ZM177.314 32.1746L177.315 32.2379L177.977 32.9619C178.276 32.9601 178.553 32.5257 178.808 31.6589L178.805 31.1524C178.702 30.4988 178.57 30.1725 178.411 30.1735L178.231 30.1746C177.932 30.1764 177.626 30.8431 177.314 32.1746Z" fill="url(#paint86_linear)"/>
<path d="M189.08 27.3851C190.118 27.3787 190.749 27.8391 190.973 28.7663C190.976 29.2095 190.698 29.4855 190.14 29.5945L189.87 29.5962C189.61 29.4078 189.38 29.3143 189.181 29.3155L188.911 29.3172C187.598 29.9162 186.944 30.8066 186.951 31.9884L186.952 32.2733C187.056 32.9691 187.367 33.3154 187.886 33.3122L188.155 33.3106L190.218 32.8863C191.236 33.0066 191.748 33.5311 191.753 34.4596C191.76 35.8314 190.98 37.3029 189.413 38.8743C188.678 39.4698 187.931 39.7699 187.173 39.7745C185.795 39.4665 185.103 38.8693 185.098 37.9829C185.295 37.4541 185.632 37.1882 186.111 37.1853L187.043 37.876L187.522 37.873C188.975 37.2731 189.698 36.3084 189.691 34.9789L189.57 34.853C189.072 35.046 188.514 35.1444 187.896 35.1482C186.419 35.1574 185.506 34.15 185.156 32.1262C185.145 30.2901 186.105 28.7858 188.034 27.6132L189.08 27.3851Z" fill="url(#paint87_linear)"/>
<path d="M196.861 27.337C197.899 27.3306 198.53 27.791 198.755 28.7182C198.757 29.1614 198.479 29.4375 197.921 29.5464L197.652 29.5481C197.391 29.3598 197.161 29.2662 196.962 29.2674L196.693 29.2691C195.379 29.8681 194.725 30.7586 194.732 31.9404L194.734 32.2253C194.837 32.9211 195.148 33.2674 195.667 33.2641L195.936 33.2625L197.999 32.8382C199.017 32.9585 199.529 33.483 199.534 34.4115C199.542 35.7833 198.762 37.2548 197.194 38.8262C196.459 39.4217 195.713 39.7218 194.954 39.7265C193.576 39.4184 192.884 38.8212 192.879 37.9349C193.076 37.406 193.414 37.1402 193.893 37.1372L194.824 37.8279L195.303 37.8249C196.756 37.225 197.479 36.2603 197.472 34.9308L197.352 34.8049C196.854 34.9979 196.296 35.0963 195.677 35.1002C194.201 35.1093 193.287 34.1019 192.937 32.0781C192.927 30.2421 193.886 28.7377 195.815 27.5651L196.861 27.337Z" fill="url(#paint88_linear)"/>
<defs>
<linearGradient id="paint0_linear" x1="173" y1="0" x2="173" y2="180" gradientUnits="userSpaceOnUse">
<stop stop-color="#0AE6F4"/>
<stop offset="1" stop-color="#35DEA1"/>
</linearGradient>
<linearGradient id="paint1_linear" x1="173" y1="0" x2="173" y2="180" gradientUnits="userSpaceOnUse">
<stop stop-color="#0AE6F4"/>
<stop offset="1" stop-color="#35DEA1"/>
</linearGradient>
<linearGradient id="paint2_linear" x1="173" y1="0" x2="173" y2="180" gradientUnits="userSpaceOnUse">
<stop stop-color="#0AE6F4"/>
<stop offset="1" stop-color="#35DEA1"/>
</linearGradient>
<linearGradient id="paint3_linear" x1="173" y1="0" x2="173" y2="180" gradientUnits="userSpaceOnUse">
<stop stop-color="#0AE6F4"/>
<stop offset="1" stop-color="#35DEA1"/>
</linearGradient>
<linearGradient id="paint4_linear" x1="173" y1="0" x2="173" y2="180" gradientUnits="userSpaceOnUse">
<stop stop-color="#0AE6F4"/>
<stop offset="1" stop-color="#35DEA1"/>
</linearGradient>
<linearGradient id="paint5_linear" x1="173" y1="0" x2="173" y2="180" gradientUnits="userSpaceOnUse">
<stop stop-color="#0AE6F4"/>
<stop offset="1" stop-color="#35DEA1"/>
</linearGradient>
<linearGradient id="paint6_linear" x1="173" y1="0" x2="173" y2="180" gradientUnits="userSpaceOnUse">
<stop stop-color="#0AE6F4"/>
<stop offset="1" stop-color="#35DEA1"/>
</linearGradient>
<linearGradient id="paint7_linear" x1="173" y1="0" x2="173" y2="180" gradientUnits="userSpaceOnUse">
<stop stop-color="#0AE6F4"/>
<stop offset="1" stop-color="#35DEA1"/>
</linearGradient>
<linearGradient id="paint8_linear" x1="173" y1="0" x2="173" y2="180" gradientUnits="userSpaceOnUse">
<stop stop-color="#0AE6F4"/>
<stop offset="1" stop-color="#35DEA1"/>
</linearGradient>
<linearGradient id="paint9_linear" x1="173" y1="0" x2="173" y2="180" gradientUnits="userSpaceOnUse">
<stop stop-color="#0AE6F4"/>
<stop offset="1" stop-color="#35DEA1"/>
</linearGradient>
<linearGradient id="paint10_linear" x1="173" y1="0" x2="173" y2="180" gradientUnits="userSpaceOnUse">
<stop stop-color="#0AE6F4"/>
<stop offset="1" stop-color="#35DEA1"/>
</linearGradient>
<linearGradient id="paint11_linear" x1="173" y1="0" x2="173" y2="180" gradientUnits="userSpaceOnUse">
<stop stop-color="#0AE6F4"/>
<stop offset="1" stop-color="#35DEA1"/>
</linearGradient>
<linearGradient id="paint12_linear" x1="173" y1="0" x2="173" y2="180" gradientUnits="userSpaceOnUse">
<stop stop-color="#0AE6F4"/>
<stop offset="1" stop-color="#35DEA1"/>
</linearGradient>
<linearGradient id="paint13_linear" x1="173" y1="0" x2="173" y2="180" gradientUnits="userSpaceOnUse">
<stop stop-color="#0AE6F4"/>
<stop offset="1" stop-color="#35DEA1"/>
</linearGradient>
<linearGradient id="paint14_linear" x1="173" y1="0" x2="173" y2="180" gradientUnits="userSpaceOnUse">
<stop stop-color="#0AE6F4"/>
<stop offset="1" stop-color="#35DEA1"/>
</linearGradient>
<linearGradient id="paint15_linear" x1="173" y1="0" x2="173" y2="180" gradientUnits="userSpaceOnUse">
<stop stop-color="#0AE6F4"/>
<stop offset="1" stop-color="#35DEA1"/>
</linearGradient>
<linearGradient id="paint16_linear" x1="173" y1="0" x2="173" y2="180" gradientUnits="userSpaceOnUse">
<stop stop-color="#0AE6F4"/>
<stop offset="1" stop-color="#35DEA1"/>
</linearGradient>
<linearGradient id="paint17_linear" x1="173" y1="0" x2="173" y2="180" gradientUnits="userSpaceOnUse">
<stop stop-color="#0AE6F4"/>
<stop offset="1" stop-color="#35DEA1"/>
</linearGradient>
<linearGradient id="paint18_linear" x1="173" y1="0" x2="173" y2="180" gradientUnits="userSpaceOnUse">
<stop stop-color="#0AE6F4"/>
<stop offset="1" stop-color="#35DEA1"/>
</linearGradient>
<linearGradient id="paint19_linear" x1="173" y1="0" x2="173" y2="180" gradientUnits="userSpaceOnUse">
<stop stop-color="#0AE6F4"/>
<stop offset="1" stop-color="#35DEA1"/>
</linearGradient>
<linearGradient id="paint20_linear" x1="173" y1="0" x2="173" y2="180" gradientUnits="userSpaceOnUse">
<stop stop-color="#0AE6F4"/>
<stop offset="1" stop-color="#35DEA1"/>
</linearGradient>
<linearGradient id="paint21_linear" x1="173" y1="0" x2="173" y2="180" gradientUnits="userSpaceOnUse">
<stop stop-color="#0AE6F4"/>
<stop offset="1" stop-color="#35DEA1"/>
</linearGradient>
<linearGradient id="paint22_linear" x1="173" y1="0" x2="173" y2="180" gradientUnits="userSpaceOnUse">
<stop stop-color="#0AE6F4"/>
<stop offset="1" stop-color="#35DEA1"/>
</linearGradient>
<linearGradient id="paint23_linear" x1="173" y1="0" x2="173" y2="180" gradientUnits="userSpaceOnUse">
<stop stop-color="#0AE6F4"/>
<stop offset="1" stop-color="#35DEA1"/>
</linearGradient>
<linearGradient id="paint24_linear" x1="173" y1="0" x2="173" y2="180" gradientUnits="userSpaceOnUse">
<stop stop-color="#0AE6F4"/>
<stop offset="1" stop-color="#35DEA1"/>
</linearGradient>
<linearGradient id="paint25_linear" x1="173" y1="0" x2="173" y2="180" gradientUnits="userSpaceOnUse">
<stop stop-color="#0AE6F4"/>
<stop offset="1" stop-color="#35DEA1"/>
</linearGradient>
<linearGradient id="paint26_linear" x1="173" y1="0" x2="173" y2="180" gradientUnits="userSpaceOnUse">
<stop stop-color="#0AE6F4"/>
<stop offset="1" stop-color="#35DEA1"/>
</linearGradient>
<linearGradient id="paint27_linear" x1="173" y1="0" x2="173" y2="180" gradientUnits="userSpaceOnUse">
<stop stop-color="#0AE6F4"/>
<stop offset="1" stop-color="#35DEA1"/>
</linearGradient>
<linearGradient id="paint28_linear" x1="173" y1="0" x2="173" y2="180" gradientUnits="userSpaceOnUse">
<stop stop-color="#0AE6F4"/>
<stop offset="1" stop-color="#35DEA1"/>
</linearGradient>
<linearGradient id="paint29_linear" x1="173" y1="0" x2="173" y2="180" gradientUnits="userSpaceOnUse">
<stop stop-color="#0AE6F4"/>
<stop offset="1" stop-color="#35DEA1"/>
</linearGradient>
<linearGradient id="paint30_linear" x1="173" y1="0" x2="173" y2="180" gradientUnits="userSpaceOnUse">
<stop stop-color="#0AE6F4"/>
<stop offset="1" stop-color="#35DEA1"/>
</linearGradient>
<linearGradient id="paint31_linear" x1="173" y1="0" x2="173" y2="180" gradientUnits="userSpaceOnUse">
<stop stop-color="#0AE6F4"/>
<stop offset="1" stop-color="#35DEA1"/>
</linearGradient>
<linearGradient id="paint32_linear" x1="173" y1="0" x2="173" y2="180" gradientUnits="userSpaceOnUse">
<stop stop-color="#0AE6F4"/>
<stop offset="1" stop-color="#35DEA1"/>
</linearGradient>
<linearGradient id="paint33_linear" x1="173" y1="0" x2="173" y2="180" gradientUnits="userSpaceOnUse">
<stop stop-color="#0AE6F4"/>
<stop offset="1" stop-color="#35DEA1"/>
</linearGradient>
<linearGradient id="paint34_linear" x1="173" y1="0" x2="173" y2="180" gradientUnits="userSpaceOnUse">
<stop stop-color="#0AE6F4"/>
<stop offset="1" stop-color="#35DEA1"/>
</linearGradient>
<linearGradient id="paint35_linear" x1="173" y1="0" x2="173" y2="180" gradientUnits="userSpaceOnUse">
<stop stop-color="#0AE6F4"/>
<stop offset="1" stop-color="#35DEA1"/>
</linearGradient>
<linearGradient id="paint36_linear" x1="173" y1="0" x2="173" y2="180" gradientUnits="userSpaceOnUse">
<stop stop-color="#0AE6F4"/>
<stop offset="1" stop-color="#35DEA1"/>
</linearGradient>
<linearGradient id="paint37_linear" x1="173" y1="0" x2="173" y2="180" gradientUnits="userSpaceOnUse">
<stop stop-color="#0AE6F4"/>
<stop offset="1" stop-color="#35DEA1"/>
</linearGradient>
<linearGradient id="paint38_linear" x1="173" y1="0" x2="173" y2="180" gradientUnits="userSpaceOnUse">
<stop stop-color="#0AE6F4"/>
<stop offset="1" stop-color="#35DEA1"/>
</linearGradient>
<linearGradient id="paint39_linear" x1="173" y1="0" x2="173" y2="180" gradientUnits="userSpaceOnUse">
<stop stop-color="#0AE6F4"/>
<stop offset="1" stop-color="#35DEA1"/>
</linearGradient>
<linearGradient id="paint40_linear" x1="173" y1="0" x2="173" y2="180" gradientUnits="userSpaceOnUse">
<stop stop-color="#0AE6F4"/>
<stop offset="1" stop-color="#35DEA1"/>
</linearGradient>
<linearGradient id="paint41_linear" x1="173" y1="0" x2="173" y2="180" gradientUnits="userSpaceOnUse">
<stop stop-color="#0AE6F4"/>
<stop offset="1" stop-color="#35DEA1"/>
</linearGradient>
<linearGradient id="paint42_linear" x1="173" y1="0" x2="173" y2="180" gradientUnits="userSpaceOnUse">
<stop stop-color="#0AE6F4"/>
<stop offset="1" stop-color="#35DEA1"/>
</linearGradient>
<linearGradient id="paint43_linear" x1="173" y1="0" x2="173" y2="180" gradientUnits="userSpaceOnUse">
<stop stop-color="#0AE6F4"/>
<stop offset="1" stop-color="#35DEA1"/>
</linearGradient>
<linearGradient id="paint44_linear" x1="173" y1="0" x2="173" y2="180" gradientUnits="userSpaceOnUse">
<stop stop-color="#0AE6F4"/>
<stop offset="1" stop-color="#35DEA1"/>
</linearGradient>
<linearGradient id="paint45_linear" x1="173" y1="0" x2="173" y2="180" gradientUnits="userSpaceOnUse">
<stop stop-color="#0AE6F4"/>
<stop offset="1" stop-color="#35DEA1"/>
</linearGradient>
<linearGradient id="paint46_linear" x1="173" y1="0" x2="173" y2="180" gradientUnits="userSpaceOnUse">
<stop stop-color="#0AE6F4"/>
<stop offset="1" stop-color="#35DEA1"/>
</linearGradient>
<linearGradient id="paint47_linear" x1="173" y1="0" x2="173" y2="180" gradientUnits="userSpaceOnUse">
<stop stop-color="#0AE6F4"/>
<stop offset="1" stop-color="#35DEA1"/>
</linearGradient>
<linearGradient id="paint48_linear" x1="173" y1="0" x2="173" y2="180" gradientUnits="userSpaceOnUse">
<stop stop-color="#0AE6F4"/>
<stop offset="1" stop-color="#35DEA1"/>
</linearGradient>
<linearGradient id="paint49_linear" x1="173" y1="0" x2="173" y2="180" gradientUnits="userSpaceOnUse">
<stop stop-color="#0AE6F4"/>
<stop offset="1" stop-color="#35DEA1"/>
</linearGradient>
<linearGradient id="paint50_linear" x1="173" y1="0" x2="173" y2="180" gradientUnits="userSpaceOnUse">
<stop stop-color="#0AE6F4"/>
<stop offset="1" stop-color="#35DEA1"/>
</linearGradient>
<linearGradient id="paint51_linear" x1="173" y1="0" x2="173" y2="180" gradientUnits="userSpaceOnUse">
<stop stop-color="#0AE6F4"/>
<stop offset="1" stop-color="#35DEA1"/>
</linearGradient>
<linearGradient id="paint52_linear" x1="173" y1="0" x2="173" y2="180" gradientUnits="userSpaceOnUse">
<stop stop-color="#0AE6F4"/>
<stop offset="1" stop-color="#35DEA1"/>
</linearGradient>
<linearGradient id="paint53_linear" x1="173" y1="0" x2="173" y2="180" gradientUnits="userSpaceOnUse">
<stop stop-color="#0AE6F4"/>
<stop offset="1" stop-color="#35DEA1"/>
</linearGradient>
<linearGradient id="paint54_linear" x1="173" y1="0" x2="173" y2="180" gradientUnits="userSpaceOnUse">
<stop stop-color="#0AE6F4"/>
<stop offset="1" stop-color="#35DEA1"/>
</linearGradient>
<linearGradient id="paint55_linear" x1="173" y1="0" x2="173" y2="180" gradientUnits="userSpaceOnUse">
<stop stop-color="#0AE6F4"/>
<stop offset="1" stop-color="#35DEA1"/>
</linearGradient>
<linearGradient id="paint56_linear" x1="173" y1="0" x2="173" y2="180" gradientUnits="userSpaceOnUse">
<stop stop-color="#0AE6F4"/>
<stop offset="1" stop-color="#35DEA1"/>
</linearGradient>
<linearGradient id="paint57_linear" x1="173" y1="0" x2="173" y2="180" gradientUnits="userSpaceOnUse">
<stop stop-color="#0AE6F4"/>
<stop offset="1" stop-color="#35DEA1"/>
</linearGradient>
<linearGradient id="paint58_linear" x1="173" y1="0" x2="173" y2="180" gradientUnits="userSpaceOnUse">
<stop stop-color="#0AE6F4"/>
<stop offset="1" stop-color="#35DEA1"/>
</linearGradient>
<linearGradient id="paint59_linear" x1="173" y1="0" x2="173" y2="180" gradientUnits="userSpaceOnUse">
<stop stop-color="#0AE6F4"/>
<stop offset="1" stop-color="#35DEA1"/>
</linearGradient>
<linearGradient id="paint60_linear" x1="173" y1="0" x2="173" y2="180" gradientUnits="userSpaceOnUse">
<stop stop-color="#0AE6F4"/>
<stop offset="1" stop-color="#35DEA1"/>
</linearGradient>
<linearGradient id="paint61_linear" x1="173" y1="0" x2="173" y2="180" gradientUnits="userSpaceOnUse">
<stop stop-color="#0AE6F4"/>
<stop offset="1" stop-color="#35DEA1"/>
</linearGradient>
<linearGradient id="paint62_linear" x1="173" y1="0" x2="173" y2="180" gradientUnits="userSpaceOnUse">
<stop stop-color="#0AE6F4"/>
<stop offset="1" stop-color="#35DEA1"/>
</linearGradient>
<linearGradient id="paint63_linear" x1="173" y1="0" x2="173" y2="180" gradientUnits="userSpaceOnUse">
<stop stop-color="#0AE6F4"/>
<stop offset="1" stop-color="#35DEA1"/>
</linearGradient>
<linearGradient id="paint64_linear" x1="173" y1="0" x2="173" y2="180" gradientUnits="userSpaceOnUse">
<stop stop-color="#0AE6F4"/>
<stop offset="1" stop-color="#35DEA1"/>
</linearGradient>
<linearGradient id="paint65_linear" x1="173" y1="0" x2="173" y2="180" gradientUnits="userSpaceOnUse">
<stop stop-color="#0AE6F4"/>
<stop offset="1" stop-color="#35DEA1"/>
</linearGradient>
<linearGradient id="paint66_linear" x1="173" y1="0" x2="173" y2="180" gradientUnits="userSpaceOnUse">
<stop stop-color="#0AE6F4"/>
<stop offset="1" stop-color="#35DEA1"/>
</linearGradient>
<linearGradient id="paint67_linear" x1="173" y1="0" x2="173" y2="180" gradientUnits="userSpaceOnUse">
<stop stop-color="#0AE6F4"/>
<stop offset="1" stop-color="#35DEA1"/>
</linearGradient>
<linearGradient id="paint68_linear" x1="173" y1="0" x2="173" y2="180" gradientUnits="userSpaceOnUse">
<stop stop-color="#0AE6F4"/>
<stop offset="1" stop-color="#35DEA1"/>
</linearGradient>
<linearGradient id="paint69_linear" x1="173" y1="0" x2="173" y2="180" gradientUnits="userSpaceOnUse">
<stop stop-color="#0AE6F4"/>
<stop offset="1" stop-color="#35DEA1"/>
</linearGradient>
<linearGradient id="paint70_linear" x1="173" y1="0" x2="173" y2="180" gradientUnits="userSpaceOnUse">
<stop stop-color="#0AE6F4"/>
<stop offset="1" stop-color="#35DEA1"/>
</linearGradient>
<linearGradient id="paint71_linear" x1="173" y1="0" x2="173" y2="180" gradientUnits="userSpaceOnUse">
<stop stop-color="#0AE6F4"/>
<stop offset="1" stop-color="#35DEA1"/>
</linearGradient>
<linearGradient id="paint72_linear" x1="173" y1="0" x2="173" y2="180" gradientUnits="userSpaceOnUse">
<stop stop-color="#0AE6F4"/>
<stop offset="1" stop-color="#35DEA1"/>
</linearGradient>
<linearGradient id="paint73_linear" x1="173" y1="0" x2="173" y2="180" gradientUnits="userSpaceOnUse">
<stop stop-color="#0AE6F4"/>
<stop offset="1" stop-color="#35DEA1"/>
</linearGradient>
<linearGradient id="paint74_linear" x1="173" y1="0" x2="173" y2="180" gradientUnits="userSpaceOnUse">
<stop stop-color="#0AE6F4"/>
<stop offset="1" stop-color="#35DEA1"/>
</linearGradient>
<linearGradient id="paint75_linear" x1="173" y1="0" x2="173" y2="180" gradientUnits="userSpaceOnUse">
<stop stop-color="#0AE6F4"/>
<stop offset="1" stop-color="#35DEA1"/>
</linearGradient>
<linearGradient id="paint76_linear" x1="173" y1="0" x2="173" y2="180" gradientUnits="userSpaceOnUse">
<stop stop-color="#0AE6F4"/>
<stop offset="1" stop-color="#35DEA1"/>
</linearGradient>
<linearGradient id="paint77_linear" x1="173" y1="0" x2="173" y2="180" gradientUnits="userSpaceOnUse">
<stop stop-color="#0AE6F4"/>
<stop offset="1" stop-color="#35DEA1"/>
</linearGradient>
<linearGradient id="paint78_linear" x1="173" y1="0" x2="173" y2="180" gradientUnits="userSpaceOnUse">
<stop stop-color="#0AE6F4"/>
<stop offset="1" stop-color="#35DEA1"/>
</linearGradient>
<linearGradient id="paint79_linear" x1="173" y1="0" x2="173" y2="180" gradientUnits="userSpaceOnUse">
<stop stop-color="#0AE6F4"/>
<stop offset="1" stop-color="#35DEA1"/>
</linearGradient>
<linearGradient id="paint80_linear" x1="173" y1="0" x2="173" y2="180" gradientUnits="userSpaceOnUse">
<stop stop-color="#0AE6F4"/>
<stop offset="1" stop-color="#35DEA1"/>
</linearGradient>
<linearGradient id="paint81_linear" x1="173" y1="0" x2="173" y2="180" gradientUnits="userSpaceOnUse">
<stop stop-color="#0AE6F4"/>
<stop offset="1" stop-color="#35DEA1"/>
</linearGradient>
<linearGradient id="paint82_linear" x1="173" y1="0" x2="173" y2="180" gradientUnits="userSpaceOnUse">
<stop stop-color="#0AE6F4"/>
<stop offset="1" stop-color="#35DEA1"/>
</linearGradient>
<linearGradient id="paint83_linear" x1="173" y1="0" x2="173" y2="180" gradientUnits="userSpaceOnUse">
<stop stop-color="#0AE6F4"/>
<stop offset="1" stop-color="#35DEA1"/>
</linearGradient>
<linearGradient id="paint84_linear" x1="173" y1="0" x2="173" y2="180" gradientUnits="userSpaceOnUse">
<stop stop-color="#0AE6F4"/>
<stop offset="1" stop-color="#35DEA1"/>
</linearGradient>
<linearGradient id="paint85_linear" x1="173" y1="0" x2="173" y2="180" gradientUnits="userSpaceOnUse">
<stop stop-color="#0AE6F4"/>
<stop offset="1" stop-color="#35DEA1"/>
</linearGradient>
<linearGradient id="paint86_linear" x1="173" y1="0" x2="173" y2="180" gradientUnits="userSpaceOnUse">
<stop stop-color="#0AE6F4"/>
<stop offset="1" stop-color="#35DEA1"/>
</linearGradient>
<linearGradient id="paint87_linear" x1="173" y1="0" x2="173" y2="180" gradientUnits="userSpaceOnUse">
<stop stop-color="#0AE6F4"/>
<stop offset="1" stop-color="#35DEA1"/>
</linearGradient>
<linearGradient id="paint88_linear" x1="173" y1="0" x2="173" y2="180" gradientUnits="userSpaceOnUse">
<stop stop-color="#0AE6F4"/>
<stop offset="1" stop-color="#35DEA1"/>
</linearGradient>
</defs>
</svg>
