<svg width="346" height="180" viewBox="0 0 346 180" fill="none" xmlns="http://www.w3.org/2000/svg">
<g clip-path="url(#clip0)">
<rect width="346" height="180" fill="#111111"/>
<path d="M69.636 47.8557C70.338 47.7631 70.896 48.7293 71.3101 50.7542C72.3992 53.2783 73.0057 54.5322 73.1296 54.5159L73.2225 54.5036C73.0761 51.9602 73.23 50.6586 73.6843 50.5986L74.0869 50.5455C74.665 50.4693 75.8015 51.6008 77.4964 53.9399L77.5893 53.9277L77.577 53.8347C77.1447 49.1235 77.3931 46.7065 78.3222 46.584L78.508 46.5595C79.1231 46.6044 79.4565 46.823 79.5083 47.2153C79.1355 49.0079 79.0976 51.0295 79.3944 53.28L80.1351 57.9401C80.0489 58.5606 79.7477 58.9049 79.2315 58.973C78.6328 59.052 77.2831 57.3395 75.1825 53.8355L74.9967 53.86C75.2246 58.1361 74.8636 60.3368 73.9139 60.4621C73.2738 60.5465 72.744 59.5556 72.3245 57.4893C70.6851 53.8195 69.5421 50.9664 68.8954 48.9301C68.8383 48.4965 69.0851 48.1384 69.636 47.8557ZM79.6671 28.3521C80.1213 28.2922 80.4374 28.6181 80.6153 29.3299L80.844 31.0642C81.3968 35.2555 82.1011 40.8341 82.9568 47.8002C83.62 46.9355 84.2819 46.4596 84.9426 46.3725C86.615 46.1519 87.9386 47.8259 88.9134 51.3943C89.3321 54.0908 89.796 56.4138 90.3052 58.3632C90.3515 58.7142 90.0633 59.0778 89.4408 59.454C88.6925 59.1956 88.2911 58.8599 88.2366 58.447L88.3483 58.3377L88.3319 58.2139C87.1998 52.0194 86.4583 48.9453 86.1073 48.9916C85.7942 48.5288 85.529 48.2697 85.3116 48.2143L85.0019 48.2552C84.0894 49.2998 83.7189 50.4725 83.8905 51.7732L84.8306 58.4236C84.6618 59.055 84.3813 59.3966 83.989 59.4483C83.3077 59.5382 82.7488 58.6456 82.3125 56.7707C82.2909 55.4922 82.2202 54.3987 82.1004 53.4902L82.0881 53.3973L82.0139 53.3126L82.0636 53.2115L81.9615 52.4372L80.2806 38.2595C79.7278 35.9797 79.3044 33.7249 79.0103 31.4951L78.7652 29.6369C78.7058 28.8675 79.0064 28.4393 79.6671 28.3521ZM91.4564 41.2912C91.9932 41.2204 92.3699 41.5278 92.5863 42.2135C92.6299 42.5438 92.445 42.8938 92.0316 43.2634L91.7219 43.3042C91.1438 43.3805 90.8085 43.0676 90.7159 42.3656C90.7967 41.7038 91.0435 41.3457 91.4564 41.2912ZM92.2247 45.4436C92.9403 45.4542 93.2739 46.471 93.2256 48.4939C93.193 50.1577 93.5125 52.8988 94.1842 56.7173C93.9535 57.3569 93.5849 57.6681 93.0785 57.6508C92.4895 57.6445 92.1173 56.6538 91.9618 54.6788C91.4685 51.2569 91.2654 48.3638 91.3527 45.9997C91.3532 45.6845 91.6438 45.4992 92.2247 45.4436ZM99.9743 43.7597C100.49 43.6917 100.829 44.2667 100.99 45.4849L101.615 48.0805C101.675 48.5348 101.364 48.8804 100.681 49.1176C100.247 49.1747 99.566 48.3088 98.6368 46.5199L98.5276 46.4082L98.3108 46.4368C97.5056 46.543 97.2025 47.7488 97.4015 50.0542L97.4628 50.5188C97.7705 52.8518 98.7052 54.1254 100.267 54.3396L100.855 54.262C101.495 54.1776 102.391 53.4818 103.542 52.1747L103.759 52.1461L103.75 52.0841C104.415 52.1855 104.783 52.5046 104.853 53.0415C104.508 53.9272 103.636 54.7985 102.236 55.6553L100.799 56.223C98.8581 56.4789 97.2684 55.1762 96.0297 52.3147L95.6233 50.6669L95.5988 50.481C95.1822 47.3221 95.8909 45.3696 97.725 44.6236L98.0038 44.5868L98.9761 44.5531C99.208 44.0814 99.5407 43.8169 99.9743 43.7597ZM103.824 25.1661C104.278 25.1061 104.594 25.4321 104.772 26.1438L105.001 27.8781C105.553 32.0694 106.258 37.6481 107.113 44.6141C107.777 43.7495 108.438 43.2736 109.099 43.1864C110.772 42.9658 112.095 44.6398 113.07 48.2082C113.489 50.9048 113.953 53.2277 114.462 55.1771C114.508 55.5281 114.22 55.8917 113.597 56.2679C112.849 56.0095 112.448 55.6738 112.393 55.2609L112.505 55.1517L112.488 55.0278C111.356 48.8333 110.615 45.7593 110.264 45.8056C109.951 45.3427 109.686 45.0836 109.468 45.0283L109.158 45.0691C108.246 46.1137 107.875 47.2864 108.047 48.5871L108.987 55.2375C108.818 55.8689 108.538 56.2105 108.146 56.2623C107.464 56.3521 106.905 55.4596 106.469 53.5846C106.447 52.3061 106.377 51.2126 106.257 50.3041L106.245 50.2112L106.17 50.1265L106.22 50.0254L106.118 49.2512L104.437 35.0734C103.884 32.7936 103.461 30.5389 103.167 28.309L102.922 26.4508C102.862 25.6815 103.163 25.2532 103.824 25.1661ZM126.232 40.7377C127.306 40.5961 128.016 40.9645 128.363 41.843C128.42 42.2766 128.166 42.5831 127.602 42.7626L127.323 42.7994C127.03 42.6489 126.781 42.5873 126.574 42.6146L126.295 42.6513C125.009 43.4092 124.442 44.3662 124.594 45.5224L124.631 45.8011C124.824 46.4689 125.189 46.7673 125.726 46.6965L126.005 46.6597L128.089 45.9753C129.158 45.9603 129.753 46.407 129.872 47.3155C130.049 48.6575 129.423 50.2 127.994 51.943C127.306 52.6218 126.57 53.013 125.785 53.1165C124.32 52.9947 123.53 52.5002 123.415 51.6331C123.554 51.0897 123.871 50.7853 124.366 50.7199L125.416 51.2746L125.912 51.2093C127.343 50.4324 127.972 49.3936 127.801 48.0928L127.661 47.9853C127.169 48.2392 126.603 48.4084 125.963 48.4928C124.435 48.6943 123.365 47.8271 122.753 45.8914C122.516 44.0951 123.324 42.4971 125.177 41.0974L126.232 40.7377ZM129.126 21.8288C129.58 21.7689 129.896 22.0948 130.074 22.8066L130.303 24.5409C130.856 28.7322 131.56 34.3108 132.416 41.2769C133.079 40.4122 133.741 39.9363 134.402 39.8492C136.074 39.6286 137.398 41.3026 138.372 44.871C138.791 47.5676 139.255 49.8905 139.764 51.8399C139.81 52.1909 139.522 52.5545 138.9 52.9307C138.151 52.6723 137.75 52.3366 137.696 51.9237L137.807 51.8144L137.791 51.6906C136.659 45.4961 135.917 42.4221 135.566 42.4683C135.253 42.0055 134.988 41.7464 134.771 41.6911L134.461 41.7319C133.548 42.7765 133.178 43.9492 133.349 45.2499L134.29 51.9003C134.121 52.5317 133.84 52.8733 133.448 52.925C132.767 53.0149 132.208 52.1224 131.771 50.2474C131.75 48.9689 131.679 47.8754 131.559 46.9669L131.547 46.874L131.473 46.7893L131.523 46.6882L131.42 45.914L129.74 31.7362C129.187 29.4564 128.763 27.2016 128.469 24.9718L128.224 23.1136C128.165 22.3442 128.465 21.916 129.126 21.8288ZM144.843 39.7009L146.742 39.7655L146.73 39.6726C147.184 39.6127 147.583 39.9277 147.926 40.6177L148.09 42.581L148.27 43.9437C148.534 45.9464 149.02 47.4052 149.729 48.32C149.632 48.8579 149.346 49.1582 148.871 49.2209C148.19 49.3107 147.591 48.5915 147.074 47.0632L146.947 46.5759L146.668 46.6126C146.157 48.4656 145.257 49.771 143.971 50.5289L143.523 50.714C141.682 50.4527 140.622 49.269 140.345 47.1631L140.32 46.9773C139.974 44.3551 140.969 42.1024 143.304 40.2189L144.843 39.7009ZM142.256 47.3206C142.537 48.3339 142.935 48.8065 143.451 48.7384L143.544 48.7261C144.267 48.6308 145.115 46.3028 146.089 41.7422L146.077 41.6493L145.154 41.5819L145.092 41.5901C143.44 41.8079 142.451 43.3878 142.125 46.3296L142.256 47.3206ZM154.425 37.3343C156.51 37.0593 158.505 38.4872 160.409 41.6179L161.112 43.6048C161.442 46.103 160.004 47.7841 156.799 48.6479L156.582 48.6765C155.839 48.7745 155.142 48.6669 154.492 48.3536L154.182 48.3944C155.619 56.9013 156.531 62.6206 156.917 65.5524C156.827 66.2996 156.544 66.7045 156.069 66.7671C155.409 66.8542 155.009 66.3713 154.87 65.3183L154.817 64.9157C154.398 61.7361 153.553 56.2075 152.283 48.3298C151.551 44.8553 151.062 42.1786 150.814 40.2997L150.728 39.6494C150.589 38.5964 150.84 38.0277 151.48 37.9433L151.914 37.8861C152.315 38.0642 152.539 38.3287 152.585 38.6797C153.162 37.9525 153.605 37.5685 153.914 37.5277L154.425 37.3343ZM153.934 42.6925C153.946 45.6527 154.685 47.0361 156.151 46.8428L156.647 46.7774C158.319 46.5569 159.196 45.6429 159.279 44.0357L159.242 43.7569C159.059 42.3736 158.149 41.0443 156.51 39.769C155.841 39.3112 155.258 39.1149 154.763 39.1803C154.076 39.2289 153.8 40.3996 153.934 42.6925ZM164.698 36.389C165.854 36.2365 166.776 37.1757 167.464 39.2065C167.235 41.6104 166.284 42.9226 164.612 43.1432L164.488 43.1595L164.5 43.2524C165.078 45.0877 166.08 45.9114 167.504 45.7235C168.599 45.5792 169.363 44.5227 169.796 42.554L170.441 42.1854C170.895 42.1255 171.23 42.4383 171.447 43.124C171.615 44.4041 170.773 45.744 168.92 47.1437L167.471 47.6185C165.695 47.8527 164.196 46.7585 162.973 44.3361C162.592 43.3571 162.358 42.5372 162.271 41.8765L162.218 41.4739C161.94 39.368 162.616 37.7244 164.245 36.5432L164.698 36.389ZM164.067 40.4423L164.075 40.5043L164.85 41.1267C165.16 41.0859 165.393 40.6245 165.55 39.7426L165.484 39.2471C165.297 38.6206 165.12 38.3183 164.955 38.3401L164.769 38.3646C164.46 38.4055 164.225 39.098 164.067 40.4423ZM178.43 15.326C178.884 15.2661 179.201 15.592 179.378 16.3037L179.607 18.038C180.16 22.2293 180.864 27.808 181.72 34.7741C182.383 33.9094 183.045 33.4335 183.706 33.3463C185.378 33.1258 186.702 34.7997 187.677 38.3681C188.095 41.0647 188.559 43.3877 189.068 45.337C189.115 45.688 188.826 46.0516 188.204 46.4278C187.456 46.1694 187.054 45.8338 187 45.4208L187.111 45.3116L187.095 45.1877C185.963 38.9933 185.221 35.9192 184.87 35.9655C184.557 35.5026 184.292 35.2435 184.075 35.1882L183.765 35.229C182.853 36.2736 182.482 37.4463 182.654 38.7471L183.594 45.3974C183.425 46.0289 183.144 46.3704 182.752 46.4222C182.071 46.512 181.512 45.6195 181.076 43.7445C181.054 42.466 180.983 41.3725 180.864 40.4641L180.851 40.3712L180.777 40.2864L180.827 40.1853L180.725 39.4111L179.044 25.2333C178.491 22.9536 178.068 20.6988 177.773 18.4689L177.528 16.6107C177.469 15.8414 177.77 15.4131 178.43 15.326ZM194.147 33.198L196.046 33.2626L196.034 33.1697C196.488 33.1098 196.887 33.4248 197.23 34.1148L197.394 36.0782L197.574 37.4408C197.838 39.4436 198.325 40.9023 199.033 41.8171C198.936 42.3551 198.65 42.6554 198.175 42.718C197.494 42.8079 196.895 42.0886 196.379 40.5603L196.251 40.073L195.972 40.1097C195.461 41.9627 194.562 43.2682 193.275 44.026L192.827 44.2111C190.986 43.9498 189.927 42.7662 189.649 40.6602L189.624 40.4744C189.278 37.8523 190.273 35.5995 192.608 33.716L194.147 33.198ZM191.56 40.8177C191.841 41.831 192.239 42.3036 192.755 42.2355L192.848 42.2233C193.571 42.128 194.419 39.8 195.393 35.2393L195.381 35.1464L194.458 35.079L194.396 35.0872C192.745 35.305 191.756 36.8849 191.429 39.8267L191.56 40.8177ZM202.883 30.628C203.956 30.4864 204.667 30.8548 205.013 31.7333C205.071 32.1669 204.817 32.4734 204.253 32.6529L203.974 32.6897C203.681 32.5393 203.431 32.4777 203.225 32.5049L202.946 32.5417C201.66 33.2995 201.093 34.2565 201.245 35.4127L201.282 35.6915C201.475 36.3592 201.84 36.6576 202.377 36.5868L202.655 36.5501L204.739 35.8656C205.809 35.8506 206.403 36.2973 206.523 37.2058C206.7 38.5478 206.074 40.0903 204.644 41.8333C203.956 42.5122 203.22 42.9033 202.436 43.0068C200.97 42.885 200.18 42.3905 200.066 41.5234C200.204 40.98 200.521 40.6756 201.017 40.6103L202.067 41.165L202.562 41.0996C203.993 40.3227 204.623 39.2839 204.451 37.9832L204.311 37.8756C203.82 38.1295 203.254 38.2987 202.614 38.3831C201.086 38.5846 200.016 37.7175 199.403 35.7817C199.166 33.9854 199.974 32.3874 201.827 30.9877L202.883 30.628ZM218.577 17.7505C220.332 17.5191 221.773 18.6523 222.901 21.1503L223.015 22.0175C223.255 23.8344 222.515 26.2637 220.794 29.3054L220.815 29.4602C221.682 29.3458 222.593 29.9609 223.547 31.3054L223.94 32.6085C224.324 35.5197 223.292 38.0504 220.845 40.2007C220.444 40.5056 219.965 40.6949 219.407 40.7684C217.764 40.733 216.891 40.3231 216.787 39.5385C216.853 39.2358 217.044 38.9375 217.363 38.6434L217.92 38.5699C218.418 38.8403 218.77 38.9619 218.976 38.9347L219.472 38.8694C220.566 38.725 221.456 37.1898 222.141 34.2636L222.161 33.6939L222.006 32.517C221.886 31.6086 221.372 31.2143 220.463 31.3341C219.906 31.4076 218.96 31.7214 217.625 32.2755C217.056 32.0985 216.744 31.8036 216.69 31.3907C216.657 31.1429 217.352 30.3581 218.774 29.0362C220.581 26.1722 221.385 23.9866 221.186 22.4793L221.112 21.9219C220.703 20.2534 219.941 19.4926 218.826 19.6397L218.64 19.6642C217.835 19.7704 217.172 20.3199 216.652 21.3128L216.94 22.0625C216.778 22.588 216.491 22.878 216.078 22.9325C215.323 22.78 214.895 22.3218 214.794 21.5579C214.609 20.1539 215.777 18.8971 218.298 17.7873L218.577 17.7505ZM236.95 26.1348C238.023 25.9932 238.734 26.3616 239.08 27.2401C239.138 27.6737 238.884 27.9802 238.319 28.1597L238.041 28.1965C237.748 28.0461 237.498 27.9845 237.292 28.0117L237.013 28.0485C235.727 28.8063 235.16 29.7633 235.312 30.9195L235.349 31.1983C235.542 31.866 235.907 32.1644 236.444 32.0936L236.722 32.0569L238.806 31.3724C239.876 31.3574 240.47 31.8042 240.59 32.7126C240.767 34.0546 240.141 35.5971 238.711 37.3401C238.023 38.019 237.287 38.4102 236.503 38.5136C235.037 38.3918 234.247 37.8973 234.133 37.0302C234.271 36.4868 234.588 36.1824 235.084 36.1171L236.134 36.6718L236.629 36.6064C238.06 35.8295 238.69 34.7907 238.518 33.49L238.378 33.3824C237.886 33.6363 237.321 33.8055 236.681 33.8899C235.153 34.0914 234.083 33.2243 233.47 31.2885C233.233 29.4922 234.041 27.8943 235.894 26.4945L236.95 26.1348ZM242.311 21.3945C242.848 21.3237 243.224 21.6312 243.441 22.3168C243.485 22.6472 243.3 22.9971 242.886 23.3667L242.577 23.4076C241.998 23.4838 241.663 23.171 241.571 22.469C241.651 21.8072 241.898 21.449 242.311 21.3945ZM243.079 25.5469C243.795 25.5575 244.129 26.5743 244.08 28.5972C244.048 30.261 244.367 33.0021 245.039 36.8206C244.808 37.4602 244.44 37.7714 243.933 37.7542C243.344 37.7478 242.972 36.7571 242.816 34.7821C242.323 31.3602 242.12 28.4672 242.207 26.103C242.208 25.7879 242.498 25.6025 243.079 25.5469ZM249.736 9.60771C249.984 9.57503 250.277 9.72545 250.615 10.059L250.922 12.3817C251.826 19.2364 253.362 26.5853 255.531 34.4285L256.451 36.3868C256.374 36.922 256.088 37.2223 255.593 37.2876C254.953 37.3721 254.396 36.6577 253.924 35.1446L253.707 35.1732C253.036 35.976 252.328 36.4263 251.585 36.5244C249.892 36.7477 248.488 35.8195 247.374 33.7399C247.01 33.0527 246.763 32.2135 246.632 31.2225C246.322 28.8688 246.891 27.1342 248.34 26.0188L249.014 25.867L249.107 25.8547C249.726 25.773 250.507 25.9641 251.451 26.4278L251.575 26.4115L251.562 26.3186C250.406 21.0516 249.604 16.7251 249.157 13.3391L248.884 11.2641C248.75 10.2524 249.034 9.70029 249.736 9.60771ZM248.478 30.8845L248.572 31.5968C248.774 33.1247 249.477 34.1557 250.681 34.69L251.34 34.6662C252.331 34.5355 252.699 33.4997 252.443 31.5589L252.328 30.6918C252.097 28.9368 251.043 27.952 249.166 27.7374C248.5 28.2663 248.271 29.3154 248.478 30.8845ZM259.001 23.951C260.157 23.7985 261.08 24.7377 261.768 26.7686C261.538 29.1724 260.588 30.4847 258.915 30.7052L258.791 30.7216L258.804 30.8145C259.382 32.6498 260.383 33.4734 261.808 33.2855C262.902 33.1412 263.666 32.0847 264.1 30.116L264.744 29.7474C265.198 29.6875 265.534 30.0004 265.75 30.686C265.919 31.9661 265.077 33.306 263.224 34.7057L261.774 35.1805C259.999 35.4147 258.499 34.3206 257.277 31.8981C256.895 30.9191 256.661 30.0993 256.574 29.4386L256.521 29.036C256.243 26.93 256.919 25.2864 258.549 24.1052L259.001 23.951ZM258.37 28.0044L258.378 28.0663L259.153 28.6888C259.463 28.6479 259.696 28.1865 259.853 27.3046L259.788 26.8091C259.6 26.1827 259.424 25.8804 259.259 25.9021L259.073 25.9267C258.763 25.9675 258.529 26.6601 258.37 28.0044ZM269.964 21.7805C271.037 21.6389 271.747 22.0073 272.094 22.8858C272.152 23.3194 271.898 23.6259 271.333 23.8054L271.055 23.8422C270.762 23.6918 270.512 23.6302 270.306 23.6574L270.027 23.6942C268.74 24.452 268.174 25.409 268.326 26.5652L268.363 26.844C268.556 27.5117 268.921 27.8101 269.458 27.7393L269.736 27.7026L271.82 27.0181C272.889 27.0031 273.484 27.4498 273.604 28.3583C273.781 29.7003 273.155 31.2428 271.725 32.9858C271.037 33.6647 270.301 34.0558 269.517 34.1593C268.051 34.0375 267.261 33.543 267.147 32.6759C267.285 32.1325 267.602 31.8281 268.098 31.7628L269.148 32.3175L269.643 32.2521C271.074 31.4752 271.704 30.4364 271.532 29.1357L271.392 29.0281C270.9 29.282 270.335 29.4512 269.695 29.5356C268.167 29.7371 267.097 28.87 266.484 26.9342C266.247 25.1379 267.055 23.5399 268.908 22.1402L269.964 21.7805ZM277.56 8.4271C279.047 8.23104 280.084 9.32313 280.671 11.7034C280.929 13.6648 279.922 15.7407 277.648 17.9312C277.437 18.4001 277.35 18.7792 277.388 19.0682L277.401 19.1611C277.6 20.6683 278.136 22.509 279.011 24.6833C278.834 25.2528 278.55 25.5634 278.157 25.6151C277.394 25.7159 276.664 24.2471 275.969 21.2089C275.866 21.2225 275.732 20.6836 275.567 19.592C275.39 18.25 276.235 16.6156 278.103 14.6888C278.719 13.7883 278.982 12.9974 278.893 12.316L278.827 11.8205C278.68 10.7056 278.318 10.1863 277.739 10.2625L277.616 10.2788C276.112 10.9813 275.465 12.1275 275.674 13.7172C275.367 14.0939 275.1 14.2972 274.873 14.3271C274.295 14.4034 273.959 14.0905 273.867 13.3885C273.605 11.4064 274.682 9.77307 277.096 8.48837L277.56 8.4271ZM279.056 30.7585C279.49 30.7013 279.852 30.9791 280.143 31.592C279.995 32.2207 279.714 32.5622 279.301 32.6167L279.178 32.633C278.501 32.5963 278.131 32.3405 278.068 31.8656C278.003 31.3701 278.332 31.0011 279.056 30.7585Z" fill="#FF8EF4"/>
<path fill-rule="evenodd" clip-rule="evenodd" d="M240.433 73.265C245.123 73.4552 255.291 73.672 263.029 73.7469C270.768 73.8218 277.183 73.9698 277.286 74.0757C277.389 74.1818 277.615 78.6403 277.789 83.9837C278.253 98.2214 277.937 116.367 276.98 130.387C276.648 135.256 276.388 135.941 274.61 136.645C273.886 136.932 272.27 137.022 259 136.996L258.521 135.267C266.356 134.93 275.458 134.296 275.685 134.071C275.767 133.99 275.834 124.355 275.832 112.661C275.83 93.3487 275.595 82.9549 275.026 77.0375L274.874 75.4603L272.77 75.3072C268.716 75.0119 249.322 74.5814 232.422 74.4114C223.042 74.3168 215.251 74.2173 215.109 74.1902C214.967 74.1631 211.304 74.3132 206.969 74.5241C202.634 74.7348 193.403 75.1336 186.456 75.41C179.508 75.6866 173.797 75.9456 173.765 75.9855C173.624 76.158 172.571 89.1683 172.187 95.4886C171.816 101.601 171.808 103.226 172.12 109.678C172.638 120.413 172.592 128.652 171.997 131.537C171.63 133.319 171.586 134.001 171.804 134.561L172.086 135.283L184.424 135.2C191.209 135.154 199.088 135.218 214.153 135.342L214 136.848C177.941 136.645 171.961 136.349 171.047 135.882C170.147 135.422 169.918 134.519 170.269 132.816C170.807 130.207 170.872 123.559 170.421 117.363C169.775 108.495 169.852 102.982 170.794 90.5031C170.937 88.6048 171.056 84.2537 171.058 80.8342C171.062 74.6865 171.069 74.61 171.658 74.0276L172.253 73.4383L199.754 73.2719C214.879 73.1801 228.3 73.0635 229.579 73.0123C230.859 72.961 235.743 73.0747 240.433 73.265ZM173.018 74.4295C171.962 74.9053 171.782 75.7513 172.014 79.1393L172.224 82.194L172.556 78.7426C172.739 76.8443 172.969 75.2203 173.067 75.1339C173.166 75.0474 177.2 74.8327 182.032 74.6568C186.865 74.4806 190.867 74.2925 190.926 74.2385C190.985 74.1846 187.124 74.1406 182.346 74.1406C176.44 74.1406 173.453 74.2332 173.018 74.4295ZM276.238 82.2579C276.087 79.4809 275.964 76.6336 275.964 75.9303C275.964 75.2272 276.065 74.6519 276.189 74.6519C276.604 74.6519 276.726 77.2646 276.843 88.7135C276.941 98.3464 276.924 99.1106 276.735 93.6989C276.612 90.1835 276.388 85.0352 276.238 82.2579ZM267.953 135.686C265.349 135.845 265.141 135.889 266.273 136.045C269.461 136.483 274.108 136.183 274.757 135.498C274.998 135.244 274.638 135.212 272.992 135.342C271.855 135.431 269.588 135.586 267.953 135.686ZM171.238 113.002C171.238 113.634 171.188 113.893 171.126 113.577C171.065 113.261 171.065 112.743 171.126 112.426C171.188 112.11 171.238 112.369 171.238 113.002ZM170.857 107.427C170.902 109.017 170.94 107.786 170.94 104.692C170.94 101.599 170.903 100.298 170.857 101.802C170.812 103.306 170.812 105.837 170.857 107.427Z" fill="#53EB12"/>
<path d="M241.467 117.195C241.3 116.927 239.828 116.273 238.995 116.096C237.791 115.841 236.253 116.088 233.959 116.906C232.415 117.456 231.276 117.712 229.886 117.819C228.535 117.924 227.436 118.164 226.215 118.623C225.257 118.984 223.731 119.381 222.824 119.506C220.791 119.786 216.501 119.79 214.348 119.514C212.628 119.293 208.598 118.323 208.24 118.043C208.122 117.95 207.69 117.828 207.281 117.771C204.186 117.343 202.951 120.586 205.024 123.699C207.407 127.279 210.75 129.815 214.906 131.193C216.867 131.844 220.767 132.696 221.781 132.696C222.267 132.696 222.308 132.757 222.172 133.281C221.259 136.802 220.919 138.944 220.903 141.303C220.886 143.707 220.921 143.926 221.51 145.128C222.283 146.702 224.679 149.125 227.172 150.852C229.542 152.494 230.757 152.953 232.783 152.971C234.252 152.984 234.561 152.906 236.286 152.085C237.327 151.59 238.464 150.983 238.814 150.737C239.163 150.49 239.478 150.322 239.514 150.365C239.587 150.448 243.601 158.04 246.072 162.766C247.741 165.959 247.997 166.358 247.997 165.775C247.997 164.165 241.436 150.609 239.882 149.009C239.542 148.658 239.471 148.676 238.535 149.336C237.049 150.383 234.947 151.374 233.744 151.593C231.635 151.979 230.103 151.399 226.993 149.037C221.811 145.103 221.228 143.064 223.07 135.31L223.64 132.909H224.554C225.056 132.909 225.527 133.005 225.6 133.121C225.673 133.238 226.093 133.334 226.534 133.334C227.478 133.334 228.985 134.217 229.333 134.974C229.46 135.252 229.565 135.864 229.565 136.333V137.188L228.884 136.707C228.134 136.178 227.132 136.112 226.123 136.527C225.253 136.884 225.334 137.159 226.308 137.159C227.332 137.159 229.136 138.231 229.136 138.839C229.136 139.067 228.807 139.88 228.404 140.646L227.671 142.039L228.271 141.732C230.1 140.794 231.329 137.764 230.826 135.434C230.422 133.57 228.608 132.075 226.738 132.064C226.303 132.061 225.887 131.963 225.814 131.846C225.741 131.729 225.193 131.634 224.596 131.634C223.259 131.634 219.398 131.084 217.682 130.649C212.434 129.319 208.887 127.001 206.349 123.242C205.25 121.616 205.042 120.471 205.679 119.568C206.095 118.979 206.762 118.971 208.453 119.535C211.479 120.543 214.612 121 218.527 121.004C222.353 121.007 224.79 120.65 227.052 119.755C229.488 118.791 230.451 118.846 233.729 120.136C235.183 120.708 236.697 121.245 237.094 121.33L237.816 121.483L237.2 120.997C236.861 120.729 235.827 120.059 234.902 119.508L233.22 118.506L234.447 118.061C237.232 117.051 238.825 117.084 240.694 118.193C241.233 118.513 241.951 118.895 242.288 119.042C243.416 119.531 244.14 119.289 243.391 118.673C242.904 118.272 243.211 118.033 244.205 118.038C246.067 118.048 248.099 119.397 249.573 121.603C251.945 125.155 252.993 129.606 252.88 135.659L252.819 138.941L251.349 139.21C249.831 139.487 249.165 139.804 248.165 140.725C247.36 141.468 247.614 141.678 248.74 141.2C249.259 140.979 250.258 140.686 250.96 140.55C252.674 140.215 253.056 140.424 255.055 142.791C258.461 146.822 263 151.099 263 150.274C263 150.11 262.796 149.793 262.547 149.571C261.891 148.984 254.528 140.294 254.249 139.777C254.119 139.537 254.061 139.293 254.119 139.235C254.177 139.178 254.227 137.512 254.23 135.533C254.239 129.895 253.451 126.001 251.574 122.403C249.382 118.202 245.661 115.987 242.558 117.035C242.017 117.218 241.526 117.29 241.467 117.195Z" fill="white"/>
<path fill-rule="evenodd" clip-rule="evenodd" d="M136.846 136.902C138.319 136.643 138.37 135.944 137.066 133.933C134.47 129.931 132.755 127.034 131.491 124.514C130.731 123.001 128.161 118.437 125.779 114.372C121.049 106.299 115.118 95.8311 115.118 95.555C115.118 95.3826 111.632 89.6239 104.552 78.0972C102.54 74.8229 100.078 70.8078 99.0792 69.1749C98.0808 67.5419 97.026 66.1145 96.7352 66.0029C96.2076 65.801 89.8502 76.074 84.9743 85.0068C83.6283 87.4732 82.0493 90.2514 81.4661 91.1805C80.8824 92.1097 78.755 95.9457 76.7389 99.7051C74.7222 103.464 72.3686 107.632 71.5087 108.966C70.6484 110.3 69.0253 113.078 67.9021 115.139C66.7784 117.201 63.6412 122.739 60.9297 127.446C58.2182 132.153 56 136.171 56 136.375C56 136.58 72.0311 136.748 91.6251 136.749C111.219 136.751 129.136 136.834 131.441 136.933C133.746 137.033 136.179 137.019 136.846 136.902ZM58.7459 134.322C58.9952 133.837 59.836 132.348 60.6147 131.014C61.3934 129.68 63.5887 125.811 65.4937 122.415C67.3983 119.02 70.6753 113.364 72.7758 109.848C74.8762 106.331 77.5471 101.667 78.7109 99.4846C79.8752 97.3017 81.7617 93.9283 82.9034 91.988C84.0452 90.0477 87.1449 84.625 89.7911 79.9374C92.4377 75.2498 95.1024 70.8144 95.713 70.0811L96.823 68.7476L98.188 70.8867C98.9389 72.0633 100.596 74.8119 101.869 76.9947C103.143 79.1776 105.029 82.2534 106.06 83.8299C110.757 91.0156 113.775 96.0339 117.329 102.571C119.439 106.452 122.391 111.687 123.889 114.204C125.387 116.722 127.804 120.988 129.258 123.685C130.712 126.382 132.767 129.978 133.824 131.676C135.666 134.637 135.707 134.774 134.806 135.028C134.29 135.174 116.864 135.273 96.0805 135.249C58.4432 135.204 58.295 135.2 58.7459 134.322Z" fill="#FF0000"/>
<path d="M175.258 109.106C175.69 108.862 176.615 110.059 178.032 112.697C179.455 115.314 180.471 117.163 181.081 118.244L181.122 118.221L182.235 117.352C182.657 117.185 182.964 117.271 183.154 117.608C183.413 118.068 183.117 118.538 182.266 119.018L181.842 119.498L185.855 126.184C186.06 126.674 185.981 127.021 185.616 127.227C185.183 127.471 184.788 127.276 184.43 126.641L183.526 125.04L180.936 120.543L180.741 120.386L179.883 120.95C179.459 121.083 179.152 120.98 178.961 120.642C178.725 120.223 179.073 119.751 180.005 119.225L179.959 119.144C178.984 117.414 177.307 114.38 174.929 110.039C174.739 109.701 174.848 109.39 175.258 109.106ZM178.274 104.839C178.571 104.671 178.88 104.809 179.201 105.251L179.841 106.386C181.389 109.129 183.427 112.788 185.955 117.364C186.173 116.582 186.498 116.069 186.931 115.825C188.025 115.208 189.405 115.996 191.071 118.191C192.11 119.938 193.077 121.415 193.971 122.62C194.1 122.85 194.002 123.181 193.677 123.614C193.088 123.644 192.717 123.524 192.564 123.253L192.611 123.147L192.565 123.066C190.061 119.1 188.693 117.182 188.464 117.311C188.119 117.078 187.863 116.973 187.698 116.995L187.495 117.11C187.155 118.085 187.225 118.999 187.705 119.85L190.204 124.184C190.263 124.668 190.164 124.982 189.907 125.126C189.462 125.378 188.827 124.917 188.004 123.742C187.634 122.865 187.281 122.129 186.946 121.534L186.911 121.473L186.836 121.435L186.843 121.352L186.557 120.845L181.453 111.515C180.437 110.093 179.517 108.653 178.694 107.194L178.008 105.978C177.753 105.463 177.842 105.083 178.274 104.839ZM190.019 110.502C190.37 110.304 190.716 110.412 191.056 110.826C191.178 111.042 191.148 111.335 190.965 111.705L190.762 111.82C190.384 112.033 190.065 111.91 189.806 111.451C189.678 110.971 189.749 110.655 190.019 110.502ZM191.705 113.158C192.202 112.967 192.715 113.577 193.244 114.988C193.685 116.147 194.668 117.952 196.194 120.404C196.212 120.91 196.044 121.228 195.689 121.357C195.28 121.516 194.748 120.935 194.091 119.613C192.798 117.386 191.854 115.443 191.257 113.785C191.169 113.567 191.319 113.358 191.705 113.158ZM196.144 110.467C196.846 110.07 197.44 110.127 197.924 110.638C198.084 110.922 197.994 111.204 197.654 111.485L197.471 111.588C197.227 111.565 197.037 111.592 196.902 111.668L196.72 111.771C196.041 112.653 195.916 113.472 196.343 114.228L196.446 114.411C196.765 114.819 197.1 114.923 197.451 114.725L197.634 114.622L198.883 113.57C199.618 113.262 200.153 113.405 200.489 114C200.984 114.878 200.98 116.118 200.477 117.72C200.19 118.381 199.791 118.856 199.277 119.145C198.231 119.469 197.547 119.347 197.227 118.779C197.172 118.365 197.306 118.067 197.63 117.884L198.51 117.975L198.834 117.792C199.607 116.857 199.753 115.964 199.273 115.113L199.146 115.078C198.877 115.39 198.533 115.664 198.114 115.901C197.115 116.465 196.134 116.163 195.172 114.996C194.509 113.82 194.623 112.491 195.515 111.009L196.144 110.467ZM206.738 105.424C208.136 105.188 209.475 106.124 210.755 108.234L210.823 108.356C211.783 110.183 211.938 111.547 211.289 112.448L210.767 112.85C209.123 113.314 207.787 112.634 206.758 110.81L206.723 110.749C205.61 108.777 205.502 107.101 206.399 105.723L206.738 105.424ZM207.816 109.892L208.068 110.338C208.933 111.524 209.683 111.938 210.318 111.58C210.454 110.969 210.194 110.082 209.539 108.92L209.47 108.799C208.587 107.391 207.911 106.73 207.443 106.816C206.929 107.516 207.054 108.541 207.816 109.892ZM213.039 101.629C214.465 100.967 215.945 102.296 217.479 105.616L218.335 107.511C218.528 108.043 218.422 108.406 218.014 108.6C217.634 108.779 217.335 108.627 217.116 108.145L216.149 106.099C215.035 103.682 214.169 102.621 213.552 102.916C212.886 103.22 213.105 104.682 214.209 107.301L215.525 109.444C215.658 109.743 215.512 110.021 215.087 110.278C214.565 110.52 213.971 109.91 213.308 108.45L210.203 104.084C210.055 103.758 210.209 103.448 210.667 103.154C210.958 103.007 211.299 103.216 211.688 103.78L211.781 103.755C211.962 102.655 212.381 101.946 213.039 101.629ZM217.909 98.8006C218.666 98.3738 219.564 98.7664 220.604 99.9785C221.114 101.703 220.822 102.875 219.728 103.492L219.647 103.538L219.681 103.599C220.591 104.706 221.512 104.997 222.444 104.471C223.16 104.067 223.394 103.124 223.147 101.643L223.49 101.209C223.787 101.042 224.106 101.165 224.446 101.578C224.918 102.416 224.709 103.576 223.818 105.059L222.948 105.79C221.786 106.445 220.446 106.106 218.927 104.772C218.392 104.202 218.002 103.7 217.758 103.268L217.609 103.004C216.832 101.626 216.842 100.302 217.639 99.033L217.909 98.8006ZM218.6 101.777L218.623 101.818L219.332 102.032C219.534 101.918 219.567 101.534 219.43 100.881L219.247 100.557C218.944 100.176 218.738 100.016 218.63 100.077L218.508 100.146C218.305 100.26 218.336 100.804 218.6 101.777Z" fill="#04FFFE"/>
</g>
<defs>
<clipPath id="clip0">
<rect width="346" height="180" fill="white"/>
</clipPath>
</defs>
</svg>
