<svg width="170" height="174" viewBox="0 0 170 174" fill="none" xmlns="http://www.w3.org/2000/svg">
<path fill-rule="evenodd" clip-rule="evenodd" d="M84.2843 0.230191C83.817 0.308018 82.6054 0.605052 81.5916 0.890191C78.745 1.69055 25.3974 25.7738 24.7245 26.5622C23.4188 28.0929 24.4669 30.5827 26.417 30.5827C26.9271 30.5827 39.7356 25.0145 54.8799 18.2086C73.9153 9.65406 83.0761 5.70561 84.5569 5.41639C87.2108 4.89811 90.9601 5.16524 93.4604 6.05057C94.4885 6.41455 110.394 13.7714 128.805 22.3993C165.152 39.4316 164.222 38.9259 164.667 41.8965C164.939 43.7107 164.006 46.1899 162.738 47.0199C161.945 47.5388 145.329 55.3922 145.024 55.3922C144.936 55.3922 144.765 54.9008 144.645 54.2999C144.27 52.4246 141.835 47.8379 140.06 45.6652C134.032 38.2842 122.439 33.9062 104.676 32.3031C94.2689 31.3637 75.3692 31.5962 64.6253 32.7955C50.54 34.3681 41.8332 37.9029 35.4225 44.6514C32.7774 47.4362 31.6236 49.3326 30.3485 52.9908C29.8553 54.4049 29.4139 55.6135 29.3673 55.676C29.2317 55.8588 11.5255 47.827 10.3829 47.0644C8.23845 45.6333 7.56587 42.5885 8.84203 40.0871C9.45038 38.8953 9.9673 38.5326 13.4165 36.8809C17.5349 34.9088 18.5945 33.9443 18.1704 32.5536C17.7918 31.3121 16.9643 30.5827 15.9352 30.5827C14.5499 30.5827 8.06036 33.5374 6.48649 34.885C3.59636 37.3588 2.36234 42.129 3.58718 46.0934C4.09323 47.7315 4.61389 48.4931 6.51946 50.3814L8.83626 52.6778V64.4739V76.2699L4.41813 89.5607C1.98816 96.8706 0 103.384 0 104.034C0 105.827 1.49843 108.518 3.12464 109.646L4.52756 110.619L10.8451 110.722C16.9456 110.822 17.2154 110.798 18.6921 110.016C20.7214 108.943 22.1399 106.898 22.3462 104.748C22.4866 103.288 21.9663 101.447 18.2204 90.1459L13.9341 77.214V65.9631C13.9341 59.7753 14.0612 54.7125 14.2165 54.7125C14.7878 54.7125 28.709 61.1433 28.813 61.4553C28.8721 61.6327 28.603 63.022 28.2145 64.5428C27.2904 68.162 26.5132 73.3873 26.5108 75.9974C26.5091 77.7741 26.3334 78.3712 25.3155 80.0617C22.5739 84.6147 22.4686 89.5209 25.0056 94.527C26.7722 98.0132 30.9055 101.173 34.4954 101.782C35.2431 101.908 36.1036 102.079 36.4074 102.162C36.7357 102.251 37.3441 103.377 37.9052 104.936C39.2483 108.667 41.7421 113.545 44.1354 117.122C48.1277 123.092 55.5162 129.894 61.5306 133.14C62.8234 133.838 63.88 134.485 63.8783 134.579C63.8766 134.672 63.0766 135.284 62.0998 135.938C59.4432 137.718 54.067 143.053 51.9161 146.043C49.5636 149.314 47.2872 153.795 45.8265 158.029C44.8763 160.783 44.7111 161.735 44.7019 164.511C44.6917 167.548 44.7597 167.877 45.7205 169.439C46.839 171.258 49.2533 173.094 51.2581 173.651C52.0598 173.874 62.1464 173.999 79.4036 174C104.521 174.002 106.347 173.963 107.016 173.407C107.41 173.08 107.826 172.325 107.941 171.73C108.11 170.858 107.981 170.48 107.278 169.776L106.406 168.904H79.6782C55.6443 168.904 52.8323 168.848 51.7794 168.348C49.536 167.284 49.1184 165.115 50.3136 160.741C50.9648 158.359 53.7462 152.173 54.796 150.772C55.246 150.172 55.9831 150.355 70.914 154.766C79.5195 157.308 86.9022 159.388 87.3199 159.388C87.7376 159.388 94.7573 157.412 102.92 154.996C111.082 152.581 118.149 150.507 118.624 150.389C119.428 150.189 119.601 150.387 121.107 153.243C122.981 156.798 124.663 161.533 124.919 163.976C125.132 166.008 124.668 167.044 123.058 168.129C122.102 168.773 121.455 168.904 119.224 168.904C116.827 168.904 116.45 168.994 115.706 169.738C114.629 170.815 114.643 172.105 115.743 173.205C116.587 174.05 116.727 174.073 120.077 173.937C123.94 173.781 125.074 173.367 127.22 171.331C130.05 168.644 130.721 165.531 129.496 160.77C128.1 155.34 125.644 150.161 122.235 145.454C120.356 142.86 115.073 137.664 112.737 136.113C111.668 135.403 110.793 134.721 110.793 134.598C110.793 134.475 111.943 133.72 113.35 132.919C119.534 129.401 125.688 123.818 129.901 117.905C132.431 114.354 135.452 108.5 136.644 104.841C137.069 103.533 137.465 102.402 137.523 102.328C137.581 102.254 138.431 102.066 139.412 101.911C143.733 101.228 147.923 97.9058 149.966 93.5441C150.87 91.6124 151.063 90.7478 151.179 88.1071C151.336 84.5315 150.8 82.3574 149.163 79.9298C148.446 78.8671 148.177 78.0603 148.177 76.9734C148.177 74.6356 147.237 68.0464 146.483 65.0965C145.296 60.4578 144.466 61.2853 155.367 56.2419C165.901 51.3676 167.255 50.4674 168.8 47.3104C169.586 45.7039 169.748 44.9318 169.741 42.8196C169.728 38.2516 167.629 35.0862 163.2 32.9566C156.641 29.8028 99.0667 2.81989 97.0683 1.96346C93.1702 0.292385 88.0597 -0.400242 84.2843 0.230191ZM105.355 37.5484C117.986 38.7882 125.162 40.7675 131.21 44.6796C136.407 48.0418 139.405 52.5432 140.316 58.3537L140.597 60.1502H87.2917C35.7569 60.1502 33.9856 60.1295 33.9856 59.5249C33.9856 59.1809 34.2877 57.7182 34.6568 56.2745C36.3034 49.8369 39.9878 45.7787 47.3494 42.2945C53.4937 39.3864 61.8572 37.8992 77.6571 36.9051C82.009 36.6311 100.351 37.0573 105.355 37.5484ZM41.4624 65.4438C41.4624 65.5512 40.8646 66.6629 40.1339 67.9142C39.4032 69.1652 38.2392 71.5626 37.5473 73.2411C36.8553 74.92 36.2681 76.3165 36.2419 76.3447C36.2161 76.3732 35.1387 76.5082 33.848 76.6448L31.5013 76.8936L31.7341 74.1037C31.941 71.6221 32.6585 67.488 33.1676 65.8428C33.3293 65.3198 33.8415 65.248 37.4069 65.248C39.6374 65.248 41.4624 65.3361 41.4624 65.4438ZM127.894 67.2393C132.759 73.8484 134.978 81.536 134.461 89.995C133.712 102.25 128.558 113.253 119.518 121.896C111.295 129.757 101.284 134.099 89.7985 134.786C66.1791 136.198 44.6741 118.87 40.6475 95.1805C39.9864 91.2919 39.9562 84.3806 40.5846 80.8814C41.3809 76.446 43.9532 70.7717 47.0116 66.703L48.0896 65.2691L87.2587 65.2586L126.428 65.248L127.894 67.2393ZM141.666 66.8624C142.195 69.3603 142.673 72.3429 142.926 74.7229L143.156 76.8905L140.824 76.6472C139.541 76.5133 138.4 76.3025 138.287 76.1788C138.175 76.0548 137.666 74.883 137.157 73.5745C136.315 71.412 134.557 67.9676 133.298 66.0127L132.806 65.248H137.065H141.324L141.666 66.8624ZM35.0619 86.1033C34.9889 88.6016 35.1071 91.9835 35.325 93.6189C35.5425 95.2543 35.6526 96.6603 35.5697 96.7435C35.2961 97.0171 32.9303 95.864 31.5947 94.806C28.5639 92.4056 27.4179 87.0845 29.1664 83.5303L29.9535 81.9309L32.2245 81.8126C33.4734 81.7474 34.6527 81.6645 34.8451 81.6277C35.0759 81.5839 35.1496 83.1051 35.0619 86.1033ZM144.371 82.0937C145.224 82.3622 146.181 85.2244 146.181 87.5086C146.181 91.2749 144.317 94.3231 140.966 96.0353C140.085 96.4859 139.228 96.8547 139.063 96.8547C138.892 96.8547 138.904 96.0842 139.089 95.0704C139.269 94.0892 139.435 90.6686 139.459 87.4692L139.502 81.6522L141.716 81.8035C142.933 81.8864 144.128 82.0169 144.371 82.0937ZM66.1822 84.0251C64.9771 84.9403 64.4992 88.4306 65.2744 90.6543C65.6809 91.8207 67.1773 92.6265 68.2839 92.2751C69.7588 91.8071 70.0103 91.1838 70.0103 87.9943C70.0103 85.4127 69.9087 84.8581 69.3306 84.28C68.5636 83.5129 67.021 83.3882 66.1822 84.0251ZM105.17 84.4346C104.422 85.1826 104.336 85.5521 104.336 88.0184C104.336 90.4847 104.422 90.8542 105.17 91.6022C105.629 92.061 106.4 92.4365 106.885 92.4365C107.369 92.4365 108.14 92.061 108.599 91.6022C109.352 90.8494 109.434 90.4905 109.434 87.9232C109.434 85.3886 109.348 84.9974 108.647 84.3391C107.604 83.359 106.207 83.3974 105.17 84.4346ZM17.3327 104.047C17.3327 105.471 16.5167 105.691 11.2438 105.691C3.97224 105.691 4.23529 106.45 7.79154 95.728C9.35284 91.0203 10.7802 86.7864 10.9631 86.3191C11.2503 85.5847 11.705 86.6902 14.3141 94.4709C15.9743 99.4216 17.3327 103.731 17.3327 104.047ZM80.2308 88.2342C79.2959 89.4223 79.3421 90.466 80.3838 91.7045C81.7894 93.3745 84.3964 94.4757 86.9454 94.4757C89.932 94.4757 91.563 93.9159 93.3866 92.2646C94.6033 91.1634 94.933 90.6346 94.933 89.7857C94.933 87.3013 92.4935 86.5608 90.2318 88.3583C88.3493 89.8543 86.5525 89.8482 84.3594 88.3392C82.5181 87.0726 81.1715 87.0383 80.2308 88.2342ZM74.752 144.805C77.7801 148.748 80.2077 152.018 80.1469 152.073C80.051 152.16 60.5243 146.455 59.1349 145.934C58.7655 145.796 59.2801 145.117 61.0042 143.47C63.1633 141.407 68.3162 137.637 68.9772 137.637C69.1254 137.637 71.7242 140.863 74.752 144.805ZM108.652 139.525C112.29 141.994 116.25 145.665 115.551 145.922C114.459 146.323 94.3321 152.216 94.2767 152.151C94.1279 151.976 105.225 137.676 105.525 137.657C105.712 137.645 107.119 138.485 108.652 139.525ZM82.9527 139.717C87.012 140.11 92.3032 139.877 96.7957 139.106C97.888 138.919 97.7657 139.118 92.7175 145.732C89.8549 149.482 87.4225 152.56 87.3121 152.571C87.1462 152.588 81.8047 145.749 77.6741 140.231L76.6712 138.891L77.6741 139.097C78.2253 139.21 80.6009 139.489 82.9527 139.717Z" fill="white"/>
</svg>
