<svg width="173" height="174" viewBox="0 0 173 174" fill="none" xmlns="http://www.w3.org/2000/svg">
<path fill-rule="evenodd" clip-rule="evenodd" d="M80.7436 0.0962686C75.5974 0.706835 71.5486 1.4123 68.3539 2.25417C59.0709 4.70086 50.2866 9.00305 42.933 14.7053L40.1076 16.8959L36.9769 17.2455C31.0728 17.9051 26.2195 19.5704 21.6368 22.51C19.2506 24.041 14.4386 28.6296 13.9866 29.8055C13.3892 31.3593 14.8209 33.2294 16.6077 33.2294C16.8864 33.2294 18.4525 31.9559 20.0876 30.3994C21.7224 28.8425 23.9999 26.9959 25.1482 26.2952C27.1707 25.0608 32.1686 23.025 33.1756 23.025C33.4624 23.025 32.7104 24.1794 31.3881 25.7679C23.1758 35.6367 17.5528 48.4858 16.0548 60.8073L15.6173 64.4044L13.4922 64.77C12.3236 64.971 10.5205 65.5251 9.4854 66.001L7.60374 66.8664V65.7779C7.60374 63.5451 8.63685 55.9292 9.44375 52.2117C10.3357 48.1031 11.2394 45.1285 12.5471 41.9984C13.6225 39.4252 13.6022 38.232 12.4679 37.336C10.7633 35.989 9.33879 36.6663 8.11539 39.4052C4.97985 46.4231 3.04876 55.9568 2.56894 66.7868C2.42605 70.0046 2.15347 72.84 1.96283 73.0873C1.32726 73.9112 0.517981 76.3646 0.174291 78.5079C-0.597741 83.3237 1.23956 88.8192 4.80276 92.3516C8.41573 95.933 12.3765 97.397 17.5928 97.0786L20.6402 96.8926L22.5707 100.903C29.843 116.014 43.7863 128.986 59.4958 135.256C60.5665 135.683 61.4428 136.107 61.4428 136.197C61.4428 136.287 60.5133 137.378 59.3773 138.623C54.0679 144.441 49.734 153.103 48.0965 161.174C47.8063 162.603 47.4135 165.555 47.2232 167.734C46.8406 172.12 47.1684 173.518 48.6664 173.887C49.0822 173.989 67.4024 174.03 89.3782 173.977L129.334 173.881L131.535 172.663C135.307 170.578 137.295 167.185 137.288 162.85C137.281 159.127 135.83 155.093 133.568 152.504L132.551 151.341V137.702V124.062L136.892 119.719C143.168 113.438 147.615 107.169 151.005 99.824L152.36 96.8892L155.407 97.0769C160.622 97.398 164.583 95.9344 168.197 92.3516C171.76 88.8192 173.598 83.3237 172.826 78.5079C172.486 76.3864 171.674 73.9149 171.053 73.1064C170.871 72.8696 170.595 70.0097 170.439 66.751C169.854 54.522 167.716 45.0006 163.788 37.1411C161.648 32.8597 159.952 30.4426 156.788 27.1636C151.134 21.3042 144.655 18.2095 136.023 17.2455L132.892 16.8959L130.067 14.7053C120.852 7.5598 109.226 2.57323 97.4849 0.729965C94.2525 0.222464 83.2036 -0.195579 80.7436 0.0962686ZM97.6741 5.97607C108.538 7.91185 118.198 12.0953 126.842 18.6075C130.706 21.5181 137.667 28.6663 140.339 32.4675C152.55 49.8361 155.749 70.6107 149.257 90.3743C146.219 99.6226 139.674 110.181 132.928 116.715L131.545 118.055L130.778 117.353C129.323 116.02 128.647 115.885 123.431 115.885C118.781 115.885 118.269 115.946 117.652 116.566C116.922 117.299 116.773 118.613 117.306 119.614C117.842 120.619 119.537 120.988 123.628 120.988H127.472V134.253C127.472 141.55 127.408 147.519 127.33 147.519C127.252 147.519 126.229 147.273 125.057 146.971C121.676 146.101 117.623 146.425 114.87 147.787C110.401 149.997 107.5 154.311 107.221 159.163L107.068 161.805H98.1387H89.2089V141.415V121.024L99.7356 120.921L110.262 120.818L111.079 119.863C112.08 118.694 112.107 117.948 111.194 116.782L110.492 115.885H99.054C87.7481 115.885 87.6028 115.894 86.4837 116.652C84.1314 118.244 83.974 118.895 83.8429 127.582L83.7254 135.366L80.7473 135.141C58.0124 133.417 36.9308 119.012 26.9289 98.3678C20.2502 84.5826 18.7048 69.1984 22.487 54.1543C27.0684 35.9322 40.258 19.9443 57.5488 11.6545C64.703 8.22445 71.4799 6.34003 80.7436 5.20495C83.7048 4.84202 93.9213 5.30734 97.6741 5.97607ZM143.042 24.023C151.898 27.2697 158.334 34.8159 161.944 46.1857C163.675 51.6359 165.396 61.4056 165.396 65.7779V66.8664L163.515 66.001C162.479 65.5251 160.67 64.97 159.494 64.7676L157.355 64.3996L157.133 62.0009C156.019 49.9552 149.95 35.7873 141.612 25.7679C140.29 24.1794 139.538 23.025 139.824 23.025C140.097 23.025 141.545 23.474 143.042 24.023ZM75.012 26.6425C74.098 27.8092 74.1261 28.5548 75.1271 29.7239L75.9445 30.6783H86.5H97.0555L97.8729 29.7239C98.8738 28.5548 98.9019 27.8092 97.988 26.6425L97.2864 25.7462H86.5H75.7136L75.012 26.6425ZM70.4008 37.1258C69.9436 37.585 69.5695 38.3572 69.5695 38.8419C69.5695 39.3266 69.9436 40.0987 70.4008 40.5579L71.2317 41.393H86.5H101.768L102.599 40.5579C103.056 40.0987 103.431 39.3266 103.431 38.8419C103.431 38.3572 103.056 37.585 102.599 37.1258L101.768 36.2908H86.5H71.2317L70.4008 37.1258ZM51.9864 59.6368C51.3708 60.4226 51.2845 61.0036 51.2845 64.353C51.2845 67.7024 51.3708 68.2834 51.9864 69.0692C52.9037 70.2406 54.5866 70.291 55.6275 69.1783C56.3003 68.4589 56.3637 68.0334 56.3637 64.2462C56.3637 60.5546 56.2895 60.0266 55.6864 59.4208C54.6781 58.4079 52.8658 58.5137 51.9864 59.6368ZM117.314 59.4208C116.709 60.0277 116.636 60.5546 116.636 64.2938C116.636 68.2365 116.683 68.5304 117.42 69.226C118.529 70.2723 120.126 70.2029 121.014 69.0692C121.629 68.2834 121.715 67.7024 121.715 64.353C121.715 61.0036 121.629 60.4226 121.014 59.6368C120.134 58.5137 118.322 58.4079 117.314 59.4208ZM15.4991 73.9622C15.7331 78.7573 16.4025 83.1452 17.6239 87.8933C18.0668 89.6155 18.4698 91.2227 18.5189 91.4648C18.5866 91.7968 17.9422 91.9016 15.8997 91.8911C13.4813 91.8788 12.9609 91.7536 11.0461 90.723C2.14636 85.9334 3.59324 72.9387 13.3601 69.9433C15.3051 69.347 15.2706 69.2817 15.4991 73.9622ZM161.749 70.8553C169.838 74.9728 169.956 86.4167 161.954 90.723C160.039 91.7536 159.519 91.8788 157.1 91.8911C155.433 91.8996 154.414 91.7713 154.451 91.5567C154.483 91.3652 154.898 89.6815 155.373 87.8151C156.679 82.6843 157.284 78.7552 157.509 73.9343L157.713 69.5692L158.912 69.7954C159.571 69.9195 160.848 70.3964 161.749 70.8553ZM74.1217 74.3108C69.1384 76.0884 66.3164 78.4882 62.4942 84.1986C61.324 85.947 59.4772 88.2566 58.3906 89.3314C56.2939 91.4053 55.7471 92.7499 56.1852 94.7537C56.6999 97.1089 59.2391 98.742 65.5061 100.749C69.2817 101.958 74.8267 102.284 77.9416 101.481C80.5222 100.816 83.6963 99.2396 85.2928 97.8314L86.4854 96.7797L87.9401 97.977C89.796 99.5046 93.2025 101.125 95.6205 101.631C98.1441 102.159 104.027 101.822 106.817 100.989C110.584 99.8648 114.389 98.1215 115.509 97.0069C117.659 94.8677 117.347 91.624 114.789 89.5182C113.969 88.8433 112.051 86.4626 110.525 84.2272C106.411 78.2001 103.723 75.9609 98.4838 74.1942C96.1694 73.4135 95.4048 73.3128 92.7646 73.4411C90.5112 73.5506 89.2976 73.7918 88.1084 74.3659L86.5 75.1425L84.8916 74.3639C83.6526 73.7642 82.5443 73.5571 80.0664 73.4618C77.2055 73.3516 76.5476 73.4455 74.1217 74.3108ZM47.8794 75.0146C46.7515 75.932 46.8345 77.6599 48.0572 78.7164C48.9847 79.5178 49.1228 79.5338 54.2392 79.4277C59.2679 79.3236 59.4978 79.2882 60.1192 78.5164C60.9986 77.4242 60.9312 76.2235 59.9343 75.2224C59.1237 74.4081 58.9743 74.3874 53.8769 74.3874C49.3023 74.3874 48.5546 74.4656 47.8794 75.0146ZM113.066 75.2224C112.069 76.2235 112.001 77.4242 112.881 78.5164C113.502 79.2882 113.732 79.3236 118.761 79.4277C123.877 79.5338 124.015 79.5178 124.943 78.7164C126.166 77.6599 126.248 75.932 125.121 75.0146C124.445 74.4656 123.698 74.3874 119.123 74.3874C114.026 74.3874 113.876 74.4081 113.066 75.2224ZM82.6368 78.9702C83.2934 79.246 84.2232 79.7818 84.703 80.1607C85.9044 81.1101 87.0851 81.0155 88.8246 79.8318C89.6376 79.2784 90.8335 78.7253 91.4823 78.6032C94.7563 77.9861 99.3682 79.4328 102.294 81.9944C103.066 82.67 104.812 84.8704 106.175 86.8837C107.537 88.8971 109.306 91.2502 110.106 92.1128L111.562 93.6809L109.554 94.5857C104.844 96.7093 99.3205 97.3865 95.6195 96.2946C93.2353 95.5912 91.8829 94.7442 89.302 92.3387C88.1429 91.2584 86.8819 90.3743 86.5 90.3743C86.118 90.3743 84.8571 91.2584 83.698 92.3387C81.1171 94.7442 79.7647 95.5912 77.3805 96.2946C73.6795 97.3865 68.1561 96.7093 63.4457 94.5857L61.4384 93.6809L62.8938 92.1128C63.6942 91.2502 65.4635 88.8971 66.8254 86.8837C70.0936 82.053 72.2997 80.1797 76.1724 78.946C78.031 78.3542 81.1967 78.3661 82.6368 78.9702ZM77.9877 140.014C79.5967 140.212 81.5495 140.375 82.3273 140.375L83.742 140.376L83.851 151.516C83.9452 161.106 84.0383 162.798 84.5208 163.676C85.3196 165.131 86.5494 166.192 87.8825 166.576C88.5164 166.758 93.4757 166.908 98.9026 166.908H108.77L109.317 167.746C109.618 168.207 109.864 168.666 109.864 168.767C109.864 168.867 100.722 168.949 89.5475 168.949H69.2309V153.708V138.467L72.1466 139.06C73.7506 139.387 76.3789 139.816 77.9877 140.014ZM64.1517 155.002V168.949H58.1762H52.2011L52.4144 166.482C52.8963 160.917 55.2554 153.81 58.3655 148.55C59.6902 146.311 63.6313 141.056 63.9865 141.056C64.0772 141.056 64.1517 147.332 64.1517 155.002ZM124.994 152.334C127.332 153.212 130.003 155.741 131.177 158.185C131.67 159.215 132.032 160.714 132.135 162.162C132.282 164.224 132.201 164.657 131.415 166.004C130.012 168.409 128.537 168.949 123.386 168.945C119.688 168.942 118.969 168.845 117.476 168.147C114.168 166.599 112.255 163.8 112.242 160.484C112.232 157.973 112.804 156.272 114.217 154.613C116.696 151.704 120.934 150.808 124.994 152.334Z" fill="white"/>
</svg>
