<svg width="100" height="100" viewBox="0 0 100 100" fill="none" xmlns="http://www.w3.org/2000/svg">
<rect width="100" height="100" rx="50" fill="#E9F3FE"/>
<path d="M80.3529 76.9574L76.6345 67.0785C75.8794 65.071 74.6839 63.4171 73.0809 62.1586C71.6127 61.005 69.8419 60.2139 67.8224 59.8095L57.3261 57.7031L57.0444 57.0469C57.6227 57.1248 58.2069 57.1637 58.7912 57.1637C60.529 57.1637 62.2609 56.8192 63.807 56.139C65.1883 55.5338 66.3928 54.6829 67.3906 53.6131C68.4723 52.4536 69.2873 51.0513 69.8086 49.4512C69.9075 49.1456 69.8056 48.807 69.5509 48.6092C67.3426 46.8834 66.3149 42.9343 66.3149 36.1807C66.3149 31.9739 64.6819 28.4442 61.5957 25.9697C60.1575 24.8161 58.4406 23.9292 56.4931 23.3269C54.5785 22.7367 52.487 22.437 50.2758 22.437C48.0645 22.437 45.9701 22.7366 44.0584 23.3269C42.1108 23.9292 40.394 24.8191 38.9558 25.9697C35.8666 28.4446 34.2366 31.9742 34.2366 36.1807C34.2366 42.9344 33.2089 46.8834 31.0006 48.6092C30.7459 48.807 30.644 49.1456 30.7429 49.4512C31.2673 51.0512 32.0793 52.4536 33.1609 53.6131C34.1557 54.6828 35.3632 55.5308 36.7445 56.139C38.2906 56.8162 40.0224 57.1637 41.7603 57.1637C42.3446 57.1637 42.9288 57.1248 43.5071 57.0469L43.2255 57.7031L32.7291 59.8095C30.7096 60.214 28.9418 61.005 27.4706 62.1586C25.8676 63.417 24.6721 65.074 23.917 67.0785L20.1986 76.9574C20.0488 77.3529 20.2495 77.7964 20.645 77.9462C20.7349 77.9792 20.8248 77.9942 20.9147 77.9942C21.2263 77.9942 21.517 77.8054 21.6338 77.4968L25.3522 67.6179C26.9583 63.3541 30.413 61.835 33.0289 61.3106L35.0064 60.9151C34.9135 61.1009 34.8266 61.2957 34.7517 61.4994C34.4102 62.4223 34.2364 63.5609 34.2364 64.8853V69.0591C32.7023 69.4097 31.5577 70.782 31.5577 72.421C31.5577 74.3206 33.1037 75.8667 35.0034 75.8667C36.9031 75.8667 38.4492 74.3206 38.4492 72.421C38.4492 70.785 37.3016 69.4097 35.7705 69.0591V64.8853C35.7705 63.7437 35.9113 62.7848 36.19 62.0327C36.4686 61.2807 36.8701 60.7773 37.4064 60.5046L49.7184 73.6312L49.7333 73.6462C49.7393 73.6522 49.7453 73.6612 49.7543 73.6672C49.9011 73.805 50.0899 73.8739 50.2787 73.8739C50.4824 73.8739 50.6862 73.793 50.839 73.6312L63.1509 60.5046C63.6873 60.7773 64.0888 61.2806 64.3674 62.0327C64.5891 62.629 64.721 63.3541 64.7689 64.1991C64.0797 64.3369 63.4116 64.6515 62.8363 65.1159C61.9614 65.823 61.3202 66.8508 60.9846 68.0853L59.6692 72.9063C59.2318 74.5124 59.3996 75.9805 60.1277 76.9334C60.652 77.6195 61.4461 77.997 62.3629 77.997C62.7854 77.997 63.13 77.6525 63.13 77.23C63.13 76.8075 62.7854 76.4629 62.3629 76.4629C61.9165 76.4629 61.5839 76.3131 61.3472 76.0045C60.9187 75.4412 60.8438 74.4344 61.1494 73.3138L62.4648 68.4927C63.0341 66.4013 64.4873 65.6583 65.5569 65.6583C66.6266 65.6583 68.0798 66.4013 68.6491 68.4927L69.9644 73.3138C70.27 74.4374 70.1981 75.4442 69.7666 76.0075C69.5299 76.3161 69.1973 76.4659 68.7509 76.4659C68.3284 76.4659 67.9839 76.8105 67.9839 77.233C67.9839 77.6555 68.3284 78 68.7509 78C69.6678 78 70.4618 77.6225 70.9862 76.9364C71.7143 75.9835 71.8821 74.5154 71.4446 72.9093L70.1293 68.0882C69.7937 66.8537 69.1525 65.8261 68.2775 65.1189C67.6903 64.6455 67.0101 64.3279 66.309 64.1931C66.258 63.1623 66.0902 62.2605 65.8116 61.5024C65.7367 61.2957 65.6498 61.1009 65.5569 60.9181L67.5344 61.3136C70.1502 61.838 73.605 63.3601 75.2111 67.6209L78.9295 77.4998C79.0464 77.8084 79.337 77.9972 79.6486 77.9972C79.7385 77.9972 79.8284 77.9822 79.9183 77.9492C80.3018 77.7964 80.4997 77.3529 80.3529 76.9574ZM45.9614 55.2076C47.2948 55.8848 48.745 56.2293 50.2731 56.2293C51.8012 56.2293 53.2514 55.8878 54.5848 55.2076L55.9421 58.3717L55.4687 59.4414C54.5098 61.0504 52.3795 62.171 50.2731 62.171C48.1637 62.171 46.0334 61.0504 45.0776 59.4414L44.6071 58.3717L45.9614 55.2076ZM50.2731 63.702C51.5466 63.702 52.8319 63.3784 53.9975 62.7701L50.2731 71.2077L46.5487 62.7701C47.7142 63.3784 48.9996 63.702 50.2731 63.702ZM43.3157 59.2465L47.7533 69.2987L39.1147 60.0879L43.3157 59.2465ZM56.8503 60.1124V60.1094L57.2309 59.2465L61.4287 60.0884L52.7902 69.2992L56.8503 60.1124ZM32.3676 49.4542C33.5691 48.3336 34.429 46.6856 34.9834 44.4413C35.5107 42.311 35.7654 39.6083 35.7654 36.1802C35.7654 28.7613 41.4584 23.9702 50.2703 23.9702C59.0822 23.9702 64.7753 28.7643 64.7753 36.1802C64.7753 39.608 65.03 42.3106 65.5573 44.4413C66.1116 46.6856 66.9716 48.3335 68.1731 49.4542C66.1955 54.6378 60.7363 56.3487 56.3137 55.3569L55.9002 54.3951C56.7841 53.7539 57.5901 52.9569 58.3032 52.01C59.7534 50.0864 60.7512 47.6444 61.1916 44.9507C61.6351 42.2451 61.4793 39.4645 60.7482 36.9143C60.6313 36.5068 60.2059 36.2731 59.7984 36.39C59.5231 36.4689 59.3272 36.6886 59.265 36.9485C59.2351 37.0734 59.2361 37.2075 59.274 37.3398C60.6223 42.029 59.7414 47.5539 57.0777 51.0869C55.8402 52.7319 53.653 54.6915 50.2671 54.6915C46.8813 54.6915 44.6941 52.7319 43.4566 51.0869C40.9008 47.6921 39.9869 42.4576 41.1135 37.8944C45.5989 37.8704 48.3165 37.5588 50.4047 36.8427C52.7298 36.0426 54.3149 34.7213 55.7022 32.4202C55.9209 32.0576 55.804 31.5872 55.4415 31.3685C55.0789 31.1497 54.6085 31.2666 54.3898 31.6291C53.1883 33.6217 51.8909 34.7123 49.9104 35.3924C47.9298 36.0726 45.1253 36.3632 40.5293 36.3632H40.5233H40.4964H40.4844C40.1668 36.3812 39.8821 36.5939 39.7892 36.9175C39.0551 39.4674 38.9024 42.248 39.3458 44.954C39.7862 47.6476 40.784 50.0866 42.2342 52.0132C42.9473 52.9601 43.7533 53.76 44.6372 54.3983L44.2237 55.3601C39.8042 56.3489 34.345 54.6348 32.3676 49.4542ZM36.913 72.4205C36.913 73.4752 36.056 74.3322 35.0013 74.3322C33.9466 74.3322 33.0897 73.4752 33.0897 72.4205C33.0897 71.3658 33.9466 70.5089 35.0013 70.5089C36.056 70.5089 36.913 71.3658 36.913 72.4205Z" fill="#367AF7"/>
<path d="M34.9834 44.4413C34.429 46.6856 33.5691 48.3336 32.3676 49.4542C34.345 54.6348 39.8042 56.3489 44.2237 55.3601L44.6372 54.3983C43.7533 53.76 42.9473 52.9601 42.2342 52.0132C40.784 50.0866 39.7862 47.6476 39.3458 44.954C38.9024 42.248 39.0551 39.4674 39.7892 36.9175C39.8821 36.5939 40.1668 36.3812 40.4844 36.3632H40.4964H40.5233H40.5293C45.1253 36.3632 47.9298 36.0726 49.9104 35.3924C51.8909 34.7123 53.1883 33.6217 54.3898 31.6291C54.6085 31.2666 55.0789 31.1497 55.4415 31.3685C55.804 31.5872 55.9209 32.0576 55.7022 32.4202C56.85 32.5035 59.1046 33.5337 59.265 36.9485C59.3272 36.6886 59.5231 36.4689 59.7984 36.39C60.2059 36.2731 60.6313 36.5068 60.7482 36.9143C61.4793 39.4645 61.6351 42.2451 61.1916 44.9507C60.7512 47.6444 59.7534 50.0864 58.3032 52.01C57.5901 52.9569 56.7841 53.7539 55.9002 54.3951L56.3137 55.3569C60.7363 56.3487 66.1955 54.6378 68.1731 49.4542C66.9716 48.3335 66.1116 46.6856 65.5573 44.4413C65.03 42.3106 64.7753 39.608 64.7753 36.1802C64.7753 28.7643 59.0822 23.9702 50.2703 23.9702C41.4584 23.9702 35.7654 28.7613 35.7654 36.1802C35.7654 39.6083 35.5107 42.311 34.9834 44.4413Z" fill="#367AF7"/>
</svg>
