<svg width="100" height="100" viewBox="0 0 100 100" fill="none" xmlns="http://www.w3.org/2000/svg">
<rect width="100" height="100" rx="50" fill="#FCF4E8"/>
<path fill-rule="evenodd" clip-rule="evenodd" d="M69.6034 53.1393C68.9583 53.5703 68.2002 53.8005 67.4244 53.8006C66.3844 53.7998 65.3871 53.3863 64.6517 52.6509C63.916 51.9155 63.5024 50.9184 63.5014 49.8783C63.5014 49.1026 63.7315 48.3442 64.1623 47.6993C64.3973 47.348 64.6861 47.0388 65.0159 46.7822C65.2917 46.5676 65.5962 46.3897 65.9225 46.2546C66.6391 45.9578 67.4279 45.8801 68.1886 46.0312C68.9495 46.1826 69.6483 46.5561 70.197 47.1046C70.7456 47.653 71.1191 48.3518 71.2706 49.1126C71.4221 49.8734 71.3444 50.6621 71.0476 51.3789C70.7508 52.0956 70.2481 52.7082 69.6034 53.1393ZM68.4983 48.2709C68.1805 48.0583 67.8069 47.9448 67.4244 47.9447C66.9117 47.945 66.42 48.1489 66.0571 48.5114C65.6946 48.8739 65.4907 49.3656 65.4901 49.8783C65.4901 50.0521 65.5134 50.2241 65.559 50.3899C65.6137 50.5889 65.7001 50.7791 65.816 50.9526C66.0283 51.2704 66.3303 51.5184 66.6835 51.6647C66.9249 51.7647 67.1826 51.8142 67.4412 51.8119C67.5613 51.8108 67.6817 51.7985 67.8008 51.7749C68.1759 51.7003 68.5203 51.5163 68.7909 51.2458C69.0612 50.9754 69.2454 50.631 69.3201 50.2559C69.3949 49.8809 69.3567 49.4922 69.2104 49.1389C69.0641 48.7854 68.8165 48.4834 68.4983 48.2709Z" fill="#F09938"/>
<path fill-rule="evenodd" clip-rule="evenodd" d="M71.9293 26.7581C73.8484 26.7602 75.6882 27.5234 77.045 28.8804C78.4019 30.2373 79.1651 32.0772 79.1674 33.9961V65.7605C79.1657 67.6797 78.4025 69.52 77.0457 70.8772C75.6885 72.2343 73.8484 72.9979 71.9293 73H28.0691C26.1507 72.9979 24.3112 72.2348 22.9547 70.8783C21.5982 69.5216 20.8353 67.6823 20.833 65.7639V33.9929C20.8356 32.0746 21.5988 30.2356 22.9554 28.8793C24.3119 27.5231 26.151 26.7602 28.0691 26.7581H71.9293ZM75.6393 30.286C74.6553 29.3018 73.3211 28.7483 71.9293 28.7467H70.2196C70.9353 29.4205 71.5056 30.2334 71.8953 31.1355C72.1381 31.6972 72.3077 32.2861 72.4012 32.8879C72.4579 33.2526 72.4867 33.6219 72.4867 33.9929V39.4232H77.1787V33.9961C77.1771 32.6045 76.6236 31.2701 75.6393 30.286ZM63.3865 58.3447H77.1787V41.4119H63.3865C61.8707 41.4137 60.4174 42.0167 59.3457 43.0884C58.274 44.1602 57.671 45.6135 57.6691 47.1293V52.6273C57.671 54.1432 58.274 55.5964 59.3457 56.6682C60.4174 57.7401 61.8707 58.3431 63.3865 58.3447ZM22.8217 33.9929V65.7639C22.8236 67.1549 23.3771 68.4883 24.3608 69.4718C25.3444 70.4553 26.678 71.0084 28.0691 71.01H65.2758C66.6624 71.0019 67.9898 70.4459 68.968 69.463C69.9464 68.4803 70.4964 67.1505 70.498 65.7639V60.3334H63.3865C61.3434 60.3311 59.3849 59.5185 57.94 58.0738C56.4954 56.6292 55.6827 54.6705 55.6804 52.6273V47.1293C55.6823 45.0861 56.4948 43.1269 57.9397 41.682C59.3842 40.2369 61.3431 39.4242 63.3865 39.4219H70.498V33.9916C70.4964 32.6048 69.9464 31.2751 68.968 30.2923C67.9898 29.3094 66.6624 28.7535 65.2758 28.7454H28.0691C26.678 28.7471 25.3441 29.3004 24.3604 30.284C23.3765 31.2678 22.8233 32.6016 22.8217 33.9929ZM70.2183 71.01H71.9293C73.3211 71.0084 74.6553 70.4548 75.6393 69.4706C76.6236 68.4866 77.1771 67.1523 77.1787 65.7605V60.3334H72.4854V65.7639C72.485 66.7467 72.284 67.719 71.894 68.6211C71.5043 69.5234 70.934 70.3363 70.2183 71.01Z" fill="#F09938"/>
<path d="M71.9293 28.7467C73.3211 28.7483 74.6553 29.3018 75.6393 30.286C76.6236 31.2701 77.1771 32.6045 77.1787 33.9961V39.4232H72.4867V33.9929C72.4867 33.6219 72.4579 33.2526 72.4012 32.8879C72.3077 32.2861 72.1381 31.6972 71.8953 31.1355C71.5056 30.2334 70.9353 29.4205 70.2196 28.7467H71.9293Z" fill="#F09938"/>
<path d="M71.9293 71.01H70.2183C70.934 70.3363 71.5043 69.5234 71.894 68.6211C72.284 67.719 72.485 66.7467 72.4854 65.7639V60.3334H77.1787V65.7605C77.1771 67.1523 76.6236 68.4866 75.6393 69.4706C74.6553 70.4548 73.3211 71.0084 71.9293 71.01Z" fill="#F09938"/>
</svg>
