<svg width="100" height="100" viewBox="0 0 100 100" fill="none" xmlns="http://www.w3.org/2000/svg">
<rect width="100" height="100" rx="50" fill="#EEFBEE"/>
<path fill-rule="evenodd" clip-rule="evenodd" d="M67.9871 30.9571H58.7105C57.7894 30.9571 57.0417 31.7076 57.0417 32.6259V41.9025C57.0417 42.8237 57.7922 43.5714 58.7105 43.5714H67.9871C68.9082 43.5714 69.6559 42.8208 69.6559 41.9025L69.6588 32.6259C69.6588 31.7048 68.9082 30.9571 67.9871 30.9571ZM63.3502 40.5887C64.857 40.5887 66.0312 41.2 66.4377 42.1156H60.2628C60.6693 41.2001 61.8435 40.5887 63.3502 40.5887ZM68.2032 41.9024C68.2032 42.0189 68.1037 42.1156 67.99 42.1156H67.9672C67.7938 41.345 67.3418 40.66 66.6509 40.1339C65.8009 39.4885 64.6296 39.1331 63.3502 39.1331C62.0709 39.1331 60.8968 39.4885 60.0496 40.1339C59.3616 40.657 58.9095 41.345 58.7333 42.1156H58.7105C58.594 42.1156 58.4973 42.0161 58.4973 41.9024V32.6257C58.4973 32.5525 58.5364 32.4873 58.5936 32.4488C58.6107 32.4374 58.6295 32.4283 58.6494 32.4221C58.6689 32.4159 58.6896 32.4125 58.7105 32.4125H67.9871C68.1037 32.4125 68.2003 32.512 68.2003 32.6257L68.2032 41.9024Z" fill="#67C466"/>
<path d="M41.8432 32.046H53.9517C54.3554 32.046 54.6795 32.3729 54.6824 32.7738C54.6824 33.1746 54.3554 33.5016 53.9546 33.5016H41.8432C41.5322 33.5016 41.2657 33.3047 41.1616 33.0291C41.1317 32.9495 41.1154 32.8635 41.1154 32.7738C41.1154 32.6574 41.1427 32.5472 41.1918 32.4493C41.2327 32.3677 41.2885 32.2949 41.3553 32.2343C41.3862 32.2064 41.4196 32.1812 41.4548 32.1588C41.4903 32.1362 41.528 32.1167 41.5671 32.1005C41.6524 32.0653 41.7455 32.046 41.8432 32.046Z" fill="#67C466"/>
<path d="M53.9517 35.6398H47.8991C47.4982 35.6398 47.1713 35.9668 47.1713 36.3676C47.1713 36.7685 47.4982 37.0954 47.8991 37.0954H53.9546C54.3554 37.0954 54.6824 36.7685 54.6824 36.3676C54.681 36.1503 54.585 35.9549 54.4333 35.8212C54.3679 35.7639 54.2922 35.7178 54.209 35.6866C54.1291 35.6564 54.0424 35.6398 53.9517 35.6398Z" fill="#67C466"/>
<path d="M51.4524 40.3226H53.9514C54.3551 40.3226 54.6792 40.6495 54.6792 41.0504C54.6792 41.4512 54.3522 41.7782 53.9514 41.7782H51.4524C51.0516 41.7782 50.7246 41.4512 50.7246 41.0504C50.7246 40.6495 51.0516 40.3226 51.4524 40.3226Z" fill="#67C466"/>
<path d="M33.1462 26.0226C32.7027 26.0539 32.2961 26.2557 32.0005 26.5912C31.7048 26.9265 31.5602 27.3559 31.5886 27.7938L31.6853 29.2693V29.2721L31.6881 29.3119C32.2595 28.5754 33.1551 28.0978 34.1586 28.0978H69.6556C69.7444 28.0978 69.8326 28.1017 69.9193 28.1092C69.9893 28.115 70.0586 28.1234 70.1272 28.1339C70.2672 28.1555 70.404 28.1864 70.5369 28.2257L70.3407 25.2578C70.3173 24.9241 70.1972 24.6114 69.9964 24.3511C69.9584 24.3019 69.9175 24.2546 69.8738 24.2093C69.8415 24.1757 69.8077 24.1432 69.7722 24.1121C69.4367 23.8165 69.0074 23.6715 68.5639 23.6999L33.1462 26.0226Z" fill="#67C466"/>
<path fill-rule="evenodd" clip-rule="evenodd" d="M72.7804 45.5081H73.6532C76.2317 45.5081 78.327 47.6064 78.327 50.185V72.3234C78.327 74.9019 76.2289 77 73.6503 77H26.2836C23.705 77 21.6069 74.9019 21.6069 72.3234V40.3169C21.6069 37.7383 23.705 35.6402 26.2836 35.6402H30.6419L30.1358 27.8931C30.0818 27.0629 30.3547 26.2584 30.9063 25.6301C31.4578 25.0018 32.2197 24.6237 33.0499 24.5697L68.4676 22.247C69.2977 22.1929 70.1023 22.4659 70.7306 23.0174C71.3589 23.5689 71.737 24.3309 71.791 25.161L72.0497 29.1099C72.0526 29.1468 72.0497 29.1838 72.0469 29.2208C72.5018 29.7638 72.7775 30.4631 72.7775 31.2251L72.7804 45.5081ZM52.1998 44.081C53.0328 45.0277 54.096 45.5081 55.3583 45.5081L71.3194 45.5111V31.2251C71.3194 30.3039 70.5717 29.5534 69.6506 29.5534H34.1558C33.2375 29.5534 32.487 30.3039 32.487 31.2251V35.6402H42.3887C43.9466 35.6402 45.3141 36.2599 46.3433 37.4284L52.1998 44.081ZM33.1462 26.0226C32.7027 26.0539 32.2961 26.2557 32.0005 26.5912C31.7048 26.9265 31.5602 27.3559 31.5886 27.7938L31.6853 29.2693V29.2721L31.6881 29.3119C32.2595 28.5754 33.1551 28.0978 34.1586 28.0978H69.6556C69.7444 28.0978 69.8326 28.1017 69.9193 28.1092C69.9893 28.115 70.0586 28.1234 70.1272 28.1339C70.2672 28.1555 70.404 28.1864 70.5369 28.2257L70.3407 25.2578C70.3173 24.9241 70.1972 24.6114 69.9964 24.3511C69.9584 24.3019 69.9175 24.2546 69.8738 24.2093C69.8415 24.1757 69.8077 24.1432 69.7722 24.1121C69.4367 23.8165 69.0074 23.6715 68.5639 23.6999L33.1462 26.0226ZM23.0622 72.3234C23.0622 74.1002 24.5064 75.5444 26.2833 75.5444H44.6659C44.5959 75.4881 44.5262 75.429 44.4569 75.3676C44.3688 75.29 44.2814 75.2092 44.194 75.1265L38.3403 69.5628C37.362 68.6332 36.4668 68.221 35.4316 68.221H23.0622V72.3234ZM48.4019 75.5444C47.259 75.5444 46.2725 75.0896 45.1979 74.0689L39.3442 68.5053C38.0933 67.3169 36.8509 66.7654 35.4351 66.7654H23.0654V40.3172C23.0654 38.5404 24.5096 37.096 26.2865 37.096H42.389C43.5319 37.096 44.4957 37.5309 45.2519 38.3895L51.1056 45.0421C52.2115 46.2986 53.6813 46.9639 55.3558 46.9639H69.5369C71.1938 46.9639 72.5369 48.307 72.5369 49.9639V72.5444C72.5369 74.2013 71.1938 75.5444 69.5369 75.5444H48.4019Z" fill="#67C466"/>
</svg>
