<svg width="253" height="139" viewBox="0 0 253 139" fill="none" xmlns="http://www.w3.org/2000/svg">
<path d="M3.58049 1.9899C3.37644 1.187 2.56013 0.701535 1.75723 0.905591C0.954329 1.10965 0.468869 1.92595 0.672925 2.72885L3.58049 1.9899ZM20.8527 42.6583L19.8414 43.7661H19.8414L20.8527 42.6583ZM73.1616 67.3393L72.7709 68.7876L73.1616 67.3393ZM182.113 87.4079L181.791 88.873L182.113 87.4079ZM232.913 111.968L234.13 111.092L232.913 111.968ZM243.695 137.93C244.425 138.322 245.334 138.047 245.725 137.317L252.104 125.419C252.496 124.689 252.221 123.78 251.491 123.388C250.761 122.997 249.852 123.271 249.46 124.001L243.79 134.577L233.214 128.907C232.484 128.516 231.575 128.79 231.184 129.521C230.792 130.251 231.067 131.16 231.797 131.551L243.695 137.93ZM0.672925 2.72885C4.4052 17.4142 7.89048 32.8567 19.8414 43.7661L21.864 41.5504C10.7042 31.3632 7.37427 16.9173 3.58049 1.9899L0.672925 2.72885ZM19.8414 43.7661C34.2966 56.9616 54.9315 63.9751 72.7709 68.7876L73.5522 65.8911C55.7459 61.0875 35.7411 54.2183 21.864 41.5504L19.8414 43.7661ZM72.7709 68.7876C90.7184 73.6292 109.011 76.6774 127.279 79.5008C145.569 82.3279 163.816 84.9273 181.791 88.873L182.434 85.9428C164.343 81.9715 145.975 79.3549 127.737 76.536C109.476 73.7136 91.3262 70.686 73.5522 65.8911L72.7709 68.7876ZM181.791 88.873C190.61 90.8088 200.283 92.8941 209.198 96.4811C218.099 100.062 226.121 105.095 231.695 112.844L234.13 111.092C228.106 102.718 219.521 97.4008 210.318 93.6979C201.128 90.0005 191.2 87.867 182.434 85.9428L181.791 88.873ZM231.695 112.844C236.587 119.643 240.471 128.774 242.968 137.042L245.839 136.175C243.288 127.725 239.283 118.255 234.13 111.092L231.695 112.844Z" fill="url(#paint0_linear_397_3602)"/>
<defs>
<linearGradient id="paint0_linear_397_3602" x1="2.12671" y1="2.35938" x2="244.404" y2="136.608" gradientUnits="userSpaceOnUse">
<stop stop-color="#5081FF"/>
<stop offset="1" stop-color="#00FFA3"/>
</linearGradient>
</defs>
</svg>
