<svg width="232" height="57" viewBox="0 0 232 57" fill="none" xmlns="http://www.w3.org/2000/svg">
<path d="M2.26745 45.6289C3.16493 43.1188 4.03633 40.7137 4.89784 38.3071C5.07182 37.828 5.19406 37.4897 5.31086 36.8533C5.40268 36.3816 5.57533 35.377 5.03723 35.3846C4.59374 35.4363 4.28597 35.5283 3.90062 36.3321C2.91632 38.4129 2.25697 40.6222 1.59067 42.8106C1.00366 44.7434 0.586225 46.2262 0.170195 47.967C-0.0240506 48.78 0.341925 49.1725 1.12909 49.1928C1.83556 49.2107 2.56036 49.2414 3.25622 49.1289C5.76748 48.7368 8.25786 48.282 10.7651 47.8496C11.0769 47.7978 11.3234 47.7757 11.6851 47.6621C12.122 47.5202 12.4481 47.4409 12.3925 47.0062C12.3438 46.5925 11.7466 46.5217 11.4392 46.5445C8.86569 46.6794 3.5623 47.0444 3.2751 47.0008C4.29951 45.8579 5.22304 44.7789 6.21001 43.7492C13.1184 36.6105 20.4911 30.0179 29.383 25.2317C36.4215 21.443 43.802 18.5386 51.6408 16.7543C52.103 16.646 52.5612 16.4975 52.9995 16.3459C53.5968 16.1491 53.8712 15.943 53.7865 15.6328C53.5475 15.0712 53.107 15.1035 52.753 15.0994C52.0465 15.0814 51.3279 15.2103 50.6306 15.3324C41.3209 17.0621 32.8357 20.7702 24.8202 25.5902C16.5929 30.5367 9.84491 37.0852 3.6459 44.2225C3.33365 44.6112 2.46923 45.5009 2.26745 45.6289Z" fill="#00FFA3"/>
<path d="M67.5854 10.2852C68.2104 10.2852 68.4578 10.6823 68.3276 11.4766C68.2755 11.8151 68.1844 12.2708 68.0542 12.8437C67.924 13.4167 67.7612 14.0156 67.5659 14.6406C67.3706 15.2526 67.1427 15.8516 66.8823 16.4375C66.6349 17.0234 66.3615 17.5052 66.062 17.8828C65.7886 18.013 65.5542 18.0911 65.3589 18.1172C65.2547 18.1432 65.1636 18.1497 65.0854 18.1367C64.9813 18.1367 64.8836 18.1237 64.7925 18.0977C64.7013 18.0716 64.6102 18.0195 64.519 17.9414C64.4409 17.8633 64.3628 17.7461 64.2846 17.5898C64.2195 17.4336 64.1675 17.2187 64.1284 16.9453C64.0633 16.5417 63.9656 16.1055 63.8354 15.6367C63.7182 15.168 63.5945 14.7383 63.4643 14.3477C63.3471 14.6992 63.2234 15.0573 63.0932 15.4219C62.9761 15.7734 62.8524 16.1055 62.7221 16.418C62.605 16.7305 62.4878 17.0104 62.3706 17.2578C62.2534 17.5052 62.1427 17.694 62.0386 17.8242C61.6089 18.0195 61.2964 18.1367 61.1011 18.1758C60.9839 18.2148 60.8862 18.2279 60.8081 18.2148C60.5477 17.8763 60.3198 17.5182 60.1245 17.1406C59.9292 16.75 59.7729 16.3854 59.6557 16.0469C59.5125 15.6562 59.3953 15.2656 59.3042 14.875C59.2 14.3802 59.1284 13.9049 59.0893 13.4492C59.0503 12.9935 59.0112 12.5768 58.9721 12.1992C58.9461 11.8086 58.907 11.4701 58.855 11.1836C58.8159 10.8971 58.7378 10.6693 58.6206 10.5C58.7378 10.4089 58.8745 10.3242 59.0307 10.2461C59.187 10.1549 59.3497 10.1029 59.519 10.0898C59.6883 10.0638 59.8576 10.0768 60.0268 10.1289C60.2091 10.168 60.3849 10.2656 60.5542 10.4219C60.5802 10.7604 60.5997 11.0924 60.6128 11.418C60.6258 11.7305 60.6388 12.0169 60.6518 12.2773C60.6649 12.5768 60.6714 12.8568 60.6714 13.1172C60.6844 13.4427 60.6974 13.7878 60.7104 14.1523C60.7365 14.5169 60.769 14.875 60.8081 15.2266C60.8471 15.5781 60.9057 15.9102 60.9839 16.2227C61.075 16.5221 61.1922 16.776 61.3354 16.9844C61.4787 16.75 61.6805 16.3659 61.9409 15.832C62.2013 15.2852 62.4162 14.6016 62.5854 13.7812C62.6505 13.4427 62.6896 13.1042 62.7026 12.7656C62.7287 12.4271 62.7287 12.1211 62.7026 11.8477C62.6896 11.5612 62.6636 11.3138 62.6245 11.1055C62.5984 10.8841 62.5659 10.7279 62.5268 10.6367C62.631 10.5716 62.7417 10.526 62.8589 10.5C62.9761 10.4609 63.0867 10.4284 63.1909 10.4023C63.3081 10.3763 63.4188 10.3633 63.5229 10.3633C63.8615 10.3372 64.0893 10.4023 64.2065 10.5586C64.3367 10.7018 64.3693 10.9753 64.3042 11.3789C64.2912 11.4831 64.2586 11.6458 64.2065 11.8672C64.1544 12.0755 64.0893 12.3294 64.0112 12.6289C64.0893 12.8893 64.1805 13.2214 64.2846 13.625C64.3888 14.0156 64.493 14.3997 64.5971 14.7773C64.6753 15.1419 64.7534 15.513 64.8315 15.8906C64.9096 16.2682 64.9747 16.6003 65.0268 16.8867C65.0919 16.8737 65.157 16.8477 65.2221 16.8086C65.2872 16.7695 65.3458 16.6979 65.3979 16.5937C65.45 16.5026 65.5216 16.3529 65.6128 16.1445C65.7039 15.9362 65.8016 15.6823 65.9057 15.3828C66.0099 15.0833 66.1076 14.7513 66.1987 14.3867C66.3029 14.0221 66.394 13.6315 66.4721 13.2148C66.6154 12.3815 66.6675 11.776 66.6284 11.3984C66.6024 11.0208 66.5307 10.7669 66.4136 10.6367C66.5438 10.5456 66.674 10.4805 66.8042 10.4414C66.9474 10.3893 67.0776 10.3503 67.1948 10.3242C67.338 10.2982 67.4682 10.2852 67.5854 10.2852ZM74.9339 17.0039C74.9599 17.0951 74.999 17.1797 75.0511 17.2578C75.0901 17.3229 75.1422 17.388 75.2073 17.4531C75.2854 17.5052 75.3766 17.5378 75.4807 17.5508C75.3896 17.7331 75.2984 17.8568 75.2073 17.9219C75.1552 17.9609 75.1096 17.987 75.0706 18C74.9534 18.0391 74.7776 18.0586 74.5432 18.0586C74.3089 18.0586 74.081 17.987 73.8596 17.8437C73.7815 17.7786 73.7099 17.681 73.6448 17.5508C73.5797 17.4466 73.5211 17.3034 73.469 17.1211C73.43 16.9258 73.3974 16.6784 73.3714 16.3789C73.1891 16.7695 72.9807 17.082 72.7464 17.3164C72.525 17.5378 72.3037 17.7005 72.0823 17.8047C71.8349 17.9479 71.581 18.0326 71.3206 18.0586C70.9951 18.0846 70.6826 18.0326 70.3831 17.9023C70.0966 17.7591 69.8492 17.5508 69.6409 17.2773C69.4456 16.9909 69.2958 16.6458 69.1917 16.2422C69.0875 15.8385 69.055 15.3828 69.094 14.875C69.1331 14.3411 69.2372 13.8659 69.4065 13.4492C69.5758 13.0326 69.7776 12.6615 70.012 12.3359C70.2464 12.0104 70.4938 11.737 70.7542 11.5156C71.0146 11.2812 71.262 11.0924 71.4964 10.9492C71.7438 10.793 71.9521 10.6823 72.1214 10.6172C72.3037 10.5391 72.4208 10.4935 72.4729 10.4805C72.6162 10.4414 72.7399 10.4284 72.844 10.4414C72.9482 10.4544 73.0393 10.513 73.1175 10.6172C73.1435 10.6562 73.1761 10.7018 73.2151 10.7539C73.2412 10.806 73.2737 10.8776 73.3128 10.9687C73.3518 11.0469 73.3844 11.138 73.4104 11.2422C73.0979 11.3854 72.805 11.5482 72.5315 11.7305C72.2581 11.8997 72.0042 12.1081 71.7698 12.3555C71.5484 12.6029 71.3531 12.9023 71.1839 13.2539C71.0146 13.6055 70.8844 14.0352 70.7932 14.543C70.663 15.181 70.6956 15.6953 70.8909 16.0859C71.0992 16.4766 71.3792 16.6393 71.7307 16.5742C71.9391 16.5091 72.1409 16.3854 72.3362 16.2031C72.5055 16.0469 72.6813 15.8125 72.8636 15.5C73.0589 15.1875 73.2412 14.7578 73.4104 14.2109C73.4755 13.4297 73.5276 12.8177 73.5667 12.375C73.6188 11.9193 73.6643 11.5742 73.7034 11.3398C73.7555 11.0664 73.7945 10.8841 73.8206 10.793C73.8596 10.7279 73.9378 10.6693 74.055 10.6172C74.1721 10.5521 74.3024 10.5 74.4456 10.4609C74.5888 10.4219 74.719 10.4023 74.8362 10.4023C74.9534 10.3893 75.0315 10.3893 75.0706 10.4023C75.0966 10.4154 75.1096 10.5781 75.1096 10.8906C75.1096 11.1901 75.0966 11.5742 75.0706 12.043C75.0576 12.4987 75.038 13 75.012 13.5469C74.9859 14.0807 74.9599 14.5885 74.9339 15.0703C74.9208 15.5521 74.9078 15.9753 74.8948 16.3398C74.8948 16.6914 74.9078 16.9128 74.9339 17.0039ZM84.1573 9.30859C84.0141 9.28255 83.8188 9.25651 83.5714 9.23047C83.337 9.20443 83.0961 9.1849 82.8487 9.17187C82.5622 9.15885 82.2563 9.15234 81.9307 9.15234C81.6052 9.1263 81.1951 9.1263 80.7003 9.15234C80.2185 9.16536 79.7107 9.17187 79.1768 9.17187C79.1638 9.51042 79.1378 9.85547 79.0987 10.207C79.0727 10.5586 79.0466 10.9036 79.0206 11.2422C78.9555 11.8672 78.8969 12.5052 78.8448 13.1562C78.8057 13.8073 78.7862 14.4258 78.7862 15.0117C78.7862 15.5977 78.8188 16.1315 78.8839 16.6133C78.962 17.082 79.0987 17.4531 79.294 17.7266C79.1378 17.8437 78.9685 17.9349 78.7862 18C78.6039 18.0521 78.4412 18.0911 78.2979 18.1172C78.1287 18.1562 77.9594 18.1758 77.7901 18.1758C77.6339 18.1758 77.5037 18.1237 77.3995 18.0195C77.2953 17.9154 77.2367 17.7331 77.2237 17.4727C77.1977 17.0299 77.1912 16.5872 77.2042 16.1445C77.2302 15.6888 77.2563 15.2135 77.2823 14.7187C77.3214 14.224 77.3604 13.6966 77.3995 13.1367C77.4385 12.5638 77.4776 11.9388 77.5167 11.2617C77.5557 10.5586 77.5753 9.875 77.5753 9.21094C77.0805 9.22396 76.6638 9.23047 76.3253 9.23047C75.9867 9.23047 75.7979 9.22396 75.7589 9.21094C75.7198 9.1849 75.6742 9.1263 75.6221 9.03516C75.5701 8.95703 75.505 8.83984 75.4268 8.68359C75.3357 8.52734 75.225 8.30599 75.0948 8.01953C75.3422 8.01953 75.6156 8.01953 75.9151 8.01953C76.2016 8.01953 76.4685 8.01302 76.7159 8C77.0024 7.98698 77.2888 7.97396 77.5753 7.96094C77.5622 7.7526 77.5557 7.53125 77.5557 7.29687C77.5427 7.11458 77.5362 6.91276 77.5362 6.69141C77.5362 6.45703 77.5297 6.24219 77.5167 6.04687C77.5167 5.96875 77.6078 5.8776 77.7901 5.77344C77.9854 5.65625 78.1938 5.55208 78.4151 5.46094C78.6365 5.36979 78.8383 5.3112 79.0206 5.28516C79.2159 5.25911 79.3135 5.30469 79.3135 5.42187C79.3135 5.53906 79.307 5.82552 79.294 6.28125C79.294 6.72396 79.281 7.26432 79.255 7.90234C79.3852 7.90234 79.4828 7.89583 79.5479 7.88281C80.238 7.85677 80.7914 7.83073 81.2081 7.80469C81.6378 7.76562 81.9893 7.75911 82.2628 7.78516C82.5362 7.8112 82.7771 7.8763 82.9854 7.98047C83.1938 8.08463 83.4281 8.25391 83.6885 8.48828C83.7797 8.56641 83.8578 8.65104 83.9229 8.74219C83.988 8.82031 84.0401 8.91146 84.0792 9.01562C84.1313 9.10677 84.1573 9.20443 84.1573 9.30859ZM86.4276 15.5391C86.4276 15.6823 86.3755 15.9036 86.2714 16.2031C86.1802 16.4896 86.024 16.7826 85.8026 17.082C85.5813 17.3685 85.2948 17.6224 84.9432 17.8437C84.6047 18.0651 84.188 18.1758 83.6932 18.1758C82.9901 18.1758 82.3977 17.987 81.9159 17.6094C81.4471 17.2187 81.1151 16.6654 80.9198 15.9492C80.7636 15.3503 80.718 14.7122 80.7831 14.0352C80.8612 13.3451 81.05 12.707 81.3495 12.1211C81.649 11.5352 82.0656 11.0404 82.5995 10.6367C83.1333 10.2201 83.7844 9.99219 84.5526 9.95312C84.9432 9.9401 85.2688 10.0117 85.5292 10.168C85.7896 10.3242 85.9914 10.526 86.1346 10.7734C86.2779 11.0208 86.3625 11.2943 86.3886 11.5937C86.4146 11.8802 86.382 12.1536 86.2909 12.4141C86.2128 12.6745 86.0826 12.8958 85.9003 13.0781C85.731 13.2474 85.5096 13.3385 85.2362 13.3516C84.9628 13.3776 84.7349 13.3451 84.5526 13.2539C84.3833 13.1497 84.2466 13.026 84.1425 12.8828C84.0513 12.7396 83.9862 12.5898 83.9471 12.4336C83.9211 12.2773 83.9211 12.1406 83.9471 12.0234C83.9862 11.8542 84.0513 11.6979 84.1425 11.5547C84.2206 11.4245 84.3313 11.2943 84.4745 11.1641C84.6307 11.0339 84.8326 10.9297 85.08 10.8516C85.0409 10.8255 85.0018 10.8125 84.9628 10.8125C84.9237 10.8125 84.8846 10.806 84.8456 10.793C84.7935 10.793 84.7544 10.7865 84.7284 10.7734C84.5201 10.7734 84.2792 10.8451 84.0057 10.9883C83.7453 11.1315 83.4914 11.3594 83.244 11.6719C83.0096 11.9844 82.8078 12.388 82.6386 12.8828C82.4823 13.3646 82.4042 13.9505 82.4042 14.6406C82.4042 14.9401 82.4367 15.2396 82.5018 15.5391C82.5669 15.8255 82.6646 16.0859 82.7948 16.3203C82.938 16.5417 83.1073 16.724 83.3026 16.8672C83.5109 16.9974 83.7518 17.0625 84.0253 17.0625C84.3378 17.0625 84.6112 16.9974 84.8456 16.8672C85.093 16.724 85.3013 16.5612 85.4706 16.3789C85.6399 16.1966 85.7701 16.0143 85.8612 15.832C85.9654 15.6497 86.037 15.513 86.0761 15.4219C86.1151 15.3437 86.1802 15.3047 86.2714 15.3047C86.3755 15.3047 86.4276 15.3828 86.4276 15.5391ZM89.401 14.9336C89.5573 14.4648 89.6875 14.0677 89.7917 13.7422C89.9089 13.4167 90.0065 13.1562 90.0846 12.9609C90.1758 12.7266 90.2539 12.5378 90.319 12.3945C90.3971 12.1862 90.4818 11.9779 90.5729 11.7695C90.6771 11.5612 90.7813 11.3724 90.8854 11.2031C90.9896 11.0208 91.0872 10.8711 91.1784 10.7539C91.2695 10.6367 91.3477 10.5586 91.4128 10.5195C91.4649 10.4935 91.582 10.4935 91.7643 10.5195C91.9596 10.5456 92.168 10.6107 92.3893 10.7148C92.6237 10.806 92.8385 10.9362 93.0339 11.1055C93.2422 11.2747 93.3854 11.4831 93.4635 11.7305C93.5417 12.0299 93.5677 12.4206 93.5417 12.9023C93.5156 13.3841 93.4766 13.8789 93.4245 14.3867C93.3854 14.8945 93.3529 15.3763 93.3268 15.832C93.3138 16.2878 93.3464 16.6328 93.4245 16.8672C93.4766 16.9974 93.5287 17.1276 93.5807 17.2578C93.6328 17.362 93.6914 17.4727 93.7565 17.5898C93.8346 17.694 93.9193 17.7852 94.0104 17.8633C93.6328 18.0065 93.3268 18.1107 93.0925 18.1758C92.8711 18.2539 92.7018 18.306 92.5846 18.332C92.4414 18.3711 92.3438 18.3776 92.2917 18.3516C92.1875 18.3125 92.0899 18.2148 91.9987 18.0586C91.9076 17.9023 91.8294 17.6549 91.7643 17.3164C91.7383 17.2122 91.7318 17.0299 91.7448 16.7695C91.7578 16.5091 91.7774 16.2161 91.8034 15.8906C91.8294 15.5651 91.8555 15.2266 91.8815 14.875C91.9076 14.5104 91.9336 14.1719 91.9596 13.8594C91.9857 13.5469 91.9987 13.2734 91.9987 13.0391C92.0117 12.8047 92.0117 12.6484 91.9987 12.5703C91.9336 12.349 91.8425 12.1927 91.7253 12.1016C91.6081 11.9974 91.5169 11.9844 91.4518 12.0625C91.2956 12.2578 91.1198 12.5964 90.9245 13.0781C90.7422 13.5469 90.5664 14.0612 90.3971 14.6211C90.2279 15.168 90.0781 15.7148 89.9479 16.2617C89.8307 16.8086 89.7591 17.2578 89.7331 17.6094C89.7331 17.6875 89.668 17.7721 89.5378 17.8633C89.4206 17.9414 89.2839 18.013 89.1276 18.0781C88.9844 18.1432 88.8412 18.1823 88.6979 18.1953C88.5547 18.2214 88.457 18.2018 88.405 18.1367C88.3659 18.0977 88.2813 18.0065 88.151 17.8633C88.0339 17.7201 87.9688 17.4792 87.9557 17.1406C87.9297 16.8151 87.9297 16.3724 87.9557 15.8125C87.9818 15.2396 87.9883 14.6406 87.9753 14.0156V12.5703C87.9753 11.9844 87.9688 11.1771 87.9557 10.1484C87.9557 9.10677 87.9492 7.73307 87.9362 6.02734C88.0794 5.94922 88.2096 5.88411 88.3268 5.83203C88.444 5.76693 88.5547 5.71484 88.6589 5.67578C88.776 5.6237 88.8867 5.58464 88.9909 5.55859C89.5508 5.41536 89.8438 5.41536 89.8698 5.55859C89.8828 5.6888 89.8698 6.10547 89.8307 6.80859C89.8177 7.10807 89.7982 7.48568 89.7721 7.94141C89.7461 8.39713 89.7135 8.95052 89.6745 9.60156C89.6484 10.2526 89.6094 11.0208 89.5573 11.9062C89.5182 12.7786 89.4662 13.7878 89.401 14.9336ZM106.891 9.30859C106.748 9.28255 106.552 9.25651 106.305 9.23047C106.071 9.20443 105.83 9.1849 105.582 9.17187C105.296 9.15885 104.99 9.15234 104.664 9.15234C104.339 9.1263 103.929 9.1263 103.434 9.15234C102.952 9.16536 102.444 9.17187 101.91 9.17187C101.897 9.51042 101.871 9.85547 101.832 10.207C101.806 10.5586 101.78 10.9036 101.754 11.2422C101.689 11.8672 101.63 12.5052 101.578 13.1562C101.539 13.8073 101.52 14.4258 101.52 15.0117C101.52 15.5977 101.552 16.1315 101.617 16.6133C101.696 17.082 101.832 17.4531 102.028 17.7266C101.871 17.8437 101.702 17.9349 101.52 18C101.338 18.0521 101.175 18.0911 101.032 18.1172C100.862 18.1562 100.693 18.1758 100.524 18.1758C100.367 18.1758 100.237 18.1237 100.133 18.0195C100.029 17.9154 99.9703 17.7331 99.9573 17.4727C99.9313 17.0299 99.9247 16.5872 99.9378 16.1445C99.9638 15.6888 99.9899 15.2135 100.016 14.7187C100.055 14.224 100.094 13.6966 100.133 13.1367C100.172 12.5638 100.211 11.9388 100.25 11.2617C100.289 10.5586 100.309 9.875 100.309 9.21094C99.8141 9.22396 99.3974 9.23047 99.0589 9.23047C98.7203 9.23047 98.5315 9.22396 98.4925 9.21094C98.4534 9.1849 98.4078 9.1263 98.3557 9.03516C98.3037 8.95703 98.2385 8.83984 98.1604 8.68359C98.0693 8.52734 97.9586 8.30599 97.8284 8.01953C98.0758 8.01953 98.3492 8.01953 98.6487 8.01953C98.9352 8.01953 99.2021 8.01302 99.4495 8C99.7359 7.98698 100.022 7.97396 100.309 7.96094C100.296 7.7526 100.289 7.53125 100.289 7.29687C100.276 7.11458 100.27 6.91276 100.27 6.69141C100.27 6.45703 100.263 6.24219 100.25 6.04687C100.25 5.96875 100.341 5.8776 100.524 5.77344C100.719 5.65625 100.927 5.55208 101.149 5.46094C101.37 5.36979 101.572 5.3112 101.754 5.28516C101.949 5.25911 102.047 5.30469 102.047 5.42187C102.047 5.53906 102.041 5.82552 102.028 6.28125C102.028 6.72396 102.015 7.26432 101.989 7.90234C102.119 7.90234 102.216 7.89583 102.282 7.88281C102.972 7.85677 103.525 7.83073 103.942 7.80469C104.371 7.76562 104.723 7.75911 104.996 7.78516C105.27 7.8112 105.511 7.8763 105.719 7.98047C105.927 8.08463 106.162 8.25391 106.422 8.48828C106.513 8.56641 106.591 8.65104 106.657 8.74219C106.722 8.82031 106.774 8.91146 106.813 9.01562C106.865 9.10677 106.891 9.20443 106.891 9.30859ZM105.45 14.9336C105.607 14.4648 105.737 14.0677 105.841 13.7422C105.958 13.4167 106.056 13.1562 106.134 12.9609C106.225 12.7266 106.303 12.5378 106.368 12.3945C106.446 12.1862 106.531 11.9779 106.622 11.7695C106.726 11.5612 106.83 11.3724 106.935 11.2031C107.039 11.0208 107.136 10.8711 107.228 10.7539C107.319 10.6367 107.397 10.5586 107.462 10.5195C107.514 10.4935 107.631 10.4935 107.814 10.5195C108.009 10.5456 108.217 10.6107 108.439 10.7148C108.673 10.806 108.888 10.9362 109.083 11.1055C109.291 11.2747 109.435 11.4831 109.513 11.7305C109.591 12.0299 109.617 12.4206 109.591 12.9023C109.565 13.3841 109.526 13.8789 109.474 14.3867C109.435 14.8945 109.402 15.3763 109.376 15.832C109.363 16.2878 109.396 16.6328 109.474 16.8672C109.526 16.9974 109.578 17.1276 109.63 17.2578C109.682 17.362 109.741 17.4727 109.806 17.5898C109.884 17.694 109.968 17.7852 110.06 17.8633C109.682 18.0065 109.376 18.1107 109.142 18.1758C108.92 18.2539 108.751 18.306 108.634 18.332C108.491 18.3711 108.393 18.3776 108.341 18.3516C108.237 18.3125 108.139 18.2148 108.048 18.0586C107.957 17.9023 107.879 17.6549 107.814 17.3164C107.788 17.2122 107.781 17.0299 107.794 16.7695C107.807 16.5091 107.827 16.2161 107.853 15.8906C107.879 15.5651 107.905 15.2266 107.931 14.875C107.957 14.5104 107.983 14.1719 108.009 13.8594C108.035 13.5469 108.048 13.2734 108.048 13.0391C108.061 12.8047 108.061 12.6484 108.048 12.5703C107.983 12.349 107.892 12.1927 107.774 12.1016C107.657 11.9974 107.566 11.9844 107.501 12.0625C107.345 12.2578 107.169 12.5964 106.974 13.0781C106.791 13.5469 106.616 14.0612 106.446 14.6211C106.277 15.168 106.127 15.7148 105.997 16.2617C105.88 16.8086 105.808 17.2578 105.782 17.6094C105.782 17.6875 105.717 17.7721 105.587 17.8633C105.47 17.9414 105.333 18.013 105.177 18.0781C105.034 18.1432 104.89 18.1823 104.747 18.1953C104.604 18.2214 104.506 18.2018 104.454 18.1367C104.415 18.0977 104.33 18.0065 104.2 17.8633C104.083 17.7201 104.018 17.4792 104.005 17.1406C103.979 16.8151 103.979 16.3724 104.005 15.8125C104.031 15.2396 104.038 14.6406 104.024 14.0156V12.5703C104.024 11.9844 104.018 11.1771 104.005 10.1484C104.005 9.10677 103.998 7.73307 103.985 6.02734C104.129 5.94922 104.259 5.88411 104.376 5.83203C104.493 5.76693 104.604 5.71484 104.708 5.67578C104.825 5.6237 104.936 5.58464 105.04 5.55859C105.6 5.41536 105.893 5.41536 105.919 5.55859C105.932 5.6888 105.919 6.10547 105.88 6.80859C105.867 7.10807 105.847 7.48568 105.821 7.94141C105.795 8.39713 105.763 8.95052 105.724 9.60156C105.698 10.2526 105.659 11.0208 105.607 11.9062C105.567 12.7786 105.515 13.7878 105.45 14.9336ZM113.814 18.2148C112.903 18.2148 112.2 17.9089 111.705 17.2969C111.21 16.6849 110.963 15.8841 110.963 14.8945C110.963 14.2044 111.06 13.5599 111.256 12.9609C111.464 12.349 111.738 11.8216 112.076 11.3789C112.415 10.9362 112.805 10.5911 113.248 10.3437C113.704 10.0833 114.179 9.95312 114.674 9.95312C115.155 9.95312 115.566 10.1289 115.904 10.4805C116.243 10.819 116.412 11.3073 116.412 11.9453C116.412 12.362 116.321 12.7786 116.139 13.1953C115.956 13.599 115.715 13.9635 115.416 14.2891C115.129 14.6016 114.81 14.8555 114.459 15.0508C114.107 15.2461 113.769 15.3437 113.443 15.3437C113.235 15.3437 113.059 15.3177 112.916 15.2656C112.773 15.2135 112.642 15.1354 112.525 15.0312C112.564 15.7734 112.727 16.2943 113.014 16.5937C113.3 16.8802 113.671 17.0234 114.127 17.0234C114.439 17.0234 114.713 16.9583 114.947 16.8281C115.195 16.6979 115.403 16.5482 115.572 16.3789C115.741 16.2096 115.878 16.0404 115.982 15.8711C116.086 15.6888 116.158 15.5521 116.197 15.4609C116.236 15.3828 116.301 15.3437 116.392 15.3437C116.497 15.3437 116.549 15.4219 116.549 15.5781C116.549 15.7214 116.497 15.9427 116.392 16.2422C116.301 16.5286 116.145 16.8216 115.924 17.1211C115.702 17.4076 115.416 17.6615 115.064 17.8828C114.726 18.1042 114.309 18.2148 113.814 18.2148ZM114.713 10.793C114.635 10.793 114.485 10.8776 114.264 11.0469C114.055 11.2031 113.827 11.4375 113.58 11.75C113.346 12.0625 113.124 12.4401 112.916 12.8828C112.721 13.3125 112.597 13.8008 112.545 14.3477C113.326 14.1654 113.945 13.8789 114.4 13.4883C114.856 13.0977 115.084 12.5247 115.084 11.7695C115.084 11.3919 115.038 11.138 114.947 11.0078C114.856 10.8646 114.778 10.793 114.713 10.793ZM127.671 14.6406C127.645 15.1484 127.554 15.6172 127.398 16.0469C127.255 16.4766 127.053 16.8542 126.792 17.1797C126.532 17.4922 126.22 17.7396 125.855 17.9219C125.503 18.1042 125.113 18.2018 124.683 18.2148C124.305 18.2279 123.947 18.1367 123.609 17.9414C123.283 17.7461 122.997 17.4727 122.749 17.1211C122.502 16.7695 122.313 16.3529 122.183 15.8711C122.066 15.3763 122.033 14.8424 122.085 14.2695C122.124 13.6055 122.248 13.0391 122.457 12.5703C122.665 12.0885 122.886 11.6914 123.121 11.3789C123.355 11.0664 123.57 10.8385 123.765 10.6953C123.973 10.5391 124.104 10.4479 124.156 10.4219C124.247 10.3828 124.332 10.3763 124.41 10.4023C124.488 10.4154 124.572 10.4349 124.664 10.4609C124.69 10.474 124.716 10.5065 124.742 10.5586C124.794 10.6497 124.826 10.819 124.839 11.0664C124.904 10.9232 124.989 10.806 125.093 10.7148C125.197 10.6237 125.302 10.5586 125.406 10.5195C125.536 10.4674 125.666 10.4349 125.796 10.4219C125.888 10.4089 126.044 10.4805 126.265 10.6367C126.499 10.793 126.721 11.0404 126.929 11.3789C127.151 11.7174 127.339 12.1602 127.496 12.707C127.652 13.2409 127.71 13.8854 127.671 14.6406ZM126.343 14.4062C126.356 14.0937 126.343 13.7812 126.304 13.4687C126.278 13.1432 126.226 12.8503 126.148 12.5898C126.083 12.3164 125.998 12.1016 125.894 11.9453C125.79 11.776 125.686 11.6914 125.582 11.6914C125.464 11.7174 125.334 11.776 125.191 11.8672C125.074 11.9453 124.943 12.069 124.8 12.2383C124.657 12.4076 124.52 12.6484 124.39 12.9609C124.377 12.9219 124.364 12.8503 124.351 12.7461C124.338 12.6549 124.325 12.5378 124.312 12.3945C124.312 12.2383 124.325 12.0299 124.351 11.7695C124.169 11.9909 124.026 12.2513 123.921 12.5508C123.83 12.8503 123.759 13.1367 123.707 13.4102C123.654 13.7357 123.615 14.0612 123.589 14.3867C123.576 14.7383 123.589 15.0833 123.628 15.4219C123.68 15.7604 123.759 16.0599 123.863 16.3203C123.98 16.5807 124.117 16.7891 124.273 16.9453C124.429 17.1016 124.618 17.1732 124.839 17.1602C125.061 17.1471 125.256 17.056 125.425 16.8867C125.595 16.7174 125.744 16.5026 125.874 16.2422C126.005 15.9818 126.109 15.6888 126.187 15.3633C126.265 15.0378 126.317 14.7187 126.343 14.4062ZM131.465 5.34375C131.439 5.8125 131.393 6.35286 131.328 6.96484C131.263 7.57682 131.192 8.23437 131.114 8.9375C131.048 9.64062 130.977 10.3763 130.899 11.1445C130.834 11.9128 130.775 12.6875 130.723 13.4687C130.671 14.25 130.645 14.888 130.645 15.3828C130.658 15.8646 130.69 16.2617 130.742 16.5742C130.795 16.8867 130.866 17.1341 130.957 17.3164C131.048 17.4987 131.166 17.6745 131.309 17.8437C131.14 17.9479 130.983 18.026 130.84 18.0781C130.697 18.1302 130.573 18.1693 130.469 18.1953C130.339 18.2344 130.222 18.2539 130.117 18.2539C129.922 18.2539 129.753 18.1628 129.61 17.9805C129.466 17.7852 129.349 17.5378 129.258 17.2383C129.18 16.9388 129.115 16.6068 129.063 16.2422C129.024 15.8646 129.004 15.4935 129.004 15.1289C129.004 14.7383 129.017 14.2891 129.043 13.7812C129.069 13.2604 129.095 12.7135 129.121 12.1406C129.16 11.5547 129.199 10.9492 129.239 10.3242C129.278 9.6862 129.31 9.05469 129.336 8.42969C129.362 7.94792 129.388 7.51172 129.414 7.12109C129.44 6.78255 129.46 6.47656 129.473 6.20312C129.486 5.91667 129.479 5.7474 129.453 5.69531C129.532 5.59115 129.629 5.51302 129.746 5.46094C129.864 5.40885 129.974 5.36328 130.078 5.32422C130.209 5.28516 130.339 5.2526 130.469 5.22656H130.84C130.944 5.22656 131.055 5.23958 131.172 5.26562C131.289 5.27865 131.387 5.30469 131.465 5.34375ZM138.931 5.59766C138.931 5.74089 138.918 6.02083 138.892 6.4375C138.866 6.85417 138.833 7.35547 138.794 7.94141C138.755 8.52734 138.716 9.17187 138.677 9.875C138.638 10.5781 138.605 11.2943 138.579 12.0234C138.553 12.7526 138.527 13.4362 138.501 14.0742C138.488 14.6992 138.482 15.2591 138.482 15.7539C138.495 16.2487 138.521 16.6654 138.56 17.0039C138.599 17.3294 138.657 17.5508 138.735 17.668L137.857 18C137.791 18.026 137.713 18.0391 137.622 18.0391C137.531 18.0391 137.433 18.013 137.329 17.9609C137.238 17.9089 137.16 17.8177 137.095 17.6875C137.03 17.5573 136.997 17.375 136.997 17.1406C136.997 17.0495 136.997 16.9388 136.997 16.8086C137.01 16.6654 137.017 16.5026 137.017 16.3203C136.86 16.5807 136.691 16.8346 136.509 17.082C136.327 17.3294 136.125 17.5443 135.903 17.7266C135.695 17.9089 135.467 18.0521 135.22 18.1562C134.972 18.2734 134.712 18.332 134.439 18.332C134.178 18.332 133.924 18.2734 133.677 18.1562C133.429 18.0521 133.208 17.8893 133.013 17.668C132.817 17.4466 132.655 17.1602 132.524 16.8086C132.407 16.457 132.349 16.0339 132.349 15.5391C132.349 14.6406 132.453 13.8594 132.661 13.1953C132.87 12.5182 133.13 11.9583 133.442 11.5156C133.768 11.0599 134.113 10.7214 134.478 10.5C134.855 10.2656 135.2 10.1484 135.513 10.1484C135.995 10.1484 136.366 10.2786 136.626 10.5391C136.886 10.7865 137.075 11.0469 137.192 11.3203C137.205 10.9427 137.212 10.5911 137.212 10.2656C137.225 9.92708 137.232 9.64062 137.232 9.40625C137.232 8.44271 137.212 7.58333 137.173 6.82812C137.134 6.07292 137.036 5.5 136.88 5.10937C137.062 5.00521 137.225 4.92708 137.368 4.875C137.524 4.82292 137.661 4.78385 137.778 4.75781C137.922 4.71875 138.045 4.69922 138.149 4.69922C138.436 4.69922 138.638 4.78385 138.755 4.95312C138.872 5.10937 138.931 5.32422 138.931 5.59766ZM137.075 14.6602C137.101 14.3216 137.114 13.9701 137.114 13.6055C137.127 13.2279 137.14 12.8503 137.153 12.4727C137.062 12.6159 136.952 12.7396 136.821 12.8437C136.704 12.9479 136.574 12.974 136.431 12.9219C136.483 12.5312 136.476 12.2318 136.411 12.0234C136.359 11.8151 136.281 11.6589 136.177 11.5547C136.06 11.4375 135.923 11.3724 135.767 11.3594C135.532 11.3594 135.298 11.4896 135.064 11.75C134.842 12.0104 134.64 12.3359 134.458 12.7266C134.289 13.1042 134.152 13.5143 134.048 13.957C133.944 14.3867 133.892 14.7839 133.892 15.1484C133.892 15.8776 133.989 16.3854 134.185 16.6719C134.393 16.9583 134.614 17.1016 134.849 17.1016C135.044 17.1016 135.246 17.0234 135.454 16.8672C135.676 16.7109 135.884 16.5091 136.079 16.2617C136.288 16.0143 136.476 15.7539 136.646 15.4805C136.828 15.194 136.971 14.9206 137.075 14.6602ZM153.296 10.2852C153.921 10.2852 154.168 10.6823 154.038 11.4766C153.986 11.8151 153.895 12.2708 153.764 12.8437C153.634 13.4167 153.471 14.0156 153.276 14.6406C153.081 15.2526 152.853 15.8516 152.592 16.4375C152.345 17.0234 152.072 17.5052 151.772 17.8828C151.499 18.013 151.264 18.0911 151.069 18.1172C150.965 18.1432 150.874 18.1497 150.796 18.1367C150.691 18.1367 150.594 18.1237 150.503 18.0977C150.411 18.0716 150.32 18.0195 150.229 17.9414C150.151 17.8633 150.073 17.7461 149.995 17.5898C149.93 17.4336 149.878 17.2187 149.839 16.9453C149.773 16.5417 149.676 16.1055 149.546 15.6367C149.428 15.168 149.305 14.7383 149.174 14.3477C149.057 14.6992 148.934 15.0573 148.803 15.4219C148.686 15.7734 148.563 16.1055 148.432 16.418C148.315 16.7305 148.198 17.0104 148.081 17.2578C147.964 17.5052 147.853 17.694 147.749 17.8242C147.319 18.0195 147.007 18.1367 146.811 18.1758C146.694 18.2148 146.596 18.2279 146.518 18.2148C146.258 17.8763 146.03 17.5182 145.835 17.1406C145.639 16.75 145.483 16.3854 145.366 16.0469C145.223 15.6562 145.105 15.2656 145.014 14.875C144.91 14.3802 144.839 13.9049 144.799 13.4492C144.76 12.9935 144.721 12.5768 144.682 12.1992C144.656 11.8086 144.617 11.4701 144.565 11.1836C144.526 10.8971 144.448 10.6693 144.331 10.5C144.448 10.4089 144.585 10.3242 144.741 10.2461C144.897 10.1549 145.06 10.1029 145.229 10.0898C145.398 10.0638 145.568 10.0768 145.737 10.1289C145.919 10.168 146.095 10.2656 146.264 10.4219C146.29 10.7604 146.31 11.0924 146.323 11.418C146.336 11.7305 146.349 12.0169 146.362 12.2773C146.375 12.5768 146.382 12.8568 146.382 13.1172C146.395 13.4427 146.408 13.7878 146.421 14.1523C146.447 14.5169 146.479 14.875 146.518 15.2266C146.557 15.5781 146.616 15.9102 146.694 16.2227C146.785 16.5221 146.902 16.776 147.046 16.9844C147.189 16.75 147.391 16.3659 147.651 15.832C147.911 15.2852 148.126 14.6016 148.296 13.7812C148.361 13.4427 148.4 13.1042 148.413 12.7656C148.439 12.4271 148.439 12.1211 148.413 11.8477C148.4 11.5612 148.374 11.3138 148.335 11.1055C148.309 10.8841 148.276 10.7279 148.237 10.6367C148.341 10.5716 148.452 10.526 148.569 10.5C148.686 10.4609 148.797 10.4284 148.901 10.4023C149.018 10.3763 149.129 10.3633 149.233 10.3633C149.572 10.3372 149.799 10.4023 149.917 10.5586C150.047 10.7018 150.079 10.9753 150.014 11.3789C150.001 11.4831 149.969 11.6458 149.917 11.8672C149.865 12.0755 149.799 12.3294 149.721 12.6289C149.799 12.8893 149.891 13.2214 149.995 13.625C150.099 14.0156 150.203 14.3997 150.307 14.7773C150.385 15.1419 150.464 15.513 150.542 15.8906C150.62 16.2682 150.685 16.6003 150.737 16.8867C150.802 16.8737 150.867 16.8477 150.932 16.8086C150.997 16.7695 151.056 16.6979 151.108 16.5937C151.16 16.5026 151.232 16.3529 151.323 16.1445C151.414 15.9362 151.512 15.6823 151.616 15.3828C151.72 15.0833 151.818 14.7513 151.909 14.3867C152.013 14.0221 152.104 13.6315 152.182 13.2148C152.326 12.3815 152.378 11.776 152.339 11.3984C152.313 11.0208 152.241 10.7669 152.124 10.6367C152.254 10.5456 152.384 10.4805 152.514 10.4414C152.658 10.3893 152.788 10.3503 152.905 10.3242C153.048 10.2982 153.178 10.2852 153.296 10.2852ZM160.585 14.6406C160.559 15.1484 160.468 15.6172 160.312 16.0469C160.169 16.4766 159.967 16.8542 159.707 17.1797C159.446 17.4922 159.134 17.7396 158.769 17.9219C158.417 18.1042 158.027 18.2018 157.597 18.2148C157.22 18.2279 156.861 18.1367 156.523 17.9414C156.197 17.7461 155.911 17.4727 155.664 17.1211C155.416 16.7695 155.227 16.3529 155.097 15.8711C154.98 15.3763 154.947 14.8424 154.999 14.2695C155.039 13.6055 155.162 13.0391 155.371 12.5703C155.579 12.0885 155.8 11.6914 156.035 11.3789C156.269 11.0664 156.484 10.8385 156.679 10.6953C156.888 10.5391 157.018 10.4479 157.07 10.4219C157.161 10.3828 157.246 10.3763 157.324 10.4023C157.402 10.4154 157.486 10.4349 157.578 10.4609C157.604 10.474 157.63 10.5065 157.656 10.5586C157.708 10.6497 157.74 10.819 157.753 11.0664C157.818 10.9232 157.903 10.806 158.007 10.7148C158.111 10.6237 158.216 10.5586 158.32 10.5195C158.45 10.4674 158.58 10.4349 158.71 10.4219C158.802 10.4089 158.958 10.4805 159.179 10.6367C159.414 10.793 159.635 11.0404 159.843 11.3789C160.065 11.7174 160.253 12.1602 160.41 12.707C160.566 13.2409 160.624 13.8854 160.585 14.6406ZM159.257 14.4062C159.27 14.0937 159.257 13.7812 159.218 13.4687C159.192 13.1432 159.14 12.8503 159.062 12.5898C158.997 12.3164 158.912 12.1016 158.808 11.9453C158.704 11.776 158.6 11.6914 158.496 11.6914C158.378 11.7174 158.248 11.776 158.105 11.8672C157.988 11.9453 157.858 12.069 157.714 12.2383C157.571 12.4076 157.434 12.6484 157.304 12.9609C157.291 12.9219 157.278 12.8503 157.265 12.7461C157.252 12.6549 157.239 12.5378 157.226 12.3945C157.226 12.2383 157.239 12.0299 157.265 11.7695C157.083 11.9909 156.94 12.2513 156.835 12.5508C156.744 12.8503 156.673 13.1367 156.621 13.4102C156.568 13.7357 156.529 14.0612 156.503 14.3867C156.49 14.7383 156.503 15.0833 156.542 15.4219C156.595 15.7604 156.673 16.0599 156.777 16.3203C156.894 16.5807 157.031 16.7891 157.187 16.9453C157.343 17.1016 157.532 17.1732 157.753 17.1602C157.975 17.1471 158.17 17.056 158.339 16.8867C158.509 16.7174 158.658 16.5026 158.789 16.2422C158.919 15.9818 159.023 15.6888 159.101 15.3633C159.179 15.0378 159.231 14.7187 159.257 14.4062ZM167.133 12.0039C167.133 12.1862 167.081 12.375 166.977 12.5703C166.886 12.7526 166.768 12.9284 166.625 13.0977C166.482 13.2669 166.319 13.4167 166.137 13.5469C165.968 13.6641 165.805 13.7357 165.649 13.7617C165.753 13.3581 165.785 13.0456 165.746 12.8242C165.707 12.6029 165.642 12.4401 165.551 12.3359C165.447 12.2187 165.317 12.1536 165.16 12.1406C164.926 12.1406 164.698 12.2773 164.477 12.5508C164.268 12.8112 164.086 13.1367 163.93 13.5273C163.774 13.9049 163.65 14.3151 163.559 14.7578C163.468 15.1875 163.422 15.5781 163.422 15.9297C163.409 16.1771 163.416 16.418 163.442 16.6523C163.455 16.8477 163.474 17.0495 163.5 17.2578C163.539 17.4661 163.591 17.6289 163.657 17.7461C163.578 17.8112 163.448 17.8893 163.266 17.9805C163.097 18.0716 162.914 18.1302 162.719 18.1562C162.537 18.1823 162.367 18.1497 162.211 18.0586C162.068 17.9674 161.99 17.7721 161.977 17.4727C161.951 17.1862 161.931 16.8672 161.918 16.5156C161.918 16.151 161.918 15.793 161.918 15.4414C161.931 15.0768 161.944 14.7187 161.957 14.3672C161.97 14.0156 161.99 13.6901 162.016 13.3906C162.042 12.8177 162.055 12.375 162.055 12.0625C162.055 11.75 162.048 11.4505 162.035 11.1641C162.035 11.112 162.12 11.0404 162.289 10.9492C162.472 10.8451 162.667 10.7539 162.875 10.6758C163.097 10.5977 163.298 10.5521 163.481 10.5391C163.663 10.526 163.754 10.5651 163.754 10.6562C163.754 10.7995 163.735 11.0859 163.696 11.5156C163.67 11.9323 163.63 12.3685 163.578 12.8242C163.67 12.5768 163.787 12.3099 163.93 12.0234C164.086 11.737 164.262 11.4701 164.457 11.2227C164.653 10.9753 164.874 10.7734 165.121 10.6172C165.369 10.4479 165.642 10.3633 165.942 10.3633C166.176 10.3633 166.365 10.4349 166.508 10.5781C166.664 10.7214 166.788 10.8841 166.879 11.0664C166.97 11.2487 167.035 11.431 167.074 11.6133C167.114 11.7956 167.133 11.9258 167.133 12.0039ZM171.903 13.332C172.177 13.4492 172.437 13.638 172.685 13.8984C172.932 14.1458 173.088 14.5234 173.153 15.0312C173.205 15.474 173.277 15.8711 173.368 16.2227C173.459 16.5742 173.59 16.8932 173.759 17.1797C173.928 17.4531 174.149 17.7005 174.423 17.9219C174.709 18.1302 175.074 18.3125 175.517 18.4687C175.399 18.5729 175.256 18.6576 175.087 18.7227C174.931 18.7878 174.781 18.8333 174.638 18.8594C174.468 18.9115 174.293 18.9375 174.11 18.9375C173.681 18.9766 173.329 18.918 173.056 18.7617C172.782 18.6185 172.567 18.4036 172.411 18.1172C172.255 17.8307 172.138 17.4987 172.06 17.1211C171.982 16.7435 171.923 16.3529 171.884 15.9492C171.871 15.7799 171.851 15.6042 171.825 15.4219C171.799 15.2396 171.754 15.0638 171.689 14.8945C171.623 14.7253 171.532 14.569 171.415 14.4258C171.311 14.2826 171.174 14.1719 171.005 14.0937C170.718 14.3151 170.452 14.5104 170.204 14.6797C169.97 14.8359 169.761 14.9661 169.579 15.0703C169.592 15.7734 169.625 16.3529 169.677 16.8086C169.742 17.2643 169.827 17.5703 169.931 17.7266C169.84 17.7917 169.748 17.8503 169.657 17.9023C169.566 17.9414 169.488 17.974 169.423 18C169.332 18.0391 169.247 18.0651 169.169 18.0781C168.909 18.1562 168.674 18.1432 168.466 18.0391C168.271 17.9479 168.166 17.694 168.153 17.2773L168.036 5.87109C168.036 5.76693 168.134 5.66276 168.329 5.55859C168.538 5.44141 168.765 5.35026 169.013 5.28516C169.26 5.22005 169.482 5.1875 169.677 5.1875C169.885 5.1875 169.983 5.24609 169.97 5.36328C169.931 6.26172 169.892 7.10807 169.853 7.90234C169.814 8.69661 169.781 9.39974 169.755 10.0117C169.716 10.7279 169.683 11.3789 169.657 11.9648C169.631 12.3164 169.612 12.6549 169.599 12.9805C169.599 13.306 169.592 13.6185 169.579 13.918C169.827 13.7227 170.087 13.5078 170.36 13.2734C170.634 13.0391 170.894 12.7786 171.142 12.4922C171.389 12.2057 171.597 11.8997 171.767 11.5742C171.936 11.2357 172.034 10.8776 172.06 10.5C172.203 10.3958 172.346 10.3112 172.489 10.2461C172.646 10.168 172.782 10.1094 172.899 10.0703C173.043 10.0182 173.173 9.99219 173.29 9.99219C173.59 9.97917 173.765 10.0443 173.817 10.1875C173.857 10.2917 173.85 10.4479 173.798 10.6562C173.759 10.8516 173.661 11.0924 173.505 11.3789C173.362 11.6523 173.16 11.9583 172.899 12.2969C172.639 12.6224 172.307 12.9674 171.903 13.332ZM178.92 5.30469C179.297 5.33073 179.636 5.42187 179.935 5.57812C180.196 5.72135 180.43 5.94922 180.639 6.26172C180.847 6.5612 180.958 6.99088 180.971 7.55078C180.775 7.69401 180.58 7.79818 180.385 7.86328C180.189 7.92838 180.014 7.97396 179.857 8C179.675 8.02604 179.499 8.02604 179.33 8C179.382 7.63542 179.382 7.35547 179.33 7.16016C179.291 6.96484 179.232 6.82161 179.154 6.73047C179.063 6.6263 178.946 6.56771 178.803 6.55469C178.373 6.55469 178.054 6.88021 177.846 7.53125C177.65 8.16927 177.533 9.04818 177.494 10.168C177.676 10.1419 177.839 10.1094 177.982 10.0703C178.126 10.0312 178.288 10.0052 178.471 9.99219C178.64 9.97917 178.803 9.97266 178.959 9.97266C179.102 9.97266 179.245 9.98568 179.389 10.0117C179.545 10.0378 179.688 10.0833 179.818 10.1484C179.844 10.3698 179.844 10.5716 179.818 10.7539C179.792 10.9362 179.753 11.099 179.701 11.2422C179.649 11.3984 179.577 11.5482 179.486 11.6914C179.33 11.6133 179.135 11.5612 178.9 11.5352C178.679 11.5091 178.464 11.4961 178.256 11.4961C178.008 11.4961 177.754 11.5091 177.494 11.5352C177.507 12.1341 177.52 12.7005 177.533 13.2344C177.546 13.7552 177.559 14.2695 177.572 14.7773C177.598 15.2721 177.624 15.7734 177.65 16.2812C177.676 16.776 177.702 17.2839 177.728 17.8047C177.585 17.987 177.429 18.0977 177.26 18.1367C177.103 18.1888 176.954 18.2083 176.81 18.1953C176.641 18.1823 176.472 18.1367 176.303 18.0586C176.198 17.1992 176.114 16.3919 176.049 15.6367C175.997 14.8685 175.951 14.1979 175.912 13.625C175.86 12.9609 175.821 12.349 175.795 11.7891C175.573 11.8151 175.385 11.8346 175.228 11.8477C175.085 11.8477 174.974 11.8411 174.896 11.8281C174.844 11.8281 174.818 11.7891 174.818 11.7109L174.799 10.793C174.799 10.7409 174.825 10.7148 174.877 10.7148C174.968 10.6888 175.085 10.6628 175.228 10.6367C175.385 10.5977 175.567 10.5521 175.775 10.5C175.827 8.84635 176.107 7.57031 176.615 6.67187C177.123 5.76042 177.891 5.30469 178.92 5.30469ZM182.928 5.34375C182.902 5.8125 182.857 6.35286 182.792 6.96484C182.727 7.57682 182.655 8.23437 182.577 8.9375C182.512 9.64062 182.44 10.3763 182.362 11.1445C182.297 11.9128 182.238 12.6875 182.186 13.4687C182.134 14.25 182.108 14.888 182.108 15.3828C182.121 15.8646 182.154 16.2617 182.206 16.5742C182.258 16.8867 182.329 17.1341 182.421 17.3164C182.512 17.4987 182.629 17.6745 182.772 17.8437C182.603 17.9479 182.447 18.026 182.303 18.0781C182.16 18.1302 182.036 18.1693 181.932 18.1953C181.802 18.2344 181.685 18.2539 181.581 18.2539C181.385 18.2539 181.216 18.1628 181.073 17.9805C180.93 17.7852 180.813 17.5378 180.721 17.2383C180.643 16.9388 180.578 16.6068 180.526 16.2422C180.487 15.8646 180.467 15.4935 180.467 15.1289C180.467 14.7383 180.48 14.2891 180.507 13.7812C180.533 13.2604 180.559 12.7135 180.585 12.1406C180.624 11.5547 180.663 10.9492 180.702 10.3242C180.741 9.6862 180.773 9.05469 180.799 8.42969C180.826 7.94792 180.852 7.51172 180.878 7.12109C180.904 6.78255 180.923 6.47656 180.936 6.20312C180.949 5.91667 180.943 5.7474 180.917 5.69531C180.995 5.59115 181.092 5.51302 181.21 5.46094C181.327 5.40885 181.438 5.36328 181.542 5.32422C181.672 5.28516 181.802 5.2526 181.932 5.22656H182.303C182.408 5.22656 182.518 5.23958 182.635 5.26562C182.753 5.27865 182.85 5.30469 182.928 5.34375ZM189.437 14.6406C189.411 15.1484 189.32 15.6172 189.164 16.0469C189.02 16.4766 188.818 16.8542 188.558 17.1797C188.298 17.4922 187.985 17.7396 187.621 17.9219C187.269 18.1042 186.878 18.2018 186.449 18.2148C186.071 18.2279 185.713 18.1367 185.374 17.9414C185.049 17.7461 184.763 17.4727 184.515 17.1211C184.268 16.7695 184.079 16.3529 183.949 15.8711C183.832 15.3763 183.799 14.8424 183.851 14.2695C183.89 13.6055 184.014 13.0391 184.222 12.5703C184.43 12.0885 184.652 11.6914 184.886 11.3789C185.121 11.0664 185.335 10.8385 185.531 10.6953C185.739 10.5391 185.869 10.4479 185.921 10.4219C186.013 10.3828 186.097 10.3763 186.175 10.4023C186.253 10.4154 186.338 10.4349 186.429 10.4609C186.455 10.474 186.481 10.5065 186.507 10.5586C186.559 10.6497 186.592 10.819 186.605 11.0664C186.67 10.9232 186.755 10.806 186.859 10.7148C186.963 10.6237 187.067 10.5586 187.171 10.5195C187.302 10.4674 187.432 10.4349 187.562 10.4219C187.653 10.4089 187.809 10.4805 188.031 10.6367C188.265 10.793 188.486 11.0404 188.695 11.3789C188.916 11.7174 189.105 12.1602 189.261 12.707C189.417 13.2409 189.476 13.8854 189.437 14.6406ZM188.109 14.4062C188.122 14.0937 188.109 13.7812 188.07 13.4687C188.044 13.1432 187.992 12.8503 187.914 12.5898C187.848 12.3164 187.764 12.1016 187.66 11.9453C187.555 11.776 187.451 11.6914 187.347 11.6914C187.23 11.7174 187.1 11.776 186.957 11.8672C186.839 11.9453 186.709 12.069 186.566 12.2383C186.423 12.4076 186.286 12.6484 186.156 12.9609C186.143 12.9219 186.13 12.8503 186.117 12.7461C186.104 12.6549 186.091 12.5378 186.078 12.3945C186.078 12.2383 186.091 12.0299 186.117 11.7695C185.934 11.9909 185.791 12.2513 185.687 12.5508C185.596 12.8503 185.524 13.1367 185.472 13.4102C185.42 13.7357 185.381 14.0612 185.355 14.3867C185.342 14.7383 185.355 15.0833 185.394 15.4219C185.446 15.7604 185.524 16.0599 185.628 16.3203C185.746 16.5807 185.882 16.7891 186.039 16.9453C186.195 17.1016 186.384 17.1732 186.605 17.1602C186.826 17.1471 187.022 17.056 187.191 16.8867C187.36 16.7174 187.51 16.5026 187.64 16.2422C187.77 15.9818 187.874 15.6888 187.953 15.3633C188.031 15.0378 188.083 14.7187 188.109 14.4062ZM199.324 10.2852C199.949 10.2852 200.197 10.6823 200.067 11.4766C200.015 11.8151 199.923 12.2708 199.793 12.8437C199.663 13.4167 199.5 14.0156 199.305 14.6406C199.11 15.2526 198.882 15.8516 198.621 16.4375C198.374 17.0234 198.101 17.5052 197.801 17.8828C197.528 18.013 197.293 18.0911 197.098 18.1172C196.994 18.1432 196.903 18.1497 196.824 18.1367C196.72 18.1367 196.623 18.1237 196.532 18.0977C196.44 18.0716 196.349 18.0195 196.258 17.9414C196.18 17.8633 196.102 17.7461 196.024 17.5898C195.959 17.4336 195.907 17.2187 195.867 16.9453C195.802 16.5417 195.705 16.1055 195.574 15.6367C195.457 15.168 195.334 14.7383 195.203 14.3477C195.086 14.6992 194.963 15.0573 194.832 15.4219C194.715 15.7734 194.591 16.1055 194.461 16.418C194.344 16.7305 194.227 17.0104 194.11 17.2578C193.992 17.5052 193.882 17.694 193.778 17.8242C193.348 18.0195 193.035 18.1367 192.84 18.1758C192.723 18.2148 192.625 18.2279 192.547 18.2148C192.287 17.8763 192.059 17.5182 191.864 17.1406C191.668 16.75 191.512 16.3854 191.395 16.0469C191.252 15.6562 191.134 15.2656 191.043 14.875C190.939 14.3802 190.867 13.9049 190.828 13.4492C190.789 12.9935 190.75 12.5768 190.711 12.1992C190.685 11.8086 190.646 11.4701 190.594 11.1836C190.555 10.8971 190.477 10.6693 190.36 10.5C190.477 10.4089 190.614 10.3242 190.77 10.2461C190.926 10.1549 191.089 10.1029 191.258 10.0898C191.427 10.0638 191.597 10.0768 191.766 10.1289C191.948 10.168 192.124 10.2656 192.293 10.4219C192.319 10.7604 192.339 11.0924 192.352 11.418C192.365 11.7305 192.378 12.0169 192.391 12.2773C192.404 12.5768 192.41 12.8568 192.41 13.1172C192.423 13.4427 192.436 13.7878 192.449 14.1523C192.476 14.5169 192.508 14.875 192.547 15.2266C192.586 15.5781 192.645 15.9102 192.723 16.2227C192.814 16.5221 192.931 16.776 193.074 16.9844C193.218 16.75 193.42 16.3659 193.68 15.832C193.94 15.2852 194.155 14.6016 194.324 13.7812C194.39 13.4427 194.429 13.1042 194.442 12.7656C194.468 12.4271 194.468 12.1211 194.442 11.8477C194.429 11.5612 194.403 11.3138 194.364 11.1055C194.338 10.8841 194.305 10.7279 194.266 10.6367C194.37 10.5716 194.481 10.526 194.598 10.5C194.715 10.4609 194.826 10.4284 194.93 10.4023C195.047 10.3763 195.158 10.3633 195.262 10.3633C195.601 10.3372 195.828 10.4023 195.946 10.5586C196.076 10.7018 196.108 10.9753 196.043 11.3789C196.03 11.4831 195.998 11.6458 195.946 11.8672C195.893 12.0755 195.828 12.3294 195.75 12.6289C195.828 12.8893 195.92 13.2214 196.024 13.625C196.128 14.0156 196.232 14.3997 196.336 14.7773C196.414 15.1419 196.492 15.513 196.571 15.8906C196.649 16.2682 196.714 16.6003 196.766 16.8867C196.831 16.8737 196.896 16.8477 196.961 16.8086C197.026 16.7695 197.085 16.6979 197.137 16.5937C197.189 16.5026 197.261 16.3529 197.352 16.1445C197.443 15.9362 197.541 15.6823 197.645 15.3828C197.749 15.0833 197.847 14.7513 197.938 14.3867C198.042 14.0221 198.133 13.6315 198.211 13.2148C198.354 12.3815 198.407 11.776 198.367 11.3984C198.341 11.0208 198.27 10.7669 198.153 10.6367C198.283 10.5456 198.413 10.4805 198.543 10.4414C198.686 10.3893 198.817 10.3503 198.934 10.3242C199.077 10.2982 199.207 10.2852 199.324 10.2852ZM207.264 14.9336C207.42 14.4648 207.55 14.0677 207.654 13.7422C207.771 13.4167 207.869 13.1562 207.947 12.9609C208.038 12.7266 208.116 12.5378 208.182 12.3945C208.26 12.1862 208.344 11.9779 208.435 11.7695C208.54 11.5612 208.644 11.3724 208.748 11.2031C208.852 11.0208 208.95 10.8711 209.041 10.7539C209.132 10.6367 209.21 10.5586 209.275 10.5195C209.327 10.4935 209.445 10.4935 209.627 10.5195C209.822 10.5456 210.03 10.6107 210.252 10.7148C210.486 10.806 210.701 10.9362 210.896 11.1055C211.105 11.2747 211.248 11.4831 211.326 11.7305C211.404 12.0299 211.43 12.4206 211.404 12.9023C211.378 13.3841 211.339 13.8789 211.287 14.3867C211.248 14.8945 211.215 15.3763 211.189 15.832C211.176 16.2878 211.209 16.6328 211.287 16.8672C211.339 16.9974 211.391 17.1276 211.443 17.2578C211.495 17.362 211.554 17.4727 211.619 17.5898C211.697 17.694 211.782 17.7852 211.873 17.8633C211.495 18.0065 211.189 18.1107 210.955 18.1758C210.734 18.2539 210.564 18.306 210.447 18.332C210.304 18.3711 210.206 18.3776 210.154 18.3516C210.05 18.3125 209.952 18.2148 209.861 18.0586C209.77 17.9023 209.692 17.6549 209.627 17.3164C209.601 17.2122 209.594 17.0299 209.607 16.7695C209.62 16.5091 209.64 16.2161 209.666 15.8906C209.692 15.5651 209.718 15.2266 209.744 14.875C209.77 14.5104 209.796 14.1719 209.822 13.8594C209.848 13.5469 209.861 13.2734 209.861 13.0391C209.874 12.8047 209.874 12.6484 209.861 12.5703C209.796 12.349 209.705 12.1927 209.588 12.1016C209.471 11.9974 209.379 11.9844 209.314 12.0625C209.158 12.2578 208.982 12.5964 208.787 13.0781C208.605 13.5469 208.429 14.0612 208.26 14.6211C208.09 15.168 207.941 15.7148 207.81 16.2617C207.693 16.8086 207.622 17.2578 207.596 17.6094C207.596 17.6875 207.53 17.7721 207.4 17.8633C207.283 17.9414 207.146 18.013 206.99 18.0781C206.847 18.1432 206.704 18.1823 206.56 18.1953C206.417 18.2214 206.32 18.2018 206.267 18.1367C206.228 18.0977 206.144 18.0065 206.014 17.8633C205.896 17.7201 205.831 17.4792 205.818 17.1406C205.792 16.8151 205.792 16.3724 205.818 15.8125C205.844 15.2396 205.851 14.6406 205.838 14.0156V12.5703C205.838 11.9844 205.831 11.1771 205.818 10.1484C205.818 9.10677 205.812 7.73307 205.799 6.02734C205.942 5.94922 206.072 5.88411 206.189 5.83203C206.307 5.76693 206.417 5.71484 206.521 5.67578C206.639 5.6237 206.749 5.58464 206.853 5.55859C207.413 5.41536 207.706 5.41536 207.732 5.55859C207.745 5.6888 207.732 6.10547 207.693 6.80859C207.68 7.10807 207.661 7.48568 207.635 7.94141C207.609 8.39713 207.576 8.95052 207.537 9.60156C207.511 10.2526 207.472 11.0208 207.42 11.9062C207.381 12.7786 207.329 13.7878 207.264 14.9336ZM215.628 18.2148C214.716 18.2148 214.013 17.9089 213.518 17.2969C213.023 16.6849 212.776 15.8841 212.776 14.8945C212.776 14.2044 212.874 13.5599 213.069 12.9609C213.277 12.349 213.551 11.8216 213.889 11.3789C214.228 10.9362 214.619 10.5911 215.061 10.3437C215.517 10.0833 215.992 9.95312 216.487 9.95312C216.969 9.95312 217.379 10.1289 217.717 10.4805C218.056 10.819 218.225 11.3073 218.225 11.9453C218.225 12.362 218.134 12.7786 217.952 13.1953C217.77 13.599 217.529 13.9635 217.229 14.2891C216.943 14.6016 216.624 14.8555 216.272 15.0508C215.921 15.2461 215.582 15.3437 215.257 15.3437C215.048 15.3437 214.872 15.3177 214.729 15.2656C214.586 15.2135 214.456 15.1354 214.339 15.0312C214.378 15.7734 214.54 16.2943 214.827 16.5937C215.113 16.8802 215.484 17.0234 215.94 17.0234C216.253 17.0234 216.526 16.9583 216.76 16.8281C217.008 16.6979 217.216 16.5482 217.385 16.3789C217.555 16.2096 217.691 16.0404 217.796 15.8711C217.9 15.6888 217.971 15.5521 218.01 15.4609C218.049 15.3828 218.115 15.3437 218.206 15.3437C218.31 15.3437 218.362 15.4219 218.362 15.5781C218.362 15.7214 218.31 15.9427 218.206 16.2422C218.115 16.5286 217.958 16.8216 217.737 17.1211C217.516 17.4076 217.229 17.6615 216.878 17.8828C216.539 18.1042 216.122 18.2148 215.628 18.2148ZM216.526 10.793C216.448 10.793 216.298 10.8776 216.077 11.0469C215.869 11.2031 215.641 11.4375 215.393 11.75C215.159 12.0625 214.938 12.4401 214.729 12.8828C214.534 13.3125 214.41 13.8008 214.358 14.3477C215.139 14.1654 215.758 13.8789 216.214 13.4883C216.669 13.0977 216.897 12.5247 216.897 11.7695C216.897 11.3919 216.852 11.138 216.76 11.0078C216.669 10.8646 216.591 10.793 216.526 10.793ZM224.988 12.0039C224.988 12.1862 224.936 12.375 224.832 12.5703C224.74 12.7526 224.623 12.9284 224.48 13.0977C224.337 13.2669 224.174 13.4167 223.992 13.5469C223.822 13.6641 223.66 13.7357 223.503 13.7617C223.608 13.3581 223.64 13.0456 223.601 12.8242C223.562 12.6029 223.497 12.4401 223.406 12.3359C223.302 12.2187 223.171 12.1536 223.015 12.1406C222.781 12.1406 222.553 12.2773 222.332 12.5508C222.123 12.8112 221.941 13.1367 221.785 13.5273C221.628 13.9049 221.505 14.3151 221.414 14.7578C221.322 15.1875 221.277 15.5781 221.277 15.9297C221.264 16.1771 221.27 16.418 221.296 16.6523C221.309 16.8477 221.329 17.0495 221.355 17.2578C221.394 17.4661 221.446 17.6289 221.511 17.7461C221.433 17.8112 221.303 17.8893 221.121 17.9805C220.951 18.0716 220.769 18.1302 220.574 18.1562C220.391 18.1823 220.222 18.1497 220.066 18.0586C219.923 17.9674 219.845 17.7721 219.832 17.4727C219.805 17.1862 219.786 16.8672 219.773 16.5156C219.773 16.151 219.773 15.793 219.773 15.4414C219.786 15.0768 219.799 14.7187 219.812 14.3672C219.825 14.0156 219.845 13.6901 219.871 13.3906C219.897 12.8177 219.91 12.375 219.91 12.0625C219.91 11.75 219.903 11.4505 219.89 11.1641C219.89 11.112 219.975 11.0404 220.144 10.9492C220.326 10.8451 220.522 10.7539 220.73 10.6758C220.951 10.5977 221.153 10.5521 221.335 10.5391C221.518 10.526 221.609 10.5651 221.609 10.6562C221.609 10.7995 221.589 11.0859 221.55 11.5156C221.524 11.9323 221.485 12.3685 221.433 12.8242C221.524 12.5768 221.641 12.3099 221.785 12.0234C221.941 11.737 222.117 11.4701 222.312 11.2227C222.507 10.9753 222.729 10.7734 222.976 10.6172C223.223 10.4479 223.497 10.3633 223.796 10.3633C224.031 10.3633 224.22 10.4349 224.363 10.5781C224.519 10.7214 224.643 10.8841 224.734 11.0664C224.825 11.2487 224.89 11.431 224.929 11.6133C224.968 11.7956 224.988 11.9258 224.988 12.0039ZM228.43 18.2148C227.518 18.2148 226.815 17.9089 226.321 17.2969C225.826 16.6849 225.578 15.8841 225.578 14.8945C225.578 14.2044 225.676 13.5599 225.871 12.9609C226.08 12.349 226.353 11.8216 226.692 11.3789C227.03 10.9362 227.421 10.5911 227.864 10.3437C228.319 10.0833 228.795 9.95312 229.289 9.95312C229.771 9.95312 230.181 10.1289 230.52 10.4805C230.858 10.819 231.028 11.3073 231.028 11.9453C231.028 12.362 230.936 12.7786 230.754 13.1953C230.572 13.599 230.331 13.9635 230.032 14.2891C229.745 14.6016 229.426 14.8555 229.074 15.0508C228.723 15.2461 228.384 15.3437 228.059 15.3437C227.851 15.3437 227.675 15.3177 227.532 15.2656C227.388 15.2135 227.258 15.1354 227.141 15.0312C227.18 15.7734 227.343 16.2943 227.629 16.5937C227.916 16.8802 228.287 17.0234 228.742 17.0234C229.055 17.0234 229.328 16.9583 229.563 16.8281C229.81 16.6979 230.018 16.5482 230.188 16.3789C230.357 16.2096 230.494 16.0404 230.598 15.8711C230.702 15.6888 230.774 15.5521 230.813 15.4609C230.852 15.3828 230.917 15.3437 231.008 15.3437C231.112 15.3437 231.164 15.4219 231.164 15.5781C231.164 15.7214 231.112 15.9427 231.008 16.2422C230.917 16.5286 230.761 16.8216 230.539 17.1211C230.318 17.4076 230.032 17.6615 229.68 17.8828C229.341 18.1042 228.925 18.2148 228.43 18.2148ZM229.328 10.793C229.25 10.793 229.101 10.8776 228.879 11.0469C228.671 11.2031 228.443 11.4375 228.196 11.75C227.961 12.0625 227.74 12.4401 227.532 12.8828C227.336 13.3125 227.213 13.8008 227.16 14.3477C227.942 14.1654 228.56 13.8789 229.016 13.4883C229.472 13.0977 229.699 12.5247 229.699 11.7695C229.699 11.3919 229.654 11.138 229.563 11.0078C229.472 10.8646 229.393 10.793 229.328 10.793Z" fill="#00FFA3"/>
</svg>
