<svg width="851" height="45" viewBox="0 0 851 45" fill="none" xmlns="http://www.w3.org/2000/svg">
<rect x="0.967773" y="19" width="850" height="8" fill="url(#paint0_linear_584_101425)"/>
<g filter="url(#filter0_f_584_101425)">
<path fill-rule="evenodd" clip-rule="evenodd" d="M274.297 17.3033C263.129 17.7218 252.713 18.5014 245.307 19.3939C243.432 19.6198 241.448 19.7314 239.457 19.6998C236.218 19.6484 232.736 19.6343 229.076 19.6627C220.673 19.728 212.636 20.0068 205.933 20.4238C202.506 20.637 198.827 20.4717 195.368 20.3263C191.387 20.159 185.883 20.1706 180.119 20.3993C176.886 20.5276 173.955 20.709 171.495 20.9212C169.723 21.074 167.891 21.1459 166.067 21.0987C163.354 21.0286 160.466 20.9909 157.472 20.9909C149.933 20.9909 143.073 21.2304 137.957 21.6221C136.16 21.7597 134.307 21.8094 132.474 21.7446C124.144 21.4504 116.893 21.6578 115.311 22.292C113.457 23.0351 120.088 24.0826 130.122 24.6317C131.516 24.708 132.903 24.7706 134.262 24.82C135.078 24.8496 135.883 24.9019 136.677 24.9709C141.899 25.4239 149.285 25.7065 157.472 25.7065C163.265 25.7065 168.657 25.565 173.165 25.3218C173.934 25.2803 174.712 25.2572 175.491 25.2584C176.094 25.2592 176.701 25.2597 177.31 25.2597C184.849 25.2597 191.951 25.1923 198.174 25.0733C199.151 25.0547 200.128 25.0733 201.096 25.1215C206.653 25.3981 213.656 25.531 221.471 25.4704C223.077 25.4579 224.67 25.4376 226.242 25.4101C232.858 25.5885 240.873 25.676 249.56 25.6454C251.332 25.6392 253.082 25.7575 254.753 25.9558C260.459 26.6333 268.467 27.2295 277.742 27.608C287.497 28.0061 296.883 28.0911 304.314 27.9078C305.478 27.8791 306.641 27.8997 307.802 27.9377C314.907 28.1702 328.404 27.6716 343.644 26.5642C346.335 26.3686 349.152 26.4686 351.865 26.6278C357.099 26.9349 365.081 26.9568 373.488 26.6232C376.665 26.4971 379.617 26.3316 382.25 26.1392C383.171 26.0719 384.107 26.0324 385.049 26.0242C389.227 25.988 394.186 25.8674 399.4 25.6604C401.106 25.5927 402.758 25.519 404.339 25.4408C406.472 25.3352 408.644 25.4012 410.715 25.6023C418.079 26.3179 428.375 26.8784 440.054 27.1254C461.644 27.582 480.72 26.8137 486.001 25.3777C486.891 25.1358 487.986 24.9179 489.124 24.9591C512.931 25.8198 531.204 25.4803 529.938 24.2008C528.672 22.9212 508.346 21.1862 484.539 20.3255C468.642 19.7508 455.212 19.7112 448.42 20.1293C445.775 20.2922 443.064 20.5232 440.376 20.4935C438.218 20.4696 436.096 20.4581 434.025 20.4584C428.404 20.242 422.071 20.0536 415.332 19.9111C401.081 19.6097 388.178 19.5807 379.753 19.7809C373.385 19.7584 364.005 20.1101 353.379 20.7897C349.796 21.0189 346.079 20.7403 342.757 20.2344C338.082 19.5225 331.567 18.8322 324.523 18.3532C319.153 17.9881 314.3 17.8018 310.478 17.7848C307.783 17.7729 305.066 17.5918 302.44 17.3878C296.427 16.9208 286.261 16.855 274.297 17.3033Z" fill="#D9D9D9"/>
<path fill-rule="evenodd" clip-rule="evenodd" d="M274.297 17.3033C263.129 17.7218 252.713 18.5014 245.307 19.3939C243.432 19.6198 241.448 19.7314 239.457 19.6998C236.218 19.6484 232.736 19.6343 229.076 19.6627C220.673 19.728 212.636 20.0068 205.933 20.4238C202.506 20.637 198.827 20.4717 195.368 20.3263C191.387 20.159 185.883 20.1706 180.119 20.3993C176.886 20.5276 173.955 20.709 171.495 20.9212C169.723 21.074 167.891 21.1459 166.067 21.0987C163.354 21.0286 160.466 20.9909 157.472 20.9909C149.933 20.9909 143.073 21.2304 137.957 21.6221C136.16 21.7597 134.307 21.8094 132.474 21.7446C124.144 21.4504 116.893 21.6578 115.311 22.292C113.457 23.0351 120.088 24.0826 130.122 24.6317C131.516 24.708 132.903 24.7706 134.262 24.82C135.078 24.8496 135.883 24.9019 136.677 24.9709C141.899 25.4239 149.285 25.7065 157.472 25.7065C163.265 25.7065 168.657 25.565 173.165 25.3218C173.934 25.2803 174.712 25.2572 175.491 25.2584C176.094 25.2592 176.701 25.2597 177.31 25.2597C184.849 25.2597 191.951 25.1923 198.174 25.0733C199.151 25.0547 200.128 25.0733 201.096 25.1215C206.653 25.3981 213.656 25.531 221.471 25.4704C223.077 25.4579 224.67 25.4376 226.242 25.4101C232.858 25.5885 240.873 25.676 249.56 25.6454C251.332 25.6392 253.082 25.7575 254.753 25.9558C260.459 26.6333 268.467 27.2295 277.742 27.608C287.497 28.0061 296.883 28.0911 304.314 27.9078C305.478 27.8791 306.641 27.8997 307.802 27.9377C314.907 28.1702 328.404 27.6716 343.644 26.5642C346.335 26.3686 349.152 26.4686 351.865 26.6278C357.099 26.9349 365.081 26.9568 373.488 26.6232C376.665 26.4971 379.617 26.3316 382.25 26.1392C383.171 26.0719 384.107 26.0324 385.049 26.0242C389.227 25.988 394.186 25.8674 399.4 25.6604C401.106 25.5927 402.758 25.519 404.339 25.4408C406.472 25.3352 408.644 25.4012 410.715 25.6023C418.079 26.3179 428.375 26.8784 440.054 27.1254C461.644 27.582 480.72 26.8137 486.001 25.3777C486.891 25.1358 487.986 24.9179 489.124 24.9591C512.931 25.8198 531.204 25.4803 529.938 24.2008C528.672 22.9212 508.346 21.1862 484.539 20.3255C468.642 19.7508 455.212 19.7112 448.42 20.1293C445.775 20.2922 443.064 20.5232 440.376 20.4935C438.218 20.4696 436.096 20.4581 434.025 20.4584C428.404 20.242 422.071 20.0536 415.332 19.9111C401.081 19.6097 388.178 19.5807 379.753 19.7809C373.385 19.7584 364.005 20.1101 353.379 20.7897C349.796 21.0189 346.079 20.7403 342.757 20.2344C338.082 19.5225 331.567 18.8322 324.523 18.3532C319.153 17.9881 314.3 17.8018 310.478 17.7848C307.783 17.7729 305.066 17.5918 302.44 17.3878C296.427 16.9208 286.261 16.855 274.297 17.3033Z" fill="url(#paint1_linear_584_101425)"/>
</g>
<g filter="url(#filter1_i_584_101425)">
<circle cx="581.968" cy="14" r="2.75" fill="white" stroke="#9EFF00" stroke-width="0.5"/>
<circle cx="482.968" cy="16" r="2.75" fill="white" stroke="#9EFF00" stroke-width="0.5"/>
<circle cx="401" cy="15.8979" r="2.75" fill="white" stroke="#9EFF00" stroke-width="0.5"/>
<circle cx="390.968" cy="28" r="2.75" fill="white" stroke="#9EFF00" stroke-width="0.5"/>
<circle cx="271" cy="19.8979" r="2.75" fill="white" stroke="#9EFF00" stroke-width="0.5"/>
<circle cx="136.968" cy="19.8979" r="2.75" fill="white" stroke="#9EFF00" stroke-width="0.5"/>
<circle cx="608.968" cy="24" r="2.75" fill="white" stroke="#9EFF00" stroke-width="0.5"/>
<circle cx="428.968" cy="29" r="2.75" fill="white" stroke="#9EFF00" stroke-width="0.5"/>
<circle cx="312.968" cy="29" r="2.75" fill="white" stroke="#9EFF00" stroke-width="0.5"/>
<circle cx="244.41" cy="20.8993" r="2.75" transform="rotate(25.5855 244.41 20.8993)" fill="white" stroke="#9EFF00" stroke-width="0.5"/>
<circle cx="468.968" cy="16" r="2.75" fill="white" stroke="#9EFF00" stroke-width="0.5"/>
<circle cx="327.968" cy="18" r="2.75" fill="white" stroke="#9EFF00" stroke-width="0.5"/>
<circle cx="408.968" cy="9" r="2.75" fill="white" stroke="#9EFF00" stroke-width="0.5"/>
<circle cx="242.438" cy="13.9589" r="2.75" transform="rotate(25.5855 242.438 13.9589)" fill="white" stroke="#9EFF00" stroke-width="0.5"/>
<circle cx="290.968" cy="18" r="2.75" fill="white" stroke="#9EFF00" stroke-width="0.5"/>
<circle cx="303.968" cy="26" r="2.75" fill="white" stroke="#9EFF00" stroke-width="0.5"/>
<circle cx="517.968" cy="16" r="2.75" fill="white" stroke="#9EFF00" stroke-width="0.5"/>
<circle cx="430.968" cy="19" r="2.75" fill="white" stroke="#9EFF00" stroke-width="0.5"/>
<circle cx="164.41" cy="20.8993" r="2.75" transform="rotate(25.5855 164.41 20.8993)" fill="white" stroke="#9EFF00" stroke-width="0.5"/>
<circle cx="313.968" cy="33" r="2.75" fill="white" stroke="#9EFF00" stroke-width="0.5"/>
<circle cx="300.968" cy="25" r="2.75" fill="white" stroke="#9EFF00" stroke-width="0.5"/>
<circle cx="514.968" cy="25" r="2.75" fill="white" stroke="#9EFF00" stroke-width="0.5"/>
<circle cx="353.968" cy="29" r="2.75" fill="white" stroke="#9EFF00" stroke-width="0.5"/>
<circle cx="297" cy="13.8979" r="2.75" fill="white" stroke="#9EFF00" stroke-width="0.5"/>
<circle cx="267.586" cy="27.1323" r="2.75" transform="rotate(25.5855 267.586 27.1323)" fill="white" stroke="#9EFF00" stroke-width="0.5"/>
<circle cx="198.968" cy="27" r="2.75" fill="white" stroke="#9EFF00" stroke-width="0.5"/>
<circle cx="463.968" cy="28" r="2.75" fill="white" stroke="#9EFF00" stroke-width="0.5"/>
<circle cx="349" cy="19.8979" r="2.75" fill="white" stroke="#9EFF00" stroke-width="0.5"/>
<circle cx="342.297" cy="23.3857" r="2.75" transform="rotate(25.5855 342.297 23.3857)" fill="white" stroke="#9EFF00" stroke-width="0.5"/>
<circle cx="242.968" cy="14" r="2.75" fill="white" stroke="#9EFF00" stroke-width="0.5"/>
<circle cx="141.968" cy="19" r="2.75" fill="white" stroke="#9EFF00" stroke-width="0.5"/>
<circle cx="337.968" cy="14" r="2.75" fill="white" stroke="#9EFF00" stroke-width="0.5"/>
<circle cx="450.968" cy="17" r="2.75" fill="white" stroke="#9EFF00" stroke-width="0.5"/>
<circle cx="191" cy="13.8979" r="2.75" fill="white" stroke="#9EFF00" stroke-width="0.5"/>
<circle cx="323" cy="13.8979" r="2.75" fill="white" stroke="#9EFF00" stroke-width="0.5"/>
<circle cx="217" cy="13.8979" r="2.75" fill="white" stroke="#9EFF00" stroke-width="0.5"/>
<circle cx="375" cy="13.8979" r="2.75" fill="white" stroke="#9EFF00" stroke-width="0.5"/>
<circle cx="272.968" cy="13" r="2.75" fill="white" stroke="#9EFF00" stroke-width="0.5"/>
<circle cx="170.968" cy="18" r="2.75" fill="white" stroke="#9EFF00" stroke-width="0.5"/>
<circle cx="426.968" cy="15" r="2.75" fill="white" stroke="#9EFF00" stroke-width="0.5"/>
<circle cx="368.969" cy="22.0014" r="2.75" transform="rotate(25.5855 368.969 22.0014)" fill="white" stroke="#9EFF00" stroke-width="0.5"/>
<circle cx="384.968" cy="18" r="2.75" fill="white" stroke="#9EFF00" stroke-width="0.5"/>
<circle cx="322.969" cy="10.0014" r="2.75" transform="rotate(25.5855 322.969 10.0014)" fill="white" stroke="#9EFF00" stroke-width="0.5"/>
<circle cx="183.968" cy="18" r="2.75" fill="white" stroke="#9EFF00" stroke-width="0.5"/>
</g>
<defs>
<filter id="filter0_f_584_101425" x="98.6" y="0.6" width="447.8" height="43.8" filterUnits="userSpaceOnUse" color-interpolation-filters="sRGB">
<feFlood flood-opacity="0" result="BackgroundImageFix"/>
<feBlend mode="normal" in="SourceGraphic" in2="BackgroundImageFix" result="shape"/>
<feGaussianBlur stdDeviation="8.2" result="effect1_foregroundBlur_584_101425"/>
</filter>
<filter id="filter1_i_584_101425" x="133.968" y="5" width="479" height="31" filterUnits="userSpaceOnUse" color-interpolation-filters="sRGB">
<feFlood flood-opacity="0" result="BackgroundImageFix"/>
<feBlend mode="normal" in="SourceGraphic" in2="BackgroundImageFix" result="shape"/>
<feColorMatrix in="SourceAlpha" type="matrix" values="0 0 0 0 0 0 0 0 0 0 0 0 0 0 0 0 0 0 127 0" result="hardAlpha"/>
<feOffset dx="1" dy="-1"/>
<feGaussianBlur stdDeviation="1.5"/>
<feComposite in2="hardAlpha" operator="arithmetic" k2="-1" k3="1"/>
<feColorMatrix type="matrix" values="0 0 0 0 0 0 0 0 0 0 0 0 0 0 0 0 0 0 0.25 0"/>
<feBlend mode="normal" in2="shape" result="effect1_innerShadow_584_101425"/>
</filter>
<linearGradient id="paint0_linear_584_101425" x1="0.967773" y1="23" x2="850.968" y2="23" gradientUnits="userSpaceOnUse">
<stop stop-color="#FF0000"/>
<stop offset="0.213642" stop-color="#FFA500"/>
<stop offset="0.505" stop-color="#FFFF00"/>
<stop offset="1" stop-color="#13E313"/>
</linearGradient>
<linearGradient id="paint1_linear_584_101425" x1="115" y1="22.5" x2="530" y2="22.5" gradientUnits="userSpaceOnUse">
<stop offset="0.170575" stop-color="#FF0000"/>
<stop offset="0.387732" stop-color="#FFFF00"/>
<stop offset="0.646075" stop-color="#13E313"/>
</linearGradient>
</defs>
</svg>
