<svg width="851" height="47" viewBox="0 0 851 47" fill="none" xmlns="http://www.w3.org/2000/svg">
<rect x="0.967773" y="20" width="850" height="8" fill="url(#paint0_linear_585_101623)"/>
<g filter="url(#filter0_f_585_101623)">
<path fill-rule="evenodd" clip-rule="evenodd" d="M438.379 17.3585C424.681 17.853 411.906 18.7744 402.822 19.8291C400.522 20.0962 398.089 20.228 395.648 20.1906C391.675 20.1299 387.404 20.1133 382.914 20.1469C372.608 20.224 362.751 20.5535 354.53 21.0463C350.326 21.2983 345.814 21.1029 341.571 20.9311C336.689 20.7334 329.938 20.747 322.869 21.0174C318.904 21.169 315.309 21.3834 312.292 21.6341C310.118 21.8147 307.871 21.8997 305.634 21.844C302.306 21.7611 298.765 21.7165 295.092 21.7165C285.845 21.7165 277.432 21.9996 271.157 22.4625C268.953 22.6251 266.68 22.6838 264.431 22.6073C254.216 22.2596 245.322 22.5047 243.381 23.2542C241.107 24.1323 249.241 25.3703 261.547 26.0192C263.257 26.1094 264.958 26.1835 266.625 26.2418C267.625 26.2768 268.613 26.3387 269.587 26.4201C275.992 26.9555 285.05 27.2895 295.092 27.2895C302.198 27.2895 308.811 27.1223 314.339 26.8348C315.283 26.7858 316.237 26.7585 317.193 26.7599C317.933 26.7609 318.676 26.7614 319.424 26.7614C328.67 26.7614 337.38 26.6818 345.013 26.5412C346.211 26.5192 347.41 26.5412 348.598 26.5981C355.413 26.9251 364.002 27.0821 373.588 27.0104C375.558 26.9957 377.511 26.9718 379.439 26.9392C387.553 27.15 397.384 27.2534 408.038 27.2173C410.211 27.2099 412.359 27.3497 414.407 27.5841C421.407 28.3848 431.229 29.0894 442.604 29.5367C454.569 30.0072 466.08 30.1076 475.195 29.891C476.623 29.8571 478.048 29.8815 479.473 29.9264C488.187 30.2011 504.742 29.6119 523.433 28.3032C526.734 28.072 530.189 28.1902 533.516 28.3783C539.936 28.7412 549.726 28.7672 560.037 28.3729C563.933 28.2239 567.555 28.0283 570.784 27.8008C571.913 27.7213 573.062 27.6746 574.217 27.665C579.341 27.6222 585.423 27.4796 591.818 27.2351C593.911 27.155 595.937 27.0679 597.876 26.9754C600.492 26.8507 603.156 26.9287 605.696 27.1664C614.728 28.012 627.356 28.6745 641.68 28.9664C668.161 29.506 691.558 28.5981 698.035 26.9009C699.126 26.6151 700.47 26.3575 701.866 26.4062C731.065 27.4234 753.477 27.0221 751.924 25.51C750.371 23.9978 725.441 21.9474 696.242 20.9302C676.744 20.2509 660.272 20.2041 651.942 20.6983C648.698 20.8908 645.373 21.1638 642.076 21.1287C639.428 21.1005 636.827 21.0869 634.286 21.0872C627.392 20.8315 619.624 20.6088 611.36 20.4404C593.881 20.0842 578.054 20.0499 567.721 20.2865C559.911 20.2599 548.406 20.6756 535.374 21.4788C530.978 21.7496 526.42 21.4203 522.345 20.8225C516.611 19.9812 508.621 19.1653 499.981 18.5992C493.395 18.1677 487.442 17.9476 482.755 17.9275C479.449 17.9134 476.117 17.6994 472.896 17.4583C465.522 16.9064 453.053 16.8286 438.379 17.3585Z" fill="#D9D9D9"/>
<path fill-rule="evenodd" clip-rule="evenodd" d="M438.379 17.3585C424.681 17.853 411.906 18.7744 402.822 19.8291C400.522 20.0962 398.089 20.228 395.648 20.1906C391.675 20.1299 387.404 20.1133 382.914 20.1469C372.608 20.224 362.751 20.5535 354.53 21.0463C350.326 21.2983 345.814 21.1029 341.571 20.9311C336.689 20.7334 329.938 20.747 322.869 21.0174C318.904 21.169 315.309 21.3834 312.292 21.6341C310.118 21.8147 307.871 21.8997 305.634 21.844C302.306 21.7611 298.765 21.7165 295.092 21.7165C285.845 21.7165 277.432 21.9996 271.157 22.4625C268.953 22.6251 266.68 22.6838 264.431 22.6073C254.216 22.2596 245.322 22.5047 243.381 23.2542C241.107 24.1323 249.241 25.3703 261.547 26.0192C263.257 26.1094 264.958 26.1835 266.625 26.2418C267.625 26.2768 268.613 26.3387 269.587 26.4201C275.992 26.9555 285.05 27.2895 295.092 27.2895C302.198 27.2895 308.811 27.1223 314.339 26.8348C315.283 26.7858 316.237 26.7585 317.193 26.7599C317.933 26.7609 318.676 26.7614 319.424 26.7614C328.67 26.7614 337.38 26.6818 345.013 26.5412C346.211 26.5192 347.41 26.5412 348.598 26.5981C355.413 26.9251 364.002 27.0821 373.588 27.0104C375.558 26.9957 377.511 26.9718 379.439 26.9392C387.553 27.15 397.384 27.2534 408.038 27.2173C410.211 27.2099 412.359 27.3497 414.407 27.5841C421.407 28.3848 431.229 29.0894 442.604 29.5367C454.569 30.0072 466.08 30.1076 475.195 29.891C476.623 29.8571 478.048 29.8815 479.473 29.9264C488.187 30.2011 504.742 29.6119 523.433 28.3032C526.734 28.072 530.189 28.1902 533.516 28.3783C539.936 28.7412 549.726 28.7672 560.037 28.3729C563.933 28.2239 567.555 28.0283 570.784 27.8008C571.913 27.7213 573.062 27.6746 574.217 27.665C579.341 27.6222 585.423 27.4796 591.818 27.2351C593.911 27.155 595.937 27.0679 597.876 26.9754C600.492 26.8507 603.156 26.9287 605.696 27.1664C614.728 28.012 627.356 28.6745 641.68 28.9664C668.161 29.506 691.558 28.5981 698.035 26.9009C699.126 26.6151 700.47 26.3575 701.866 26.4062C731.065 27.4234 753.477 27.0221 751.924 25.51C750.371 23.9978 725.441 21.9474 696.242 20.9302C676.744 20.2509 660.272 20.2041 651.942 20.6983C648.698 20.8908 645.373 21.1638 642.076 21.1287C639.428 21.1005 636.827 21.0869 634.286 21.0872C627.392 20.8315 619.624 20.6088 611.36 20.4404C593.881 20.0842 578.054 20.0499 567.721 20.2865C559.911 20.2599 548.406 20.6756 535.374 21.4788C530.978 21.7496 526.42 21.4203 522.345 20.8225C516.611 19.9812 508.621 19.1653 499.981 18.5992C493.395 18.1677 487.442 17.9476 482.755 17.9275C479.449 17.9134 476.117 17.6994 472.896 17.4583C465.522 16.9064 453.053 16.8286 438.379 17.3585Z" fill="url(#paint1_linear_585_101623)"/>
</g>
<g filter="url(#filter1_i_585_101623)">
<circle cx="748.968" cy="17" r="2.75" fill="white" stroke="#9EFF00" stroke-width="0.5"/>
<circle cx="585.968" cy="17" r="2.75" fill="white" stroke="#9EFF00" stroke-width="0.5"/>
<circle cx="633.968" cy="27" r="2.75" fill="white" stroke="#9EFF00" stroke-width="0.5"/>
<circle cx="454.968" cy="29" r="2.75" fill="white" stroke="#9EFF00" stroke-width="0.5"/>
<circle cx="435.968" cy="31" r="2.75" fill="white" stroke="#9EFF00" stroke-width="0.5"/>
<circle cx="282.968" cy="29" r="2.75" fill="white" stroke="#9EFF00" stroke-width="0.5"/>
<circle cx="751.968" cy="27" r="2.75" fill="white" stroke="#9EFF00" stroke-width="0.5"/>
<circle cx="524.968" cy="30" r="2.75" fill="white" stroke="#9EFF00" stroke-width="0.5"/>
<circle cx="445.968" cy="30" r="2.75" fill="white" stroke="#9EFF00" stroke-width="0.5"/>
<circle cx="379.352" cy="34.572" r="2.75" transform="rotate(25.5855 379.352 34.572)" fill="white" stroke="#9EFF00" stroke-width="0.5"/>
<circle cx="641.968" cy="17" r="2.75" fill="white" stroke="#9EFF00" stroke-width="0.5"/>
<circle cx="423.968" cy="19" r="2.75" fill="white" stroke="#9EFF00" stroke-width="0.5"/>
<circle cx="472.968" cy="10" r="2.75" fill="white" stroke="#9EFF00" stroke-width="0.5"/>
<circle cx="434.438" cy="14.9587" r="2.75" transform="rotate(25.5855 434.438 14.9587)" fill="white" stroke="#9EFF00" stroke-width="0.5"/>
<circle cx="413.968" cy="19" r="2.75" fill="white" stroke="#9EFF00" stroke-width="0.5"/>
<circle cx="495.968" cy="27" r="2.75" fill="white" stroke="#9EFF00" stroke-width="0.5"/>
<circle cx="653.968" cy="19" r="2.75" fill="white" stroke="#9EFF00" stroke-width="0.5"/>
<circle cx="557.968" cy="20" r="2.75" fill="white" stroke="#9EFF00" stroke-width="0.5"/>
<circle cx="425.708" cy="34.7883" r="2.75" transform="rotate(25.5855 425.708 34.7883)" fill="white" stroke="#9EFF00" stroke-width="0.5"/>
<circle cx="409.968" cy="34" r="2.75" fill="white" stroke="#9EFF00" stroke-width="0.5"/>
<circle cx="364.968" cy="26" r="2.75" fill="white" stroke="#9EFF00" stroke-width="0.5"/>
<circle cx="657.968" cy="28" r="2.75" fill="white" stroke="#9EFF00" stroke-width="0.5"/>
<circle cx="525.968" cy="30" r="2.75" fill="white" stroke="#9EFF00" stroke-width="0.5"/>
<circle cx="473.968" cy="26" r="2.75" fill="white" stroke="#9EFF00" stroke-width="0.5"/>
<circle cx="422.586" cy="28.1323" r="2.75" transform="rotate(25.5855 422.586 28.1323)" fill="white" stroke="#9EFF00" stroke-width="0.5"/>
<circle cx="390.968" cy="28" r="2.75" fill="white" stroke="#9EFF00" stroke-width="0.5"/>
<circle cx="596.968" cy="29" r="2.75" fill="white" stroke="#9EFF00" stroke-width="0.5"/>
<circle cx="532.968" cy="27" r="2.75" fill="white" stroke="#9EFF00" stroke-width="0.5"/>
<circle cx="406.297" cy="24.3854" r="2.75" transform="rotate(25.5855 406.297 24.3854)" fill="white" stroke="#9EFF00" stroke-width="0.5"/>
<circle cx="338.968" cy="15" r="2.75" fill="white" stroke="#9EFF00" stroke-width="0.5"/>
<circle cx="205.968" cy="20" r="2.75" fill="white" stroke="#9EFF00" stroke-width="0.5"/>
<circle cx="492.968" cy="15" r="2.75" fill="white" stroke="#9EFF00" stroke-width="0.5"/>
<circle cx="514.968" cy="18" r="2.75" fill="white" stroke="#9EFF00" stroke-width="0.5"/>
<circle cx="390.968" cy="16" r="2.75" fill="white" stroke="#9EFF00" stroke-width="0.5"/>
<circle cx="458.968" cy="17" r="2.75" fill="white" stroke="#9EFF00" stroke-width="0.5"/>
<circle cx="441.968" cy="14" r="2.75" fill="white" stroke="#9EFF00" stroke-width="0.5"/>
<circle cx="542.968" cy="18" r="2.75" fill="white" stroke="#9EFF00" stroke-width="0.5"/>
<circle cx="464.968" cy="14" r="2.75" fill="white" stroke="#9EFF00" stroke-width="0.5"/>
<circle cx="362.968" cy="19" r="2.75" fill="white" stroke="#9EFF00" stroke-width="0.5"/>
<circle cx="490.968" cy="16" r="2.75" fill="white" stroke="#9EFF00" stroke-width="0.5"/>
<circle cx="495.969" cy="23.0014" r="2.75" transform="rotate(25.5855 495.969 23.0014)" fill="white" stroke="#9EFF00" stroke-width="0.5"/>
<circle cx="507.968" cy="19" r="2.75" fill="white" stroke="#9EFF00" stroke-width="0.5"/>
<circle cx="449.969" cy="11.0014" r="2.75" transform="rotate(25.5855 449.969 11.0014)" fill="white" stroke="#9EFF00" stroke-width="0.5"/>
<circle cx="247.968" cy="19" r="2.75" fill="white" stroke="#9EFF00" stroke-width="0.5"/>
</g>
<defs>
<filter id="filter0_f_585_101623" x="226.6" y="0.6" width="541.8" height="45.8" filterUnits="userSpaceOnUse" color-interpolation-filters="sRGB">
<feFlood flood-opacity="0" result="BackgroundImageFix"/>
<feBlend mode="normal" in="SourceGraphic" in2="BackgroundImageFix" result="shape"/>
<feGaussianBlur stdDeviation="8.2" result="effect1_foregroundBlur_585_101623"/>
</filter>
<filter id="filter1_i_585_101623" x="202.968" y="6" width="553" height="32.7896" filterUnits="userSpaceOnUse" color-interpolation-filters="sRGB">
<feFlood flood-opacity="0" result="BackgroundImageFix"/>
<feBlend mode="normal" in="SourceGraphic" in2="BackgroundImageFix" result="shape"/>
<feColorMatrix in="SourceAlpha" type="matrix" values="0 0 0 0 0 0 0 0 0 0 0 0 0 0 0 0 0 0 127 0" result="hardAlpha"/>
<feOffset dx="1" dy="-1"/>
<feGaussianBlur stdDeviation="1.5"/>
<feComposite in2="hardAlpha" operator="arithmetic" k2="-1" k3="1"/>
<feColorMatrix type="matrix" values="0 0 0 0 0 0 0 0 0 0 0 0 0 0 0 0 0 0 0.25 0"/>
<feBlend mode="normal" in2="shape" result="effect1_innerShadow_585_101623"/>
</filter>
<linearGradient id="paint0_linear_585_101623" x1="0.967773" y1="24" x2="850.968" y2="24" gradientUnits="userSpaceOnUse">
<stop stop-color="#FF0000"/>
<stop offset="0.213642" stop-color="#FFA500"/>
<stop offset="0.505" stop-color="#FFFF00"/>
<stop offset="1" stop-color="#13E313"/>
</linearGradient>
<linearGradient id="paint1_linear_585_101623" x1="243" y1="23.5" x2="752" y2="23.5" gradientUnits="userSpaceOnUse">
<stop offset="0.05" stop-color="#FF0000"/>
<stop offset="0.383787" stop-color="#FFA500"/>
<stop offset="0.673878" stop-color="#FFFF00"/>
<stop offset="1" stop-color="#13E313"/>
</linearGradient>
</defs>
</svg>
