<svg width="852" height="76" fill="none" xmlns="http://www.w3.org/2000/svg"><path fill="url(#a)" d="M.968 26h850v8h-850z"/><g filter="url(#b)" fill-rule="evenodd" clip-rule="evenodd"><path d="M438.379 17.69c-13.698.95-26.473 2.722-35.557 4.75a29.16 29.16 0 0 1-7.174.696 292.084 292.084 0 0 0-12.734-.084c-10.306.148-20.163.782-28.384 1.73-4.204.484-8.716.108-12.959-.222-4.882-.38-11.633-.354-18.702.166-3.965.291-7.56.704-10.577 1.186-2.174.347-4.421.51-6.658.403-3.328-.159-6.869-.245-10.542-.245-9.247 0-17.66.545-23.935 1.435a32.827 32.827 0 0 1-6.726.278c-10.215-.668-19.109-.197-21.05 1.244-2.274 1.689 5.86 4.07 18.166 5.318 1.71.173 3.411.316 5.078.428 1 .067 1.988.186 2.962.343 6.405 1.03 15.463 1.671 25.505 1.671 7.106 0 13.719-.321 19.247-.874a27.942 27.942 0 0 1 2.854-.144c.74.002 1.483.003 2.231.003 9.246 0 17.956-.153 25.589-.423 1.198-.043 2.397 0 3.585.109 6.815.629 15.404.93 24.99.793a324.61 324.61 0 0 0 5.851-.137c8.114.405 17.945.604 28.599.535 2.173-.015 4.321.254 6.369.705 7 1.54 16.822 2.895 28.197 3.755 11.965.905 23.476 1.098 32.591.681 1.428-.065 2.853-.018 4.278.068 8.714.529 25.269-.604 43.96-3.121 3.301-.445 6.756-.217 10.083.144 6.42.698 16.21.748 26.521-.01 3.896-.287 7.518-.663 10.747-1.1a29.082 29.082 0 0 1 3.433-.261c5.124-.083 11.206-.357 17.601-.827 2.093-.154 4.119-.322 6.058-.5 2.616-.24 5.28-.09 7.82.368 9.032 1.626 21.66 2.9 35.984 3.461 26.481 1.038 49.878-.708 56.355-3.972 1.091-.55 2.435-1.045 3.831-.951 29.199 1.956 51.611 1.184 50.058-1.724-1.553-2.908-26.483-6.85-55.682-8.807-19.498-1.306-35.97-1.396-44.3-.446-3.244.37-6.569.895-9.866.828-2.648-.055-5.249-.08-7.79-.08a725.701 725.701 0 0 0-22.926-1.244c-17.479-.685-33.306-.75-43.639-.296-7.81-.051-19.315.748-32.347 2.293-4.396.52-8.954-.112-13.029-1.262-5.734-1.618-13.724-3.187-22.364-4.275-6.586-.83-12.539-1.254-17.226-1.292-3.306-.027-6.638-.439-9.859-.903-7.374-1.061-19.843-1.21-34.517-.192z" fill="#D9D9D9"/><path d="M438.379 17.69c-13.698.95-26.473 2.722-35.557 4.75a29.16 29.16 0 0 1-7.174.696 292.084 292.084 0 0 0-12.734-.084c-10.306.148-20.163.782-28.384 1.73-4.204.484-8.716.108-12.959-.222-4.882-.38-11.633-.354-18.702.166-3.965.291-7.56.704-10.577 1.186-2.174.347-4.421.51-6.658.403-3.328-.159-6.869-.245-10.542-.245-9.247 0-17.66.545-23.935 1.435a32.827 32.827 0 0 1-6.726.278c-10.215-.668-19.109-.197-21.05 1.244-2.274 1.689 5.86 4.07 18.166 5.318 1.71.173 3.411.316 5.078.428 1 .067 1.988.186 2.962.343 6.405 1.03 15.463 1.671 25.505 1.671 7.106 0 13.719-.321 19.247-.874a27.942 27.942 0 0 1 2.854-.144c.74.002 1.483.003 2.231.003 9.246 0 17.956-.153 25.589-.423 1.198-.043 2.397 0 3.585.109 6.815.629 15.404.93 24.99.793a324.61 324.61 0 0 0 5.851-.137c8.114.405 17.945.604 28.599.535 2.173-.015 4.321.254 6.369.705 7 1.54 16.822 2.895 28.197 3.755 11.965.905 23.476 1.098 32.591.681 1.428-.065 2.853-.018 4.278.068 8.714.529 25.269-.604 43.96-3.121 3.301-.445 6.756-.217 10.083.144 6.42.698 16.21.748 26.521-.01 3.896-.287 7.518-.663 10.747-1.1a29.082 29.082 0 0 1 3.433-.261c5.124-.083 11.206-.357 17.601-.827 2.093-.154 4.119-.322 6.058-.5 2.616-.24 5.28-.09 7.82.368 9.032 1.626 21.66 2.9 35.984 3.461 26.481 1.038 49.878-.708 56.355-3.972 1.091-.55 2.435-1.045 3.831-.951 29.199 1.956 51.611 1.184 50.058-1.724-1.553-2.908-26.483-6.85-55.682-8.807-19.498-1.306-35.97-1.396-44.3-.446-3.244.37-6.569.895-9.866.828-2.648-.055-5.249-.08-7.79-.08a725.701 725.701 0 0 0-22.926-1.244c-17.479-.685-33.306-.75-43.639-.296-7.81-.051-19.315.748-32.347 2.293-4.396.52-8.954-.112-13.029-1.262-5.734-1.618-13.724-3.187-22.364-4.275-6.586-.83-12.539-1.254-17.226-1.292-3.306-.027-6.638-.439-9.859-.903-7.374-1.061-19.843-1.21-34.517-.192z" fill="url(#c)"/></g><g filter="url(#d)" fill="#fff" stroke="#9EFF00" stroke-width=".5"><circle cx="748.968" cy="23" r="2.75"/><circle cx="585.968" cy="23" r="2.75"/><circle cx="633.968" cy="33" r="2.75"/><circle cx="454.968" cy="35" r="2.75"/><circle cx="435.968" cy="37" r="2.75"/><circle cx="282.968" cy="35" r="2.75"/><circle cx="751.968" cy="33" r="2.75"/><circle cx="524.968" cy="36" r="2.75"/><circle cx="445.968" cy="36" r="2.75"/><circle cx="379.352" cy="40.572" r="2.75" transform="rotate(25.585 379.352 40.572)"/><circle cx="641.968" cy="23" r="2.75"/><circle cx="423.968" cy="25" r="2.75"/><circle cx="472.968" cy="16" r="2.75"/><circle cx="434.438" cy="20.959" r="2.75" transform="rotate(25.585 434.438 20.959)"/><circle cx="413.968" cy="25" r="2.75"/><circle cx="495.968" cy="33" r="2.75"/><circle cx="653.968" cy="25" r="2.75"/><circle cx="557.968" cy="26" r="2.75"/><circle cx="425.708" cy="40.788" r="2.75" transform="rotate(25.585 425.708 40.788)"/><circle cx="409.968" cy="40" r="2.75"/><circle cx="364.968" cy="32" r="2.75"/><circle cx="657.968" cy="34" r="2.75"/><circle cx="525.968" cy="36" r="2.75"/><circle cx="473.968" cy="32" r="2.75"/><circle cx="422.586" cy="34.132" r="2.75" transform="rotate(25.585 422.586 34.132)"/><circle cx="390.968" cy="34" r="2.75"/><circle cx="596.968" cy="35" r="2.75"/><circle cx="532.968" cy="33" r="2.75"/><circle cx="406.297" cy="30.385" r="2.75" transform="rotate(25.585 406.297 30.385)"/><circle cx="338.968" cy="21" r="2.75"/><circle cx="205.968" cy="26" r="2.75"/><circle cx="492.968" cy="21" r="2.75"/><circle cx="514.968" cy="24" r="2.75"/><circle cx="390.968" cy="22" r="2.75"/><circle cx="458.968" cy="23" r="2.75"/><circle cx="441.968" cy="20" r="2.75"/><circle cx="542.968" cy="24" r="2.75"/><circle cx="464.968" cy="20" r="2.75"/><circle cx="362.968" cy="25" r="2.75"/><circle cx="490.968" cy="22" r="2.75"/><circle cx="495.969" cy="29.001" r="2.75" transform="rotate(25.585 495.969 29.001)"/><circle cx="507.968" cy="25" r="2.75"/><circle cx="449.969" cy="17.001" r="2.75" transform="rotate(25.585 449.969 17.001)"/><circle cx="247.968" cy="25" r="2.75"/></g><path d="M4.756 58.15c-.608 0-1.152-.109-1.632-.325-.48-.216-.86-.54-1.14-.972-.272-.44-.408-.988-.408-1.644v-.252h.996v.252c0 .696.204 1.216.612 1.56.408.336.932.504 1.572.504.656 0 1.156-.148 1.5-.444a1.41 1.41 0 0 0 .516-1.116c0-.312-.08-.56-.24-.744a1.58 1.58 0 0 0-.648-.444 5.958 5.958 0 0 0-.984-.312l-.624-.156a6.979 6.979 0 0 1-1.296-.468 2.353 2.353 0 0 1-.888-.72c-.208-.304-.312-.692-.312-1.164s.116-.88.348-1.224c.24-.344.572-.608.996-.792.432-.184.928-.276 1.488-.276.568 0 1.076.1 1.524.3.456.192.812.48 1.068.864.264.376.396.852.396 1.428v.504h-.996v-.504c0-.408-.088-.736-.264-.984a1.49 1.49 0 0 0-.708-.552 2.698 2.698 0 0 0-1.02-.18c-.552 0-.996.124-1.332.372-.336.24-.504.584-.504 1.032 0 .296.072.536.216.72.144.184.348.336.612.456.264.112.58.212.948.3l.624.156c.488.104.924.248 1.308.432.392.176.704.42.936.732.232.304.348.704.348 1.2s-.124.928-.372 1.296-.6.656-1.056.864c-.448.2-.976.3-1.584.3zm7.043-.169c-.336 0-.596-.092-.78-.276-.176-.184-.264-.436-.264-.756v-4.008H8.99v-.828h1.764v-2.088h.948v2.088h1.92v.828h-1.92v3.864c0 .24.116.36.348.36h1.308v.816h-1.56zm3.643 0v-5.868h.924v.72h.168c.104-.256.264-.444.48-.564.216-.12.5-.18.852-.18h.696v.864h-.756c-.424 0-.768.12-1.032.36-.256.232-.384.596-.384 1.092v3.576h-.948zm7.307.168c-.592 0-1.116-.124-1.572-.372a2.703 2.703 0 0 1-1.056-1.044c-.248-.456-.372-.992-.372-1.608v-.156c0-.608.124-1.14.372-1.596a2.681 2.681 0 0 1 1.056-1.056c.456-.248.98-.372 1.572-.372.592 0 1.112.124 1.56.372.456.248.808.6 1.056 1.056.256.456.384.988.384 1.596v.156c0 .616-.128 1.152-.384 1.608-.248.448-.6.796-1.056 1.044-.448.248-.968.372-1.56.372zm0-.852c.624 0 1.12-.196 1.488-.588.376-.4.564-.936.564-1.608v-.108c0-.672-.188-1.204-.564-1.596-.368-.4-.864-.6-1.488-.6-.616 0-1.112.2-1.488.6-.376.392-.564.924-.564 1.596v.108c0 .672.188 1.208.564 1.608.376.392.872.588 1.488.588zm4.99.684v-5.868h.924v.996h.168c.128-.28.344-.532.648-.756.312-.232.768-.348 1.368-.348.44 0 .832.092 1.176.276.352.184.632.456.84.816.208.36.312.804.312 1.332v3.552h-.948v-3.48c0-.584-.148-1.008-.444-1.272-.288-.264-.68-.396-1.176-.396-.568 0-1.032.184-1.392.552-.352.368-.528.916-.528 1.644v2.952h-.948zm7.354-2.904v-.168c0-.616.124-1.144.372-1.584.248-.44.584-.78 1.008-1.02.424-.24.888-.36 1.392-.36.616 0 1.088.12 1.416.36.336.232.584.492.744.78h.168v-.972h.9v7.236c0 .32-.088.572-.264.756-.176.184-.432.276-.768.276h-3.984v-.84h3.732c.24 0 .36-.12.36-.36V56.95h-.168a2.138 2.138 0 0 1-.408.516 2.115 2.115 0 0 1-.684.42c-.28.104-.628.156-1.044.156-.504 0-.968-.12-1.392-.36-.424-.24-.76-.58-1.008-1.02-.248-.448-.372-.976-.372-1.584zm3.024 2.124c.608 0 1.1-.192 1.476-.576.384-.384.576-.912.576-1.584v-.096c0-.68-.192-1.208-.576-1.584-.376-.384-.868-.576-1.476-.576-.6 0-1.096.192-1.488.576-.384.376-.576.904-.576 1.584v.096c0 .672.192 1.2.576 1.584.392.384.888.576 1.488.576zm5.247.78v-8.4h.948v8.4h-.948zm3.933 2.4v-.84h3.36c.232 0 .348-.12.348-.36v-2.136h-.168a1.838 1.838 0 0 1-1.008.9c-.264.096-.596.144-.996.144-.424 0-.816-.092-1.176-.276a2.06 2.06 0 0 1-.84-.816c-.2-.36-.3-.8-.3-1.32v-3.564h.948v3.492c0 .576.144.996.432 1.26.296.264.692.396 1.188.396.56 0 1.02-.184 1.38-.552.36-.368.54-.916.54-1.644v-2.952h.948v7.236c0 .32-.092.572-.276.756-.176.184-.436.276-.78.276h-3.6zm9.856-2.4v-.9h1.176v-6.6h-1.176v-.9h3.276c1.104 0 1.956.28 2.556.84.608.56.912 1.42.912 2.58v1.56c0 1.168-.304 2.032-.912 2.592-.6.552-1.452.828-2.556.828h-3.276zm2.184-.912h1.092c.816 0 1.432-.2 1.848-.6.416-.4.624-1.02.624-1.86v-1.644c0-.856-.208-1.48-.624-1.872-.416-.392-1.032-.588-1.848-.588h-1.092v6.564zm6.488.912v-5.868h.948v5.868h-.948zm.48-6.78a.74.74 0 0 1-.528-.204.7.7 0 0 1-.204-.516c0-.216.068-.392.204-.528a.74.74 0 0 1 .528-.204.7.7 0 0 1 .516.204.714.714 0 0 1 .204.528.7.7 0 0 1-.72.72zm5.11 6.948c-.729 0-1.345-.168-1.849-.504-.496-.336-.796-.868-.9-1.596l.9-.204c.064.384.184.688.36.912.176.216.392.372.648.468.264.088.544.132.84.132.44 0 .788-.088 1.044-.264a.819.819 0 0 0 .384-.708c0-.304-.124-.516-.372-.636-.24-.128-.572-.232-.996-.312l-.492-.084a4.438 4.438 0 0 1-1.032-.3 1.892 1.892 0 0 1-.744-.552c-.184-.232-.276-.524-.276-.876 0-.528.204-.94.612-1.236.408-.296.948-.444 1.62-.444.664 0 1.2.152 1.608.456.416.296.684.716.804 1.26l-.888.228c-.072-.424-.244-.72-.516-.888-.272-.176-.608-.264-1.008-.264s-.716.076-.948.228c-.232.144-.348.36-.348.648 0 .28.108.488.324.624.224.128.52.224.888.288l.492.084a5.79 5.79 0 0 1 1.116.3c.336.12.6.296.792.528.2.232.3.536.3.912 0 .576-.216 1.02-.648 1.332-.424.312-.996.468-1.716.468zm6 0c-.408 0-.78-.072-1.116-.216a1.821 1.821 0 0 1-.792-.624c-.192-.272-.288-.604-.288-.996 0-.4.096-.728.288-.984.192-.264.456-.46.792-.588a2.982 2.982 0 0 1 1.128-.204h1.98v-.432c0-.416-.124-.744-.372-.984-.24-.24-.6-.36-1.08-.36-.472 0-.84.116-1.104.348-.264.224-.444.528-.54.912l-.888-.288c.096-.328.248-.624.456-.888.208-.272.484-.488.828-.648.352-.168.772-.252 1.26-.252.752 0 1.336.196 1.752.588.416.384.624.928.624 1.632v2.652c0 .24.112.36.336.36h.54v.804h-.828c-.264 0-.476-.072-.636-.216a.79.79 0 0 1-.24-.6v-.06h-.144a2.88 2.88 0 0 1-.36.48c-.144.16-.344.292-.6.396-.256.112-.588.168-.996.168zm.108-.816c.56 0 1.012-.164 1.356-.492.352-.336.528-.804.528-1.404v-.132h-1.944c-.376 0-.688.084-.936.252-.24.16-.36.404-.36.732 0 .328.124.584.372.768.256.184.584.276.984.276zm4.825-2.256v-.168c0-.616.124-1.144.372-1.584.248-.44.584-.78 1.008-1.02.424-.24.888-.36 1.392-.36.616 0 1.088.12 1.416.36.336.232.584.492.744.78h.168v-.972h.9v7.236c0 .32-.088.572-.264.756-.176.184-.432.276-.768.276h-3.984v-.84h3.732c.24 0 .36-.12.36-.36V56.95h-.168a2.138 2.138 0 0 1-.408.516 2.115 2.115 0 0 1-.684.42c-.28.104-.628.156-1.044.156-.504 0-.968-.12-1.392-.36-.424-.24-.76-.58-1.008-1.02-.248-.448-.372-.976-.372-1.584zm3.024 2.124c.608 0 1.1-.192 1.476-.576.384-.384.576-.912.576-1.584v-.096c0-.68-.192-1.208-.576-1.584-.376-.384-.868-.576-1.476-.576-.6 0-1.096.192-1.488.576-.384.376-.576.904-.576 1.584v.096c0 .672.192 1.2.576 1.584.392.384.888.576 1.488.576zm5.247.78v-5.868h.924v.72h.168c.104-.256.264-.444.48-.564.216-.12.5-.18.852-.18h.696v.864h-.756c-.424 0-.768.12-1.032.36-.256.232-.384.596-.384 1.092v3.576h-.948zm7.284.168c-.592 0-1.112-.124-1.56-.372a2.682 2.682 0 0 1-1.044-1.068c-.248-.456-.372-.984-.372-1.584v-.144c0-.608.124-1.14.372-1.596a2.624 2.624 0 0 1 1.032-1.056c.44-.256.944-.384 1.512-.384.552 0 1.04.12 1.464.36.424.232.756.568.996 1.008.24.44.36.956.36 1.548v.432h-4.788c.024.632.228 1.128.612 1.488.384.352.864.528 1.44.528.504 0 .892-.116 1.164-.348.272-.232.48-.508.624-.828l.816.396c-.12.248-.288.496-.504.744a2.484 2.484 0 0 1-.828.624c-.336.168-.768.252-1.296.252zm-2.016-3.636h3.816c-.032-.544-.22-.968-.564-1.272-.336-.304-.768-.456-1.296-.456-.536 0-.976.152-1.32.456-.344.304-.556.728-.636 1.272zm9.401 3.636c-.592 0-1.112-.124-1.56-.372a2.682 2.682 0 0 1-1.044-1.068c-.248-.456-.372-.984-.372-1.584v-.144c0-.608.124-1.14.372-1.596a2.624 2.624 0 0 1 1.032-1.056c.44-.256.944-.384 1.512-.384.552 0 1.04.12 1.464.36.424.232.756.568.996 1.008.24.44.36.956.36 1.548v.432h-4.788c.024.632.228 1.128.612 1.488.384.352.864.528 1.44.528.504 0 .892-.116 1.164-.348.272-.232.48-.508.624-.828l.816.396c-.12.248-.288.496-.504.744a2.481 2.481 0 0 1-.828.624c-.336.168-.768.252-1.296.252zm-2.016-3.636h3.816c-.032-.544-.22-.968-.564-1.272-.336-.304-.768-.456-1.296-.456-.536 0-.976.152-1.32.456-.344.304-.556.728-.636 1.272z" fill="#fff"/><path opacity=".6" d="M3.384 71.112c-.347 0-.661-.08-.944-.24a1.853 1.853 0 0 1-.68-.696c-.165-.304-.248-.661-.248-1.072v-.096c0-.41.083-.765.248-1.064.165-.304.39-.536.672-.696.288-.165.605-.248.952-.248.288 0 .53.04.728.12.197.075.357.173.48.296.128.117.227.243.296.376h.096V65.4h.48V71H5v-.712h-.096a1.671 1.671 0 0 1-.528.576c-.235.165-.565.248-.992.248zm.112-.432c.443 0 .8-.141 1.072-.424.277-.283.416-.672.416-1.168v-.064c0-.496-.139-.885-.416-1.168-.272-.283-.63-.424-1.072-.424-.437 0-.795.141-1.072.424-.277.283-.416.672-.416 1.168v.064c0 .496.139.885.416 1.168.277.283.635.424 1.072.424zm5.367.432c-.395 0-.741-.083-1.04-.248a1.818 1.818 0 0 1-.688-.704 2.235 2.235 0 0 1-.24-1.056v-.096c0-.4.08-.75.24-1.048.165-.304.395-.539.688-.704A2.06 2.06 0 0 1 8.863 67c.395 0 .739.085 1.032.256.299.165.528.4.688.704.165.299.248.648.248 1.048v.096c0 .4-.083.752-.248 1.056-.16.299-.39.533-.688.704a2.067 2.067 0 0 1-1.032.248zm0-.432c.459 0 .821-.144 1.088-.432.267-.293.4-.68.4-1.16v-.064c0-.48-.133-.864-.4-1.152-.267-.293-.63-.44-1.088-.44-.453 0-.816.147-1.088.44-.267.288-.4.672-.4 1.152v.064c0 .48.133.867.4 1.16.272.288.635.432 1.088.432zm5.188.432c-.4 0-.75-.083-1.048-.248a1.805 1.805 0 0 1-.688-.712 2.159 2.159 0 0 1-.248-1.048v-.096c0-.4.083-.75.248-1.048.165-.304.392-.539.68-.704.293-.17.627-.256 1-.256.363 0 .683.077.96.232.283.15.504.368.664.656.16.283.24.621.24 1.016v.256h-3.312c.016.485.163.861.44 1.128.283.261.637.392 1.064.392.363 0 .643-.083.84-.248.203-.165.357-.368.464-.608l.432.192c-.08.176-.192.35-.336.52-.139.165-.32.304-.544.416-.224.107-.51.16-.856.16zm-1.496-2.368h2.816c-.021-.421-.157-.744-.408-.968-.25-.23-.573-.344-.968-.344-.39 0-.712.115-.968.344-.256.224-.413.547-.472.968zm6.24 2.368c-.47 0-.872-.112-1.208-.336-.33-.224-.533-.595-.608-1.112l.472-.088c.043.283.128.507.256.672.134.16.294.275.48.344.192.07.395.104.608.104.32 0 .576-.064.768-.192a.624.624 0 0 0 .296-.544c0-.235-.093-.397-.28-.488a2.7 2.7 0 0 0-.728-.216l-.368-.064A2.943 2.943 0 0 1 17.82 69a1.252 1.252 0 0 1-.472-.36.907.907 0 0 1-.168-.56c0-.336.13-.6.392-.792.267-.192.619-.288 1.056-.288.443 0 .798.101 1.064.304.272.197.443.485.512.864l-.448.096c-.053-.31-.181-.528-.384-.656-.197-.128-.445-.192-.744-.192-.293 0-.528.056-.704.168a.55.55 0 0 0-.264.496c0 .213.08.37.24.472.16.096.379.168.656.216l.368.064c.267.043.507.107.72.192.214.08.382.195.504.344.128.15.192.347.192.592 0 .368-.138.653-.416.856-.277.197-.653.296-1.128.296zM23.962 71v-3.888h.464v.72h.096c.096-.208.254-.392.472-.552.22-.165.536-.248.952-.248.283 0 .542.059.776.176.235.117.422.296.56.536.144.235.216.53.216.888V71h-.48v-2.336c0-.427-.106-.733-.32-.92-.213-.187-.498-.28-.856-.28-.4 0-.733.133-1 .4-.266.261-.4.659-.4 1.192V71h-.48zm6.886.112c-.395 0-.741-.083-1.04-.248a1.818 1.818 0 0 1-.688-.704 2.235 2.235 0 0 1-.24-1.056v-.096c0-.4.08-.75.24-1.048.165-.304.395-.539.688-.704a2.06 2.06 0 0 1 1.04-.256c.395 0 .739.085 1.032.256.299.165.528.4.688.704.165.299.248.648.248 1.048v.096c0 .4-.083.752-.248 1.056-.16.299-.39.533-.688.704a2.067 2.067 0 0 1-1.032.248zm0-.432c.459 0 .821-.144 1.088-.432.267-.293.4-.68.4-1.16v-.064c0-.48-.133-.864-.4-1.152-.267-.293-.63-.44-1.088-.44-.453 0-.816.147-1.088.44-.267.288-.4.672-.4 1.152v.064c0 .48.133.867.4 1.16.272.288.635.432 1.088.432zm4.632.32c-.208 0-.365-.053-.472-.16-.101-.107-.152-.256-.152-.448v-2.848h-1.248v-.432h1.248v-1.456h.48v1.456h1.36v.432h-1.36v2.784c0 .16.08.24.24.24h.912V71H35.48zm4.772 0v-3.888h.464v.512h.096a1.23 1.23 0 0 1 .384-.4c.176-.128.427-.192.752-.192.315 0 .568.072.76.216.197.144.339.317.424.52h.096a1.32 1.32 0 0 1 .424-.52c.192-.144.461-.216.808-.216.267 0 .499.056.696.168.197.107.352.259.464.456.112.192.168.419.168.68V71h-.48v-2.616c0-.277-.085-.499-.256-.664-.165-.17-.4-.256-.704-.256-.31 0-.568.101-.776.304-.208.197-.312.488-.312.872V71h-.48v-2.616c0-.277-.085-.499-.256-.664-.165-.17-.4-.256-.704-.256-.31 0-.568.101-.776.304-.208.197-.312.488-.312.872V71h-.48zm8.901.112c-.4 0-.749-.083-1.048-.248a1.805 1.805 0 0 1-.688-.712 2.159 2.159 0 0 1-.248-1.048v-.096c0-.4.083-.75.248-1.048.166-.304.392-.539.68-.704.294-.17.627-.256 1-.256.363 0 .683.077.96.232.283.15.504.368.664.656.16.283.24.621.24 1.016v.256H47.65c.016.485.163.861.44 1.128.283.261.638.392 1.064.392.363 0 .643-.083.84-.248.203-.165.358-.368.464-.608l.432.192c-.08.176-.192.35-.336.52-.138.165-.32.304-.544.416-.224.107-.509.16-.856.16zm-1.496-2.368h2.816c-.02-.421-.157-.744-.408-.968-.25-.23-.573-.344-.968-.344-.389 0-.712.115-.968.344-.256.224-.413.547-.472.968zm6.489 2.368c-.4 0-.75-.083-1.048-.248a1.805 1.805 0 0 1-.688-.712 2.159 2.159 0 0 1-.248-1.048v-.096c0-.4.082-.75.248-1.048.165-.304.392-.539.68-.704.293-.17.626-.256 1-.256.362 0 .682.077.96.232.282.15.504.368.664.656.16.283.24.621.24 1.016v.256h-3.312c.016.485.162.861.44 1.128.282.261.637.392 1.064.392.362 0 .642-.083.84-.248.202-.165.357-.368.464-.608l.432.192c-.08.176-.192.35-.336.52-.139.165-.32.304-.544.416-.224.107-.51.16-.856.16zm-1.496-2.368h2.816c-.022-.421-.158-.744-.408-.968-.25-.23-.574-.344-.968-.344-.39 0-.712.115-.968.344-.256.224-.414.547-.472.968zM58.582 71c-.208 0-.365-.053-.472-.16-.101-.107-.152-.256-.152-.448v-2.848H56.71v-.432h1.248v-1.456h.48v1.456h1.36v.432h-1.36v2.784c0 .16.08.24.24.24h.912V71h-1.008zm4.772 0v-3.888h.464v.512h.096a1.23 1.23 0 0 1 .384-.4c.176-.128.427-.192.752-.192.315 0 .568.072.76.216.197.144.339.317.424.52h.096c.09-.203.232-.376.424-.52.192-.144.461-.216.808-.216.267 0 .499.056.696.168.197.107.352.259.464.456.112.192.168.419.168.68V71h-.48v-2.616c0-.277-.085-.499-.256-.664-.165-.17-.4-.256-.704-.256-.31 0-.568.101-.776.304-.208.197-.312.488-.312.872V71h-.48v-2.616c0-.277-.085-.499-.256-.664-.165-.17-.4-.256-.704-.256-.31 0-.568.101-.776.304-.208.197-.312.488-.312.872V71h-.48zm7.535 1.6v-.432h2.272c.16 0 .24-.08.24-.24v-1.6h-.096a1.316 1.316 0 0 1-.72.648c-.181.07-.41.104-.688.104-.277 0-.536-.059-.776-.176a1.384 1.384 0 0 1-.568-.528c-.139-.235-.208-.53-.208-.888v-2.376h.48v2.344c0 .421.107.725.32.912.213.187.499.28.856.28.4 0 .733-.13 1-.392.267-.261.4-.659.4-1.192v-1.952h.48v4.88c0 .192-.053.341-.16.448-.101.107-.256.16-.464.16H70.89zm6.887-1.6v-3.888h.464v.488h.096a.76.76 0 0 1 .328-.384c.15-.08.355-.12.616-.12h.456v.448h-.512c-.293 0-.528.083-.704.248-.176.165-.264.424-.264.776V71h-.48zm4.816.112c-.4 0-.75-.083-1.048-.248a1.803 1.803 0 0 1-.688-.712 2.158 2.158 0 0 1-.248-1.048v-.096c0-.4.082-.75.248-1.048.165-.304.392-.539.68-.704.293-.17.626-.256 1-.256.362 0 .683.077.96.232.282.15.504.368.664.656.16.283.24.621.24 1.016v.256h-3.312c.016.485.163.861.44 1.128.282.261.637.392 1.064.392.362 0 .642-.083.84-.248.203-.165.357-.368.464-.608l.432.192c-.08.176-.192.35-.336.52-.139.165-.32.304-.544.416-.224.107-.51.16-.856.16zm-1.496-2.368h2.816c-.022-.421-.158-.744-.408-.968-.25-.23-.574-.344-.968-.344-.39 0-.712.115-.968.344-.256.224-.413.547-.472.968zm7.976 3.856v-2.28h-.096c-.07.128-.168.253-.296.376a1.426 1.426 0 0 1-.48.304c-.197.075-.44.112-.728.112-.346 0-.664-.08-.952-.24a1.795 1.795 0 0 1-.672-.696c-.165-.304-.248-.661-.248-1.072v-.096c0-.416.083-.773.248-1.072A1.835 1.835 0 0 1 87.472 67c.427 0 .757.085.992.256.24.165.416.355.528.568h.096v-.712h.464V72.6h-.48zm-1.488-1.92c.443 0 .8-.141 1.072-.424.277-.283.416-.672.416-1.168v-.064c0-.496-.139-.885-.416-1.168-.272-.283-.63-.424-1.072-.424-.437 0-.794.141-1.072.424-.277.283-.416.672-.416 1.168v.064c0 .496.139.885.416 1.168.278.283.635.424 1.072.424zm5.087.4c-.277 0-.536-.059-.776-.176a1.384 1.384 0 0 1-.568-.528c-.139-.24-.208-.539-.208-.896v-2.368h.48v2.336c0 .421.107.728.32.92.213.187.499.28.856.28.4 0 .733-.13 1-.392.267-.267.4-.667.4-1.2v-1.944h.48V71h-.464v-.72h-.096a1.493 1.493 0 0 1-.472.56c-.219.16-.536.24-.952.24zm3.606-.08v-3.888h.48V71h-.48zm.24-4.56a.402.402 0 0 1-.296-.12.402.402 0 0 1-.12-.296c0-.123.04-.221.12-.296.08-.08.178-.12.296-.12.122 0 .221.04.296.12.08.075.12.173.12.296 0 .117-.04.216-.12.296a.386.386 0 0 1-.296.12zM98.378 71v-3.888h.464v.488h.096a.76.76 0 0 1 .328-.384c.15-.08.355-.12.616-.12h.456v.448h-.512c-.293 0-.528.083-.704.248-.176.165-.264.424-.264.776V71h-.48zm4.816.112c-.4 0-.749-.083-1.048-.248a1.804 1.804 0 0 1-.688-.712 2.162 2.162 0 0 1-.248-1.048v-.096c0-.4.083-.75.248-1.048.165-.304.392-.539.68-.704.293-.17.627-.256 1-.256.363 0 .683.077.96.232.283.15.504.368.664.656.16.283.24.621.24 1.016v.256h-3.312c.016.485.163.861.44 1.128.283.261.637.392 1.064.392.363 0 .643-.083.84-.248.203-.165.357-.368.464-.608l.432.192c-.08.176-.192.35-.336.52-.139.165-.32.304-.544.416-.224.107-.509.16-.856.16zm-1.496-2.368h2.816c-.021-.421-.157-.744-.408-.968-.251-.23-.573-.344-.968-.344-.389 0-.712.115-.968.344-.256.224-.413.547-.472.968zM106.394 71v-3.888h.464v.512h.096a1.23 1.23 0 0 1 .384-.4c.176-.128.427-.192.752-.192.315 0 .568.072.76.216.198.144.339.317.424.52h.096c.091-.203.232-.376.424-.52.192-.144.462-.216.808-.216.267 0 .499.056.696.168.198.107.352.259.464.456.112.192.168.419.168.68V71h-.48v-2.616c0-.277-.085-.499-.256-.664-.165-.17-.4-.256-.704-.256-.309 0-.568.101-.776.304-.208.197-.312.488-.312.872V71h-.48v-2.616c0-.277-.085-.499-.256-.664-.165-.17-.4-.256-.704-.256-.309 0-.568.101-.776.304-.208.197-.312.488-.312.872V71h-.48zm8.902.112c-.4 0-.75-.083-1.048-.248a1.797 1.797 0 0 1-.688-.712 2.151 2.151 0 0 1-.248-1.048v-.096c0-.4.082-.75.248-1.048.165-.304.392-.539.68-.704.293-.17.626-.256 1-.256.362 0 .682.077.96.232.282.15.504.368.664.656.16.283.24.621.24 1.016v.256h-3.312c.016.485.162.861.44 1.128.282.261.637.392 1.064.392.362 0 .642-.083.84-.248.202-.165.357-.368.464-.608l.432.192c-.08.176-.192.35-.336.52-.139.165-.32.304-.544.416-.224.107-.51.16-.856.16zm-1.496-2.368h2.816c-.022-.421-.158-.744-.408-.968-.251-.23-.574-.344-.968-.344-.39 0-.712.115-.968.344-.256.224-.414.547-.472.968zM118.496 71v-3.888h.464v.72h.096a1.43 1.43 0 0 1 .472-.552c.219-.165.536-.248.952-.248.283 0 .541.059.776.176.235.117.421.296.56.536.144.235.216.53.216.888V71h-.48v-2.336c0-.427-.107-.733-.32-.92-.213-.187-.499-.28-.856-.28-.4 0-.733.133-1 .4-.267.261-.4.659-.4 1.192V71h-.48zm6.408 0c-.208 0-.365-.053-.472-.16-.101-.107-.152-.256-.152-.448v-2.848h-1.248v-.432h1.248v-1.456h.48v1.456h1.36v.432h-1.36v2.784c0 .16.08.24.24.24h.912V71h-1.008zM761.327 71v-3.888h.464v.512h.096a1.23 1.23 0 0 1 .384-.4c.176-.128.426-.192.752-.192.314 0 .568.072.76.216.197.144.338.317.424.52h.096c.09-.203.232-.376.424-.52.192-.144.461-.216.808-.216.266 0 .498.056.696.168.197.107.352.259.464.456.112.192.168.419.168.68V71h-.48v-2.616c0-.277-.086-.499-.256-.664-.166-.17-.4-.256-.704-.256-.31 0-.568.101-.776.304-.208.197-.312.488-.312.872V71h-.48v-2.616c0-.277-.086-.499-.256-.664-.166-.17-.4-.256-.704-.256-.31 0-.568.101-.776.304-.208.197-.312.488-.312.872V71h-.48zm8.901.112c-.4 0-.749-.083-1.048-.248a1.81 1.81 0 0 1-.688-.712 2.162 2.162 0 0 1-.248-1.048v-.096c0-.4.083-.75.248-1.048.166-.304.392-.539.68-.704.294-.17.627-.256 1-.256.363 0 .683.077.96.232.283.15.504.368.664.656.16.283.24.621.24 1.016v.256h-3.312c.016.485.163.861.44 1.128.283.261.638.392 1.064.392.363 0 .643-.083.84-.248.203-.165.358-.368.464-.608l.432.192c-.08.176-.192.35-.336.52-.138.165-.32.304-.544.416-.224.107-.509.16-.856.16zm-1.496-2.368h2.816c-.021-.421-.157-.744-.408-.968-.25-.23-.573-.344-.968-.344-.389 0-.712.115-.968.344-.256.224-.413.547-.472.968zm6.489 2.368c-.4 0-.75-.083-1.048-.248a1.797 1.797 0 0 1-.688-.712 2.151 2.151 0 0 1-.248-1.048v-.096c0-.4.082-.75.248-1.048.165-.304.392-.539.68-.704.293-.17.626-.256 1-.256.362 0 .682.077.96.232.282.15.504.368.664.656.16.283.24.621.24 1.016v.256h-3.312c.016.485.162.861.44 1.128.282.261.637.392 1.064.392.362 0 .642-.083.84-.248.202-.165.357-.368.464-.608l.432.192c-.08.176-.192.35-.336.52-.139.165-.32.304-.544.416-.224.107-.51.16-.856.16zm-1.496-2.368h2.816c-.022-.421-.158-.744-.408-.968-.251-.23-.574-.344-.968-.344-.39 0-.712.115-.968.344-.256.224-.414.547-.472.968zM779.657 71c-.208 0-.365-.053-.472-.16-.101-.107-.152-.256-.152-.448v-2.848h-1.248v-.432h1.248v-1.456h.48v1.456h1.36v.432h-1.36v2.784c0 .16.08.24.24.24h.912V71h-1.008zm4.042.112c-.469 0-.872-.112-1.208-.336-.33-.224-.533-.595-.608-1.112l.472-.088c.043.283.128.507.256.672.134.16.294.275.48.344.192.07.395.104.608.104.32 0 .576-.064.768-.192a.623.623 0 0 0 .296-.544c0-.235-.093-.397-.28-.488a2.696 2.696 0 0 0-.728-.216l-.368-.064a2.957 2.957 0 0 1-.664-.192 1.26 1.26 0 0 1-.472-.36.907.907 0 0 1-.168-.56c0-.336.131-.6.392-.792.267-.192.619-.288 1.056-.288.443 0 .798.101 1.064.304.272.197.443.485.512.864l-.448.096c-.053-.31-.181-.528-.384-.656-.197-.128-.445-.192-.744-.192-.293 0-.528.056-.704.168a.55.55 0 0 0-.264.496c0 .213.08.37.24.472.16.096.379.168.656.216l.368.064c.267.043.507.107.72.192.214.08.382.195.504.344.128.15.192.347.192.592 0 .368-.138.653-.416.856-.277.197-.653.296-1.128.296zm5.168-.112v-3.888h.464v.512h.096a1.23 1.23 0 0 1 .384-.4c.176-.128.426-.192.752-.192.314 0 .568.072.76.216.197.144.338.317.424.52h.096c.09-.203.232-.376.424-.52.192-.144.461-.216.808-.216.266 0 .498.056.696.168.197.107.352.259.464.456.112.192.168.419.168.68V71h-.48v-2.616c0-.277-.086-.499-.256-.664-.166-.17-.4-.256-.704-.256-.31 0-.568.101-.776.304-.208.197-.312.488-.312.872V71h-.48v-2.616c0-.277-.086-.499-.256-.664-.166-.17-.4-.256-.704-.256-.31 0-.568.101-.776.304-.208.197-.312.488-.312.872V71h-.48zm7.535 1.6v-.432h2.272c.16 0 .24-.08.24-.24v-1.6h-.096a1.322 1.322 0 0 1-.72.648 1.95 1.95 0 0 1-.688.104c-.278 0-.536-.059-.776-.176a1.383 1.383 0 0 1-.568-.528c-.139-.235-.208-.53-.208-.888v-2.376h.48v2.344c0 .421.106.725.32.912.213.187.498.28.856.28.4 0 .733-.13 1-.392.266-.261.4-.659.4-1.192v-1.952h.48v4.88c0 .192-.054.341-.16.448-.102.107-.256.16-.464.16h-2.368zm6.887-1.6v-3.888h.464v.488h.096a.756.756 0 0 1 .328-.384c.149-.08.354-.12.616-.12h.456v.448h-.512c-.294 0-.528.083-.704.248-.176.165-.264.424-.264.776V71h-.48zm4.815.112c-.4 0-.749-.083-1.048-.248a1.81 1.81 0 0 1-.688-.712 2.162 2.162 0 0 1-.248-1.048v-.096c0-.4.083-.75.248-1.048.166-.304.392-.539.68-.704.294-.17.627-.256 1-.256.363 0 .683.077.96.232.283.15.504.368.664.656.16.283.24.621.24 1.016v.256H806.6c.016.485.163.861.44 1.128.283.261.638.392 1.064.392.363 0 .643-.083.84-.248.203-.165.358-.368.464-.608l.432.192c-.08.176-.192.35-.336.52-.138.165-.32.304-.544.416-.224.107-.509.16-.856.16zm-1.496-2.368h2.816c-.021-.421-.157-.744-.408-.968-.25-.23-.573-.344-.968-.344-.389 0-.712.115-.968.344-.256.224-.413.547-.472.968zm7.977 3.856v-2.28h-.096a1.568 1.568 0 0 1-.776.68 2.07 2.07 0 0 1-.728.112c-.347 0-.664-.08-.952-.24a1.79 1.79 0 0 1-.672-.696c-.166-.304-.248-.661-.248-1.072v-.096c0-.416.082-.773.248-1.072.17-.299.397-.528.68-.688.282-.165.597-.248.944-.248.426 0 .757.085.992.256.24.165.416.355.528.568h.096v-.712h.464V72.6h-.48zm-1.488-1.92c.442 0 .8-.141 1.072-.424.277-.283.416-.672.416-1.168v-.064c0-.496-.139-.885-.416-1.168-.272-.283-.63-.424-1.072-.424-.438 0-.795.141-1.072.424-.278.283-.416.672-.416 1.168v.064c0 .496.138.885.416 1.168.277.283.634.424 1.072.424zm5.087.4c-.278 0-.536-.059-.776-.176a1.383 1.383 0 0 1-.568-.528c-.139-.24-.208-.539-.208-.896v-2.368h.48v2.336c0 .421.106.728.32.92.213.187.498.28.856.28.4 0 .733-.13 1-.392.266-.267.4-.667.4-1.2v-1.944h.48V71h-.464v-.72h-.096a1.5 1.5 0 0 1-.472.56c-.219.16-.536.24-.952.24zm3.605-.08v-3.888h.48V71h-.48zm.24-4.56a.403.403 0 0 1-.296-.12.402.402 0 0 1-.12-.296c0-.123.04-.221.12-.296.08-.08.179-.12.296-.12.123 0 .222.04.296.12.08.075.12.173.12.296 0 .117-.04.216-.12.296a.384.384 0 0 1-.296.12zm1.862 4.56v-3.888h.464v.488h.096a.76.76 0 0 1 .328-.384c.149-.08.355-.12.616-.12h.456v.448h-.512c-.293 0-.528.083-.704.248-.176.165-.264.424-.264.776V71h-.48zm4.815.112c-.4 0-.749-.083-1.048-.248a1.81 1.81 0 0 1-.688-.712 2.162 2.162 0 0 1-.248-1.048v-.096c0-.4.083-.75.248-1.048.166-.304.392-.539.68-.704.294-.17.627-.256 1-.256.363 0 .683.077.96.232.283.15.504.368.664.656.16.283.24.621.24 1.016v.256h-3.312c.016.485.163.861.44 1.128.283.261.638.392 1.064.392.363 0 .643-.083.84-.248.203-.165.358-.368.464-.608l.432.192c-.08.176-.192.35-.336.52-.138.165-.32.304-.544.416-.224.107-.509.16-.856.16zm-1.496-2.368h2.816c-.021-.421-.157-.744-.408-.968-.25-.23-.573-.344-.968-.344-.389 0-.712.115-.968.344-.256.224-.413.547-.472.968zM831.907 71v-3.888h.464v.512h.096a1.23 1.23 0 0 1 .384-.4c.176-.128.426-.192.752-.192.314 0 .568.072.76.216.197.144.338.317.424.52h.096c.09-.203.232-.376.424-.52.192-.144.461-.216.808-.216.266 0 .498.056.696.168.197.107.352.259.464.456.112.192.168.419.168.68V71h-.48v-2.616c0-.277-.086-.499-.256-.664-.166-.17-.4-.256-.704-.256-.31 0-.568.101-.776.304-.208.197-.312.488-.312.872V71h-.48v-2.616c0-.277-.086-.499-.256-.664-.166-.17-.4-.256-.704-.256-.31 0-.568.101-.776.304-.208.197-.312.488-.312.872V71h-.48zm8.901.112c-.4 0-.749-.083-1.048-.248a1.81 1.81 0 0 1-.688-.712 2.162 2.162 0 0 1-.248-1.048v-.096c0-.4.083-.75.248-1.048.166-.304.392-.539.68-.704.294-.17.627-.256 1-.256.363 0 .683.077.96.232.283.15.504.368.664.656.16.283.24.621.24 1.016v.256h-3.312c.016.485.163.861.44 1.128.283.261.638.392 1.064.392.363 0 .643-.083.84-.248.203-.165.358-.368.464-.608l.432.192c-.08.176-.192.35-.336.52-.138.165-.32.304-.544.416-.224.107-.509.16-.856.16zm-1.496-2.368h2.816c-.021-.421-.157-.744-.408-.968-.25-.23-.573-.344-.968-.344-.389 0-.712.115-.968.344-.256.224-.413.547-.472.968zM844.009 71v-3.888h.464v.72h.096a1.43 1.43 0 0 1 .472-.552c.218-.165.536-.248.952-.248.282 0 .541.059.776.176.234.117.421.296.56.536.144.235.216.53.216.888V71h-.48v-2.336c0-.427-.107-.733-.32-.92-.214-.187-.499-.28-.856-.28-.4 0-.734.133-1 .4-.267.261-.4.659-.4 1.192V71h-.48zm6.408 0c-.208 0-.366-.053-.472-.16-.102-.107-.152-.256-.152-.448v-2.848h-1.248v-.432h1.248v-1.456h.48v1.456h1.36v.432h-1.36v2.784c0 .16.08.24.24.24h.912V71h-1.008z" fill="#fff"/><path d="M762.896 58.066c-.608 0-1.152-.108-1.632-.324-.48-.216-.86-.54-1.14-.972-.272-.44-.408-.988-.408-1.644v-.252h.996v.252c0 .696.204 1.216.612 1.56.408.336.932.504 1.572.504.656 0 1.156-.148 1.5-.444a1.41 1.41 0 0 0 .516-1.116c0-.312-.08-.56-.24-.744a1.58 1.58 0 0 0-.648-.444 5.958 5.958 0 0 0-.984-.312l-.624-.156a6.979 6.979 0 0 1-1.296-.468 2.353 2.353 0 0 1-.888-.72c-.208-.304-.312-.692-.312-1.164s.116-.88.348-1.224c.24-.344.572-.608.996-.792.432-.184.928-.276 1.488-.276.568 0 1.076.1 1.524.3.456.192.812.48 1.068.864.264.376.396.852.396 1.428v.504h-.996v-.504c0-.408-.088-.736-.264-.984a1.49 1.49 0 0 0-.708-.552 2.698 2.698 0 0 0-1.02-.18c-.552 0-.996.124-1.332.372-.336.24-.504.584-.504 1.032 0 .296.072.536.216.72.144.184.348.336.612.456.264.112.58.212.948.3l.624.156c.488.104.924.248 1.308.432.392.176.704.42.936.732.232.304.348.704.348 1.2s-.124.928-.372 1.296-.6.656-1.056.864c-.448.2-.976.3-1.584.3zm7.159-.168c-.336 0-.596-.092-.78-.276-.176-.184-.264-.436-.264-.756v-4.008h-1.764v-.828h1.764v-2.088h.948v2.088h1.92v.828h-1.92v3.864c0 .24.116.36.348.36h1.308v.816h-1.56zm3.76 0V52.03h.924v.72h.168c.104-.256.264-.444.48-.564.216-.12.5-.18.852-.18h.696v.864h-.756c-.424 0-.768.12-1.032.36-.256.232-.384.596-.384 1.092v3.576h-.948zm7.424.168c-.592 0-1.116-.124-1.572-.372a2.703 2.703 0 0 1-1.056-1.044c-.248-.456-.372-.992-.372-1.608v-.156c0-.608.124-1.14.372-1.596a2.681 2.681 0 0 1 1.056-1.056c.456-.248.98-.372 1.572-.372.592 0 1.112.124 1.56.372.456.248.808.6 1.056 1.056.256.456.384.988.384 1.596v.156c0 .616-.128 1.152-.384 1.608-.248.448-.6.796-1.056 1.044-.448.248-.968.372-1.56.372zm0-.852c.624 0 1.12-.196 1.488-.588.376-.4.564-.936.564-1.608v-.108c0-.672-.188-1.204-.564-1.596-.368-.4-.864-.6-1.488-.6-.616 0-1.112.2-1.488.6-.376.392-.564.924-.564 1.596v.108c0 .672.188 1.208.564 1.608.376.392.872.588 1.488.588zm5.106.684V52.03h.924v.996h.168c.128-.28.344-.532.648-.756.312-.232.768-.348 1.368-.348.44 0 .832.092 1.176.276.352.184.632.456.84.816.208.36.312.804.312 1.332v3.552h-.948v-3.48c0-.584-.148-1.008-.444-1.272-.288-.264-.68-.396-1.176-.396-.568 0-1.032.184-1.392.552-.352.368-.528.916-.528 1.644v2.952h-.948zm7.472-2.904v-.168c0-.616.124-1.144.372-1.584.248-.44.584-.78 1.008-1.02.424-.24.888-.36 1.392-.36.616 0 1.088.12 1.416.36.336.232.584.492.744.78h.168v-.972h.9v7.236c0 .32-.088.572-.264.756-.176.184-.432.276-.768.276h-3.984v-.84h3.732c.24 0 .36-.12.36-.36v-2.232h-.168a2.138 2.138 0 0 1-.408.516 2.115 2.115 0 0 1-.684.42c-.28.104-.628.156-1.044.156-.504 0-.968-.12-1.392-.36-.424-.24-.76-.58-1.008-1.02-.248-.448-.372-.976-.372-1.584zm3.024 2.124c.608 0 1.1-.192 1.476-.576.384-.384.576-.912.576-1.584v-.096c0-.68-.192-1.208-.576-1.584-.376-.384-.868-.576-1.476-.576-.6 0-1.096.192-1.488.576-.384.376-.576.904-.576 1.584v.096c0 .672.192 1.2.576 1.584.392.384.888.576 1.488.576zm5.363.78v-8.4h.948v8.4h-.948zm4.049 2.4v-.84h3.36c.232 0 .348-.12.348-.36v-2.136h-.168a1.838 1.838 0 0 1-1.008.9c-.264.096-.596.144-.996.144-.424 0-.816-.092-1.176-.276a2.06 2.06 0 0 1-.84-.816c-.2-.36-.3-.8-.3-1.32V52.03h.948v3.492c0 .576.144.996.432 1.26.296.264.692.396 1.188.396.56 0 1.02-.184 1.38-.552.36-.368.54-.916.54-1.644V52.03h.948v7.236c0 .32-.092.572-.276.756-.176.184-.436.276-.78.276h-3.6zm9.674-2.4 2.592-8.4h1.776l2.592 8.4h-1.044l-.648-2.124h-3.576l-.648 2.124h-1.044zm1.944-3.036h3.06l-1.44-4.752h-.168l-1.452 4.752zm6.422.132v-.168c0-.616.124-1.144.372-1.584.248-.44.584-.78 1.008-1.02.424-.24.888-.36 1.392-.36.616 0 1.088.12 1.416.36.336.232.584.492.744.78h.168v-.972h.9v7.236c0 .32-.088.572-.264.756-.176.184-.432.276-.768.276h-3.984v-.84h3.732c.24 0 .36-.12.36-.36v-2.232h-.168a2.138 2.138 0 0 1-.408.516 2.115 2.115 0 0 1-.684.42c-.28.104-.628.156-1.044.156-.504 0-.968-.12-1.392-.36-.424-.24-.76-.58-1.008-1.02-.248-.448-.372-.976-.372-1.584zm3.024 2.124c.608 0 1.1-.192 1.476-.576.384-.384.576-.912.576-1.584v-.096c0-.68-.192-1.208-.576-1.584-.376-.384-.868-.576-1.476-.576-.6 0-1.096.192-1.488.576-.384.376-.576.904-.576 1.584v.096c0 .672.192 1.2.576 1.584.392.384.888.576 1.488.576zm5.363.78V52.03h.924v.72h.168c.104-.256.264-.444.48-.564.216-.12.5-.18.852-.18h.696v.864h-.756c-.424 0-.768.12-1.032.36-.256.232-.384.596-.384 1.092v3.576h-.948zm7.401.168c-.592 0-1.112-.124-1.56-.372a2.682 2.682 0 0 1-1.044-1.068c-.248-.456-.372-.984-.372-1.584v-.144c0-.608.124-1.14.372-1.596a2.624 2.624 0 0 1 1.032-1.056c.44-.256.944-.384 1.512-.384.552 0 1.04.12 1.464.36.424.232.756.568.996 1.008.24.44.36.956.36 1.548v.432h-4.788c.024.632.228 1.128.612 1.488.384.352.864.528 1.44.528.504 0 .892-.116 1.164-.348.272-.232.48-.508.624-.828l.816.396c-.12.248-.288.496-.504.744a2.481 2.481 0 0 1-.828.624c-.336.168-.768.252-1.296.252zm-2.016-3.636h3.816c-.032-.544-.22-.968-.564-1.272-.336-.304-.768-.456-1.296-.456-.536 0-.976.152-1.32.456-.344.304-.556.728-.636 1.272zm9.517 3.636c-.592 0-1.112-.124-1.56-.372a2.682 2.682 0 0 1-1.044-1.068c-.248-.456-.372-.984-.372-1.584v-.144c0-.608.124-1.14.372-1.596a2.624 2.624 0 0 1 1.032-1.056c.44-.256.944-.384 1.512-.384.552 0 1.04.12 1.464.36.424.232.756.568.996 1.008.24.44.36.956.36 1.548v.432h-4.788c.024.632.228 1.128.612 1.488.384.352.864.528 1.44.528.504 0 .892-.116 1.164-.348.272-.232.48-.508.624-.828l.816.396c-.12.248-.288.496-.504.744a2.481 2.481 0 0 1-.828.624c-.336.168-.768.252-1.296.252zm-2.016-3.636h3.816c-.032-.544-.22-.968-.564-1.272-.336-.304-.768-.456-1.296-.456-.536 0-.976.152-1.32.456-.344.304-.556.728-.636 1.272z" fill="#fff"/><defs><linearGradient id="a" x1=".968" y1="30" x2="850.968" y2="30" gradientUnits="userSpaceOnUse"><stop stop-color="red"/><stop offset=".214" stop-color="orange"/><stop offset=".505" stop-color="#FF0"/><stop offset="1" stop-color="#13E313"/></linearGradient><linearGradient id="c" x1="243" y1="29.5" x2="752" y2="29.5" gradientUnits="userSpaceOnUse"><stop offset=".05" stop-color="red"/><stop offset=".384" stop-color="orange"/><stop offset=".674" stop-color="#FF0"/><stop offset="1" stop-color="#13E313"/></linearGradient><filter id="b" x="226.6" y=".6" width="541.8" height="57.8" filterUnits="userSpaceOnUse" color-interpolation-filters="sRGB"><feFlood flood-opacity="0" result="BackgroundImageFix"/><feBlend in="SourceGraphic" in2="BackgroundImageFix" result="shape"/><feGaussianBlur stdDeviation="8.2" result="effect1_foregroundBlur_585_101623"/></filter><filter id="d" x="202.968" y="12" width="553" height="32.79" filterUnits="userSpaceOnUse" color-interpolation-filters="sRGB"><feFlood flood-opacity="0" result="BackgroundImageFix"/><feBlend in="SourceGraphic" in2="BackgroundImageFix" result="shape"/><feColorMatrix in="SourceAlpha" values="0 0 0 0 0 0 0 0 0 0 0 0 0 0 0 0 0 0 127 0" result="hardAlpha"/><feOffset dx="1" dy="-1"/><feGaussianBlur stdDeviation="1.5"/><feComposite in2="hardAlpha" operator="arithmetic" k2="-1" k3="1"/><feColorMatrix values="0 0 0 0 0 0 0 0 0 0 0 0 0 0 0 0 0 0 0.25 0"/><feBlend in2="shape" result="effect1_innerShadow_585_101623"/></filter></defs></svg>