<svg width="370" height="144" viewBox="0 0 370 144" fill="none" xmlns="http://www.w3.org/2000/svg">
<rect x="2" width="367" height="40" rx="8" fill="#5081FF"/>
<path d="M14.662 25.196C13.4953 25.196 12.5667 24.86 11.876 24.188C11.1853 23.5067 10.84 22.5173 10.84 21.22V18.98C10.84 17.6827 11.1853 16.698 11.876 16.026C12.5667 15.3447 13.4953 15.004 14.662 15.004C15.8193 15.004 16.706 15.326 17.322 15.97C17.9473 16.614 18.26 17.496 18.26 18.616V18.686H17.098V18.574C17.098 17.8367 16.8973 17.2347 16.496 16.768C16.104 16.292 15.4927 16.054 14.662 16.054C13.8313 16.054 13.1827 16.3107 12.716 16.824C12.2493 17.328 12.016 18.0373 12.016 18.952V21.248C12.016 22.1627 12.2493 22.8767 12.716 23.39C13.1827 23.894 13.8313 24.146 14.662 24.146C15.4927 24.146 16.104 23.9127 16.496 23.446C16.8973 22.97 17.098 22.3633 17.098 21.626V21.402H18.26V21.584C18.26 22.704 17.9473 23.586 17.322 24.23C16.706 24.874 15.8193 25.196 14.662 25.196ZM22.6444 25.196C22.1684 25.196 21.7344 25.112 21.3424 24.944C20.9504 24.776 20.6424 24.5333 20.4184 24.216C20.1944 23.8987 20.0824 23.5113 20.0824 23.054C20.0824 22.5873 20.1944 22.2047 20.4184 21.906C20.6424 21.598 20.9504 21.3693 21.3424 21.22C21.7344 21.0613 22.1731 20.982 22.6584 20.982H24.9684V20.478C24.9684 19.9927 24.8238 19.61 24.5344 19.33C24.2544 19.05 23.8344 18.91 23.2744 18.91C22.7238 18.91 22.2944 19.0453 21.9864 19.316C21.6784 19.5773 21.4684 19.932 21.3564 20.38L20.3204 20.044C20.4324 19.6613 20.6098 19.316 20.8524 19.008C21.0951 18.6907 21.4171 18.4387 21.8184 18.252C22.2291 18.056 22.7191 17.958 23.2884 17.958C24.1658 17.958 24.8471 18.1867 25.3324 18.644C25.8178 19.092 26.0604 19.7267 26.0604 20.548V23.642C26.0604 23.922 26.1911 24.062 26.4524 24.062H27.0824V25H26.1164C25.8084 25 25.5611 24.916 25.3744 24.748C25.1878 24.5707 25.0944 24.3373 25.0944 24.048V23.978H24.9264C24.8238 24.1553 24.6838 24.342 24.5064 24.538C24.3384 24.7247 24.1051 24.8787 23.8064 25C23.5078 25.1307 23.1204 25.196 22.6444 25.196ZM22.7704 24.244C23.4238 24.244 23.9511 24.0527 24.3524 23.67C24.7631 23.278 24.9684 22.732 24.9684 22.032V21.878H22.7004C22.2618 21.878 21.8978 21.976 21.6084 22.172C21.3284 22.3587 21.1884 22.6433 21.1884 23.026C21.1884 23.4087 21.3331 23.7073 21.6224 23.922C21.9211 24.1367 22.3038 24.244 22.7704 24.244ZM28.9972 25V18.154H30.0752V19.316H30.2712C30.4205 18.9893 30.6725 18.6953 31.0272 18.434C31.3912 18.1633 31.9232 18.028 32.6232 18.028C33.1365 18.028 33.5938 18.1353 33.9952 18.35C34.4058 18.5647 34.7325 18.882 34.9752 19.302C35.2178 19.722 35.3392 20.24 35.3392 20.856V25H34.2332V20.94C34.2332 20.2587 34.0605 19.764 33.7152 19.456C33.3792 19.148 32.9218 18.994 32.3432 18.994C31.6805 18.994 31.1392 19.2087 30.7192 19.638C30.3085 20.0673 30.1032 20.7067 30.1032 21.556V25H28.9972ZM37.4609 18.448V17.748H37.8669C38.2029 17.748 38.3709 17.58 38.3709 17.244V16.796H38.1749C37.9043 16.796 37.6756 16.712 37.4889 16.544C37.3116 16.376 37.2229 16.166 37.2229 15.914C37.2229 15.6433 37.3116 15.424 37.4889 15.256C37.6756 15.088 37.9043 15.004 38.1749 15.004C38.4456 15.004 38.6696 15.0927 38.8469 15.27C39.0243 15.4473 39.1129 15.6713 39.1129 15.942V17.244C39.1129 18.0467 38.7116 18.448 37.9089 18.448H37.4609ZM44.0613 25C43.6693 25 43.366 24.8927 43.1513 24.678C42.946 24.4633 42.8433 24.1693 42.8433 23.796V19.12H40.7853V18.154H42.8433V15.718H43.9493V18.154H46.1893V19.12H43.9493V23.628C43.9493 23.908 44.0846 24.048 44.3553 24.048H45.8813V25H44.0613ZM55.1345 25.196C54.2851 25.196 53.5665 25 52.9785 24.608C52.3998 24.216 52.0498 23.5953 51.9285 22.746L52.9785 22.508C53.0531 22.956 53.1931 23.3107 53.3985 23.572C53.6038 23.824 53.8558 24.006 54.1545 24.118C54.4625 24.2207 54.7891 24.272 55.1345 24.272C55.6478 24.272 56.0538 24.1693 56.3525 23.964C56.6511 23.7587 56.8005 23.4833 56.8005 23.138C56.8005 22.7833 56.6558 22.536 56.3665 22.396C56.0865 22.2467 55.6991 22.1253 55.2045 22.032L54.6305 21.934C54.1918 21.8593 53.7905 21.7427 53.4265 21.584C53.0625 21.4253 52.7731 21.2107 52.5585 20.94C52.3438 20.6693 52.2365 20.3287 52.2365 19.918C52.2365 19.302 52.4745 18.8213 52.9505 18.476C53.4265 18.1307 54.0565 17.958 54.8405 17.958C55.6151 17.958 56.2405 18.1353 56.7165 18.49C57.2018 18.8353 57.5145 19.3253 57.6545 19.96L56.6185 20.226C56.5345 19.7313 56.3338 19.386 56.0165 19.19C55.6991 18.9847 55.3071 18.882 54.8405 18.882C54.3738 18.882 54.0051 18.9707 53.7345 19.148C53.4638 19.316 53.3285 19.568 53.3285 19.904C53.3285 20.2307 53.4545 20.4733 53.7065 20.632C53.9678 20.7813 54.3131 20.8933 54.7425 20.968L55.3165 21.066C55.8018 21.15 56.2358 21.2667 56.6185 21.416C57.0105 21.556 57.3185 21.7613 57.5425 22.032C57.7758 22.3027 57.8925 22.6573 57.8925 23.096C57.8925 23.768 57.6405 24.286 57.1365 24.65C56.6418 25.014 55.9745 25.196 55.1345 25.196ZM63.2953 25.196C62.6046 25.196 61.9979 25.0513 61.4753 24.762C60.9526 24.4633 60.5466 24.048 60.2573 23.516C59.9679 22.984 59.8233 22.368 59.8233 21.668V21.5C59.8233 20.7907 59.9679 20.17 60.2573 19.638C60.5466 19.106 60.9479 18.6953 61.4613 18.406C61.9746 18.1073 62.5626 17.958 63.2253 17.958C63.8693 17.958 64.4386 18.098 64.9333 18.378C65.4279 18.6487 65.8153 19.0407 66.0953 19.554C66.3753 20.0673 66.5153 20.6693 66.5153 21.36V21.864H60.9293C60.9573 22.6013 61.1953 23.18 61.6433 23.6C62.0913 24.0107 62.6513 24.216 63.3233 24.216C63.9113 24.216 64.3639 24.0807 64.6813 23.81C64.9986 23.5393 65.2413 23.2173 65.4093 22.844L66.3613 23.306C66.2213 23.5953 66.0253 23.8847 65.7733 24.174C65.5306 24.4633 65.2086 24.706 64.8073 24.902C64.4153 25.098 63.9113 25.196 63.2953 25.196ZM60.9433 20.954H65.3953C65.3579 20.3193 65.1386 19.8247 64.7373 19.47C64.3453 19.1153 63.8413 18.938 63.2253 18.938C62.5999 18.938 62.0866 19.1153 61.6853 19.47C61.2839 19.8247 61.0366 20.3193 60.9433 20.954ZM71.9804 25.196C71.2898 25.196 70.6831 25.0513 70.1604 24.762C69.6378 24.4633 69.2318 24.048 68.9424 23.516C68.6531 22.984 68.5084 22.368 68.5084 21.668V21.5C68.5084 20.7907 68.6531 20.17 68.9424 19.638C69.2318 19.106 69.6331 18.6953 70.1464 18.406C70.6598 18.1073 71.2478 17.958 71.9104 17.958C72.5544 17.958 73.1238 18.098 73.6184 18.378C74.1131 18.6487 74.5004 19.0407 74.7804 19.554C75.0604 20.0673 75.2004 20.6693 75.2004 21.36V21.864H69.6144C69.6424 22.6013 69.8804 23.18 70.3284 23.6C70.7764 24.0107 71.3364 24.216 72.0084 24.216C72.5964 24.216 73.0491 24.0807 73.3664 23.81C73.6838 23.5393 73.9264 23.2173 74.0944 22.844L75.0464 23.306C74.9064 23.5953 74.7104 23.8847 74.4584 24.174C74.2158 24.4633 73.8938 24.706 73.4924 24.902C73.1004 25.098 72.5964 25.196 71.9804 25.196ZM69.6284 20.954H74.0804C74.0431 20.3193 73.8238 19.8247 73.4224 19.47C73.0304 19.1153 72.5264 18.938 71.9104 18.938C71.2851 18.938 70.7718 19.1153 70.3704 19.47C69.9691 19.8247 69.7218 20.3193 69.6284 20.954ZM81.4833 25V15.2H85.2353C85.8233 15.2 86.3459 15.3167 86.8033 15.55C87.2699 15.774 87.6386 16.096 87.9093 16.516C88.1799 16.936 88.3153 17.4447 88.3153 18.042V18.224C88.3153 18.812 88.1753 19.3207 87.8953 19.75C87.6246 20.17 87.2559 20.492 86.7893 20.716C86.3226 20.94 85.8046 21.052 85.2353 21.052H82.6593V25H81.4833ZM82.6593 19.988H85.1093C85.7346 19.988 86.2293 19.834 86.5933 19.526C86.9573 19.2087 87.1393 18.7653 87.1393 18.196V18.056C87.1393 17.4867 86.9573 17.048 86.5933 16.74C86.2386 16.4227 85.7439 16.264 85.1093 16.264H82.6593V19.988ZM90.3335 25V18.154H91.4115V18.994H91.6075C91.7288 18.6953 91.9155 18.476 92.1675 18.336C92.4195 18.196 92.7508 18.126 93.1615 18.126H93.9735V19.134H93.0915C92.5968 19.134 92.1955 19.274 91.8875 19.554C91.5888 19.8247 91.4395 20.2493 91.4395 20.828V25H90.3335ZM98.9007 25.196C98.2101 25.196 97.6034 25.0513 97.0807 24.762C96.5581 24.4633 96.1521 24.048 95.8627 23.516C95.5734 22.984 95.4287 22.368 95.4287 21.668V21.5C95.4287 20.7907 95.5734 20.17 95.8627 19.638C96.1521 19.106 96.5534 18.6953 97.0667 18.406C97.5801 18.1073 98.1681 17.958 98.8307 17.958C99.4747 17.958 100.044 18.098 100.539 18.378C101.033 18.6487 101.421 19.0407 101.701 19.554C101.981 20.0673 102.121 20.6693 102.121 21.36V21.864H96.5347C96.5627 22.6013 96.8007 23.18 97.2487 23.6C97.6967 24.0107 98.2567 24.216 98.9287 24.216C99.5167 24.216 99.9694 24.0807 100.287 23.81C100.604 23.5393 100.847 23.2173 101.015 22.844L101.967 23.306C101.827 23.5953 101.631 23.8847 101.379 24.174C101.136 24.4633 100.814 24.706 100.413 24.902C100.021 25.098 99.5167 25.196 98.9007 25.196ZM96.5487 20.954H101.001C100.963 20.3193 100.744 19.8247 100.343 19.47C99.9507 19.1153 99.4467 18.938 98.8307 18.938C98.2054 18.938 97.6921 19.1153 97.2907 19.47C96.8894 19.8247 96.6421 20.3193 96.5487 20.954ZM105.899 25L103.449 18.154H104.625L106.683 24.174H106.879L108.937 18.154H110.113L107.663 25H105.899ZM112.11 25V18.154H113.216V25H112.11ZM112.67 17.09C112.427 17.09 112.222 17.0107 112.054 16.852C111.895 16.6933 111.816 16.4927 111.816 16.25C111.816 15.998 111.895 15.7927 112.054 15.634C112.222 15.4753 112.427 15.396 112.67 15.396C112.912 15.396 113.113 15.4753 113.272 15.634C113.43 15.7927 113.51 15.998 113.51 16.25C113.51 16.4927 113.43 16.6933 113.272 16.852C113.113 17.0107 112.912 17.09 112.67 17.09ZM119.077 25.196C118.387 25.196 117.78 25.0513 117.257 24.762C116.735 24.4633 116.329 24.048 116.039 23.516C115.75 22.984 115.605 22.368 115.605 21.668V21.5C115.605 20.7907 115.75 20.17 116.039 19.638C116.329 19.106 116.73 18.6953 117.243 18.406C117.757 18.1073 118.345 17.958 119.007 17.958C119.651 17.958 120.221 18.098 120.715 18.378C121.21 18.6487 121.597 19.0407 121.877 19.554C122.157 20.0673 122.297 20.6693 122.297 21.36V21.864H116.711C116.739 22.6013 116.977 23.18 117.425 23.6C117.873 24.0107 118.433 24.216 119.105 24.216C119.693 24.216 120.146 24.0807 120.463 23.81C120.781 23.5393 121.023 23.2173 121.191 22.844L122.143 23.306C122.003 23.5953 121.807 23.8847 121.555 24.174C121.313 24.4633 120.991 24.706 120.589 24.902C120.197 25.098 119.693 25.196 119.077 25.196ZM116.725 20.954H121.177C121.14 20.3193 120.921 19.8247 120.519 19.47C120.127 19.1153 119.623 18.938 119.007 18.938C118.382 18.938 117.869 19.1153 117.467 19.47C117.066 19.8247 116.819 20.3193 116.725 20.954ZM125.442 25L124.07 18.154H125.19L126.324 24.258H126.52L128.018 18.154H129.852L131.35 24.258H131.546L132.68 18.154H133.8L132.428 25H130.538L129.026 18.896H128.844L127.332 25H125.442ZM143.61 25.196C142.444 25.196 141.51 24.86 140.81 24.188C140.12 23.5067 139.774 22.5173 139.774 21.22V18.98C139.774 17.6827 140.12 16.698 140.81 16.026C141.51 15.3447 142.444 15.004 143.61 15.004C144.786 15.004 145.72 15.3447 146.41 16.026C147.11 16.698 147.46 17.6827 147.46 18.98V21.22C147.46 22.5173 147.11 23.5067 146.41 24.188C145.72 24.86 144.786 25.196 143.61 25.196ZM143.61 24.146C144.46 24.146 145.118 23.894 145.584 23.39C146.051 22.8767 146.284 22.1673 146.284 21.262V18.938C146.284 18.0327 146.051 17.328 145.584 16.824C145.118 16.3107 144.46 16.054 143.61 16.054C142.77 16.054 142.117 16.3107 141.65 16.824C141.184 17.328 140.95 18.0327 140.95 18.938V21.262C140.95 22.1673 141.184 22.8767 141.65 23.39C142.117 23.894 142.77 24.146 143.61 24.146ZM151.206 25V19.12H149.106V18.154H151.206V16.404C151.206 16.0307 151.308 15.7367 151.514 15.522C151.728 15.3073 152.032 15.2 152.424 15.2H154.146V16.152H152.732C152.452 16.152 152.312 16.292 152.312 16.572V18.154H154.468V19.12H152.312V25H151.206ZM160.409 25V15.2H166.443V16.264H161.585V19.54H166.051V20.604H161.585V23.936H166.513V25H160.409ZM168.739 25V15.2H169.845V25H168.739ZM175.707 25.196C175.016 25.196 174.41 25.0513 173.887 24.762C173.364 24.4633 172.958 24.048 172.669 23.516C172.38 22.984 172.235 22.368 172.235 21.668V21.5C172.235 20.7907 172.38 20.17 172.669 19.638C172.958 19.106 173.36 18.6953 173.873 18.406C174.386 18.1073 174.974 17.958 175.637 17.958C176.281 17.958 176.85 18.098 177.345 18.378C177.84 18.6487 178.227 19.0407 178.507 19.554C178.787 20.0673 178.927 20.6693 178.927 21.36V21.864H173.341C173.369 22.6013 173.607 23.18 174.055 23.6C174.503 24.0107 175.063 24.216 175.735 24.216C176.323 24.216 176.776 24.0807 177.093 23.81C177.41 23.5393 177.653 23.2173 177.821 22.844L178.773 23.306C178.633 23.5953 178.437 23.8847 178.185 24.174C177.942 24.4633 177.62 24.706 177.219 24.902C176.827 25.098 176.323 25.196 175.707 25.196ZM173.355 20.954H177.807C177.77 20.3193 177.55 19.8247 177.149 19.47C176.757 19.1153 176.253 18.938 175.637 18.938C175.012 18.938 174.498 19.1153 174.097 19.47C173.696 19.8247 173.448 20.3193 173.355 20.954ZM181.256 25V18.154H182.334V19.008H182.53C182.661 18.7653 182.875 18.5413 183.174 18.336C183.473 18.1307 183.893 18.028 184.434 18.028C184.966 18.028 185.395 18.1447 185.722 18.378C186.058 18.6113 186.301 18.896 186.45 19.232H186.646C186.805 18.896 187.043 18.6113 187.36 18.378C187.687 18.1447 188.139 18.028 188.718 18.028C189.175 18.028 189.577 18.1213 189.922 18.308C190.267 18.4947 190.538 18.7653 190.734 19.12C190.939 19.4653 191.042 19.8807 191.042 20.366V25H189.936V20.464C189.936 20.0067 189.801 19.6473 189.53 19.386C189.269 19.1153 188.9 18.98 188.424 18.98C187.92 18.98 187.505 19.1433 187.178 19.47C186.861 19.7967 186.702 20.268 186.702 20.884V25H185.596V20.464C185.596 20.0067 185.461 19.6473 185.19 19.386C184.929 19.1153 184.56 18.98 184.084 18.98C183.58 18.98 183.165 19.1433 182.838 19.47C182.521 19.7967 182.362 20.268 182.362 20.884V25H181.256ZM196.837 25.196C196.146 25.196 195.54 25.0513 195.017 24.762C194.494 24.4633 194.088 24.048 193.799 23.516C193.51 22.984 193.365 22.368 193.365 21.668V21.5C193.365 20.7907 193.51 20.17 193.799 19.638C194.088 19.106 194.49 18.6953 195.003 18.406C195.516 18.1073 196.104 17.958 196.767 17.958C197.411 17.958 197.98 18.098 198.475 18.378C198.97 18.6487 199.357 19.0407 199.637 19.554C199.917 20.0673 200.057 20.6693 200.057 21.36V21.864H194.471C194.499 22.6013 194.737 23.18 195.185 23.6C195.633 24.0107 196.193 24.216 196.865 24.216C197.453 24.216 197.906 24.0807 198.223 23.81C198.54 23.5393 198.783 23.2173 198.951 22.844L199.903 23.306C199.763 23.5953 199.567 23.8847 199.315 24.174C199.072 24.4633 198.75 24.706 198.349 24.902C197.957 25.098 197.453 25.196 196.837 25.196ZM194.485 20.954H198.937C198.9 20.3193 198.68 19.8247 198.279 19.47C197.887 19.1153 197.383 18.938 196.767 18.938C196.142 18.938 195.628 19.1153 195.227 19.47C194.826 19.8247 194.578 20.3193 194.485 20.954ZM202.386 25V18.154H203.464V19.316H203.66C203.81 18.9893 204.062 18.6953 204.416 18.434C204.78 18.1633 205.312 18.028 206.012 18.028C206.526 18.028 206.983 18.1353 207.384 18.35C207.795 18.5647 208.122 18.882 208.364 19.302C208.607 19.722 208.728 20.24 208.728 20.856V25H207.622V20.94C207.622 20.2587 207.45 19.764 207.104 19.456C206.768 19.148 206.311 18.994 205.732 18.994C205.07 18.994 204.528 19.2087 204.108 19.638C203.698 20.0673 203.492 20.7067 203.492 21.556V25H202.386ZM213.701 25C213.309 25 213.005 24.8927 212.791 24.678C212.585 24.4633 212.483 24.1693 212.483 23.796V19.12H210.425V18.154H212.483V15.718H213.589V18.154H215.829V19.12H213.589V23.628C213.589 23.908 213.724 24.048 213.995 24.048H215.521V25H213.701ZM220.778 25.196C219.929 25.196 219.21 25 218.622 24.608C218.044 24.216 217.694 23.5953 217.572 22.746L218.622 22.508C218.697 22.956 218.837 23.3107 219.042 23.572C219.248 23.824 219.5 24.006 219.798 24.118C220.106 24.2207 220.433 24.272 220.778 24.272C221.292 24.272 221.698 24.1693 221.996 23.964C222.295 23.7587 222.444 23.4833 222.444 23.138C222.444 22.7833 222.3 22.536 222.01 22.396C221.73 22.2467 221.343 22.1253 220.848 22.032L220.274 21.934C219.836 21.8593 219.434 21.7427 219.07 21.584C218.706 21.4253 218.417 21.2107 218.202 20.94C217.988 20.6693 217.88 20.3287 217.88 19.918C217.88 19.302 218.118 18.8213 218.594 18.476C219.07 18.1307 219.7 17.958 220.484 17.958C221.259 17.958 221.884 18.1353 222.36 18.49C222.846 18.8353 223.158 19.3253 223.298 19.96L222.262 20.226C222.178 19.7313 221.978 19.386 221.66 19.19C221.343 18.9847 220.951 18.882 220.484 18.882C220.018 18.882 219.649 18.9707 219.378 19.148C219.108 19.316 218.972 19.568 218.972 19.904C218.972 20.2307 219.098 20.4733 219.35 20.632C219.612 20.7813 219.957 20.8933 220.386 20.968L220.96 21.066C221.446 21.15 221.88 21.2667 222.262 21.416C222.654 21.556 222.962 21.7613 223.186 22.032C223.42 22.3027 223.536 22.6573 223.536 23.096C223.536 23.768 223.284 24.286 222.78 24.65C222.286 25.014 221.618 25.196 220.778 25.196ZM225.691 26.75V26.05H226.097C226.433 26.05 226.601 25.882 226.601 25.546V25.098H226.405C226.134 25.098 225.906 25.014 225.719 24.846C225.542 24.678 225.453 24.468 225.453 24.216C225.453 23.9453 225.542 23.726 225.719 23.558C225.906 23.39 226.134 23.306 226.405 23.306C226.676 23.306 226.9 23.3947 227.077 23.572C227.254 23.7493 227.343 23.9733 227.343 24.244V25.546C227.343 26.3487 226.942 26.75 226.139 26.75H225.691ZM235.768 25.196C234.806 25.196 234.046 24.9253 233.486 24.384C232.935 23.8427 232.66 23.068 232.66 22.06V21.304H233.822V22.06C233.822 22.6667 233.98 23.1613 234.298 23.544C234.624 23.9267 235.11 24.118 235.754 24.118C236.407 24.118 236.869 23.9313 237.14 23.558C237.41 23.1753 237.546 22.676 237.546 22.06V16.264H235.824V15.2H239.786V16.264H238.722V22.06C238.722 23.0773 238.47 23.8567 237.966 24.398C237.462 24.93 236.729 25.196 235.768 25.196ZM244.741 25.196C244.051 25.196 243.439 25.0513 242.907 24.762C242.385 24.4727 241.974 24.0667 241.675 23.544C241.386 23.012 241.241 22.3867 241.241 21.668V21.486C241.241 20.7767 241.386 20.156 241.675 19.624C241.974 19.092 242.385 18.6813 242.907 18.392C243.439 18.1027 244.051 17.958 244.741 17.958C245.432 17.958 246.039 18.1027 246.561 18.392C247.093 18.6813 247.504 19.092 247.793 19.624C248.092 20.156 248.241 20.7767 248.241 21.486V21.668C248.241 22.3867 248.092 23.012 247.793 23.544C247.504 24.0667 247.093 24.4727 246.561 24.762C246.039 25.0513 245.432 25.196 244.741 25.196ZM244.741 24.202C245.469 24.202 246.048 23.9733 246.477 23.516C246.916 23.0493 247.135 22.424 247.135 21.64V21.514C247.135 20.73 246.916 20.1093 246.477 19.652C246.048 19.1853 245.469 18.952 244.741 18.952C244.023 18.952 243.444 19.1853 243.005 19.652C242.567 20.1093 242.347 20.73 242.347 21.514V21.64C242.347 22.424 242.567 23.0493 243.005 23.516C243.444 23.9733 244.023 24.202 244.741 24.202ZM253.25 25.126C252.755 25.126 252.298 25.0187 251.878 24.804C251.467 24.5893 251.14 24.272 250.898 23.852C250.664 23.4227 250.548 22.9047 250.548 22.298V18.154H251.654V22.214C251.654 22.8953 251.822 23.39 252.158 23.698C252.503 24.006 252.965 24.16 253.544 24.16C254.197 24.16 254.734 23.9453 255.154 23.516C255.574 23.0867 255.784 22.4473 255.784 21.598V18.154H256.89V25H255.812V23.838H255.616C255.466 24.1647 255.21 24.4633 254.846 24.734C254.482 24.9953 253.95 25.126 253.25 25.126ZM259.604 25V18.154H260.682V18.994H260.878C260.999 18.6953 261.186 18.476 261.438 18.336C261.69 18.196 262.021 18.126 262.432 18.126H263.244V19.134H262.362C261.867 19.134 261.466 19.274 261.158 19.554C260.859 19.8247 260.71 20.2493 260.71 20.828V25H259.604ZM265.281 25V18.154H266.359V19.316H266.555C266.704 18.9893 266.956 18.6953 267.311 18.434C267.675 18.1633 268.207 18.028 268.907 18.028C269.42 18.028 269.878 18.1353 270.279 18.35C270.69 18.5647 271.016 18.882 271.259 19.302C271.502 19.722 271.623 20.24 271.623 20.856V25H270.517V20.94C270.517 20.2587 270.344 19.764 269.999 19.456C269.663 19.148 269.206 18.994 268.627 18.994C267.964 18.994 267.423 19.2087 267.003 19.638C266.592 20.0673 266.387 20.7067 266.387 21.556V25H265.281ZM277.403 25.196C276.712 25.196 276.106 25.0513 275.583 24.762C275.06 24.4633 274.654 24.048 274.365 23.516C274.076 22.984 273.931 22.368 273.931 21.668V21.5C273.931 20.7907 274.076 20.17 274.365 19.638C274.654 19.106 275.056 18.6953 275.569 18.406C276.082 18.1073 276.67 17.958 277.333 17.958C277.977 17.958 278.546 18.098 279.041 18.378C279.536 18.6487 279.923 19.0407 280.203 19.554C280.483 20.0673 280.623 20.6693 280.623 21.36V21.864H275.037C275.065 22.6013 275.303 23.18 275.751 23.6C276.199 24.0107 276.759 24.216 277.431 24.216C278.019 24.216 278.472 24.0807 278.789 23.81C279.106 23.5393 279.349 23.2173 279.517 22.844L280.469 23.306C280.329 23.5953 280.133 23.8847 279.881 24.174C279.638 24.4633 279.316 24.706 278.915 24.902C278.523 25.098 278.019 25.196 277.403 25.196ZM275.051 20.954H279.503C279.466 20.3193 279.246 19.8247 278.845 19.47C278.453 19.1153 277.949 18.938 277.333 18.938C276.708 18.938 276.194 19.1153 275.793 19.47C275.392 19.8247 275.144 20.3193 275.051 20.954ZM283.778 27.8V26.82H287.698C287.969 26.82 288.104 26.68 288.104 26.4V23.908H287.908C287.815 24.104 287.67 24.3 287.474 24.496C287.288 24.6827 287.04 24.8367 286.732 24.958C286.424 25.07 286.037 25.126 285.57 25.126C285.076 25.126 284.618 25.0187 284.198 24.804C283.788 24.5893 283.461 24.272 283.218 23.852C282.985 23.432 282.868 22.9187 282.868 22.312V18.154H283.974V22.228C283.974 22.9 284.142 23.39 284.478 23.698C284.824 24.006 285.286 24.16 285.864 24.16C286.518 24.16 287.054 23.9453 287.474 23.516C287.894 23.0867 288.104 22.4473 288.104 21.598V18.154H289.21V26.596C289.21 26.9693 289.103 27.2633 288.888 27.478C288.683 27.6927 288.38 27.8 287.978 27.8H283.778ZM299.127 25.196C298.417 25.196 297.783 25.07 297.223 24.818C296.663 24.566 296.219 24.188 295.893 23.684C295.575 23.1707 295.417 22.5313 295.417 21.766V21.472H296.579V21.766C296.579 22.578 296.817 23.1847 297.293 23.586C297.769 23.978 298.38 24.174 299.127 24.174C299.892 24.174 300.475 24.0013 300.877 23.656C301.278 23.3107 301.479 22.8767 301.479 22.354C301.479 21.99 301.385 21.7007 301.199 21.486C301.021 21.2713 300.769 21.0987 300.443 20.968C300.116 20.828 299.733 20.7067 299.295 20.604L298.567 20.422C297.997 20.2727 297.493 20.0907 297.055 19.876C296.616 19.6613 296.271 19.3813 296.019 19.036C295.776 18.6813 295.655 18.2287 295.655 17.678C295.655 17.1273 295.79 16.6513 296.061 16.25C296.341 15.8487 296.728 15.5407 297.223 15.326C297.727 15.1113 298.305 15.004 298.959 15.004C299.621 15.004 300.214 15.1207 300.737 15.354C301.269 15.578 301.684 15.914 301.983 16.362C302.291 16.8007 302.445 17.356 302.445 18.028V18.616H301.283V18.028C301.283 17.552 301.18 17.1693 300.975 16.88C300.779 16.5907 300.503 16.376 300.149 16.236C299.803 16.096 299.407 16.026 298.959 16.026C298.315 16.026 297.797 16.1707 297.405 16.46C297.013 16.74 296.817 17.1413 296.817 17.664C296.817 18.0093 296.901 18.2893 297.069 18.504C297.237 18.7187 297.475 18.896 297.783 19.036C298.091 19.1667 298.459 19.2833 298.889 19.386L299.617 19.568C300.186 19.6893 300.695 19.8573 301.143 20.072C301.6 20.2773 301.964 20.562 302.235 20.926C302.505 21.2807 302.641 21.7473 302.641 22.326C302.641 22.9047 302.496 23.4087 302.207 23.838C301.917 24.2673 301.507 24.6033 300.975 24.846C300.452 25.0793 299.836 25.196 299.127 25.196ZM307.51 25.126C307.016 25.126 306.558 25.0187 306.138 24.804C305.728 24.5893 305.401 24.272 305.158 23.852C304.925 23.4227 304.808 22.9047 304.808 22.298V18.154H305.914V22.214C305.914 22.8953 306.082 23.39 306.418 23.698C306.764 24.006 307.226 24.16 307.804 24.16C308.458 24.16 308.994 23.9453 309.414 23.516C309.834 23.0867 310.044 22.4473 310.044 21.598V18.154H311.15V25H310.072V23.838H309.876C309.727 24.1647 309.47 24.4633 309.106 24.734C308.742 24.9953 308.21 25.126 307.51 25.126ZM313.865 25V18.154H314.943V19.008H315.139C315.269 18.7653 315.484 18.5413 315.783 18.336C316.081 18.1307 316.501 18.028 317.043 18.028C317.575 18.028 318.004 18.1447 318.331 18.378C318.667 18.6113 318.909 18.896 319.059 19.232H319.255C319.413 18.896 319.651 18.6113 319.969 18.378C320.295 18.1447 320.748 18.028 321.327 18.028C321.784 18.028 322.185 18.1213 322.531 18.308C322.876 18.4947 323.147 18.7653 323.343 19.12C323.548 19.4653 323.651 19.8807 323.651 20.366V25H322.545V20.464C322.545 20.0067 322.409 19.6473 322.139 19.386C321.877 19.1153 321.509 18.98 321.033 18.98C320.529 18.98 320.113 19.1433 319.787 19.47C319.469 19.7967 319.311 20.268 319.311 20.884V25H318.205V20.464C318.205 20.0067 318.069 19.6473 317.799 19.386C317.537 19.1153 317.169 18.98 316.693 18.98C316.189 18.98 315.773 19.1433 315.447 19.47C315.129 19.7967 314.971 20.268 314.971 20.884V25H313.865ZM326.31 25V18.154H327.388V19.008H327.584C327.714 18.7653 327.929 18.5413 328.228 18.336C328.526 18.1307 328.946 18.028 329.488 18.028C330.02 18.028 330.449 18.1447 330.776 18.378C331.112 18.6113 331.354 18.896 331.504 19.232H331.7C331.858 18.896 332.096 18.6113 332.414 18.378C332.74 18.1447 333.193 18.028 333.772 18.028C334.229 18.028 334.63 18.1213 334.976 18.308C335.321 18.4947 335.592 18.7653 335.788 19.12C335.993 19.4653 336.096 19.8807 336.096 20.366V25H334.99V20.464C334.99 20.0067 334.854 19.6473 334.584 19.386C334.322 19.1153 333.954 18.98 333.478 18.98C332.974 18.98 332.558 19.1433 332.232 19.47C331.914 19.7967 331.756 20.268 331.756 20.884V25H330.65V20.464C330.65 20.0067 330.514 19.6473 330.244 19.386C329.982 19.1153 329.614 18.98 329.138 18.98C328.634 18.98 328.218 19.1433 327.892 19.47C327.574 19.7967 327.416 20.268 327.416 20.884V25H326.31ZM340.855 25.196C340.379 25.196 339.945 25.112 339.553 24.944C339.161 24.776 338.853 24.5333 338.629 24.216C338.405 23.8987 338.293 23.5113 338.293 23.054C338.293 22.5873 338.405 22.2047 338.629 21.906C338.853 21.598 339.161 21.3693 339.553 21.22C339.945 21.0613 340.383 20.982 340.869 20.982H343.179V20.478C343.179 19.9927 343.034 19.61 342.745 19.33C342.465 19.05 342.045 18.91 341.485 18.91C340.934 18.91 340.505 19.0453 340.197 19.316C339.889 19.5773 339.679 19.932 339.567 20.38L338.531 20.044C338.643 19.6613 338.82 19.316 339.063 19.008C339.305 18.6907 339.627 18.4387 340.029 18.252C340.439 18.056 340.929 17.958 341.499 17.958C342.376 17.958 343.057 18.1867 343.543 18.644C344.028 19.092 344.271 19.7267 344.271 20.548V23.642C344.271 23.922 344.401 24.062 344.663 24.062H345.293V25H344.327C344.019 25 343.771 24.916 343.585 24.748C343.398 24.5707 343.305 24.3373 343.305 24.048V23.978H343.137C343.034 24.1553 342.894 24.342 342.717 24.538C342.549 24.7247 342.315 24.8787 342.017 25C341.718 25.1307 341.331 25.196 340.855 25.196ZM340.981 24.244C341.634 24.244 342.161 24.0527 342.563 23.67C342.973 23.278 343.179 22.732 343.179 22.032V21.878H340.911C340.472 21.878 340.108 21.976 339.819 22.172C339.539 22.3587 339.399 22.6433 339.399 23.026C339.399 23.4087 339.543 23.7073 339.833 23.922C340.131 24.1367 340.514 24.244 340.981 24.244ZM347.207 25V18.154H348.285V18.994H348.481C348.603 18.6953 348.789 18.476 349.041 18.336C349.293 18.196 349.625 18.126 350.035 18.126H350.847V19.134H349.965C349.471 19.134 349.069 19.274 348.761 19.554C348.463 19.8247 348.313 20.2493 348.313 20.828V25H347.207ZM353.711 27.8V26.82H357.631C357.901 26.82 358.037 26.68 358.037 26.4V23.908H357.841C357.747 24.104 357.603 24.3 357.407 24.496C357.22 24.6827 356.973 24.8367 356.665 24.958C356.357 25.07 355.969 25.126 355.503 25.126C355.008 25.126 354.551 25.0187 354.131 24.804C353.72 24.5893 353.393 24.272 353.151 23.852C352.917 23.432 352.801 22.9187 352.801 22.312V18.154H353.907V22.228C353.907 22.9 354.075 23.39 354.411 23.698C354.756 24.006 355.218 24.16 355.797 24.16C356.45 24.16 356.987 23.9453 357.407 23.516C357.827 23.0867 358.037 22.4473 358.037 21.598V18.154H359.143V26.596C359.143 26.9693 359.035 27.2633 358.821 27.478C358.615 27.6927 358.312 27.8 357.911 27.8H353.711Z" fill="white"/>
<path d="M110.225 86.0404H110.202L110.225 86.0635C110.086 86.233 109.948 86.364 109.809 86.4565C109.686 86.549 109.562 86.6261 109.439 86.6877C109.3 86.7494 109.177 86.7956 109.069 86.8264C108.977 86.8418 108.884 86.8495 108.792 86.8495C108.699 86.8495 108.591 86.8418 108.468 86.8264C108.36 86.8264 108.244 86.811 108.121 86.7802C107.828 85.8554 107.574 84.8921 107.358 83.8903C107.142 82.873 106.957 81.9405 106.803 81.0928C106.634 80.1064 106.487 79.1277 106.364 78.1567C106.241 77.2165 106.141 76.2763 106.063 75.3361C106.033 74.9354 105.994 74.5192 105.948 74.0877C105.917 73.6561 105.886 73.2245 105.855 72.793C105.84 72.346 105.825 71.9145 105.809 71.4983C105.809 71.0667 105.817 70.666 105.832 70.2961C106.141 70.0803 106.449 69.9185 106.757 69.8106C107.081 69.7027 107.366 69.6179 107.612 69.5563C107.89 69.4946 108.16 69.4561 108.422 69.4407C108.314 69.564 108.229 69.7721 108.167 70.0649C108.121 70.3423 108.098 70.7431 108.098 71.2671C108.098 71.7911 108.121 72.4616 108.167 73.2785C108.214 74.0954 108.291 75.0895 108.399 76.2609C108.445 76.677 108.491 77.1317 108.537 77.6249C108.599 78.1181 108.661 78.6345 108.722 79.1739C108.784 79.698 108.846 80.2297 108.907 80.7692C108.984 81.2932 109.054 81.7941 109.115 82.2719C109.254 81.4396 109.424 80.4686 109.624 79.3589C109.84 78.2492 110.102 77.1009 110.41 75.9141C110.626 75.051 110.826 74.2495 111.011 73.5097C111.181 72.8623 111.342 72.2381 111.497 71.637C111.666 71.0205 111.797 70.5658 111.89 70.273C112.182 70.1497 112.437 70.0649 112.653 70.0187C112.776 69.9878 112.884 69.9647 112.976 69.9493H113.3C113.408 69.9493 113.523 69.957 113.647 69.9724C113.77 69.9878 113.901 70.0187 114.04 70.0649C114.163 71.375 114.294 72.6234 114.433 73.8102C114.571 74.9816 114.702 76.0297 114.826 76.9545C114.98 78.0334 115.126 79.0275 115.265 79.9369C115.342 80.5534 115.427 81.116 115.519 81.6246C115.627 82.1332 115.72 82.6033 115.797 83.0349C115.874 82.6187 115.974 82.1101 116.097 81.509C116.236 80.8925 116.359 80.1449 116.467 79.2664C116.621 78.3262 116.76 77.3552 116.883 76.3534C116.991 75.4902 117.091 74.5346 117.184 73.4866C117.292 72.4231 117.377 71.3596 117.438 70.2961C117.562 70.1882 117.685 70.0957 117.808 70.0187C117.947 69.9416 118.078 69.8722 118.201 69.8106C118.34 69.7489 118.479 69.695 118.617 69.6488C118.756 69.6025 118.902 69.564 119.057 69.5332C119.18 69.5023 119.319 69.4792 119.473 69.4638C119.627 69.4484 119.766 69.4484 119.889 69.4638C119.812 70.2807 119.704 71.1823 119.565 72.1688C119.426 73.1398 119.288 74.0491 119.149 74.8968C118.979 75.8987 118.81 76.8928 118.64 77.8792C118.455 78.8657 118.247 79.8675 118.016 80.8848C117.816 81.7633 117.585 82.7112 117.323 83.7284C117.076 84.7303 116.806 85.6782 116.513 86.5721C116.421 86.6646 116.313 86.7262 116.19 86.7571C116.066 86.8033 115.943 86.8418 115.82 86.8727C115.681 86.9035 115.55 86.9189 115.427 86.9189C115.18 86.9189 114.988 86.8881 114.849 86.8264C114.71 86.7802 114.602 86.7031 114.525 86.5952C114.464 86.5028 114.417 86.3872 114.386 86.2484C114.356 86.1097 114.325 85.9556 114.294 85.7861L112.653 74.1108L110.225 86.0404ZM126.784 81.0235C126.753 81.6246 126.645 82.1794 126.46 82.6881C126.291 83.1967 126.052 83.6437 125.744 84.029C125.435 84.3989 125.065 84.6917 124.634 84.9075C124.218 85.1233 123.755 85.2389 123.247 85.2543C122.8 85.2697 122.376 85.1618 121.975 84.9306C121.59 84.6994 121.251 84.3758 120.958 83.9596C120.665 83.5435 120.442 83.0503 120.287 82.48C120.149 81.8943 120.11 81.2624 120.172 80.5842C120.218 79.7981 120.364 79.1277 120.611 78.5728C120.858 78.0025 121.12 77.5325 121.397 77.1625C121.675 76.7926 121.929 76.5229 122.16 76.3534C122.407 76.1684 122.561 76.0605 122.622 76.0297C122.73 75.9835 122.831 75.9757 122.923 76.0066C123.016 76.022 123.116 76.0451 123.224 76.0759C123.254 76.0913 123.285 76.1299 123.316 76.1915C123.378 76.2994 123.416 76.4998 123.432 76.7926C123.509 76.6231 123.609 76.4844 123.732 76.3765C123.856 76.2686 123.979 76.1915 124.102 76.1453C124.256 76.0836 124.41 76.0451 124.565 76.0297C124.672 76.0143 124.857 76.0991 125.119 76.284C125.397 76.469 125.659 76.7618 125.905 77.1625C126.167 77.5633 126.391 78.0873 126.576 78.7347C126.761 79.3666 126.83 80.1295 126.784 81.0235ZM125.212 80.746C125.227 80.3761 125.212 80.0062 125.166 79.6363C125.135 79.251 125.073 78.9042 124.981 78.5959C124.904 78.2723 124.803 78.018 124.68 77.833C124.557 77.6326 124.434 77.5325 124.31 77.5325C124.171 77.5633 124.017 77.6326 123.848 77.7405C123.709 77.833 123.555 77.9794 123.385 78.1798C123.216 78.3802 123.054 78.6653 122.9 79.0352C122.885 78.989 122.869 78.9042 122.854 78.7809C122.838 78.673 122.823 78.5343 122.807 78.3647C122.807 78.1798 122.823 77.9332 122.854 77.6249C122.638 77.8869 122.468 78.1952 122.345 78.5497C122.237 78.9042 122.152 79.2433 122.091 79.567C122.029 79.9523 121.983 80.3376 121.952 80.7229C121.937 81.1391 121.952 81.5475 121.998 81.9482C122.06 82.349 122.152 82.7035 122.276 83.0117C122.414 83.32 122.576 83.5666 122.761 83.7516C122.946 83.9365 123.17 84.0213 123.432 84.0059C123.694 83.9905 123.925 83.8826 124.125 83.6822C124.326 83.4818 124.503 83.2275 124.657 82.9193C124.811 82.611 124.934 82.2642 125.027 81.8789C125.119 81.4936 125.181 81.116 125.212 80.746ZM134.534 77.9024C134.534 78.1181 134.473 78.3416 134.35 78.5728C134.242 78.7886 134.103 78.9967 133.933 79.197C133.764 79.3974 133.571 79.5747 133.355 79.7288C133.155 79.8675 132.962 79.9523 132.777 79.9831C132.901 79.5053 132.939 79.1354 132.893 78.8734C132.847 78.6114 132.77 78.4187 132.662 78.2954C132.539 78.1567 132.384 78.0796 132.199 78.0642C131.922 78.0642 131.652 78.226 131.39 78.5497C131.144 78.858 130.928 79.2433 130.743 79.7057C130.558 80.1526 130.412 80.6382 130.304 81.1622C130.196 81.6708 130.142 82.1332 130.142 82.5493C130.126 82.8422 130.134 83.1273 130.165 83.4048C130.18 83.636 130.203 83.8749 130.234 84.1215C130.281 84.3681 130.342 84.5607 130.419 84.6994C130.327 84.7765 130.173 84.869 129.957 84.9769C129.757 85.0848 129.541 85.1541 129.31 85.185C129.094 85.2158 128.893 85.1772 128.708 85.0694C128.539 84.9615 128.446 84.7303 128.431 84.3758C128.4 84.0367 128.377 83.6591 128.362 83.2429C128.362 82.8114 128.362 82.3875 128.362 81.9714C128.377 81.5398 128.392 81.116 128.408 80.6998C128.423 80.2837 128.446 79.8983 128.477 79.5438C128.508 78.8657 128.523 78.3416 128.523 77.9717C128.523 77.6018 128.516 77.2473 128.5 76.9082C128.5 76.8466 128.601 76.7618 128.801 76.6539C129.017 76.5306 129.248 76.4227 129.494 76.3302C129.757 76.2378 129.995 76.1838 130.211 76.1684C130.427 76.153 130.535 76.1992 130.535 76.3071C130.535 76.4767 130.512 76.8158 130.465 77.3244C130.435 77.8176 130.388 78.3339 130.327 78.8734C130.435 78.5805 130.573 78.2646 130.743 77.9255C130.928 77.5864 131.136 77.2704 131.367 76.9776C131.598 76.6847 131.86 76.4458 132.153 76.2609C132.446 76.0605 132.77 75.9603 133.124 75.9603C133.402 75.9603 133.625 76.0451 133.795 76.2146C133.98 76.3842 134.126 76.5769 134.234 76.7926C134.342 77.0084 134.419 77.2242 134.465 77.44C134.511 77.6558 134.534 77.8099 134.534 77.9024ZM140.181 79.4745C140.505 79.6132 140.813 79.8367 141.106 80.1449C141.399 80.4378 141.584 80.8848 141.661 81.4859C141.722 82.0099 141.807 82.48 141.915 82.8961C142.023 83.3123 142.177 83.6899 142.378 84.029C142.578 84.3527 142.84 84.6455 143.164 84.9075C143.503 85.1541 143.934 85.3699 144.458 85.5549C144.32 85.6782 144.15 85.7784 143.95 85.8554C143.765 85.9325 143.587 85.9864 143.418 86.0173C143.218 86.0789 143.009 86.1097 142.794 86.1097C142.285 86.156 141.869 86.0866 141.545 85.9017C141.222 85.7321 140.967 85.4778 140.782 85.1387C140.597 84.7996 140.459 84.4066 140.366 83.9596C140.274 83.5127 140.204 83.0503 140.158 82.5725C140.143 82.3721 140.12 82.164 140.089 81.9482C140.058 81.7325 140.004 81.5244 139.927 81.324C139.85 81.1237 139.742 80.9387 139.603 80.7692C139.48 80.5996 139.318 80.4686 139.118 80.3761C138.779 80.6382 138.463 80.8693 138.17 81.0697C137.892 81.2547 137.646 81.4088 137.43 81.5321C137.445 82.3644 137.484 83.0503 137.546 83.5897C137.623 84.1292 137.723 84.4914 137.846 84.6763C137.738 84.7534 137.63 84.8228 137.522 84.8844C137.415 84.9306 137.322 84.9692 137.245 85C137.137 85.0462 137.037 85.0771 136.944 85.0925C136.636 85.185 136.359 85.1695 136.112 85.0462C135.881 84.9383 135.758 84.6378 135.742 84.1446L135.604 70.6429C135.604 70.5196 135.719 70.3963 135.95 70.273C136.197 70.1343 136.467 70.0264 136.76 69.9493C137.052 69.8722 137.314 69.8337 137.546 69.8337C137.792 69.8337 137.908 69.9031 137.892 70.0418C137.846 71.1053 137.8 72.1071 137.754 73.0473C137.707 73.9875 137.669 74.8198 137.638 75.5442C137.592 76.3919 137.553 77.1625 137.522 77.8561C137.492 78.2723 137.468 78.673 137.453 79.0583C137.453 79.4437 137.445 79.8136 137.43 80.1681C137.723 79.9369 138.031 79.6826 138.355 79.4051C138.678 79.1277 138.987 78.8194 139.28 78.4803C139.572 78.1413 139.819 77.7791 140.019 77.3937C140.22 76.993 140.335 76.5691 140.366 76.1222C140.536 75.9989 140.705 75.8987 140.875 75.8216C141.06 75.7291 141.222 75.6598 141.36 75.6135C141.53 75.5519 141.684 75.5211 141.823 75.5211C142.177 75.5057 142.385 75.5827 142.447 75.7523C142.493 75.8756 142.485 76.0605 142.424 76.3071C142.378 76.5383 142.262 76.8235 142.077 77.1625C141.907 77.4862 141.669 77.8484 141.36 78.2492C141.052 78.6345 140.659 79.0429 140.181 79.4745ZM148.487 69.9724C148.934 70.0033 149.334 70.1111 149.689 70.2961C149.997 70.4656 150.274 70.7354 150.521 71.1053C150.768 71.4598 150.899 71.9684 150.914 72.6312C150.683 72.8007 150.452 72.924 150.221 73.0011C149.989 73.0781 149.781 73.1321 149.596 73.1629C149.381 73.1937 149.172 73.1937 148.972 73.1629C149.034 72.7313 149.034 72.4 148.972 72.1688C148.926 71.9376 148.856 71.768 148.764 71.6601C148.656 71.5368 148.517 71.4675 148.348 71.4521C147.839 71.4521 147.462 71.8374 147.215 72.608C146.984 73.3633 146.845 74.4036 146.799 75.7291C147.015 75.6983 147.207 75.6598 147.377 75.6135C147.546 75.5673 147.739 75.5365 147.955 75.5211C148.155 75.5057 148.348 75.4979 148.533 75.4979C148.702 75.4979 148.872 75.5134 149.041 75.5442C149.226 75.575 149.396 75.629 149.55 75.706C149.581 75.968 149.581 76.2069 149.55 76.4227C149.519 76.6385 149.473 76.8312 149.411 77.0007C149.35 77.1857 149.265 77.3629 149.157 77.5325C148.972 77.44 148.741 77.3783 148.463 77.3475C148.201 77.3167 147.947 77.3013 147.701 77.3013C147.408 77.3013 147.107 77.3167 146.799 77.3475C146.814 78.0565 146.83 78.727 146.845 79.3589C146.861 79.9754 146.876 80.5842 146.891 81.1853C146.922 81.771 146.953 82.3644 146.984 82.9655C147.015 83.5512 147.045 84.1523 147.076 84.7688C146.907 84.9846 146.722 85.1156 146.521 85.1618C146.336 85.2235 146.159 85.2466 145.99 85.2312C145.789 85.2158 145.589 85.1618 145.389 85.0694C145.265 84.0521 145.165 83.0965 145.088 82.2026C145.026 81.2932 144.972 80.4994 144.926 79.8213C144.865 79.0352 144.818 78.3108 144.787 77.648C144.525 77.6789 144.302 77.702 144.117 77.7174C143.947 77.7174 143.816 77.7097 143.724 77.6943C143.662 77.6943 143.631 77.648 143.631 77.5556L143.608 76.469C143.608 76.4073 143.639 76.3765 143.701 76.3765C143.809 76.3457 143.947 76.3148 144.117 76.284C144.302 76.2378 144.518 76.1838 144.764 76.1222C144.826 74.1647 145.157 72.6543 145.758 71.5908C146.36 70.5119 147.269 69.9724 148.487 69.9724ZM153.232 70.0187C153.201 70.5735 153.147 71.2132 153.07 71.9376C152.993 72.662 152.908 73.4403 152.815 74.2726C152.738 75.1049 152.654 75.9757 152.561 76.8851C152.484 77.7945 152.415 78.7115 152.353 79.6363C152.291 80.5611 152.261 81.3163 152.261 81.902C152.276 82.4723 152.315 82.9424 152.376 83.3123C152.438 83.6822 152.523 83.975 152.63 84.1908C152.738 84.4066 152.877 84.6147 153.047 84.815C152.846 84.9383 152.661 85.0308 152.492 85.0925C152.322 85.1541 152.176 85.2004 152.052 85.2312C151.898 85.2774 151.76 85.3006 151.636 85.3006C151.405 85.3006 151.205 85.1927 151.035 84.9769C150.866 84.7457 150.727 84.4528 150.619 84.0983C150.527 83.7438 150.45 83.3508 150.388 82.9193C150.342 82.4723 150.319 82.033 150.319 81.6015C150.319 81.1391 150.334 80.6073 150.365 80.0062C150.396 79.3897 150.426 78.7424 150.457 78.0642C150.503 77.3706 150.55 76.6539 150.596 75.9141C150.642 75.1589 150.681 74.4113 150.712 73.6715C150.742 73.1012 150.773 72.5849 150.804 72.1225C150.835 71.7218 150.858 71.3596 150.873 71.0359C150.889 70.6968 150.881 70.4965 150.85 70.4348C150.943 70.3115 151.058 70.219 151.197 70.1574C151.336 70.0957 151.467 70.0418 151.59 69.9955C151.744 69.9493 151.898 69.9108 152.052 69.8799H152.492C152.615 69.8799 152.746 69.8954 152.885 69.9262C153.023 69.9416 153.139 69.9724 153.232 70.0187ZM160.936 81.0235C160.905 81.6246 160.797 82.1794 160.612 82.6881C160.443 83.1967 160.204 83.6437 159.895 84.029C159.587 84.3989 159.217 84.6917 158.786 84.9075C158.37 85.1233 157.907 85.2389 157.399 85.2543C156.952 85.2697 156.528 85.1618 156.127 84.9306C155.742 84.6994 155.403 84.3758 155.11 83.9596C154.817 83.5435 154.593 83.0503 154.439 82.48C154.301 81.8943 154.262 81.2624 154.324 80.5842C154.37 79.7981 154.516 79.1277 154.763 78.5728C155.01 78.0025 155.272 77.5325 155.549 77.1625C155.826 76.7926 156.081 76.5229 156.312 76.3534C156.559 76.1684 156.713 76.0605 156.774 76.0297C156.882 75.9835 156.982 75.9757 157.075 76.0066C157.167 76.022 157.268 76.0451 157.375 76.0759C157.406 76.0913 157.437 76.1299 157.468 76.1915C157.53 76.2994 157.568 76.4998 157.584 76.7926C157.661 76.6231 157.761 76.4844 157.884 76.3765C158.007 76.2686 158.131 76.1915 158.254 76.1453C158.408 76.0836 158.562 76.0451 158.716 76.0297C158.824 76.0143 159.009 76.0991 159.271 76.284C159.549 76.469 159.811 76.7618 160.057 77.1625C160.319 77.5633 160.543 78.0873 160.728 78.7347C160.913 79.3666 160.982 80.1295 160.936 81.0235ZM159.364 80.746C159.379 80.3761 159.364 80.0062 159.318 79.6363C159.287 79.251 159.225 78.9042 159.133 78.5959C159.055 78.2723 158.955 78.018 158.832 77.833C158.709 77.6326 158.585 77.5325 158.462 77.5325C158.323 77.5633 158.169 77.6326 158 77.7405C157.861 77.833 157.707 77.9794 157.537 78.1798C157.368 78.3802 157.206 78.6653 157.052 79.0352C157.036 78.989 157.021 78.9042 157.006 78.7809C156.99 78.673 156.975 78.5343 156.959 78.3647C156.959 78.1798 156.975 77.9332 157.006 77.6249C156.79 77.8869 156.62 78.1952 156.497 78.5497C156.389 78.9042 156.304 79.2433 156.243 79.567C156.181 79.9523 156.135 80.3376 156.104 80.7229C156.089 81.1391 156.104 81.5475 156.15 81.9482C156.212 82.349 156.304 82.7035 156.428 83.0117C156.566 83.32 156.728 83.5666 156.913 83.7516C157.098 83.9365 157.322 84.0213 157.584 84.0059C157.846 83.9905 158.077 83.8826 158.277 83.6822C158.478 83.4818 158.655 83.2275 158.809 82.9193C158.963 82.611 159.086 82.2642 159.179 81.8789C159.271 81.4936 159.333 81.116 159.364 80.746ZM172.64 75.8679C173.38 75.8679 173.672 76.338 173.518 77.2781C173.457 77.6789 173.349 78.2183 173.195 78.8965C173.041 79.5747 172.848 80.2837 172.617 81.0235C172.385 81.7479 172.116 82.4569 171.808 83.1505C171.515 83.844 171.191 84.4143 170.836 84.8613C170.513 85.0154 170.235 85.1079 170.004 85.1387C169.881 85.1695 169.773 85.1772 169.681 85.1618C169.557 85.1618 169.442 85.1464 169.334 85.1156C169.226 85.0848 169.118 85.0231 169.01 84.9306C168.918 84.8382 168.825 84.6994 168.733 84.5145C168.656 84.3295 168.594 84.0752 168.548 83.7516C168.471 83.2738 168.355 82.7574 168.201 82.2026C168.062 81.6477 167.916 81.1391 167.762 80.6767C167.623 81.0928 167.476 81.5167 167.322 81.9482C167.184 82.3644 167.037 82.7574 166.883 83.1273C166.744 83.4972 166.606 83.8286 166.467 84.1215C166.328 84.4143 166.197 84.6378 166.074 84.7919C165.565 85.0231 165.195 85.1618 164.964 85.2081C164.825 85.2543 164.71 85.2697 164.617 85.2543C164.309 84.8536 164.039 84.4297 163.808 83.9827C163.577 83.5204 163.392 83.0888 163.253 82.6881C163.084 82.2257 162.945 81.7633 162.837 81.3009C162.714 80.7152 162.629 80.1526 162.583 79.6132C162.537 79.0737 162.49 78.5805 162.444 78.1336C162.413 77.6712 162.367 77.2704 162.305 76.9313C162.259 76.5923 162.167 76.3225 162.028 76.1222C162.167 76.0143 162.329 75.9141 162.514 75.8216C162.698 75.7137 162.891 75.6521 163.092 75.6367C163.292 75.6058 163.492 75.6213 163.693 75.6829C163.908 75.7291 164.116 75.8447 164.317 76.0297C164.348 76.4304 164.371 76.8235 164.386 77.2088C164.402 77.5787 164.417 77.9178 164.432 78.226C164.448 78.5805 164.456 78.9119 164.456 79.2202C164.471 79.6055 164.486 80.0139 164.502 80.4455C164.533 80.8771 164.571 81.3009 164.617 81.7171C164.664 82.1332 164.733 82.5262 164.825 82.8961C164.933 83.2506 165.072 83.5512 165.242 83.7978C165.411 83.5204 165.65 83.0657 165.958 82.4338C166.267 81.7864 166.521 80.9772 166.721 80.0062C166.798 79.6055 166.845 79.2048 166.86 78.804C166.891 78.4033 166.891 78.0411 166.86 77.7174C166.845 77.3783 166.814 77.0855 166.767 76.8389C166.737 76.5769 166.698 76.3919 166.652 76.284C166.775 76.2069 166.906 76.153 167.045 76.1222C167.184 76.0759 167.315 76.0374 167.438 76.0066C167.577 75.9757 167.708 75.9603 167.831 75.9603C168.232 75.9295 168.501 76.0066 168.64 76.1915C168.794 76.3611 168.833 76.6847 168.756 77.1625C168.74 77.2858 168.702 77.4785 168.64 77.7405C168.579 77.9871 168.501 78.2877 168.409 78.6422C168.501 78.9504 168.609 79.3435 168.733 79.8213C168.856 80.2837 168.979 80.7383 169.103 81.1853C169.195 81.6169 169.287 82.0561 169.38 82.5031C169.472 82.9501 169.55 83.3431 169.611 83.6822C169.688 83.6668 169.765 83.636 169.842 83.5897C169.919 83.5435 169.989 83.4587 170.05 83.3354C170.112 83.2275 170.197 83.0503 170.305 82.8037C170.413 82.5571 170.528 82.2565 170.652 81.902C170.775 81.5475 170.89 81.1545 170.998 80.7229C171.122 80.2914 171.23 79.829 171.322 79.3358C171.492 78.3493 171.553 77.6326 171.507 77.1857C171.476 76.7387 171.391 76.4381 171.253 76.284C171.407 76.1761 171.561 76.0991 171.715 76.0528C171.885 75.9912 172.039 75.9449 172.177 75.9141C172.347 75.8833 172.501 75.8679 172.64 75.8679ZM186.476 81.0235C186.445 81.6246 186.338 82.1794 186.153 82.6881C185.983 83.1967 185.744 83.6437 185.436 84.029C185.128 84.3989 184.758 84.6917 184.326 84.9075C183.91 85.1233 183.448 85.2389 182.939 85.2543C182.492 85.2697 182.068 85.1618 181.667 84.9306C181.282 84.6994 180.943 84.3758 180.65 83.9596C180.357 83.5435 180.134 83.0503 179.98 82.48C179.841 81.8943 179.802 81.2624 179.864 80.5842C179.91 79.7981 180.057 79.1277 180.303 78.5728C180.55 78.0025 180.812 77.5325 181.089 77.1625C181.367 76.7926 181.621 76.5229 181.852 76.3534C182.099 76.1684 182.253 76.0605 182.315 76.0297C182.423 75.9835 182.523 75.9757 182.615 76.0066C182.708 76.022 182.808 76.0451 182.916 76.0759C182.947 76.0913 182.978 76.1299 183.008 76.1915C183.07 76.2994 183.109 76.4998 183.124 76.7926C183.201 76.6231 183.301 76.4844 183.425 76.3765C183.548 76.2686 183.671 76.1915 183.794 76.1453C183.949 76.0836 184.103 76.0451 184.257 76.0297C184.365 76.0143 184.55 76.0991 184.812 76.284C185.089 76.469 185.351 76.7618 185.598 77.1625C185.86 77.5633 186.083 78.0873 186.268 78.7347C186.453 79.3666 186.523 80.1295 186.476 81.0235ZM184.904 80.746C184.92 80.3761 184.904 80.0062 184.858 79.6363C184.827 79.251 184.765 78.9042 184.673 78.5959C184.596 78.2723 184.496 78.018 184.372 77.833C184.249 77.6326 184.126 77.5325 184.002 77.5325C183.864 77.5633 183.71 77.6326 183.54 77.7405C183.401 77.833 183.247 77.9794 183.078 78.1798C182.908 78.3802 182.746 78.6653 182.592 79.0352C182.577 78.989 182.561 78.9042 182.546 78.7809C182.531 78.673 182.515 78.5343 182.5 78.3647C182.5 78.1798 182.515 77.9332 182.546 77.6249C182.33 77.8869 182.161 78.1952 182.037 78.5497C181.929 78.9042 181.845 79.2433 181.783 79.567C181.721 79.9523 181.675 80.3376 181.644 80.7229C181.629 81.1391 181.644 81.5475 181.691 81.9482C181.752 82.349 181.845 82.7035 181.968 83.0117C182.107 83.32 182.269 83.5666 182.453 83.7516C182.638 83.9365 182.862 84.0213 183.124 84.0059C183.386 83.9905 183.617 83.8826 183.818 83.6822C184.018 83.4818 184.195 83.2275 184.349 82.9193C184.503 82.611 184.627 82.2642 184.719 81.8789C184.812 81.4936 184.873 81.116 184.904 80.746ZM192.47 75.8447C192.901 75.8447 193.302 75.968 193.672 76.2146C194.042 76.4613 194.358 76.7849 194.62 77.1857C194.882 77.5864 195.09 78.0488 195.244 78.5728C195.398 79.0814 195.475 79.6132 195.475 80.1681C195.475 80.7229 195.414 81.3086 195.29 81.9251C195.167 82.5416 194.974 83.1119 194.712 83.636C194.45 84.16 194.111 84.5993 193.695 84.9538C193.279 85.2928 192.77 85.4624 192.169 85.4624C191.691 85.4624 191.237 85.2928 190.805 84.9538C190.389 84.5993 190.065 84.16 189.834 83.636C189.803 84.1754 189.734 84.7226 189.626 85.2774C189.518 85.8477 189.464 86.5259 189.464 87.3119C189.464 87.5431 189.472 87.8051 189.487 88.098C189.503 88.3908 189.526 88.6837 189.557 88.9765C189.588 89.2694 189.634 89.5391 189.695 89.7857C189.757 90.0323 189.826 90.225 189.903 90.3637C189.641 90.5178 189.403 90.6334 189.187 90.7105C188.986 90.7875 188.809 90.8415 188.655 90.8723C188.485 90.9186 188.324 90.9417 188.17 90.9417C187.969 90.9417 187.838 90.8569 187.776 90.6874C187.715 90.5178 187.684 90.2173 187.684 89.7857C187.684 89.5083 187.692 89.1075 187.707 88.5835C187.738 88.0749 187.769 87.4892 187.8 86.8264C187.846 86.1637 187.884 85.4701 187.915 84.7457C187.961 84.0059 188 83.2815 188.031 82.5725C188.077 81.8635 188.108 81.2084 188.123 80.6073C188.154 79.9908 188.17 79.4745 188.17 79.0583C188.17 78.5497 188.162 78.1567 188.146 77.8792C188.131 77.5864 188.108 77.3706 188.077 77.2319C188.062 77.0778 188.039 76.9699 188.008 76.9082C187.977 76.8466 187.938 76.7772 187.892 76.7002C188.031 76.5923 188.193 76.4998 188.378 76.4227C188.578 76.3302 188.771 76.2686 188.956 76.2378C189.156 76.1915 189.333 76.1761 189.487 76.1915C189.657 76.2069 189.788 76.2455 189.88 76.3071C189.957 76.3842 190.011 76.4998 190.042 76.6539C190.088 76.808 190.127 77.0392 190.158 77.3475C190.451 76.9468 190.782 76.6 191.152 76.3071C191.537 75.9989 191.977 75.8447 192.47 75.8447ZM191.568 84.0983C191.846 84.0983 192.108 83.9673 192.354 83.7053C192.616 83.4433 192.84 83.1119 193.025 82.7112C193.225 82.295 193.379 81.8404 193.487 81.3471C193.61 80.8385 193.672 80.3376 193.672 79.8444C193.672 79.3049 193.618 78.8657 193.51 78.5266C193.418 78.1721 193.294 77.8947 193.14 77.6943C193.001 77.4785 192.847 77.3321 192.678 77.255C192.524 77.1625 192.385 77.1163 192.262 77.1163C191.969 77.1163 191.691 77.2396 191.429 77.4862C191.167 77.7174 190.936 78.0257 190.736 78.411C190.535 78.7809 190.374 79.197 190.25 79.6594C190.142 80.1218 190.088 80.5842 190.088 81.0466C190.088 81.4782 190.127 81.8789 190.204 82.2488C190.297 82.6187 190.412 82.9424 190.551 83.2198C190.69 83.4972 190.844 83.713 191.013 83.8672C191.198 84.0213 191.383 84.0983 191.568 84.0983ZM205.746 74.7119C205.576 74.6811 205.345 74.6502 205.052 74.6194C204.775 74.5886 204.49 74.5655 204.197 74.5501C203.858 74.5346 203.495 74.5269 203.11 74.5269C202.725 74.4961 202.239 74.4961 201.654 74.5269C201.083 74.5424 200.482 74.5501 199.85 74.5501C199.835 74.9508 199.804 75.3592 199.758 75.7754C199.727 76.1915 199.696 76.6 199.665 77.0007C199.588 77.7405 199.519 78.4958 199.457 79.2664C199.411 80.037 199.388 80.7692 199.388 81.4627C199.388 82.1563 199.426 82.7882 199.504 83.3585C199.596 83.9134 199.758 84.3527 199.989 84.6763C199.804 84.815 199.604 84.9229 199.388 85C199.172 85.0617 198.98 85.1079 198.81 85.1387C198.61 85.185 198.409 85.2081 198.209 85.2081C198.024 85.2081 197.87 85.1464 197.746 85.0231C197.623 84.8998 197.554 84.684 197.538 84.3758C197.508 83.8517 197.5 83.3277 197.515 82.8037C197.546 82.2642 197.577 81.7016 197.608 81.116C197.654 80.5303 197.7 79.906 197.746 79.2433C197.793 78.5651 197.839 77.8253 197.885 77.0238C197.931 76.1915 197.955 75.3824 197.955 74.5963C197.369 74.6117 196.876 74.6194 196.475 74.6194C196.074 74.6194 195.851 74.6117 195.804 74.5963C195.758 74.5655 195.704 74.4961 195.643 74.3882C195.581 74.2957 195.504 74.157 195.411 73.9721C195.304 73.7871 195.173 73.5251 195.018 73.186C195.311 73.186 195.635 73.186 195.989 73.186C196.329 73.186 196.644 73.1783 196.937 73.1629C197.276 73.1475 197.615 73.1321 197.955 73.1167C197.939 72.8701 197.931 72.608 197.931 72.3306C197.916 72.1148 197.908 71.8759 197.908 71.6139C197.908 71.3365 197.901 71.0822 197.885 70.851C197.885 70.7585 197.993 70.6506 198.209 70.5273C198.44 70.3886 198.687 70.2653 198.949 70.1574C199.211 70.0495 199.45 69.9801 199.665 69.9493C199.897 69.9185 200.012 69.9724 200.012 70.1111C200.012 70.2499 200.004 70.5889 199.989 71.1284C199.989 71.6524 199.974 72.2921 199.943 73.0473C200.097 73.0473 200.213 73.0396 200.29 73.0242C201.106 72.9934 201.762 72.9625 202.255 72.9317C202.763 72.8855 203.18 72.8778 203.503 72.9086C203.827 72.9394 204.112 73.0165 204.359 73.1398C204.605 73.2631 204.883 73.4634 205.191 73.7409C205.299 73.8334 205.391 73.9335 205.468 74.0414C205.545 74.1339 205.607 74.2418 205.653 74.3651C205.715 74.473 205.746 74.5886 205.746 74.7119ZM202.237 76.8158C202.237 76.7233 202.36 76.6231 202.607 76.5152C202.854 76.4073 203.123 76.3225 203.416 76.2609C203.725 76.1838 204.002 76.1453 204.249 76.1453C204.511 76.1299 204.642 76.1838 204.642 76.3071C204.642 76.5383 204.626 76.8697 204.595 77.3013C204.565 77.7174 204.526 78.1644 204.48 78.6422C204.434 79.1046 204.387 79.5747 204.341 80.0525C204.295 80.5148 204.264 80.9079 204.249 81.2315C204.218 81.5706 204.187 81.9405 204.156 82.3413C204.125 82.6804 204.102 83.058 204.087 83.4741C204.071 83.8903 204.071 84.3141 204.087 84.7457C204.087 84.8228 204.01 84.8998 203.856 84.9769C203.701 85.0539 203.532 85.1079 203.347 85.1387C203.162 85.185 202.985 85.2081 202.815 85.2081C202.646 85.2081 202.553 85.1772 202.538 85.1156C202.507 85.0539 202.476 84.9461 202.445 84.7919C202.414 84.6378 202.384 84.422 202.353 84.1446C202.322 83.8517 202.299 83.4818 202.283 83.0349C202.268 82.5725 202.276 82.0176 202.307 81.3703C202.368 80.091 202.376 79.1046 202.33 78.411C202.283 77.702 202.253 77.1702 202.237 76.8158ZM203.856 72.215C204.164 72.215 204.457 72.3075 204.734 72.4924C205.012 72.6774 205.15 72.924 205.15 73.2323C205.15 73.4634 205.089 73.6869 204.965 73.9027C204.857 74.1185 204.719 74.3112 204.549 74.4807C204.38 74.6502 204.187 74.789 203.971 74.8968C203.755 74.9893 203.555 75.0356 203.37 75.0356C203.123 75.0356 202.923 74.997 202.769 74.92C202.615 74.8275 202.491 74.7273 202.399 74.6194C202.322 74.4961 202.268 74.3651 202.237 74.2264C202.206 74.0877 202.191 73.9567 202.191 73.8334C202.191 73.6792 202.214 73.5097 202.26 73.3247C202.307 73.1244 202.391 72.9471 202.515 72.793C202.638 72.6234 202.807 72.4847 203.023 72.3768C203.239 72.2689 203.516 72.215 203.856 72.215ZM203.278 74.3651C203.37 74.3651 203.47 74.3343 203.578 74.2726C203.701 74.1956 203.809 74.1108 203.902 74.0183C204.01 73.9258 204.094 73.8257 204.156 73.7178C204.233 73.6099 204.272 73.5174 204.272 73.4403C204.272 73.317 204.21 73.2554 204.087 73.2554C204.01 73.2554 203.909 73.2862 203.786 73.3479C203.678 73.4095 203.57 73.4866 203.463 73.579C203.355 73.6561 203.262 73.7486 203.185 73.8565C203.123 73.949 203.093 74.0414 203.093 74.1339C203.093 74.288 203.154 74.3651 203.278 74.3651ZM211.583 77.7868C211.46 77.7868 211.321 77.8561 211.167 77.9948C211.028 78.1181 210.889 78.2954 210.751 78.5266C210.612 78.7424 210.473 78.989 210.335 79.2664C210.196 79.5284 210.072 79.7981 209.965 80.0756C209.703 80.7229 209.448 81.3857 209.202 82.0638C208.955 82.742 208.809 83.3277 208.762 83.8209C208.747 83.8672 208.739 83.9134 208.739 83.9596C208.739 83.9905 208.739 84.0213 208.739 84.0521C208.724 84.0829 208.716 84.1292 208.716 84.1908C208.685 84.4066 208.639 84.5839 208.577 84.7226C208.531 84.8459 208.423 84.9306 208.254 84.9769C208.069 85.0077 207.884 85.0308 207.699 85.0462C207.514 85.0617 207.337 85.0462 207.167 85C207.059 84.9692 206.974 84.9152 206.913 84.8382C206.867 84.7457 206.828 84.6455 206.797 84.5376C206.782 84.4143 206.766 84.2987 206.751 84.1908C206.751 84.0829 206.751 83.9905 206.751 83.9134C206.751 83.8209 206.759 83.5358 206.774 83.058C206.79 82.5648 206.805 82.0099 206.82 81.3934C206.836 80.7769 206.843 80.1758 206.843 79.5901C206.843 78.989 206.836 78.5343 206.82 78.226C206.79 78.0103 206.759 77.8099 206.728 77.6249C206.697 77.4554 206.659 77.2858 206.612 77.1163C206.581 76.9468 206.528 76.8003 206.45 76.677C206.62 76.5846 206.79 76.5075 206.959 76.4458C207.129 76.3842 207.283 76.338 207.421 76.3071C207.591 76.2609 207.745 76.2301 207.884 76.2146C208.254 76.1838 208.539 76.1838 208.739 76.2146C208.955 76.2455 209.063 76.4073 209.063 76.7002C209.063 76.9622 209.04 77.3706 208.994 77.9255C208.963 78.4649 208.924 79.2202 208.878 80.1912C209.048 79.8059 209.248 79.3743 209.479 78.8965C209.71 78.4033 209.957 77.9486 210.219 77.5325C210.481 77.1009 210.751 76.7464 211.028 76.469C211.306 76.1761 211.568 76.0297 211.814 76.0297C211.984 76.0297 212.176 76.0682 212.392 76.1453C212.623 76.2069 212.839 76.2994 213.039 76.4227C213.24 76.5306 213.417 76.6539 213.571 76.7926C213.741 76.9313 213.856 77.0701 213.918 77.2088C213.98 77.3629 214.018 77.6018 214.034 77.9255C214.049 78.2492 214.049 78.6114 214.034 79.0121C214.157 78.7192 214.296 78.4341 214.45 78.1567C214.604 77.8792 214.758 77.6249 214.912 77.3937C215.082 77.1471 215.251 76.9391 215.421 76.7695C215.59 76.6 215.744 76.4844 215.883 76.4227C216.068 76.3457 216.292 76.3302 216.554 76.3765C216.816 76.4227 217.07 76.5075 217.317 76.6308C217.579 76.7387 217.802 76.8697 217.987 77.0238C218.187 77.178 218.311 77.3244 218.357 77.4631C218.403 77.6172 218.442 77.8561 218.473 78.1798C218.503 78.5035 218.526 78.858 218.542 79.2433C218.557 79.6286 218.565 80.0293 218.565 80.4455C218.565 80.8462 218.557 81.2007 218.542 81.509C218.511 82.4029 218.519 83.1119 218.565 83.636C218.611 84.1446 218.796 84.5222 219.12 84.7688C218.904 84.9075 218.704 85.0077 218.519 85.0694C218.334 85.1464 218.172 85.2004 218.033 85.2312C217.864 85.2774 217.717 85.3006 217.594 85.3006C217.424 85.3006 217.286 85.2543 217.178 85.1618C217.07 85.0848 216.985 84.9769 216.924 84.8382C216.862 84.6994 216.823 84.5453 216.808 84.3758C216.793 84.2062 216.785 84.0367 216.785 83.8672C216.785 83.713 216.793 83.4587 216.808 83.1042C216.839 82.7343 216.862 82.3182 216.877 81.8558C216.893 81.3934 216.893 80.9233 216.877 80.4455C216.862 79.9523 216.823 79.5053 216.762 79.1046C216.715 78.6884 216.631 78.3493 216.507 78.0873C216.384 77.8253 216.215 77.6943 215.999 77.6943C215.814 77.6943 215.637 77.8099 215.467 78.0411C215.297 78.2569 215.136 78.5497 214.981 78.9196C214.827 79.2741 214.689 79.6748 214.565 80.1218C214.457 80.5534 214.357 80.9849 214.265 81.4165C214.172 81.8481 214.103 82.2488 214.057 82.6187C214.01 82.9732 213.987 83.2583 213.987 83.4741L213.964 83.266C213.964 83.5589 213.964 83.8286 213.964 84.0752C213.98 84.3218 213.995 84.5684 214.01 84.815C214.026 84.9075 213.941 84.9846 213.756 85.0462C213.571 85.1233 213.363 85.1541 213.132 85.1387C212.916 85.1387 212.716 85.0925 212.531 85C212.346 84.9075 212.253 84.7534 212.253 84.5376C212.253 84.3835 212.253 84.1523 212.253 83.844C212.253 83.5358 212.246 83.189 212.23 82.8037C212.23 82.4183 212.223 82.0176 212.207 81.6015C212.207 81.1699 212.199 80.7615 212.184 80.3761C212.184 80.0833 212.176 79.7827 212.161 79.4745C212.161 79.1662 212.146 78.8888 212.115 78.6422C212.084 78.3802 212.022 78.1721 211.93 78.018C211.853 77.8638 211.737 77.7868 211.583 77.7868ZM220.698 76.8158C220.698 76.7233 220.821 76.6231 221.067 76.5152C221.314 76.4073 221.584 76.3225 221.877 76.2609C222.185 76.1838 222.462 76.1453 222.709 76.1453C222.971 76.1299 223.102 76.1838 223.102 76.3071C223.102 76.5383 223.087 76.8697 223.056 77.3013C223.025 77.7174 222.986 78.1644 222.94 78.6422C222.894 79.1046 222.848 79.5747 222.801 80.0525C222.755 80.5148 222.724 80.9079 222.709 81.2315C222.678 81.5706 222.647 81.9405 222.616 82.3413C222.586 82.6804 222.562 83.058 222.547 83.4741C222.532 83.8903 222.532 84.3141 222.547 84.7457C222.547 84.8228 222.47 84.8998 222.316 84.9769C222.162 85.0539 221.992 85.1079 221.807 85.1387C221.622 85.185 221.445 85.2081 221.276 85.2081C221.106 85.2081 221.013 85.1772 220.998 85.1156C220.967 85.0539 220.936 84.9461 220.906 84.7919C220.875 84.6378 220.844 84.422 220.813 84.1446C220.782 83.8517 220.759 83.4818 220.744 83.0349C220.728 82.5725 220.736 82.0176 220.767 81.3703C220.829 80.091 220.836 79.1046 220.79 78.411C220.744 77.702 220.713 77.1702 220.698 76.8158ZM222.316 72.215C222.624 72.215 222.917 72.3075 223.194 72.4924C223.472 72.6774 223.611 72.924 223.611 73.2323C223.611 73.4634 223.549 73.6869 223.426 73.9027C223.318 74.1185 223.179 74.3112 223.009 74.4807C222.84 74.6502 222.647 74.789 222.431 74.8968C222.216 74.9893 222.015 75.0356 221.83 75.0356C221.584 75.0356 221.383 74.997 221.229 74.92C221.075 74.8275 220.952 74.7273 220.859 74.6194C220.782 74.4961 220.728 74.3651 220.698 74.2264C220.667 74.0877 220.651 73.9567 220.651 73.8334C220.651 73.6792 220.674 73.5097 220.721 73.3247C220.767 73.1244 220.852 72.9471 220.975 72.793C221.098 72.6234 221.268 72.4847 221.484 72.3768C221.699 72.2689 221.977 72.215 222.316 72.215ZM221.738 74.3651C221.83 74.3651 221.931 74.3343 222.038 74.2726C222.162 74.1956 222.27 74.1108 222.362 74.0183C222.47 73.9258 222.555 73.8257 222.616 73.7178C222.693 73.6099 222.732 73.5174 222.732 73.4403C222.732 73.317 222.67 73.2554 222.547 73.2554C222.47 73.2554 222.37 73.2862 222.247 73.3479C222.139 73.4095 222.031 73.4866 221.923 73.579C221.815 73.6561 221.722 73.7486 221.645 73.8565C221.584 73.949 221.553 74.0414 221.553 74.1339C221.553 74.288 221.615 74.3651 221.738 74.3651ZM231.523 76.3302C231.523 76.5152 231.523 76.6924 231.523 76.862C231.523 77.0161 231.5 77.1702 231.454 77.3244C231.407 77.4785 231.338 77.648 231.245 77.833C231.153 78.018 231.014 78.226 230.829 78.4572C230.614 78.7347 230.313 79.1046 229.928 79.567C229.558 80.0293 229.165 80.5226 228.749 81.0466C228.348 81.5706 227.97 82.087 227.616 82.5956C227.261 83.0888 226.992 83.5127 226.807 83.8672C226.992 83.7284 227.246 83.5897 227.57 83.451C227.909 83.2969 228.325 83.2044 228.818 83.1736C229.095 83.1582 229.373 83.1659 229.65 83.1967C229.897 83.2275 230.151 83.2738 230.413 83.3354C230.691 83.3816 230.945 83.4664 231.176 83.5897C231.253 83.7593 231.292 83.9442 231.292 84.1446C231.307 84.345 231.307 84.5376 231.292 84.7226C231.276 84.9383 231.245 85.1541 231.199 85.3699C230.953 85.2928 230.691 85.2312 230.413 85.185C230.151 85.1387 229.897 85.1002 229.65 85.0694C229.373 85.0385 229.095 85.0231 228.818 85.0231C228.525 85.0231 228.232 85.0462 227.939 85.0925C227.677 85.1233 227.392 85.185 227.084 85.2774C226.791 85.3699 226.498 85.4932 226.205 85.6473C226.113 85.6473 226.013 85.6165 225.905 85.5549C225.812 85.5086 225.728 85.447 225.651 85.3699C225.558 85.2928 225.458 85.2081 225.35 85.1156C225.288 85.0385 225.227 84.9615 225.165 84.8844C225.057 84.7303 225.003 84.5607 225.003 84.3758C225.25 83.8826 225.481 83.4587 225.697 83.1042C225.928 82.7343 226.128 82.4183 226.298 82.1563C226.498 81.8635 226.683 81.6015 226.853 81.3703C227.331 80.7537 227.816 80.1064 228.309 79.4282C228.818 78.7347 229.203 78.1336 229.465 77.6249C229.327 77.5633 229.134 77.5093 228.887 77.4631C228.656 77.4169 228.363 77.4014 228.009 77.4169C227.423 77.4323 226.837 77.5247 226.252 77.6943C225.681 77.8484 225.288 78.1104 225.073 78.4803C224.918 78.3262 224.795 78.0565 224.703 77.6712C224.626 77.2704 224.649 76.8697 224.772 76.469C225.034 76.3457 225.327 76.2455 225.651 76.1684C225.99 76.0759 226.298 76.0143 226.575 75.9835C226.899 75.9372 227.23 75.9141 227.57 75.9141C227.939 75.9141 228.34 75.9295 228.772 75.9603C229.126 75.9912 229.542 76.0374 230.02 76.0991C230.498 76.1453 230.999 76.2224 231.523 76.3302ZM239.551 83.8209C239.582 83.9288 239.628 84.029 239.69 84.1215C239.736 84.1985 239.797 84.2756 239.875 84.3527C239.967 84.4143 240.075 84.4528 240.198 84.4683C240.09 84.684 239.982 84.8305 239.875 84.9075C239.813 84.9538 239.759 84.9846 239.713 85C239.574 85.0462 239.366 85.0694 239.088 85.0694C238.811 85.0694 238.541 84.9846 238.279 84.815C238.187 84.738 238.102 84.6224 238.025 84.4683C237.948 84.345 237.879 84.1754 237.817 83.9596C237.771 83.7284 237.732 83.4356 237.701 83.0811C237.486 83.5435 237.239 83.9134 236.962 84.1908C236.699 84.4528 236.437 84.6455 236.175 84.7688C235.883 84.9383 235.582 85.0385 235.274 85.0694C234.888 85.1002 234.519 85.0385 234.164 84.8844C233.825 84.7149 233.532 84.4683 233.286 84.1446C233.054 83.8055 232.877 83.3971 232.754 82.9193C232.63 82.4415 232.592 81.902 232.638 81.3009C232.684 80.669 232.808 80.1064 233.008 79.6132C233.208 79.12 233.447 78.6807 233.725 78.2954C234.002 77.9101 234.295 77.5864 234.603 77.3244C234.912 77.0469 235.204 76.8235 235.482 76.6539C235.775 76.469 236.021 76.338 236.222 76.2609C236.437 76.1684 236.576 76.1145 236.638 76.0991C236.807 76.0528 236.954 76.0374 237.077 76.0528C237.2 76.0682 237.308 76.1376 237.401 76.2609C237.432 76.3071 237.47 76.3611 237.516 76.4227C237.547 76.4844 237.586 76.5691 237.632 76.677C237.678 76.7695 237.717 76.8774 237.748 77.0007C237.378 77.1702 237.031 77.3629 236.707 77.5787C236.384 77.7791 236.083 78.0257 235.806 78.3185C235.544 78.6114 235.312 78.9659 235.112 79.382C234.912 79.7981 234.757 80.3068 234.65 80.9079C234.495 81.6631 234.534 82.2719 234.765 82.7343C235.012 83.1967 235.343 83.3894 235.759 83.3123C236.006 83.2352 236.245 83.0888 236.476 82.873C236.676 82.6881 236.884 82.4106 237.1 82.0407C237.331 81.6708 237.547 81.1622 237.748 80.5148C237.825 79.5901 237.886 78.8657 237.933 78.3416C237.994 77.8022 238.048 77.3937 238.094 77.1163C238.156 76.7926 238.202 76.5769 238.233 76.469C238.279 76.3919 238.372 76.3225 238.511 76.2609C238.649 76.1838 238.803 76.1222 238.973 76.0759C239.142 76.0297 239.297 76.0066 239.435 76.0066C239.574 75.9912 239.666 75.9912 239.713 76.0066C239.744 76.022 239.759 76.2146 239.759 76.5846C239.759 76.9391 239.744 77.3937 239.713 77.9486C239.697 78.4881 239.674 79.0814 239.643 79.7288C239.613 80.3607 239.582 80.9618 239.551 81.5321C239.535 82.1024 239.52 82.6033 239.505 83.0349C239.505 83.451 239.52 83.713 239.551 83.8209ZM250.469 74.7119C250.299 74.6811 250.068 74.6502 249.775 74.6194C249.498 74.5886 249.213 74.5655 248.92 74.5501C248.581 74.5346 248.218 74.5269 247.833 74.5269C247.448 74.4961 246.962 74.4961 246.377 74.5269C245.806 74.5424 245.205 74.5501 244.573 74.5501C244.558 74.9508 244.527 75.3592 244.481 75.7754C244.45 76.1915 244.419 76.6 244.388 77.0007C244.311 77.7405 244.242 78.4958 244.18 79.2664C244.134 80.037 244.111 80.7692 244.111 81.4627C244.111 82.1563 244.149 82.7882 244.227 83.3585C244.319 83.9134 244.481 84.3527 244.712 84.6763C244.527 84.815 244.327 84.9229 244.111 85C243.895 85.0617 243.703 85.1079 243.533 85.1387C243.333 85.185 243.132 85.2081 242.932 85.2081C242.747 85.2081 242.593 85.1464 242.469 85.0231C242.346 84.8998 242.277 84.684 242.261 84.3758C242.231 83.8517 242.223 83.3277 242.238 82.8037C242.269 82.2642 242.3 81.7016 242.331 81.116C242.377 80.5303 242.423 79.906 242.469 79.2433C242.516 78.5651 242.562 77.8253 242.608 77.0238C242.654 76.1915 242.678 75.3824 242.678 74.5963C242.092 74.6117 241.599 74.6194 241.198 74.6194C240.797 74.6194 240.574 74.6117 240.527 74.5963C240.481 74.5655 240.427 74.4961 240.366 74.3882C240.304 74.2957 240.227 74.157 240.134 73.9721C240.027 73.7871 239.896 73.5251 239.741 73.186C240.034 73.186 240.358 73.186 240.712 73.186C241.051 73.186 241.367 73.1783 241.66 73.1629C241.999 73.1475 242.338 73.1321 242.678 73.1167C242.662 72.8701 242.654 72.608 242.654 72.3306C242.639 72.1148 242.631 71.8759 242.631 71.6139C242.631 71.3365 242.624 71.0822 242.608 70.851C242.608 70.7585 242.716 70.6506 242.932 70.5273C243.163 70.3886 243.41 70.2653 243.672 70.1574C243.934 70.0495 244.173 69.9801 244.388 69.9493C244.62 69.9185 244.735 69.9724 244.735 70.1111C244.735 70.2499 244.727 70.5889 244.712 71.1284C244.712 71.6524 244.697 72.2921 244.666 73.0473C244.82 73.0473 244.936 73.0396 245.013 73.0242C245.829 72.9934 246.485 72.9625 246.978 72.9317C247.486 72.8855 247.903 72.8778 248.226 72.9086C248.55 72.9394 248.835 73.0165 249.082 73.1398C249.328 73.2631 249.606 73.4634 249.914 73.7409C250.022 73.8334 250.114 73.9335 250.191 74.0414C250.268 74.1339 250.33 74.2418 250.376 74.3651C250.438 74.473 250.469 74.5886 250.469 74.7119ZM246.96 76.8158C246.96 76.7233 247.083 76.6231 247.33 76.5152C247.577 76.4073 247.846 76.3225 248.139 76.2609C248.448 76.1838 248.725 76.1453 248.972 76.1453C249.234 76.1299 249.365 76.1838 249.365 76.3071C249.365 76.5383 249.349 76.8697 249.318 77.3013C249.288 77.7174 249.249 78.1644 249.203 78.6422C249.157 79.1046 249.11 79.5747 249.064 80.0525C249.018 80.5148 248.987 80.9079 248.972 81.2315C248.941 81.5706 248.91 81.9405 248.879 82.3413C248.848 82.6804 248.825 83.058 248.81 83.4741C248.794 83.8903 248.794 84.3141 248.81 84.7457C248.81 84.8228 248.733 84.8998 248.579 84.9769C248.424 85.0539 248.255 85.1079 248.07 85.1387C247.885 85.185 247.708 85.2081 247.538 85.2081C247.369 85.2081 247.276 85.1772 247.261 85.1156C247.23 85.0539 247.199 84.9461 247.168 84.7919C247.137 84.6378 247.107 84.422 247.076 84.1446C247.045 83.8517 247.022 83.4818 247.006 83.0349C246.991 82.5725 246.999 82.0176 247.03 81.3703C247.091 80.091 247.099 79.1046 247.053 78.411C247.006 77.702 246.976 77.1702 246.96 76.8158ZM248.579 72.215C248.887 72.215 249.18 72.3075 249.457 72.4924C249.734 72.6774 249.873 72.924 249.873 73.2323C249.873 73.4634 249.812 73.6869 249.688 73.9027C249.58 74.1185 249.442 74.3112 249.272 74.4807C249.103 74.6502 248.91 74.789 248.694 74.8968C248.478 74.9893 248.278 75.0356 248.093 75.0356C247.846 75.0356 247.646 74.997 247.492 74.92C247.338 74.8275 247.214 74.7273 247.122 74.6194C247.045 74.4961 246.991 74.3651 246.96 74.2264C246.929 74.0877 246.914 73.9567 246.914 73.8334C246.914 73.6792 246.937 73.5097 246.983 73.3247C247.03 73.1244 247.114 72.9471 247.238 72.793C247.361 72.6234 247.53 72.4847 247.746 72.3768C247.962 72.2689 248.239 72.215 248.579 72.215ZM248.001 74.3651C248.093 74.3651 248.193 74.3343 248.301 74.2726C248.424 74.1956 248.532 74.1108 248.625 74.0183C248.733 73.9258 248.817 73.8257 248.879 73.7178C248.956 73.6099 248.995 73.5174 248.995 73.4403C248.995 73.317 248.933 73.2554 248.81 73.2554C248.733 73.2554 248.632 73.2862 248.509 73.3479C248.401 73.4095 248.293 73.4866 248.185 73.579C248.078 73.6561 247.985 73.7486 247.908 73.8565C247.846 73.949 247.816 74.0414 247.816 74.1339C247.816 74.288 247.877 74.3651 248.001 74.3651ZM257.577 81.0235C257.547 81.6246 257.439 82.1794 257.254 82.6881C257.084 83.1967 256.845 83.6437 256.537 84.029C256.229 84.3989 255.859 84.6917 255.427 84.9075C255.011 85.1233 254.549 85.2389 254.04 85.2543C253.593 85.2697 253.169 85.1618 252.769 84.9306C252.383 84.6994 252.044 84.3758 251.751 83.9596C251.459 83.5435 251.235 83.0503 251.081 82.48C250.942 81.8943 250.904 81.2624 250.965 80.5842C251.012 79.7981 251.158 79.1277 251.405 78.5728C251.651 78.0025 251.913 77.5325 252.191 77.1625C252.468 76.7926 252.722 76.5229 252.954 76.3534C253.2 76.1684 253.354 76.0605 253.416 76.0297C253.524 75.9835 253.624 75.9757 253.717 76.0066C253.809 76.022 253.909 76.0451 254.017 76.0759C254.048 76.0913 254.079 76.1299 254.11 76.1915C254.171 76.2994 254.21 76.4998 254.225 76.7926C254.302 76.6231 254.402 76.4844 254.526 76.3765C254.649 76.2686 254.772 76.1915 254.896 76.1453C255.05 76.0836 255.204 76.0451 255.358 76.0297C255.466 76.0143 255.651 76.0991 255.913 76.284C256.19 76.469 256.452 76.7618 256.699 77.1625C256.961 77.5633 257.184 78.0873 257.369 78.7347C257.554 79.3666 257.624 80.1295 257.577 81.0235ZM256.005 80.746C256.021 80.3761 256.005 80.0062 255.959 79.6363C255.928 79.251 255.867 78.9042 255.774 78.5959C255.697 78.2723 255.597 78.018 255.474 77.833C255.35 77.6326 255.227 77.5325 255.104 77.5325C254.965 77.5633 254.811 77.6326 254.641 77.7405C254.503 77.833 254.348 77.9794 254.179 78.1798C254.009 78.3802 253.848 78.6653 253.693 79.0352C253.678 78.989 253.663 78.9042 253.647 78.7809C253.632 78.673 253.616 78.5343 253.601 78.3647C253.601 78.1798 253.616 77.9332 253.647 77.6249C253.431 77.8869 253.262 78.1952 253.139 78.5497C253.031 78.9042 252.946 79.2433 252.884 79.567C252.823 79.9523 252.776 80.3376 252.746 80.7229C252.73 81.1391 252.746 81.5475 252.792 81.9482C252.853 82.349 252.946 82.7035 253.069 83.0117C253.208 83.32 253.37 83.5666 253.555 83.7516C253.74 83.9365 253.963 84.0213 254.225 84.0059C254.487 83.9905 254.718 83.8826 254.919 83.6822C255.119 83.4818 255.296 83.2275 255.451 82.9193C255.605 82.611 255.728 82.2642 255.82 81.8789C255.913 81.4936 255.975 81.116 256.005 80.746ZM261.467 84.3758C261.452 84.4683 261.367 84.5684 261.213 84.6763C261.074 84.7688 260.905 84.8536 260.704 84.9306C260.519 85.0077 260.342 85.0539 260.172 85.0694C260.003 85.1002 259.887 85.0848 259.826 85.0231C259.764 84.9615 259.664 84.8459 259.525 84.6763C259.386 84.5068 259.302 84.2294 259.271 83.844C259.24 83.4433 259.225 82.9424 259.225 82.3413C259.225 81.7248 259.217 81.0466 259.201 80.3068V79.382C259.201 79.1046 259.194 78.7809 259.178 78.411C259.178 78.0411 259.171 77.6558 259.155 77.255C259.294 77.178 259.433 77.1086 259.571 77.0469C259.725 76.9699 259.864 76.9082 259.987 76.862C260.126 76.8003 260.257 76.7541 260.38 76.7233C260.704 76.6308 260.951 76.5769 261.12 76.5614C261.29 76.546 261.39 76.6 261.421 76.7233C261.436 76.8158 261.429 77.0392 261.398 77.3937C261.367 77.702 261.328 78.1721 261.282 78.804C261.236 79.4205 261.159 80.2837 261.051 81.3934C261.251 80.9002 261.413 80.4763 261.536 80.1218C261.675 79.7673 261.791 79.4822 261.883 79.2664C261.976 79.0044 262.06 78.7963 262.138 78.6422C262.215 78.4418 262.315 78.2183 262.438 77.9717C262.561 77.7251 262.685 77.4939 262.808 77.2781C262.947 77.0624 263.07 76.8697 263.178 76.7002C263.301 76.5306 263.394 76.4304 263.455 76.3996C263.502 76.3688 263.64 76.3688 263.872 76.3996C264.103 76.4304 264.349 76.5075 264.611 76.6308C264.873 76.7387 265.128 76.9005 265.374 77.1163C265.621 77.3167 265.783 77.5633 265.86 77.8561C265.952 78.1952 265.983 78.6422 265.952 79.197C265.937 79.7519 265.898 80.3222 265.837 80.9079C265.79 81.4936 265.752 82.0484 265.721 82.5725C265.69 83.0965 265.721 83.4972 265.814 83.7747C265.844 83.9288 265.891 84.0675 265.952 84.1908C265.983 84.3141 266.022 84.4297 266.068 84.5376C266.129 84.6301 266.191 84.6994 266.253 84.7457C265.883 84.9152 265.582 85.0385 265.351 85.1156C265.12 85.1927 264.943 85.2466 264.819 85.2774C264.665 85.3237 264.557 85.3391 264.496 85.3237C264.357 85.2774 264.234 85.1618 264.126 84.9769C264.033 84.7919 263.949 84.4991 263.872 84.0983C263.841 83.975 263.825 83.7747 263.825 83.4972C263.841 83.2044 263.864 82.8807 263.895 82.5262C263.925 82.1563 263.956 81.7787 263.987 81.3934C264.033 80.9926 264.064 80.6227 264.08 80.2837C264.11 79.9292 264.134 79.6286 264.149 79.382C264.164 79.12 264.164 78.9427 264.149 78.8503C264.072 78.5728 263.964 78.3802 263.825 78.2723C263.687 78.149 263.579 78.1336 263.502 78.226C263.301 78.4572 263.085 78.8348 262.854 79.3589C262.638 79.8675 262.43 80.4301 262.23 81.0466C262.03 81.6477 261.86 82.2488 261.721 82.8499C261.583 83.451 261.498 83.9596 261.467 84.3758Z" fill="white"/>
<path d="M2 52H368" stroke="#5081FF" stroke-width="3" stroke-linecap="round"/>
<rect x="40.3173" y="117.317" width="22.3654" height="22.3654" rx="11.1827" fill="#FD8639"/>
<path d="M47.78 134V131.92H50.724V124.512L47.748 126.72V124.24L50.484 122.32H53.124V131.92H55.46V134H47.78Z" fill="black"/>
<path d="M72.6027 137V120.2H74.6187V135.176H83.1147V137H72.6027ZM91.5065 137.336C90.3225 137.336 89.2745 137.088 88.3625 136.592C87.4665 136.096 86.7625 135.4 86.2505 134.504C85.7545 133.592 85.5065 132.52 85.5065 131.288V130.976C85.5065 129.76 85.7545 128.696 86.2505 127.784C86.7625 126.872 87.4665 126.168 88.3625 125.672C89.2745 125.176 90.3225 124.928 91.5065 124.928C92.6905 124.928 93.7305 125.176 94.6265 125.672C95.5385 126.168 96.2425 126.872 96.7385 127.784C97.2505 128.696 97.5065 129.76 97.5065 130.976V131.288C97.5065 132.52 97.2505 133.592 96.7385 134.504C96.2425 135.4 95.5385 136.096 94.6265 136.592C93.7305 137.088 92.6905 137.336 91.5065 137.336ZM91.5065 135.632C92.7545 135.632 93.7465 135.24 94.4825 134.456C95.2345 133.656 95.6105 132.584 95.6105 131.24V131.024C95.6105 129.68 95.2345 128.616 94.4825 127.832C93.7465 127.032 92.7545 126.632 91.5065 126.632C90.2745 126.632 89.2825 127.032 88.5305 127.832C87.7785 128.616 87.4025 129.68 87.4025 131.024V131.24C87.4025 132.584 87.7785 133.656 88.5305 134.456C89.2825 135.24 90.2745 135.632 91.5065 135.632ZM102.716 137L100.364 125.264H102.284L104.228 135.728H104.564L107.132 125.264H110.276L112.844 135.728H113.18L115.124 125.264H117.044L114.692 137H111.452L108.86 126.536H108.548L105.956 137H102.716ZM132.643 137.336C131.459 137.336 130.419 137.088 129.523 136.592C128.627 136.08 127.931 135.368 127.435 134.456C126.939 133.544 126.691 132.488 126.691 131.288V131C126.691 129.784 126.939 128.72 127.435 127.808C127.931 126.896 128.619 126.192 129.499 125.696C130.379 125.184 131.387 124.928 132.523 124.928C133.627 124.928 134.603 125.168 135.451 125.648C136.299 126.112 136.963 126.784 137.443 127.664C137.923 128.544 138.163 129.576 138.163 130.76V131.624H128.587C128.635 132.888 129.043 133.88 129.811 134.6C130.579 135.304 131.539 135.656 132.691 135.656C133.699 135.656 134.475 135.424 135.019 134.96C135.563 134.496 135.979 133.944 136.267 133.304L137.899 134.096C137.659 134.592 137.323 135.088 136.891 135.584C136.475 136.08 135.923 136.496 135.235 136.832C134.563 137.168 133.699 137.336 132.643 137.336ZM128.611 130.064H136.243C136.179 128.976 135.803 128.128 135.115 127.52C134.443 126.912 133.579 126.608 132.523 126.608C131.451 126.608 130.571 126.912 129.883 127.52C129.195 128.128 128.771 128.976 128.611 130.064ZM143.682 137V126.92H140.082V125.264H143.682V122.264C143.682 121.624 143.858 121.12 144.21 120.752C144.578 120.384 145.098 120.2 145.77 120.2H148.722V121.832H146.298C145.818 121.832 145.578 122.072 145.578 122.552V125.264H148.53V126.92H145.578V137H143.682ZM151.41 137V126.92H148.53V125.264H151.41V122.264C151.41 121.624 151.586 121.12 151.938 120.752C152.306 120.384 152.826 120.2 153.498 120.2H156.45V121.832H154.002C153.538 121.832 153.306 122.072 153.306 122.552V125.264H157.002V126.92H153.306V137H151.41ZM164.921 137.336C163.737 137.336 162.689 137.088 161.777 136.592C160.881 136.096 160.177 135.4 159.665 134.504C159.169 133.592 158.921 132.52 158.921 131.288V130.976C158.921 129.76 159.169 128.696 159.665 127.784C160.177 126.872 160.881 126.168 161.777 125.672C162.689 125.176 163.737 124.928 164.921 124.928C166.105 124.928 167.145 125.176 168.041 125.672C168.953 126.168 169.657 126.872 170.153 127.784C170.665 128.696 170.921 129.76 170.921 130.976V131.288C170.921 132.52 170.665 133.592 170.153 134.504C169.657 135.4 168.953 136.096 168.041 136.592C167.145 137.088 166.105 137.336 164.921 137.336ZM164.921 135.632C166.169 135.632 167.161 135.24 167.897 134.456C168.649 133.656 169.025 132.584 169.025 131.24V131.024C169.025 129.68 168.649 128.616 167.897 127.832C167.161 127.032 166.169 126.632 164.921 126.632C163.689 126.632 162.697 127.032 161.945 127.832C161.193 128.616 160.817 129.68 160.817 131.024V131.24C160.817 132.584 161.193 133.656 161.945 134.456C162.697 135.24 163.689 135.632 164.921 135.632ZM174.732 137V125.264H176.58V126.704H176.916C177.124 126.192 177.444 125.816 177.876 125.576C178.308 125.336 178.876 125.216 179.58 125.216H180.972V126.944H179.46C178.612 126.944 177.924 127.184 177.396 127.664C176.884 128.128 176.628 128.856 176.628 129.848V137H174.732ZM188.499 137C187.827 137 187.307 136.816 186.939 136.448C186.587 136.08 186.411 135.576 186.411 134.936V126.92H182.883V125.264H186.411V121.088H188.307V125.264H192.147V126.92H188.307V134.648C188.307 135.128 188.539 135.368 189.003 135.368H191.619V137H188.499ZM195.426 140V138.8H196.122C196.698 138.8 196.986 138.512 196.986 137.936V137.168H196.65C196.186 137.168 195.794 137.024 195.474 136.736C195.17 136.448 195.018 136.088 195.018 135.656C195.018 135.192 195.17 134.816 195.474 134.528C195.794 134.24 196.186 134.096 196.65 134.096C197.114 134.096 197.498 134.248 197.802 134.552C198.106 134.856 198.258 135.24 198.258 135.704V137.936C198.258 139.312 197.57 140 196.194 140H195.426ZM207.809 137V120.2H209.705V127.136H210.041C210.201 126.784 210.441 126.456 210.761 126.152C211.097 125.832 211.521 125.568 212.033 125.36C212.561 125.152 213.225 125.048 214.025 125.048C214.905 125.048 215.689 125.24 216.377 125.624C217.081 125.992 217.641 126.536 218.057 127.256C218.473 127.96 218.681 128.84 218.681 129.896V137H216.785V130.04C216.785 128.872 216.489 128.024 215.897 127.496C215.321 126.968 214.537 126.704 213.545 126.704C212.409 126.704 211.481 127.072 210.761 127.808C210.057 128.544 209.705 129.64 209.705 131.096V137H207.809ZM222.928 137V125.264H224.824V137H222.928ZM223.888 123.44C223.472 123.44 223.12 123.304 222.832 123.032C222.56 122.76 222.424 122.416 222.424 122C222.424 121.568 222.56 121.216 222.832 120.944C223.12 120.672 223.472 120.536 223.888 120.536C224.304 120.536 224.648 120.672 224.92 120.944C225.192 121.216 225.328 121.568 225.328 122C225.328 122.416 225.192 122.76 224.92 123.032C224.648 123.304 224.304 123.44 223.888 123.44ZM228.635 131.192V130.856C228.635 129.624 228.883 128.568 229.379 127.688C229.875 126.808 230.547 126.128 231.395 125.648C232.243 125.168 233.171 124.928 234.179 124.928C235.411 124.928 236.355 125.168 237.011 125.648C237.683 126.112 238.179 126.632 238.499 127.208H238.835V125.264H240.635V139.736C240.635 140.376 240.459 140.88 240.107 141.248C239.755 141.616 239.243 141.8 238.571 141.8H230.603V140.12H238.067C238.547 140.12 238.787 139.88 238.787 139.4V134.936H238.451C238.259 135.288 237.987 135.632 237.635 135.968C237.283 136.304 236.827 136.584 236.267 136.808C235.707 137.016 235.011 137.12 234.179 137.12C233.171 137.12 232.243 136.88 231.395 136.4C230.547 135.92 229.875 135.24 229.379 134.36C228.883 133.464 228.635 132.408 228.635 131.192ZM234.683 135.44C235.899 135.44 236.883 135.056 237.635 134.288C238.403 133.52 238.787 132.464 238.787 131.12V130.928C238.787 129.568 238.403 128.512 237.635 127.76C236.883 126.992 235.899 126.608 234.683 126.608C233.483 126.608 232.491 126.992 231.707 127.76C230.939 128.512 230.555 129.568 230.555 130.928V131.12C230.555 132.464 230.939 133.52 231.707 134.288C232.491 135.056 233.483 135.44 234.683 135.44ZM245.009 137V120.2H246.905V127.136H247.241C247.401 126.784 247.641 126.456 247.961 126.152C248.297 125.832 248.721 125.568 249.233 125.36C249.761 125.152 250.425 125.048 251.225 125.048C252.105 125.048 252.889 125.24 253.577 125.624C254.281 125.992 254.841 126.536 255.257 127.256C255.673 127.96 255.881 128.84 255.881 129.896V137H253.985V130.04C253.985 128.872 253.689 128.024 253.097 127.496C252.521 126.968 251.737 126.704 250.745 126.704C249.609 126.704 248.681 127.072 247.961 127.808C247.257 128.544 246.905 129.64 246.905 131.096V137H245.009ZM266.116 131.192V130.856C266.116 129.624 266.364 128.568 266.86 127.688C267.356 126.808 268.028 126.128 268.876 125.648C269.724 125.168 270.652 124.928 271.66 124.928C272.892 124.928 273.836 125.168 274.492 125.648C275.164 126.112 275.66 126.632 275.98 127.208H276.316V125.264H278.116V139.736C278.116 140.376 277.94 140.88 277.588 141.248C277.236 141.616 276.724 141.8 276.052 141.8H268.084V140.12H275.548C276.028 140.12 276.268 139.88 276.268 139.4V134.936H275.932C275.74 135.288 275.468 135.632 275.116 135.968C274.764 136.304 274.308 136.584 273.748 136.808C273.188 137.016 272.492 137.12 271.66 137.12C270.652 137.12 269.724 136.88 268.876 136.4C268.028 135.92 267.356 135.24 266.86 134.36C266.364 133.464 266.116 132.408 266.116 131.192ZM272.164 135.44C273.38 135.44 274.364 135.056 275.116 134.288C275.884 133.52 276.268 132.464 276.268 131.12V130.928C276.268 129.568 275.884 128.512 275.116 127.76C274.364 126.992 273.38 126.608 272.164 126.608C270.964 126.608 269.972 126.992 269.188 127.76C268.42 128.512 268.036 129.568 268.036 130.928V131.12C268.036 132.464 268.42 133.52 269.188 134.288C269.972 135.056 270.964 135.44 272.164 135.44ZM286.09 137.336C285.274 137.336 284.53 137.192 283.858 136.904C283.186 136.616 282.658 136.2 282.274 135.656C281.89 135.112 281.698 134.448 281.698 133.664C281.698 132.864 281.89 132.208 282.274 131.696C282.658 131.168 283.186 130.776 283.858 130.52C284.53 130.248 285.282 130.112 286.114 130.112H290.074V129.248C290.074 128.416 289.826 127.76 289.33 127.28C288.85 126.8 288.13 126.56 287.17 126.56C286.226 126.56 285.49 126.792 284.962 127.256C284.434 127.704 284.074 128.312 283.882 129.08L282.106 128.504C282.298 127.848 282.602 127.256 283.018 126.728C283.434 126.184 283.986 125.752 284.674 125.432C285.378 125.096 286.218 124.928 287.194 124.928C288.698 124.928 289.866 125.32 290.698 126.104C291.53 126.872 291.946 127.96 291.946 129.368V134.672C291.946 135.152 292.17 135.392 292.618 135.392H293.698V137H292.042C291.514 137 291.09 136.856 290.77 136.568C290.45 136.264 290.29 135.864 290.29 135.368V135.248H290.002C289.826 135.552 289.586 135.872 289.282 136.208C288.994 136.528 288.594 136.792 288.082 137C287.57 137.224 286.906 137.336 286.09 137.336ZM286.306 135.704C287.426 135.704 288.33 135.376 289.018 134.72C289.722 134.048 290.074 133.112 290.074 131.912V131.648H286.186C285.434 131.648 284.81 131.816 284.314 132.152C283.834 132.472 283.594 132.96 283.594 133.616C283.594 134.272 283.842 134.784 284.338 135.152C284.85 135.52 285.506 135.704 286.306 135.704ZM296.695 137V125.264H298.591V137H296.695ZM297.655 123.44C297.239 123.44 296.887 123.304 296.599 123.032C296.327 122.76 296.191 122.416 296.191 122C296.191 121.568 296.327 121.216 296.599 120.944C296.887 120.672 297.239 120.536 297.655 120.536C298.071 120.536 298.415 120.672 298.687 120.944C298.959 121.216 299.095 121.568 299.095 122C299.095 122.416 298.959 122.76 298.687 123.032C298.415 123.304 298.071 123.44 297.655 123.44ZM302.978 137V125.264H304.826V127.256H305.162C305.418 126.696 305.85 126.192 306.458 125.744C307.082 125.28 307.994 125.048 309.194 125.048C310.074 125.048 310.858 125.232 311.546 125.6C312.25 125.968 312.81 126.512 313.226 127.232C313.642 127.952 313.85 128.84 313.85 129.896V137H311.954V130.04C311.954 128.872 311.658 128.024 311.066 127.496C310.49 126.968 309.706 126.704 308.714 126.704C307.578 126.704 306.65 127.072 305.93 127.808C305.226 128.544 304.874 129.64 304.874 131.096V137H302.978ZM322.825 137.336C321.369 137.336 320.137 137 319.129 136.328C318.137 135.656 317.537 134.592 317.329 133.136L319.129 132.728C319.257 133.496 319.497 134.104 319.849 134.552C320.201 134.984 320.633 135.296 321.145 135.488C321.673 135.664 322.233 135.752 322.825 135.752C323.705 135.752 324.401 135.576 324.913 135.224C325.425 134.872 325.681 134.4 325.681 133.808C325.681 133.2 325.433 132.776 324.937 132.536C324.457 132.28 323.793 132.072 322.945 131.912L321.961 131.744C321.209 131.616 320.521 131.416 319.897 131.144C319.273 130.872 318.777 130.504 318.409 130.04C318.041 129.576 317.857 128.992 317.857 128.288C317.857 127.232 318.265 126.408 319.081 125.816C319.897 125.224 320.977 124.928 322.321 124.928C323.649 124.928 324.721 125.232 325.537 125.84C326.369 126.432 326.905 127.272 327.145 128.36L325.369 128.816C325.225 127.968 324.881 127.376 324.337 127.04C323.793 126.688 323.121 126.512 322.321 126.512C321.521 126.512 320.889 126.664 320.425 126.968C319.961 127.256 319.729 127.688 319.729 128.264C319.729 128.824 319.945 129.24 320.377 129.512C320.825 129.768 321.417 129.96 322.153 130.088L323.137 130.256C323.969 130.4 324.713 130.6 325.369 130.856C326.041 131.096 326.569 131.448 326.953 131.912C327.353 132.376 327.553 132.984 327.553 133.736C327.553 134.888 327.121 135.776 326.257 136.4C325.409 137.024 324.265 137.336 322.825 137.336Z" fill="white"/>
</svg>
