<svg width="420" height="97" viewBox="0 0 420 97" fill="none" xmlns="http://www.w3.org/2000/svg">
<g clip-path="url(#clip0_214_563)">
<path d="M16.9995 30.1021V20.1181H13.3995V18.9021H21.9435V20.1181H18.3435V30.1021H16.9995ZM25.724 30.3261C24.9347 30.3261 24.236 30.1607 23.628 29.8301C23.0307 29.4994 22.5614 29.0354 22.22 28.4381C21.8894 27.8301 21.724 27.1154 21.724 26.2941V26.0861C21.724 25.2754 21.8894 24.5661 22.22 23.9581C22.5614 23.3501 23.0307 22.8807 23.628 22.5501C24.236 22.2194 24.9347 22.0541 25.724 22.0541C26.5134 22.0541 27.2067 22.2194 27.804 22.5501C28.412 22.8807 28.8814 23.3501 29.212 23.9581C29.5534 24.5661 29.724 25.2754 29.724 26.0861V26.2941C29.724 27.1154 29.5534 27.8301 29.212 28.4381C28.8814 29.0354 28.412 29.4994 27.804 29.8301C27.2067 30.1607 26.5134 30.3261 25.724 30.3261ZM25.724 29.1901C26.556 29.1901 27.2174 28.9287 27.708 28.4061C28.2094 27.8727 28.46 27.1581 28.46 26.2621V26.1181C28.46 25.2221 28.2094 24.5127 27.708 23.9901C27.2174 23.4567 26.556 23.1901 25.724 23.1901C24.9027 23.1901 24.2414 23.4567 23.74 23.9901C23.2387 24.5127 22.988 25.2221 22.988 26.1181V26.2621C22.988 27.1581 23.2387 27.8727 23.74 28.4061C24.2414 28.9287 24.9027 29.1901 25.724 29.1901ZM36.108 30.1021V18.9021H37.372V23.5261H37.596C37.7027 23.2914 37.8627 23.0727 38.076 22.8701C38.3 22.6567 38.5827 22.4807 38.924 22.3421C39.276 22.2034 39.7187 22.1341 40.252 22.1341C40.8387 22.1341 41.3614 22.2621 41.82 22.5181C42.2894 22.7634 42.6627 23.1261 42.94 23.6061C43.2174 24.0754 43.356 24.6621 43.356 25.3661V30.1021H42.092V25.4621C42.092 24.6834 41.8947 24.1181 41.5 23.7661C41.116 23.4141 40.5934 23.2381 39.932 23.2381C39.1747 23.2381 38.556 23.4834 38.076 23.9741C37.6067 24.4647 37.372 25.1954 37.372 26.1661V30.1021H36.108ZM49.5045 30.3261C48.7152 30.3261 48.0219 30.1607 47.4245 29.8301C46.8272 29.4887 46.3632 29.0141 46.0325 28.4061C45.7019 27.7981 45.5365 27.0941 45.5365 26.2941V26.1021C45.5365 25.2914 45.7019 24.5821 46.0325 23.9741C46.3632 23.3661 46.8219 22.8967 47.4085 22.5661C47.9952 22.2247 48.6672 22.0541 49.4245 22.0541C50.1605 22.0541 50.8112 22.2141 51.3765 22.5341C51.9419 22.8434 52.3845 23.2914 52.7045 23.8781C53.0245 24.4647 53.1845 25.1527 53.1845 25.9421V26.5181H46.8005C46.8325 27.3607 47.1045 28.0221 47.6165 28.5021C48.1285 28.9714 48.7685 29.2061 49.5365 29.2061C50.2085 29.2061 50.7259 29.0514 51.0885 28.7421C51.4512 28.4327 51.7285 28.0647 51.9205 27.6381L53.0085 28.1661C52.8485 28.4967 52.6245 28.8274 52.3365 29.1581C52.0592 29.4887 51.6912 29.7661 51.2325 29.9901C50.7845 30.2141 50.2085 30.3261 49.5045 30.3261ZM46.8165 25.4781H51.9045C51.8619 24.7527 51.6112 24.1874 51.1525 23.7821C50.7045 23.3767 50.1285 23.1741 49.4245 23.1741C48.7099 23.1741 48.1232 23.3767 47.6645 23.7821C47.2059 24.1874 46.9232 24.7527 46.8165 25.4781ZM55.3893 30.1021V18.9021H56.6533V30.1021H55.3893ZM59.3112 33.3021V22.2781H60.5432V23.5741H60.7672C60.9698 23.1794 61.2952 22.8274 61.7432 22.5181C62.2018 22.2087 62.8365 22.0541 63.6472 22.0541C64.3192 22.0541 64.9325 22.2194 65.4872 22.5501C66.0525 22.8701 66.5005 23.3287 66.8312 23.9261C67.1725 24.5234 67.3432 25.2434 67.3432 26.0861V26.2941C67.3432 27.1261 67.1778 27.8461 66.8472 28.4541C66.5165 29.0621 66.0685 29.5261 65.5032 29.8461C64.9485 30.1661 64.3298 30.3261 63.6472 30.3261C63.1032 30.3261 62.6392 30.2514 62.2552 30.1021C61.8818 29.9634 61.5778 29.7821 61.3432 29.5581C61.1085 29.3341 60.9272 29.1047 60.7992 28.8701H60.5752V33.3021H59.3112ZM63.3112 29.2061C64.1218 29.2061 64.7778 28.9501 65.2792 28.4381C65.7912 27.9154 66.0472 27.1901 66.0472 26.2621V26.1181C66.0472 25.1901 65.7912 24.4701 65.2792 23.9581C64.7778 23.4354 64.1218 23.1741 63.3112 23.1741C62.5112 23.1741 61.8498 23.4354 61.3272 23.9581C60.8152 24.4701 60.5592 25.1901 60.5592 26.1181V26.2621C60.5592 27.1901 60.8152 27.9154 61.3272 28.4381C61.8498 28.9501 62.5112 29.2061 63.3112 29.2061ZM76.7094 30.2461C76.1441 30.2461 75.6214 30.1234 75.1414 29.8781C74.6721 29.6327 74.2987 29.2701 74.0214 28.7901C73.7547 28.2994 73.6214 27.7074 73.6214 27.0141V22.2781H74.8854V26.9181C74.8854 27.6967 75.0774 28.2621 75.4614 28.6141C75.8561 28.9661 76.3841 29.1421 77.0454 29.1421C77.7921 29.1421 78.4054 28.8967 78.8854 28.4061C79.3654 27.9154 79.6054 27.1847 79.6054 26.2141V22.2781H80.8694V30.1021H79.6374V28.7741H79.4134C79.2427 29.1474 78.9494 29.4887 78.5334 29.7981C78.1174 30.0967 77.5094 30.2461 76.7094 30.2461ZM86.6663 30.3261C85.6956 30.3261 84.8743 30.1021 84.2023 29.6541C83.5409 29.2061 83.1409 28.4967 83.0023 27.5261L84.2023 27.2541C84.2876 27.7661 84.4476 28.1714 84.6823 28.4701C84.9169 28.7581 85.2049 28.9661 85.5463 29.0941C85.8983 29.2114 86.2716 29.2701 86.6663 29.2701C87.2529 29.2701 87.7169 29.1527 88.0583 28.9181C88.3996 28.6834 88.5703 28.3687 88.5703 27.9741C88.5703 27.5687 88.4049 27.2861 88.0743 27.1261C87.7543 26.9554 87.3116 26.8167 86.7463 26.7101L86.0903 26.5981C85.5889 26.5127 85.1303 26.3794 84.7143 26.1981C84.2983 26.0167 83.9676 25.7714 83.7223 25.4621C83.4769 25.1527 83.3543 24.7634 83.3543 24.2941C83.3543 23.5901 83.6263 23.0407 84.1703 22.6461C84.7143 22.2514 85.4343 22.0541 86.3303 22.0541C87.2156 22.0541 87.9303 22.2567 88.4743 22.6621C89.0289 23.0567 89.3863 23.6167 89.5463 24.3421L88.3623 24.6461C88.2663 24.0807 88.0369 23.6861 87.6743 23.4621C87.3116 23.2274 86.8636 23.1101 86.3303 23.1101C85.7969 23.1101 85.3756 23.2114 85.0663 23.4141C84.7569 23.6061 84.6023 23.8941 84.6023 24.2781C84.6023 24.6514 84.7463 24.9287 85.0343 25.1101C85.3329 25.2807 85.7276 25.4087 86.2183 25.4941L86.8743 25.6061C87.4289 25.7021 87.9249 25.8354 88.3623 26.0061C88.8103 26.1661 89.1623 26.4007 89.4183 26.7101C89.6849 27.0194 89.8183 27.4247 89.8183 27.9261C89.8183 28.6941 89.5303 29.2861 88.9543 29.7021C88.3889 30.1181 87.6263 30.3261 86.6663 30.3261ZM96.0612 30.1021V22.2781H97.3252V30.1021H96.0612ZM96.7012 21.0621C96.4238 21.0621 96.1892 20.9714 95.9972 20.7901C95.8158 20.6087 95.7252 20.3794 95.7252 20.1021C95.7252 19.8141 95.8158 19.5794 95.9972 19.3981C96.1892 19.2167 96.4238 19.126 96.7012 19.126C96.9785 19.126 97.2078 19.2167 97.3892 19.3981C97.5705 19.5794 97.6612 19.8141 97.6612 20.1021C97.6612 20.3794 97.5705 20.6087 97.3892 20.7901C97.2078 20.9714 96.9785 21.0621 96.7012 21.0621ZM99.983 30.1021V22.2781H101.215V23.2541H101.439C101.588 22.9767 101.834 22.7207 102.175 22.4861C102.516 22.2514 102.996 22.1341 103.615 22.1341C104.223 22.1341 104.714 22.2674 105.087 22.5341C105.471 22.8007 105.748 23.1261 105.919 23.5101H106.143C106.324 23.1261 106.596 22.8007 106.959 22.5341C107.332 22.2674 107.85 22.1341 108.511 22.1341C109.034 22.1341 109.492 22.2407 109.887 22.4541C110.282 22.6674 110.591 22.9767 110.815 23.3821C111.05 23.7767 111.167 24.2514 111.167 24.8061V30.1021H109.903V24.9181C109.903 24.3954 109.748 23.9847 109.439 23.6861C109.14 23.3767 108.719 23.2221 108.175 23.2221C107.599 23.2221 107.124 23.4087 106.751 23.7821C106.388 24.1554 106.207 24.6941 106.207 25.3981V30.1021H104.943V24.9181C104.943 24.3954 104.788 23.9847 104.479 23.6861C104.18 23.3767 103.759 23.2221 103.215 23.2221C102.639 23.2221 102.164 23.4087 101.791 23.7821C101.428 24.1554 101.247 24.6941 101.247 25.3981V30.1021H99.983ZM113.749 33.3021V22.2781H114.981V23.5741H115.205C115.407 23.1794 115.733 22.8274 116.181 22.5181C116.639 22.2087 117.274 22.0541 118.085 22.0541C118.757 22.0541 119.37 22.2194 119.925 22.5501C120.49 22.8701 120.938 23.3287 121.269 23.9261C121.61 24.5234 121.781 25.2434 121.781 26.0861V26.2941C121.781 27.1261 121.615 27.8461 121.285 28.4541C120.954 29.0621 120.506 29.5261 119.941 29.8461C119.386 30.1661 118.767 30.3261 118.085 30.3261C117.541 30.3261 117.077 30.2514 116.693 30.1021C116.319 29.9634 116.015 29.7821 115.781 29.5581C115.546 29.3341 115.365 29.1047 115.237 28.8701H115.013V33.3021H113.749ZM117.749 29.2061C118.559 29.2061 119.215 28.9501 119.717 28.4381C120.229 27.9154 120.485 27.1901 120.485 26.2621V26.1181C120.485 25.1901 120.229 24.4701 119.717 23.9581C119.215 23.4354 118.559 23.1741 117.749 23.1741C116.949 23.1741 116.287 23.4354 115.765 23.9581C115.253 24.4701 114.997 25.1901 114.997 26.1181V26.2621C114.997 27.1901 115.253 27.9154 115.765 28.4381C116.287 28.9501 116.949 29.2061 117.749 29.2061ZM124.046 30.1021V22.2781H125.278V23.2381H125.502C125.64 22.8967 125.854 22.6461 126.142 22.4861C126.43 22.3261 126.808 22.2461 127.278 22.2461H128.206V23.3981H127.198C126.632 23.3981 126.174 23.5581 125.822 23.8781C125.48 24.1874 125.31 24.6727 125.31 25.3341V30.1021H124.046ZM133.412 30.3261C132.622 30.3261 131.924 30.1607 131.316 29.8301C130.718 29.4994 130.249 29.0354 129.908 28.4381C129.577 27.8301 129.412 27.1154 129.412 26.2941V26.0861C129.412 25.2754 129.577 24.5661 129.908 23.9581C130.249 23.3501 130.718 22.8807 131.316 22.5501C131.924 22.2194 132.622 22.0541 133.412 22.0541C134.201 22.0541 134.894 22.2194 135.492 22.5501C136.1 22.8807 136.569 23.3501 136.9 23.9581C137.241 24.5661 137.412 25.2754 137.412 26.0861V26.2941C137.412 27.1154 137.241 27.8301 136.9 28.4381C136.569 29.0354 136.1 29.4994 135.492 29.8301C134.894 30.1607 134.201 30.3261 133.412 30.3261ZM133.412 29.1901C134.244 29.1901 134.905 28.9287 135.396 28.4061C135.897 27.8727 136.148 27.1581 136.148 26.2621V26.1181C136.148 25.2221 135.897 24.5127 135.396 23.9901C134.905 23.4567 134.244 23.1901 133.412 23.1901C132.59 23.1901 131.929 23.4567 131.428 23.9901C130.926 24.5127 130.676 25.2221 130.676 26.1181V26.2621C130.676 27.1581 130.926 27.8727 131.428 28.4061C131.929 28.9287 132.59 29.1901 133.412 29.1901ZM141.342 30.1021L138.542 22.2781H139.886L142.238 29.1581H142.462L144.814 22.2781H146.158L143.358 30.1021H141.342ZM151.239 30.3261C150.45 30.3261 149.756 30.1607 149.159 29.8301C148.562 29.4887 148.098 29.0141 147.767 28.4061C147.436 27.7981 147.271 27.0941 147.271 26.2941V26.1021C147.271 25.2914 147.436 24.5821 147.767 23.9741C148.098 23.3661 148.556 22.8967 149.143 22.5661C149.73 22.2247 150.402 22.0541 151.159 22.0541C151.895 22.0541 152.546 22.2141 153.111 22.5341C153.676 22.8434 154.119 23.2914 154.439 23.8781C154.759 24.4647 154.919 25.1527 154.919 25.9421V26.5181H148.535C148.567 27.3607 148.839 28.0221 149.351 28.5021C149.863 28.9714 150.503 29.2061 151.271 29.2061C151.943 29.2061 152.46 29.0514 152.823 28.7421C153.186 28.4327 153.463 28.0647 153.655 27.6381L154.743 28.1661C154.583 28.4967 154.359 28.8274 154.071 29.1581C153.794 29.4887 153.426 29.7661 152.967 29.9901C152.519 30.2141 151.943 30.3261 151.239 30.3261ZM148.551 25.4781H153.639C153.596 24.7527 153.346 24.1874 152.887 23.7821C152.439 23.3767 151.863 23.1741 151.159 23.1741C150.444 23.1741 149.858 23.3767 149.399 23.7821C148.94 24.1874 148.658 24.7527 148.551 25.4781ZM156.886 32.1021V31.3021H157.35C157.734 31.3021 157.926 31.1101 157.926 30.7261V30.2141H157.702C157.393 30.2141 157.132 30.1181 156.918 29.9261C156.716 29.7341 156.614 29.4941 156.614 29.2061C156.614 28.8967 156.716 28.6461 156.918 28.4541C157.132 28.2621 157.393 28.1661 157.702 28.1661C158.012 28.1661 158.268 28.2674 158.47 28.4701C158.673 28.6727 158.774 28.9287 158.774 29.2381V30.7261C158.774 31.6434 158.316 32.1021 157.398 32.1021H156.886ZM168.208 30.3261C167.451 30.3261 166.768 30.1661 166.16 29.8461C165.563 29.5154 165.088 29.0461 164.736 28.4381C164.395 27.8301 164.224 27.1101 164.224 26.2781V26.1021C164.224 25.2594 164.395 24.5394 164.736 23.9421C165.088 23.3341 165.563 22.8701 166.16 22.5501C166.768 22.2194 167.451 22.0541 168.208 22.0541C168.955 22.0541 169.589 22.1927 170.112 22.4701C170.645 22.7474 171.061 23.1154 171.36 23.5741C171.669 24.0327 171.867 24.5234 171.952 25.0461L170.72 25.3021C170.667 24.9181 170.539 24.5661 170.336 24.2461C170.144 23.9261 169.872 23.6701 169.52 23.4781C169.168 23.2861 168.736 23.1901 168.224 23.1901C167.701 23.1901 167.232 23.3074 166.816 23.5421C166.411 23.7767 166.085 24.1127 165.84 24.5501C165.605 24.9874 165.488 25.5101 165.488 26.1181V26.2621C165.488 26.8701 165.605 27.3927 165.84 27.8301C166.085 28.2674 166.411 28.6034 166.816 28.8381C167.232 29.0727 167.701 29.1901 168.224 29.1901C169.003 29.1901 169.595 28.9874 170 28.5821C170.416 28.1767 170.672 27.6754 170.768 27.0781L172.016 27.3501C171.899 27.8621 171.685 28.3474 171.376 28.8061C171.067 29.2647 170.645 29.6327 170.112 29.9101C169.589 30.1874 168.955 30.3261 168.208 30.3261ZM176.571 30.3261C176.027 30.3261 175.531 30.2301 175.083 30.0381C174.635 29.8461 174.283 29.5687 174.027 29.2061C173.771 28.8434 173.643 28.4007 173.643 27.8781C173.643 27.3447 173.771 26.9074 174.027 26.5661C174.283 26.2141 174.635 25.9527 175.083 25.7821C175.531 25.6007 176.032 25.5101 176.587 25.5101H179.227V24.9341C179.227 24.3794 179.061 23.9421 178.731 23.6221C178.411 23.3021 177.931 23.1421 177.291 23.1421C176.661 23.1421 176.171 23.2967 175.819 23.6061C175.467 23.9047 175.227 24.3101 175.099 24.8221L173.915 24.4381C174.043 24.0007 174.245 23.6061 174.523 23.2541C174.8 22.8914 175.168 22.6034 175.627 22.3901C176.096 22.1661 176.656 22.0541 177.307 22.0541C178.309 22.0541 179.088 22.3154 179.643 22.8381C180.197 23.3501 180.475 24.0754 180.475 25.0141V28.5501C180.475 28.8701 180.624 29.0301 180.923 29.0301H181.643V30.1021H180.539C180.187 30.1021 179.904 30.0061 179.691 29.8141C179.477 29.6114 179.371 29.3447 179.371 29.0141V28.9341H179.179C179.061 29.1367 178.901 29.3501 178.699 29.5741C178.507 29.7874 178.24 29.9634 177.899 30.1021C177.557 30.2514 177.115 30.3261 176.571 30.3261ZM176.715 29.2381C177.461 29.2381 178.064 29.0194 178.523 28.5821C178.992 28.1341 179.227 27.5101 179.227 26.7101V26.5341H176.635C176.133 26.5341 175.717 26.6461 175.387 26.8701C175.067 27.0834 174.907 27.4087 174.907 27.8461C174.907 28.2834 175.072 28.6247 175.403 28.8701C175.744 29.1154 176.181 29.2381 176.715 29.2381ZM183.374 30.1021V22.2781H184.606V23.6061H184.83C185 23.2327 185.288 22.8967 185.694 22.5981C186.11 22.2887 186.718 22.1341 187.518 22.1341C188.104 22.1341 188.627 22.2567 189.086 22.5021C189.555 22.7474 189.928 23.1101 190.206 23.5901C190.483 24.0701 190.622 24.6621 190.622 25.3661V30.1021H189.358V25.4621C189.358 24.6834 189.16 24.1181 188.766 23.7661C188.382 23.4141 187.859 23.2381 187.198 23.2381C186.44 23.2381 185.822 23.4834 185.342 23.9741C184.872 24.4647 184.638 25.1954 184.638 26.1661V30.1021H183.374ZM198.24 33.3021V32.1821H202.72C203.029 32.1821 203.184 32.0221 203.184 31.7021V28.8541H202.96C202.853 29.0781 202.688 29.3021 202.464 29.5261C202.25 29.7394 201.968 29.9154 201.616 30.0541C201.264 30.1821 200.821 30.2461 200.288 30.2461C199.722 30.2461 199.2 30.1234 198.72 29.8781C198.25 29.6327 197.877 29.2701 197.6 28.7901C197.333 28.3101 197.2 27.7234 197.2 27.0301V22.2781H198.464V26.9341C198.464 27.7021 198.656 28.2621 199.04 28.6141C199.434 28.9661 199.962 29.1421 200.624 29.1421C201.37 29.1421 201.984 28.8967 202.464 28.4061C202.944 27.9154 203.184 27.1847 203.184 26.2141V22.2781H204.448V31.9261C204.448 32.3527 204.325 32.6887 204.08 32.9341C203.845 33.1794 203.498 33.3021 203.04 33.3021H198.24ZM210.708 30.3261C209.919 30.3261 209.22 30.1607 208.612 29.8301C208.015 29.4994 207.546 29.0354 207.204 28.4381C206.874 27.8301 206.708 27.1154 206.708 26.2941V26.0861C206.708 25.2754 206.874 24.5661 207.204 23.9581C207.546 23.3501 208.015 22.8807 208.612 22.5501C209.22 22.2194 209.919 22.0541 210.708 22.0541C211.498 22.0541 212.191 22.2194 212.788 22.5501C213.396 22.8807 213.866 23.3501 214.196 23.9581C214.538 24.5661 214.708 25.2754 214.708 26.0861V26.2941C214.708 27.1154 214.538 27.8301 214.196 28.4381C213.866 29.0354 213.396 29.4994 212.788 29.8301C212.191 30.1607 211.498 30.3261 210.708 30.3261ZM210.708 29.1901C211.54 29.1901 212.202 28.9287 212.692 28.4061C213.194 27.8727 213.444 27.1581 213.444 26.2621V26.1181C213.444 25.2221 213.194 24.5127 212.692 23.9901C212.202 23.4567 211.54 23.1901 210.708 23.1901C209.887 23.1901 209.226 23.4567 208.724 23.9901C208.223 24.5127 207.972 25.2221 207.972 26.1181V26.2621C207.972 27.1581 208.223 27.8727 208.724 28.4061C209.226 28.9287 209.887 29.1901 210.708 29.1901ZM219.975 30.2461C219.41 30.2461 218.887 30.1234 218.407 29.8781C217.938 29.6327 217.564 29.2701 217.287 28.7901C217.02 28.2994 216.887 27.7074 216.887 27.0141V22.2781H218.151V26.9181C218.151 27.6967 218.343 28.2621 218.727 28.6141C219.122 28.9661 219.65 29.1421 220.311 29.1421C221.058 29.1421 221.671 28.8967 222.151 28.4061C222.631 27.9154 222.871 27.1847 222.871 26.2141V22.2781H224.135V30.1021H222.903V28.7741H222.679C222.508 29.1474 222.215 29.4887 221.799 29.7981C221.383 30.0967 220.775 30.2461 219.975 30.2461ZM233.769 30.1021C233.321 30.1021 232.975 29.9794 232.729 29.7341C232.495 29.4887 232.377 29.1527 232.377 28.7261V23.3821H230.025V22.2781H232.377V19.4941H233.641V22.2781H236.201V23.3821H233.641V28.5341C233.641 28.8541 233.796 29.0141 234.105 29.0141H235.849V30.1021H233.769ZM241.551 30.3261C240.762 30.3261 240.069 30.1607 239.471 29.8301C238.874 29.4887 238.41 29.0141 238.079 28.4061C237.749 27.7981 237.583 27.0941 237.583 26.2941V26.1021C237.583 25.2914 237.749 24.5821 238.079 23.9741C238.41 23.3661 238.869 22.8967 239.455 22.5661C240.042 22.2247 240.714 22.0541 241.471 22.0541C242.207 22.0541 242.858 22.2141 243.423 22.5341C243.989 22.8434 244.431 23.2914 244.751 23.8781C245.071 24.4647 245.231 25.1527 245.231 25.9421V26.5181H238.847C238.879 27.3607 239.151 28.0221 239.663 28.5021C240.175 28.9714 240.815 29.2061 241.583 29.2061C242.255 29.2061 242.773 29.0514 243.135 28.7421C243.498 28.4327 243.775 28.0647 243.967 27.6381L245.055 28.1661C244.895 28.4967 244.671 28.8274 244.383 29.1581C244.106 29.4887 243.738 29.7661 243.279 29.9901C242.831 30.2141 242.255 30.3261 241.551 30.3261ZM238.863 25.4781H243.951C243.909 24.7527 243.658 24.1874 243.199 23.7821C242.751 23.3767 242.175 23.1741 241.471 23.1741C240.757 23.1741 240.17 23.3767 239.711 23.7821C239.253 24.1874 238.97 24.7527 238.863 25.4781ZM247.436 30.1021V18.9021H248.7V30.1021H247.436ZM251.358 30.1021V18.9021H252.622V30.1021H251.358ZM262.381 30.2461C261.816 30.2461 261.293 30.1234 260.813 29.8781C260.344 29.6327 259.971 29.2701 259.693 28.7901C259.427 28.2994 259.293 27.7074 259.293 27.0141V22.2781H260.557V26.9181C260.557 27.6967 260.749 28.2621 261.133 28.6141C261.528 28.9661 262.056 29.1421 262.717 29.1421C263.464 29.1421 264.077 28.8967 264.557 28.4061C265.037 27.9154 265.277 27.1847 265.277 26.2141V22.2781H266.541V30.1021H265.309V28.7741H265.085C264.915 29.1474 264.621 29.4887 264.205 29.7981C263.789 30.0967 263.181 30.2461 262.381 30.2461ZM272.338 30.3261C271.367 30.3261 270.546 30.1021 269.874 29.6541C269.213 29.2061 268.813 28.4967 268.674 27.5261L269.874 27.2541C269.959 27.7661 270.119 28.1714 270.354 28.4701C270.589 28.7581 270.877 28.9661 271.218 29.0941C271.57 29.2114 271.943 29.2701 272.338 29.2701C272.925 29.2701 273.389 29.1527 273.73 28.9181C274.071 28.6834 274.242 28.3687 274.242 27.9741C274.242 27.5687 274.077 27.2861 273.746 27.1261C273.426 26.9554 272.983 26.8167 272.418 26.7101L271.762 26.5981C271.261 26.5127 270.802 26.3794 270.386 26.1981C269.97 26.0167 269.639 25.7714 269.394 25.4621C269.149 25.1527 269.026 24.7634 269.026 24.2941C269.026 23.5901 269.298 23.0407 269.842 22.6461C270.386 22.2514 271.106 22.0541 272.002 22.0541C272.887 22.0541 273.602 22.2567 274.146 22.6621C274.701 23.0567 275.058 23.6167 275.218 24.3421L274.034 24.6461C273.938 24.0807 273.709 23.6861 273.346 23.4621C272.983 23.2274 272.535 23.1101 272.002 23.1101C271.469 23.1101 271.047 23.2114 270.738 23.4141C270.429 23.6061 270.274 23.8941 270.274 24.2781C270.274 24.6514 270.418 24.9287 270.706 25.1101C271.005 25.2807 271.399 25.4087 271.89 25.4941L272.546 25.6061C273.101 25.7021 273.597 25.8354 274.034 26.0061C274.482 26.1661 274.834 26.4007 275.09 26.7101C275.357 27.0194 275.49 27.4247 275.49 27.9261C275.49 28.6941 275.202 29.2861 274.626 29.7021C274.061 30.1181 273.298 30.3261 272.338 30.3261ZM14.2955 54.1021V46.2781H15.5275V47.2541H15.7515C15.9009 46.9767 16.1462 46.7207 16.4875 46.4861C16.8289 46.2514 17.3089 46.1341 17.9275 46.1341C18.5355 46.1341 19.0262 46.2674 19.3995 46.5341C19.7835 46.8007 20.0609 47.1261 20.2315 47.5101H20.4555C20.6369 47.1261 20.9089 46.8007 21.2715 46.5341C21.6449 46.2674 22.1622 46.1341 22.8235 46.1341C23.3462 46.1341 23.8049 46.2407 24.1995 46.4541C24.5942 46.6674 24.9035 46.9767 25.1275 47.3821C25.3622 47.7767 25.4795 48.2514 25.4795 48.8061V54.1021H24.2155V48.9181C24.2155 48.3954 24.0609 47.9847 23.7515 47.6861C23.4529 47.3767 23.0315 47.2221 22.4875 47.2221C21.9115 47.2221 21.4369 47.4087 21.0635 47.7821C20.7009 48.1554 20.5195 48.6941 20.5195 49.3981V54.1021H19.2555V48.9181C19.2555 48.3954 19.1009 47.9847 18.7915 47.6861C18.4929 47.3767 18.0715 47.2221 17.5275 47.2221C16.9515 47.2221 16.4769 47.4087 16.1035 47.7821C15.7409 48.1554 15.5595 48.6941 15.5595 49.3981V54.1021H14.2955ZM31.6772 54.3261C30.8878 54.3261 30.1892 54.1607 29.5812 53.8301C28.9838 53.4994 28.5145 53.0354 28.1732 52.4381C27.8425 51.8301 27.6772 51.1154 27.6772 50.2941V50.0861C27.6772 49.2754 27.8425 48.5661 28.1732 47.9581C28.5145 47.3501 28.9838 46.8807 29.5812 46.5501C30.1892 46.2194 30.8878 46.0541 31.6772 46.0541C32.4665 46.0541 33.1598 46.2194 33.7572 46.5501C34.3652 46.8807 34.8345 47.3501 35.1652 47.9581C35.5065 48.5661 35.6772 49.2754 35.6772 50.0861V50.2941C35.6772 51.1154 35.5065 51.8301 35.1652 52.4381C34.8345 53.0354 34.3652 53.4994 33.7572 53.8301C33.1598 54.1607 32.4665 54.3261 31.6772 54.3261ZM31.6772 53.1901C32.5092 53.1901 33.1705 52.9287 33.6612 52.4061C34.1625 51.8727 34.4132 51.1581 34.4132 50.2621V50.1181C34.4132 49.2221 34.1625 48.5127 33.6612 47.9901C33.1705 47.4567 32.5092 47.1901 31.6772 47.1901C30.8558 47.1901 30.1945 47.4567 29.6932 47.9901C29.1918 48.5127 28.9412 49.2221 28.9412 50.1181V50.2621C28.9412 51.1581 29.1918 51.8727 29.6932 52.4061C30.1945 52.9287 30.8558 53.1901 31.6772 53.1901ZM37.9518 54.1021V46.2781H39.1838V47.2381H39.4078C39.5464 46.8967 39.7598 46.6461 40.0478 46.4861C40.3358 46.3261 40.7144 46.2461 41.1838 46.2461H42.1118V47.3981H41.1038C40.5384 47.3981 40.0798 47.5581 39.7278 47.8781C39.3864 48.1874 39.2158 48.6727 39.2158 49.3341V54.1021H37.9518ZM47.2858 54.3261C46.4964 54.3261 45.8031 54.1607 45.2058 53.8301C44.6084 53.4887 44.1444 53.0141 43.8138 52.4061C43.4831 51.7981 43.3178 51.0941 43.3178 50.2941V50.1021C43.3178 49.2914 43.4831 48.5821 43.8138 47.9741C44.1444 47.3661 44.6031 46.8967 45.1898 46.5661C45.7764 46.2247 46.4484 46.0541 47.2058 46.0541C47.9418 46.0541 48.5924 46.2141 49.1578 46.5341C49.7231 46.8434 50.1658 47.2914 50.4858 47.8781C50.8058 48.4647 50.9658 49.1527 50.9658 49.9421V50.5181H44.5818C44.6138 51.3607 44.8858 52.0221 45.3978 52.5021C45.9098 52.9714 46.5498 53.2061 47.3178 53.2061C47.9898 53.2061 48.5071 53.0514 48.8698 52.7421C49.2324 52.4327 49.5098 52.0647 49.7018 51.6381L50.7898 52.1661C50.6298 52.4967 50.4058 52.8274 50.1178 53.1581C49.8404 53.4887 49.4724 53.7661 49.0138 53.9901C48.5658 54.2141 47.9898 54.3261 47.2858 54.3261ZM44.5978 49.4781H49.6858C49.6431 48.7527 49.3924 48.1874 48.9338 47.7821C48.4858 47.3767 47.9098 47.1741 47.2058 47.1741C46.4911 47.1741 45.9044 47.3767 45.4458 47.7821C44.9871 48.1874 44.7044 48.7527 44.5978 49.4781ZM59.6799 54.3261C59.1359 54.3261 58.6399 54.2301 58.1919 54.0381C57.7439 53.8461 57.3919 53.5687 57.1359 53.2061C56.8799 52.8434 56.7519 52.4007 56.7519 51.8781C56.7519 51.3447 56.8799 50.9074 57.1359 50.5661C57.3919 50.2141 57.7439 49.9527 58.1919 49.7821C58.6399 49.6007 59.1412 49.5101 59.6959 49.5101H62.3359V48.9341C62.3359 48.3794 62.1706 47.9421 61.8399 47.6221C61.5199 47.3021 61.0399 47.1421 60.3999 47.1421C59.7706 47.1421 59.2799 47.2967 58.9279 47.6061C58.5759 47.9047 58.3359 48.3101 58.2079 48.8221L57.0239 48.4381C57.1519 48.0007 57.3546 47.6061 57.6319 47.2541C57.9092 46.8914 58.2772 46.6034 58.7359 46.3901C59.2052 46.1661 59.7652 46.0541 60.4159 46.0541C61.4186 46.0541 62.1972 46.3154 62.7519 46.8381C63.3066 47.3501 63.5839 48.0754 63.5839 49.0141V52.5501C63.5839 52.8701 63.7332 53.0301 64.0319 53.0301H64.7519V54.1021H63.6479C63.2959 54.1021 63.0132 54.0061 62.7999 53.8141C62.5866 53.6114 62.4799 53.3447 62.4799 53.0141V52.9341H62.2879C62.1706 53.1367 62.0106 53.3501 61.8079 53.5741C61.6159 53.7874 61.3492 53.9634 61.0079 54.1021C60.6666 54.2514 60.2239 54.3261 59.6799 54.3261ZM59.8239 53.2381C60.5706 53.2381 61.1732 53.0194 61.6319 52.5821C62.1012 52.1341 62.3359 51.5101 62.3359 50.7101V50.5341H59.7439C59.2426 50.5341 58.8266 50.6461 58.4959 50.8701C58.1759 51.0834 58.0159 51.4087 58.0159 51.8461C58.0159 52.2834 58.1812 52.6247 58.5119 52.8701C58.8532 53.1154 59.2906 53.2381 59.8239 53.2381ZM70.819 54.3261C70.0084 54.3261 69.3737 54.1714 68.915 53.8621C68.467 53.5527 68.1417 53.2007 67.939 52.8061H67.715V54.1021H66.483V42.9021H67.747V47.5101H67.971C68.099 47.2647 68.2804 47.0354 68.515 46.8221C68.7497 46.5981 69.0537 46.4167 69.427 46.2781C69.811 46.1287 70.275 46.0541 70.819 46.0541C71.5017 46.0541 72.1204 46.2194 72.675 46.5501C73.2404 46.8701 73.6884 47.3341 74.019 47.9421C74.3497 48.5394 74.515 49.2541 74.515 50.0861V50.2941C74.515 51.1261 74.3444 51.8461 74.003 52.4541C73.6724 53.0621 73.2244 53.5261 72.659 53.8461C72.1044 54.1661 71.491 54.3261 70.819 54.3261ZM70.483 53.2061C71.2937 53.2061 71.9497 52.9501 72.451 52.4381C72.963 51.9154 73.219 51.1901 73.219 50.2621V50.1181C73.219 49.1901 72.963 48.4701 72.451 47.9581C71.9497 47.4354 71.2937 47.1741 70.483 47.1741C69.683 47.1741 69.0217 47.4354 68.499 47.9581C67.987 48.4701 67.731 49.1901 67.731 50.1181V50.2621C67.731 51.1901 67.987 51.9154 68.499 52.4381C69.0217 52.9501 69.683 53.2061 70.483 53.2061ZM80.3959 54.3261C79.6066 54.3261 78.9079 54.1607 78.2999 53.8301C77.7026 53.4994 77.2332 53.0354 76.8919 52.4381C76.5612 51.8301 76.3959 51.1154 76.3959 50.2941V50.0861C76.3959 49.2754 76.5612 48.5661 76.8919 47.9581C77.2332 47.3501 77.7026 46.8807 78.2999 46.5501C78.9079 46.2194 79.6066 46.0541 80.3959 46.0541C81.1852 46.0541 81.8786 46.2194 82.4759 46.5501C83.0839 46.8807 83.5532 47.3501 83.8839 47.9581C84.2252 48.5661 84.3959 49.2754 84.3959 50.0861V50.2941C84.3959 51.1154 84.2252 51.8301 83.8839 52.4381C83.5532 53.0354 83.0839 53.4994 82.4759 53.8301C81.8786 54.1607 81.1852 54.3261 80.3959 54.3261ZM80.3959 53.1901C81.2279 53.1901 81.8892 52.9287 82.3799 52.4061C82.8812 51.8727 83.1319 51.1581 83.1319 50.2621V50.1181C83.1319 49.2221 82.8812 48.5127 82.3799 47.9901C81.8892 47.4567 81.2279 47.1901 80.3959 47.1901C79.5746 47.1901 78.9132 47.4567 78.4119 47.9901C77.9106 48.5127 77.6599 49.2221 77.6599 50.1181V50.2621C77.6599 51.1581 77.9106 51.8727 78.4119 52.4061C78.9132 52.9287 79.5746 53.1901 80.3959 53.1901ZM89.6625 54.2461C89.0972 54.2461 88.5745 54.1234 88.0945 53.8781C87.6252 53.6327 87.2519 53.2701 86.9745 52.7901C86.7079 52.2994 86.5745 51.7074 86.5745 51.0141V46.2781H87.8385V50.9181C87.8385 51.6967 88.0305 52.2621 88.4145 52.6141C88.8092 52.9661 89.3372 53.1421 89.9985 53.1421C90.7452 53.1421 91.3585 52.8967 91.8385 52.4061C92.3185 51.9154 92.5585 51.1847 92.5585 50.2141V46.2781H93.8225V54.1021H92.5905V52.7741H92.3665C92.1959 53.1474 91.9025 53.4887 91.4865 53.7981C91.0705 54.0967 90.4625 54.2461 89.6625 54.2461ZM99.3474 54.1021C98.8994 54.1021 98.5527 53.9794 98.3074 53.7341C98.0727 53.4887 97.9554 53.1527 97.9554 52.7261V47.3821H95.6034V46.2781H97.9554V43.4941H99.2194V46.2781H101.779V47.3821H99.2194V52.5341C99.2194 52.8541 99.3741 53.0141 99.6834 53.0141H101.427V54.1021H99.3474ZM110.816 54.1021C110.368 54.1021 110.021 53.9794 109.776 53.7341C109.541 53.4887 109.424 53.1527 109.424 52.7261V47.3821H107.072V46.2781H109.424V43.4941H110.688V46.2781H113.248V47.3821H110.688V52.5341C110.688 52.8541 110.843 53.0141 111.152 53.0141H112.896V54.1021H110.816ZM115.296 54.1021V42.9021H116.56V47.5261H116.784C116.89 47.2914 117.05 47.0727 117.264 46.8701C117.488 46.6567 117.77 46.4807 118.112 46.3421C118.464 46.2034 118.906 46.1341 119.44 46.1341C120.026 46.1341 120.549 46.2621 121.008 46.5181C121.477 46.7634 121.85 47.1261 122.128 47.6061C122.405 48.0754 122.544 48.6621 122.544 49.3661V54.1021H121.28V49.4621C121.28 48.6834 121.082 48.1181 120.688 47.7661C120.304 47.4141 119.781 47.2381 119.12 47.2381C118.362 47.2381 117.744 47.4834 117.264 47.9741C116.794 48.4647 116.56 49.1954 116.56 50.1661V54.1021H115.296ZM128.692 54.3261C127.903 54.3261 127.209 54.1607 126.612 53.8301C126.015 53.4887 125.551 53.0141 125.22 52.4061C124.889 51.7981 124.724 51.0941 124.724 50.2941V50.1021C124.724 49.2914 124.889 48.5821 125.22 47.9741C125.551 47.3661 126.009 46.8967 126.596 46.5661C127.183 46.2247 127.855 46.0541 128.612 46.0541C129.348 46.0541 129.999 46.2141 130.564 46.5341C131.129 46.8434 131.572 47.2914 131.892 47.8781C132.212 48.4647 132.372 49.1527 132.372 49.9421V50.5181H125.988C126.02 51.3607 126.292 52.0221 126.804 52.5021C127.316 52.9714 127.956 53.2061 128.724 53.2061C129.396 53.2061 129.913 53.0514 130.276 52.7421C130.639 52.4327 130.916 52.0647 131.108 51.6381L132.196 52.1661C132.036 52.4967 131.812 52.8274 131.524 53.1581C131.247 53.4887 130.879 53.7661 130.42 53.9901C129.972 54.2141 129.396 54.3261 128.692 54.3261ZM126.004 49.4781H131.092C131.049 48.7527 130.799 48.1874 130.34 47.7821C129.892 47.3767 129.316 47.1741 128.612 47.1741C127.897 47.1741 127.311 47.3767 126.852 47.7821C126.393 48.1874 126.111 48.7527 126.004 49.4781ZM142.286 54.3261C141.529 54.3261 140.846 54.1661 140.238 53.8461C139.641 53.5154 139.166 53.0461 138.814 52.4381C138.473 51.8301 138.302 51.1101 138.302 50.2781V50.1021C138.302 49.2594 138.473 48.5394 138.814 47.9421C139.166 47.3341 139.641 46.8701 140.238 46.5501C140.846 46.2194 141.529 46.0541 142.286 46.0541C143.033 46.0541 143.667 46.1927 144.19 46.4701C144.723 46.7474 145.139 47.1154 145.438 47.5741C145.747 48.0327 145.945 48.5234 146.03 49.0461L144.798 49.3021C144.745 48.9181 144.617 48.5661 144.414 48.2461C144.222 47.9261 143.95 47.6701 143.598 47.4781C143.246 47.2861 142.814 47.1901 142.302 47.1901C141.779 47.1901 141.31 47.3074 140.894 47.5421C140.489 47.7767 140.163 48.1127 139.918 48.5501C139.683 48.9874 139.566 49.5101 139.566 50.1181V50.2621C139.566 50.8701 139.683 51.3927 139.918 51.8301C140.163 52.2674 140.489 52.6034 140.894 52.8381C141.31 53.0727 141.779 53.1901 142.302 53.1901C143.081 53.1901 143.673 52.9874 144.078 52.5821C144.494 52.1767 144.75 51.6754 144.846 51.0781L146.094 51.3501C145.977 51.8621 145.763 52.3474 145.454 52.8061C145.145 53.2647 144.723 53.6327 144.19 53.9101C143.667 54.1874 143.033 54.3261 142.286 54.3261ZM148.249 54.1021V42.9021H149.513V47.5261H149.737C149.843 47.2914 150.003 47.0727 150.217 46.8701C150.441 46.6567 150.723 46.4807 151.065 46.3421C151.417 46.2034 151.859 46.1341 152.393 46.1341C152.979 46.1341 153.502 46.2621 153.961 46.5181C154.43 46.7634 154.803 47.1261 155.081 47.6061C155.358 48.0754 155.497 48.6621 155.497 49.3661V54.1021H154.233V49.4621C154.233 48.6834 154.035 48.1181 153.641 47.7661C153.257 47.4141 152.734 47.2381 152.073 47.2381C151.315 47.2381 150.697 47.4834 150.217 47.9741C149.747 48.4647 149.513 49.1954 149.513 50.1661V54.1021H148.249ZM160.461 54.3261C159.917 54.3261 159.421 54.2301 158.973 54.0381C158.525 53.8461 158.173 53.5687 157.917 53.2061C157.661 52.8434 157.533 52.4007 157.533 51.8781C157.533 51.3447 157.661 50.9074 157.917 50.5661C158.173 50.2141 158.525 49.9527 158.973 49.7821C159.421 49.6007 159.922 49.5101 160.477 49.5101H163.117V48.9341C163.117 48.3794 162.952 47.9421 162.621 47.6221C162.301 47.3021 161.821 47.1421 161.181 47.1421C160.552 47.1421 160.061 47.2967 159.709 47.6061C159.357 47.9047 159.117 48.3101 158.989 48.8221L157.805 48.4381C157.933 48.0007 158.136 47.6061 158.413 47.2541C158.69 46.8914 159.058 46.6034 159.517 46.3901C159.986 46.1661 160.546 46.0541 161.197 46.0541C162.2 46.0541 162.978 46.3154 163.533 46.8381C164.088 47.3501 164.365 48.0754 164.365 49.0141V52.5501C164.365 52.8701 164.514 53.0301 164.813 53.0301H165.533V54.1021H164.429C164.077 54.1021 163.794 54.0061 163.581 53.8141C163.368 53.6114 163.261 53.3447 163.261 53.0141V52.9341H163.069C162.952 53.1367 162.792 53.3501 162.589 53.5741C162.397 53.7874 162.13 53.9634 161.789 54.1021C161.448 54.2514 161.005 54.3261 160.461 54.3261ZM160.605 53.2381C161.352 53.2381 161.954 53.0194 162.413 52.5821C162.882 52.1341 163.117 51.5101 163.117 50.7101V50.5341H160.525C160.024 50.5341 159.608 50.6461 159.277 50.8701C158.957 51.0834 158.797 51.4087 158.797 51.8461C158.797 52.2834 158.962 52.6247 159.293 52.8701C159.634 53.1154 160.072 53.2381 160.605 53.2381ZM167.264 54.1021V42.9021H168.528V54.1021H167.264ZM171.186 54.1021V42.9021H172.45V54.1021H171.186ZM178.692 54.3261C177.903 54.3261 177.209 54.1607 176.612 53.8301C176.015 53.4887 175.551 53.0141 175.22 52.4061C174.889 51.7981 174.724 51.0941 174.724 50.2941V50.1021C174.724 49.2914 174.889 48.5821 175.22 47.9741C175.551 47.3661 176.009 46.8967 176.596 46.5661C177.183 46.2247 177.855 46.0541 178.612 46.0541C179.348 46.0541 179.999 46.2141 180.564 46.5341C181.129 46.8434 181.572 47.2914 181.892 47.8781C182.212 48.4647 182.372 49.1527 182.372 49.9421V50.5181H175.988C176.02 51.3607 176.292 52.0221 176.804 52.5021C177.316 52.9714 177.956 53.2061 178.724 53.2061C179.396 53.2061 179.913 53.0514 180.276 52.7421C180.639 52.4327 180.916 52.0647 181.108 51.6381L182.196 52.1661C182.036 52.4967 181.812 52.8274 181.524 53.1581C181.247 53.4887 180.879 53.7661 180.42 53.9901C179.972 54.2141 179.396 54.3261 178.692 54.3261ZM176.004 49.4781H181.092C181.049 48.7527 180.799 48.1874 180.34 47.7821C179.892 47.3767 179.316 47.1741 178.612 47.1741C177.897 47.1741 177.311 47.3767 176.852 47.7821C176.393 48.1874 176.111 48.7527 176.004 49.4781ZM184.577 54.1021V46.2781H185.809V47.6061H186.033C186.203 47.2327 186.491 46.8967 186.897 46.5981C187.313 46.2887 187.921 46.1341 188.721 46.1341C189.307 46.1341 189.83 46.2567 190.289 46.5021C190.758 46.7474 191.131 47.1101 191.409 47.5901C191.686 48.0701 191.825 48.6621 191.825 49.3661V54.1021H190.561V49.4621C190.561 48.6834 190.363 48.1181 189.969 47.7661C189.585 47.4141 189.062 47.2381 188.401 47.2381C187.643 47.2381 187.025 47.4834 186.545 47.9741C186.075 48.4647 185.841 49.1954 185.841 50.1661V54.1021H184.577ZM194.005 50.2301V50.0061C194.005 49.1847 194.171 48.4807 194.501 47.8941C194.832 47.3074 195.28 46.8541 195.845 46.5341C196.411 46.2141 197.029 46.0541 197.701 46.0541C198.523 46.0541 199.152 46.2141 199.589 46.5341C200.037 46.8434 200.368 47.1901 200.581 47.5741H200.805V46.2781H202.005V55.9261C202.005 56.3527 201.888 56.6887 201.653 56.9341C201.419 57.1794 201.077 57.3021 200.629 57.3021H195.317V56.1821H200.293C200.613 56.1821 200.773 56.0221 200.773 55.7021V52.7261H200.549C200.421 52.9607 200.24 53.1901 200.005 53.4141C199.771 53.6381 199.467 53.8247 199.093 53.9741C198.72 54.1127 198.256 54.1821 197.701 54.1821C197.029 54.1821 196.411 54.0221 195.845 53.7021C195.28 53.3821 194.832 52.9287 194.501 52.3421C194.171 51.7447 194.005 51.0407 194.005 50.2301ZM198.037 53.0621C198.848 53.0621 199.504 52.8061 200.005 52.2941C200.517 51.7821 200.773 51.0781 200.773 50.1821V50.0541C200.773 49.1474 200.517 48.4434 200.005 47.9421C199.504 47.4301 198.848 47.1741 198.037 47.1741C197.237 47.1741 196.576 47.4301 196.053 47.9421C195.541 48.4434 195.285 49.1474 195.285 50.0541V50.1821C195.285 51.0781 195.541 51.7821 196.053 52.2941C196.576 52.8061 197.237 53.0621 198.037 53.0621ZM208.239 54.3261C207.45 54.3261 206.756 54.1607 206.159 53.8301C205.562 53.4887 205.098 53.0141 204.767 52.4061C204.436 51.7981 204.271 51.0941 204.271 50.2941V50.1021C204.271 49.2914 204.436 48.5821 204.767 47.9741C205.098 47.3661 205.556 46.8967 206.143 46.5661C206.73 46.2247 207.402 46.0541 208.159 46.0541C208.895 46.0541 209.546 46.2141 210.111 46.5341C210.676 46.8434 211.119 47.2914 211.439 47.8781C211.759 48.4647 211.919 49.1527 211.919 49.9421V50.5181H205.535C205.567 51.3607 205.839 52.0221 206.351 52.5021C206.863 52.9714 207.503 53.2061 208.271 53.2061C208.943 53.2061 209.46 53.0514 209.823 52.7421C210.186 52.4327 210.463 52.0647 210.655 51.6381L211.743 52.1661C211.583 52.4967 211.359 52.8274 211.071 53.1581C210.794 53.4887 210.426 53.7661 209.967 53.9901C209.519 54.2141 208.943 54.3261 208.239 54.3261ZM205.551 49.4781H210.639C210.596 48.7527 210.346 48.1874 209.887 47.7821C209.439 47.3767 208.863 47.1741 208.159 47.1741C207.444 47.1741 206.858 47.3767 206.399 47.7821C205.94 48.1874 205.658 48.7527 205.551 49.4781ZM217.276 54.3261C216.305 54.3261 215.484 54.1021 214.812 53.6541C214.15 53.2061 213.75 52.4967 213.612 51.5261L214.812 51.2541C214.897 51.7661 215.057 52.1714 215.292 52.4701C215.526 52.7581 215.814 52.9661 216.156 53.0941C216.508 53.2114 216.881 53.2701 217.276 53.2701C217.862 53.2701 218.326 53.1527 218.668 52.9181C219.009 52.6834 219.18 52.3687 219.18 51.9741C219.18 51.5687 219.014 51.2861 218.684 51.1261C218.364 50.9554 217.921 50.8167 217.356 50.7101L216.7 50.5981C216.198 50.5127 215.74 50.3794 215.324 50.1981C214.908 50.0167 214.577 49.7714 214.332 49.4621C214.086 49.1527 213.964 48.7634 213.964 48.2941C213.964 47.5901 214.236 47.0407 214.78 46.6461C215.324 46.2514 216.044 46.0541 216.94 46.0541C217.825 46.0541 218.54 46.2567 219.084 46.6621C219.638 47.0567 219.996 47.6167 220.156 48.3421L218.972 48.6461C218.876 48.0807 218.646 47.6861 218.284 47.4621C217.921 47.2274 217.473 47.1101 216.94 47.1101C216.406 47.1101 215.985 47.2114 215.676 47.4141C215.366 47.6061 215.212 47.8941 215.212 48.2781C215.212 48.6514 215.356 48.9287 215.644 49.1101C215.942 49.2807 216.337 49.4087 216.828 49.4941L217.484 49.6061C218.038 49.7021 218.534 49.8354 218.972 50.0061C219.42 50.1661 219.772 50.4007 220.028 50.7101C220.294 51.0194 220.428 51.4247 220.428 51.9261C220.428 52.6941 220.14 53.2861 219.564 53.7021C218.998 54.1181 218.236 54.3261 217.276 54.3261ZM227.615 57.3021V56.1821H232.095C232.404 56.1821 232.559 56.0221 232.559 55.7021V52.8541H232.335C232.228 53.0781 232.063 53.3021 231.839 53.5261C231.625 53.7394 231.343 53.9154 230.991 54.0541C230.639 54.1821 230.196 54.2461 229.663 54.2461C229.097 54.2461 228.575 54.1234 228.095 53.8781C227.625 53.6327 227.252 53.2701 226.975 52.7901C226.708 52.3101 226.575 51.7234 226.575 51.0301V46.2781H227.839V50.9341C227.839 51.7021 228.031 52.2621 228.415 52.6141C228.809 52.9661 229.337 53.1421 229.999 53.1421C230.745 53.1421 231.359 52.8967 231.839 52.4061C232.319 51.9154 232.559 51.1847 232.559 50.2141V46.2781H233.823V55.9261C233.823 56.3527 233.7 56.6887 233.455 56.9341C233.22 57.1794 232.873 57.3021 232.415 57.3021H227.615ZM240.083 54.3261C239.294 54.3261 238.595 54.1607 237.987 53.8301C237.39 53.4994 236.921 53.0354 236.579 52.4381C236.249 51.8301 236.083 51.1154 236.083 50.2941V50.0861C236.083 49.2754 236.249 48.5661 236.579 47.9581C236.921 47.3501 237.39 46.8807 237.987 46.5501C238.595 46.2194 239.294 46.0541 240.083 46.0541C240.873 46.0541 241.566 46.2194 242.163 46.5501C242.771 46.8807 243.241 47.3501 243.571 47.9581C243.913 48.5661 244.083 49.2754 244.083 50.0861V50.2941C244.083 51.1154 243.913 51.8301 243.571 52.4381C243.241 53.0354 242.771 53.4994 242.163 53.8301C241.566 54.1607 240.873 54.3261 240.083 54.3261ZM240.083 53.1901C240.915 53.1901 241.577 52.9287 242.067 52.4061C242.569 51.8727 242.819 51.1581 242.819 50.2621V50.1181C242.819 49.2221 242.569 48.5127 242.067 47.9901C241.577 47.4567 240.915 47.1901 240.083 47.1901C239.262 47.1901 238.601 47.4567 238.099 47.9901C237.598 48.5127 237.347 49.2221 237.347 50.1181V50.2621C237.347 51.1581 237.598 51.8727 238.099 52.4061C238.601 52.9287 239.262 53.1901 240.083 53.1901ZM249.35 54.2461C248.785 54.2461 248.262 54.1234 247.782 53.8781C247.313 53.6327 246.939 53.2701 246.662 52.7901C246.395 52.2994 246.262 51.7074 246.262 51.0141V46.2781H247.526V50.9181C247.526 51.6967 247.718 52.2621 248.102 52.6141C248.497 52.9661 249.025 53.1421 249.686 53.1421C250.433 53.1421 251.046 52.8967 251.526 52.4061C252.006 51.9154 252.246 51.1847 252.246 50.2141V46.2781H253.51V54.1021H252.278V52.7741H252.054C251.883 53.1474 251.59 53.4887 251.174 53.7981C250.758 54.0967 250.15 54.2461 249.35 54.2461ZM256.027 46.6141V45.8141H256.491C256.875 45.8141 257.067 45.6221 257.067 45.2381V44.7261H256.843C256.534 44.7261 256.272 44.6301 256.059 44.4381C255.856 44.2461 255.755 44.0061 255.755 43.7181C255.755 43.4087 255.856 43.1581 256.059 42.9661C256.272 42.7741 256.534 42.6781 256.843 42.6781C257.152 42.6781 257.408 42.7794 257.611 42.982C257.814 43.1847 257.915 43.4407 257.915 43.7501V45.2381C257.915 46.1554 257.456 46.6141 256.539 46.6141H256.027ZM262.155 54.1021L259.355 46.2781H260.699L263.051 53.1581H263.275L265.627 46.2781H266.971L264.171 54.1021H262.155ZM272.051 54.3261C271.262 54.3261 270.569 54.1607 269.971 53.8301C269.374 53.4887 268.91 53.0141 268.579 52.4061C268.249 51.7981 268.083 51.0941 268.083 50.2941V50.1021C268.083 49.2914 268.249 48.5821 268.579 47.9741C268.91 47.3661 269.369 46.8967 269.955 46.5661C270.542 46.2247 271.214 46.0541 271.971 46.0541C272.707 46.0541 273.358 46.2141 273.923 46.5341C274.489 46.8434 274.931 47.2914 275.251 47.8781C275.571 48.4647 275.731 49.1527 275.731 49.9421V50.5181H269.347C269.379 51.3607 269.651 52.0221 270.163 52.5021C270.675 52.9714 271.315 53.2061 272.083 53.2061C272.755 53.2061 273.273 53.0514 273.635 52.7421C273.998 52.4327 274.275 52.0647 274.467 51.6381L275.555 52.1661C275.395 52.4967 275.171 52.8274 274.883 53.1581C274.606 53.4887 274.238 53.7661 273.779 53.9901C273.331 54.2141 272.755 54.3261 272.051 54.3261ZM269.363 49.4781H274.451C274.409 48.7527 274.158 48.1874 273.699 47.7821C273.251 47.3767 272.675 47.1741 271.971 47.1741C271.257 47.1741 270.67 47.3767 270.211 47.7821C269.753 48.1874 269.47 48.7527 269.363 49.4781ZM15.8315 78.1021V71.3821H13.4315V70.2781H15.8315V68.2781C15.8315 67.8514 15.9489 67.5154 16.1835 67.2701C16.4289 67.0247 16.7755 66.9021 17.2235 66.9021H19.1915V67.9901H17.5755C17.2555 67.9901 17.0955 68.1501 17.0955 68.47V70.2781H19.5595V71.3821H17.0955V78.1021H15.8315ZM23.633 78.3261C23.089 78.3261 22.593 78.2301 22.145 78.0381C21.697 77.8461 21.345 77.5687 21.089 77.2061C20.833 76.8434 20.705 76.4007 20.705 75.8781C20.705 75.3447 20.833 74.9074 21.089 74.5661C21.345 74.2141 21.697 73.9527 22.145 73.7821C22.593 73.6007 23.0944 73.5101 23.649 73.5101H26.289V72.9341C26.289 72.3794 26.1237 71.9421 25.793 71.6221C25.473 71.3021 24.993 71.1421 24.353 71.1421C23.7237 71.1421 23.233 71.2967 22.881 71.6061C22.529 71.9047 22.289 72.3101 22.161 72.8221L20.977 72.4381C21.105 72.0007 21.3077 71.6061 21.585 71.2541C21.8624 70.8914 22.2304 70.6034 22.689 70.3901C23.1584 70.1661 23.7184 70.0541 24.369 70.0541C25.3717 70.0541 26.1504 70.3154 26.705 70.8381C27.2597 71.3501 27.537 72.0754 27.537 73.0141V76.5501C27.537 76.8701 27.6864 77.0301 27.985 77.0301H28.705V78.1021H27.601C27.249 78.1021 26.9664 78.0061 26.753 77.8141C26.5397 77.6114 26.433 77.3447 26.433 77.0141V76.9341H26.241C26.1237 77.1367 25.9637 77.3501 25.761 77.5741C25.569 77.7874 25.3024 77.9634 24.961 78.1021C24.6197 78.2514 24.177 78.3261 23.633 78.3261ZM23.777 77.2381C24.5237 77.2381 25.1264 77.0194 25.585 76.5821C26.0544 76.1341 26.289 75.5101 26.289 74.7101V74.5341H23.697C23.1957 74.5341 22.7797 74.6461 22.449 74.8701C22.129 75.0834 21.969 75.4087 21.969 75.8461C21.969 76.2834 22.1344 76.6247 22.465 76.8701C22.8064 77.1154 23.2437 77.2381 23.777 77.2381ZM33.8174 78.3261C33.0601 78.3261 32.3774 78.1661 31.7694 77.8461C31.1721 77.5154 30.6974 77.0461 30.3454 76.4381C30.0041 75.8301 29.8334 75.1101 29.8334 74.2781V74.1021C29.8334 73.2594 30.0041 72.5394 30.3454 71.9421C30.6974 71.3341 31.1721 70.8701 31.7694 70.5501C32.3774 70.2194 33.0601 70.0541 33.8174 70.0541C34.5641 70.0541 35.1987 70.1927 35.7214 70.4701C36.2547 70.7474 36.6707 71.1154 36.9694 71.5741C37.2787 72.0327 37.4761 72.5234 37.5614 73.0461L36.3294 73.3021C36.2761 72.9181 36.1481 72.5661 35.9454 72.2461C35.7534 71.9261 35.4814 71.6701 35.1294 71.4781C34.7774 71.2861 34.3454 71.1901 33.8334 71.1901C33.3107 71.1901 32.8414 71.3074 32.4254 71.5421C32.0201 71.7767 31.6947 72.1127 31.4494 72.5501C31.2147 72.9874 31.0974 73.5101 31.0974 74.1181V74.2621C31.0974 74.8701 31.2147 75.3927 31.4494 75.8301C31.6947 76.2674 32.0201 76.6034 32.4254 76.8381C32.8414 77.0727 33.3107 77.1901 33.8334 77.1901C34.6121 77.1901 35.2041 76.9874 35.6094 76.5821C36.0254 76.1767 36.2814 75.6754 36.3774 75.0781L37.6254 75.3501C37.5081 75.8621 37.2947 76.3474 36.9854 76.8061C36.6761 77.2647 36.2547 77.6327 35.7214 77.9101C35.1987 78.1874 34.5641 78.3261 33.8174 78.3261ZM43.3639 78.3261C42.5746 78.3261 41.8812 78.1607 41.2839 77.8301C40.6866 77.4887 40.2226 77.0141 39.8919 76.4061C39.5612 75.7981 39.3959 75.0941 39.3959 74.2941V74.1021C39.3959 73.2914 39.5612 72.5821 39.8919 71.9741C40.2226 71.3661 40.6812 70.8967 41.2679 70.5661C41.8546 70.2247 42.5266 70.0541 43.2839 70.0541C44.0199 70.0541 44.6706 70.2141 45.2359 70.5341C45.8012 70.8434 46.2439 71.2914 46.5639 71.8781C46.8839 72.4647 47.0439 73.1527 47.0439 73.9421V74.5181H40.6599C40.6919 75.3607 40.9639 76.0221 41.4759 76.5021C41.9879 76.9714 42.6279 77.2061 43.3959 77.2061C44.0679 77.2061 44.5852 77.0514 44.9479 76.7421C45.3106 76.4327 45.5879 76.0647 45.7799 75.6381L46.8679 76.1661C46.7079 76.4967 46.4839 76.8274 46.1959 77.1581C45.9186 77.4887 45.5506 77.7661 45.0919 77.9901C44.6439 78.2141 44.0679 78.3261 43.3639 78.3261ZM40.6759 73.4781H45.7639C45.7212 72.7527 45.4706 72.1874 45.0119 71.7821C44.5639 71.3767 43.9879 71.1741 43.2839 71.1741C42.5692 71.1741 41.9826 71.3767 41.5239 71.7821C41.0652 72.1874 40.7826 72.7527 40.6759 73.4781ZM52.5607 78.3261C51.8887 78.3261 51.27 78.1661 50.7047 77.8461C50.1393 77.5261 49.6913 77.0621 49.3607 76.4541C49.03 75.8461 48.8647 75.1261 48.8647 74.2941V74.0861C48.8647 73.2541 49.03 72.5394 49.3607 71.9421C49.6913 71.3341 50.134 70.8701 50.6887 70.5501C51.254 70.2194 51.878 70.0541 52.5607 70.0541C53.1047 70.0541 53.5633 70.1287 53.9367 70.2781C54.3207 70.4167 54.63 70.5981 54.8647 70.8221C55.0993 71.0354 55.2807 71.2647 55.4087 71.5101H55.6327V66.9021H56.8967V78.1021H55.6647V76.8061H55.4407C55.2273 77.2007 54.8967 77.5527 54.4487 77.8621C54.0007 78.1714 53.3713 78.3261 52.5607 78.3261ZM52.8967 77.2061C53.7073 77.2061 54.3633 76.9501 54.8647 76.4381C55.3767 75.9154 55.6327 75.1901 55.6327 74.2621V74.1181C55.6327 73.1901 55.3767 72.4701 54.8647 71.9581C54.3633 71.4354 53.7073 71.1741 52.8967 71.1741C52.0967 71.1741 51.4353 71.4354 50.9127 71.9581C50.4007 72.4701 50.1447 73.1901 50.1447 74.1181V74.2621C50.1447 75.1901 50.4007 75.9154 50.9127 76.4381C51.4353 76.9501 52.0967 77.2061 52.8967 77.2061Z" fill="white"/>
<path d="M415.968 92.1021L419.114 88.9556C419.429 88.6406 419.968 88.8637 419.968 89.3092V95.1021C419.968 95.6543 419.52 96.1021 418.968 96.1021H413.175C412.729 96.1021 412.506 95.5635 412.821 95.2485L415.968 92.1021Z" fill="#D9D9D9"/>
</g>
<rect x="1.46753" y="0.602051" width="418" height="95" stroke="white"/>
<defs>
<clipPath id="clip0_214_563">
<rect x="0.967529" y="0.102051" width="419" height="96" fill="white"/>
</clipPath>
</defs>
</svg>
