<svg width="291" height="38" viewBox="0 0 291 38" fill="none" xmlns="http://www.w3.org/2000/svg">
<rect x="1.46753" y="0.5" width="37" height="37" stroke="white"/>
<path d="M20.5795 25V14.664H20.3395L18.1635 18.648H16.7555L19.4275 13.8H21.8755V25H20.5795Z" fill="white"/>
<rect x="43.4675" y="0.5" width="37" height="37" stroke="white"/>
<path d="M59.3155 25V23.832C59.3155 23.032 59.4542 22.392 59.7315 21.912C60.0195 21.432 60.4142 21.048 60.9155 20.76C61.4275 20.4613 62.0355 20.2053 62.7395 19.992L63.6195 19.72C64.0995 19.5707 64.5209 19.3893 64.8835 19.176C65.2462 18.952 65.5289 18.6747 65.7315 18.344C65.9342 18.0027 66.0355 17.5867 66.0355 17.096V17.032C66.0355 16.328 65.7902 15.7733 65.2995 15.368C64.8089 14.952 64.1795 14.744 63.4115 14.744C62.6009 14.744 61.9395 14.9627 61.4275 15.4C60.9155 15.8267 60.6595 16.4773 60.6595 17.352V17.576H59.3795V17.368C59.3795 16.5573 59.5555 15.8693 59.9075 15.304C60.2595 14.7387 60.7395 14.312 61.3475 14.024C61.9555 13.7253 62.6435 13.576 63.4115 13.576C64.1795 13.576 64.8569 13.72 65.4435 14.008C66.0409 14.296 66.5049 14.696 66.8355 15.208C67.1662 15.72 67.3315 16.3173 67.3315 17V17.144C67.3315 17.8693 67.1875 18.472 66.8995 18.952C66.6115 19.4213 66.2115 19.8053 65.6995 20.104C65.1982 20.4027 64.6062 20.6587 63.9235 20.872L63.0595 21.144C62.5155 21.3147 62.0622 21.496 61.6995 21.688C61.3475 21.8693 61.0809 22.104 60.8995 22.392C60.7182 22.68 60.6275 23.0693 60.6275 23.56V23.832H67.2355V25H59.3155Z" fill="white"/>
<rect x="85.4675" y="0.5" width="37" height="37" stroke="white"/>
<path d="M105.316 25.224C104.526 25.224 103.817 25.0747 103.188 24.776C102.569 24.4773 102.078 24.0453 101.716 23.48C101.364 22.9147 101.188 22.232 101.188 21.432V21.128H102.484V21.416C102.484 22.2373 102.745 22.8827 103.268 23.352C103.79 23.8213 104.473 24.056 105.316 24.056C106.169 24.056 106.83 23.8373 107.3 23.4C107.78 22.952 108.02 22.392 108.02 21.72V21.592C108.02 21.1013 107.902 20.7067 107.668 20.408C107.433 20.0987 107.113 19.8747 106.708 19.736C106.313 19.5867 105.876 19.512 105.396 19.512H103.572V17.896L107.844 15.16V14.968H101.46V13.8H109.22V15.608L105.044 18.296V18.488H105.844C106.473 18.488 107.049 18.6053 107.572 18.84C108.105 19.064 108.526 19.4053 108.836 19.864C109.156 20.312 109.316 20.8773 109.316 21.56V21.736C109.316 22.44 109.15 23.0533 108.82 23.576C108.489 24.0987 108.025 24.504 107.428 24.792C106.83 25.08 106.126 25.224 105.316 25.224Z" fill="white"/>
<rect x="127.468" y="0.5" width="37" height="37" stroke="white"/>
<path d="M148.82 25V22.712H142.98V21.176L147.684 13.8H150.116V21.544H152.036V22.712H150.116V25H148.82ZM144.276 21.544H148.82V14.584H148.596L144.276 21.352V21.544Z" fill="white"/>
<rect x="169.468" y="0.5" width="37" height="37" stroke="white"/>
<path d="M189.3 25.224C188.478 25.224 187.769 25.0693 187.172 24.76C186.574 24.44 186.11 24.0027 185.78 23.448C185.449 22.8827 185.284 22.232 185.284 21.496V21.304H186.58V21.448C186.58 22.2907 186.825 22.936 187.316 23.384C187.806 23.832 188.457 24.056 189.268 24.056C190.121 24.056 190.788 23.816 191.268 23.336C191.748 22.856 191.988 22.2 191.988 21.368V21.224C191.988 20.424 191.753 19.7893 191.284 19.32C190.825 18.84 190.228 18.6 189.492 18.6C189.065 18.6 188.713 18.6693 188.436 18.808C188.158 18.936 187.94 19.1013 187.78 19.304C187.62 19.496 187.486 19.6827 187.38 19.864H185.62V13.8H192.98V14.968H186.916V18.84H187.14C187.257 18.6267 187.417 18.4187 187.62 18.216C187.833 18.0133 188.116 17.8427 188.468 17.704C188.82 17.5653 189.257 17.496 189.78 17.496C190.43 17.496 191.017 17.6453 191.54 17.944C192.073 18.2427 192.494 18.6693 192.804 19.224C193.124 19.7787 193.284 20.44 193.284 21.208V21.384C193.284 22.1413 193.124 22.808 192.804 23.384C192.484 23.96 192.025 24.4133 191.428 24.744C190.83 25.064 190.121 25.224 189.3 25.224Z" fill="white"/>
<rect x="211.468" y="0.5" width="37" height="37" stroke="white"/>
<path d="M231.428 25.224C230.66 25.224 229.972 25.0747 229.364 24.776C228.766 24.4667 228.292 24.0293 227.94 23.464C227.598 22.8987 227.428 22.2267 227.428 21.448V17.544C227.428 16.7013 227.593 15.9867 227.924 15.4C228.254 14.8133 228.718 14.3653 229.316 14.056C229.924 13.736 230.644 13.576 231.476 13.576C232.297 13.576 232.996 13.7253 233.572 14.024C234.158 14.312 234.601 14.712 234.9 15.224C235.209 15.7253 235.364 16.3067 235.364 16.968H234.052C234.052 16.3067 233.838 15.7733 233.412 15.368C232.985 14.952 232.34 14.744 231.476 14.744C230.601 14.744 229.924 14.984 229.444 15.464C228.964 15.9333 228.724 16.584 228.724 17.416V18.968H228.948C229.14 18.648 229.46 18.3547 229.908 18.088C230.356 17.8107 230.98 17.672 231.78 17.672C232.452 17.672 233.065 17.8213 233.62 18.12C234.174 18.4187 234.617 18.84 234.948 19.384C235.278 19.928 235.444 20.5733 235.444 21.32V21.512C235.444 22.2693 235.268 22.9253 234.916 23.48C234.574 24.0347 234.1 24.4667 233.492 24.776C232.884 25.0747 232.196 25.224 231.428 25.224ZM231.428 24.056C232.238 24.056 232.894 23.8267 233.396 23.368C233.897 22.9093 234.148 22.2853 234.148 21.496V21.368C234.148 20.8347 234.03 20.376 233.796 19.992C233.572 19.608 233.257 19.3093 232.852 19.096C232.446 18.872 231.972 18.76 231.428 18.76C230.894 18.76 230.425 18.872 230.02 19.096C229.614 19.3093 229.294 19.608 229.06 19.992C228.836 20.376 228.724 20.8347 228.724 21.368V21.496C228.724 22.2853 228.974 22.9093 229.476 23.368C229.977 23.8267 230.628 24.056 231.428 24.056Z" fill="white"/>
<rect x="253.468" y="0.5" width="37" height="37" stroke="white"/>
<path d="M270.9 25V24.6C270.9 24.2267 270.932 23.912 270.996 23.656C271.06 23.4 271.182 23.096 271.364 22.744L275.636 15.144V14.968H268.98V13.8H276.996V15.336L272.532 23.336C272.404 23.56 272.313 23.7627 272.26 23.944C272.217 24.1253 272.196 24.3547 272.196 24.632V25H270.9Z" fill="white"/>
</svg>
