<svg width="922" height="241" viewBox="0 0 922 241" fill="none" xmlns="http://www.w3.org/2000/svg">
<path fill-rule="evenodd" clip-rule="evenodd" d="M14.6882 58.8727C15.4645 56.7172 16.9346 55.1754 18.8688 54.4887C19.9554 54.1027 31.9497 54.066 33.0798 54.4451C36.2163 55.4972 37.6768 58.0141 37.6768 62.3671V64.4177H56.5989L57.4493 64.4177H57.4493C74.8531 64.4175 76.3559 64.4175 77.6168 64.9699C77.736 65.0221 77.853 65.0792 77.9811 65.1418L78.0473 65.1741C81.5657 66.8878 81.6936 67.4957 81.6996 82.5405L81.7041 111.116L49.5267 111.112V112.31V114.092L50.1844 114.405C50.887 114.739 51.8724 115.755 52.207 116.49L52.4108 116.939H62.9807C70.7829 116.939 73.2686 116.69 74.0434 117.723C74.5466 118.395 74.3281 119.607 74.3757 121.779L74.4698 126.085L71.7402 126.168V122.874V119.579H62.092H52.444L51.992 120.432C50.4244 123.392 45.9962 123.398 44.4307 120.442L43.9739 119.579H34.3259H24.6777V122.879V126.179L21.9481 126.085L22.0422 121.779C22.0897 119.607 21.8712 118.395 22.3743 117.724C23.1492 116.69 25.6362 116.939 33.4445 116.939H44.0217L44.2549 116.375C44.5222 115.728 45.7507 114.554 46.4303 114.295C46.8748 114.126 46.8912 114.055 46.8912 112.323V111.112L40.3828 111.111C39.1224 111.111 37.9338 111.111 36.8127 111.111C20.7286 111.112 18.5229 111.112 17.1768 110.037C16.9629 109.866 16.7706 109.668 16.5479 109.438C16.4501 109.337 16.3465 109.231 16.2325 109.117C14.3581 107.254 14.2526 106.582 14.3054 96.8362L14.3467 89.2L14.8244 88.7742C15.4504 88.2163 16.0221 88.2163 16.6481 88.7742L17.1258 89.1998L17.199 97.4199L17.2093 98.6025C17.2634 104.891 17.2732 106.029 17.8348 106.718C17.9591 106.87 18.1103 107.001 18.2949 107.16L18.2952 107.16C18.345 107.203 18.3973 107.248 18.4521 107.296C18.5033 107.341 18.5496 107.384 18.5936 107.425C18.6575 107.484 18.7165 107.538 18.7789 107.589C19.5308 108.196 20.773 108.196 36.9817 108.194H36.9818L39.9036 108.194H78.669C78.8624 108.197 78.802 70.4385 78.6067 69.7885C78.3817 69.0392 77.4076 67.9475 76.6635 67.6101C76.0999 67.3547 75.1598 67.3423 56.2531 67.3384C53.7031 67.3379 51.4534 67.3429 49.4691 67.3473C38.2539 67.3723 35.5163 67.3784 34.9372 66.2634C34.7502 65.9033 34.7883 65.4264 34.8387 64.7954C34.8663 64.4497 34.8976 64.0577 34.8976 63.6134C34.8976 59.5556 34.4533 58.2863 32.7163 57.381L31.9389 56.9758L26.0682 56.979C18.9577 56.9829 18.757 57.0333 17.6607 59.0916L17.2721 59.8212L17.199 67.8224L17.1258 75.8236L16.6481 76.2493C16.0219 76.8073 15.4504 76.8071 14.8244 76.249L14.3467 75.8231V67.8221V59.8212L14.6882 58.8727ZM15.7052 83.825C14.3534 83.825 13.8536 82.2164 14.9405 81.3635C16.051 80.4922 17.6386 81.824 16.9873 83.0804C16.7082 83.6188 16.3532 83.825 15.7052 83.825ZM48.9657 116.846C50.012 117.388 50.1997 118.443 49.4158 119.376C48.1754 120.853 45.7967 119.201 46.7076 117.496C47.1353 116.695 48.1246 116.411 48.9657 116.846Z" fill="white"/>
<path d="M33.5961 178.338C35.6642 178.338 37.0563 176.767 37.0563 174.401C37.0563 172.014 35.6642 170.443 33.5961 170.443C31.5279 170.443 30.1358 172.014 30.1358 174.401C30.1358 176.767 31.5279 178.338 33.5961 178.338ZM33.5961 177.284C32.025 177.284 31.3091 175.932 31.3091 174.401C31.3091 172.87 32.025 171.497 33.5961 171.497C35.1671 171.497 35.883 172.87 35.883 174.401C35.883 175.932 35.1671 177.284 33.5961 177.284ZM38.8473 181.043H40.0206V177.006H40.12C40.3786 177.424 40.8757 178.338 42.3473 178.338C44.2564 178.338 45.5888 176.807 45.5888 174.381C45.5888 171.975 44.2564 170.443 42.3274 170.443C40.8359 170.443 40.3786 171.358 40.12 171.756H39.9808V170.543H38.8473V181.043ZM40.0007 174.361C40.0007 172.651 40.7564 171.497 42.1882 171.497C43.6797 171.497 44.4155 172.75 44.4155 174.361C44.4155 175.992 43.6598 177.284 42.1882 177.284C40.7763 177.284 40.0007 176.091 40.0007 174.361ZM50.5803 178.338C52.1314 178.338 53.2649 177.563 53.6229 176.409L52.4893 176.091C52.1911 176.887 51.5 177.284 50.5803 177.284C49.2031 177.284 48.2536 176.394 48.1989 174.759H53.7422V174.262C53.7422 171.418 52.0518 170.443 50.4609 170.443C48.3928 170.443 47.0206 172.074 47.0206 174.421C47.0206 176.767 48.3729 178.338 50.5803 178.338ZM48.1989 173.745C48.2784 172.556 49.1186 171.497 50.4609 171.497C51.7337 171.497 52.549 172.452 52.549 173.745H48.1989ZM56.7003 173.585C56.7003 172.253 57.5256 171.497 58.6491 171.497C59.7379 171.497 60.3991 172.208 60.3991 173.406V178.179H61.5724V173.327C61.5724 171.378 60.5334 170.443 58.9872 170.443C57.8338 170.443 57.1179 170.96 56.7599 171.736H56.6605V170.543H55.527V178.179H56.7003V173.585ZM10.6373 193.253C10.2694 192.169 9.44407 191.443 7.93271 191.443C6.32191 191.443 5.12873 192.358 5.12873 193.651C5.12873 194.705 5.75515 195.411 7.15714 195.739L8.42987 196.037C9.20046 196.216 9.56339 196.584 9.56339 197.111C9.56339 197.767 8.86737 198.304 7.77362 198.304C6.8141 198.304 6.21254 197.892 6.00373 197.071L4.89009 197.35C5.16353 198.647 6.23242 199.338 7.7935 199.338C9.56836 199.338 10.7765 198.369 10.7765 197.051C10.7765 195.987 10.1103 195.316 8.74805 194.983L7.61452 194.705C6.70969 194.481 6.30202 194.178 6.30202 193.591C6.30202 192.935 6.99805 192.458 7.93271 192.458C8.95685 192.458 9.37944 193.024 9.58327 193.551L10.6373 193.253ZM13.7159 194.585C13.7159 193.253 14.5661 192.497 15.7244 192.497C16.8281 192.497 17.4943 193.193 17.4943 194.406V199.179H18.6676V194.327C18.6676 192.363 17.6236 191.443 16.0625 191.443C14.8594 191.443 14.1733 191.946 13.8153 192.736H13.7159V188.997H12.5426V199.179H13.7159V194.585ZM23.0613 199.358C24.3936 199.358 25.0897 198.642 25.3283 198.145H25.388V199.179H26.5613V194.148C26.5613 191.722 24.7118 191.443 23.7374 191.443C22.584 191.443 21.2715 191.841 20.6749 193.233L21.7885 193.631C22.0471 193.074 22.6586 192.477 23.7772 192.477C24.856 192.477 25.388 193.049 25.388 194.029V194.068C25.388 194.635 24.8113 194.585 23.4192 194.764C22.0023 194.948 20.4561 195.262 20.4561 197.012C20.4561 198.503 21.6096 199.358 23.0613 199.358ZM23.2402 198.304C22.3056 198.304 21.6294 197.887 21.6294 197.071C21.6294 196.176 22.4448 195.898 23.3596 195.779C23.8567 195.719 25.1891 195.58 25.388 195.341V196.415C25.388 197.37 24.6323 198.304 23.2402 198.304ZM28.7028 199.179H29.8761V194.347C29.8761 193.313 30.6914 192.557 31.805 192.557C32.1183 192.557 32.4414 192.617 32.521 192.637V191.443C32.3867 191.433 32.0785 191.424 31.9045 191.424C30.9897 191.424 30.1942 191.941 29.9158 192.696H29.8363V191.543H28.7028V199.179ZM36.881 199.338C38.4322 199.338 39.5657 198.563 39.9237 197.409L38.7901 197.091C38.4918 197.887 37.8008 198.284 36.881 198.284C35.5039 198.284 34.5543 197.394 34.4996 195.759H40.043V195.262C40.043 192.418 38.3526 191.443 36.7617 191.443C34.6935 191.443 33.3214 193.074 33.3214 195.421C33.3214 197.767 34.6737 199.338 36.881 199.338ZM34.4996 194.745C34.5792 193.556 35.4194 192.497 36.7617 192.497C38.0344 192.497 38.8498 193.452 38.8498 194.745H34.4996ZM44.7113 199.338C46.1829 199.338 46.68 198.424 46.9386 198.006H47.0778V199.179H48.2113V188.997H47.038V192.756H46.9386C46.68 192.358 46.2227 191.443 44.7312 191.443C42.8022 191.443 41.4698 192.975 41.4698 195.381C41.4698 197.807 42.8022 199.338 44.7113 199.338ZM44.8704 198.284C43.3988 198.284 42.6431 196.992 42.6431 195.361C42.6431 193.75 43.3789 192.497 44.8704 192.497C46.3022 192.497 47.0579 193.651 47.0579 195.361C47.0579 197.091 46.2823 198.284 44.8704 198.284ZM57.8612 191.543H56.1509V190.767C56.1509 190.012 56.4691 189.614 57.2447 189.614C57.5827 189.614 57.7816 189.693 57.9009 189.733L58.239 188.719C58.06 188.639 57.7021 188.52 57.1254 188.52C56.0316 188.52 54.9776 189.176 54.9776 190.489V191.543H53.7447V192.537H54.9776V199.179H56.1509V192.537H57.8612V191.543ZM62.2933 199.338C64.3615 199.338 65.7536 197.767 65.7536 195.401C65.7536 193.014 64.3615 191.443 62.2933 191.443C60.2251 191.443 58.8331 193.014 58.8331 195.401C58.8331 197.767 60.2251 199.338 62.2933 199.338ZM62.2933 198.284C60.7223 198.284 60.0064 196.932 60.0064 195.401C60.0064 193.87 60.7223 192.497 62.2933 192.497C63.8643 192.497 64.5803 193.87 64.5803 195.401C64.5803 196.932 63.8643 198.284 62.2933 198.284ZM68.7179 188.997H67.5446V199.179H68.7179V188.997ZM73.7504 199.338C75.2219 199.338 75.7191 198.424 75.9776 198.006H76.1168V199.179H77.2504V188.997H76.0771V192.756H75.9776C75.7191 192.358 75.2617 191.443 73.7702 191.443C71.8413 191.443 70.5089 192.975 70.5089 195.381C70.5089 197.807 71.8413 199.338 73.7504 199.338ZM73.9094 198.284C72.4379 198.284 71.6822 196.992 71.6822 195.361C71.6822 193.75 72.418 192.497 73.9094 192.497C75.3413 192.497 76.0969 193.651 76.0969 195.361C76.0969 197.091 75.3214 198.284 73.9094 198.284ZM82.7638 199.338C84.315 199.338 85.4485 198.563 85.8065 197.409L84.6729 197.091C84.3746 197.887 83.6836 198.284 82.7638 198.284C81.3867 198.284 80.4371 197.394 80.3825 195.759H85.9258V195.262C85.9258 192.418 84.2354 191.443 82.6445 191.443C80.5763 191.443 79.2042 193.074 79.2042 195.421C79.2042 197.767 80.5565 199.338 82.7638 199.338ZM80.3825 194.745C80.462 193.556 81.3022 192.497 82.6445 192.497C83.9173 192.497 84.7326 193.452 84.7326 194.745H80.3825ZM87.7106 199.179H88.8839V194.347C88.8839 193.313 89.6992 192.557 90.8129 192.557C91.1261 192.557 91.4492 192.617 91.5288 192.637V191.443C91.3945 191.433 91.0863 191.424 90.9123 191.424C89.9975 191.424 89.2021 191.941 88.9237 192.696H88.8441V191.543H87.7106V199.179Z" fill="white"/>
<path d="M130.126 189.104L135.505 183.725L130.126 178.345L128.714 179.747L131.657 182.691H119.864V184.759H131.657L128.714 187.702L130.126 189.104Z" fill="white"/>
<path fill-rule="evenodd" clip-rule="evenodd" d="M266.965 54.3268C265.643 54.7161 255.747 59.7226 255.333 60.2112C254.122 61.6436 254.099 63.6776 255.278 65.0147C255.901 65.7217 265.347 72.0237 266.175 72.2851C267.379 72.6653 268.981 72.1701 269.942 71.1206L270.452 70.5633L271.086 71.458C271.434 71.9501 272.05 73.0014 272.455 73.7941C274.866 78.5127 280.888 78.0519 281.905 73.0709C282.572 69.8045 278.065 63.2186 272.88 59.8824L271.487 58.986L271.481 58.0877C271.464 55.4375 269.303 53.6383 266.965 54.3268ZM222.921 54.4078C222.766 54.4749 220.055 57.1172 216.896 60.2795L211.153 66.0292V70.6331C211.153 75.8176 211.149 75.8 212.202 75.8C213.098 75.8 213.126 75.6634 213.126 71.3488V67.523L216.755 67.4756L220.385 67.4282L221.322 66.9848C223.788 65.8184 224.177 64.8941 224.232 60.0764L224.274 56.383H236.393C252.671 56.383 250.757 54.7349 250.757 68.7512V78.7366L247.339 78.7809L243.922 78.8251L243.061 79.2741C242.577 79.5269 241.921 80.0337 241.56 80.4349L240.919 81.1467H230.638C219.166 81.1467 219.891 81.0818 219.891 82.1075C219.891 83.1787 219.244 83.1165 230.391 83.1165H240.328V85.0836V87.0507L230.406 87.0886C219.317 87.1311 219.888 87.0762 219.893 88.0981C219.899 89.207 219.498 89.1668 230.525 89.1668H240.331L240.294 94.4079L240.257 99.6491L228.084 99.6851C211.289 99.7347 213.126 101.201 213.126 87.7444V78.6344L212.755 78.3429C212.266 77.9588 211.921 77.9748 211.494 78.4013L211.144 78.7512L211.184 88.356L211.223 97.9607L211.6 98.7621C212.08 99.7846 213.061 100.764 214.085 101.243L214.888 101.619L227.572 101.689L240.257 101.76L240.294 108.095L240.33 114.43L246.221 120.305L252.111 126.179L259.339 126.14L266.567 126.101L266.837 125.769C267.179 125.347 267.179 124.886 266.837 124.464L266.567 124.131L260.012 124.092L253.456 124.053L253.41 120.434C253.329 113.982 252.241 112.952 245.507 112.948L242.301 112.946V98.0051C242.301 81.1553 242.219 82.4018 243.385 81.442C244.294 80.6945 243.858 80.7111 261.398 80.7546C279.42 80.799 278.066 80.7295 278.996 81.6583C279.933 82.5931 279.861 80.8803 279.861 102.393V121.88L279.558 122.443C278.742 123.956 278.369 124.061 273.824 124.061C269.594 124.061 269.361 124.116 269.361 125.116C269.361 126.103 269.63 126.172 273.512 126.172C278.891 126.172 280.289 125.644 281.428 123.179L281.834 122.302V102.393V82.4834L281.458 81.6819C280.978 80.6594 279.997 79.68 278.973 79.2008L278.17 78.8251L265.527 78.787L252.885 78.749L252.836 68.586C252.801 61.2533 252.74 58.2856 252.62 57.9288C252.124 56.4581 250.881 55.1331 249.489 54.5916C248.787 54.3186 223.531 54.144 222.921 54.4078ZM268.83 56.5189C269.383 56.9533 269.553 57.53 269.459 58.6511C269.349 59.9623 269.467 60.2117 270.445 60.7365C277.408 64.4707 282.189 72.9636 278.337 74.754C276.505 75.6057 275.28 74.9449 274.018 72.4231C271.863 68.118 269.184 66.2415 268.786 68.7579C268.388 71.2695 267.747 71.1168 261.655 67.0595C254.495 62.2914 254.47 62.632 262.244 58.7803C267.696 56.0788 268.095 55.9417 268.83 56.5189ZM222.287 60.4679C222.287 64.8976 221.793 65.388 217.326 65.388H214.608L218.341 61.6593C220.394 59.6086 222.122 57.9307 222.181 57.9307C222.239 57.9307 222.287 59.0724 222.287 60.4679ZM220.173 69.3277C219.813 69.687 219.8 70.4682 220.149 70.7832C220.591 71.1824 243.45 71.1355 243.851 70.7347C244.232 70.3544 244.206 69.81 243.787 69.3917L243.441 69.0462H231.948C220.643 69.0462 220.45 69.0509 220.173 69.3277ZM220.205 75.3155C219.972 75.4779 219.891 75.6757 219.891 76.0814C219.891 77.1284 219.127 77.0663 232.019 77.0663H243.52L243.827 76.7407C244.224 76.3182 244.216 75.7865 243.807 75.4024L243.481 75.0965H231.999C221.836 75.0965 220.482 75.1217 220.205 75.3155ZM249.212 91.0225C248.828 91.434 248.85 91.9185 249.271 92.3389L249.617 92.6843H261.078C273.908 92.6843 273.167 92.7438 273.167 91.7132C273.167 90.6426 274.036 90.7145 261.075 90.7145H249.5L249.212 91.0225ZM249.545 96.8232C248.834 97.1352 248.712 97.8311 249.271 98.3891L249.617 98.7345H260.978C273.72 98.7345 273.159 98.7838 273.164 97.6659C273.169 96.6357 273.909 96.698 261.278 96.663C252.001 96.6372 249.904 96.6658 249.545 96.8232ZM249.271 103.02C248.856 103.434 248.828 103.931 249.194 104.382L249.464 104.714H261.018C273.946 104.714 273.169 104.776 273.164 103.743C273.159 102.625 273.72 102.674 260.978 102.674H249.617L249.271 103.02ZM214.232 103.285C208.123 105.547 211.16 114.66 219.896 120.28L221.289 121.177L221.295 122.075C221.31 124.418 222.797 125.974 224.994 125.946C226.9 125.921 237.327 120.435 237.989 119.109C239.276 116.531 238.584 115.618 232.062 111.302C225.712 107.099 224.814 106.879 222.834 109.042L222.323 109.599L221.687 108.705C221.337 108.213 220.757 107.223 220.398 106.506C219.02 103.755 216.508 102.443 214.232 103.285ZM217.175 105.578C217.759 105.938 217.941 106.181 218.623 107.505C220.988 112.097 223.582 113.982 223.99 111.405C224.387 108.897 225.054 109.062 231.278 113.207C238.272 117.865 238.302 117.557 230.495 121.391C224.785 124.195 224.628 124.245 223.805 123.51L223.344 123.099L223.339 121.644C223.332 119.904 223.384 120.004 222.11 119.302C218.429 117.276 214.694 113.133 213.169 109.386C211.996 106.506 214.627 104.005 217.175 105.578ZM249.271 109.07C248.852 109.488 248.826 110.033 249.207 110.413C249.484 110.69 249.677 110.694 261.094 110.694C274.116 110.694 273.167 110.775 273.167 109.671C273.167 108.669 273.873 108.724 261.078 108.724H249.617L249.271 109.07ZM250.076 115.555C251.234 116.367 251.384 116.842 251.44 119.875C251.466 121.326 251.434 122.513 251.368 122.513C251.302 122.513 249.568 120.833 247.514 118.779L243.781 115.044L246.623 115.085L249.465 115.126L250.076 115.555Z" fill="white"/>
<path d="M217.789 178.179C220.891 178.179 222.641 176.25 222.641 173.068C222.641 169.906 220.891 167.997 217.928 167.997H214.647V178.179H217.789ZM215.88 177.085V169.091H217.849C220.235 169.091 221.448 170.602 221.448 173.068C221.448 175.554 220.235 177.085 217.71 177.085H215.88ZM229.363 175.057C229.363 176.489 228.269 177.145 227.394 177.145C226.42 177.145 225.724 176.429 225.724 175.316V170.543H224.55V175.395C224.55 177.344 225.585 178.279 227.016 178.279C228.17 178.279 228.925 177.662 229.283 176.887H229.363V178.179H230.536V170.543H229.363V175.057ZM232.685 181.043H233.858V177.006H233.958C234.216 177.424 234.714 178.338 236.185 178.338C238.094 178.338 239.427 176.807 239.427 174.381C239.427 171.975 238.094 170.443 236.165 170.443C234.674 170.443 234.216 171.358 233.958 171.756H233.819V170.543H232.685V181.043ZM233.839 174.361C233.839 172.651 234.594 171.497 236.026 171.497C237.518 171.497 238.253 172.75 238.253 174.361C238.253 175.992 237.498 177.284 236.026 177.284C234.614 177.284 233.839 176.091 233.839 174.361ZM242.39 167.997H241.216V178.179H242.39V167.997ZM244.539 178.179H245.712V170.543H244.539V178.179ZM245.135 169.27C245.593 169.27 245.971 168.912 245.971 168.475C245.971 168.037 245.593 167.679 245.135 167.679C244.678 167.679 244.3 168.037 244.3 168.475C244.3 168.912 244.678 169.27 245.135 169.27ZM250.963 178.338C252.654 178.338 253.767 177.304 253.966 175.952H252.793C252.574 176.787 251.878 177.284 250.963 177.284C249.571 177.284 248.676 176.131 248.676 174.361C248.676 172.631 249.591 171.497 250.963 171.497C251.997 171.497 252.614 172.134 252.793 172.83H253.966C253.767 171.398 252.554 170.443 250.943 170.443C248.875 170.443 247.503 172.074 247.503 174.401C247.503 176.688 248.816 178.338 250.963 178.338ZM257.928 178.358C259.261 178.358 259.957 177.642 260.195 177.145H260.255V178.179H261.428V173.148C261.428 170.722 259.579 170.443 258.605 170.443C257.451 170.443 256.139 170.841 255.542 172.233L256.656 172.631C256.914 172.074 257.526 171.477 258.644 171.477C259.723 171.477 260.255 172.049 260.255 173.029V173.068C260.255 173.635 259.678 173.585 258.286 173.764C256.869 173.948 255.323 174.262 255.323 176.012C255.323 177.503 256.477 178.358 257.928 178.358ZM258.107 177.304C257.173 177.304 256.497 176.887 256.497 176.071C256.497 175.176 257.312 174.898 258.227 174.779C258.724 174.719 260.056 174.58 260.255 174.341V175.415C260.255 176.37 259.499 177.304 258.107 177.304ZM266.891 170.543H265.26V168.713H264.087V170.543H262.934V171.537H264.087V176.31C264.087 177.642 265.161 178.279 266.155 178.279C266.593 178.279 266.871 178.199 267.03 178.139L266.792 177.085C266.692 177.105 266.533 177.145 266.275 177.145C265.757 177.145 265.26 176.986 265.26 175.992V171.537H266.891V170.543ZM271.776 178.338C273.327 178.338 274.46 177.563 274.818 176.409L273.685 176.091C273.386 176.887 272.695 177.284 271.776 177.284C270.398 177.284 269.449 176.394 269.394 174.759H274.938V174.262C274.938 171.418 273.247 170.443 271.656 170.443C269.588 170.443 268.216 172.074 268.216 174.421C268.216 176.767 269.568 178.338 271.776 178.338ZM269.394 173.745C269.474 172.556 270.314 171.497 271.656 171.497C272.929 171.497 273.744 172.452 273.744 173.745H269.394ZM163.791 192.179H164.905V191.264C164.905 190.529 165.263 189.892 165.681 189.296L165.044 188.779C164.249 189.415 163.791 190.469 163.791 191.284V192.179ZM166.337 192.179H167.45V191.264C167.45 190.529 167.808 189.892 168.226 189.296L167.59 188.779C166.794 189.415 166.337 190.469 166.337 191.284V192.179ZM169.68 199.179H170.913V195.46H173.14C175.512 195.46 176.581 194.019 176.581 192.219C176.581 190.419 175.512 188.997 173.121 188.997H169.68V199.179ZM170.913 194.367V190.091H173.081C174.736 190.091 175.368 190.996 175.368 192.219C175.368 193.442 174.736 194.367 173.101 194.367H170.913ZM178.408 199.179H179.581V194.347C179.581 193.313 180.396 192.557 181.51 192.557C181.823 192.557 182.146 192.617 182.226 192.637V191.443C182.092 191.433 181.784 191.424 181.61 191.424C180.695 191.424 179.899 191.941 179.621 192.696H179.541V191.543H178.408V199.179ZM186.487 199.338C188.555 199.338 189.947 197.767 189.947 195.401C189.947 193.014 188.555 191.443 186.487 191.443C184.419 191.443 183.026 193.014 183.026 195.401C183.026 197.767 184.419 199.338 186.487 199.338ZM186.487 198.284C184.916 198.284 184.2 196.932 184.2 195.401C184.2 193.87 184.916 192.497 186.487 192.497C188.058 192.497 188.774 193.87 188.774 195.401C188.774 196.932 188.058 198.284 186.487 198.284ZM191.738 191.543V199.736C191.738 200.512 191.42 200.949 190.704 200.949H190.485V202.043H190.724C192.195 202.043 192.911 201.148 192.911 199.736V191.543H191.738ZM192.315 190.27C192.772 190.27 193.15 189.912 193.15 189.475C193.15 189.037 192.772 188.679 192.315 188.679C191.857 188.679 191.479 189.037 191.479 189.475C191.479 189.912 191.857 190.27 192.315 190.27ZM198.262 199.338C199.813 199.338 200.947 198.563 201.305 197.409L200.171 197.091C199.873 197.887 199.182 198.284 198.262 198.284C196.885 198.284 195.935 197.394 195.881 195.759H201.424V195.262C201.424 192.418 199.733 191.443 198.143 191.443C196.074 191.443 194.702 193.074 194.702 195.421C194.702 197.767 196.055 199.338 198.262 199.338ZM195.881 194.745C195.96 193.556 196.8 192.497 198.143 192.497C199.415 192.497 200.231 193.452 200.231 194.745H195.881ZM206.311 199.338C208.001 199.338 209.115 198.304 209.314 196.952H208.14C207.922 197.787 207.226 198.284 206.311 198.284C204.919 198.284 204.024 197.131 204.024 195.361C204.024 193.631 204.939 192.497 206.311 192.497C207.345 192.497 207.961 193.134 208.14 193.83H209.314C209.115 192.398 207.902 191.443 206.291 191.443C204.223 191.443 202.851 193.074 202.851 195.401C202.851 197.688 204.163 199.338 206.311 199.338ZM214.35 191.543H212.719V189.713H211.546V191.543H210.393V192.537H211.546V197.31C211.546 198.642 212.62 199.279 213.614 199.279C214.052 199.279 214.33 199.199 214.489 199.139L214.251 198.085C214.151 198.105 213.992 198.145 213.733 198.145C213.216 198.145 212.719 197.986 212.719 196.992V192.537H214.35V191.543ZM220.216 194.267H215.762V195.361H220.216V194.267ZM225.602 191.543H223.971V189.713H222.798V191.543H221.645V192.537H222.798V197.31C222.798 198.642 223.872 199.279 224.866 199.279C225.304 199.279 225.582 199.199 225.741 199.139L225.502 198.085C225.403 198.105 225.244 198.145 224.985 198.145C224.468 198.145 223.971 197.986 223.971 196.992V192.537H225.602V191.543ZM230.487 199.338C232.038 199.338 233.171 198.563 233.529 197.409L232.396 197.091C232.097 197.887 231.406 198.284 230.487 198.284C229.109 198.284 228.16 197.394 228.105 195.759H233.648V195.262C233.648 192.418 231.958 191.443 230.367 191.443C228.299 191.443 226.927 193.074 226.927 195.421C226.927 197.767 228.279 199.338 230.487 199.338ZM228.105 194.745C228.185 193.556 229.025 192.497 230.367 192.497C231.64 192.497 232.455 193.452 232.455 194.745H228.105ZM235.433 199.179H236.607V194.406C236.607 193.288 237.422 192.497 238.337 192.497C239.227 192.497 239.848 193.079 239.848 193.949V199.179H241.041V194.208C241.041 193.223 241.658 192.497 242.732 192.497C243.567 192.497 244.283 192.94 244.283 194.068V199.179H245.456V194.068C245.456 192.274 244.491 191.443 243.129 191.443C242.036 191.443 241.235 191.946 240.842 192.736H240.763C240.385 191.921 239.719 191.443 238.714 191.443C237.72 191.443 236.984 191.921 236.666 192.736H236.567V191.543H235.433V199.179ZM247.601 202.043H248.775V198.006H248.874C249.132 198.424 249.63 199.338 251.101 199.338C253.01 199.338 254.343 197.807 254.343 195.381C254.343 192.975 253.01 191.443 251.081 191.443C249.59 191.443 249.132 192.358 248.874 192.756H248.735V191.543H247.601V202.043ZM248.755 195.361C248.755 193.651 249.51 192.497 250.942 192.497C252.434 192.497 253.169 193.75 253.169 195.361C253.169 196.992 252.414 198.284 250.942 198.284C249.53 198.284 248.755 197.091 248.755 195.361ZM257.306 188.997H256.132V199.179H257.306V188.997ZM261.702 199.358C263.034 199.358 263.73 198.642 263.969 198.145H264.029V199.179H265.202V194.148C265.202 191.722 263.352 191.443 262.378 191.443C261.225 191.443 259.912 191.841 259.316 193.233L260.429 193.631C260.688 193.074 261.299 192.477 262.418 192.477C263.497 192.477 264.029 193.049 264.029 194.029V194.068C264.029 194.635 263.452 194.585 262.06 194.764C260.643 194.948 259.097 195.262 259.097 197.012C259.097 198.503 260.25 199.358 261.702 199.358ZM261.881 198.304C260.946 198.304 260.27 197.887 260.27 197.071C260.27 196.176 261.085 195.898 262 195.779C262.497 195.719 263.83 195.58 264.029 195.341V196.415C264.029 197.37 263.273 198.304 261.881 198.304ZM270.664 191.543H269.034V189.713H267.86V191.543H266.707V192.537H267.86V197.31C267.86 198.642 268.934 199.279 269.929 199.279C270.366 199.279 270.645 199.199 270.804 199.139L270.565 198.085C270.466 198.105 270.306 198.145 270.048 198.145C269.531 198.145 269.034 197.986 269.034 196.992V192.537H270.664V191.543ZM275.549 199.338C277.1 199.338 278.234 198.563 278.592 197.409L277.458 197.091C277.16 197.887 276.469 198.284 275.549 198.284C274.172 198.284 273.222 197.394 273.168 195.759H278.711V195.262C278.711 192.418 277.021 191.443 275.43 191.443C273.362 191.443 271.989 193.074 271.989 195.421C271.989 197.767 273.342 199.338 275.549 199.338ZM273.168 194.745C273.247 193.556 274.087 192.497 275.43 192.497C276.702 192.497 277.518 193.452 277.518 194.745H273.168ZM284.871 194.267H280.416V195.361H284.871V194.267ZM290.336 191.543H288.626V190.767C288.626 190.012 288.944 189.614 289.719 189.614C290.057 189.614 290.256 189.693 290.376 189.733L290.714 188.719C290.535 188.639 290.177 188.52 289.6 188.52C288.506 188.52 287.452 189.176 287.452 190.489V191.543H286.219V192.537H287.452V199.179H288.626V192.537H290.336V191.543ZM294.768 199.338C296.836 199.338 298.228 197.767 298.228 195.401C298.228 193.014 296.836 191.443 294.768 191.443C292.7 191.443 291.308 193.014 291.308 195.401C291.308 197.767 292.7 199.338 294.768 199.338ZM294.768 198.284C293.197 198.284 292.481 196.932 292.481 195.401C292.481 193.87 293.197 192.497 294.768 192.497C296.339 192.497 297.055 193.87 297.055 195.401C297.055 196.932 296.339 198.284 294.768 198.284ZM301.192 188.997H300.019V199.179H301.192V188.997ZM306.225 199.338C307.697 199.338 308.194 198.424 308.452 198.006H308.591V199.179H309.725V188.997H308.552V192.756H308.452C308.194 192.358 307.736 191.443 306.245 191.443C304.316 191.443 302.983 192.975 302.983 195.381C302.983 197.807 304.316 199.338 306.225 199.338ZM306.384 198.284C304.912 198.284 304.157 196.992 304.157 195.361C304.157 193.75 304.893 192.497 306.384 192.497C307.816 192.497 308.572 193.651 308.572 195.361C308.572 197.091 307.796 198.284 306.384 198.284ZM315.238 199.338C316.79 199.338 317.923 198.563 318.281 197.409L317.148 197.091C316.849 197.887 316.158 198.284 315.238 198.284C313.861 198.284 312.912 197.394 312.857 195.759H318.4V195.262C318.4 192.418 316.71 191.443 315.119 191.443C313.051 191.443 311.679 193.074 311.679 195.421C311.679 197.767 313.031 199.338 315.238 199.338ZM312.857 194.745C312.937 193.556 313.777 192.497 315.119 192.497C316.392 192.497 317.207 193.452 317.207 194.745H312.857ZM320.185 199.179H321.358V194.347C321.358 193.313 322.174 192.557 323.287 192.557C323.601 192.557 323.924 192.617 324.003 192.637V191.443C323.869 191.433 323.561 191.424 323.387 191.424C322.472 191.424 321.677 191.941 321.398 192.696H321.319V191.543H320.185V199.179ZM326.661 188.997H325.547V189.912C325.547 190.648 325.189 191.284 324.771 191.881L325.408 192.398C326.203 191.762 326.661 190.708 326.661 189.892V188.997ZM329.206 188.997H328.093V189.912C328.093 190.648 327.735 191.284 327.317 191.881L327.953 192.398C328.749 191.762 329.206 190.708 329.206 189.892V188.997Z" fill="white"/>
<path d="M368.126 189.104L373.505 183.725L368.126 178.345L366.714 179.747L369.657 182.691H357.864V184.759H369.657L366.714 187.702L368.126 189.104Z" fill="white"/>
<path fill-rule="evenodd" clip-rule="evenodd" d="M432.801 54.5112C430.727 55.2477 429.15 56.9013 428.317 59.2132L427.951 60.2305V68.8118V77.3931L428.463 77.8499C429.135 78.4485 429.748 78.4487 430.419 77.8502L430.932 77.3937L431.01 68.8121L431.088 60.2305L431.505 59.4479C432.681 57.2403 432.896 57.1863 440.523 57.1821L446.819 57.1786L447.653 57.6132C449.516 58.5842 449.993 59.9456 449.993 64.2977C449.993 68.8138 446.977 68.2878 472.897 68.293C493.175 68.2972 494.184 68.3105 494.788 68.5844C495.586 68.9462 496.631 70.1172 496.872 70.9208C497.082 71.6179 497.146 95.3672 496.939 95.3639C496.874 95.363 496.433 95.2539 495.959 95.1216C486.666 92.5321 476.993 99.9675 476.552 110.038L476.461 112.112H455.362C432.299 112.112 433.508 112.162 432.354 111.149C431.033 109.989 431.099 110.506 431.01 100.557L430.932 91.7402L430.419 91.2837C429.748 90.6853 429.135 90.6853 428.463 91.2837L427.951 91.7403L427.907 99.9305C427.85 110.384 427.963 111.104 429.974 113.103C432.249 115.364 430.695 115.236 455.876 115.241L477.211 115.246L477.662 116.378C482.326 128.103 498.524 129.679 505.542 119.091C510.275 111.95 508.254 102.067 501.096 97.3518L500.194 96.7576L500.189 84.5978C500.183 68.4617 500.046 67.8097 496.272 65.9717C494.582 65.1485 494.919 65.1604 473.268 65.1604H452.973V62.961C452.973 58.2923 451.407 55.5928 448.043 54.4644C446.831 54.0578 433.966 54.0972 432.801 54.5112ZM428.588 83.3354C427.422 84.2502 427.958 85.9755 429.408 85.9755C430.103 85.9755 430.484 85.7543 430.783 85.1768C431.482 83.8293 429.779 82.4009 428.588 83.3354ZM494.233 97.8761C505.12 99.5894 508.881 113.202 500.427 120.298C494.129 125.584 484.259 123.339 480.731 115.818C476.47 106.733 484.31 96.3148 494.233 97.8761ZM498.233 105.573C498.061 105.672 496.265 107.161 494.244 108.88L490.567 112.006L488.517 109.856C486.113 107.334 485.597 107.087 484.671 108.011C483.641 109.038 483.836 109.403 487.343 113.028C490.354 116.139 490.343 116.136 492.211 114.577C497.582 110.095 500.194 107.794 500.357 107.402C500.883 106.137 499.428 104.883 498.233 105.573Z" fill="white"/>
<path d="M407.279 178.179H408.512V174.202H410.739C410.829 174.202 410.913 174.202 410.998 174.197L413.145 178.179H414.577L412.275 173.973C413.573 173.531 414.179 172.472 414.179 171.12C414.179 169.32 413.106 167.997 410.719 167.997H407.279V178.179ZM408.512 173.088V169.091H410.679C412.33 169.091 412.966 169.897 412.966 171.12C412.966 172.343 412.33 173.088 410.699 173.088H408.512ZM419.195 178.338C420.746 178.338 421.879 177.563 422.237 176.409L421.104 176.091C420.805 176.887 420.114 177.284 419.195 177.284C417.817 177.284 416.868 176.394 416.813 174.759H422.356V174.262C422.356 171.418 420.666 170.443 419.075 170.443C417.007 170.443 415.635 172.074 415.635 174.421C415.635 176.767 416.987 178.338 419.195 178.338ZM416.813 173.745C416.893 172.556 417.733 171.497 419.075 171.497C420.348 171.497 421.163 172.452 421.163 173.745H416.813ZM425.315 173.585C425.315 172.253 426.14 171.497 427.263 171.497C428.352 171.497 429.013 172.208 429.013 173.406V178.179H430.187V173.327C430.187 171.378 429.148 170.443 427.601 170.443C426.448 170.443 425.732 170.96 425.374 171.736H425.275V170.543H424.141V178.179H425.315V173.585ZM434.578 178.358C435.91 178.358 436.606 177.642 436.845 177.145H436.905V178.179H438.078V173.148C438.078 170.722 436.228 170.443 435.254 170.443C434.101 170.443 432.788 170.841 432.191 172.233L433.305 172.631C433.564 172.074 434.175 171.477 435.294 171.477C436.373 171.477 436.905 172.049 436.905 173.029V173.068C436.905 173.635 436.328 173.585 434.936 173.764C433.519 173.948 431.973 174.262 431.973 176.012C431.973 177.503 433.126 178.358 434.578 178.358ZM434.757 177.304C433.822 177.304 433.146 176.887 433.146 176.071C433.146 175.176 433.961 174.898 434.876 174.779C435.373 174.719 436.706 174.58 436.905 174.341V175.415C436.905 176.37 436.149 177.304 434.757 177.304ZM440.219 178.179H441.393V173.406C441.393 172.288 442.208 171.497 443.123 171.497C444.013 171.497 444.634 172.079 444.634 172.949V178.179H445.827V173.208C445.827 172.223 446.444 171.497 447.518 171.497C448.353 171.497 449.069 171.94 449.069 173.068V178.179H450.242V173.068C450.242 171.274 449.278 170.443 447.915 170.443C446.822 170.443 446.021 170.946 445.628 171.736H445.549C445.171 170.921 444.505 170.443 443.501 170.443C442.506 170.443 441.771 170.921 441.452 171.736H441.353V170.543H440.219V178.179ZM455.589 178.338C457.14 178.338 458.274 177.563 458.632 176.409L457.498 176.091C457.2 176.887 456.509 177.284 455.589 177.284C454.212 177.284 453.262 176.394 453.208 174.759H458.751V174.262C458.751 171.418 457.061 170.443 455.47 170.443C453.402 170.443 452.029 172.074 452.029 174.421C452.029 176.767 453.382 178.338 455.589 178.338ZM453.208 173.745C453.287 172.556 454.127 171.497 455.47 171.497C456.742 171.497 457.558 172.452 457.558 173.745H453.208ZM467.794 170.543H466.164V168.713H464.99V170.543H463.837V171.537H464.99V176.31C464.99 177.642 466.064 178.279 467.059 178.279C467.496 178.279 467.774 178.199 467.934 178.139L467.695 177.085C467.595 177.105 467.436 177.145 467.178 177.145C466.661 177.145 466.164 176.986 466.164 175.992V171.537H467.794V170.543ZM470.897 173.585C470.897 172.253 471.747 171.497 472.905 171.497C474.009 171.497 474.675 172.193 474.675 173.406V178.179H475.848V173.327C475.848 171.363 474.804 170.443 473.243 170.443C472.04 170.443 471.354 170.946 470.996 171.736H470.897V167.997H469.723V178.179H470.897V173.585ZM477.995 178.179H479.168V170.543H477.995V178.179ZM478.591 169.27C479.049 169.27 479.427 168.912 479.427 168.475C479.427 168.037 479.049 167.679 478.591 167.679C478.134 167.679 477.756 168.037 477.756 168.475C477.756 168.912 478.134 169.27 478.591 169.27ZM486.726 172.253C486.358 171.169 485.533 170.443 484.022 170.443C482.411 170.443 481.218 171.358 481.218 172.651C481.218 173.705 481.844 174.411 483.246 174.739L484.519 175.037C485.289 175.216 485.652 175.584 485.652 176.111C485.652 176.767 484.956 177.304 483.862 177.304C482.903 177.304 482.301 176.892 482.093 176.071L480.979 176.35C481.252 177.647 482.321 178.338 483.882 178.338C485.657 178.338 486.865 177.369 486.865 176.051C486.865 174.987 486.199 174.316 484.837 173.983L483.703 173.705C482.799 173.481 482.391 173.178 482.391 172.591C482.391 171.935 483.087 171.458 484.022 171.458C485.046 171.458 485.468 172.024 485.672 172.551L486.726 172.253ZM495.97 170.543H494.259V169.767C494.259 169.012 494.578 168.614 495.353 168.614C495.691 168.614 495.89 168.693 496.009 168.733L496.347 167.719C496.168 167.639 495.81 167.52 495.234 167.52C494.14 167.52 493.086 168.176 493.086 169.489V170.543H491.853V171.537H493.086V178.179H494.259V171.537H495.97V170.543ZM500.402 178.338C502.47 178.338 503.862 176.767 503.862 174.401C503.862 172.014 502.47 170.443 500.402 170.443C498.334 170.443 496.941 172.014 496.941 174.401C496.941 176.767 498.334 178.338 500.402 178.338ZM500.402 177.284C498.831 177.284 498.115 175.932 498.115 174.401C498.115 172.87 498.831 171.497 500.402 171.497C501.973 171.497 502.689 172.87 502.689 174.401C502.689 175.932 501.973 177.284 500.402 177.284ZM506.826 167.997H505.653V178.179H506.826V167.997ZM511.859 178.338C513.33 178.338 513.828 177.424 514.086 177.006H514.225V178.179H515.359V167.997H514.185V171.756H514.086C513.828 171.358 513.37 170.443 511.879 170.443C509.95 170.443 508.617 171.975 508.617 174.381C508.617 176.807 509.95 178.338 511.859 178.338ZM512.018 177.284C510.546 177.284 509.791 175.992 509.791 174.361C509.791 172.75 510.526 171.497 512.018 171.497C513.45 171.497 514.205 172.651 514.205 174.361C514.205 176.091 513.43 177.284 512.018 177.284ZM520.872 178.338C522.423 178.338 523.557 177.563 523.915 176.409L522.781 176.091C522.483 176.887 521.792 177.284 520.872 177.284C519.495 177.284 518.546 176.394 518.491 174.759H524.034V174.262C524.034 171.418 522.344 170.443 520.753 170.443C518.685 170.443 517.313 172.074 517.313 174.421C517.313 176.767 518.665 178.338 520.872 178.338ZM518.491 173.745C518.57 172.556 519.411 171.497 520.753 171.497C522.026 171.497 522.841 172.452 522.841 173.745H518.491ZM525.819 178.179H526.992V173.347C526.992 172.313 527.808 171.557 528.921 171.557C529.234 171.557 529.558 171.617 529.637 171.637V170.443C529.503 170.433 529.195 170.424 529.021 170.424C528.106 170.424 527.31 170.941 527.032 171.696H526.953V170.543H525.819V178.179ZM404.787 199.358C406.119 199.358 406.815 198.642 407.054 198.145H407.114V199.179H408.287V194.148C408.287 191.722 406.437 191.443 405.463 191.443C404.31 191.443 402.997 191.841 402.4 193.233L403.514 193.631C403.773 193.074 404.384 192.477 405.503 192.477C406.582 192.477 407.114 193.049 407.114 194.029V194.068C407.114 194.635 406.537 194.585 405.145 194.764C403.728 194.948 402.182 195.262 402.182 197.012C402.182 198.503 403.335 199.358 404.787 199.358ZM404.966 198.304C404.031 198.304 403.355 197.887 403.355 197.071C403.355 196.176 404.17 195.898 405.085 195.779C405.582 195.719 406.915 195.58 407.114 195.341V196.415C407.114 197.37 406.358 198.304 404.966 198.304ZM413.531 199.338C415.221 199.338 416.335 198.304 416.533 196.952H415.36C415.141 197.787 414.445 198.284 413.531 198.284C412.139 198.284 411.244 197.131 411.244 195.361C411.244 193.631 412.158 192.497 413.531 192.497C414.565 192.497 415.181 193.134 415.36 193.83H416.533C416.335 192.398 415.122 191.443 413.511 191.443C411.443 191.443 410.07 193.074 410.07 195.401C410.07 197.688 411.383 199.338 413.531 199.338ZM421.351 199.338C423.041 199.338 424.155 198.304 424.354 196.952H423.18C422.962 197.787 422.266 198.284 421.351 198.284C419.959 198.284 419.064 197.131 419.064 195.361C419.064 193.631 419.979 192.497 421.351 192.497C422.385 192.497 423.002 193.134 423.18 193.83H424.354C424.155 192.398 422.942 191.443 421.331 191.443C419.263 191.443 417.891 193.074 417.891 195.401C417.891 197.688 419.203 199.338 421.351 199.338ZM429.171 199.338C431.239 199.338 432.631 197.767 432.631 195.401C432.631 193.014 431.239 191.443 429.171 191.443C427.103 191.443 425.711 193.014 425.711 195.401C425.711 197.767 427.103 199.338 429.171 199.338ZM429.171 198.284C427.6 198.284 426.884 196.932 426.884 195.401C426.884 193.87 427.6 192.497 429.171 192.497C430.742 192.497 431.458 193.87 431.458 195.401C431.458 196.932 430.742 198.284 429.171 198.284ZM434.422 199.179H435.596V194.347C435.596 193.313 436.411 192.557 437.525 192.557C437.838 192.557 438.161 192.617 438.241 192.637V191.443C438.106 191.433 437.798 191.424 437.624 191.424C436.709 191.424 435.914 191.941 435.636 192.696H435.556V191.543H434.422V199.179ZM442.283 199.338C443.754 199.338 444.251 198.424 444.51 198.006H444.649V199.179H445.783V188.997H444.609V192.756H444.51C444.251 192.358 443.794 191.443 442.302 191.443C440.373 191.443 439.041 192.975 439.041 195.381C439.041 197.807 440.373 199.338 442.283 199.338ZM442.442 198.284C440.97 198.284 440.214 196.992 440.214 195.361C440.214 193.75 440.95 192.497 442.442 192.497C443.873 192.497 444.629 193.651 444.629 195.361C444.629 197.091 443.854 198.284 442.442 198.284ZM448.094 199.179H449.268V191.543H448.094V199.179ZM448.691 190.27C449.148 190.27 449.526 189.912 449.526 189.475C449.526 189.037 449.148 188.679 448.691 188.679C448.234 188.679 447.856 189.037 447.856 189.475C447.856 189.912 448.234 190.27 448.691 190.27ZM452.59 194.585C452.59 193.253 453.415 192.497 454.539 192.497C455.628 192.497 456.289 193.208 456.289 194.406V199.179H457.462V194.327C457.462 192.378 456.423 191.443 454.877 191.443C453.723 191.443 453.008 191.96 452.65 192.736H452.55V191.543H451.417V199.179H452.59V194.585ZM462.688 202.202C464.518 202.202 465.99 201.367 465.99 199.398V191.543H464.856V192.756H464.737C464.478 192.358 464.001 191.443 462.509 191.443C460.581 191.443 459.248 192.975 459.248 195.321C459.248 197.708 460.64 199.06 462.49 199.06C463.981 199.06 464.458 198.185 464.717 197.767H464.816V199.318C464.816 200.591 463.921 201.168 462.688 201.168C461.301 201.168 460.814 200.437 460.501 200.014L459.566 200.671C460.044 201.471 460.983 202.202 462.688 202.202ZM462.649 198.006C461.177 198.006 460.421 196.892 460.421 195.301C460.421 193.75 461.157 192.497 462.649 192.497C464.081 192.497 464.836 193.651 464.836 195.301C464.836 196.992 464.061 198.006 462.649 198.006ZM475.396 191.543H473.765V189.713H472.592V191.543H471.438V192.537H472.592V197.31C472.592 198.642 473.666 199.279 474.66 199.279C475.098 199.279 475.376 199.199 475.535 199.139L475.296 198.085C475.197 198.105 475.038 198.145 474.779 198.145C474.262 198.145 473.765 197.986 473.765 196.992V192.537H475.396V191.543ZM480.181 199.338C482.249 199.338 483.641 197.767 483.641 195.401C483.641 193.014 482.249 191.443 480.181 191.443C478.113 191.443 476.721 193.014 476.721 195.401C476.721 197.767 478.113 199.338 480.181 199.338ZM480.181 198.284C478.61 198.284 477.894 196.932 477.894 195.401C477.894 193.87 478.61 192.497 480.181 192.497C481.752 192.497 482.468 193.87 482.468 195.401C482.468 196.932 481.752 198.284 480.181 198.284ZM489.37 202.043H490.543V198.006H490.642C490.901 198.424 491.398 199.338 492.87 199.338C494.779 199.338 496.111 197.807 496.111 195.381C496.111 192.975 494.779 191.443 492.85 191.443C491.358 191.443 490.901 192.358 490.642 192.756H490.503V191.543H489.37V202.043ZM490.523 195.361C490.523 193.651 491.279 192.497 492.711 192.497C494.202 192.497 494.938 193.75 494.938 195.361C494.938 196.992 494.182 198.284 492.711 198.284C491.299 198.284 490.523 197.091 490.523 195.361ZM497.901 199.179H499.074V194.347C499.074 193.313 499.89 192.557 501.003 192.557C501.316 192.557 501.64 192.617 501.719 192.637V191.443C501.585 191.433 501.277 191.424 501.103 191.424C500.188 191.424 499.392 191.941 499.114 192.696H499.035V191.543H497.901V199.179ZM505.98 199.338C508.048 199.338 509.44 197.767 509.44 195.401C509.44 193.014 508.048 191.443 505.98 191.443C503.912 191.443 502.52 193.014 502.52 195.401C502.52 197.767 503.912 199.338 505.98 199.338ZM505.98 198.284C504.409 198.284 503.693 196.932 503.693 195.401C503.693 193.87 504.409 192.497 505.98 192.497C507.551 192.497 508.267 193.87 508.267 195.401C508.267 196.932 507.551 198.284 505.98 198.284ZM511.231 191.543V199.736C511.231 200.512 510.913 200.949 510.197 200.949H509.978V202.043H510.217C511.688 202.043 512.404 201.148 512.404 199.736V191.543H511.231ZM511.808 190.27C512.265 190.27 512.643 189.912 512.643 189.475C512.643 189.037 512.265 188.679 511.808 188.679C511.35 188.679 510.973 189.037 510.973 189.475C510.973 189.912 511.35 190.27 511.808 190.27ZM517.755 199.338C519.306 199.338 520.44 198.563 520.798 197.409L519.664 197.091C519.366 197.887 518.675 198.284 517.755 198.284C516.378 198.284 515.428 197.394 515.374 195.759H520.917V195.262C520.917 192.418 519.227 191.443 517.636 191.443C515.568 191.443 514.195 193.074 514.195 195.421C514.195 197.767 515.548 199.338 517.755 199.338ZM515.374 194.745C515.453 193.556 516.293 192.497 517.636 192.497C518.908 192.497 519.724 193.452 519.724 194.745H515.374ZM525.804 199.338C527.494 199.338 528.608 198.304 528.807 196.952H527.634C527.415 197.787 526.719 198.284 525.804 198.284C524.412 198.284 523.517 197.131 523.517 195.361C523.517 193.631 524.432 192.497 525.804 192.497C526.838 192.497 527.455 193.134 527.634 193.83H528.807C528.608 192.398 527.395 191.443 525.784 191.443C523.716 191.443 522.344 193.074 522.344 195.401C522.344 197.688 523.656 199.338 525.804 199.338ZM533.843 191.543H532.212V189.713H531.039V191.543H529.886V192.537H531.039V197.31C531.039 198.642 532.113 199.279 533.107 199.279C533.545 199.279 533.823 199.199 533.982 199.139L533.744 198.085C533.644 198.105 533.485 198.145 533.227 198.145C532.71 198.145 532.212 197.986 532.212 196.992V192.537H533.843V191.543Z" fill="white"/>
<path d="M573.126 189.104L578.505 183.725L573.126 178.345L571.714 179.747L574.657 182.691H562.864V184.759H574.657L571.714 187.702L573.126 189.104Z" fill="white"/>
<path fill-rule="evenodd" clip-rule="evenodd" d="M696.812 74.9838C697.521 75.3055 698.45 76.3463 698.664 77.0607C698.85 77.6803 698.908 98.7908 698.724 98.7878C698.666 98.787 698.274 98.69 697.852 98.5725C689.592 96.2707 680.994 102.88 680.601 111.832L680.521 113.675H661.766C641.265 113.675 642.34 113.72 641.315 112.819C640.14 111.788 640.199 112.248 640.12 103.404L640.05 95.5668L639.595 95.161C638.998 94.6291 638.453 94.6291 637.856 95.161L637.401 95.5669L637.361 102.847C637.311 112.139 637.412 112.779 639.199 114.556C641.221 116.566 639.84 116.452 662.223 116.456L681.188 116.461L681.588 117.467C685.734 127.89 700.133 129.29 706.371 119.878C710.577 113.531 708.781 104.746 702.419 100.555L701.617 100.027L701.613 89.218C701.607 74.8748 701.485 74.2952 698.131 72.6615L696.812 74.9838ZM701.824 120.952C709.338 114.644 705.995 102.544 696.318 101.021C687.498 99.6331 680.529 108.894 684.317 116.969C687.453 123.655 696.226 125.651 701.824 120.952Z" fill="white"/>
<path fill-rule="evenodd" clip-rule="evenodd" d="M638.696 90.4426C637.407 90.4426 636.931 88.909 637.967 88.0959C639.026 87.2652 640.539 88.5349 639.918 89.7327C639.652 90.246 639.314 90.4426 638.696 90.4426Z" fill="white"/>
<path d="M699.874 107.862C699.721 107.951 698.125 109.274 696.328 110.802L693.06 113.581L691.238 111.67C689.1 109.428 688.642 109.208 687.818 110.03C686.903 110.943 687.076 111.267 690.194 114.49C692.87 117.255 692.861 117.252 694.521 115.866C699.295 111.882 701.617 109.837 701.762 109.489C702.229 108.364 700.936 107.25 699.874 107.862Z" fill="white"/>
<path d="M641.712 62.4743C639.868 63.129 638.466 64.5989 637.726 66.6539L637.401 67.5582V75.186V82.8138L637.856 83.2199C638.453 83.752 638.998 83.7521 639.595 83.2202L640.05 82.8144L640.12 75.1863L640.19 67.5582L640.56 66.8626L641.712 65.7347L651.969 65.2903V62.1792L641.712 62.4743Z" fill="white"/>
<path d="M655.667 91.3992C655.08 90.5785 655.104 90.0367 655.737 89.8016C655.819 89.771 655.946 89.7651 656.019 89.7884C656.092 89.8118 656.192 89.8308 656.241 89.8308C656.289 89.8308 656.693 90.3528 657.138 90.9907C657.213 91.0986 657.281 91.1981 657.344 91.2894C657.693 91.7962 657.865 92.047 658.035 92.0454C658.201 92.0439 658.364 91.8019 658.688 91.3235C658.747 91.2352 658.812 91.1389 658.884 91.0346C659.797 89.7029 660.094 89.5307 660.65 90.0131C661.003 90.3192 660.869 90.7027 659.943 92.0384C659.459 92.738 659.03 93.3661 658.991 93.4343C658.949 93.5084 659.362 94.1913 660.022 95.1374C661.355 97.0486 661.468 97.6977 660.467 97.6977C660.058 97.6977 660.018 97.655 658.961 96.1284C658.866 95.9912 658.781 95.8669 658.705 95.7551C658.343 95.2234 658.174 94.9751 658.014 94.9803C657.873 94.9849 657.739 95.1841 657.487 95.558C657.427 95.6477 657.36 95.7475 657.284 95.8571C655.907 97.8512 655.56 98.0935 655.04 97.4247C654.737 97.0358 654.799 96.8933 656.045 95.1084L657.147 93.5295L656.622 92.7644C656.333 92.3436 655.903 91.7292 655.667 91.3992Z" fill="white"/>
<path d="M663.019 93.808C663.019 90.1804 663.039 89.9981 663.45 89.8324C663.707 89.7289 663.999 89.7942 664.242 90.0097C664.401 90.1508 664.416 90.4367 664.416 93.2252V96.2857H665.318C666.323 96.2857 666.711 96.4951 666.711 97.0376C666.711 97.6071 666.457 97.6977 664.865 97.6977C664.688 97.6977 664.528 97.7008 664.384 97.7035C663.865 97.7134 663.541 97.7196 663.34 97.569C663.006 97.3191 663.009 96.6373 663.017 94.8239C663.018 94.5185 663.019 94.181 663.019 93.808Z" fill="white"/>
<path d="M670.701 94.1677C667.92 93.0306 667.787 90.48 670.475 89.8397C671.733 89.5401 673.594 90.3274 673.594 91.1592C673.594 91.8832 673.054 92.0274 672.148 91.5454C671.251 91.0683 670.194 91.1913 670.046 91.79C669.945 92.1965 670.149 92.3889 671.066 92.7503C673.304 93.6318 673.995 94.3677 673.821 95.6816C673.525 97.9156 669.653 98.4519 668.349 96.4397C667.856 95.6787 668.823 95.034 669.54 95.6458C670.428 96.4037 671.604 96.503 672.188 95.8695C672.742 95.2683 672.38 94.8541 670.701 94.1677Z" fill="white"/>
<path fill-rule="evenodd" clip-rule="evenodd" d="M654.271 55.6086C654.581 54.9127 655.163 54.4196 655.886 54.2396C656.051 54.1987 663.054 54.1722 671.449 54.1808L686.713 54.1965L687.112 54.4166C687.608 54.6899 695.055 62.234 695.308 62.719C695.483 63.0542 695.552 78.0121 695.514 89.9083C695.019 89.9731 694.529 90.0556 694.046 90.1552V64.5412L690.162 64.5127C689.708 64.5093 689.296 64.5099 688.923 64.5104C687.123 64.5129 686.214 64.5141 685.755 64.0695C685.287 63.6153 685.288 62.696 685.29 60.8378C685.291 60.4605 685.291 60.0438 685.288 59.5852L685.26 55.659H656.027L655.537 56.1541V82.5607L655.33 82.8264C654.844 83.452 654.155 83.0588 654.069 82.1069L654.013 81.4785H653.045C651.115 81.4785 650.1 82.8554 651.043 84.1948C651.077 84.2429 651.105 84.2878 651.131 84.3296C651.164 84.3828 651.193 84.4311 651.229 84.4749C651.579 84.9061 652.483 84.906 662.278 84.9054C663.062 84.9053 663.902 84.9053 664.804 84.9054L666.464 84.9056C677.118 84.9066 677.964 84.9067 678.481 85.3104C678.525 85.3452 678.567 85.383 678.613 85.4241C678.627 85.4364 678.641 85.4492 678.655 85.4622C678.669 85.4739 678.682 85.4859 678.696 85.4982C678.73 85.5269 678.761 85.5539 678.792 85.5798C678.903 85.6742 678.996 85.7532 679.074 85.8447C679.477 86.3172 679.477 87.1194 679.478 92.0673L679.48 99.1055L679.202 99.6448C678.857 100.312 678.322 100.707 677.575 100.845C676.44 101.055 651.88 100.927 651.323 100.708C650.663 100.449 649.916 99.737 649.581 99.0482L649.302 98.473V82.5333L649.63 81.8588C650.267 80.5512 651.163 80.0665 652.945 80.0665H654.036L654.063 68.0392C654.089 56.7004 654.101 55.9889 654.271 55.6086ZM693.746 63.0475C693.746 63.0049 692.186 61.3931 690.279 59.4658C688.372 57.5385 686.778 55.9616 686.736 55.9616C686.695 55.9616 686.672 57.5614 686.687 59.5168L686.713 63.072L690.23 63.0985C692.164 63.1131 693.746 63.0902 693.746 63.0475ZM664.546 86.3152C654.231 86.3117 651.729 86.2854 651.447 86.1775C651.255 86.1043 651.018 86.0102 650.921 85.9687C650.623 85.8409 650.704 98.2799 651.004 98.6864C651.052 98.7508 651.085 98.8092 651.116 98.8622C651.144 98.9104 651.169 98.9542 651.2 98.9939C651.503 99.3855 652.332 99.3868 661.33 99.4011L661.348 99.4012C662.349 99.4028 663.45 99.4045 664.663 99.407L677.565 99.4333L678.084 98.8105V92.9115C678.084 89.0584 678.048 86.9451 677.981 86.8184C677.976 86.8095 677.972 86.8008 677.967 86.7923C677.962 86.7812 677.957 86.7704 677.952 86.7598C677.936 86.7276 677.921 86.6976 677.903 86.6699C677.675 86.319 676.885 86.3187 666.09 86.3157L664.546 86.3152Z" fill="white"/>
<path d="M678.613 106.939H656.027L655.782 106.691C655.638 106.545 655.537 106.327 655.537 106.159C655.537 105.579 654.982 105.189 654.513 105.439C653.678 105.883 654.206 107.539 655.388 108.184L655.787 108.401H678.231C678.34 107.907 678.468 107.419 678.613 106.939Z" fill="white"/>
<path fill-rule="evenodd" clip-rule="evenodd" d="M665.238 68.2468C665.748 67.9325 683.835 67.9325 684.345 68.2468C684.375 68.2654 684.404 68.2828 684.431 68.2994C684.535 68.3616 684.621 68.4137 684.694 68.4805C685.067 68.8245 685.067 69.5578 685.066 74.0692L685.066 74.8031C685.066 75.7055 685.087 76.4895 685.105 77.1703C685.156 79.1238 685.185 80.2281 684.64 80.8457C683.931 81.6483 682.252 81.6292 678.392 81.5852C677.356 81.5734 676.164 81.5598 674.791 81.5598C673.419 81.5598 672.227 81.5734 671.191 81.5852C667.33 81.6292 665.651 81.6483 664.943 80.8457C664.397 80.2281 664.427 79.1241 664.478 77.1706C664.496 76.4897 664.517 75.7057 664.517 74.8031L664.516 74.0692C664.516 69.5578 664.515 68.8245 664.889 68.4805C664.962 68.4137 665.048 68.3616 665.152 68.2994C665.179 68.2828 665.208 68.2654 665.238 68.2468ZM665.913 72.0799V69.4576H677.286V72.0799H665.913ZM683.67 72.0834L678.732 72.0295L678.676 69.4576H683.67V72.0834ZM665.913 76.1142V73.4919H677.286V76.1142H665.913ZM683.67 76.1177L678.732 76.0638L678.676 73.4919H683.67V76.1177ZM665.913 80.1485V77.5262H677.286V80.1485H665.913ZM683.67 80.1485H678.682V77.5262H683.67V80.1485Z" fill="white"/>
<path d="M622.642 178.179H623.875V174.202H626.102C626.192 174.202 626.276 174.202 626.361 174.197L628.509 178.179H629.94L627.639 173.973C628.936 173.531 629.543 172.472 629.543 171.12C629.543 169.32 628.469 167.997 626.082 167.997H622.642V178.179ZM623.875 173.088V169.091H626.043C627.693 169.091 628.33 169.897 628.33 171.12C628.33 172.343 627.693 173.088 626.063 173.088H623.875ZM634.558 178.338C636.109 178.338 637.242 177.563 637.6 176.409L636.467 176.091C636.169 176.887 635.478 177.284 634.558 177.284C633.181 177.284 632.231 176.394 632.176 174.759H637.72V174.262C637.72 171.418 636.029 170.443 634.438 170.443C632.37 170.443 630.998 172.074 630.998 174.421C630.998 176.767 632.35 178.338 634.558 178.338ZM632.176 173.745C632.256 172.556 633.096 171.497 634.438 171.497C635.711 171.497 636.527 172.452 636.527 173.745H632.176ZM640.678 173.585C640.678 172.253 641.503 171.497 642.627 171.497C643.715 171.497 644.377 172.208 644.377 173.406V178.179H645.55V173.327C645.55 171.378 644.511 170.443 642.965 170.443C641.811 170.443 641.095 170.96 640.737 171.736H640.638V170.543H639.505V178.179H640.678V173.585ZM649.941 178.358C651.274 178.358 651.97 177.642 652.208 177.145H652.268V178.179H653.441V173.148C653.441 170.722 651.592 170.443 650.617 170.443C649.464 170.443 648.151 170.841 647.555 172.233L648.668 172.631C648.927 172.074 649.538 171.477 650.657 171.477C651.736 171.477 652.268 172.049 652.268 173.029V173.068C652.268 173.635 651.691 173.585 650.299 173.764C648.882 173.948 647.336 174.262 647.336 176.012C647.336 177.503 648.489 178.358 649.941 178.358ZM650.12 177.304C649.185 177.304 648.509 176.887 648.509 176.071C648.509 175.176 649.325 174.898 650.239 174.779C650.737 174.719 652.069 174.58 652.268 174.341V175.415C652.268 176.37 651.512 177.304 650.12 177.304ZM655.583 178.179H656.756V173.406C656.756 172.288 657.571 171.497 658.486 171.497C659.376 171.497 659.997 172.079 659.997 172.949V178.179H661.191V173.208C661.191 172.223 661.807 171.497 662.881 171.497C663.716 171.497 664.432 171.94 664.432 173.068V178.179H665.605V173.068C665.605 171.274 664.641 170.443 663.279 170.443C662.185 170.443 661.384 170.946 660.992 171.736H660.912C660.534 170.921 659.868 170.443 658.864 170.443C657.87 170.443 657.134 170.921 656.816 171.736H656.716V170.543H655.583V178.179ZM670.952 178.338C672.503 178.338 673.637 177.563 673.995 176.409L672.861 176.091C672.563 176.887 671.872 177.284 670.952 177.284C669.575 177.284 668.626 176.394 668.571 174.759H674.114V174.262C674.114 171.418 672.424 170.443 670.833 170.443C668.765 170.443 667.393 172.074 667.393 174.421C667.393 176.767 668.745 178.338 670.952 178.338ZM668.571 173.745C668.65 172.556 669.491 171.497 670.833 171.497C672.106 171.497 672.921 172.452 672.921 173.745H668.571ZM680.692 178.259C681.184 178.259 681.587 177.856 681.587 177.364C681.587 176.872 681.184 176.469 680.692 176.469C680.199 176.469 679.797 176.872 679.797 177.364C679.797 177.856 680.199 178.259 680.692 178.259ZM684.567 170.543H683.215L685.641 174.361L683.215 178.179H684.567L686.397 175.216L688.226 178.179H689.578L687.112 174.361L689.578 170.543H688.226L686.397 173.665L684.567 170.543ZM692.426 167.997H691.253V178.179H692.426V167.997ZM699.984 172.253C699.616 171.169 698.791 170.443 697.279 170.443C695.669 170.443 694.475 171.358 694.475 172.651C694.475 173.705 695.102 174.411 696.504 174.739L697.777 175.037C698.547 175.216 698.91 175.584 698.91 176.111C698.91 176.767 698.214 177.304 697.12 177.304C696.161 177.304 695.559 176.892 695.35 176.071L694.237 176.35C694.51 177.647 695.579 178.338 697.14 178.338C698.915 178.338 700.123 177.369 700.123 176.051C700.123 174.987 699.457 174.316 698.095 173.983L696.961 173.705C696.056 173.481 695.649 173.178 695.649 172.591C695.649 171.935 696.345 171.458 697.279 171.458C698.304 171.458 698.726 172.024 698.93 172.551L699.984 172.253ZM709.227 170.543H707.517V169.767C707.517 169.012 707.835 168.614 708.611 168.614C708.949 168.614 709.148 168.693 709.267 168.733L709.605 167.719C709.426 167.639 709.068 167.52 708.492 167.52C707.398 167.52 706.344 168.176 706.344 169.489V170.543H705.111V171.537H706.344V178.179H707.517V171.537H709.227V170.543ZM710.872 178.179H712.045V170.543H710.872V178.179ZM711.468 169.27C711.926 169.27 712.304 168.912 712.304 168.475C712.304 168.037 711.926 167.679 711.468 167.679C711.011 167.679 710.633 168.037 710.633 168.475C710.633 168.912 711.011 169.27 711.468 169.27ZM715.367 167.997H714.194V178.179H715.367V167.997ZM720.718 178.338C722.269 178.338 723.403 177.563 723.761 176.409L722.627 176.091C722.329 176.887 721.638 177.284 720.718 177.284C719.341 177.284 718.391 176.394 718.337 174.759H723.88V174.262C723.88 171.418 722.19 170.443 720.599 170.443C718.53 170.443 717.158 172.074 717.158 174.421C717.158 176.767 718.511 178.338 720.718 178.338ZM718.337 173.745C718.416 172.556 719.256 171.497 720.599 171.497C721.871 171.497 722.687 172.452 722.687 173.745H718.337ZM609.787 199.358C611.119 199.358 611.815 198.642 612.054 198.145H612.114V199.179H613.287V194.148C613.287 191.722 611.437 191.443 610.463 191.443C609.31 191.443 607.997 191.841 607.4 193.233L608.514 193.631C608.773 193.074 609.384 192.477 610.503 192.477C611.582 192.477 612.114 193.049 612.114 194.029V194.068C612.114 194.635 611.537 194.585 610.145 194.764C608.728 194.948 607.182 195.262 607.182 197.012C607.182 198.503 608.335 199.358 609.787 199.358ZM609.966 198.304C609.031 198.304 608.355 197.887 608.355 197.071C608.355 196.176 609.17 195.898 610.085 195.779C610.582 195.719 611.915 195.58 612.114 195.341V196.415C612.114 197.37 611.358 198.304 609.966 198.304ZM618.531 199.338C620.221 199.338 621.335 198.304 621.533 196.952H620.36C620.141 197.787 619.445 198.284 618.531 198.284C617.139 198.284 616.244 197.131 616.244 195.361C616.244 193.631 617.158 192.497 618.531 192.497C619.565 192.497 620.181 193.134 620.36 193.83H621.533C621.335 192.398 620.122 191.443 618.511 191.443C616.443 191.443 615.07 193.074 615.07 195.401C615.07 197.688 616.383 199.338 618.531 199.338ZM626.351 199.338C628.041 199.338 629.155 198.304 629.354 196.952H628.18C627.962 197.787 627.266 198.284 626.351 198.284C624.959 198.284 624.064 197.131 624.064 195.361C624.064 193.631 624.979 192.497 626.351 192.497C627.385 192.497 628.002 193.134 628.18 193.83H629.354C629.155 192.398 627.942 191.443 626.331 191.443C624.263 191.443 622.891 193.074 622.891 195.401C622.891 197.688 624.203 199.338 626.351 199.338ZM634.171 199.338C636.239 199.338 637.631 197.767 637.631 195.401C637.631 193.014 636.239 191.443 634.171 191.443C632.103 191.443 630.711 193.014 630.711 195.401C630.711 197.767 632.103 199.338 634.171 199.338ZM634.171 198.284C632.6 198.284 631.884 196.932 631.884 195.401C631.884 193.87 632.6 192.497 634.171 192.497C635.742 192.497 636.458 193.87 636.458 195.401C636.458 196.932 635.742 198.284 634.171 198.284ZM639.422 199.179H640.596V194.347C640.596 193.313 641.411 192.557 642.525 192.557C642.838 192.557 643.161 192.617 643.241 192.637V191.443C643.106 191.433 642.798 191.424 642.624 191.424C641.709 191.424 640.914 191.941 640.636 192.696H640.556V191.543H639.422V199.179ZM647.283 199.338C648.754 199.338 649.251 198.424 649.51 198.006H649.649V199.179H650.783V188.997H649.609V192.756H649.51C649.251 192.358 648.794 191.443 647.302 191.443C645.373 191.443 644.041 192.975 644.041 195.381C644.041 197.807 645.373 199.338 647.283 199.338ZM647.442 198.284C645.97 198.284 645.214 196.992 645.214 195.361C645.214 193.75 645.95 192.497 647.442 192.497C648.873 192.497 649.629 193.651 649.629 195.361C649.629 197.091 648.854 198.284 647.442 198.284ZM653.094 199.179H654.268V191.543H653.094V199.179ZM653.691 190.27C654.148 190.27 654.526 189.912 654.526 189.475C654.526 189.037 654.148 188.679 653.691 188.679C653.234 188.679 652.856 189.037 652.856 189.475C652.856 189.912 653.234 190.27 653.691 190.27ZM657.59 194.585C657.59 193.253 658.415 192.497 659.539 192.497C660.628 192.497 661.289 193.208 661.289 194.406V199.179H662.462V194.327C662.462 192.378 661.423 191.443 659.877 191.443C658.723 191.443 658.008 191.96 657.65 192.736H657.55V191.543H656.417V199.179H657.59V194.585ZM667.688 202.202C669.518 202.202 670.99 201.367 670.99 199.398V191.543H669.856V192.756H669.737C669.478 192.358 669.001 191.443 667.509 191.443C665.581 191.443 664.248 192.975 664.248 195.321C664.248 197.708 665.64 199.06 667.49 199.06C668.981 199.06 669.458 198.185 669.717 197.767H669.816V199.318C669.816 200.591 668.921 201.168 667.688 201.168C666.301 201.168 665.814 200.437 665.501 200.014L664.566 200.671C665.044 201.471 665.983 202.202 667.688 202.202ZM667.649 198.006C666.177 198.006 665.421 196.892 665.421 195.301C665.421 193.75 666.157 192.497 667.649 192.497C669.081 192.497 669.836 193.651 669.836 195.301C669.836 196.992 669.061 198.006 667.649 198.006ZM680.396 191.543H678.765V189.713H677.592V191.543H676.438V192.537H677.592V197.31C677.592 198.642 678.666 199.279 679.66 199.279C680.098 199.279 680.376 199.199 680.535 199.139L680.296 198.085C680.197 198.105 680.038 198.145 679.779 198.145C679.262 198.145 678.765 197.986 678.765 196.992V192.537H680.396V191.543ZM685.181 199.338C687.249 199.338 688.641 197.767 688.641 195.401C688.641 193.014 687.249 191.443 685.181 191.443C683.113 191.443 681.721 193.014 681.721 195.401C681.721 197.767 683.113 199.338 685.181 199.338ZM685.181 198.284C683.61 198.284 682.894 196.932 682.894 195.401C682.894 193.87 683.61 192.497 685.181 192.497C686.752 192.497 687.468 193.87 687.468 195.401C687.468 196.932 686.752 198.284 685.181 198.284ZM694.37 202.043H695.543V198.006H695.642C695.901 198.424 696.398 199.338 697.87 199.338C699.779 199.338 701.111 197.807 701.111 195.381C701.111 192.975 699.779 191.443 697.85 191.443C696.358 191.443 695.901 192.358 695.642 192.756H695.503V191.543H694.37V202.043ZM695.523 195.361C695.523 193.651 696.279 192.497 697.711 192.497C699.202 192.497 699.938 193.75 699.938 195.361C699.938 196.992 699.182 198.284 697.711 198.284C696.299 198.284 695.523 197.091 695.523 195.361ZM702.901 199.179H704.074V194.347C704.074 193.313 704.89 192.557 706.003 192.557C706.316 192.557 706.64 192.617 706.719 192.637V191.443C706.585 191.433 706.277 191.424 706.103 191.424C705.188 191.424 704.392 191.941 704.114 192.696H704.035V191.543H702.901V199.179ZM710.98 199.338C713.048 199.338 714.44 197.767 714.44 195.401C714.44 193.014 713.048 191.443 710.98 191.443C708.912 191.443 707.52 193.014 707.52 195.401C707.52 197.767 708.912 199.338 710.98 199.338ZM710.98 198.284C709.409 198.284 708.693 196.932 708.693 195.401C708.693 193.87 709.409 192.497 710.98 192.497C712.551 192.497 713.267 193.87 713.267 195.401C713.267 196.932 712.551 198.284 710.98 198.284ZM716.231 191.543V199.736C716.231 200.512 715.913 200.949 715.197 200.949H714.978V202.043H715.217C716.688 202.043 717.404 201.148 717.404 199.736V191.543H716.231ZM716.808 190.27C717.265 190.27 717.643 189.912 717.643 189.475C717.643 189.037 717.265 188.679 716.808 188.679C716.35 188.679 715.973 189.037 715.973 189.475C715.973 189.912 716.35 190.27 716.808 190.27ZM722.755 199.338C724.306 199.338 725.44 198.563 725.798 197.409L724.664 197.091C724.366 197.887 723.675 198.284 722.755 198.284C721.378 198.284 720.428 197.394 720.374 195.759H725.917V195.262C725.917 192.418 724.227 191.443 722.636 191.443C720.568 191.443 719.195 193.074 719.195 195.421C719.195 197.767 720.548 199.338 722.755 199.338ZM720.374 194.745C720.453 193.556 721.293 192.497 722.636 192.497C723.908 192.497 724.724 193.452 724.724 194.745H720.374ZM730.804 199.338C732.494 199.338 733.608 198.304 733.807 196.952H732.634C732.415 197.787 731.719 198.284 730.804 198.284C729.412 198.284 728.517 197.131 728.517 195.361C728.517 193.631 729.432 192.497 730.804 192.497C731.838 192.497 732.455 193.134 732.634 193.83H733.807C733.608 192.398 732.395 191.443 730.784 191.443C728.716 191.443 727.344 193.074 727.344 195.401C727.344 197.688 728.656 199.338 730.804 199.338ZM738.843 191.543H737.212V189.713H736.039V191.543H734.886V192.537H736.039V197.31C736.039 198.642 737.113 199.279 738.107 199.279C738.545 199.279 738.823 199.199 738.982 199.139L738.744 198.085C738.644 198.105 738.485 198.145 738.227 198.145C737.71 198.145 737.212 197.986 737.212 196.992V192.537H738.843V191.543Z" fill="white"/>
<path d="M778.126 189.104L783.505 183.725L778.126 178.345L776.714 179.747L779.657 182.691H767.864V184.759H779.657L776.714 187.702L778.126 189.104Z" fill="white"/>
<path fill-rule="evenodd" clip-rule="evenodd" d="M841.238 54.2636C840.219 54.515 839.4 55.2036 838.963 56.1754C838.725 56.7065 838.708 57.7002 838.672 73.5355L838.633 90.3322H837.097C834.59 90.3322 833.328 91.0091 832.432 92.8353L831.97 93.7771V104.907V116.038L832.363 116.841C832.834 117.803 833.885 118.797 834.814 119.159C835.599 119.464 870.168 119.644 871.766 119.351C872.816 119.158 873.57 118.606 874.055 117.674L874.447 116.921L874.444 108.24C874.441 98.4437 874.49 98.9012 873.344 97.9178C872.34 97.0556 873.231 97.0934 853.789 97.09C833.774 97.0865 835.173 97.1582 834.421 96.0975C833.093 94.227 834.521 92.3041 837.238 92.3041H838.601L838.68 93.1818C838.8 94.5111 839.77 95.0602 840.455 94.1866L840.746 93.8155V75.3764V56.9372L841.091 56.5916L841.436 56.2458H862.009H882.583L882.622 61.7289C882.677 69.2551 881.98 68.5555 889.483 68.6104L894.949 68.6503V96.0478V123.445L894.604 123.791L894.26 124.137H867.848H841.436L841.091 123.791C840.888 123.587 840.746 123.282 840.746 123.048C840.746 122.238 839.965 121.693 839.304 122.042C838.13 122.662 838.873 124.975 840.536 125.875L841.097 126.179H867.848H894.598L895.16 125.875C895.817 125.519 896.357 124.968 896.723 124.278C897.131 123.511 897.133 66.8798 896.726 66.1055C896.37 65.4281 885.887 54.8925 885.19 54.5108L884.628 54.2034L863.144 54.1815C851.327 54.1695 841.469 54.2064 841.238 54.2636ZM889.647 61.5623C892.332 64.2538 894.528 66.5048 894.528 66.5642C894.528 66.6238 892.3 66.6558 889.578 66.6355L884.628 66.5985L884.591 61.6334C884.571 58.9026 884.602 56.6684 884.661 56.6684C884.719 56.6684 886.963 58.8706 889.647 61.5623ZM854.401 72.584C853.341 73.2321 853.385 72.8344 853.385 81.7401C853.385 92.5783 851.236 91.1763 867.848 91.1763C884.459 91.1763 882.31 92.5783 882.31 81.7401C882.31 72.8344 882.354 73.2321 881.294 72.584C880.577 72.145 855.119 72.145 854.401 72.584ZM862.371 76.106V77.9371H858.861H855.35V76.106V74.2749H858.861H862.371V76.106ZM871.358 76.106V77.9371H867.848H864.337V76.106V74.2749H867.848H871.358V76.106ZM880.345 76.1084V77.9421L876.87 77.9043L873.394 77.8667L873.355 76.0708L873.316 74.2749H876.83H880.345V76.1084ZM862.371 81.7401V83.5712H858.861H855.35V81.7401V79.9091H858.861H862.371V81.7401ZM871.358 81.7401V83.5712H867.848H864.337V81.7401V79.9091H867.848H871.358V81.7401ZM880.345 81.7425V83.5762L876.87 83.5384L873.394 83.5008L873.355 81.7049L873.316 79.9091H876.83H880.345V81.7425ZM862.371 87.3743V89.2053H858.861H855.35V87.3743V85.5432H858.861H862.371V87.3743ZM871.358 87.3743V89.2053H867.848H864.337V87.3743V85.5432H867.848H871.358V87.3743ZM880.345 87.3743V89.2053H876.835H873.324V87.3743V85.5432H876.835H880.345V87.3743ZM834.989 98.8666C835.386 99.0171 838.908 99.0539 853.426 99.0588C872.751 99.0655 871.95 99.0357 872.337 99.7616C872.431 99.9385 872.482 102.89 872.482 108.271V116.509L872.117 116.944L871.752 117.379L853.591 117.342C833.228 117.301 835.16 117.402 834.366 116.336C833.943 115.768 833.829 98.3964 834.249 98.5749C834.385 98.6329 834.719 98.7643 834.989 98.8666ZM841.027 102.686C840.136 103.015 840.103 103.771 840.929 104.917C841.261 105.378 841.866 106.236 842.273 106.824L843.012 107.893L841.461 110.098C839.707 112.59 839.62 112.789 840.046 113.332C840.779 114.266 841.267 113.928 843.205 111.143C844.368 109.472 844.106 109.43 845.566 111.522C847.053 113.654 847.11 113.714 847.685 113.714C849.095 113.714 848.936 112.807 847.059 110.138C846.13 108.817 845.548 107.863 845.608 107.76C845.663 107.664 846.266 106.787 846.948 105.81C848.251 103.945 848.439 103.409 847.943 102.982C847.161 102.308 846.742 102.549 845.457 104.408C844.151 106.298 844.374 106.303 842.999 104.347C842.373 103.456 841.805 102.727 841.736 102.727C841.668 102.727 841.528 102.701 841.425 102.668C841.322 102.635 841.143 102.644 841.027 102.686ZM851.884 102.729C851.306 102.961 851.278 103.215 851.278 108.282C851.278 114.279 851.008 113.714 853.876 113.714C856.117 113.714 856.473 113.587 856.473 112.792C856.473 112.034 855.928 111.742 854.514 111.742H853.244V107.468C853.244 103.573 853.222 103.174 852.998 102.977C852.656 102.676 852.246 102.585 851.884 102.729ZM861.772 102.74C857.988 103.634 858.176 107.196 862.09 108.784C864.454 109.743 864.963 110.321 864.183 111.16C863.361 112.045 861.705 111.907 860.455 110.848C859.446 109.994 858.086 110.894 858.78 111.957C860.616 114.767 866.064 114.018 866.482 110.898C866.727 109.063 865.754 108.036 862.604 106.804C861.313 106.3 861.026 106.031 861.168 105.463C861.377 104.627 862.864 104.455 864.126 105.122C865.402 105.795 866.163 105.593 866.163 104.582C866.163 103.421 863.543 102.321 861.772 102.74Z" fill="white"/>
<path d="M821.291 173.088C821.291 169.867 819.401 167.858 816.796 167.858C814.191 167.858 812.302 169.867 812.302 173.088C812.302 176.31 814.191 178.318 816.796 178.318C819.401 178.318 821.291 176.31 821.291 173.088ZM820.097 173.088C820.097 175.733 818.646 177.165 816.796 177.165C814.947 177.165 813.495 175.733 813.495 173.088C813.495 170.443 814.947 169.012 816.796 169.012C818.646 169.012 820.097 170.443 820.097 173.088ZM823.205 181.043H824.378V177.006H824.477C824.736 177.424 825.233 178.338 826.705 178.338C828.614 178.338 829.946 176.807 829.946 174.381C829.946 171.975 828.614 170.443 826.685 170.443C825.193 170.443 824.736 171.358 824.477 171.756H824.338V170.543H823.205V181.043ZM824.358 174.361C824.358 172.651 825.114 171.497 826.546 171.497C828.037 171.497 828.773 172.75 828.773 174.361C828.773 175.992 828.017 177.284 826.546 177.284C825.134 177.284 824.358 176.091 824.358 174.361ZM834.938 178.338C836.489 178.338 837.622 177.563 837.98 176.409L836.847 176.091C836.548 176.887 835.857 177.284 834.938 177.284C833.561 177.284 832.611 176.394 832.556 174.759H838.1V174.262C838.1 171.418 836.409 170.443 834.818 170.443C832.75 170.443 831.378 172.074 831.378 174.421C831.378 176.767 832.73 178.338 834.938 178.338ZM832.556 173.745C832.636 172.556 833.476 171.497 834.818 171.497C836.091 171.497 836.906 172.452 836.906 173.745H832.556ZM841.058 173.585C841.058 172.253 841.883 171.497 843.007 171.497C844.095 171.497 844.757 172.208 844.757 173.406V178.179H845.93V173.327C845.93 171.378 844.891 170.443 843.345 170.443C842.191 170.443 841.475 170.96 841.117 171.736H841.018V170.543H839.884V178.179H841.058V173.585ZM854.895 178.338C856.366 178.338 856.864 177.424 857.122 177.006H857.261V178.179H858.395V167.997H857.222V171.756H857.122C856.864 171.358 856.406 170.443 854.915 170.443C852.986 170.443 851.653 171.975 851.653 174.381C851.653 176.807 852.986 178.338 854.895 178.338ZM855.054 177.284C853.582 177.284 852.827 175.992 852.827 174.361C852.827 172.75 853.562 171.497 855.054 171.497C856.486 171.497 857.241 172.651 857.241 174.361C857.241 176.091 856.466 177.284 855.054 177.284ZM863.809 178.338C865.877 178.338 867.269 176.767 867.269 174.401C867.269 172.014 865.877 170.443 863.809 170.443C861.741 170.443 860.349 172.014 860.349 174.401C860.349 176.767 861.741 178.338 863.809 178.338ZM863.809 177.284C862.238 177.284 861.522 175.932 861.522 174.401C861.522 172.87 862.238 171.497 863.809 171.497C865.38 171.497 866.096 172.87 866.096 174.401C866.096 175.932 865.38 177.284 863.809 177.284ZM872.162 178.338C873.853 178.338 874.966 177.304 875.165 175.952H873.992C873.773 176.787 873.077 177.284 872.162 177.284C870.77 177.284 869.876 176.131 869.876 174.361C869.876 172.631 870.79 171.497 872.162 171.497C873.197 171.497 873.813 172.134 873.992 172.83H875.165C874.966 171.398 873.753 170.443 872.143 170.443C870.074 170.443 868.702 172.074 868.702 174.401C868.702 176.688 870.015 178.338 872.162 178.338ZM881.693 175.057C881.693 176.489 880.599 177.145 879.724 177.145C878.75 177.145 878.054 176.429 878.054 175.316V170.543H876.881V175.395C876.881 177.344 877.915 178.279 879.346 178.279C880.5 178.279 881.256 177.662 881.613 176.887H881.693V178.179H882.866V170.543H881.693V175.057ZM885.015 178.179H886.189V173.406C886.189 172.288 887.004 171.497 887.919 171.497C888.809 171.497 889.43 172.079 889.43 172.949V178.179H890.623V173.208C890.623 172.223 891.24 171.497 892.314 171.497C893.149 171.497 893.865 171.94 893.865 173.068V178.179H895.038V173.068C895.038 171.274 894.074 170.443 892.711 170.443C891.618 170.443 890.817 170.946 890.424 171.736H890.345C889.967 170.921 889.301 170.443 888.297 170.443C887.302 170.443 886.566 170.921 886.248 171.736H886.149V170.543H885.015V178.179ZM900.385 178.338C901.936 178.338 903.07 177.563 903.428 176.409L902.294 176.091C901.996 176.887 901.305 177.284 900.385 177.284C899.008 177.284 898.058 176.394 898.004 174.759H903.547V174.262C903.547 171.418 901.857 170.443 900.266 170.443C898.197 170.443 896.825 172.074 896.825 174.421C896.825 176.767 898.178 178.338 900.385 178.338ZM898.004 173.745C898.083 172.556 898.923 171.497 900.266 171.497C901.538 171.497 902.354 172.452 902.354 173.745H898.004ZM906.505 173.585C906.505 172.253 907.33 171.497 908.454 171.497C909.543 171.497 910.204 172.208 910.204 173.406V178.179H911.377V173.327C911.377 171.378 910.338 170.443 908.792 170.443C907.638 170.443 906.923 170.96 906.565 171.736H906.465V170.543H905.332V178.179H906.505V173.585ZM916.842 170.543H915.211V168.713H914.038V170.543H912.885V171.537H914.038V176.31C914.038 177.642 915.112 178.279 916.106 178.279C916.544 178.279 916.822 178.199 916.981 178.139L916.743 177.085C916.643 177.105 916.484 177.145 916.226 177.145C915.709 177.145 915.211 176.986 915.211 175.992V171.537H916.842V170.543ZM816.579 191.543H814.949V189.713H813.775V191.543H812.622V192.537H813.775V197.31C813.775 198.642 814.849 199.279 815.844 199.279C816.281 199.279 816.56 199.199 816.719 199.139L816.48 198.085C816.381 198.105 816.222 198.145 815.963 198.145C815.446 198.145 814.949 197.986 814.949 196.992V192.537H816.579V191.543ZM821.365 199.338C823.433 199.338 824.825 197.767 824.825 195.401C824.825 193.014 823.433 191.443 821.365 191.443C819.296 191.443 817.904 193.014 817.904 195.401C817.904 197.767 819.296 199.338 821.365 199.338ZM821.365 198.284C819.794 198.284 819.078 196.932 819.078 195.401C819.078 193.87 819.794 192.497 821.365 192.497C822.936 192.497 823.652 193.87 823.652 195.401C823.652 196.932 822.936 198.284 821.365 198.284ZM835.962 193.253C835.595 192.169 834.769 191.443 833.258 191.443C831.647 191.443 830.454 192.358 830.454 193.651C830.454 194.705 831.08 195.411 832.482 195.739L833.755 196.037C834.526 196.216 834.889 196.584 834.889 197.111C834.889 197.767 834.193 198.304 833.099 198.304C832.139 198.304 831.538 197.892 831.329 197.071L830.215 197.35C830.489 198.647 831.558 199.338 833.119 199.338C834.894 199.338 836.102 198.369 836.102 197.051C836.102 195.987 835.435 195.316 834.073 194.983L832.94 194.705C832.035 194.481 831.627 194.178 831.627 193.591C831.627 192.935 832.323 192.458 833.258 192.458C834.282 192.458 834.705 193.024 834.908 193.551L835.962 193.253ZM841.189 191.543H839.558V189.713H838.385V191.543H837.231V192.537H838.385V197.31C838.385 198.642 839.459 199.279 840.453 199.279C840.891 199.279 841.169 199.199 841.328 199.139L841.089 198.085C840.99 198.105 840.831 198.145 840.572 198.145C840.055 198.145 839.558 197.986 839.558 196.992V192.537H841.189V191.543ZM845.201 199.358C846.533 199.358 847.229 198.642 847.468 198.145H847.528V199.179H848.701V194.148C848.701 191.722 846.851 191.443 845.877 191.443C844.724 191.443 843.411 191.841 842.815 193.233L843.928 193.631C844.187 193.074 844.798 192.477 845.917 192.477C846.996 192.477 847.528 193.049 847.528 194.029V194.068C847.528 194.635 846.951 194.585 845.559 194.764C844.142 194.948 842.596 195.262 842.596 197.012C842.596 198.503 843.749 199.358 845.201 199.358ZM845.38 198.304C844.445 198.304 843.769 197.887 843.769 197.071C843.769 196.176 844.584 195.898 845.499 195.779C845.996 195.719 847.329 195.58 847.528 195.341V196.415C847.528 197.37 846.772 198.304 845.38 198.304ZM850.842 199.179H852.016V194.347C852.016 193.313 852.831 192.557 853.945 192.557C854.258 192.557 854.581 192.617 854.661 192.637V191.443C854.526 191.433 854.218 191.424 854.044 191.424C853.129 191.424 852.334 191.941 852.055 192.696H851.976V191.543H850.842V199.179ZM859.851 191.543H858.22V189.713H857.047V191.543H855.894V192.537H857.047V197.31C857.047 198.642 858.121 199.279 859.115 199.279C859.553 199.279 859.831 199.199 859.99 199.139L859.752 198.085C859.652 198.105 859.493 198.145 859.234 198.145C858.717 198.145 858.22 197.986 858.22 196.992V192.537H859.851V191.543ZM867.283 199.179H868.437L870.107 193.313H870.227L871.897 199.179H873.051L875.377 191.543H874.144L872.494 197.37H872.414L870.803 191.543H869.551L867.92 197.389H867.84L866.19 191.543H864.957L867.283 199.179ZM879.771 199.338C881.839 199.338 883.231 197.767 883.231 195.401C883.231 193.014 881.839 191.443 879.771 191.443C877.703 191.443 876.311 193.014 876.311 195.401C876.311 197.767 877.703 199.338 879.771 199.338ZM879.771 198.284C878.2 198.284 877.484 196.932 877.484 195.401C877.484 193.87 878.2 192.497 879.771 192.497C881.342 192.497 882.058 193.87 882.058 195.401C882.058 196.932 881.342 198.284 879.771 198.284ZM885.022 199.179H886.195V194.347C886.195 193.313 887.011 192.557 888.124 192.557C888.438 192.557 888.761 192.617 888.84 192.637V191.443C888.706 191.433 888.398 191.424 888.224 191.424C887.309 191.424 886.514 191.941 886.235 192.696H886.156V191.543H885.022V199.179ZM890.231 199.179H891.404V196.321L892.225 195.56L895.083 199.179H896.575L893.11 194.804L896.336 191.543H894.884L891.544 194.943H891.404V188.997H890.231V199.179ZM897.846 199.179H899.02V191.543H897.846V199.179ZM898.443 190.27C898.9 190.27 899.278 189.912 899.278 189.475C899.278 189.037 898.9 188.679 898.443 188.679C897.986 188.679 897.608 189.037 897.608 189.475C897.608 189.912 897.986 190.27 898.443 190.27ZM902.342 194.585C902.342 193.253 903.167 192.497 904.291 192.497C905.38 192.497 906.041 193.208 906.041 194.406V199.179H907.214V194.327C907.214 192.378 906.175 191.443 904.629 191.443C903.475 191.443 902.759 191.96 902.402 192.736H902.302V191.543H901.169V199.179H902.342V194.585ZM912.44 202.202C914.27 202.202 915.742 201.367 915.742 199.398V191.543H914.608V192.756H914.489C914.23 192.358 913.753 191.443 912.261 191.443C910.332 191.443 909 192.975 909 195.321C909 197.708 910.392 199.06 912.242 199.06C913.733 199.06 914.21 198.185 914.469 197.767H914.568V199.318C914.568 200.591 913.673 201.168 912.44 201.168C911.053 201.168 910.566 200.437 910.253 200.014L909.318 200.671C909.796 201.471 910.735 202.202 912.44 202.202ZM912.401 198.006C910.929 198.006 910.173 196.892 910.173 195.301C910.173 193.75 910.909 192.497 912.401 192.497C913.832 192.497 914.588 193.651 914.588 195.301C914.588 196.992 913.813 198.006 912.401 198.006Z" fill="white"/>
</svg>
