<svg width="1200" height="276" viewBox="0 0 1200 276" fill="none" xmlns="http://www.w3.org/2000/svg">
<rect x="2.21484" y="131.358" width="1195.57" height="37.6384" fill="#222222"/>
<rect x="2.21484" y="131.358" width="1195.57" height="37.6384" stroke="white" stroke-width="1.10701"/>
<path d="M830.72 144.148V154.111H825.185V144.148H830.72ZM837.362 141.934H834.041V156.325H837.362V141.934ZM832.934 141.934H822.971V156.325H832.934V141.934ZM821.864 141.934H818.543V156.325H821.864V141.934Z" fill="white"/>
<path opacity="0.3" d="M853.967 131.358V168.008" stroke="white" stroke-width="1.66593"/>
<g clip-path="url(#clip0_836_1514)">
<path d="M884.78 150.605H871.865V148.76H884.78V150.605Z" fill="white"/>
</g>
<path d="M902.676 149.683H1026.66" stroke="white" stroke-width="2.21402" stroke-linecap="round"/>
<circle cx="934.779" cy="149.683" r="5.53506" fill="white"/>
<g clip-path="url(#clip1_836_1514)">
<path d="M1057.47 150.606H1051.94V156.141H1050.09V150.606H1044.56V148.761H1050.09V143.226H1051.94V148.761H1057.47V150.606Z" fill="white"/>
</g>
<rect x="1075.37" y="136.399" width="60.4244" height="26.5683" rx="4.42804" fill="white" fill-opacity="0.1"/>
<path d="M1090.96 152.127C1090.96 152.703 1090.83 153.191 1090.56 153.593C1090.3 153.991 1089.94 154.294 1089.49 154.501C1089.04 154.709 1088.53 154.813 1087.96 154.813C1087.39 154.813 1086.88 154.709 1086.43 154.501C1085.98 154.294 1085.62 153.991 1085.35 153.593C1085.09 153.191 1084.96 152.703 1084.96 152.127C1084.96 151.751 1085.03 151.407 1085.17 151.096C1085.32 150.78 1085.52 150.506 1085.79 150.272C1086.06 150.039 1086.37 149.859 1086.73 149.734C1087.1 149.604 1087.51 149.539 1087.95 149.539C1088.53 149.539 1089.04 149.652 1089.5 149.877C1089.95 150.097 1090.31 150.402 1090.57 150.791C1090.83 151.18 1090.96 151.626 1090.96 152.127ZM1089.76 152.102C1089.76 151.751 1089.68 151.442 1089.53 151.174C1089.38 150.902 1089.17 150.69 1088.89 150.538C1088.62 150.387 1088.31 150.311 1087.95 150.311C1087.58 150.311 1087.26 150.387 1086.99 150.538C1086.73 150.69 1086.53 150.902 1086.38 151.174C1086.23 151.442 1086.16 151.751 1086.16 152.102C1086.16 152.465 1086.23 152.776 1086.37 153.036C1086.52 153.291 1086.73 153.487 1086.99 153.626C1087.27 153.76 1087.59 153.827 1087.96 153.827C1088.33 153.827 1088.65 153.76 1088.92 153.626C1089.19 153.487 1089.39 153.291 1089.54 153.036C1089.68 152.776 1089.76 152.465 1089.76 152.102ZM1090.74 147.697C1090.74 148.156 1090.62 148.569 1090.38 148.936C1090.14 149.304 1089.81 149.593 1089.39 149.805C1088.97 150.017 1088.49 150.123 1087.96 150.123C1087.42 150.123 1086.94 150.017 1086.51 149.805C1086.09 149.593 1085.77 149.304 1085.53 148.936C1085.29 148.569 1085.17 148.156 1085.17 147.697C1085.17 147.148 1085.29 146.681 1085.53 146.296C1085.77 145.911 1086.1 145.617 1086.52 145.414C1086.94 145.211 1087.42 145.109 1087.95 145.109C1088.49 145.109 1088.97 145.211 1089.39 145.414C1089.81 145.617 1090.14 145.911 1090.38 146.296C1090.62 146.681 1090.74 147.148 1090.74 147.697ZM1089.54 147.717C1089.54 147.401 1089.48 147.122 1089.34 146.88C1089.21 146.638 1089.02 146.448 1088.78 146.309C1088.55 146.166 1088.27 146.095 1087.95 146.095C1087.64 146.095 1087.36 146.162 1087.12 146.296C1086.89 146.426 1086.71 146.612 1086.57 146.854C1086.44 147.096 1086.38 147.384 1086.38 147.717C1086.38 148.041 1086.44 148.324 1086.57 148.566C1086.71 148.809 1086.89 148.997 1087.13 149.131C1087.37 149.265 1087.65 149.332 1087.96 149.332C1088.28 149.332 1088.55 149.265 1088.78 149.131C1089.02 148.997 1089.21 148.809 1089.34 148.566C1089.48 148.324 1089.54 148.041 1089.54 147.717ZM1094 150.188L1093.04 149.942L1093.51 145.239H1098.36V146.348H1094.53L1094.25 148.917C1094.42 148.817 1094.64 148.724 1094.9 148.638C1095.17 148.551 1095.48 148.508 1095.82 148.508C1096.26 148.508 1096.65 148.584 1097 148.735C1097.34 148.882 1097.64 149.094 1097.88 149.371C1098.12 149.648 1098.31 149.98 1098.44 150.37C1098.57 150.759 1098.64 151.193 1098.64 151.673C1098.64 152.127 1098.57 152.545 1098.45 152.925C1098.33 153.306 1098.14 153.639 1097.9 153.924C1097.65 154.205 1097.34 154.424 1096.96 154.579C1096.59 154.735 1096.15 154.813 1095.65 154.813C1095.27 154.813 1094.91 154.761 1094.56 154.657C1094.23 154.549 1093.92 154.387 1093.66 154.171C1093.39 153.95 1093.18 153.678 1093.01 153.353C1092.84 153.025 1092.74 152.64 1092.7 152.199H1093.84C1093.89 152.553 1093.99 152.852 1094.15 153.094C1094.3 153.336 1094.51 153.52 1094.76 153.645C1095.01 153.766 1095.31 153.827 1095.65 153.827C1095.93 153.827 1096.19 153.777 1096.41 153.678C1096.63 153.578 1096.81 153.436 1096.96 153.25C1097.12 153.064 1097.23 152.839 1097.31 152.575C1097.39 152.311 1097.43 152.015 1097.43 151.686C1097.43 151.388 1097.39 151.111 1097.31 150.856C1097.23 150.601 1097.1 150.378 1096.94 150.188C1096.78 149.998 1096.58 149.851 1096.35 149.747C1096.11 149.639 1095.85 149.585 1095.54 149.585C1095.14 149.585 1094.84 149.639 1094.63 149.747C1094.43 149.855 1094.22 150.002 1094 150.188ZM1099.85 147.555V147.055C1099.85 146.696 1099.93 146.37 1100.08 146.076C1100.24 145.782 1100.46 145.546 1100.75 145.369C1101.04 145.191 1101.39 145.103 1101.78 145.103C1102.19 145.103 1102.54 145.191 1102.82 145.369C1103.11 145.546 1103.33 145.782 1103.49 146.076C1103.64 146.37 1103.72 146.696 1103.72 147.055V147.555C1103.72 147.905 1103.64 148.227 1103.49 148.521C1103.34 148.815 1103.12 149.051 1102.83 149.228C1102.54 149.405 1102.2 149.494 1101.8 149.494C1101.39 149.494 1101.05 149.405 1100.75 149.228C1100.46 149.051 1100.24 148.815 1100.08 148.521C1099.93 148.227 1099.85 147.905 1099.85 147.555ZM1100.75 147.055V147.555C1100.75 147.753 1100.79 147.942 1100.86 148.119C1100.94 148.296 1101.06 148.441 1101.21 148.553C1101.37 148.662 1101.56 148.716 1101.8 148.716C1102.03 148.716 1102.22 148.662 1102.37 148.553C1102.52 148.441 1102.64 148.296 1102.71 148.119C1102.78 147.942 1102.82 147.753 1102.82 147.555V147.055C1102.82 146.852 1102.78 146.662 1102.7 146.484C1102.63 146.303 1102.52 146.158 1102.36 146.05C1102.21 145.937 1102.02 145.881 1101.78 145.881C1101.55 145.881 1101.36 145.937 1101.21 146.05C1101.05 146.158 1100.94 146.303 1100.86 146.484C1100.79 146.662 1100.75 146.852 1100.75 147.055ZM1104.45 152.873V152.367C1104.45 152.013 1104.53 151.689 1104.68 151.395C1104.84 151.1 1105.06 150.865 1105.35 150.687C1105.64 150.51 1105.98 150.422 1106.38 150.422C1106.79 150.422 1107.13 150.51 1107.42 150.687C1107.71 150.865 1107.93 151.1 1108.09 151.395C1108.24 151.689 1108.32 152.013 1108.32 152.367V152.873C1108.32 153.228 1108.24 153.552 1108.09 153.846C1107.94 154.14 1107.72 154.376 1107.43 154.553C1107.14 154.731 1106.8 154.819 1106.4 154.819C1105.99 154.819 1105.65 154.731 1105.36 154.553C1105.07 154.376 1104.84 154.14 1104.68 153.846C1104.53 153.552 1104.45 153.228 1104.45 152.873ZM1105.35 152.367V152.873C1105.35 153.072 1105.39 153.263 1105.46 153.444C1105.54 153.621 1105.66 153.766 1105.81 153.879C1105.97 153.987 1106.16 154.041 1106.4 154.041C1106.63 154.041 1106.82 153.987 1106.97 153.879C1107.13 153.766 1107.24 153.621 1107.32 153.444C1107.39 153.267 1107.43 153.077 1107.43 152.873V152.367C1107.43 152.164 1107.39 151.974 1107.31 151.797C1107.24 151.619 1107.12 151.477 1106.97 151.369C1106.81 151.256 1106.62 151.2 1106.38 151.2C1106.15 151.2 1105.96 151.256 1105.8 151.369C1105.65 151.477 1105.54 151.619 1105.46 151.797C1105.39 151.974 1105.35 152.164 1105.35 152.367ZM1106.68 146.582L1102.07 153.963L1101.39 153.535L1106.01 146.153L1106.68 146.582Z" fill="white"/>
<g clip-path="url(#clip2_836_1514)">
<path d="M1115.68 147.838L1120.3 152.451L1124.91 147.838H1115.68Z" fill="white"/>
</g>
<path opacity="0.3" d="M1149.08 131.358V168.008" stroke="white" stroke-width="1.66593"/>
<g clip-path="url(#clip3_836_1514)">
<path d="M1168.82 151.528H1166.97V156.141H1171.59V154.296H1168.82V151.528ZM1166.97 147.838H1168.82V145.071H1171.59V143.226H1166.97V147.838ZM1178.04 154.296H1175.28V156.141H1179.89V151.528H1178.04V154.296ZM1175.28 143.226V145.071H1178.04V147.838H1179.89V143.226H1175.28Z" fill="white"/>
</g>
<rect x="734.503" y="13.4612" width="190.406" height="106.273" rx="3.87454" fill="#222222"/>
<rect x="734.503" y="13.4612" width="190.406" height="106.273" rx="3.87454" stroke="white" stroke-width="1.10701"/>
<path d="M758.579 32.7823C758.579 32.5553 758.543 32.3535 758.473 32.1769C758.407 32.0003 758.289 31.8389 758.117 31.6926C757.946 31.5463 757.703 31.405 757.391 31.2688C757.083 31.1276 756.689 30.9838 756.21 30.8375C755.685 30.676 755.201 30.4969 754.757 30.3002C754.318 30.0984 753.935 29.8663 753.607 29.604C753.279 29.3366 753.024 29.0314 752.843 28.6883C752.661 28.3402 752.57 27.9391 752.57 27.4851C752.57 27.0361 752.664 26.6275 752.85 26.2592C753.042 25.8909 753.312 25.5731 753.66 25.3057C754.013 25.0332 754.429 24.8239 754.909 24.6776C755.388 24.5262 755.918 24.4505 756.498 24.4505C757.315 24.4505 758.019 24.6019 758.609 24.9046C759.204 25.2073 759.661 25.6134 759.979 26.123C760.302 26.6325 760.463 27.195 760.463 27.8105H758.579C758.579 27.4473 758.501 27.1269 758.344 26.8494C758.193 26.5669 757.961 26.3449 757.648 26.1835C757.34 26.0221 756.949 25.9413 756.475 25.9413C756.026 25.9413 755.653 26.0094 755.355 26.1457C755.057 26.2819 754.835 26.466 754.689 26.6981C754.543 26.9302 754.47 27.1925 754.47 27.4851C754.47 27.6919 754.518 27.8811 754.613 28.0527C754.709 28.2191 754.856 28.3755 755.052 28.5218C755.249 28.6631 755.496 28.7968 755.794 28.9229C756.092 29.049 756.442 29.1701 756.846 29.2862C757.456 29.4678 757.989 29.6696 758.443 29.8916C758.897 30.1085 759.275 30.3557 759.578 30.6332C759.88 30.9106 760.107 31.2259 760.259 31.5791C760.41 31.9272 760.486 32.3232 760.486 32.7672C760.486 33.2313 760.392 33.6501 760.206 34.0234C760.019 34.3917 759.752 34.707 759.404 34.9693C759.061 35.2266 758.647 35.4259 758.163 35.5671C757.683 35.7034 757.149 35.7715 756.558 35.7715C756.029 35.7715 755.506 35.7008 754.992 35.5596C754.482 35.4183 754.018 35.2039 753.599 34.9163C753.181 34.6237 752.848 34.2605 752.6 33.8266C752.353 33.3877 752.23 32.8757 752.23 32.2904H754.129C754.129 32.6486 754.19 32.9538 754.311 33.2061C754.437 33.4583 754.611 33.6652 754.833 33.8266C755.055 33.983 755.312 34.0991 755.605 34.1747C755.902 34.2504 756.22 34.2882 756.558 34.2882C757.002 34.2882 757.373 34.2252 757.671 34.0991C757.973 33.9729 758.2 33.7964 758.352 33.5693C758.503 33.3423 758.579 33.08 758.579 32.7823ZM765.738 27.4321V28.764H761.121V27.4321H765.738ZM762.453 25.4267H764.277V33.3574C764.277 33.6097 764.312 33.8039 764.383 33.9401C764.459 34.0713 764.562 34.1596 764.693 34.205C764.824 34.2504 764.978 34.2731 765.155 34.2731C765.281 34.2731 765.402 34.2655 765.518 34.2504C765.634 34.2353 765.727 34.2201 765.798 34.205L765.806 35.5974C765.654 35.6428 765.478 35.6832 765.276 35.7185C765.079 35.7538 764.852 35.7715 764.595 35.7715C764.176 35.7715 763.805 35.6983 763.482 35.552C763.16 35.4007 762.907 35.156 762.726 34.818C762.544 34.48 762.453 34.031 762.453 33.471V25.4267ZM771.761 33.978V30.0732C771.761 29.7806 771.708 29.5283 771.602 29.3164C771.496 29.1045 771.335 28.9406 771.118 28.8245C770.906 28.7085 770.639 28.6505 770.316 28.6505C770.018 28.6505 769.761 28.7009 769.544 28.8018C769.327 28.9027 769.158 29.039 769.037 29.2105C768.916 29.382 768.855 29.5762 768.855 29.7932H767.039C767.039 29.4703 767.117 29.1575 767.274 28.8548C767.43 28.5521 767.657 28.2822 767.955 28.0451C768.253 27.808 768.608 27.6213 769.022 27.4851C769.436 27.3489 769.9 27.2808 770.414 27.2808C771.03 27.2808 771.575 27.3842 772.049 27.591C772.528 27.7979 772.904 28.1107 773.176 28.5294C773.454 28.9431 773.593 29.4627 773.593 30.0883V33.7283C773.593 34.1016 773.618 34.4371 773.668 34.7347C773.724 35.0273 773.802 35.2821 773.903 35.499V35.6201H772.034C771.948 35.4234 771.88 35.1736 771.829 34.8709C771.784 34.5632 771.761 34.2655 771.761 33.978ZM772.026 30.6407L772.041 31.7683H770.732C770.394 31.7683 770.096 31.8011 769.839 31.8667C769.582 31.9272 769.367 32.018 769.196 32.1391C769.024 32.2602 768.896 32.4065 768.81 32.578C768.724 32.7495 768.681 32.9438 768.681 33.1607C768.681 33.3776 768.732 33.5769 768.833 33.7585C768.934 33.9351 769.08 34.0738 769.272 34.1747C769.468 34.2756 769.705 34.3261 769.983 34.3261C770.356 34.3261 770.682 34.2504 770.959 34.0991C771.242 33.9427 771.464 33.7535 771.625 33.5315C771.787 33.3045 771.872 33.0901 771.882 32.8883L772.473 33.698C772.412 33.9048 772.309 34.1268 772.162 34.3639C772.016 34.601 771.824 34.8281 771.587 35.045C771.355 35.2569 771.075 35.4309 770.747 35.5671C770.424 35.7034 770.051 35.7715 769.627 35.7715C769.092 35.7715 768.616 35.6655 768.197 35.4536C767.778 35.2367 767.45 34.9466 767.213 34.5834C766.976 34.2151 766.858 33.7989 766.858 33.3347C766.858 32.9009 766.938 32.5175 767.1 32.1845C767.266 31.8465 767.508 31.564 767.826 31.3369C768.149 31.1099 768.543 30.9384 769.007 30.8223C769.471 30.7013 770.001 30.6407 770.596 30.6407H772.026ZM777.308 29.1802V35.6201H775.484V27.4321H777.202L777.308 29.1802ZM776.983 31.2234L776.393 31.2159C776.398 30.6357 776.478 30.1034 776.635 29.6191C776.796 29.1348 777.018 28.7186 777.301 28.3705C777.588 28.0224 777.931 27.755 778.33 27.5683C778.728 27.3766 779.172 27.2808 779.662 27.2808C780.055 27.2808 780.411 27.3363 780.729 27.4473C781.052 27.5532 781.327 27.7273 781.554 27.9694C781.786 28.2116 781.962 28.5269 782.083 28.9153C782.204 29.2988 782.265 29.7705 782.265 30.3305V35.6201H780.434V30.3229C780.434 29.9294 780.376 29.6191 780.26 29.3921C780.149 29.16 779.985 28.9961 779.768 28.9002C779.556 28.7993 779.291 28.7489 778.973 28.7489C778.66 28.7489 778.38 28.8144 778.133 28.9456C777.886 29.0768 777.677 29.2559 777.505 29.4829C777.338 29.7099 777.21 29.9723 777.119 30.2699C777.028 30.5676 776.983 30.8854 776.983 31.2234ZM789.121 33.925V23.9965H790.952V35.6201H789.295L789.121 33.925ZM783.794 31.6169V31.458C783.794 30.8375 783.867 30.2724 784.013 29.7629C784.159 29.2483 784.371 28.8069 784.649 28.4386C784.926 28.0653 785.264 27.7802 785.663 27.5835C786.061 27.3817 786.51 27.2808 787.01 27.2808C787.504 27.2808 787.938 27.3766 788.311 27.5683C788.685 27.76 789.002 28.035 789.265 28.3932C789.527 28.7463 789.737 29.1701 789.893 29.6645C790.049 30.1539 790.16 30.6987 790.226 31.2991V31.8061C790.16 32.3913 790.049 32.9261 789.893 33.4104C789.737 33.8947 789.527 34.3135 789.265 34.6666C789.002 35.0198 788.682 35.2922 788.304 35.4839C787.93 35.6756 787.494 35.7715 786.995 35.7715C786.5 35.7715 786.054 35.668 785.655 35.4612C785.262 35.2544 784.926 34.9643 784.649 34.5909C784.371 34.2176 784.159 33.7787 784.013 33.2742C783.867 32.7647 783.794 32.2122 783.794 31.6169ZM785.617 31.458V31.6169C785.617 31.9903 785.65 32.3384 785.716 32.6612C785.786 32.9841 785.895 33.2692 786.041 33.5164C786.187 33.7585 786.377 33.9502 786.609 34.0915C786.846 34.2277 787.128 34.2958 787.456 34.2958C787.87 34.2958 788.21 34.205 788.478 34.0234C788.745 33.8418 788.955 33.5971 789.106 33.2893C789.262 32.9766 789.368 32.6284 789.424 32.245V30.8753C789.393 30.5777 789.33 30.3002 789.235 30.0429C789.144 29.7856 789.02 29.5611 788.864 29.3694C788.707 29.1726 788.513 29.0213 788.281 28.9153C788.054 28.8044 787.784 28.7489 787.471 28.7489C787.138 28.7489 786.856 28.8195 786.624 28.9608C786.392 29.102 786.2 29.2962 786.049 29.5434C785.902 29.7907 785.794 30.0782 785.723 30.4061C785.653 30.7341 785.617 31.0847 785.617 31.458ZM797.476 33.978V30.0732C797.476 29.7806 797.423 29.5283 797.317 29.3164C797.211 29.1045 797.049 28.9406 796.832 28.8245C796.62 28.7085 796.353 28.6505 796.03 28.6505C795.732 28.6505 795.475 28.7009 795.258 28.8018C795.041 28.9027 794.872 29.039 794.751 29.2105C794.63 29.382 794.57 29.5762 794.57 29.7932H792.753C792.753 29.4703 792.832 29.1575 792.988 28.8548C793.144 28.5521 793.371 28.2822 793.669 28.0451C793.967 27.808 794.322 27.6213 794.736 27.4851C795.15 27.3489 795.614 27.2808 796.129 27.2808C796.744 27.2808 797.289 27.3842 797.763 27.591C798.242 27.7979 798.618 28.1107 798.891 28.5294C799.168 28.9431 799.307 29.4627 799.307 30.0883V33.7283C799.307 34.1016 799.332 34.4371 799.383 34.7347C799.438 35.0273 799.516 35.2821 799.617 35.499V35.6201H797.748C797.662 35.4234 797.594 35.1736 797.544 34.8709C797.498 34.5632 797.476 34.2655 797.476 33.978ZM797.74 30.6407L797.756 31.7683H796.446C796.108 31.7683 795.811 31.8011 795.553 31.8667C795.296 31.9272 795.082 32.018 794.91 32.1391C794.739 32.2602 794.61 32.4065 794.524 32.578C794.438 32.7495 794.396 32.9438 794.396 33.1607C794.396 33.3776 794.446 33.5769 794.547 33.7585C794.648 33.9351 794.794 34.0738 794.986 34.1747C795.183 34.2756 795.42 34.3261 795.697 34.3261C796.07 34.3261 796.396 34.2504 796.673 34.0991C796.956 33.9427 797.178 33.7535 797.339 33.5315C797.501 33.3045 797.586 33.0901 797.597 32.8883L798.187 33.698C798.126 33.9048 798.023 34.1268 797.877 34.3639C797.73 34.601 797.539 34.8281 797.301 35.045C797.069 35.2569 796.789 35.4309 796.461 35.5671C796.139 35.7034 795.765 35.7715 795.341 35.7715C794.807 35.7715 794.33 35.6655 793.911 35.4536C793.493 35.2367 793.165 34.9466 792.927 34.5834C792.69 34.2151 792.572 33.7989 792.572 33.3347C792.572 32.9009 792.653 32.5175 792.814 32.1845C792.98 31.8465 793.223 31.564 793.54 31.3369C793.863 31.1099 794.257 30.9384 794.721 30.8223C795.185 30.7013 795.715 30.6407 796.31 30.6407H797.74ZM803.045 28.991V35.6201H801.221V27.4321H802.962L803.045 28.991ZM805.55 27.3792L805.535 29.0743C805.424 29.0541 805.303 29.039 805.172 29.0289C805.045 29.0188 804.919 29.0137 804.793 29.0137C804.48 29.0137 804.206 29.0591 803.968 29.1499C803.731 29.2357 803.532 29.3618 803.371 29.5283C803.214 29.6898 803.093 29.8865 803.007 30.1186C802.922 30.3506 802.871 30.6105 802.856 30.898L802.44 30.9283C802.44 30.4137 802.49 29.937 802.591 29.498C802.692 29.0591 802.843 28.6732 803.045 28.3402C803.252 28.0073 803.509 27.7474 803.817 27.5608C804.13 27.3741 804.491 27.2808 804.899 27.2808C805.01 27.2808 805.129 27.2909 805.255 27.311C805.386 27.3312 805.484 27.3539 805.55 27.3792ZM811.536 33.925V23.9965H813.367V35.6201H811.71L811.536 33.925ZM806.208 31.6169V31.458C806.208 30.8375 806.282 30.2724 806.428 29.7629C806.574 29.2483 806.786 28.8069 807.063 28.4386C807.341 28.0653 807.679 27.7802 808.078 27.5835C808.476 27.3817 808.925 27.2808 809.425 27.2808C809.919 27.2808 810.353 27.3766 810.726 27.5683C811.099 27.76 811.417 28.035 811.68 28.3932C811.942 28.7463 812.151 29.1701 812.308 29.6645C812.464 30.1539 812.575 30.6987 812.641 31.2991V31.8061C812.575 32.3913 812.464 32.9261 812.308 33.4104C812.151 33.8947 811.942 34.3135 811.68 34.6666C811.417 35.0198 811.097 35.2922 810.719 35.4839C810.345 35.6756 809.909 35.7715 809.409 35.7715C808.915 35.7715 808.469 35.668 808.07 35.4612C807.676 35.2544 807.341 34.9643 807.063 34.5909C806.786 34.2176 806.574 33.7787 806.428 33.2742C806.282 32.7647 806.208 32.2122 806.208 31.6169ZM808.032 31.458V31.6169C808.032 31.9903 808.065 32.3384 808.13 32.6612C808.201 32.9841 808.31 33.2692 808.456 33.5164C808.602 33.7585 808.791 33.9502 809.023 34.0915C809.261 34.2277 809.543 34.2958 809.871 34.2958C810.285 34.2958 810.625 34.205 810.893 34.0234C811.16 33.8418 811.369 33.5971 811.521 33.2893C811.677 32.9766 811.783 32.6284 811.839 32.245V30.8753C811.808 30.5777 811.745 30.3002 811.649 30.0429C811.559 29.7856 811.435 29.5611 811.279 29.3694C811.122 29.1726 810.928 29.0213 810.696 28.9153C810.469 28.8044 810.199 28.7489 809.886 28.7489C809.553 28.7489 809.271 28.8195 809.039 28.9608C808.807 29.102 808.615 29.2962 808.463 29.5434C808.317 29.7907 808.209 30.0782 808.138 30.4061C808.067 30.7341 808.032 31.0847 808.032 31.458Z" fill="white"/>
<path d="M872.771 35.6201C871.33 35.6201 870.4 34.7057 870.4 33.2799C870.4 31.7766 871.299 30.8932 873.065 30.8932H873.98V29.1884H873.065C871.299 29.1884 870.4 28.305 870.4 26.8017C870.4 25.3758 871.33 24.4614 872.771 24.4614C874.507 24.4614 875.065 25.5463 875.065 26.8482V28.1345H876.77V26.8482C876.77 25.5463 877.327 24.4614 879.063 24.4614C880.505 24.4614 881.434 25.3758 881.434 26.8017C881.434 28.305 880.536 29.1884 878.769 29.1884H877.854V30.8932H878.769C880.536 30.8932 881.434 31.7766 881.434 33.2799C881.434 34.7057 880.505 35.6201 879.063 35.6201C877.327 35.6201 876.77 34.5352 876.77 33.2334V31.9471H875.065V33.2334C875.065 34.5352 874.507 35.6201 872.771 35.6201ZM877.854 26.8172V28.1345H878.769C879.869 28.1345 880.334 27.6851 880.334 26.8017C880.334 25.8873 879.792 25.5308 879.063 25.5308C878.257 25.5308 877.854 26.0268 877.854 26.8172ZM873.065 28.1345H873.98V26.8172C873.98 26.0268 873.577 25.5308 872.771 25.5308C872.043 25.5308 871.5 25.8873 871.5 26.8017C871.5 27.6851 871.965 28.1345 873.065 28.1345ZM875.065 30.8932H876.77V29.1884H875.065V30.8932ZM872.771 34.5507C873.577 34.5507 873.98 34.0548 873.98 33.2644V31.9471H873.065C871.965 31.9471 871.5 32.3965 871.5 33.2799C871.5 34.1943 872.043 34.5507 872.771 34.5507ZM877.854 33.2644C877.854 34.0548 878.257 34.5507 879.063 34.5507C879.792 34.5507 880.334 34.1943 880.334 33.2799C880.334 32.3965 879.869 31.9471 878.769 31.9471H877.854V33.2644ZM894.143 29.5813V31.2234H886.591V29.5813H894.143ZM891.252 26.4938V34.5153H889.489V26.4938H891.252ZM904.374 24.5641V35.6201H902.551V26.7284L899.849 27.644V26.1381L904.155 24.5641H904.374Z" fill="white"/>
<path d="M753.554 60.0262H755.249L758.435 68.5245L761.613 60.0262H763.308L759.101 71.0444H757.754L753.554 60.0262ZM752.782 60.0262H754.394L754.674 67.3818V71.0444H752.782V60.0262ZM762.468 60.0262H764.088V71.0444H762.188V67.3818L762.468 60.0262ZM765.813 67.0412V66.8672C765.813 66.2769 765.899 65.7296 766.071 65.2251C766.242 64.7155 766.489 64.2741 766.812 63.9008C767.14 63.5224 767.539 63.2298 768.008 63.0229C768.482 62.811 769.017 62.7051 769.612 62.7051C770.212 62.7051 770.747 62.811 771.216 63.0229C771.691 63.2298 772.092 63.5224 772.42 63.9008C772.748 64.2741 772.997 64.7155 773.169 65.2251C773.34 65.7296 773.426 66.2769 773.426 66.8672V67.0412C773.426 67.6315 773.34 68.1789 773.169 68.6834C772.997 69.1879 772.748 69.6293 772.42 70.0077C772.092 70.381 771.693 70.6736 771.224 70.8855C770.755 71.0924 770.223 71.1958 769.627 71.1958C769.027 71.1958 768.49 71.0924 768.015 70.8855C767.546 70.6736 767.148 70.381 766.82 70.0077C766.492 69.6293 766.242 69.1879 766.071 68.6834C765.899 68.1789 765.813 67.6315 765.813 67.0412ZM767.637 66.8672V67.0412C767.637 67.4095 767.675 67.7576 767.751 68.0856C767.826 68.4135 767.945 68.701 768.106 68.9482C768.268 69.1955 768.474 69.3897 768.727 69.5309C768.979 69.6722 769.279 69.7428 769.627 69.7428C769.965 69.7428 770.258 69.6722 770.505 69.5309C770.757 69.3897 770.964 69.1955 771.126 68.9482C771.287 68.701 771.406 68.4135 771.481 68.0856C771.562 67.7576 771.602 67.4095 771.602 67.0412V66.8672C771.602 66.504 771.562 66.1609 771.481 65.838C771.406 65.5101 771.285 65.22 771.118 64.9678C770.957 64.7155 770.75 64.5188 770.498 64.3775C770.25 64.2312 769.955 64.158 769.612 64.158C769.269 64.158 768.971 64.2312 768.719 64.3775C768.472 64.5188 768.268 64.7155 768.106 64.9678C767.945 65.22 767.826 65.5101 767.751 65.838C767.675 66.1609 767.637 66.504 767.637 66.8672ZM778.708 62.8564V64.1883H774.092V62.8564H778.708ZM775.424 60.8511H777.248V68.7818C777.248 69.034 777.283 69.2282 777.354 69.3645C777.429 69.4956 777.533 69.5839 777.664 69.6293C777.795 69.6747 777.949 69.6974 778.126 69.6974C778.252 69.6974 778.373 69.6899 778.489 69.6747C778.605 69.6596 778.698 69.6445 778.769 69.6293L778.776 71.0217C778.625 71.0671 778.448 71.1075 778.247 71.1428C778.05 71.1781 777.823 71.1958 777.566 71.1958C777.147 71.1958 776.776 71.1226 776.453 70.9763C776.13 70.825 775.878 70.5803 775.696 70.2423C775.515 69.9043 775.424 69.4553 775.424 68.8953V60.8511ZM779.586 67.0412V66.8672C779.586 66.2769 779.672 65.7296 779.843 65.2251C780.015 64.7155 780.262 64.2741 780.585 63.9008C780.913 63.5224 781.311 63.2298 781.781 63.0229C782.255 62.811 782.79 62.7051 783.385 62.7051C783.985 62.7051 784.52 62.811 784.989 63.0229C785.463 63.2298 785.865 63.5224 786.192 63.9008C786.52 64.2741 786.77 64.7155 786.942 65.2251C787.113 65.7296 787.199 66.2769 787.199 66.8672V67.0412C787.199 67.6315 787.113 68.1789 786.942 68.6834C786.77 69.1879 786.52 69.6293 786.192 70.0077C785.865 70.381 785.466 70.6736 784.997 70.8855C784.528 71.0924 783.995 71.1958 783.4 71.1958C782.8 71.1958 782.262 71.0924 781.788 70.8855C781.319 70.6736 780.92 70.381 780.593 70.0077C780.265 69.6293 780.015 69.1879 779.843 68.6834C779.672 68.1789 779.586 67.6315 779.586 67.0412ZM781.41 66.8672V67.0412C781.41 67.4095 781.448 67.7576 781.523 68.0856C781.599 68.4135 781.718 68.701 781.879 68.9482C782.04 69.1955 782.247 69.3897 782.5 69.5309C782.752 69.6722 783.052 69.7428 783.4 69.7428C783.738 69.7428 784.031 69.6722 784.278 69.5309C784.53 69.3897 784.737 69.1955 784.898 68.9482C785.06 68.701 785.178 68.4135 785.254 68.0856C785.335 67.7576 785.375 67.4095 785.375 67.0412V66.8672C785.375 66.504 785.335 66.1609 785.254 65.838C785.178 65.5101 785.057 65.22 784.891 64.9678C784.729 64.7155 784.523 64.5188 784.27 64.3775C784.023 64.2312 783.728 64.158 783.385 64.158C783.042 64.158 782.744 64.2312 782.492 64.3775C782.245 64.5188 782.04 64.7155 781.879 64.9678C781.718 65.22 781.599 65.5101 781.523 65.838C781.448 66.1609 781.41 66.504 781.41 66.8672ZM790.559 64.4153V71.0444H788.735V62.8564H790.476L790.559 64.4153ZM793.064 62.8035L793.049 64.4986C792.938 64.4784 792.816 64.4633 792.685 64.4532C792.559 64.4431 792.433 64.438 792.307 64.438C791.994 64.438 791.719 64.4834 791.482 64.5743C791.245 64.66 791.046 64.7861 790.884 64.9526C790.728 65.1141 790.607 65.3108 790.521 65.5429C790.435 65.775 790.385 66.0348 790.37 66.3223L789.953 66.3526C789.953 65.838 790.004 65.3613 790.105 64.9224C790.206 64.4834 790.357 64.0975 790.559 63.7645C790.766 63.4316 791.023 63.1718 791.331 62.9851C791.644 62.7984 792.004 62.7051 792.413 62.7051C792.524 62.7051 792.642 62.7152 792.769 62.7354C792.9 62.7555 792.998 62.7782 793.064 62.8035ZM807.033 65.2326V65.838C807.033 66.6704 806.925 67.4171 806.708 68.078C806.491 68.7389 806.181 69.3014 805.777 69.7655C805.378 70.2297 804.899 70.5853 804.339 70.8325C803.779 71.0747 803.159 71.1958 802.478 71.1958C801.802 71.1958 801.184 71.0747 800.624 70.8325C800.069 70.5853 799.587 70.2297 799.178 69.7655C798.77 69.3014 798.452 68.7389 798.225 68.078C798.003 67.4171 797.892 66.6704 797.892 65.838V65.2326C797.892 64.4002 798.003 63.6561 798.225 63.0002C798.447 62.3393 798.759 61.7768 799.163 61.3127C799.572 60.8435 800.053 60.4878 800.608 60.2457C801.168 59.9985 801.786 59.8749 802.462 59.8749C803.144 59.8749 803.764 59.9985 804.324 60.2457C804.884 60.4878 805.366 60.8435 805.769 61.3127C806.173 61.7768 806.483 62.3393 806.7 63.0002C806.922 63.6561 807.033 64.4002 807.033 65.2326ZM805.134 65.838V65.2175C805.134 64.602 805.073 64.0597 804.952 63.5905C804.836 63.1163 804.662 62.7202 804.43 62.4024C804.203 62.0795 803.923 61.8374 803.59 61.6759C803.257 61.5094 802.881 61.4262 802.462 61.4262C802.044 61.4262 801.67 61.5094 801.342 61.6759C801.015 61.8374 800.735 62.0795 800.502 62.4024C800.275 62.7202 800.101 63.1163 799.98 63.5905C799.859 64.0597 799.799 64.602 799.799 65.2175V65.838C799.799 66.4535 799.859 66.9984 799.98 67.4726C800.101 67.9468 800.278 68.3479 800.51 68.6758C800.747 68.9987 801.03 69.2434 801.358 69.4099C801.686 69.5713 802.059 69.652 802.478 69.652C802.901 69.652 803.277 69.5713 803.605 69.4099C803.933 69.2434 804.211 68.9987 804.438 68.6758C804.665 68.3479 804.836 67.9468 804.952 67.4726C805.073 66.9984 805.134 66.4535 805.134 65.838ZM813.677 69.1147V62.8564H815.509V71.0444H813.783L813.677 69.1147ZM813.935 67.4121L814.548 67.3969C814.548 67.9468 814.487 68.4538 814.366 68.918C814.245 69.3771 814.058 69.7781 813.806 70.1212C813.554 70.4592 813.231 70.7241 812.837 70.9158C812.444 71.1025 811.972 71.1958 811.422 71.1958C811.024 71.1958 810.658 71.1378 810.325 71.0217C809.992 70.9057 809.705 70.7266 809.462 70.4844C809.225 70.2423 809.041 69.927 808.91 69.5385C808.779 69.15 808.713 68.6859 808.713 68.1461V62.8564H810.537V68.1612C810.537 68.4589 810.572 68.7086 810.643 68.9104C810.714 69.1072 810.809 69.2661 810.93 69.3872C811.052 69.5082 811.193 69.594 811.354 69.6445C811.516 69.6949 811.687 69.7201 811.869 69.7201C812.388 69.7201 812.797 69.6192 813.095 69.4174C813.397 69.2106 813.612 68.9331 813.738 68.585C813.869 68.2369 813.935 67.8459 813.935 67.4121ZM821.131 62.8564V64.1883H816.515V62.8564H821.131ZM817.847 60.8511H819.671V68.7818C819.671 69.034 819.706 69.2282 819.777 69.3645C819.852 69.4956 819.956 69.5839 820.087 69.6293C820.218 69.6747 820.372 69.6974 820.549 69.6974C820.675 69.6974 820.796 69.6899 820.912 69.6747C821.028 69.6596 821.121 69.6445 821.192 69.6293L821.199 71.0217C821.048 71.0671 820.872 71.1075 820.67 71.1428C820.473 71.1781 820.246 71.1958 819.989 71.1958C819.57 71.1958 819.199 71.1226 818.876 70.9763C818.553 70.825 818.301 70.5803 818.12 70.2423C817.938 69.9043 817.847 69.4553 817.847 68.8953V60.8511ZM824.37 64.4305V74.1925H822.547V62.8564H824.226L824.37 64.4305ZM829.705 66.8748V67.0337C829.705 67.629 829.635 68.1814 829.493 68.691C829.357 69.1955 829.153 69.6369 828.88 70.0153C828.613 70.3886 828.283 70.6787 827.889 70.8855C827.496 71.0924 827.042 71.1958 826.527 71.1958C826.017 71.1958 825.571 71.1025 825.188 70.9158C824.809 70.7241 824.489 70.4542 824.226 70.1061C823.964 69.758 823.752 69.3493 823.591 68.8801C823.434 68.4059 823.323 67.8863 823.258 67.3212V66.7083C823.323 66.1079 823.434 65.5631 823.591 65.0737C823.752 64.5843 823.964 64.1631 824.226 63.8099C824.489 63.4568 824.809 63.1844 825.188 62.9927C825.566 62.8009 826.007 62.7051 826.512 62.7051C827.026 62.7051 827.483 62.806 827.882 63.0078C828.28 63.2045 828.616 63.4871 828.888 63.8553C829.16 64.2186 829.365 64.6575 829.501 65.1721C829.637 65.6816 829.705 66.2492 829.705 66.8748ZM827.882 67.0337V66.8748C827.882 66.4964 827.846 66.1458 827.776 65.8229C827.705 65.495 827.594 65.2074 827.443 64.9602C827.291 64.713 827.097 64.5213 826.86 64.3851C826.628 64.2438 826.348 64.1732 826.02 64.1732C825.697 64.1732 825.42 64.2287 825.188 64.3397C824.955 64.4456 824.761 64.5944 824.605 64.7861C824.448 64.9779 824.327 65.2024 824.242 65.4596C824.156 65.7119 824.095 65.9868 824.06 66.2845V67.7526C824.121 68.1158 824.224 68.4488 824.37 68.7515C824.517 69.0542 824.723 69.2964 824.991 69.478C825.263 69.6545 825.611 69.7428 826.035 69.7428C826.363 69.7428 826.643 69.6722 826.875 69.5309C827.107 69.3897 827.296 69.1955 827.443 68.9482C827.594 68.696 827.705 68.4059 827.776 68.078C827.846 67.7501 827.882 67.402 827.882 67.0337ZM836.183 69.1147V62.8564H838.014V71.0444H836.289L836.183 69.1147ZM836.44 67.4121L837.053 67.3969C837.053 67.9468 836.993 68.4538 836.872 68.918C836.751 69.3771 836.564 69.7781 836.312 70.1212C836.059 70.4592 835.737 70.7241 835.343 70.9158C834.95 71.1025 834.478 71.1958 833.928 71.1958C833.529 71.1958 833.164 71.1378 832.831 71.0217C832.498 70.9057 832.21 70.7266 831.968 70.4844C831.731 70.2423 831.547 69.927 831.416 69.5385C831.284 69.15 831.219 68.6859 831.219 68.1461V62.8564H833.043V68.1612C833.043 68.4589 833.078 68.7086 833.149 68.9104C833.219 69.1072 833.315 69.2661 833.436 69.3872C833.557 69.5082 833.698 69.594 833.86 69.6445C834.021 69.6949 834.193 69.7201 834.374 69.7201C834.894 69.7201 835.303 69.6192 835.6 69.4174C835.903 69.2106 836.117 68.9331 836.244 68.585C836.375 68.2369 836.44 67.8459 836.44 67.4121ZM843.637 62.8564V64.1883H839.021V62.8564H843.637ZM840.353 60.8511H842.176V68.7818C842.176 69.034 842.212 69.2282 842.282 69.3645C842.358 69.4956 842.462 69.5839 842.593 69.6293C842.724 69.6747 842.878 69.6974 843.054 69.6974C843.18 69.6974 843.302 69.6899 843.418 69.6747C843.534 69.6596 843.627 69.6445 843.698 69.6293L843.705 71.0217C843.554 71.0671 843.377 71.1075 843.175 71.1428C842.979 71.1781 842.752 71.1958 842.494 71.1958C842.076 71.1958 841.705 71.1226 841.382 70.9763C841.059 70.825 840.807 70.5803 840.625 70.2423C840.444 69.9043 840.353 69.4553 840.353 68.8953V60.8511Z" fill="white"/>
<path d="M872.771 71.0444C871.33 71.0444 870.4 70.13 870.4 68.7042C870.4 67.2009 871.299 66.3175 873.065 66.3175H873.98V64.6127H873.065C871.299 64.6127 870.4 63.7293 870.4 62.226C870.4 60.8002 871.33 59.8858 872.771 59.8858C874.507 59.8858 875.065 60.9706 875.065 62.2725V63.5588H876.77V62.2725C876.77 60.9706 877.327 59.8858 879.063 59.8858C880.505 59.8858 881.434 60.8002 881.434 62.226C881.434 63.7293 880.536 64.6127 878.769 64.6127H877.854V66.3175H878.769C880.536 66.3175 881.434 67.2009 881.434 68.7042C881.434 70.13 880.505 71.0444 879.063 71.0444C877.327 71.0444 876.77 69.9596 876.77 68.6577V67.3714H875.065V68.6577C875.065 69.9596 874.507 71.0444 872.771 71.0444ZM877.854 62.2415V63.5588H878.769C879.869 63.5588 880.334 63.1094 880.334 62.226C880.334 61.3116 879.792 60.9551 879.063 60.9551C878.257 60.9551 877.854 61.4511 877.854 62.2415ZM873.065 63.5588H873.98V62.2415C873.98 61.4511 873.577 60.9551 872.771 60.9551C872.043 60.9551 871.5 61.3116 871.5 62.226C871.5 63.1094 871.965 63.5588 873.065 63.5588ZM875.065 66.3175H876.77V64.6127H875.065V66.3175ZM872.771 69.9751C873.577 69.9751 873.98 69.4791 873.98 68.6887V67.3714H873.065C871.965 67.3714 871.5 67.8208 871.5 68.7042C871.5 69.6186 872.043 69.9751 872.771 69.9751ZM877.854 68.6887C877.854 69.4791 878.257 69.9751 879.063 69.9751C879.792 69.9751 880.334 69.6186 880.334 68.7042C880.334 67.8208 879.869 67.3714 878.769 67.3714H877.854V68.6887ZM894.143 65.0056V66.6477H886.591V65.0056H894.143ZM891.252 61.9181V69.9396H889.489V61.9181H891.252ZM906.781 69.5915V71.0444H899.395V69.7958L902.982 65.8834C903.375 65.4395 903.686 65.0561 903.913 64.7332C904.14 64.4103 904.299 64.1202 904.389 63.8629C904.485 63.6006 904.533 63.3458 904.533 63.0986C904.533 62.7505 904.468 62.4453 904.336 62.1829C904.21 61.9156 904.024 61.7062 903.776 61.5548C903.529 61.3984 903.229 61.3202 902.876 61.3202C902.467 61.3202 902.124 61.4085 901.847 61.5851C901.569 61.7617 901.36 62.0064 901.219 62.3192C901.077 62.6269 901.007 62.98 901.007 63.3786H899.183C899.183 62.7379 899.329 62.1527 899.622 61.6229C899.915 61.0882 900.338 60.6644 900.893 60.3516C901.448 60.0338 902.117 59.8749 902.899 59.8749C903.635 59.8749 904.261 59.9985 904.775 60.2457C905.29 60.4929 905.681 60.8435 905.948 61.2975C906.221 61.7516 906.357 62.2889 906.357 62.9094C906.357 63.2525 906.301 63.593 906.191 63.931C906.08 64.269 905.921 64.607 905.714 64.9451C905.512 65.278 905.272 65.6135 904.995 65.9515C904.717 66.2845 904.412 66.6225 904.079 66.9656L901.695 69.5915H906.781Z" fill="white"/>
<path d="M755.983 106.469H753.63L753.645 104.963H755.983C756.664 104.963 757.234 104.814 757.693 104.516C758.158 104.219 758.506 103.792 758.738 103.237C758.975 102.682 759.093 102.022 759.093 101.255V100.657C759.093 100.062 759.025 99.5344 758.889 99.0753C758.758 98.6162 758.561 98.2303 758.299 97.9175C758.041 97.6047 757.724 97.3676 757.345 97.2062C756.972 97.0447 756.541 96.964 756.051 96.964H753.584V95.4505H756.051C756.783 95.4505 757.451 95.5741 758.057 95.8213C758.662 96.0635 759.184 96.4141 759.623 96.8732C760.067 97.3323 760.408 97.8822 760.645 98.5229C760.882 99.1636 761 99.88 761 100.672V101.255C761 102.047 760.882 102.763 760.645 103.404C760.408 104.045 760.067 104.595 759.623 105.054C759.179 105.508 758.649 105.858 758.034 106.106C757.423 106.348 756.74 106.469 755.983 106.469ZM754.682 95.4505V106.469H752.782V95.4505H754.682ZM764.557 99.8397V106.469H762.733V98.2808H764.474L764.557 99.8397ZM767.062 98.2278L767.047 99.9229C766.936 99.9027 766.815 99.8876 766.684 99.8775C766.557 99.8674 766.431 99.8624 766.305 99.8624C765.992 99.8624 765.717 99.9078 765.48 99.9986C765.243 100.084 765.044 100.21 764.882 100.377C764.726 100.538 764.605 100.735 764.519 100.967C764.433 101.199 764.383 101.459 764.368 101.747L763.952 101.777C763.952 101.262 764.002 100.786 764.103 100.347C764.204 99.9078 764.355 99.5218 764.557 99.1889C764.764 98.8559 765.021 98.5961 765.329 98.4094C765.642 98.2227 766.002 98.1294 766.411 98.1294C766.522 98.1294 766.641 98.1395 766.767 98.1597C766.898 98.1799 766.996 98.2026 767.062 98.2278ZM770.157 98.2808V106.469H768.326V98.2808H770.157ZM768.205 96.1316C768.205 95.8541 768.295 95.6246 768.477 95.443C768.664 95.2563 768.921 95.163 769.249 95.163C769.572 95.163 769.827 95.2563 770.013 95.443C770.2 95.6246 770.293 95.8541 770.293 96.1316C770.293 96.404 770.2 96.6311 770.013 96.8127C769.827 96.9943 769.572 97.0851 769.249 97.0851C768.921 97.0851 768.664 96.9943 768.477 96.8127C768.295 96.6311 768.205 96.404 768.205 96.1316ZM774.819 105.023L776.824 98.2808H778.716L775.87 106.469H774.69L774.819 105.023ZM773.282 98.2808L775.326 105.054L775.424 106.469H774.243L771.383 98.2808H773.282ZM783.347 106.62C782.742 106.62 782.194 106.522 781.705 106.325C781.221 106.123 780.807 105.843 780.464 105.485C780.126 105.127 779.866 104.706 779.684 104.221C779.503 103.737 779.412 103.215 779.412 102.655V102.352C779.412 101.711 779.505 101.131 779.692 100.612C779.879 100.092 780.138 99.6479 780.471 99.2797C780.804 98.9063 781.198 98.6213 781.652 98.4245C782.106 98.2278 782.598 98.1294 783.128 98.1294C783.713 98.1294 784.225 98.2278 784.664 98.4245C785.103 98.6213 785.466 98.8988 785.754 99.257C786.046 99.6101 786.263 100.031 786.404 100.521C786.551 101.01 786.624 101.55 786.624 102.14V102.92H780.297V101.61H784.823V101.467C784.813 101.139 784.747 100.831 784.626 100.543C784.51 100.256 784.331 100.024 784.089 99.8472C783.847 99.6706 783.524 99.5824 783.12 99.5824C782.817 99.5824 782.547 99.6479 782.31 99.7791C782.078 99.9052 781.884 100.089 781.728 100.332C781.571 100.574 781.45 100.866 781.364 101.209C781.284 101.547 781.243 101.928 781.243 102.352V102.655C781.243 103.013 781.291 103.346 781.387 103.654C781.488 103.956 781.634 104.221 781.826 104.448C782.018 104.675 782.25 104.854 782.522 104.986C782.795 105.112 783.105 105.175 783.453 105.175C783.892 105.175 784.283 105.086 784.626 104.91C784.969 104.733 785.267 104.484 785.519 104.161L786.48 105.091C786.303 105.349 786.074 105.596 785.791 105.833C785.509 106.065 785.163 106.254 784.755 106.401C784.351 106.547 783.882 106.62 783.347 106.62ZM800.873 100.657V101.262C800.873 102.095 800.765 102.841 800.548 103.502C800.331 104.163 800.021 104.726 799.617 105.19C799.219 105.654 798.739 106.01 798.179 106.257C797.619 106.499 796.999 106.62 796.318 106.62C795.642 106.62 795.024 106.499 794.464 106.257C793.909 106.01 793.427 105.654 793.018 105.19C792.61 104.726 792.292 104.163 792.065 103.502C791.843 102.841 791.732 102.095 791.732 101.262V100.657C791.732 99.8245 791.843 99.0804 792.065 98.4245C792.287 97.7636 792.6 97.2011 793.003 96.737C793.412 96.2678 793.894 95.9121 794.449 95.67C795.009 95.4228 795.627 95.2992 796.303 95.2992C796.984 95.2992 797.604 95.4228 798.164 95.67C798.724 95.9121 799.206 96.2678 799.61 96.737C800.013 97.2011 800.323 97.7636 800.54 98.4245C800.762 99.0804 800.873 99.8245 800.873 100.657ZM798.974 101.262V100.642C798.974 100.026 798.913 99.484 798.792 99.0148C798.676 98.5406 798.502 98.1445 798.27 97.8267C798.043 97.5038 797.763 97.2617 797.43 97.1002C797.097 96.9338 796.721 96.8505 796.303 96.8505C795.884 96.8505 795.51 96.9338 795.183 97.1002C794.855 97.2617 794.575 97.5038 794.343 97.8267C794.116 98.1445 793.942 98.5406 793.82 99.0148C793.699 99.484 793.639 100.026 793.639 100.642V101.262C793.639 101.878 793.699 102.423 793.82 102.897C793.942 103.371 794.118 103.772 794.35 104.1C794.587 104.423 794.87 104.668 795.198 104.834C795.526 104.996 795.899 105.076 796.318 105.076C796.741 105.076 797.117 104.996 797.445 104.834C797.773 104.668 798.051 104.423 798.278 104.1C798.505 103.772 798.676 103.371 798.792 102.897C798.913 102.423 798.974 101.878 798.974 101.262ZM807.518 104.539V98.2808H809.349V106.469H807.623L807.518 104.539ZM807.775 102.836L808.388 102.821C808.388 103.371 808.327 103.878 808.206 104.342C808.085 104.801 807.898 105.202 807.646 105.546C807.394 105.884 807.071 106.148 806.678 106.34C806.284 106.527 805.812 106.62 805.262 106.62C804.864 106.62 804.498 106.562 804.165 106.446C803.832 106.33 803.545 106.151 803.302 105.909C803.065 105.667 802.881 105.351 802.75 104.963C802.619 104.574 802.553 104.11 802.553 103.57V98.2808H804.377V103.586C804.377 103.883 804.412 104.133 804.483 104.335C804.554 104.531 804.649 104.69 804.771 104.811C804.892 104.933 805.033 105.018 805.194 105.069C805.356 105.119 805.527 105.144 805.709 105.144C806.229 105.144 806.637 105.044 806.935 104.842C807.238 104.635 807.452 104.357 807.578 104.009C807.709 103.661 807.775 103.27 807.775 102.836ZM814.971 98.2808V99.6126H810.355V98.2808H814.971ZM811.687 96.2754H813.511V104.206C813.511 104.458 813.546 104.653 813.617 104.789C813.693 104.92 813.796 105.008 813.927 105.054C814.058 105.099 814.212 105.122 814.389 105.122C814.515 105.122 814.636 105.114 814.752 105.099C814.868 105.084 814.961 105.069 815.032 105.054L815.04 106.446C814.888 106.491 814.712 106.532 814.51 106.567C814.313 106.602 814.086 106.62 813.829 106.62C813.41 106.62 813.039 106.547 812.716 106.401C812.393 106.249 812.141 106.005 811.96 105.667C811.778 105.329 811.687 104.88 811.687 104.32V96.2754ZM818.21 99.8548V109.617H816.387V98.2808H818.067L818.21 99.8548ZM823.545 102.299V102.458C823.545 103.053 823.475 103.606 823.334 104.115C823.197 104.62 822.993 105.061 822.721 105.44C822.453 105.813 822.123 106.103 821.729 106.31C821.336 106.517 820.882 106.62 820.367 106.62C819.858 106.62 819.411 106.527 819.028 106.34C818.649 106.148 818.329 105.878 818.067 105.53C817.804 105.182 817.592 104.774 817.431 104.304C817.275 103.83 817.164 103.311 817.098 102.746V102.133C817.164 101.532 817.275 100.987 817.431 100.498C817.592 100.009 817.804 99.5874 818.067 99.2343C818.329 98.8811 818.649 98.6087 819.028 98.417C819.406 98.2253 819.847 98.1294 820.352 98.1294C820.867 98.1294 821.323 98.2303 821.722 98.4321C822.12 98.6289 822.456 98.9114 822.728 99.2797C823.001 99.6429 823.205 100.082 823.341 100.596C823.477 101.106 823.545 101.674 823.545 102.299ZM821.722 102.458V102.299C821.722 101.921 821.686 101.57 821.616 101.247C821.545 100.919 821.434 100.632 821.283 100.385C821.131 100.137 820.937 99.9456 820.7 99.8094C820.468 99.6681 820.188 99.5975 819.86 99.5975C819.537 99.5975 819.26 99.653 819.028 99.764C818.796 99.8699 818.601 100.019 818.445 100.21C818.289 100.402 818.167 100.627 818.082 100.884C817.996 101.136 817.935 101.411 817.9 101.709V103.177C817.961 103.54 818.064 103.873 818.21 104.176C818.357 104.479 818.563 104.721 818.831 104.902C819.103 105.079 819.451 105.167 819.875 105.167C820.203 105.167 820.483 105.097 820.715 104.955C820.947 104.814 821.136 104.62 821.283 104.373C821.434 104.12 821.545 103.83 821.616 103.502C821.686 103.174 821.722 102.826 821.722 102.458ZM830.023 104.539V98.2808H831.854V106.469H830.129L830.023 104.539ZM830.28 102.836L830.893 102.821C830.893 103.371 830.833 103.878 830.712 104.342C830.591 104.801 830.404 105.202 830.152 105.546C829.9 105.884 829.577 106.148 829.183 106.34C828.79 106.527 828.318 106.62 827.768 106.62C827.369 106.62 827.004 106.562 826.671 106.446C826.338 106.33 826.05 106.151 825.808 105.909C825.571 105.667 825.387 105.351 825.256 104.963C825.124 104.574 825.059 104.11 825.059 103.57V98.2808H826.883V103.586C826.883 103.883 826.918 104.133 826.989 104.335C827.059 104.531 827.155 104.69 827.276 104.811C827.397 104.933 827.539 105.018 827.7 105.069C827.861 105.119 828.033 105.144 828.215 105.144C828.734 105.144 829.143 105.044 829.44 104.842C829.743 104.635 829.958 104.357 830.084 104.009C830.215 103.661 830.28 103.27 830.28 102.836ZM837.477 98.2808V99.6126H832.861V98.2808H837.477ZM834.193 96.2754H836.017V104.206C836.017 104.458 836.052 104.653 836.123 104.789C836.198 104.92 836.302 105.008 836.433 105.054C836.564 105.099 836.718 105.122 836.894 105.122C837.021 105.122 837.142 105.114 837.258 105.099C837.374 105.084 837.467 105.069 837.538 105.054L837.545 106.446C837.394 106.491 837.217 106.532 837.015 106.567C836.819 106.602 836.592 106.62 836.334 106.62C835.916 106.62 835.545 106.547 835.222 106.401C834.899 106.249 834.647 106.005 834.465 105.667C834.284 105.329 834.193 104.88 834.193 104.32V96.2754Z" fill="white"/>
<path d="M872.771 106.469C871.33 106.469 870.4 105.554 870.4 104.129C870.4 102.625 871.299 101.742 873.065 101.742H873.98V100.037H873.065C871.299 100.037 870.4 99.1536 870.4 97.6503C870.4 96.2245 871.33 95.3101 872.771 95.3101C874.507 95.3101 875.065 96.3949 875.065 97.6968V98.9831H876.77V97.6968C876.77 96.3949 877.327 95.3101 879.063 95.3101C880.505 95.3101 881.434 96.2245 881.434 97.6503C881.434 99.1536 880.536 100.037 878.769 100.037H877.854V101.742H878.769C880.536 101.742 881.434 102.625 881.434 104.129C881.434 105.554 880.505 106.469 879.063 106.469C877.327 106.469 876.77 105.384 876.77 104.082V102.796H875.065V104.082C875.065 105.384 874.507 106.469 872.771 106.469ZM877.854 97.6658V98.9831H878.769C879.869 98.9831 880.334 98.5337 880.334 97.6503C880.334 96.7359 879.792 96.3794 879.063 96.3794C878.257 96.3794 877.854 96.8754 877.854 97.6658ZM873.065 98.9831H873.98V97.6658C873.98 96.8754 873.577 96.3794 872.771 96.3794C872.043 96.3794 871.5 96.7359 871.5 97.6503C871.5 98.5337 871.965 98.9831 873.065 98.9831ZM875.065 101.742H876.77V100.037H875.065V101.742ZM872.771 105.399C873.577 105.399 873.98 104.903 873.98 104.113V102.796H873.065C871.965 102.796 871.5 103.245 871.5 104.129C871.5 105.043 872.043 105.399 872.771 105.399ZM877.854 104.113C877.854 104.903 878.257 105.399 879.063 105.399C879.792 105.399 880.334 105.043 880.334 104.129C880.334 103.245 879.869 102.796 878.769 102.796H877.854V104.113ZM894.143 100.43V102.072H886.591V100.43H894.143ZM891.252 97.3424V105.364H889.489V97.3424H891.252ZM901.537 100.135H902.626C903.05 100.135 903.401 100.062 903.678 99.9153C903.961 99.769 904.17 99.5672 904.306 99.3099C904.442 99.0526 904.511 98.7575 904.511 98.4245C904.511 98.0764 904.447 97.7788 904.321 97.5316C904.2 97.2793 904.014 97.0851 903.761 96.9489C903.514 96.8127 903.199 96.7446 902.815 96.7446C902.493 96.7446 902.2 96.8101 901.938 96.9413C901.68 97.0674 901.476 97.2491 901.325 97.4862C901.173 97.7182 901.098 97.9957 901.098 98.3186H899.266C899.266 97.7334 899.42 97.2137 899.728 96.7597C900.036 96.3057 900.454 95.95 900.984 95.6927C901.519 95.4303 902.119 95.2992 902.785 95.2992C903.496 95.2992 904.117 95.4177 904.647 95.6549C905.182 95.8869 905.598 96.235 905.895 96.6992C906.193 97.1633 906.342 97.7384 906.342 98.4245C906.342 98.7373 906.269 99.0552 906.122 99.378C905.976 99.7009 905.759 99.996 905.472 100.263C905.184 100.526 904.826 100.74 904.397 100.907C903.968 101.068 903.471 101.149 902.906 101.149H901.537V100.135ZM901.537 101.557V100.559H902.906C903.552 100.559 904.102 100.634 904.556 100.786C905.015 100.937 905.388 101.146 905.676 101.414C905.963 101.676 906.173 101.976 906.304 102.314C906.44 102.652 906.508 103.01 906.508 103.389C906.508 103.903 906.415 104.362 906.228 104.766C906.047 105.165 905.787 105.503 905.449 105.78C905.111 106.058 904.715 106.267 904.261 106.408C903.812 106.549 903.322 106.62 902.793 106.62C902.318 106.62 901.864 106.555 901.431 106.423C900.997 106.292 900.608 106.098 900.265 105.841C899.922 105.578 899.65 105.253 899.448 104.864C899.251 104.471 899.153 104.017 899.153 103.502H900.977C900.977 103.83 901.052 104.12 901.204 104.373C901.36 104.62 901.577 104.814 901.854 104.955C902.137 105.097 902.46 105.167 902.823 105.167C903.206 105.167 903.537 105.099 903.814 104.963C904.092 104.827 904.304 104.625 904.45 104.357C904.601 104.09 904.677 103.767 904.677 103.389C904.677 102.96 904.594 102.612 904.427 102.344C904.261 102.077 904.024 101.88 903.716 101.754C903.408 101.623 903.045 101.557 902.626 101.557H901.537Z" fill="white"/>
<path d="M825.094 120.657L829.706 125.269L834.319 120.657H825.094Z" fill="white"/>
<path d="M1045.8 37.3523V53.834H1043.61V37.3523H1045.8ZM1052.7 44.7668V46.5553H1045.32V44.7668H1052.7ZM1053.82 37.3523V39.1408H1045.32V37.3523H1053.82ZM1063.35 51.004V41.5859H1065.46V53.834H1063.45L1063.35 51.004ZM1063.75 48.4231L1064.62 48.4005C1064.62 49.2155 1064.53 49.9701 1064.36 50.6644C1064.19 51.3512 1063.92 51.9473 1063.54 52.453C1063.17 52.9586 1062.67 53.3548 1062.06 53.6415C1061.45 53.9208 1060.71 54.0604 1059.83 54.0604C1059.24 54.0604 1058.69 53.9736 1058.19 53.8C1057.7 53.6265 1057.28 53.3586 1056.92 52.9963C1056.57 52.6341 1056.29 52.1624 1056.1 51.5813C1055.91 51.0002 1055.81 50.3022 1055.81 49.4872V41.5859H1057.91V49.5098C1057.91 50.0607 1057.97 50.5173 1058.09 50.8795C1058.22 51.2342 1058.39 51.5172 1058.6 51.7285C1058.82 51.9323 1059.06 52.0756 1059.32 52.1586C1059.59 52.2417 1059.87 52.2832 1060.16 52.2832C1061.05 52.2832 1061.76 52.1134 1062.28 51.7738C1062.8 51.4266 1063.17 50.9625 1063.4 50.3814C1063.63 49.7928 1063.75 49.14 1063.75 48.4231ZM1070.93 36.4467V53.834H1068.82V36.4467H1070.93ZM1076.56 36.4467V53.834H1074.46V36.4467H1076.56ZM1094.78 49.6683C1094.78 49.2834 1094.72 48.9438 1094.59 48.6495C1094.48 48.3476 1094.28 48.076 1093.98 47.8345C1093.7 47.593 1093.3 47.3628 1092.78 47.144C1092.28 46.9251 1091.64 46.7025 1090.86 46.4761C1090.04 46.2346 1089.31 45.9667 1088.65 45.6724C1088 45.3705 1087.43 45.0271 1086.97 44.6423C1086.5 44.2574 1086.14 43.8159 1085.89 43.3178C1085.64 42.8198 1085.52 42.25 1085.52 41.6085C1085.52 40.9671 1085.65 40.3747 1085.91 39.8313C1086.18 39.288 1086.55 38.8163 1087.04 38.4164C1087.54 38.0088 1088.14 37.6919 1088.82 37.4655C1089.51 37.2391 1090.27 37.1259 1091.12 37.1259C1092.36 37.1259 1093.41 37.3636 1094.27 37.839C1095.13 38.3069 1095.79 38.922 1096.25 39.6842C1096.7 40.4388 1096.93 41.2463 1096.93 42.1066H1094.75C1094.75 41.4878 1094.62 40.9407 1094.36 40.4652C1094.09 39.9823 1093.69 39.6049 1093.16 39.3333C1092.62 39.054 1091.94 38.9144 1091.12 38.9144C1090.34 38.9144 1089.7 39.0314 1089.2 39.2653C1088.69 39.4993 1088.31 39.8162 1088.06 40.2162C1087.82 40.6162 1087.7 41.0727 1087.7 41.5859C1087.7 41.9331 1087.77 42.25 1087.92 42.5368C1088.07 42.816 1088.3 43.0764 1088.61 43.3178C1088.92 43.5593 1089.32 43.782 1089.81 43.9857C1090.3 44.1895 1090.88 44.3857 1091.56 44.5743C1092.5 44.8385 1093.3 45.1328 1093.98 45.4573C1094.66 45.7818 1095.22 46.1478 1095.66 46.5553C1096.1 46.9553 1096.43 47.4119 1096.64 47.925C1096.86 48.4306 1096.97 49.0042 1096.97 49.6456C1096.97 50.3173 1096.84 50.9248 1096.56 51.4681C1096.29 52.0115 1095.9 52.4756 1095.4 52.8605C1094.89 53.2454 1094.29 53.5434 1093.58 53.7547C1092.87 53.9585 1092.09 54.0604 1091.22 54.0604C1090.46 54.0604 1089.71 53.9547 1088.97 53.7434C1088.24 53.5321 1087.57 53.2152 1086.97 52.7926C1086.37 52.37 1085.89 51.8492 1085.53 51.2304C1085.17 50.6041 1085 49.8796 1085 49.057H1087.17C1087.17 49.623 1087.28 50.1098 1087.5 50.5173C1087.72 50.9172 1088.01 51.2493 1088.39 51.5134C1088.78 51.7775 1089.21 51.9738 1089.69 52.102C1090.18 52.2228 1090.69 52.2832 1091.22 52.2832C1091.98 52.2832 1092.63 52.1775 1093.16 51.9662C1093.69 51.7549 1094.09 51.453 1094.36 51.0606C1094.64 50.6682 1094.78 50.2041 1094.78 49.6683ZM1104.34 52.3398C1104.84 52.3398 1105.3 52.2379 1105.72 52.0341C1106.14 51.8304 1106.49 51.5511 1106.76 51.1965C1107.04 50.8342 1107.19 50.4229 1107.23 49.9626H1109.22C1109.18 50.6871 1108.94 51.3625 1108.48 51.9888C1108.04 52.6077 1107.45 53.1095 1106.73 53.4944C1106.01 53.8717 1105.21 54.0604 1104.34 54.0604C1103.42 54.0604 1102.62 53.8981 1101.93 53.5736C1101.25 53.2491 1100.68 52.8039 1100.23 52.2379C1099.79 51.6719 1099.45 51.0229 1099.22 50.2909C1099.01 49.5513 1098.9 48.7702 1098.9 47.9477V47.4722C1098.9 46.6497 1099.01 45.8724 1099.22 45.1403C1099.45 44.4008 1099.79 43.748 1100.23 43.182C1100.68 42.616 1101.25 42.1708 1101.93 41.8463C1102.62 41.5218 1103.42 41.3595 1104.34 41.3595C1105.3 41.3595 1106.14 41.5557 1106.85 41.9481C1107.57 42.333 1108.13 42.8613 1108.54 43.5329C1108.96 44.197 1109.18 44.9517 1109.22 45.7969H1107.23C1107.19 45.2913 1107.05 44.8347 1106.8 44.4272C1106.56 44.0197 1106.22 43.6952 1105.8 43.4537C1105.39 43.2046 1104.9 43.0801 1104.34 43.0801C1103.7 43.0801 1103.16 43.2084 1102.72 43.465C1102.29 43.714 1101.95 44.0536 1101.69 44.4838C1101.44 44.9064 1101.26 45.3781 1101.15 45.8988C1101.04 46.4119 1100.99 46.9364 1100.99 47.4722V47.9477C1100.99 48.4835 1101.04 49.0117 1101.15 49.5324C1101.25 50.0532 1101.43 50.5248 1101.68 50.9474C1101.94 51.37 1102.28 51.7096 1102.71 51.9662C1103.15 52.2152 1103.69 52.3398 1104.34 52.3398ZM1113.67 43.5103V53.834H1111.57V41.5859H1113.61L1113.67 43.5103ZM1117.49 41.518L1117.48 43.465C1117.31 43.4273 1117.14 43.4046 1116.99 43.3971C1116.83 43.382 1116.66 43.3744 1116.46 43.3744C1115.98 43.3744 1115.56 43.4499 1115.19 43.6008C1114.82 43.7518 1114.5 43.9631 1114.25 44.2348C1113.99 44.5064 1113.79 44.8309 1113.63 45.2083C1113.49 45.578 1113.4 45.9856 1113.35 46.4308L1112.76 46.7704C1112.76 46.0308 1112.83 45.3366 1112.98 44.6875C1113.13 44.0385 1113.36 43.465 1113.67 42.9669C1113.98 42.4613 1114.37 42.0689 1114.85 41.7897C1115.33 41.5029 1115.9 41.3595 1116.57 41.3595C1116.72 41.3595 1116.89 41.3784 1117.09 41.4161C1117.28 41.4463 1117.42 41.4803 1117.49 41.518ZM1124.29 54.0604C1123.43 54.0604 1122.66 53.917 1121.97 53.6302C1121.28 53.3359 1120.69 52.9246 1120.19 52.3964C1119.7 51.8681 1119.32 51.2417 1119.06 50.5173C1118.79 49.7928 1118.66 49.0004 1118.66 48.1401V47.6647C1118.66 46.6685 1118.81 45.7818 1119.1 45.0045C1119.4 44.2197 1119.8 43.5556 1120.3 43.0122C1120.81 42.4689 1121.38 42.0576 1122.02 41.7783C1122.66 41.4991 1123.33 41.3595 1124.02 41.3595C1124.89 41.3595 1125.65 41.5104 1126.28 41.8123C1126.92 42.1142 1127.45 42.5368 1127.85 43.0801C1128.26 43.6159 1128.56 44.2498 1128.76 44.9819C1128.95 45.7063 1129.05 46.4987 1129.05 47.359V48.2986H1119.91V46.5893H1126.96V46.4308C1126.93 45.8875 1126.81 45.3592 1126.62 44.846C1126.43 44.3329 1126.13 43.9103 1125.71 43.5782C1125.3 43.2462 1124.73 43.0801 1124.02 43.0801C1123.54 43.0801 1123.1 43.182 1122.7 43.3858C1122.3 43.582 1121.96 43.8763 1121.67 44.2687C1121.39 44.6611 1121.16 45.1403 1121 45.7063C1120.85 46.2723 1120.77 46.9251 1120.77 47.6647V48.1401C1120.77 48.7212 1120.85 49.2683 1121 49.7815C1121.17 50.2871 1121.41 50.7323 1121.72 51.1172C1122.03 51.5021 1122.42 51.804 1122.86 52.0228C1123.31 52.2417 1123.83 52.3511 1124.4 52.3511C1125.14 52.3511 1125.77 52.2002 1126.28 51.8983C1126.79 51.5964 1127.24 51.1927 1127.63 50.6871L1128.89 51.6945C1128.63 52.0945 1128.29 52.4756 1127.89 52.8378C1127.48 53.2001 1126.98 53.4944 1126.38 53.7208C1125.79 53.9472 1125.09 54.0604 1124.29 54.0604ZM1136.58 54.0604C1135.73 54.0604 1134.95 53.917 1134.26 53.6302C1133.57 53.3359 1132.98 52.9246 1132.48 52.3964C1131.99 51.8681 1131.61 51.2417 1131.35 50.5173C1131.09 49.7928 1130.95 49.0004 1130.95 48.1401V47.6647C1130.95 46.6685 1131.1 45.7818 1131.4 45.0045C1131.69 44.2197 1132.09 43.5556 1132.6 43.0122C1133.1 42.4689 1133.67 42.0576 1134.32 41.7783C1134.96 41.4991 1135.62 41.3595 1136.31 41.3595C1137.18 41.3595 1137.94 41.5104 1138.57 41.8123C1139.21 42.1142 1139.74 42.5368 1140.15 43.0801C1140.55 43.6159 1140.86 44.2498 1141.05 44.9819C1141.25 45.7063 1141.35 46.4987 1141.35 47.359V48.2986H1132.2V46.5893H1139.25V46.4308C1139.22 45.8875 1139.11 45.3592 1138.91 44.846C1138.72 44.3329 1138.42 43.9103 1138.01 43.5782C1137.59 43.2462 1137.03 43.0801 1136.31 43.0801C1135.83 43.0801 1135.4 43.182 1135 43.3858C1134.6 43.582 1134.25 43.8763 1133.97 44.2687C1133.68 44.6611 1133.46 45.1403 1133.3 45.7063C1133.14 46.2723 1133.06 46.9251 1133.06 47.6647V48.1401C1133.06 48.7212 1133.14 49.2683 1133.3 49.7815C1133.46 50.2871 1133.7 50.7323 1134.01 51.1172C1134.33 51.5021 1134.71 51.804 1135.15 52.0228C1135.61 52.2417 1136.12 52.3511 1136.69 52.3511C1137.43 52.3511 1138.06 52.2002 1138.57 51.8983C1139.09 51.5964 1139.53 51.1927 1139.92 50.6871L1141.19 51.6945C1140.92 52.0945 1140.59 52.4756 1140.18 52.8378C1139.77 53.2001 1139.27 53.4944 1138.67 53.7208C1138.09 53.9472 1137.39 54.0604 1136.58 54.0604ZM1145.89 44.2008V53.834H1143.79V41.5859H1145.77L1145.89 44.2008ZM1145.39 47.2458L1144.52 47.2119C1144.52 46.3742 1144.65 45.6007 1144.89 44.8913C1145.13 44.1744 1145.47 43.5518 1145.91 43.0235C1146.35 42.4953 1146.87 42.0878 1147.47 41.801C1148.08 41.5067 1148.76 41.3595 1149.5 41.3595C1150.1 41.3595 1150.64 41.4425 1151.13 41.6085C1151.61 41.767 1152.02 42.0236 1152.36 42.3783C1152.71 42.733 1152.97 43.1933 1153.15 43.7593C1153.33 44.3178 1153.42 45.0007 1153.42 45.8082V53.834H1151.32V45.7856C1151.32 45.1441 1151.22 44.6309 1151.04 44.2461C1150.85 43.8537 1150.57 43.5707 1150.21 43.3971C1149.85 43.216 1149.4 43.1254 1148.87 43.1254C1148.35 43.1254 1147.88 43.2348 1147.45 43.4537C1147.02 43.6725 1146.66 43.9744 1146.35 44.3593C1146.05 44.7441 1145.81 45.1856 1145.64 45.6837C1145.47 46.1742 1145.39 46.6949 1145.39 47.2458Z" fill="white"/>
<path d="M1002.64 266.817V268.594H991.479V266.817H1002.64ZM1002.28 253.697L992 268.594H990.653V266.964L1000.92 252.112H1002.28V253.697ZM1001.35 252.112V253.901H990.8V252.112H1001.35ZM1004.36 262.606V262.345C1004.36 261.462 1004.49 260.643 1004.75 259.889C1005 259.127 1005.37 258.466 1005.86 257.908C1006.34 257.342 1006.92 256.904 1007.61 256.595C1008.3 256.278 1009.07 256.119 1009.92 256.119C1010.78 256.119 1011.55 256.278 1012.24 256.595C1012.93 256.904 1013.52 257.342 1014.01 257.908C1014.5 258.466 1014.87 259.127 1015.13 259.889C1015.38 260.643 1015.51 261.462 1015.51 262.345V262.606C1015.51 263.488 1015.38 264.307 1015.13 265.062C1014.87 265.817 1014.5 266.477 1014.01 267.043C1013.52 267.601 1012.94 268.039 1012.25 268.356C1011.57 268.665 1010.8 268.82 1009.94 268.82C1009.08 268.82 1008.31 268.665 1007.62 268.356C1006.93 268.039 1006.35 267.601 1005.86 267.043C1005.37 266.477 1005 265.817 1004.75 265.062C1004.49 264.307 1004.36 263.488 1004.36 262.606ZM1006.46 262.345V262.606C1006.46 263.217 1006.53 263.794 1006.67 264.337C1006.81 264.873 1007.03 265.349 1007.32 265.764C1007.61 266.179 1007.98 266.507 1008.41 266.749C1008.85 266.983 1009.36 267.1 1009.94 267.1C1010.52 267.1 1011.02 266.983 1011.45 266.749C1011.89 266.507 1012.25 266.179 1012.53 265.764C1012.82 265.349 1013.04 264.873 1013.18 264.337C1013.33 263.794 1013.41 263.217 1013.41 262.606V262.345C1013.41 261.741 1013.33 261.172 1013.18 260.636C1013.04 260.093 1012.82 259.613 1012.52 259.198C1012.24 258.776 1011.87 258.444 1011.44 258.202C1011.01 257.961 1010.5 257.84 1009.92 257.84C1009.35 257.84 1008.84 257.961 1008.4 258.202C1007.97 258.444 1007.61 258.776 1007.32 259.198C1007.03 259.613 1006.81 260.093 1006.67 260.636C1006.53 261.172 1006.46 261.741 1006.46 262.345ZM1017.58 262.606V262.345C1017.58 261.462 1017.71 260.643 1017.97 259.889C1018.22 259.127 1018.59 258.466 1019.08 257.908C1019.56 257.342 1020.14 256.904 1020.83 256.595C1021.52 256.278 1022.29 256.119 1023.14 256.119C1024 256.119 1024.77 256.278 1025.46 256.595C1026.16 256.904 1026.74 257.342 1027.23 257.908C1027.72 258.466 1028.09 259.127 1028.35 259.889C1028.6 260.643 1028.73 261.462 1028.73 262.345V262.606C1028.73 263.488 1028.6 264.307 1028.35 265.062C1028.09 265.817 1027.72 266.477 1027.23 267.043C1026.74 267.601 1026.16 268.039 1025.47 268.356C1024.79 268.665 1024.02 268.82 1023.16 268.82C1022.3 268.82 1021.53 268.665 1020.84 268.356C1020.16 268.039 1019.57 267.601 1019.08 267.043C1018.59 266.477 1018.22 265.817 1017.97 265.062C1017.71 264.307 1017.58 263.488 1017.58 262.606ZM1019.68 262.345V262.606C1019.68 263.217 1019.75 263.794 1019.89 264.337C1020.04 264.873 1020.25 265.349 1020.54 265.764C1020.83 266.179 1021.2 266.507 1021.64 266.749C1022.07 266.983 1022.58 267.1 1023.16 267.1C1023.74 267.1 1024.24 266.983 1024.67 266.749C1025.11 266.507 1025.47 266.179 1025.76 265.764C1026.04 265.349 1026.26 264.873 1026.4 264.337C1026.55 263.794 1026.63 263.217 1026.63 262.606V262.345C1026.63 261.741 1026.55 261.172 1026.4 260.636C1026.26 260.093 1026.04 259.613 1025.74 259.198C1025.46 258.776 1025.1 258.444 1024.66 258.202C1024.23 257.961 1023.72 257.84 1023.14 257.84C1022.57 257.84 1022.06 257.961 1021.62 258.202C1021.19 258.444 1020.83 258.776 1020.54 259.198C1020.25 259.613 1020.04 260.093 1019.89 260.636C1019.75 261.172 1019.68 261.741 1019.68 262.345ZM1033.44 258.779V268.594H1031.34V256.346H1033.33L1033.44 258.779ZM1033.01 262.006L1032.04 261.972C1032.05 261.134 1032.16 260.36 1032.37 259.651C1032.58 258.934 1032.89 258.312 1033.31 257.783C1033.72 257.255 1034.24 256.848 1034.86 256.561C1035.48 256.266 1036.19 256.119 1037.01 256.119C1037.58 256.119 1038.11 256.202 1038.59 256.368C1039.08 256.527 1039.49 256.78 1039.85 257.127C1040.2 257.474 1040.48 257.919 1040.68 258.462C1040.87 259.006 1040.97 259.662 1040.97 260.432V268.594H1038.88V260.534C1038.88 259.893 1038.77 259.379 1038.55 258.995C1038.34 258.61 1038.03 258.33 1037.64 258.157C1037.25 257.976 1036.79 257.885 1036.26 257.885C1035.64 257.885 1035.12 257.995 1034.71 258.213C1034.29 258.432 1033.96 258.734 1033.71 259.119C1033.46 259.504 1033.28 259.945 1033.17 260.443C1033.06 260.934 1033.01 261.455 1033.01 262.006ZM1040.95 260.851L1039.54 261.281C1039.55 260.609 1039.66 259.964 1039.87 259.345C1040.09 258.727 1040.4 258.176 1040.81 257.693C1041.23 257.21 1041.74 256.829 1042.34 256.549C1042.94 256.263 1043.63 256.119 1044.41 256.119C1045.07 256.119 1045.65 256.206 1046.15 256.38C1046.67 256.553 1047.1 256.821 1047.44 257.183C1047.8 257.538 1048.07 257.995 1048.25 258.553C1048.43 259.111 1048.52 259.776 1048.52 260.545V268.594H1046.41V260.523C1046.41 259.836 1046.3 259.304 1046.09 258.927C1045.87 258.542 1045.57 258.274 1045.18 258.123C1044.8 257.964 1044.34 257.885 1043.8 257.885C1043.34 257.885 1042.93 257.964 1042.58 258.123C1042.22 258.281 1041.92 258.5 1041.68 258.779C1041.44 259.051 1041.26 259.364 1041.13 259.719C1041.01 260.074 1040.95 260.451 1040.95 260.851ZM1062.34 267.1C1062.84 267.1 1063.3 266.998 1063.72 266.794C1064.15 266.59 1064.49 266.311 1064.76 265.956C1065.04 265.594 1065.19 265.183 1065.23 264.722H1067.22C1067.18 265.447 1066.94 266.122 1066.48 266.749C1066.04 267.367 1065.45 267.869 1064.73 268.254C1064.01 268.631 1063.21 268.82 1062.34 268.82C1061.42 268.82 1060.62 268.658 1059.93 268.333C1059.25 268.009 1058.69 267.564 1058.23 266.998C1057.79 266.432 1057.45 265.783 1057.22 265.051C1057.01 264.311 1056.9 263.53 1056.9 262.707V262.232C1056.9 261.409 1057.01 260.632 1057.22 259.9C1057.45 259.161 1057.79 258.508 1058.23 257.942C1058.69 257.376 1059.25 256.931 1059.93 256.606C1060.62 256.282 1061.42 256.119 1062.34 256.119C1063.3 256.119 1064.14 256.315 1064.85 256.708C1065.57 257.093 1066.13 257.621 1066.54 258.293C1066.96 258.957 1067.18 259.711 1067.22 260.557H1065.23C1065.19 260.051 1065.05 259.594 1064.8 259.187C1064.56 258.779 1064.22 258.455 1063.8 258.213C1063.39 257.964 1062.9 257.84 1062.34 257.84C1061.7 257.84 1061.16 257.968 1060.72 258.225C1060.29 258.474 1059.95 258.813 1059.69 259.244C1059.44 259.666 1059.26 260.138 1059.15 260.659C1059.04 261.172 1058.99 261.696 1058.99 262.232V262.707C1058.99 263.243 1059.04 263.771 1059.15 264.292C1059.25 264.813 1059.43 265.285 1059.68 265.707C1059.94 266.13 1060.28 266.469 1060.71 266.726C1061.15 266.975 1061.69 267.1 1062.34 267.1ZM1069.02 262.606V262.345C1069.02 261.462 1069.15 260.643 1069.4 259.889C1069.66 259.127 1070.03 258.466 1070.51 257.908C1071 257.342 1071.58 256.904 1072.27 256.595C1072.96 256.278 1073.73 256.119 1074.58 256.119C1075.44 256.119 1076.21 256.278 1076.9 256.595C1077.59 256.904 1078.18 257.342 1078.66 257.908C1079.16 258.466 1079.53 259.127 1079.79 259.889C1080.04 260.643 1080.17 261.462 1080.17 262.345V262.606C1080.17 263.488 1080.04 264.307 1079.79 265.062C1079.53 265.817 1079.16 266.477 1078.66 267.043C1078.18 267.601 1077.6 268.039 1076.91 268.356C1076.23 268.665 1075.46 268.82 1074.6 268.82C1073.74 268.82 1072.97 268.665 1072.28 268.356C1071.59 268.039 1071 267.601 1070.51 267.043C1070.03 266.477 1069.66 265.817 1069.4 265.062C1069.15 264.307 1069.02 263.488 1069.02 262.606ZM1071.11 262.345V262.606C1071.11 263.217 1071.19 263.794 1071.33 264.337C1071.47 264.873 1071.69 265.349 1071.97 265.764C1072.27 266.179 1072.63 266.507 1073.07 266.749C1073.51 266.983 1074.02 267.1 1074.6 267.1C1075.17 267.1 1075.68 266.983 1076.11 266.749C1076.54 266.507 1076.91 266.179 1077.19 265.764C1077.48 265.349 1077.69 264.873 1077.84 264.337C1077.99 263.794 1078.06 263.217 1078.06 262.606V262.345C1078.06 261.741 1077.99 261.172 1077.84 260.636C1077.69 260.093 1077.48 259.613 1077.18 259.198C1076.89 258.776 1076.53 258.444 1076.09 258.202C1075.66 257.961 1075.16 257.84 1074.58 257.84C1074 257.84 1073.5 257.961 1073.06 258.202C1072.63 258.444 1072.27 258.776 1071.97 259.198C1071.69 259.613 1071.47 260.093 1071.33 260.636C1071.19 261.172 1071.11 261.741 1071.11 262.345ZM1084.89 258.961V268.594H1082.8V256.346H1084.78L1084.89 258.961ZM1084.39 262.006L1083.52 261.972C1083.53 261.134 1083.65 260.36 1083.89 259.651C1084.14 258.934 1084.48 258.312 1084.91 257.783C1085.35 257.255 1085.87 256.848 1086.48 256.561C1087.09 256.266 1087.76 256.119 1088.5 256.119C1089.11 256.119 1089.65 256.202 1090.13 256.368C1090.61 256.527 1091.03 256.783 1091.37 257.138C1091.71 257.493 1091.98 257.953 1092.16 258.519C1092.34 259.078 1092.43 259.76 1092.43 260.568V268.594H1090.32V260.545C1090.32 259.904 1090.23 259.391 1090.04 259.006C1089.85 258.613 1089.58 258.33 1089.21 258.157C1088.85 257.976 1088.41 257.885 1087.88 257.885C1087.36 257.885 1086.88 257.995 1086.45 258.213C1086.03 258.432 1085.66 258.734 1085.35 259.119C1085.05 259.504 1084.82 259.945 1084.64 260.443C1084.48 260.934 1084.39 261.455 1084.39 262.006ZM1100.74 256.346V257.953H1094.12V256.346H1100.74ZM1096.36 253.369H1098.45V265.56C1098.45 265.975 1098.52 266.288 1098.64 266.5C1098.77 266.711 1098.94 266.85 1099.14 266.918C1099.35 266.986 1099.56 267.02 1099.8 267.02C1099.97 267.02 1100.15 267.005 1100.34 266.975C1100.54 266.937 1100.69 266.907 1100.78 266.884L1100.79 268.594C1100.63 268.647 1100.41 268.696 1100.14 268.741C1099.87 268.794 1099.55 268.82 1099.18 268.82C1098.66 268.82 1098.19 268.718 1097.76 268.515C1097.33 268.311 1096.99 267.971 1096.73 267.496C1096.48 267.013 1096.36 266.364 1096.36 265.549V253.369ZM1105.29 258.27V268.594H1103.19V256.346H1105.23L1105.29 258.27ZM1109.11 256.278L1109.1 258.225C1108.93 258.187 1108.76 258.164 1108.61 258.157C1108.45 258.142 1108.28 258.134 1108.08 258.134C1107.6 258.134 1107.18 258.21 1106.81 258.361C1106.44 258.512 1106.12 258.723 1105.87 258.995C1105.61 259.266 1105.41 259.591 1105.25 259.968C1105.11 260.338 1105.02 260.745 1104.97 261.191L1104.38 261.53C1104.38 260.791 1104.45 260.096 1104.6 259.447C1104.75 258.798 1104.98 258.225 1105.29 257.727C1105.6 257.221 1105.99 256.829 1106.47 256.549C1106.95 256.263 1107.52 256.119 1108.19 256.119C1108.34 256.119 1108.51 256.138 1108.71 256.176C1108.9 256.206 1109.04 256.24 1109.11 256.278ZM1110.27 262.606V262.345C1110.27 261.462 1110.4 260.643 1110.65 259.889C1110.91 259.127 1111.28 258.466 1111.76 257.908C1112.25 257.342 1112.83 256.904 1113.52 256.595C1114.21 256.278 1114.97 256.119 1115.83 256.119C1116.69 256.119 1117.46 256.278 1118.15 256.595C1118.84 256.904 1119.43 257.342 1119.91 257.908C1120.4 258.466 1120.78 259.127 1121.03 259.889C1121.29 260.643 1121.42 261.462 1121.42 262.345V262.606C1121.42 263.488 1121.29 264.307 1121.03 265.062C1120.78 265.817 1120.4 266.477 1119.91 267.043C1119.43 267.601 1118.85 268.039 1118.16 268.356C1117.48 268.665 1116.71 268.82 1115.85 268.82C1114.99 268.82 1114.22 268.665 1113.53 268.356C1112.84 268.039 1112.25 267.601 1111.76 267.043C1111.28 266.477 1110.91 265.817 1110.65 265.062C1110.4 264.307 1110.27 263.488 1110.27 262.606ZM1112.36 262.345V262.606C1112.36 263.217 1112.44 263.794 1112.58 264.337C1112.72 264.873 1112.94 265.349 1113.22 265.764C1113.52 266.179 1113.88 266.507 1114.32 266.749C1114.76 266.983 1115.27 267.1 1115.85 267.1C1116.42 267.1 1116.93 266.983 1117.36 266.749C1117.79 266.507 1118.16 266.179 1118.44 265.764C1118.73 265.349 1118.94 264.873 1119.09 264.337C1119.24 263.794 1119.31 263.217 1119.31 262.606V262.345C1119.31 261.741 1119.24 261.172 1119.09 260.636C1118.94 260.093 1118.73 259.613 1118.43 259.198C1118.14 258.776 1117.78 258.444 1117.34 258.202C1116.91 257.961 1116.41 257.84 1115.83 257.84C1115.25 257.84 1114.75 257.961 1114.31 258.202C1113.88 258.444 1113.52 258.776 1113.22 259.198C1112.94 259.613 1112.72 260.093 1112.58 260.636C1112.44 261.172 1112.36 261.741 1112.36 262.345ZM1126.32 251.206V268.594H1124.22V251.206H1126.32ZM1136.81 265.345C1136.81 265.043 1136.75 264.764 1136.61 264.507C1136.48 264.243 1136.21 264.005 1135.81 263.794C1135.41 263.575 1134.8 263.387 1134 263.228C1133.32 263.085 1132.7 262.915 1132.15 262.719C1131.61 262.523 1131.14 262.285 1130.76 262.006C1130.38 261.726 1130.09 261.398 1129.89 261.021C1129.68 260.643 1129.58 260.202 1129.58 259.696C1129.58 259.213 1129.69 258.757 1129.9 258.327C1130.12 257.896 1130.42 257.515 1130.82 257.183C1131.22 256.851 1131.69 256.591 1132.25 256.402C1132.81 256.214 1133.43 256.119 1134.12 256.119C1135.1 256.119 1135.94 256.293 1136.63 256.64C1137.33 256.987 1137.86 257.451 1138.23 258.032C1138.6 258.606 1138.78 259.244 1138.78 259.945H1136.69C1136.69 259.606 1136.59 259.278 1136.38 258.961C1136.19 258.636 1135.9 258.368 1135.51 258.157C1135.14 257.946 1134.67 257.84 1134.12 257.84C1133.54 257.84 1133.07 257.93 1132.71 258.112C1132.35 258.285 1132.09 258.508 1131.92 258.779C1131.77 259.051 1131.69 259.338 1131.69 259.64C1131.69 259.866 1131.72 260.07 1131.8 260.251C1131.88 260.425 1132.03 260.587 1132.23 260.738C1132.43 260.881 1132.72 261.017 1133.09 261.145C1133.46 261.274 1133.93 261.402 1134.51 261.53C1135.51 261.757 1136.34 262.028 1136.98 262.345C1137.63 262.662 1138.12 263.051 1138.43 263.511C1138.75 263.971 1138.91 264.53 1138.91 265.186C1138.91 265.722 1138.8 266.213 1138.57 266.658C1138.35 267.103 1138.03 267.488 1137.61 267.813C1137.19 268.13 1136.69 268.379 1136.11 268.56C1135.54 268.733 1134.89 268.82 1134.18 268.82C1133.1 268.82 1132.18 268.628 1131.44 268.243C1130.69 267.858 1130.12 267.36 1129.74 266.749C1129.35 266.137 1129.16 265.492 1129.16 264.813H1131.27C1131.3 265.386 1131.46 265.843 1131.77 266.183C1132.07 266.515 1132.44 266.752 1132.88 266.896C1133.31 267.032 1133.75 267.1 1134.18 267.1C1134.75 267.1 1135.23 267.024 1135.61 266.873C1136.01 266.722 1136.31 266.515 1136.51 266.251C1136.71 265.986 1136.81 265.685 1136.81 265.345Z" fill="white"/>
<path d="M672.689 264.428C672.689 264.043 672.629 263.704 672.508 263.409C672.395 263.107 672.191 262.836 671.897 262.594C671.61 262.353 671.21 262.123 670.697 261.904C670.192 261.685 669.55 261.462 668.773 261.236C667.958 260.994 667.222 260.726 666.565 260.432C665.909 260.13 665.347 259.787 664.879 259.402C664.411 259.017 664.052 258.576 663.803 258.078C663.554 257.58 663.43 257.01 663.43 256.368C663.43 255.727 663.562 255.134 663.826 254.591C664.09 254.048 664.467 253.576 664.958 253.176C665.456 252.769 666.048 252.452 666.735 252.225C667.422 251.999 668.188 251.886 669.033 251.886C670.271 251.886 671.32 252.123 672.18 252.599C673.048 253.067 673.708 253.682 674.161 254.444C674.614 255.199 674.84 256.006 674.84 256.866H672.667C672.667 256.248 672.535 255.7 672.271 255.225C672.006 254.742 671.607 254.365 671.071 254.093C670.535 253.814 669.856 253.674 669.033 253.674C668.256 253.674 667.614 253.791 667.109 254.025C666.603 254.259 666.226 254.576 665.977 254.976C665.735 255.376 665.615 255.833 665.615 256.346C665.615 256.693 665.686 257.01 665.83 257.297C665.981 257.576 666.211 257.836 666.52 258.078C666.837 258.319 667.237 258.542 667.72 258.745C668.211 258.949 668.795 259.145 669.475 259.334C670.41 259.598 671.218 259.893 671.897 260.217C672.576 260.542 673.135 260.908 673.572 261.315C674.018 261.715 674.346 262.172 674.557 262.685C674.776 263.19 674.885 263.764 674.885 264.405C674.885 265.077 674.75 265.685 674.478 266.228C674.206 266.771 673.818 267.235 673.312 267.62C672.806 268.005 672.199 268.303 671.49 268.515C670.788 268.718 670.003 268.82 669.135 268.82C668.373 268.82 667.622 268.714 666.882 268.503C666.15 268.292 665.482 267.975 664.879 267.552C664.283 267.13 663.803 266.609 663.441 265.99C663.086 265.364 662.909 264.639 662.909 263.817H665.083C665.083 264.383 665.192 264.87 665.411 265.277C665.63 265.677 665.928 266.009 666.305 266.273C666.69 266.537 667.124 266.734 667.607 266.862C668.097 266.983 668.607 267.043 669.135 267.043C669.897 267.043 670.542 266.937 671.071 266.726C671.599 266.515 671.999 266.213 672.271 265.82C672.55 265.428 672.689 264.964 672.689 264.428ZM680.455 266.42L683.602 256.346H684.983L684.711 258.349L681.508 268.594H680.161L680.455 266.42ZM678.338 256.346L681.021 266.534L681.213 268.594H679.798L676.244 256.346H678.338ZM687.994 266.454L690.552 256.346H692.635L689.081 268.594H687.677L687.994 266.454ZM685.288 256.346L688.367 266.251L688.718 268.594H687.383L684.089 258.327L683.817 256.346H685.288ZM697.061 256.346V268.594H694.956V256.346H697.061ZM694.797 253.097C694.797 252.757 694.899 252.471 695.103 252.237C695.314 252.003 695.623 251.886 696.031 251.886C696.431 251.886 696.737 252.003 696.948 252.237C697.167 252.471 697.276 252.757 697.276 253.097C697.276 253.421 697.167 253.701 696.948 253.935C696.737 254.161 696.431 254.274 696.031 254.274C695.623 254.274 695.314 254.161 695.103 253.935C694.899 253.701 694.797 253.421 694.797 253.097ZM705.551 256.346V257.953H698.929V256.346H705.551ZM701.17 253.369H703.264V265.56C703.264 265.975 703.328 266.288 703.457 266.5C703.585 266.711 703.751 266.85 703.955 266.918C704.159 266.986 704.377 267.02 704.611 267.02C704.785 267.02 704.966 267.005 705.155 266.975C705.351 266.937 705.498 266.907 705.596 266.884L705.608 268.594C705.442 268.647 705.223 268.696 704.951 268.741C704.687 268.794 704.366 268.82 703.989 268.82C703.476 268.82 703.004 268.718 702.574 268.515C702.144 268.311 701.8 267.971 701.544 267.496C701.295 267.013 701.17 266.364 701.17 265.549V253.369ZM712.909 267.1C713.407 267.1 713.867 266.998 714.29 266.794C714.712 266.59 715.06 266.311 715.331 265.956C715.603 265.594 715.758 265.183 715.795 264.722H717.788C717.75 265.447 717.505 266.122 717.052 266.749C716.607 267.367 716.022 267.869 715.297 268.254C714.573 268.631 713.777 268.82 712.909 268.82C711.988 268.82 711.184 268.658 710.498 268.333C709.819 268.009 709.253 267.564 708.8 266.998C708.355 266.432 708.019 265.783 707.792 265.051C707.573 264.311 707.464 263.53 707.464 262.707V262.232C707.464 261.409 707.573 260.632 707.792 259.9C708.019 259.161 708.355 258.508 708.8 257.942C709.253 257.376 709.819 256.931 710.498 256.606C711.184 256.282 711.988 256.119 712.909 256.119C713.867 256.119 714.705 256.315 715.422 256.708C716.139 257.093 716.701 257.621 717.109 258.293C717.524 258.957 717.75 259.711 717.788 260.557H715.795C715.758 260.051 715.614 259.594 715.365 259.187C715.124 258.779 714.792 258.455 714.369 258.213C713.954 257.964 713.467 257.84 712.909 257.84C712.267 257.84 711.728 257.968 711.29 258.225C710.86 258.474 710.517 258.813 710.26 259.244C710.011 259.666 709.83 260.138 709.717 260.659C709.611 261.172 709.558 261.696 709.558 262.232V262.707C709.558 263.243 709.611 263.771 709.717 264.292C709.822 264.813 710 265.285 710.249 265.707C710.505 266.13 710.849 266.469 711.279 266.726C711.717 266.975 712.26 267.1 712.909 267.1ZM722.236 251.206V268.594H720.142V251.206H722.236ZM721.738 262.006L720.867 261.972C720.874 261.134 720.999 260.36 721.24 259.651C721.482 258.934 721.821 258.312 722.259 257.783C722.697 257.255 723.217 256.848 723.821 256.561C724.432 256.266 725.108 256.119 725.847 256.119C726.451 256.119 726.995 256.202 727.478 256.368C727.96 256.527 728.372 256.783 728.711 257.138C729.059 257.493 729.323 257.953 729.504 258.519C729.685 259.078 729.775 259.76 729.775 260.568V268.594H727.67V260.545C727.67 259.904 727.576 259.391 727.387 259.006C727.198 258.613 726.923 258.33 726.561 258.157C726.198 257.976 725.753 257.885 725.225 257.885C724.704 257.885 724.229 257.995 723.799 258.213C723.376 258.432 723.01 258.734 722.701 259.119C722.399 259.504 722.161 259.945 721.987 260.443C721.821 260.934 721.738 261.455 721.738 262.006ZM742.386 266.703L745.736 256.346H747.876L743.472 268.594H742.069L742.386 266.703ZM739.59 256.346L743.042 266.76L743.28 268.594H741.876L737.439 256.346H739.59ZM752.166 256.346V268.594H750.061V256.346H752.166ZM749.902 253.097C749.902 252.757 750.004 252.471 750.208 252.237C750.419 252.003 750.728 251.886 751.136 251.886C751.536 251.886 751.842 252.003 752.053 252.237C752.272 252.471 752.381 252.757 752.381 253.097C752.381 253.421 752.272 253.701 752.053 253.935C751.842 254.161 751.536 254.274 751.136 254.274C750.728 254.274 750.419 254.161 750.208 253.935C750.004 253.701 749.902 253.421 749.902 253.097ZM760.611 268.82C759.758 268.82 758.984 268.677 758.29 268.39C757.603 268.096 757.011 267.684 756.513 267.156C756.022 266.628 755.645 266.002 755.381 265.277C755.117 264.553 754.985 263.76 754.985 262.9V262.424C754.985 261.428 755.132 260.542 755.426 259.764C755.721 258.979 756.12 258.315 756.626 257.772C757.132 257.229 757.705 256.817 758.347 256.538C758.988 256.259 759.652 256.119 760.339 256.119C761.214 256.119 761.969 256.27 762.603 256.572C763.244 256.874 763.769 257.297 764.176 257.84C764.584 258.376 764.886 259.01 765.082 259.742C765.278 260.466 765.376 261.258 765.376 262.119V263.058H756.23V261.349H763.282V261.191C763.252 260.647 763.139 260.119 762.943 259.606C762.754 259.093 762.452 258.67 762.037 258.338C761.622 258.006 761.056 257.84 760.339 257.84C759.864 257.84 759.426 257.942 759.026 258.146C758.626 258.342 758.283 258.636 757.996 259.028C757.709 259.421 757.486 259.9 757.328 260.466C757.169 261.032 757.09 261.685 757.09 262.424V262.9C757.09 263.481 757.169 264.028 757.328 264.541C757.494 265.047 757.732 265.492 758.041 265.877C758.358 266.262 758.739 266.564 759.184 266.783C759.637 267.001 760.15 267.111 760.724 267.111C761.463 267.111 762.09 266.96 762.603 266.658C763.116 266.356 763.565 265.952 763.95 265.447L765.218 266.454C764.954 266.854 764.618 267.235 764.21 267.598C763.803 267.96 763.301 268.254 762.705 268.481C762.116 268.707 761.418 268.82 760.611 268.82ZM770.923 266.42L774.07 256.346H775.451L775.179 258.349L771.976 268.594H770.629L770.923 266.42ZM768.806 256.346L771.489 266.534L771.682 268.594H770.267L766.712 256.346H768.806ZM778.462 266.454L781.02 256.346H783.103L779.549 268.594H778.145L778.462 266.454ZM775.757 256.346L778.836 266.251L779.187 268.594H777.851L774.557 258.327L774.285 256.346H775.757ZM792.385 265.345C792.385 265.043 792.318 264.764 792.182 264.507C792.053 264.243 791.786 264.005 791.378 263.794C790.978 263.575 790.374 263.387 789.567 263.228C788.888 263.085 788.273 262.915 787.722 262.719C787.178 262.523 786.714 262.285 786.329 262.006C785.952 261.726 785.662 261.398 785.458 261.021C785.254 260.643 785.152 260.202 785.152 259.696C785.152 259.213 785.258 258.757 785.469 258.327C785.688 257.896 785.994 257.515 786.386 257.183C786.786 256.851 787.265 256.591 787.824 256.402C788.382 256.214 789.005 256.119 789.691 256.119C790.672 256.119 791.51 256.293 792.204 256.64C792.899 256.987 793.431 257.451 793.8 258.032C794.17 258.606 794.355 259.244 794.355 259.945H792.261C792.261 259.606 792.159 259.278 791.955 258.961C791.759 258.636 791.469 258.368 791.084 258.157C790.706 257.946 790.242 257.84 789.691 257.84C789.11 257.84 788.639 257.93 788.276 258.112C787.922 258.285 787.661 258.508 787.495 258.779C787.337 259.051 787.258 259.338 787.258 259.64C787.258 259.866 787.295 260.07 787.371 260.251C787.454 260.425 787.597 260.587 787.801 260.738C788.005 260.881 788.291 261.017 788.661 261.145C789.031 261.274 789.503 261.402 790.076 261.53C791.08 261.757 791.906 262.028 792.555 262.345C793.204 262.662 793.687 263.051 794.004 263.511C794.321 263.971 794.48 264.53 794.48 265.186C794.48 265.722 794.366 266.213 794.14 266.658C793.921 267.103 793.6 267.488 793.178 267.813C792.763 268.13 792.265 268.379 791.684 268.56C791.11 268.733 790.465 268.82 789.748 268.82C788.669 268.82 787.756 268.628 787.009 268.243C786.261 267.858 785.695 267.36 785.311 266.749C784.926 266.137 784.733 265.492 784.733 264.813H786.839C786.869 265.386 787.035 265.843 787.337 266.183C787.639 266.515 788.008 266.752 788.446 266.896C788.884 267.032 789.318 267.1 789.748 267.1C790.322 267.1 790.801 267.024 791.186 266.873C791.578 266.722 791.876 266.515 792.08 266.251C792.284 265.986 792.385 265.685 792.385 265.345Z" fill="white"/>
<g clip-path="url(#clip4_836_1514)">
<path d="M1172.7 60.4964C1177.8 60.4964 1181.94 56.2918 1181.94 51.1051C1181.94 45.9185 1177.8 41.7139 1172.7 41.7139C1167.6 41.7139 1163.47 45.9185 1163.47 51.1051C1163.47 56.2918 1167.6 60.4964 1172.7 60.4964Z" fill="#1BEA9F"/>
<path d="M1171.39 48.8888H1172.63C1172.95 48.8888 1173.2 48.8335 1173.41 48.7228C1173.61 48.6071 1173.77 48.4461 1173.87 48.2398C1173.97 48.0285 1174.02 47.7795 1174.02 47.4927C1174.02 47.2713 1173.97 47.0676 1173.87 46.8814C1173.78 46.6953 1173.64 46.5469 1173.45 46.4362C1173.26 46.3205 1173.02 46.2626 1172.72 46.2626C1172.52 46.2626 1172.32 46.3054 1172.13 46.3909C1171.94 46.4714 1171.78 46.5871 1171.65 46.738C1171.53 46.889 1171.47 47.0726 1171.47 47.2889H1168.92C1168.92 46.6651 1169.09 46.1318 1169.44 45.6891C1169.78 45.2413 1170.24 44.8992 1170.8 44.6627C1171.37 44.4212 1171.98 44.3005 1172.64 44.3005C1173.42 44.3005 1174.1 44.4212 1174.69 44.6627C1175.28 44.8992 1175.73 45.2514 1176.06 45.7193C1176.39 46.1821 1176.56 46.7557 1176.56 47.4399C1176.56 47.8172 1176.47 48.1719 1176.3 48.5039C1176.12 48.836 1175.87 49.1278 1175.56 49.3793C1175.24 49.6309 1174.87 49.8296 1174.44 49.9755C1174.02 50.1164 1173.55 50.1868 1173.05 50.1868H1171.39V48.8888ZM1171.39 50.783V49.5152H1173.05C1173.6 49.5152 1174.1 49.5781 1174.55 49.7038C1175.01 49.8246 1175.4 50.0057 1175.72 50.2472C1176.05 50.4887 1176.3 50.788 1176.48 51.1452C1176.65 51.4974 1176.74 51.9024 1176.74 52.3602C1176.74 52.8734 1176.64 53.3312 1176.43 53.7337C1176.23 54.1362 1175.94 54.4758 1175.56 54.7525C1175.19 55.0292 1174.76 55.2405 1174.26 55.3864C1173.76 55.5273 1173.22 55.5977 1172.64 55.5977C1172.18 55.5977 1171.72 55.5373 1171.26 55.4166C1170.8 55.2908 1170.39 55.0996 1170.01 54.8431C1169.63 54.5814 1169.33 54.2494 1169.1 53.8469C1168.87 53.4394 1168.76 52.9539 1168.76 52.3904H1171.31C1171.31 52.6218 1171.37 52.8332 1171.5 53.0243C1171.63 53.2105 1171.8 53.3589 1172.02 53.4696C1172.23 53.5803 1172.47 53.6356 1172.72 53.6356C1173.03 53.6356 1173.29 53.5777 1173.51 53.462C1173.73 53.3413 1173.9 53.1803 1174.02 52.9791C1174.13 52.7778 1174.19 52.5539 1174.19 52.3074C1174.19 51.9351 1174.13 51.6383 1174 51.4169C1173.88 51.1955 1173.7 51.0346 1173.47 50.9339C1173.23 50.8333 1172.96 50.783 1172.63 50.783H1171.39Z" fill="black"/>
<line x1="1172.09" y1="121.958" x2="1172.09" y2="68.6081" stroke="#1BEA9F" stroke-width="1.23115"/>
</g>
<g clip-path="url(#clip5_836_1514)">
<line x1="971.718" y1="244.243" x2="971.718" y2="190.893" stroke="#1BEA9F" stroke-width="1.23115"/>
<path d="M972.333 269.935C977.433 269.935 981.567 265.73 981.567 260.544C981.567 255.357 977.433 251.152 972.333 251.152C967.234 251.152 963.1 255.357 963.1 260.544C963.1 265.73 967.234 269.935 972.333 269.935Z" fill="#1BEA9F"/>
<path d="M976.372 262.923V264.885H968.705V263.225L972.236 259.512C972.548 259.155 972.8 258.835 972.991 258.554C973.182 258.267 973.321 258.008 973.406 257.776C973.497 257.545 973.542 257.336 973.542 257.15C973.542 256.833 973.494 256.569 973.399 256.358C973.308 256.141 973.172 255.978 972.991 255.867C972.815 255.756 972.596 255.701 972.334 255.701C972.073 255.701 971.844 255.777 971.648 255.927C971.452 256.078 971.298 256.285 971.187 256.546C971.082 256.808 971.029 257.102 971.029 257.429H968.478C968.478 256.755 968.642 256.139 968.969 255.58C969.301 255.022 969.761 254.577 970.35 254.245C970.938 253.908 971.62 253.739 972.395 253.739C973.205 253.739 973.884 253.865 974.432 254.116C974.981 254.368 975.393 254.733 975.67 255.211C975.952 255.683 976.093 256.254 976.093 256.924C976.093 257.306 976.032 257.673 975.912 258.025C975.791 258.378 975.617 258.727 975.391 259.074C975.164 259.417 974.888 259.769 974.561 260.131C974.239 260.493 973.871 260.878 973.459 261.286L972.04 262.923H976.372Z" fill="black"/>
</g>
<g clip-path="url(#clip6_836_1514)">
<line x1="828.914" y1="244.243" x2="828.914" y2="190.893" stroke="#1BEA9F" stroke-width="1.23115"/>
<path d="M829.529 269.935C834.628 269.935 838.762 265.73 838.762 260.544C838.762 255.357 834.628 251.152 829.529 251.152C824.429 251.152 820.295 255.357 820.295 260.544C820.295 265.73 824.429 269.935 829.529 269.935Z" fill="#1BEA9F"/>
<path d="M831.53 253.897V264.885H828.986V256.765L826.481 257.497V255.565L831.296 253.897H831.53Z" fill="black"/>
</g>
<defs>
<clipPath id="clip0_836_1514">
<rect width="22.1402" height="22.1402" fill="white" transform="translate(867.252 138.613)"/>
</clipPath>
<clipPath id="clip1_836_1514">
<rect width="22.1402" height="22.1402" fill="white" transform="translate(1039.95 138.613)"/>
</clipPath>
<clipPath id="clip2_836_1514">
<rect width="22.1402" height="22.1402" fill="white" transform="translate(1109.22 138.613)"/>
</clipPath>
<clipPath id="clip3_836_1514">
<rect width="22.1402" height="22.1402" fill="white" transform="translate(1162.36 138.613)"/>
</clipPath>
<clipPath id="clip4_836_1514">
<rect width="18.4673" height="80.0249" fill="white" transform="translate(1163.47 41.6899)"/>
</clipPath>
<clipPath id="clip5_836_1514">
<rect width="18.4673" height="80.0249" fill="white" transform="translate(963.1 191.136)"/>
</clipPath>
<clipPath id="clip6_836_1514">
<rect width="18.4673" height="80.0249" fill="white" transform="translate(820.295 191.136)"/>
</clipPath>
</defs>
</svg>
